<svg width="732" height="658" fill="none" xmlns="http://www.w3.org/2000/svg"><path d="M452.94 208.61a4.18 4.18 0 0 0-.54 1.49c.121-.507.302-.997.54-1.46v-.03z" fill="#fff"/><path d="M590.18 233.24c-2-10.36-9.62-18.78-18.37-24.18a56.336 56.336 0 0 0-5.88-3c.162-.967.272-1.941.33-2.92.78-14.91 4.46-32.09-6.16-44.35-10.44-12-29.86-12.37-44.26-10-12.21 2-23.89 7.8-34.55 13.89-12.92 7.36-24.42 15.94-27 31.61a102.985 102.985 0 0 0-1.19 11.45c0 1-.11 1.92-.16 2.88 0-.08.08-.16.13-.24a2.234 2.234 0 0 0-.13.27c0 .36-.05.72-.06 1.08-.08 1.86-.64 1.5-.48.38-.42 1.62-.61 3.63-1 4.87l-.24.71c-.28.73-.44 1.18-.5 1.37-.44.69-.89 1.34-1.06 1.63-.51.88-1.07 1.72-1.59 2.59-.283.44-.537.897-.76 1.37-1.18 1.27-2.69 2.52-3.64 3.38l-1.07 1a6.59 6.59 0 0 0-1.08.57 92.418 92.418 0 0 0-10.05 7.31A42.84 42.84 0 0 0 421 249.06c-1.12 2.42-2 4.93-3.06 7.39-.27.5-.66 1.28-.89 1.74-.09.18-.37.7-.67 1.29-.39.43-1.37 1.77-1.65 2.08-.56.61-.85.94-1 1.11-1.53 1-3.5 1.95-4.29 2.48-5.23 3.52-10.4 7.33-14.57 12.09-3.28 3.75-6.17 7.82-9.55 11.49a87.412 87.412 0 0 1-5.23 5.21c-1 .92-2.1 1.76-3.1 2.69h-.05l-.7.52a86.65 86.65 0 0 1-12.73 7.46l-1.48.72-1.33.53c-3.69 1.53-7.45 3-11 4.81-11.64 6-19.16 16-24.27 27.69-4.32 9.91-10 18.62-16.09 27.55-14.11 20.85-20.66 43.42-23 68.31-.78 8.14-1.06 16.32-1.19 24.49-.724.759-1.5 1.467-2.32 2.12-.41.22-1.15.67-1.9 1.18a94.075 94.075 0 0 1-3.8 2.43c-2.56 1.57-5.18 3-7.81 4.48a845.22 845.22 0 0 1-19.78 10.44c-3.57 1.81-7.16 3.58-10.79 5.27-1.57.74-3.15 1.44-4.73 2.16a69.027 69.027 0 0 0-14.02 1.96c-4.36 1.13-8.43 3.16-12.55 5 1.44-.65-1.36.37-2.41.78a112.736 112.736 0 0 0-11.04-2.91 58.29 58.29 0 0 0-27.12 2.05c-6.42 2-12.57 4.74-19 6.7h-5a19.036 19.036 0 0 0-4.93.64l-.59-.22c-9.82-3.69-22.36 4.09-24.6 14-2.59 11.37 3.46 20.65 14 24.6a37.72 37.72 0 0 0 9 2.16 39.684 39.684 0 0 0 14.27 6.71c9.61 2.35 18.74 1.07 28.4.4 17.74-1.22 35.54 1 53.25-1.14a130.65 130.65 0 0 0 50.26-16.39c7.7-4.45 16.16-10 22.85-16.86a90.07 90.07 0 0 0 66.75 22.31c8.06-.72 16.05-2.14 24-3.59 2.27-.41 5-1.29 7.43-1.51.446.035.894.035 1.34 0 1.91-.17 3.81-.37 5.72-.5 14-.93 28.09.23 42.08 1.37 10.88.89 20.26-9.06 21.61-19.07 1.5-11.17-5.27-20.57-15.76-24.14-7.21-2.45-14.49-4.76-21.63-7.4l-.69-.26c-1-.48-2-1-3-1.5-.35-.19-.68-.4-1-.61.24-.34.42-.6.52-.76.89-.83 2-1.64 2.43-2.06 2.58-2.4 5.36-4.57 8.06-6.83 10.66-8.92 18.8-20.2 26.71-31.55a416.314 416.314 0 0 0 8.15 27.11 328.747 328.747 0 0 0 14.69 37.27c5.73 11.9 14.6 23.24 26.6 29.28 7.15 3.6 15.09 4.17 22.21 0 6.28-3.67 11.51-11.45 10.9-19-1.6-19.68-10.29-36.51-17.13-54.71a474.959 474.959 0 0 1-16.06-51.37 464.548 464.548 0 0 1-5.82-26.28c-.82-4.26-1.58-8.526-2.28-12.8-.353-2.14-.687-4.28-1-6.42-.2-1.34-1.47-8.42-.5-3.35a95.057 95.057 0 0 1-1.48-12.9c-.09-1.84 0-3.66-.07-5.5v-1.22c.2-1 .48-2 .73-2.93a64.4 64.4 0 0 1 2-6.18c.35-.95 1.12-2.82 1.23-3.09 1.82-4.233 3.683-8.45 5.59-12.65 3.72-8.18 7.593-16.29 11.62-24.33 1.63-3.26 3.3-6.5 5-9.74h.19a57.86 57.86 0 0 0 15.77 1.81c11.41-.6 23.06-4.75 30.85-13.42a39.618 39.618 0 0 0 9.63-34.51zm-64.94 1.3 1.16-1.34c.45.43.91.82 1.37 1.22-.85.01-1.69.05-2.53.12zm10.42-10.34a5.065 5.065 0 0 1-1.77 1.5 9.987 9.987 0 0 0 1.77-1.5zM373.5 347.91c1-.48 2.89-1.08 0 0zm56.28 130.37v-.18c.23 0 .36.15.43.42l-.43-.24zM549 237.17h-.06a.272.272 0 0 1 .09 0H549zm-.08 0h-.31c.109-.014.22-.014.33 0h-.02zm-.29 9.15.4.23c.074.052.141.112.2.18l-.6-.41zm-97-31.68a4.7 4.7 0 0 1-.94 2.28c.18-.35.49-1.11.97-2.28h-.03zm-3 6a7.275 7.275 0 0 1-1 1.51c.42-.54.89-1.24 1.06-1.54l-.06.03zm-33.16 40.48-.11.22c-.365.4-.778.753-1.23 1.05.51-.39 1.11-1.02 1.4-1.3l-.06.03zm15.98 218.18-.09-.06c.17-.19.36-.38.56-.58l-.47.64zm76.46 33.87a2.052 2.052 0 0 0 0-.47c.03.155.03.315 0 .47zM537 273.32c.31-.37.52-.5 0 0z" fill="#fff"/><path d="M606 235.24a50.13 50.13 0 0 0-1.91-7.77 61.321 61.321 0 0 0-2.9-7.3 13.471 13.471 0 0 0-2.67-4.06 14.772 14.772 0 0 0-3.9-2.88c-2.9-1.45-4.78-.36-7.13-.84-2.35-.48-7.13.22-9.25-.4-2.41-.65-6.61-6-6.57-6.09.313-1.145.428-2.336.34-3.52a11.672 11.672 0 0 0 4-4.71 30.85 30.85 0 0 0 1.72-5c.36-1.25 3.25-2.48 3.83-4.09a17.612 17.612 0 0 0 1.2-5.81 11.211 11.211 0 0 0-2.11-6.6 13.142 13.142 0 0 0-4.92-4.25 21.083 21.083 0 0 1-3.52-1.77 4.644 4.644 0 0 1-.89-.93c-.06-.08-.12-.18-.18-.28a8.394 8.394 0 0 0-.16-1.5 5.94 5.94 0 0 0-.68-1.72 5.709 5.709 0 0 0-1.2-1.37 11.85 11.85 0 0 0-2.83-1.74l-.47-.22a5.045 5.045 0 0 1 0-.55c.456-.61.857-1.259 1.2-1.94a6.825 6.825 0 0 0 .3-4.93 8.087 8.087 0 0 0-2.2-3.66 9.932 9.932 0 0 0-6.86-2.42 20.399 20.399 0 0 0-2.88.19 8.562 8.562 0 0 0-2.13.55.818.818 0 0 0 0-.14 7.409 7.409 0 0 0-1-2.49 8.248 8.248 0 0 0-1.69-1.89 7.209 7.209 0 0 0-2.38-1.32 9.518 9.518 0 0 0-4.3-.23l-1.4.17a6.272 6.272 0 0 0-2.81 1.15l-.7.5-.36.08a7.116 7.116 0 0 1-1.79.11 2.654 2.654 0 0 1-1.13-.33 1.698 1.698 0 0 1-.41-.32c-.09-.08-.09-.1-.14-.14a7.166 7.166 0 0 0-1.71-1.52 2.453 2.453 0 0 0-.68-.28h-.11a21.137 21.137 0 0 0-9.88-.35 14.767 14.767 0 0 0-3.75 1.51c-.35-.414-.728-.805-1.13-1.17a7.804 7.804 0 0 0-4.87-1.88 8.192 8.192 0 0 0-4.9 1.5 8.623 8.623 0 0 0-2.9 3.84 19.448 19.448 0 0 0-1 3.63 8.357 8.357 0 0 0-2.81-.8 8.525 8.525 0 0 0-5.91 1.62 17.865 17.865 0 0 0-2 1.86 4.998 4.998 0 0 0-1.19 2.54l-.24.12a1.632 1.632 0 0 0-.41-.32 3.36 3.36 0 0 0-1-.43l-.45-.13c-.3-.11-.6-.23-.93-.38a12.014 12.014 0 0 0-2.54-1 4.444 4.444 0 0 0-3.43.7 9.832 9.832 0 0 0-2.08 1.91 4.921 4.921 0 0 0-1.21 3 4.634 4.634 0 0 1-.25 1.85v.14a1.006 1.006 0 0 0-.07.46 5.63 5.63 0 0 1-2.82 5.11l-1.36-.26-.8.12c.095-.044.196-.075.3-.09a2.891 2.891 0 0 0-.72 0c-1 .25-1 .55-1.32.72a8.269 8.269 0 0 0-1.43 1.46 11.164 11.164 0 0 0-1.77 3.55c-.74 2.43-1 4.82-2.11 6.73a2.57 2.57 0 0 1-2.25 1.64c-1.09.13-2.34.07-3.61.23s-4.87-1.2-5.93-.37a13.472 13.472 0 0 0-2.83 4c-.55 1.17-.5 3.26-.7 4.54-.2 1.28.85 3.34.71 4.45-.14 1.11 1.07 1.37.53 2.34a20.762 20.762 0 0 1-2.09 2.86 13.822 13.822 0 0 0-2.09 3.1 5.996 5.996 0 0 0-.06 3.82c0 .09.06.17.08.26a3.676 3.676 0 0 0-.65 1.24c.07.84.12 1.68.17 2.52l.37.82c.441.978.698 2.029.76 3.1 0 1.765-.259 3.521-.77 5.21l-.41.13a51.413 51.413 0 0 1-.95 9.16c1 5.8-1 11.73-5 16.4 1.29-1.52-.89 1.73-1.1 2.15a17.1 17.1 0 0 0-1.16 2.82 83.621 83.621 0 0 0-2.61 9.61c-1.36 6.19-1.63 13.25-1.81 19.89v1c.19.68.39 1.36.61 2 3.76 5.6 8 10.9 11.71 16.5 1.42.754 2.81 1.554 4.17 2.4.43.13.86.24 1.3.34 1.92.35 2.85.34 4.11.55a21.74 21.74 0 0 1 3.21.7 25.025 25.025 0 0 1 6.05 3.15 18.99 18.99 0 0 0 9 3.34 69.242 69.242 0 0 0 8.36-.32l7.76-.73a50.387 50.387 0 0 0 8-.93c2.13-1.27 4.24-2.58 6.31-4 3.06-2.08 6.29-4.33 9.68-6.22a23.634 23.634 0 0 0 4.52-11.93l4.43-.24c5.29-.21 10.81-.75 15.9-.66 1.219.031 2.433.165 3.63.4 1.08.24 2.32.7 3.69 1.12 1.579.545 3.259.733 4.92.55a13.796 13.796 0 0 0 4.35-1.79c.284-.145.533-.349.73-.6l.08-.11.91-1.24a4.847 4.847 0 0 1 4.28-.43l1 .4a.16.16 0 0 0 .11-.032.16.16 0 0 0 .06-.098.151.151 0 0 0-.033-.106.153.153 0 0 0-.097-.054c-.09 0 .42.08 1.35.2.559.05 1.121.016 1.67-.1.402-.089.799-.199 1.19-.33a15.301 15.301 0 0 0 3.93-2.08c2.18-1.55 3.75-2.64 5.42-2.81.9-.13 2.17 0 3.84-.31a7.745 7.745 0 0 0 4.92-2.87 15.509 15.509 0 0 0 1.78-4c.044-.093.094-.183.15-.27l.22-.2c.24-.21.35-.24.37-.24.36-.02.72-.02 1.08 0a6.563 6.563 0 0 0 3.22-.65 5.873 5.873 0 0 0 2.64-2.55 9.85 9.85 0 0 0 .79-2.53c.018-.101.041-.201.07-.3.185-.146.386-.27.6-.37a13.828 13.828 0 0 0 4-2.25c2.82-2.66 3.41-6.33 3.47-9.06 0-1.51 0-2.46.08-3.63l.29-3.62a33.762 33.762 0 0 0-.07-8.21zm-56.76-81.42 2.85-2a3.232 3.232 0 0 0-.57-.61l-.22-.17-1.77.66.39-.15 1.38-.51c.08.06.12.12.19.18.227.165.42.373.57.61l-2.86 2 .04-.01zm47.42 98.07a7.726 7.726 0 0 1-1.13 1.93c-.236.318-.49.621-.76.91l-.31.33h-1.18a2.558 2.558 0 0 0-1.22.39 2.13 2.13 0 0 0-.57.55l-.25.38c-.49.88-.84 1.86-1 2.08a1.259 1.259 0 0 0-.33.77v.65c-.438.06-.882.06-1.32 0l-.76-.11a.125.125 0 0 0-.051.002.12.12 0 0 0-.047.022.127.127 0 0 0-.052.086.14.14 0 0 0 .03.099.142.142 0 0 0 .09.051 5.014 5.014 0 0 0-1.89.44 5.3 5.3 0 0 0-1.77 1.83c-.136.23-.297.445-.48.64-.312.3-.587.636-.82 1a2.126 2.126 0 0 0-.12 2c.184.384.446.724.77 1a12.49 12.49 0 0 1-1.48.81c-.6.25-1.17.52-1.8.75a9.608 9.608 0 0 1-1.63.58c-.95.15-2.58-.22-4.1.23-1.403.349-2.75.894-4 1.62-1.22.61-2.43 1.45-3.49 2a7.697 7.697 0 0 1-3.37 1 5.091 5.091 0 0 1-1.64-.29 4.751 4.751 0 0 0-2.51 0 17.464 17.464 0 0 0-4 1.63 3.219 3.219 0 0 0-1.17 1 2.451 2.451 0 0 0-.41 1.7l-.2.05a13.606 13.606 0 0 1-3.52.11c-1.09-.23-2.3-.83-3.77-1.23a34.555 34.555 0 0 0-4.19-.56 64.104 64.104 0 0 0-8.2 0c-4.57.27-9.08.78-13.55 1.16a12.64 12.64 0 0 0-.52-1.85c-.54-1.46-1.18-2.61-1.61-3.65a16.132 16.132 0 0 1-1.51-6.54 45.279 45.279 0 0 1 1.22-7.35 13.81 13.81 0 0 0 .28-4.5 17.636 17.636 0 0 0-1.17-4.19c-1.11-2.75-2.82-4.75-3.55-6.91a20.847 20.847 0 0 1-.71-7.33c0-1.31.06-2.64 0-4-.05-.69-.09-1.33-.21-2.06a9.324 9.324 0 0 0-.73-2 47.938 47.938 0 0 1-1.75-7.43 32.493 32.493 0 0 1-.2-7.69l.2-1.93a1.999 1.999 0 0 0-.76-2.13 2.39 2.39 0 0 0-3.56 1.72c-.75 5.16-1 10.53.27 15.7.59 2.59 1.55 5 1.66 7.51.11 2.51-.77 5-.58 7.86.19 2.86 1.56 5.4 2.63 7.72 1.07 2.32 2 4.65 1.57 6.65-.43 2-1.89 4-3.21 6.57a11.007 11.007 0 0 0-1.25 4.55A10.136 10.136 0 0 0 508 271c1.44 2.74 2.53 4.42 3 6.66.511 2.136.548 4.358.11 6.51a15.287 15.287 0 0 1-7.58 10c-3.77 2.16-8.32 2.23-13.66 2.21-5.49-.15-10.85 1.21-15 .34a16.386 16.386 0 0 1-6.13-2.65 28.817 28.817 0 0 0-3.77-2.12 13.614 13.614 0 0 0-2.31-.77c-.86-.19-1.34-.25-2-.38-5.12-.85-9.44-2.14-12.2-6.06a31.424 31.424 0 0 1-5.43-13.59 32.568 32.568 0 0 1 1.43-14.84c1.61-4.77 4.79-8.9 7.35-13.58a28.968 28.968 0 0 0 3-7.52c.69-2.65.64-5.48.9-7.91.5-5.05 1.94-10.29 1.11-16a17.889 17.889 0 0 0-1.14-4.13l-.46-1-.24-.5a4.652 4.652 0 0 0-.55-.73 2.877 2.877 0 0 0-.71-.55c.1-.655.365-1.275.77-1.8a26.875 26.875 0 0 1 2.21-2.51c.77-.84 3.27-1.38 3.67-2.6a9.866 9.866 0 0 0 0-3.52c-.11-1-1.32-2.38-1-3.46.36-1.046.829-2.052 1.4-3a5.277 5.277 0 0 1 2.21-2.14 3.434 3.434 0 0 1 2.89.21h.09l2.07.08a.382.382 0 0 0 .25-.09l.06-.05a10.785 10.785 0 0 0 2.42-2.12 8.264 8.264 0 0 0 1.24-2.99c.35-2.08.4-4.19 1.09-5.94a3.943 3.943 0 0 1 1.65-2c.8-.51 1.07-.23 2.45.11a8.425 8.425 0 0 0 3.46-.4 5.875 5.875 0 0 0 3-2 6.679 6.679 0 0 0 1.6-3.26c.08-1.56-.29-2.18 0-2.93a25.727 25.727 0 0 1 1.74-3.62c.049.2.109.397.18.59.122.362.305.7.54 1 .1.33 1.16.93 1.07.86.338.197.647.44.92.72.484.527 1.078.94 1.74 1.21.737.235 1.52.283 2.28.14a5.758 5.758 0 0 0 3.5-2l.15-.21.07-.1 1.27-2.52c.084-.164.128-.345.13-.53v-.1a2.49 2.49 0 0 1 .32-1.44c-.05.05 0-.06.71.14a14.874 14.874 0 0 1 3.84 2.25 3.705 3.705 0 0 0 3 1.43 3.859 3.859 0 0 0 3.25-2c.348-.645.652-1.314.91-2a6.72 6.72 0 0 1 .63-1.31 1.43 1.43 0 0 0 .25-.53v-.1c.18-.76.43-2 .44-2 .08-.08-.06.05.18 0a5.772 5.772 0 0 1 2.16.07 4.365 4.365 0 0 0 1.71 1.33 4.151 4.151 0 0 0 4-.53l1.42-1.22a9.747 9.747 0 0 1 1.16-.87c.12-.08.22-.11.34-.18-.231.386-.481.76-.75 1.12a9.82 9.82 0 0 0-.74 1.08c-.46.764-.858 1.563-1.19 2.39a20.475 20.475 0 0 0-1 2.71 8.573 8.573 0 0 0-.24 3.68c.072.386.169.767.29 1.14.07.19.13.37.21.54l.38.76c.303.513.7.965 1.17 1.33.29.23.61.44.79.37.18-.07 0 0 .17-1 .06-.311.19-.605.38-.86l-.08.37a4.287 4.287 0 0 0-.09.74 3.311 3.311 0 0 0 3 3.59 2.819 2.819 0 0 0 2.91-1.41 9.161 9.161 0 0 0 1.12-2.77c.147-1.114.171-2.241.07-3.36-.2-1.16.31-1.13.38-1.15a5.688 5.688 0 0 0 .23-1.83c0-1.68-.67-3.43-.57-5.13.923.68 1.932 1.235 3 1.65a9.474 9.474 0 0 0 2.29.57c.487.1.985.127 1.48.08a7.493 7.493 0 0 0 1.36-.27c1.35-.38 2.4-.79 3.47-1.16l.34-.12a4.915 4.915 0 0 0 .7 1.81l.15.22.08.12a7.677 7.677 0 0 0-2.1 2.22c-1.9 3.27-1.94 6-2.36 7.46a54.834 54.834 0 0 0-1.36 6.18 12.518 12.518 0 0 1-.42 2 2.842 2.842 0 0 0 .8 3.07 2.861 2.861 0 0 0 2.167.665 2.877 2.877 0 0 0 1.973-1.115c1.29-2 3.41-3.53 5.27-5.57a9.003 9.003 0 0 0 2.09-3.62 12.97 12.97 0 0 0 .47-3.12 2.7 2.7 0 0 0-.09-.81.467.467 0 0 1 .05-.62c.353-.283.78-.46 1.23-.51a6.75 6.75 0 0 1 .91-.07c.493.01.982-.093 1.43-.3a3.476 3.476 0 0 0 1.78-2c.037-.131.067-.265.09-.4l-.09.74a11.9 11.9 0 0 0 .17 4.65 6.526 6.526 0 0 0 1.5 2.76 9 9 0 0 0 2 1.68c.58.379 1.189.714 1.82 1 .2.12.12 0 .33.27.218.288.419.588.6.9.08.22 0-.11 0 .26a6.623 6.623 0 0 0 .74 3c.43.773.973 1.477 1.61 2.09a10.598 10.598 0 0 0 1.91 1.56c.675.41 1.392.746 2.14 1 .258.075.504.186.73.33.201.167.376.363.52.58a16.559 16.559 0 0 1 1.41 2.53l.8 1.54a6.991 6.991 0 0 0-.74 1.84 8.323 8.323 0 0 0-.34 2.61c.03.67.097 1.338.2 2 .081.415.118.838.11 1.26a3.177 3.177 0 0 1-.94.27 10.19 10.19 0 0 1-1.36.17l-.69.07a5.24 5.24 0 0 0-1.05.29 5.012 5.012 0 0 0-1.75 1.16 4.614 4.614 0 0 0-1.22 4c-.09 4.54-.15 6.23-.15 6.43 0 .72.07 1.39.07 1.39.465.849.972 1.673 1.52 2.47a22.06 22.06 0 0 0 8.79 7.61c7.35 3.74 15.68.45 18.65 5.58a17.952 17.952 0 0 1 2 3.95c-.93.246-1.834.581-2.7 1a13.714 13.714 0 0 0-3.82.94 8.534 8.534 0 0 0-4.12 4 17.624 17.624 0 0 0-1.34 5.59c-.2 1.928-.126 3.874.22 5.78a10.54 10.54 0 0 0 2.92 5.84 7.881 7.881 0 0 0 3.36 1.9 6.423 6.423 0 0 0 4.31-.34c2.53-1.13 3.83-3.25 4.71-4.16a10.447 10.447 0 0 1-.55 4.22h-.02z" fill="#174f78"/><path d="M554.36 160.54a2.723 2.723 0 0 0-.08-.69h.13c0 .15-.02.41-.05.69zm11.36 1.46s0 .07 0 0zm2.13 59.35a7.45 7.45 0 0 1 1.84-.21c.55.05 1.88-.08 2.28-1a2.455 2.455 0 0 0 .08-2.315 2.467 2.467 0 0 0-1.88-1.355 13.072 13.072 0 0 0-8.12 1.27c-2.56 1.54-4.43 3.65-6.35 3.46-.725.12-1.443.28-2.15.48a5.636 5.636 0 0 0-1.49.76c-.384.256-.748.54-1.09.85a12.383 12.383 0 0 0-1.68 2.15l-1 1.49c-.74 1.07-1.35 2.1-2 2.93-.24.34-.85 1-.68.86 0 0 0 .05-.32.22a6.488 6.488 0 0 0-1.57 1 4.995 4.995 0 0 0-1.14 1.53c-.118.22-.221.447-.31.68-.144.349-.255.71-.33 1.08a6.392 6.392 0 0 0 .27 3c.061.211.135.418.22.62 0 .16.16-.36.3-.41.06.1-.46.71-.92 1.26a6.797 6.797 0 0 0-1.43 2.52 5.685 5.685 0 0 0 .15 2.57c.09.579.113 1.166.07 1.75v2a33.178 33.178 0 0 1-1.12 7.7 13.003 13.003 0 0 0-.6 4.41c.088.78.249 1.55.48 2.3a3.461 3.461 0 0 0 2.68 2.6 4.002 4.002 0 0 0 3.71-1.41 4.214 4.214 0 0 0 .76-4.14 4.931 4.931 0 0 1 .44-2.28l1.41-3.49c.312-.785.546-1.599.7-2.43.13-.76.23-1.47.31-2.2.07-1.144.231-2.281.48-3.4.125-.436.286-.86.48-1.27.1-.2.26-.54.23-.43l.42-.59a14.45 14.45 0 0 0 1.35-2.05 4.762 4.762 0 0 0 .43-2.79v-.13l.39-.29a13.185 13.185 0 0 0 4-3.6 6.453 6.453 0 0 0 .91-1.9 9.82 9.82 0 0 0 .28-1.52c0-.76.19-1-.25-.33.23-.41.1-.55 1.6-1.32a9.124 9.124 0 0 0 2.31-1.59 11.472 11.472 0 0 0 1.53-2c1.66-2.7 1.75-4.57 4.32-5.04zm-40.68-34.89c-.341.318-.64.677-.89 1.07-.198.32-.371.654-.52 1a7.46 7.46 0 0 0-.49 2c-.024.31-.024.621 0 .93 0 .3 0 .51.06 1.18.267 1.03.625 2.034 1.07 3 .379.877.648 1.797.8 2.74.014.12.014.241 0 .36a2.594 2.594 0 0 0-1.41.85 3.444 3.444 0 0 0 .23 4.55 4.25 4.25 0 0 0 2.42 1.07c.726.15 1.474.15 2.2 0a5.675 5.675 0 0 0 3.94-3.21c.562-1.262.878-2.619.93-4 .08-1.23-.08-2.53-.08-3.21-.006-.548.024-1.096.09-1.64 0 0-.43.39.48-.79.243-.316.46-.65.65-1l.3-.59c.06-.126.11-.256.15-.39a5.904 5.904 0 0 0 .48-2.6l-.07.36a4.41 4.41 0 0 0-.32-2.45l.06 1.11a6.871 6.871 0 0 0-.2-1.33 3.455 3.455 0 0 0-.56-1.14 2.404 2.404 0 0 0-1.24-2.25 4.202 4.202 0 0 0-6.18 2.57c-.13.505-.314.995-.55 1.46-.22.28-.37 0-.31-.32-.15-.04-.55.21-1.04.67z" fill="#174f78"/><path d="M528 198.59h-.34a1.29 1.29 0 0 1 .34 0zm-5.09-11.86a7.883 7.883 0 0 0 1.96-2.53 3.16 3.16 0 0 0 .35-2.13.823.823 0 0 1 .21-.43c-.06-.13.78-.34 1.12-.67a3.251 3.251 0 0 0 1.33-2.43 3.16 3.16 0 0 0-.67-2.16 2.06 2.06 0 0 0-1.92-.7c-1.12.15-2.26.18-3.56.39a11.111 11.111 0 0 0-3.87 1.57 6.001 6.001 0 0 1-2.15 1 4.747 4.747 0 0 0-.81.42 6.156 6.156 0 0 0-1.14.9 5.483 5.483 0 0 0-1.4 2.38c-.076.282-.133.57-.17.86a.99.99 0 0 1 .09.3 1.876 1.876 0 0 1-.36 1 5.885 5.885 0 0 1-2.31 2c-.53.27-.91.39-1.63.71a3.158 3.158 0 0 0-1.67 2 3.72 3.72 0 0 0 .24 2.7 3.295 3.295 0 0 0 3 1.69c.272-.016.542-.05.81-.1h1.26c.594-.02 1.185-.083 1.77-.19a13.392 13.392 0 0 0 3.72-1.2 9.072 9.072 0 0 0 3.89-3.41c.211-.378.398-.769.56-1.17l.41-.2c.333-.167.648-.368.94-.6z" fill="#174f78"/><path d="M521 187.84c-.1.04-.11.04 0 0zM509.16 177a22.848 22.848 0 0 0 3-1.89c.79-.64 1.63-1.38 1.74-1.84a.318.318 0 0 1-.1-.2.619.619 0 0 1-.3-.34c-.09-.09-.19-.35-.1-.38.196.193.406.37.63.53a3.073 3.073 0 0 0 3 .28 2.648 2.648 0 0 0 1.525-1.575 2.655 2.655 0 0 0-.175-2.185 9 9 0 0 0-2.59-2.84 8.617 8.617 0 0 0-4.23-1.37 7.596 7.596 0 0 0-4.36 1.06c-1.08.68-1.77 1.17-1.74 1.35.03.18.33.34-.05.39a2.994 2.994 0 0 1-1.34-.16c-1.15-.36-2.37-.76-3.55-1.21a15.007 15.007 0 0 0-3.86-.93 3.005 3.005 0 0 0-2.67 1.43 3.826 3.826 0 0 0-.335 3.429 3.824 3.824 0 0 0 2.555 2.311c.85.19.64.25.82.34.118.091.232.188.34.29l2 1.78a11.146 11.146 0 0 0 4 2.38 6.766 6.766 0 0 0 3.44.22 10.441 10.441 0 0 0 2.35-.87zm39.57 6.84a2.627 2.627 0 0 1 2 1.06c.349.642.452 1.388.29 2.1a4.552 4.552 0 0 0 .81 2.84 5.933 5.933 0 0 0 2.33 2c.891.387 1.829.656 2.79.8l.68.13.33.07.54.16a3.221 3.221 0 0 0 2.25-.23 3.524 3.524 0 0 0 1.822-2.379 3.526 3.526 0 0 0-.672-2.921 5.968 5.968 0 0 1-.57-.67l-.37-.54a15.303 15.303 0 0 1-1.13-2c-.32-.64-.31-.84-.61-1.58a9.885 9.885 0 0 0-1.52-2.8 8.1 8.1 0 0 0-3-2.37 8.722 8.722 0 0 0-3.33-.76 5.71 5.71 0 0 0-1.55.19c-.25.05-.494.124-.73.22a5.016 5.016 0 0 0-1.44.44 3.302 3.302 0 0 0-1.87 2.32 3.44 3.44 0 0 0 .36 2.12 3.277 3.277 0 0 0 2.59 1.8zm-60.37 18.69a9.749 9.749 0 0 0-1.9 1.83c-2.09 2.72-2.43 5.68-4.34 7.5a7.68 7.68 0 0 1-.77.66 3.46 3.46 0 0 0-1 1.33 3.343 3.343 0 0 0 .53 3.16 2.997 2.997 0 0 0 3.54.89c1-.46 1.49-.68 2.24-1.1a21.474 21.474 0 0 0 3.9-2.69c.29-.25.58-.51.84-.78.193-.179.397-.346.61-.5.41-.31.85-.63 1.37-1a31.699 31.699 0 0 0 3.74-2.53 12 12 0 0 0 3.36-4.43c.67-1.51 1-2.71 1.43-3.69a25.867 25.867 0 0 0 1.43-4.48 7.6 7.6 0 0 0-.11-2.94 4.35 4.35 0 0 0-1.57-2.71 2.999 2.999 0 0 0-2.79-.24 2.001 2.001 0 0 0-1.25 2.17c0 2.72-3.29 4-5.3 6.43a16.947 16.947 0 0 1-2.57 2.08l-1.39 1.04zm-5.88-2.83a31.302 31.302 0 0 1 3.88-2.5 31.762 31.762 0 0 0 4.9-3.35c2.12-2.45-1-5.32-2.85-4a9.787 9.787 0 0 1-5 1.09 27.717 27.717 0 0 0-5.8.23 6.544 6.544 0 0 0-3.45 2c-.682.815-1.275 1.7-1.77 2.64a7.718 7.718 0 0 1-.91 1.3l-1.65 1.74a11.377 11.377 0 0 0-2 2.91 7.163 7.163 0 0 0-.51 3.71c.29 2 .84 3.62.43 4.83a1.577 1.577 0 0 1-1.21 1.07 5.693 5.693 0 0 1-1.05.1 4.765 4.765 0 0 0-1.76.2 3.312 3.312 0 0 0-1.73 3.83c.23.835.77 1.55 1.51 2 .661.346 1.386.55 2.13.6a8.636 8.636 0 0 0 6.68-2.06c.884-.73 1.653-1.59 2.28-2.55a10.584 10.584 0 0 0 1.44-3.44c.44-2.15.72-3.85.95-3.8a13.156 13.156 0 0 0 3.66-3.56c1.54-2.69.79-2.02 1.83-2.99zm9.87 49.56c.499-.521.944-1.09 1.33-1.7.33-.54.63-1.08.91-1.63a20.475 20.475 0 0 0 1.27-3.38 32.147 32.147 0 0 0 1-6.46c.117-2.136.04-4.278-.23-6.4a13.262 13.262 0 0 0-2.81-6.38 3.606 3.606 0 0 0-1.53-1.3 2.397 2.397 0 0 0-2 .2 2.274 2.274 0 0 0-1.19 1.362 2.269 2.269 0 0 0 .19 1.798 7.893 7.893 0 0 1 .27 5.65 25.19 25.19 0 0 1-2.29 5.43l-2.65 5a22.562 22.562 0 0 1-2.77 4.3 10.528 10.528 0 0 0-1.74 3.68 5.782 5.782 0 0 0 0 2.45c.146.839.488 1.63 1 2.31 1.38 1.48 1.83 1.27 2.29 1.94a5.704 5.704 0 0 1 1 2.31c.33 1.73-.08 3.9.27 6.13a2.794 2.794 0 0 0 1.51 2.13 3.338 3.338 0 0 0 2.6.17 3.52 3.52 0 0 0 2.07-1.79c.218-.457.337-.954.35-1.46v-.94a6.663 6.663 0 0 1 .63-2.17 9.984 9.984 0 0 0 1-3.55 6.709 6.709 0 0 0-1.5-4.91 12.135 12.135 0 0 0-.88-.92c.24-.29 1.01-.94 1.9-1.87z" fill="#174f78"/><path d="M490.17 250.78c-.11-.18.09 0 .14.09.05-.22.05 0 .06.12l-.2-.21zm-27.4-10.33a2.817 2.817 0 0 0-2 .32 2.46 2.46 0 0 0-1 1.58 2.317 2.317 0 0 0 1.56 2.78c1.66.57 2.61 2.46 2.86 4.19a6.933 6.933 0 0 1-1 4.81 28.79 28.79 0 0 1-2.68 3.89 4.265 4.265 0 0 1-.55.62l-1 .91a8.343 8.343 0 0 0-2.12 3.42c-1.32 4-1.32 8.17-1.48 12.14v3c.013.592.1 1.18.26 1.75a2.668 2.668 0 0 0 1.91 1.63 3.49 3.49 0 0 0 3.9-2.17 3.79 3.79 0 0 0 .21-1.28 5.11 5.11 0 0 1 0-.7c.05-.386.13-.767.24-1.14a24.438 24.438 0 0 1 2.23-4.61c.46-.79.91-1.77 1.31-2.62.311-.668.686-1.305 1.12-1.9.82-1 2.28-2.54 3.55-4a12.174 12.174 0 0 0 2.14-3.28c.494-1.212.795-2.494.89-3.8.44-4.47-.61-9.48-4.28-12.8a11.75 11.75 0 0 0-6.07-2.74zm39.87 19.19a2.867 2.867 0 0 0-3.06-.79 2.814 2.814 0 0 0-.991.606 2.816 2.816 0 0 0-.889 2.09c.004.392.089.778.25 1.134a6.452 6.452 0 0 1-.62 6.51 22.415 22.415 0 0 0-1.63 2.61 7.999 7.999 0 0 0-.7 2.2 7.882 7.882 0 0 0 0 2.07c.14 1.19.41 2 .42 2.94.01.94-.63 2.13-1 3.57a2.886 2.886 0 0 0 .69 2.8 3.379 3.379 0 0 0 2.57.94 3.265 3.265 0 0 0 2.58-1.57l.2-.35.09-.08c.05-.05.14-.1.2-.15l.52-.31a6.771 6.771 0 0 0 3.4-3.27c.568-1.4.906-2.882 1-4.39.065-.951.243-1.891.53-2.8.383-1.301.602-2.645.65-4a14.252 14.252 0 0 0-.51-4.32 10.465 10.465 0 0 0-2.13-3.8c-.51-.61-.88-.89-1.57-1.64zm75.01-12.01a7.237 7.237 0 0 0-.22-.75 3.666 3.666 0 0 0-.91-1.36 3.002 3.002 0 0 0-2.54-.68 2.838 2.838 0 0 0-2.46 2.67c0 2-1.2 3.91-2.36 5.71a9.437 9.437 0 0 0-1.65 5.28c.08.85 0 1.73.34 1.89 0 .07.19-.05.3 0 .06.009.117.03.17.06 0 0-.19.08-.27.12a3.352 3.352 0 0 0-1.18.72 3.68 3.68 0 0 0-1.13 2.18 3.56 3.56 0 0 0 .41 2.27 2.802 2.802 0 0 0 2.2 1.28 8.894 8.894 0 0 0 3.91-.5 7.374 7.374 0 0 0 3.33-2.79 13.003 13.003 0 0 0 1.5-3.38 27.078 27.078 0 0 0 1.5-5.91 12.156 12.156 0 0 0-.78-6.4l-.16-.41zm-39.77-29.23a3.451 3.451 0 0 0 1.93-.39c2.31-.77 4.24-1.54 6.55-2.31a4.44 4.44 0 0 0 3.08-3.47v-.39l-.38-1.15c-.39-.39-.39-1.16-.77-1.54l-1.16-1.15c-.39-.38-.77-.77-.77-1.16a2.924 2.924 0 0 0-2.7-1.54 6.653 6.653 0 0 0-4.62.77 4.881 4.881 0 0 0-2.7 3.47c0 .39-.39.77-.39 1.54s-.38.39-.38.39a5.103 5.103 0 0 0-2.32 1.93l-.38.38v.39a4.738 4.738 0 0 0 1.085 2.139 4.741 4.741 0 0 0 1.995 1.331c0 .77.77.77 1.93.77v-.01z" fill="#174f78"/><path d="M555.43 508.7a65.78 65.78 0 0 1-5.81-10.84c-1.31-3.23-1.73-6.8-2.64-10.2a42.505 42.505 0 0 0-2.28-7.18 30.461 30.461 0 0 0-3.78-5.34c-.45-.57-1.19-1.32-1.78-1.3-2.08.08-1.68-1.18-1.41-2.32.21-.88.91-1.71.91-2.56 0-3-.18-6.08-.4-9.12a4.592 4.592 0 0 0-.86-2.75c-1.29-1.31-1.38-2.88-1.94-4.43-1.12-3.1-2.27-6.45-5-8.75a6.701 6.701 0 0 1-2.4-6.56c.77-3.67-.1-7.12-.9-10.46-1.08-4.47-2.49-8.81-2.26-13.48a12.362 12.362 0 0 0-.54-2.84 5.1 5.1 0 0 1-.32-1.71 41.307 41.307 0 0 0-1.89-21.81 12.67 12.67 0 0 0-3.26-4.68 6.133 6.133 0 0 1-2.07-6.53 32.62 32.62 0 0 0-.41-16.24c-.6-2.32-.87-4.44.4-6.7.327-.603.595-1.236.8-1.89a7.577 7.577 0 0 1 .52-3.36 5.28 5.28 0 0 1 1.17-2.63c.21-.59.43-1.19.67-1.78l-3.36-1.11a39.508 39.508 0 0 0-2.19 4.05 23.684 23.684 0 0 0-.78 3.4c-.83 3.23-3.36 5.49-4.77 8.38a11.555 11.555 0 0 0-1.09 4.08c-.12 1.42 0 3 1.82 3.35-.57.53-1.33.91-1.32 1.27.037 1.209.242 2.407.61 3.56a34.302 34.302 0 0 1 1.88 14.93c-.25 2.05-.37 4.12-.44 6.19-.08 2.42-.1 4.85 0 7.28.01 2.766.17 5.531.48 8.28.35 2.46 1.58 4.76.29 7.39-.45.9.18 2.35.38 3.54.11.69.39 1.36.5 2.05.52 3.36.7 6.81 1.58 10.07 1.52 5.65.2 10.87-2 15.91-1.47 3.39-1.64 5.21 1.42 7.09 5 3.05 6.55 7.39 6.33 12.94.086 1.935.52 3.838 1.28 5.62 2.24 6.59 5.4 12.87 5.45 20.11 0 4.14 1.66 7.84 4.16 11.34a63.272 63.272 0 0 1 6.26 11.49 5.735 5.735 0 0 1-.236 5.31 5.744 5.744 0 0 1-4.494 2.84c-4.64.65-9.44.28-13.92 2.09a2 2 0 0 1-1.08 0c-4.24-1-8.66-1.15-12.79-2.87a8.78 8.78 0 0 1-4.63-3.86 22.77 22.77 0 0 0-6-7.56 2.393 2.393 0 0 1-.78-1.5c-.37-4.24-.88-8.48-1-12.72a30.922 30.922 0 0 0-5.51-17.47c-2.1-3-3.95-6.2-4.09-10-.12-3.3-1-6.52.11-10 1.11-3.48 1.61-7-.1-10.39-1.92-3.78-2-7.66-1.61-11.75.258-2.51.013-5.046-.72-7.46a64.04 64.04 0 0 0-3.52-9.87 14.717 14.717 0 0 1-.91-5 6.362 6.362 0 0 0-2.49-5.07l-2.54.45c.37 1.6 1.05 3 .95 4.41-.33 3.68.647 7.359 2.76 10.39 2.07 3 .39 5.48-3 5.17-2-.18-3.28.79-4.48 2.47-1.51 2.09-3.25 4.32-5.42 5.54a6.993 6.993 0 0 0-3.65 5.42c-.63 3.16-2.31 5.74-5.65 6.49-2.36.53-3.18 2.17-3.56 4.1a16.966 16.966 0 0 0-.13 4.72c.34 3.83-.37 5.2-4.1 6.21a4.074 4.074 0 0 0-2.61 2.22c-1.55 2.55-.62 5.2-.36 7.69a65.806 65.806 0 0 0-6 4.31c-1.69 1.5-3.11 2-5 .9-1.33-.8-2.6-1.71-3.77-2.48-.49-3.44-.83-6.81-1.49-10.12-.66-3.31-.63-3.83 2-5.39a11 11 0 0 0 4.9-6.12c.7-2.07 1.17-4.22 1.74-6.33.64-2.33.86-4.9 2-7 2.64-4.72 2.86-9.18-.05-13.77a18.774 18.774 0 0 1-1.52-2.92 6.532 6.532 0 0 1-.63-2.42c.07-7.53-2.68-14-7.24-19.83a4.2 4.2 0 0 1-1-4.34c1-3-.52-5.22-3-6.73a17.835 17.835 0 0 0-8.51-3c-3.15-.13-3.18-.28-3.87-3.23-.93-3.95-6.08-7-9.86-5.55-3.6 1.35-6.76 1.48-10.34-.63-4.62-2.73-8.37-1.61-11.9 2.47-.68.8-1.37 1.59-1.88 2.18a45.211 45.211 0 0 0-5.71-2.26c-3.94-.94-7.05 1.05-10 3.28 0 2.83-2.35 3.52-4.46 4.58.4.61.57 1.13.93 1.35 2.13 1.3 3.73.8 5-1.51 2.44-4.43 5.91-5.57 10-3.34 1.58.87 3.47 2.47 4.83 2.13 1.52-.38 2.62-2.54 3.84-4 2.9-3.43 4.24-4.34 8.65-1.4 2.68 1.78 5.22 2.38 8.23 1.32a24.749 24.749 0 0 1 3.23-.6 4.994 4.994 0 0 1 3.975.639A4.996 4.996 0 0 1 406.19 388c.69 3.52.95 3.85 4.72 4.34a25.2 25.2 0 0 1 8.3 2.53c2.42 1.23 3.07 2.91 2.24 5.45-.33 1-.83 2-1.28 3.05 2.25 2.67 4.44 5.25 6.58 7.87.5.61 1.31 1.51 1.16 2-.5 1.74.51 3 .83 4.54.46 2.17 2.17 4.26.63 6.61-1.07 1.63-.48 2.83.67 4.22a28.488 28.488 0 0 1 3.55 5.52c.88 1.74 1.32 3.84-.27 5.39-1.81 1.78-3 3.59-3 6.28 0 1.74-1.32 3.58-1.06 5.22.61 3.86-1.67 5.85-4.14 7.85-1.13.91-2.46 1.58-3.59 2.49-1.13.91-1.91 2.64-1.13 3.93 2.17 3.59 1.15 7.67 2.31 11.26-.63.69-1.09 1.25-1.6 1.77-2.59 2.6-5.08 2.27-7.17-.74-1.15-1.64-1.64-3.15-.79-5.09.26-.6-.17-1.5-.3-2.41-3.39 2.25-4.11 3.18-3.79 5.53.82 6 5 9 11.3 6.65 2.47-.93 4.64-1.43 6.83.31a8.512 8.512 0 0 0 7.91 1.59 3.835 3.835 0 0 1 4.31 1.25c1.45 2 3.17 1.75 5.2 1.43a60.078 60.078 0 0 1 7.6-.66 3.829 3.829 0 0 1 3.3 1.9 11.174 11.174 0 0 0 10 4.6c3.2-.16 6 .13 8.46 2.32 1.17 1 2.68 1.73 3.72 2.87.74.8 1.56 2.32 1.26 3.1a5.553 5.553 0 0 1-2.9 2.86c-2.41.88-2.75 1-2.44 3.27.293 1.144.51 2.307.65 3.48 0 5.38-3.82 9-6.47 13.1-.27.42-1 .51-1.55.81-2.12 1.22-4.53.43-6.62.87a10.676 10.676 0 0 1-9.8-2.25 4.355 4.355 0 0 0-3.36-.39 39.783 39.783 0 0 0-5 2 7.127 7.127 0 0 1-2.71.91c-4.21-.23-8.54.38-12.54-1.65a5.054 5.054 0 0 0-2.5-.26c-1.676.08-3.346.263-5 .55a25.453 25.453 0 0 0-6.31 1.55 6.174 6.174 0 0 1-7.39-.9c-.65-.55-1.29-1.11-2-1.6-2.43-1.72-2.9-1.75-4.93.32-2.59 2.65-5.83 3.4-9.32 3.54a2.789 2.789 0 0 1-3.26-2.18l4.56-.2c-.81-2.25-2.24-2.64-4.32-2.52-3.726.223-7.461.246-11.19.07-4.25-.22-8.48-.89-12.73-1.07a9.12 9.12 0 0 0-4.93 1.09c-2.68 1.65-5.13 1.07-7.68.08-1.14-.44-2.21-1-3.32-1.55a9.578 9.578 0 0 0-9.07.57c-3 1.68-5.88 1.22-7.89-1.42-.66-.87-1.25-1.8-1.84-2.72-2.39-3.77-3-4.07-7.43-2.92-2.574.762-5.34.541-7.76-.62.07-2.94-.33-4-1.76-4.25a3.664 3.664 0 0 0-4.09 1.8 29.23 29.23 0 0 1-7.83 9.3 24.007 24.007 0 0 0-3 3.77c2.86.81 4.44-.48 5.9-1.65a33.918 33.918 0 0 0 5-4.82 3.25 3.25 0 0 1 4.12-1.12c3 1 6.14 1.62 9.33.58a18.31 18.31 0 0 1 2.6-.44c1.11 1.55 2.21 3 3.21 4.52 3.19 4.87 5.66 5.45 10.62 2.63a9.657 9.657 0 0 1 3.33-.84 8.938 8.938 0 0 1 6.54 1.69c3.31 2.28 6.72 2.18 10.42.91a20.616 20.616 0 0 1 7.12-1.16c5 .12 10 .72 14.94 1 1.67.11 3 .53 3.88 2.12 1.47 2.65 4 3.2 6.64 2.54a32.85 32.85 0 0 0 7.88-2.75c2.6-1.45 4.44-1.77 6.65.66 2.44 2.68 5.32 2.5 8.62 1a20.167 20.167 0 0 1 8.11-1.64c3.11 0 6.23.78 9.35 1.18 4 .52 8.28 1.34 11.86-.68 4.51-2.55 8.13-1.59 12.14.83 1.611.802 3.455 1 5.2.56a12.858 12.858 0 0 1 4.94-.58c2.68.35 5.45-.31 6.85-2.59 2-3.28 5.27-5.75 6.26-9.68a10.1 10.1 0 0 1 1.15-2.08c1.44.66 3.08 1.14 3.7-.72.271-1.359.369-2.747.29-4.13 1-1 3-.82 3.32-2.9.27-1.89-3-11-4.53-12.17-2.33-1.75-4.59-3.59-7-5.28a6.056 6.056 0 0 0-2.63-.94 16.345 16.345 0 0 0-3.28.06 11.558 11.558 0 0 1-10.34-4.31 3.529 3.529 0 0 0-2-1.42 47.39 47.39 0 0 0-9.07-.09c-3.6.48-3.57.77-5.74-2.62l1.44-1c2.13-1.5 3.48-3 2.32-6.07-1.16-3.07.1-4.43 2.92-6.5 2.82-2.07 5.55-3.84 4.42-8.18-.7-2.66.37-4.76 3.39-6 1.87-.75 4.18-2.58 4.61-4.35 1-3.92 3.28-6.57 6-9.14.17-.17.29-.39.47-.56 2.76-2.62 5.26-5.81 10.1-4.66.257.998.351 2.031.28 3.06a20.533 20.533 0 0 0 1.25 13.17c1.24 2.91 2.25 6.26.85 9.23-2.17 4.61-1.24 9-.27 13.55.56 2.61 1.22 5.2 3.07 7.33a24.562 24.562 0 0 1 6.08 18.21c-.31 4.63 1.14 8.8 1.85 13.16.21 1.3 1.4 2.46 2.18 3.65 1 1.6 2.11 3.19 3.23 4.74a18.233 18.233 0 0 0 3.16 3.88 26.002 26.002 0 0 0 9.54 4.17c6.93 1.82 13.75.12 20.62-.39 2.4-.17 5.3-1.76 7 1.57a1.89 1.89 0 0 0 1.59.47c1.48-1.81 3 .46 4.33-.33a19.467 19.467 0 0 1 3.93-1.84c.79-.27 1.71-.22 2.47-.55 2.09-.91 4.14-1.92 6.18-2.94 1.54-.77 3.17-1.56 3.31-3.57.31-3.95.88-7.82-1.49-11.49zm-42.78-139.61c-.26-1.46-.51-2.92-.88-5 1.85 2.12 1.85 2.12.88 5zM551.73 520c-2 .873-4 1.706-6 2.5a8.003 8.003 0 0 1-5.82-.1c1.86-3.82 1.14-7.38-.59-10.9-1.6-3.26-3.09-6.57-4.71-9.83-.3-.62-1-1-1.41-1.61a6.013 6.013 0 0 1-1.4-2.05c-.78-3.66-1.59-7.33-2-11a15.936 15.936 0 0 0-1.33-5.58 67.144 67.144 0 0 1-2.55-7.18c-.56-1.6-1.27-3.17-1.69-4.81a11.209 11.209 0 0 1-.34-3.82c.44-4-1.75-7-3.46-10.17-1.18-2.14-3.29-3.78-5.09-5.77a104.507 104.507 0 0 0 3.15-10.22 15.89 15.89 0 0 0-2.06-11.47 36.552 36.552 0 0 0-.06-5.75c-.55-3.37-1.1-6.71-.61-10.13.055-.24.055-.49 0-.73-2.22-5.75-1.14-11.79-1.52-17.7a91.683 91.683 0 0 1 .38-9.39 6.258 6.258 0 0 1 3.25 3.32c1.4 3.2 2.88 6.28 2.74 10-.1 2.45.12 5 .09 7.47-.07 5.39.33 10.8.74 16.18.06.77 1.22 1.46 1.8 2.11-.13.55-.66 1.46-.48 2.19a48.37 48.37 0 0 1 1.4 14.53 8.197 8.197 0 0 0 2.83 6.77c1.86 1.76 2.75 4.49 4.42 6.51 3.15 3.82 3.16 8.25 3.14 12.78.134 1.013.417 2 .84 2.93.103.232.231.454.38.66-2.11.65-.81 2.16-.46 3 1.69 3.86 2.84 8 6.21 11a4.576 4.576 0 0 1 1.27 3.21c.6 5.18 1.25 10.42 3.89 15.08 1.67 2.94 3.55 5.75 5.07 8.76a32.887 32.887 0 0 1 2 5.84c.43 1.65-.55 2.7-2.02 3.37zM449 233.34a5.657 5.657 0 0 1 4.62-3.21 11.064 11.064 0 0 1 1.83-2 8.833 8.833 0 0 0 3.38-6.6c.11-1.19-.12-2.21-2-2.5-.4 1-.9 2-1.23 3.13a11.178 11.178 0 0 1-7.1 7.54c-.93.52-1.813 1.119-2.64 1.79a9.994 9.994 0 0 1-2.46 1.3 22.627 22.627 0 0 0-9.75 5.41 3.368 3.368 0 0 0-1 2.76c.86 2.21-.56 3.27-1.85 4.24a27.894 27.894 0 0 1-5.06 2.9c-3.5 1.59-5 4.49-5.54 8-.13.848-.211 1.702-.24 2.56-.07 1.66-.95 2.35-2.58 2.39-1.94 0-3.9.11-5.83.35a6.222 6.222 0 0 0-5.29 4 16.268 16.268 0 0 0-.79 5.35c-.07 4-.19 4.36-3.89 5.26-2.09.51-3.64 1.48-4.25 3.54a5.997 5.997 0 0 1-4.83 4.38 6.621 6.621 0 0 0-5 3.91 3.89 3.89 0 0 1-3.38 2.36c-2.87.44-5.69 1.27-8.57 1.68a6.65 6.65 0 0 0-4.81 2.85 4.534 4.534 0 0 1-2.51 1.8c-5.82 1-9.62 4.48-11.89 9.67a11.381 11.381 0 0 1-4.63 5c-1.72 1.12-3.59 2-5.41 3-3.28 1.73-3.28 1.72-1.25 5 .12.18.07.46.1.73-.55 1.94-2.19 2.45-3.89 2.79-1.7.34-3.38.52-5.06.8a7.272 7.272 0 0 0-5.39 3.25c-2 3.06-4.2 6-6.46 8.85a2.712 2.712 0 0 0 0 3.91c.397.462.765.95 1.1 1.46a4.494 4.494 0 0 1 .584 4.173 4.504 4.504 0 0 1-3.124 2.827c-1.27.419-2.562.769-3.87 1.05-3.24.71-5.31 2.88-6.75 5.64-1.44 2.76-2.57 5.33-1.14 8.63 1.43 3.3 0 5.65-3.58 6.89-.69.24-1.39.48-2 .78-2.51 1.13-3 2.06-1.6 4.46a4.387 4.387 0 0 1-.31 5.41 43.838 43.838 0 0 1-5.45 6.27 5.743 5.743 0 0 0-2.43 4.59 15.769 15.769 0 0 0-.17 2.55c.54 3.78-1.06 6.55-3.88 8.88a6.066 6.066 0 0 0-2.34 5.79 7.006 7.006 0 0 1-1.34 4c-1.33 2.18-3 4.15-4.4 6.28-1.66 2.53-1.45 3.84.77 6.09 1.81 1.84 1.84 2 .42 4.33a24.59 24.59 0 0 1-1.86 2.67 14.603 14.603 0 0 0-2.941 5.642 14.599 14.599 0 0 0-.259 6.358 19.255 19.255 0 0 0 1.85 5.51c1.19 2.35.95 4.73.76 7.16-.15 1.9-1.6 2.79-2.89 4a13.721 13.721 0 0 0-4.44 7 8.237 8.237 0 0 1-4.37 5.52c-3.73 2-7.4 4.14-11.08 6.23a10.58 10.58 0 0 0-2.45 1.55c-1.67 1.69-3.74 2.07-5.95 2.24-2.91.23-5.85.39-8.72.89-8 1.41-15.93 1.25-24 .74s-16-1-24.07-.95c-6.8.06-13.6 1-20.4 1.45-2.31.16-4.67 0-6.94.32-5.77.94-11.48 2.22-17.25 3.15-6.61 1.08-13.28 1.81-19.88 2.94-4.82.82-9.45 2.31-13.41 5.46-1.83 1.46-2.78 3.31-2.1 5.41.55 1.7.06 2.65-.86 3.92a19.999 19.999 0 0 0-3.49 13.17c.06 1.25.31 2.43 2.39 2.61l.43-3.87c.66-6 2.33-11.48 8-14.81 1.83-1.07 3.19-2.48 2.27-5.18l19.07-3.24c2.88-.48 5.78-.86 8.63-1.5 7.73-1.75 15.48-3.3 23.44-3.6 4-.15 8.12 0 12-.79 8.87-1.86 17.73-1 26.58-.61 10.21.48 20.39 1.47 30.58-.55 2.43-.49 5 0 7.59-.11a8.104 8.104 0 0 0 3-.68 23.045 23.045 0 0 0 2.35-1.66c5.71-3.42 12-5.73 17.38-9.83 1.88-1.43 3.73-2.55 4.32-5.07.32-1.39 1.27-2.63 1.77-4s.65-2.54 1-3.81c.404 1.059.708 2.154.91 3.27.23.66 1 1.11 1.59 1.66.33-.57.9-1.1 1-1.69.6-5 1.16-9.93 1.57-14.9a6.85 6.85 0 0 0-.75-3.45c-1.61-3.23-2.09-6.57-.74-9.89a53.886 53.886 0 0 1 4.07-7.65c.86-1.41 1.94-2.76.7-4.29-3.05-3.72-2.08-6.93 1-10a9.037 9.037 0 0 0 1-1.07c1.63-2.28 3.34-4.47 2.9-7.63-.12-.83.78-1.88 1.37-2.71.82-1.16 1.88-2.14 2.67-3.32 1.7-2.56 1.76-5.53 1.78-8.46a5.823 5.823 0 0 1 2.89-5.44c3-1.95 4.83-5.14 5.95-8.49.54-1.6.1-3.52.1-5.32.56-.27 1-.5 1.42-.7 4.81-2.16 6.55-6 4.94-11a7.724 7.724 0 0 1 3.222-9.115A7.715 7.715 0 0 1 321.75 352c4.92-.64 7.09-3.68 8.44-7.9a4.676 4.676 0 0 0-.54-4.54c-1.6-2-1.16-3.5.4-5.12a9.513 9.513 0 0 0 1.2-1.83c2.05-3.53 4.68-6.11 9.09-6.42a12.935 12.935 0 0 0 4.46-1.49c3.81-1.83 5.06-4.28 4.49-8.71 2-1 4-2 6-3.13a5.83 5.83 0 0 0 1.75-1.68c1.93-2.76 3.66-5.67 5.73-8.32a7.755 7.755 0 0 1 5.78-2.77c1.9-.13 3.8-.47 5.64-.71.2-1.68.36-3 .54-4.56 3.33-.53 6.54-1.14 9.77-1.52 2.41-.28 4.37-.93 5.73-3.21.95-1.61 2-3.47 4.17-3.8a6.998 6.998 0 0 0 5.91-4.77 6.998 6.998 0 0 1 2.91-3c2-1.24 4.26-2.13 6.38-3.15-.14-2.35-.39-4.29-.33-6.22.12-3.68 1.25-4.69 4.94-4.81 2.42-.07 4.85-.05 7.25-.29 2.4-.24 2.71-.77 2.68-3 0-1.46-.28-2.92-.24-4.38.06-2.77 1.15-4.91 3.91-6a44.303 44.303 0 0 0 4.6-2.23c4.28-2.29 4.81-3.42 3.9-8.54 1.43-.95 3-2.91 4.62-2.88 3.37.07 5.55-2.18 8.07-3.68zm69.12 100.58a28.265 28.265 0 0 0-.13 4c.08 1.85 1.25 3.18 2.21 4.61.5-1.19 1-2.37 1.51-3.55a6.07 6.07 0 0 0-.11-1.18c-.28-1.49.28-3.12.37-4.69a8.74 8.74 0 0 0-.05-3.54c-1.61-4.19.49-7.85 1.82-11.42a26.024 26.024 0 0 0 1.6-5.43c.16-1.12.43-2.59 1.2-3.17 2-1.47 1.89-3.21 1.47-5.2a11.91 11.91 0 0 1-.61-3.52c.39-3.84 1.29-7.65 1.43-11.5a9.882 9.882 0 0 1 3-7.27c-1.47-2.12-1.94-2.53-3.07-2.23-1.13.3-1.61 1.2-2.27 2.28-1.93 3.11-1 6.62-2.12 9.77a19.527 19.527 0 0 0-.59 7.84c.2 3.14 1.09 6.51-1.94 9.13-.65.57-.61 2.06-.69 3.14-.11 1.44 0 2.9 0 4.36-1.95 1.2-2.62 2.84-3 5.05-.86 4.24.38 8.36-.03 12.52zm-234.4 194.26a20 20 0 0 1-7.69 5.41c-1.7.64-3.49 1-5.19 1.67-3.95 1.46-6.75 3.86-6.58 8.52.015.123.015.247 0 .37-.21 1.39 0 3.36-2.05 3.22-1.83-.14-2-2.07-1.82-3.47.225-2.518.78-4.996 1.65-7.37a7.327 7.327 0 0 1 3.53-3.37 23.12 23.12 0 0 1 6.94-2 17.097 17.097 0 0 0 7.12-2.49c1.19-.74 2.37-1.67 4.09-.49zm-120.25 5.53c-3.71-1-5.72.69-7.6 2.63-3.13 3.21-6.21 6.47-9.36 9.66a7.003 7.003 0 0 0-2.26 6.56c.2 1 .25 2.05-1.07 2.27a2.007 2.007 0 0 1-1.579-.331 2.01 2.01 0 0 1-.821-1.389c-.9-3.21-.94-6.32 1.73-8.77 4.61-4.25 9.22-8.51 14-12.57 2.57-2.18 4.57-1.66 6.96 1.94zm-28.82-7.19c-.28 1.69-.41 3.1-.76 4.46-.6 2.35-1.33 4.67-2 7-2.11 7-.72 13.44 3.14 19.49.375.738.682 1.507.92 2.3-2.19.38-3-1-3.95-2-3-3.34-4-7.59-4.16-11.83a45.448 45.448 0 0 1 2.67-16.5c.49-1.6 1.14-3.27 4.14-2.92zM105 512.75c-.79 1.24-1.09 2.25-1.74 2.64-2.19 1.29-3.09 3.44-3.86 5.57a63.17 63.17 0 0 0-2.51 8.74 8.388 8.388 0 0 0 1.86 6.82 30.347 30.347 0 0 1 2.06 3.91c-3 .67-4.4-1-5.51-2.6a9.62 9.62 0 0 1-1.85-6.9 51.573 51.573 0 0 1 3.61-13.71c1.67-3.82 2.94-4.56 7.94-4.47zm77.33 39.62c1.43-5.58 5.25-8.65 10.76-8.58 1.693.003 3.377.249 5 .73 3.65 1.12 6.91.75 9.84-1.8a8.478 8.478 0 0 1 1.77-.81c-.24 1-.21 1.73-.55 2.16-2.46 3.1-5.78 4.25-9.64 4.07a10.56 10.56 0 0 1-2.16-.29c-4.79-1.22-8.61.34-11.56 4.14-1 1.31-1.93 1.72-3.46.38zm-3.65-17c-1.58 1.19-3.17 2.35-4.72 3.58-2.08 1.65-4.21 3.26-6.17 5a11.187 11.187 0 0 0-4 7.18c-.17 1.54-.32 1.53-2 2.93a7.269 7.269 0 0 1-.62-2c0-5.53 2.27-9.79 7.28-12.45 2.78-1.47 5.5-3.08 8.27-4.58a6.186 6.186 0 0 1 1.58-.39l.38.73zM241.6 553c-2.11-.34-2.35-2-2.46-3.51a30.399 30.399 0 0 1 1.42-11.49c.64-2 2-3 3.73-2.79 1.16.11 2 1.21 1.27 2-4 4.45-3.66 9.83-3.48 15.19 0 .06-.14.16-.48.6zm-22.09 4.35c-.3-1.28-.83-2.29-.69-3.21a44.072 44.072 0 0 1 4.94-14.42c.17-.32.37-.73.66-.85.62-.25 1.48-.66 1.91-.41a1.999 1.999 0 0 1 .55 1.83 15.01 15.01 0 0 1-1.36 3c-1.92 3.81-3.78 7.64-4.06 12a3.234 3.234 0 0 1-.54 1.31c-.1.16-.4.22-1.41.75z" fill="#174f78" stroke="#174f78" stroke-width="2" stroke-miterlimit="10"/><path d="M512.65 369.09c-.26-1.46-.51-2.92-.88-5 1.85 2.12 1.85 2.12.88 5z" fill="#174f78" stroke="#174f78" stroke-width="2" stroke-miterlimit="10"/><path d="M158.67 526.31c3.21-2.32 6.35-5 8.36-9.06 2.24-4.72 1.32-8.54 1.72-10.86a3.345 3.345 0 0 1 2.69-2.88c3.09-1 1.88-5.34-.61-4.87a17.778 17.778 0 0 0-5.57 1.41 11.316 11.316 0 0 0-4.76 4.29 20.258 20.258 0 0 0-2.09 5.47c-.157.615-.35 1.219-.58 1.81l-1 2.1a49.402 49.402 0 0 1-2.31 4.52c-.87 1.4-2 2.83-3.32 3.31a1.993 1.993 0 0 1-1.76-.1l-.84-.78a2.637 2.637 0 0 0-2.26-.72 3.482 3.482 0 0 0-2.72 3.32c.004.831.278 1.638.78 2.3.319.469.681.907 1.08 1.31a7.857 7.857 0 0 0 7.09 2.19 15.381 15.381 0 0 0 6.1-2.76zm32.92.57a5.46 5.46 0 0 1-.84-1.58 16.983 16.983 0 0 1-.72-2.08 30.008 30.008 0 0 1-.7-4.42c-.26-3.06 0-6.37-.09-10a37.582 37.582 0 0 1 .31-5.57 2.847 2.847 0 0 0-1.65-3.1 2.272 2.272 0 0 0-1.7-.12 1.907 1.907 0 0 0-1.14 1.23c-1.13 3.5-3.31 6.62-5 10.24a16.26 16.26 0 0 0-.89 12c.7 1.936 1.68 3.759 2.91 5.41a32.515 32.515 0 0 0 3.95 4.61c1.61 1.33 3.32 2.17 4.19 3.37.185.236.308.515.36.81a3.198 3.198 0 0 0 1.31 2 3.71 3.71 0 0 0 4.81-.86c.314-.399.546-.856.681-1.346.136-.489.173-1 .109-1.504a9.36 9.36 0 0 0-.48-2 10.662 10.662 0 0 0-1.8-3.1c-1.39-1.76-2.83-2.87-3.62-3.99zm16.84-11.95c-.55 1-1.07 1.83-1.39 2.54-.32.71-.42 1-.75 1.65a14.01 14.01 0 0 1-1.67 2.44l-2.53 2.9a3.42 3.42 0 0 0 .73 4.69 2.877 2.877 0 0 0 3.07.17 7.074 7.074 0 0 1 1.6-.66c2-.61 4.43-1.08 6.75-3.27a12.308 12.308 0 0 0 3.67-7.9 14.207 14.207 0 0 0-1-7 18.73 18.73 0 0 1-.69-2.12 3.297 3.297 0 0 0-2.1-1.86 3.241 3.241 0 0 0-2.27.22 2.144 2.144 0 0 0-1.09 1.75 14.4 14.4 0 0 1-2.33 6.45zm9.57 18.46a3.28 3.28 0 0 0 2.44 2.66 4.855 4.855 0 0 0 1.83 0l1.22-.24a13.07 13.07 0 0 0 4.86-2 14.43 14.43 0 0 0 3.68-3.88 24.996 24.996 0 0 0 3.63-9c.572-2.859.74-5.784.5-8.69 0-.71-.11-1.46-.08-2.16v-1.18a2.996 2.996 0 0 0-.21-1.75 2.994 2.994 0 0 0-2.38-1.65 2.065 2.065 0 0 0-2.19 1.34 57.367 57.367 0 0 1-4.06 8.16 24.783 24.783 0 0 0-2.71 7.77c-.42 2.44-.91 5.16-3.16 6.67l-.88.43c-.3.14-.52.23-1.14.48a2.926 2.926 0 0 0-1.35 3.04zM247.12 513c-.35-.64-1.16-2-2.32-2.18-2.17-.49-4 1.54-3.2 3.2a10.44 10.44 0 0 1 .42 4.16 8.32 8.32 0 0 0 1.58 5c.42.499.937.908 1.52 1.2.12.12-.39 0-.5-.13-.11-.13-.16 0-.16 0 .06.35.35 1.05.45 1.43.271.824.449 1.676.53 2.54.32 2.38.73 5.2-.22 7.77-.338.75-.615 1.526-.83 2.32a3.063 3.063 0 0 0 1.61 2.84 3.217 3.217 0 0 0 3.51-.19 14.76 14.76 0 0 0 1.78-2.11 20.055 20.055 0 0 0 4-8.32c.379-1.638.547-3.319.5-5a12.382 12.382 0 0 0-1.33-5.42 11.055 11.055 0 0 0-1.74-2.37l-.87-.86a8.99 8.99 0 0 0-1.14-.91c-1.48-1-1.74-.58-2.48-1.26a9.859 9.859 0 0 1-1.11-1.71zm21.02-7.9a11.346 11.346 0 0 0-2.6-4.32c-.93-1.06-1.68-1.7-2.08-2.17a7.832 7.832 0 0 1-1.15-1.64 11.606 11.606 0 0 1-1.13-2.34 4.211 4.211 0 0 1-.31-1.75 3.287 3.287 0 0 0-1.25-2.66 3.14 3.14 0 0 0-2.3-.66 2 2 0 0 0-1.65 1.42c-.68 2.27-2.16 4.51-2.58 7.55a9.326 9.326 0 0 0 0 2.24c.058.432.169.855.33 1.26.152.396.333.78.54 1.15a10.326 10.326 0 0 0 2.6 2.92c1.78 1.4 4.06 2.35 3.6 3.72-.1.183-.21.36-.33.53-.325.356-.567.78-.71 1.24a2.999 2.999 0 0 0 .74 2.77 3.476 3.476 0 0 0 2.73 1.15 5.121 5.121 0 0 0 2.66-1.24 8.09 8.09 0 0 0 2.88-9.17h.01zm243.63-216.94a2.81 2.81 0 0 0-2 .33 2.489 2.489 0 0 0-1 1.57 2.332 2.332 0 0 0 1.56 2.78c1.67.57 2.61 2.47 2.87 4.2a6.995 6.995 0 0 1-1 4.81 28.06 28.06 0 0 1-2.68 3.88 4.118 4.118 0 0 1-.56.62l-1 .91a8.416 8.416 0 0 0-2.12 3.42c-1.33 4-1.32 8.17-1.48 12.15v3a6.21 6.21 0 0 0 .26 1.75 2.624 2.624 0 0 0 1.91 1.63 3.42 3.42 0 0 0 4.1-3.44v-.71c.102-.36.225-.714.37-1.06a25.124 25.124 0 0 1 2.23-4.61c.47-.78.91-1.76 1.32-2.62.305-.666.677-1.299 1.11-1.89.82-1 2.28-2.54 3.55-4a11.778 11.778 0 0 0 2.14-3.28c.498-1.211.802-2.494.9-3.8.43-4.46-.61-9.48-4.29-12.79a11.683 11.683 0 0 0-6.19-2.85zM384.3 305.49c.334.106.642.283.9.52.17.16.21.19.25.2.04.01.05-.13 0-.27a8.554 8.554 0 0 0-.32-1.27 5.713 5.713 0 0 0-.75-1.55 29.102 29.102 0 0 0-2-2.51 3.63 3.63 0 0 0-2.28-1.7 3.84 3.84 0 0 0-2.4.26 3.118 3.118 0 0 0-1.67 1.73 4.006 4.006 0 0 0 .06 2.19c.176 1.018.269 2.048.28 3.08 0 1.05 0 2.15.14 3.18a6.616 6.616 0 0 0 1.66 3.95 7.85 7.85 0 0 0 4.88 2.32c1.342.153 2.701.041 4-.33a10.167 10.167 0 0 0 5.7-3.81c.1-.13.15-.21.29-.37.14-.16.37-.38.53-.57.331-.441.56-.95.67-1.49a3.114 3.114 0 0 0-.73-2.5 2.83 2.83 0 0 0-3.54-.74c-.896.4-1.868.601-2.85.59a8.144 8.144 0 0 1-3-.51c-.12-.08-.74-.49.18-.4zm-18.15 10v-.07.07zm-11.99 2.27a3.58 3.58 0 0 0 1.31 1.68c.55.36.88.64 1.38.91a6.448 6.448 0 0 0 3.51 1 5.693 5.693 0 0 0 4.25-2.29 9.253 9.253 0 0 0 1.54-3.54v-.07c.2-.42.09-.14 0 0a8.143 8.143 0 0 1 1-1c.267-.267.521-.547.76-.84.153-.158.297-.325.43-.5a5.148 5.148 0 0 0 1-1c2.29-3.61-1.34-6.44-3.1-5.31-1.5.73-3.42.34-5.62.73a5.54 5.54 0 0 0-4.53 5 2.278 2.278 0 0 0 0 .79 2.799 2.799 0 0 0-1.3.79 3.734 3.734 0 0 0-.798 1.742 3.732 3.732 0 0 0 .168 1.908zm4.06-4.87c.24.05.32.14.31.18-.01.04-.67 0-1.37 0l.11-.07c.298-.132.63-.17.95-.11zm9.53 57.2a3.15 3.15 0 0 0-.68 2.28 3.099 3.099 0 0 0 2 2.71 1.706 1.706 0 0 1 1.28 1.76 11.381 11.381 0 0 1-1 2.46 5 5 0 0 0 .1 3.93 5.443 5.443 0 0 0 3.27 2.91 8.974 8.974 0 0 0 2.5.3c.137-.011.274-.011.41 0 .14.06.16 0 .52.36a3.29 3.29 0 0 0 2.18 1 3.49 3.49 0 0 0 3.36-2.27 3.669 3.669 0 0 0-.05-2.34 9.542 9.542 0 0 0-.71-1.7 10.004 10.004 0 0 0-2.12-2.59c0-.13.05-.29.09-.53a9.542 9.542 0 0 0 0-2.15 8.447 8.447 0 0 0-1.47-3.86 7.51 7.51 0 0 0-6.8-3.43 3.553 3.553 0 0 0-2.88 1.16zm10.79 8.57c-.44-.35-.73-.55-.71-.65.02-.1.48.27.71.65zM450 405.52a5.213 5.213 0 0 1-5.13-.31 2.17 2.17 0 0 1-.76-1 4.992 4.992 0 0 0-.87-.83c-.26-.22-.56-.5-.87-.8l-.5-.49a5.032 5.032 0 0 0-.95-1 3.85 3.85 0 0 0-4.58-.1 2.825 2.825 0 0 0-1.25 2 5.363 5.363 0 0 0 .29 1.88c.23.92.34 1.93.57 3a8.093 8.093 0 0 0 4.3 5.89 10.39 10.39 0 0 0 7.49.88 9.448 9.448 0 0 0 5.38-3.53 3.527 3.527 0 0 0 1.36-2.83 3.222 3.222 0 0 0-4.48-2.64v-.12zm63.17 103.17a5.183 5.183 0 0 1-5.13-.31 2.124 2.124 0 0 1-.76-1c-.07-.17-.35-.37-.87-.83-.26-.22-.56-.5-.87-.81l-.5-.48a5.04 5.04 0 0 0-1-1 3.85 3.85 0 0 0-4.58-.1 2.844 2.844 0 0 0-1.25 2 5.422 5.422 0 0 0 .29 1.89c.23.92.34 1.92.57 3a8.104 8.104 0 0 0 4.3 5.9 10.39 10.39 0 0 0 7.49.88 9.5 9.5 0 0 0 5.38-3.53 3.538 3.538 0 0 0 1.36-2.83 3.096 3.096 0 0 0-1.12-2.14 3.147 3.147 0 0 0-3.31-.64zM438.2 322.58c.285.844.671 1.65 1.15 2.4l.26.46a.328.328 0 0 0 .08.09 3.138 3.138 0 0 0-.5.53 3.458 3.458 0 0 0 .23 3.75 3.644 3.644 0 0 0 1.69 1.31 5.453 5.453 0 0 0 5.82-1.75 6.999 6.999 0 0 0 1.48-3.77c0-.33 0-.67.06-1v-.67c0-.289.03-.577.09-.86.15-.3 0 .16.1-.11.214-.44.465-.862.75-1.26.2-.324.384-.658.55-1l.34-.63a5.11 5.11 0 0 0 .71-1.27c1.16-4.07-3-5.77-4.43-4.25-1.25 1.07-3.2 1.15-5.22 2a5.51 5.51 0 0 0-3.16 6.03zm2.63 2.15-.12.06-.24.11c-.157.08-.304.177-.44.29.133-.132.277-.253.43-.36.118-.051.243-.085.37-.1zm-24.71-35.25a.706.706 0 0 0 0-.13c.07-.18-.26-.82-.65-1.2a3.674 3.674 0 0 0-1.28-.93 3.374 3.374 0 0 0-2.91 0c-.179.12-.379.205-.59.25a4.577 4.577 0 0 0-2.27 1.83c-.58.86-.95 2-1.5 2.87a4.082 4.082 0 0 0-.51 4.43 3.294 3.294 0 0 0 1.93 1.72 4.854 4.854 0 0 0 2.79-.28 10.91 10.91 0 0 0 1.9-.49c.66.347 1.408.493 2.15.42a3.35 3.35 0 0 0 2.95-3 2.783 2.783 0 0 0 0-.5c.167-.231.301-.483.4-.75.121-.437.155-.893.1-1.343a3.452 3.452 0 0 0-1.305-2.296 3.455 3.455 0 0 0-1.205-.601zm11.41-16.61a.565.565 0 0 0 0-.13c.07-.18-.26-.82-.65-1.21a3.694 3.694 0 0 0-3.05-1.23c-.394.04-.779.145-1.14.31a1.62 1.62 0 0 1-.59.26 4.577 4.577 0 0 0-2.27 1.83c-.58.85-1 2-1.5 2.87a4.063 4.063 0 0 0-.5 4.43 3.238 3.238 0 0 0 1.92 1.71 4.69 4.69 0 0 0 2.79-.28 10.199 10.199 0 0 0 1.9-.49c.66.347 1.408.493 2.15.42a3.35 3.35 0 0 0 2.95-3 2.783 2.783 0 0 0 0-.5c.165-.232.299-.484.4-.75a3.422 3.422 0 0 0-.32-2.623 3.434 3.434 0 0 0-2.09-1.617zM405.42 360a7.907 7.907 0 0 0-3.34 1.17 5.152 5.152 0 0 0-1.27 1.19 4.582 4.582 0 0 0-1.27 2.37c-.39 4 3.55 4.92 4.79 3.65a1.547 1.547 0 0 1 1.9-.07c.61.43.35 1 .42 1.67a3.865 3.865 0 0 0 2.16 2.75 4.927 4.927 0 0 0 3.67.32c.92-.31 1.11-.73 1.89-1a3.872 3.872 0 0 0 3.13-2.44 3.244 3.244 0 0 0-.5-3.61 8.098 8.098 0 0 0-3.09-1.41c-.8-.23-1.53-.65-1.4-.88.49 0 .29-.24-.3-1a8.005 8.005 0 0 0-6.81-2.69l.02-.02zm26.79-65.41a7.874 7.874 0 0 0-3.33 1.17 5.6 5.6 0 0 0-1.28 1.24 4.73 4.73 0 0 0-1.26 2.37c-.39 4 3.55 4.92 4.79 3.65a1.566 1.566 0 0 1 1.9-.07c.61.43.35 1 .41 1.68a3.908 3.908 0 0 0 2.16 2.74 4.91 4.91 0 0 0 3.68.32c.91-.3 1.11-.73 1.89-1a3.872 3.872 0 0 0 3.13-2.44 3.229 3.229 0 0 0-.49-3.58 7.864 7.864 0 0 0-3.08-1.4c-.8-.24-1.53-.66-1.41-.89.49-.05.3-.23-.29-1a7.772 7.772 0 0 0-3.25-2.24 7.89 7.89 0 0 0-3.57-.55zm-33.13 43.55a14.205 14.205 0 0 1-1.26-1.29 5.62 5.62 0 0 0-3.44-2 6.673 6.673 0 0 0-4.05.26 5.243 5.243 0 0 0-2.86 2.7 3.629 3.629 0 0 0 .46 3.6 3.487 3.487 0 0 0 4.57 1.17c.85-.44 2.07.5 2.43 1.53.115.345.259.679.43 1l.06.05c.128.068.262.125.4.17.293.123.603.201.92.23a3.619 3.619 0 0 0 4-2.85c.2-.905.156-1.848-.13-2.73a3.886 3.886 0 0 0-1.53-1.84zM476.15 405a3.643 3.643 0 0 0-2.73.77c-1.1 1-2.86 1.85-4.22 3.43a5.096 5.096 0 0 0-1.19 4.95c.47 1.58 1.73 3 1.95 4.38a3.538 3.538 0 0 0 1.62 2.91 3.81 3.81 0 0 0 3.86.12 3.94 3.94 0 0 0 1.64-2c.31-1 .37-1.07.52-1.51.23-.713.407-1.441.53-2.18.14-.72.29-1.45.38-2.17.088-.639.132-1.284.13-1.93 0-.45-.06-.5-.28-.5-.06-.06-.36 0-.22-.39a4.175 4.175 0 0 0 1-2.89 3.23 3.23 0 0 0-2.99-2.99zm-11.54-22.18a3.669 3.669 0 0 0-2.74.77c-1.09 1-2.85 1.86-4.21 3.43a5.068 5.068 0 0 0-1.19 5c.47 1.58 1.73 3 1.95 4.38a3.538 3.538 0 0 0 1.62 2.91 3.81 3.81 0 0 0 3.86.12 3.94 3.94 0 0 0 1.64-2c.31-1 .37-1.07.52-1.5.229-.716.406-1.448.53-2.19.14-.72.29-1.45.38-2.17.088-.636.131-1.278.13-1.92 0-.46-.06-.5-.28-.51-.06-.06-.36 0-.22-.39a4.175 4.175 0 0 0 1-2.89 3.23 3.23 0 0 0-2.99-3.04zm-18.82 3.12s-.05.1 0 0l.26-.19.53-.37a7.928 7.928 0 0 0 2.43-2.7 8.14 8.14 0 0 0 1.07-4.28 8 8 0 0 0-3.21-6.28 3.513 3.513 0 0 0-2.84-1.38 3.165 3.165 0 0 0-1.178.352 3.153 3.153 0 0 0-.952.778 3.182 3.182 0 0 0-.51 3.35 3.005 3.005 0 0 1 .07 2.51 2.544 2.544 0 0 1-1.76 1.3c-1 0-3.6 1.56-4.18 4.54a6.747 6.747 0 0 0 3.37 6.89c1.5 1.62 6.66 1 5.85-3.65.107-.075.207-.159.3-.25.31-.15.54-.47.75-.62zm-2.48-1s-.12-.07 0 0c.11.051.217.108.32.17.191.137.362.298.51.48.179.242.314.512.4.8v.08a4.29 4.29 0 0 0-.67-1 5.48 5.48 0 0 0-.56-.57v.04zm47.84 23.19a4.276 4.276 0 0 0 1.76-2.34c.151-.54.192-1.104.12-1.66 0-.45.17-.4.3-.46.6.21 1.28.2 2.65-1.21a6.84 6.84 0 0 0 1-1.4 6.742 6.742 0 0 0 .66-1.9 6.106 6.106 0 0 0-.51-3.87 5.998 5.998 0 0 0-3-2.84 5.584 5.584 0 0 0-2.48-.52 4.598 4.598 0 0 0-2.5.93 3.933 3.933 0 0 0-1.49 3.84c.106.613.429 1.167.91 1.56a6.322 6.322 0 0 0-1.08.49 6.61 6.61 0 0 0-1.87 1.47l-.23.3c-.06.07-.23.48-.26.53-.1.22-.21.45-.29.68a6.278 6.278 0 0 0-.32 1.49c-.117.969.079 1.95.56 2.8a8.333 8.333 0 0 0 2.31 2.33 3.312 3.312 0 0 0 3.76-.22zm-35.21-68.93c-1.6.71-3.87 1.53-5.44 3.61-.632.86-1.1 1.83-1.38 2.86-.23.73-.18.58.07.65a3.766 3.766 0 0 1-.81 1.56c-.17.27-.4.41-.37.57a4.17 4.17 0 0 0-2.18.32 3.412 3.412 0 0 0-1.55 3.72 3.565 3.565 0 0 0 1.19 2 7.259 7.259 0 0 0 1.81 1 8.552 8.552 0 0 0 7.17-.66 9.767 9.767 0 0 0 3.12-2.43 8.548 8.548 0 0 0 1.73-3.74c.38-3.12.13-3.73-1-3.67 3.26-3.3-.3-7.12-2.36-5.79zm45.87 76.94c-1.6.71-3.87 1.54-5.44 3.61a8.77 8.77 0 0 0-1.38 2.86c-.23.73-.18.58.08.65a3.992 3.992 0 0 1-.82 1.57c-.17.26-.4.41-.37.56a4.274 4.274 0 0 0-2.18.32 3.412 3.412 0 0 0-1.55 3.72 3.545 3.545 0 0 0 1.2 2 7.101 7.101 0 0 0 1.8 1 8.577 8.577 0 0 0 7.18-.67 9.729 9.729 0 0 0 3.11-2.43 8.548 8.548 0 0 0 1.73-3.74c.38-3.11.13-3.73-1-3.67 3.26-3.28-.34-7.11-2.36-5.78zM458 315.41a4.297 4.297 0 0 0-2 4.61c.37 1.82 1.84 3.17 2.58 4.38.197.303.377.617.54.94.224.46.537.871.92 1.21a3.817 3.817 0 0 0 3.48.65 3.858 3.858 0 0 0 2.81-3.39 5.214 5.214 0 0 0-.37-2.32c0-.14 0-.25.07-.38.13-.53.46-.87.46-1.12a2.73 2.73 0 0 0-.05-.51s-.05 0 0-.13l.41-.5c.237-.367.431-.759.58-1.17a3.79 3.79 0 0 0 0-2.4 3.858 3.858 0 0 0-2.54-2.52 2.658 2.658 0 0 0-2.59.55c-1.02.88-2.7 1.12-4.3 2.1zM469.66 223a3.474 3.474 0 0 0-3.67.87 3.553 3.553 0 0 0-1.05 2.41c0 1.36-1.78 2-2.87 1.5-.55-.15-.93-.4-1.18-.43a.813.813 0 0 0-.38 0 .707.707 0 0 0-.18.08c-.09 0-.77.06-1.12.16-.957.265-1.79.86-2.35 1.68a3.737 3.737 0 0 0-.49 2.33 4.435 4.435 0 0 0 1.82 3c.444.3.944.507 1.47.61.51.09.79.1 1.2.19.76.11 1.59.33 2.47.4a7.108 7.108 0 0 0 5.23-1.39 8.616 8.616 0 0 0 3.43-4.44 7.87 7.87 0 0 0 .31-2.85 6.683 6.683 0 0 0-.55-2.17 3.596 3.596 0 0 0-2.09-1.95zm16.05 60.55c.264-.41.454-.864.56-1.34a3.528 3.528 0 0 0-1.69-3.91 2.737 2.737 0 0 0-3 .1c-1.25.91-3.09 1.76-4.7 2.86a9.182 9.182 0 0 0-.94.74c.3-.05.4.05.29.15a2 2 0 0 1-.89.28h-.06c-.33.057-.665.09-1 .1a3.703 3.703 0 0 0-2.37.47 3.191 3.191 0 0 0-1.31 1.67 3.812 3.812 0 0 0 .42 3.48c.384.475.839.886 1.35 1.22l1.1.82a6.793 6.793 0 0 0 6.45 1.16 7.7 7.7 0 0 0 3.41-2.16 8.703 8.703 0 0 0 1.68-2.74 5.84 5.84 0 0 0 .45-1.64.92.92 0 0 0-.18-.48c0-.07-.15 0 0-.21.161-.176.305-.367.43-.57zm-17.21 8.04.13-.11c-.34 0-.67.4-.62.43.182-.074.349-.183.49-.32zm30.39 77.86a9.61 9.61 0 0 0 2.79-1.49 7.567 7.567 0 0 0 2.53-3.59c.229-.733.3-1.507.21-2.27a6.64 6.64 0 0 0-.7-2.3 3.43 3.43 0 0 0-4.34-1.75 2.662 2.662 0 0 0-1.85 2.71c0 .67-.8 1.11-1.64 1.16-.84.05-1.82-.09-2.92 0a3.728 3.728 0 0 0-2 .7 5.415 5.415 0 0 0-1.53 1.52 6.3 6.3 0 0 0-.74 1.51c-.06.23 0 .31.06.37.3.09.22.64-.77 1.41a3.57 3.57 0 0 0-1.46 2.07 3.838 3.838 0 0 0 .08 2.14 3.553 3.553 0 0 0 1.15 1.7 2.93 2.93 0 0 0 2.14.54c1.15-.2 1.91-.17 3.06-.39a5.998 5.998 0 0 0 3.46-1.72c1-1.12 1.45-2.15 1.74-2.31.14-.1.16 0 .09.17a3.95 3.95 0 0 0 .64-.18zM330.11 394.9a9.49 9.49 0 0 0 2.79-1.49 7.567 7.567 0 0 0 2.53-3.59 5.643 5.643 0 0 0 .22-2.27 6.89 6.89 0 0 0-.71-2.3 3.43 3.43 0 0 0-4.34-1.75 2.666 2.666 0 0 0-1.85 2.71c0 .67-.8 1.11-1.64 1.16-.84.05-1.82-.09-2.92 0a3.728 3.728 0 0 0-2 .7 5.415 5.415 0 0 0-1.53 1.52 6.3 6.3 0 0 0-.74 1.51c-.06.23 0 .31.07.37.29.09.21.64-.78 1.41a3.61 3.61 0 0 0-1.46 2.07 3.838 3.838 0 0 0 .08 2.14 3.553 3.553 0 0 0 1.15 1.7 2.93 2.93 0 0 0 2.14.54c1.15-.2 1.91-.17 3.06-.39a5.998 5.998 0 0 0 3.46-1.72c1-1.12 1.46-2.15 1.75-2.31.13-.1.15 0 .08.17a3.95 3.95 0 0 0 .64-.18zm158.66 65.81a3.788 3.788 0 0 0-2.63 1.16 3.838 3.838 0 0 0-.63 3.95 3.764 3.764 0 0 0 2.49 2.25 8.991 8.991 0 0 0 3 .76 8.005 8.005 0 0 0 5.82-2.31 11.917 11.917 0 0 0 3.29-4.43c.336-.828.568-1.695.69-2.58.06-.468.06-.942 0-1.41a4.79 4.79 0 0 0-.59-2.66 3.37 3.37 0 0 0-4-1.52 2.998 2.998 0 0 0-2.07 2.13c-.33 1.47-1.95 2.54-3.41 3.21-1.46.67-2.6 1.1-1.47 1.15.14.1.88.45-.49.3zM429 357.35a7.09 7.09 0 0 0-2.87-.33l-1 .15c-.46.112-.904.283-1.32.51a3.645 3.645 0 0 0-1.74 2.21 3.56 3.56 0 0 0 1.06 3.52 3.69 3.69 0 0 0 2.38 1 1.304 1.304 0 0 1 1.22 1.06 1.448 1.448 0 0 1-1.49 1.7s0-.06-.11.21a4.47 4.47 0 0 0-.36 1.24 3.993 3.993 0 0 0 1.021 3.361 4.009 4.009 0 0 0 3.279 1.259 3.452 3.452 0 0 0 3-2.07c.53-1.53 1.24-2.68 1.85-4.41 1.47-3.48-1.07-8.16-4.92-9.41zm-92.64 4.84a3.848 3.848 0 0 0-1.122-1.341 3.85 3.85 0 0 0-1.598-.709 2.906 2.906 0 0 0-2.4.67c-.89.81-2.53 1-4.06 2.22a3.998 3.998 0 0 0-1.15 5c.87 1.76 2.78 2.57 4 3.28a21.37 21.37 0 0 1 1.79 1.19 3.898 3.898 0 0 0 3.24.41 4.007 4.007 0 0 0 2.867-3.848 4.006 4.006 0 0 0-.367-1.662 4.326 4.326 0 0 0-1.23-1.57 3.88 3.88 0 0 0 .03-3.64zm-.24 4.14a1.17 1.17 0 0 1-.44.64.58.58 0 0 1-.2.08h-.09l.38-.41c.137-.182.258-.376.36-.58-.01.09.03.16-.01.27zm-.38-1c-.44-.48.3-.38.41.35-.15-.09-.28-.24-.41-.33v-.02zM371 329.2c.113.698.402 1.355.84 1.91.05.11.05.25.11.36.06.11.15.23.23.36l.48.56c.09.16-.07 0 .07.25.29.475.625.92 1 1.33a6.714 6.714 0 0 0 8.09 1.4 9.123 9.123 0 0 0 2.35-1.84l-.24.08a3.59 3.59 0 0 0 .87-.6 2.9 2.9 0 0 0 1.84-2c.36-1.076.426-2.23.19-3.34a5.256 5.256 0 0 0-2.73-3.34 5.006 5.006 0 0 0-4.6.15 3.585 3.585 0 0 0-1.36 1.23c-.06.14-.07.25 0 .28.107.006.214.006.32 0l.37.15c.35.12.72.52.64.62-.08.1-.28 0-.53-.15a9.199 9.199 0 0 0-1.67-.87 6.516 6.516 0 0 0-3.61-.51 3.005 3.005 0 0 0-2.12 1.31 3.94 3.94 0 0 0-.54 2.66zm5.38 3.29a2.39 2.39 0 0 1-.41.23h-.1l-.21.08-.2.05c-.2 0 0-.05.1-.08l-.44-2.36c.18.21.35.44.55.64.373.367.81.662 1.29.87a3.553 3.553 0 0 1-.49.57h-.09zm11.37 25.02c-1.36.54-3.18-.09-4.38-1a4.775 4.775 0 0 1-1.08-.94c-.1-.18.11 0-.13.16h-.23a4.056 4.056 0 0 0-.86-1 3.83 3.83 0 0 0-2.29-.93 4.286 4.286 0 0 0-3.5 1.56c-1 1.06-.49 2.81-.23 3.37.215.908.509 1.794.88 2.65a7.184 7.184 0 0 0 4.67 4c1.809.641 3.759.779 5.64.4.848-.191 1.668-.49 2.44-.89a7.958 7.958 0 0 0 1.13-.8 4.16 4.16 0 0 0 1.85-2.13 3.506 3.506 0 0 0-1.06-4 2.833 2.833 0 0 0-2.85-.45zm136.7 133.15c-1.36.54-3.17-.08-4.38-1a4.615 4.615 0 0 1-1.07-.94c-.11-.18.1 0-.13.16h-.23a4.284 4.284 0 0 0-.87-1 3.847 3.847 0 0 0-2.29-.92 4.208 4.208 0 0 0-3.49 1.56c-1 1.06-.49 2.81-.24 3.37.217.905.515 1.789.89 2.64a7.172 7.172 0 0 0 4.67 4c1.807.638 3.753.773 5.63.39a10.215 10.215 0 0 0 2.45-.88c.391-.241.766-.508 1.12-.8a4.2 4.2 0 0 0 1.85-2.13c.27-.692.313-1.452.124-2.17a3.514 3.514 0 0 0-1.174-1.83 2.91 2.91 0 0 0-2.86-.45zM353.47 359.43a9.627 9.627 0 0 0-3.18-.37 9.001 9.001 0 0 0-5.76 1.89c-.461.401-.859.87-1.18 1.39a3.71 3.71 0 0 0-.53 2.59 4.706 4.706 0 0 0 3.32 3.72 3.618 3.618 0 0 0 1.78 2.47 2.71 2.71 0 0 0 3-.11c1.22-1 3.1-1.33 4.87-2.81a4.847 4.847 0 0 0 1.63-3.1 5.184 5.184 0 0 0-1-3.64 6.157 6.157 0 0 0-2.95-2.03zm-6.52 6h.05l-.06.08a.273.273 0 0 1 .06-.04l-.05-.04zm17.79 50.77a9.627 9.627 0 0 0-3.18-.37 9.001 9.001 0 0 0-5.76 1.89 5.887 5.887 0 0 0-1.18 1.39 3.694 3.694 0 0 0-.53 2.59 4.68 4.68 0 0 0 3.32 3.71 3.622 3.622 0 0 0 1.78 2.48 2.688 2.688 0 0 0 3-.12c1.21-1 3.09-1.32 4.87-2.8a4.882 4.882 0 0 0 1.63-3.1 5.189 5.189 0 0 0-1-3.64 6.157 6.157 0 0 0-2.95-2.03zm-6.52 6h.07l-.06.08a.26.26 0 0 1-.01-.04v-.04zm-8.03-81.57a3.411 3.411 0 0 0-1 2.44c.07 1.35-1.7 2.09-2.83 1.7-.56-.12-.95-.35-1.19-.37a.731.731 0 0 0-.36 0c-.05 0-.11 0-.17.08a9.875 9.875 0 0 0-1.09.22 4.124 4.124 0 0 0-2.2 1.7 3.779 3.779 0 0 0-.5 2.27 4.284 4.284 0 0 0 1.82 3c.457.293.972.484 1.51.56.52.07.79.06 1.21.14.77.07 1.59.25 2.48.28a7.12 7.12 0 0 0 5.16-1.54 8.548 8.548 0 0 0 3.31-4.54c.255-.93.333-1.901.23-2.86a6.715 6.715 0 0 0-.61-2.14 3.63 3.63 0 0 0-2.07-1.85 3.533 3.533 0 0 0-3.7.91zm72.49-5.87c-1.35.65-3.14.24-4.92 0a5.075 5.075 0 0 0-4.44 1.37 13.957 13.957 0 0 0-1.55 2 18.959 18.959 0 0 1-1.81 2.18 3.375 3.375 0 0 0-.19 3.47c.304.648.8 1.188 1.421 1.545.62.358 1.336.517 2.049.455a8.616 8.616 0 0 0 1.07-.2h.6c.386-.028.77-.078 1.15-.15a17.761 17.761 0 0 0 2.14-.56 19.709 19.709 0 0 0 4.05-1.46 14.744 14.744 0 0 0 1.81-1.18 5.32 5.32 0 0 0 .82-.83 4.199 4.199 0 0 0 1.68-2.14c1.02-3.56-2.35-5.51-3.88-4.5zm-.96 94.86a1.83 1.83 0 0 1 .57-.16h.2c.096-.28.166-.568.21-.86a3.901 3.901 0 0 0-1.7-3.6 4.005 4.005 0 0 0-3.201-.42 3.99 3.99 0 0 0-2.469 2.08c-.38.89-.39 1.45-.6 2l-.73 1.84a5.57 5.57 0 0 0 0 4.4 6.77 6.77 0 0 0 2.93 3.58 5.75 5.75 0 0 0 3.74.72 3.673 3.673 0 0 0 2.89-2.76 3.9 3.9 0 0 0-.51-3 3.999 3.999 0 0 0-1.66-1.35c-.94-.4-.67-2.09.33-2.47zm-3.54-121.96c-.691-.386-1.41-.72-2.15-1a4 4 0 0 0-3.24.4 4.075 4.075 0 0 0-2 3.38c-.013.547.107 1.09.35 1.58l-.08.11a.424.424 0 0 0-.06.14l-.37.43a4.472 4.472 0 0 0-1 2.62 3.53 3.53 0 0 0 .91 2.44 3.685 3.685 0 0 0 3.23 1.11 4.28 4.28 0 0 0 2.17-1c.86-.86 2.47-.79 4.16-1.58a4 4 0 0 0 2-5c-.69-1.96-2.62-2.93-3.92-3.63zm-4.42 6.94a2.307 2.307 0 0 1-.64-.41c.227.135.465.252.71.35l-.07.06zm83.65 32.23a3.135 3.135 0 0 0-2.8.83 1.618 1.618 0 0 1-1.89.27 2.544 2.544 0 0 1-1.2-1.54 5.785 5.785 0 0 1-.21-1.24.502.502 0 0 0-.1-.22l-.1-.06h-.08c-.08-.23-.17-.46-.27-.68a4.18 4.18 0 0 0-2.36-2.19 3.637 3.637 0 0 0-2.63.19 4.115 4.115 0 0 0-2.34 3.12 9.41 9.41 0 0 0 .43 2.9c.182.938.457 1.856.82 2.74a7.605 7.605 0 0 0 4.31 4.32 9.1 9.1 0 0 0 6.39.51 8.188 8.188 0 0 0 2.95-1.68 6.294 6.294 0 0 0 1-1.36 4.387 4.387 0 0 0 .87-2.73 3.34 3.34 0 0 0-2.79-3.18zm-15.71-16.39.71-1.16a2.998 2.998 0 0 0-.964-4.169 3.003 3.003 0 0 0-1.506-.441 4.188 4.188 0 0 0-1.24-1.19 3.362 3.362 0 0 0-2.82-.26 6.259 6.259 0 0 0-1.31.75 4.483 4.483 0 0 0-.54.24c-.638.296-1.248.651-1.82 1.06-2.18 1.4-3.75 4.57-8.14 4.52a3.256 3.256 0 0 0-1.92 3.5 3.298 3.298 0 0 0 1.12 2.12 4.627 4.627 0 0 0 2.17 1c1.941.604 3.998.735 6 .38a14.51 14.51 0 0 0 10.26-6.35zm-197.52 162.5c-1.46 1.88-3.18 3.52-4.83 5.5a11.395 11.395 0 0 0-2 3.64 7.192 7.192 0 0 0 .28 5 14.67 14.67 0 0 0 2.37 3.52 9.623 9.623 0 0 1 1.41 2.08 9.511 9.511 0 0 1 1 4.88l.11-.34-.7 3a3.469 3.469 0 0 1-.74 1.88c-.69.84-2.55.69-4.13 0a2.606 2.606 0 0 0-.736-1.057 2.607 2.607 0 0 0-1.154-.573 3.285 3.285 0 0 0-2.84.79 3.136 3.136 0 0 0-1 2.84c.036.733.13 1.462.28 2.18a6.708 6.708 0 0 0 2.807 4.573 6.7 6.7 0 0 0 5.263 1.047 14.997 14.997 0 0 0 8.24-4.71 16.809 16.809 0 0 0 2.81-3.92 20.072 20.072 0 0 0 1.66-4.45 15.468 15.468 0 0 0-.92-9.86 13.798 13.798 0 0 0-2.93-3.88 14.035 14.035 0 0 1-1.71-1.83c-.88-.94-.64-3.41.46-5.74l.87-1.74a2.471 2.471 0 0 0 .21-2.57 2.497 2.497 0 0 0-3.139-.981c-.367.161-.69.409-.941.721zm25.92-68.25c.336.107.644.288.9.53.17.16.21.19.25.19.04 0 .05-.12 0-.27a8.06 8.06 0 0 0-.32-1.27 6.003 6.003 0 0 0-.75-1.55 29.208 29.208 0 0 0-1.95-2.5 3.659 3.659 0 0 0-2.29-1.7 3.848 3.848 0 0 0-2.4.26 3.118 3.118 0 0 0-1.67 1.73 4.006 4.006 0 0 0 .06 2.19c.176 1.018.269 2.048.28 3.08.05 1.05 0 2.14.14 3.17a6.604 6.604 0 0 0 1.67 4 7.81 7.81 0 0 0 4.87 2.32 10.942 10.942 0 0 0 9.74-4.15c.093-.126.193-.246.3-.36.184-.183.358-.377.52-.58a3.53 3.53 0 0 0 .67-1.49 3.114 3.114 0 0 0-.73-2.5 2.824 2.824 0 0 0-3.54-.73 6.904 6.904 0 0 1-2.85.59 8.407 8.407 0 0 1-3-.51c-.22-.14-.82-.54.1-.45zM292 434.7a.534.534 0 0 0 0-.08v.08z" fill="#174f78"/><path d="M280 437a3.53 3.53 0 0 0 1.31 1.68c.446.332.91.639 1.39.92a6.387 6.387 0 0 0 3.5 1 5.665 5.665 0 0 0 4.25-2.3 9.435 9.435 0 0 0 1.55-3.6v-.08c.19-.41.09-.13 0 0a8.908 8.908 0 0 1 1-1c.23-.22.48-.51.76-.83.13-.16.28-.3.42-.5a5.504 5.504 0 0 0 1-1c2.29-3.61-1.35-6.44-3.1-5.31-1.51.73-3.43.33-5.62.72a5.552 5.552 0 0 0-4.54 5 2.278 2.278 0 0 0 0 .79 2.785 2.785 0 0 0-1.29.8A3.701 3.701 0 0 0 280 437zm4.06-4.87c.25.06.32.14.31.19-.01.05-.67 0-1.37 0l.11-.06c.276-.136.584-.194.89-.17l.06.04zm9.49 57.17a3.231 3.231 0 0 0-.68 2.27 3.096 3.096 0 0 0 2 2.71 1.709 1.709 0 0 1 1.27 1.77 11.556 11.556 0 0 1-1 2.46 5 5 0 0 0 .1 3.93 5.467 5.467 0 0 0 3.27 2.9c.815.22 1.656.325 2.5.31.136-.016.274-.016.41 0 .14.06.16 0 .53.36a3.26 3.26 0 0 0 2.18 1 3.467 3.467 0 0 0 3.35-2.27 3.594 3.594 0 0 0 0-2.34 9.078 9.078 0 0 0-.71-1.69 10.066 10.066 0 0 0-2.12-2.6c.04-.171.07-.345.09-.52a8.99 8.99 0 0 0 0-2.15 8.489 8.489 0 0 0-1.47-3.87 7.507 7.507 0 0 0-6.8-3.42 3.58 3.58 0 0 0-2.92 1.15zm10.8 8.56c-.45-.35-.74-.54-.72-.64.02-.1.48.27.72.64zm49.74 13.48A5.16 5.16 0 0 1 349 511a2.174 2.174 0 0 1-.77-1c-.07-.16-.35-.36-.87-.82-.26-.22-.56-.5-.87-.81l-.5-.48a5.06 5.06 0 0 0-.95-1 3.853 3.853 0 0 0-4.58-.09 2.859 2.859 0 0 0-1.25 2 5.422 5.422 0 0 0 .29 1.89c.23.92.34 1.92.58 3a8.063 8.063 0 0 0 4.29 5.9 10.443 10.443 0 0 0 7.49.88 9.556 9.556 0 0 0 5.39-3.53 3.56 3.56 0 0 0 1.35-2.83 3.23 3.23 0 0 0-4.48-2.65l-.03-.12zm9.91-69.55c.277.842.66 1.645 1.14 2.39l.26.47s0 .07.08.08a3.517 3.517 0 0 0-.49.53 3.459 3.459 0 0 0 .23 3.76 3.62 3.62 0 0 0 1.68 1.31 5.453 5.453 0 0 0 5.82-1.75 6.996 6.996 0 0 0 1.48-3.78c.041-.332.061-.666.06-1v-.67a4.013 4.013 0 0 1 .09-.86c.15-.3 0 .16.11-.12.204-.44.452-.859.74-1.25.18-.29.36-.63.55-1l.34-.63c.302-.387.542-.819.71-1.28 1.16-4.06-3-5.76-4.42-4.25-1.26 1.08-3.21 1.15-5.23 2.05a5.49 5.49 0 0 0-3.15 6zm2.62 2.15-.13.06-.24.12a2.73 2.73 0 0 0-.44.28c.136-.125.28-.242.43-.35.122-.061.254-.098.39-.11h-.01zm-24.7-35.25a.565.565 0 0 0 0-.13c.07-.18-.26-.82-.64-1.21a3.94 3.94 0 0 0-1.29-.93 3.463 3.463 0 0 0-2.91 0c-.175.122-.372.21-.58.26a4.56 4.56 0 0 0-2.28 1.83c-.57.85-.95 2-1.5 2.87a4.055 4.055 0 0 0-.5 4.43 3.269 3.269 0 0 0 1.93 1.71 4.65 4.65 0 0 0 2.78-.28 11.018 11.018 0 0 0 1.9-.48c.663.338 1.409.48 2.15.41a3.356 3.356 0 0 0 2.033-.967 3.356 3.356 0 0 0 .967-2.033 4.17 4.17 0 0 0 0-.5c.168-.23.303-.482.4-.75a3.435 3.435 0 0 0-1.241-3.643 3.427 3.427 0 0 0-1.219-.587zm167.41 28.65v-.13c0-.05-.25-.82-.64-1.21a4.005 4.005 0 0 0-1.28-.93 3.744 3.744 0 0 0-1.77-.3c-.398.04-.786.145-1.15.31-.175.122-.372.21-.58.26a4.56 4.56 0 0 0-2.28 1.83c-.57.85-.95 2-1.5 2.87a4.055 4.055 0 0 0-.5 4.43 3.269 3.269 0 0 0 1.93 1.71 4.65 4.65 0 0 0 2.78-.28 10.199 10.199 0 0 0 1.9-.49 3.837 3.837 0 0 0 2.15.42 3.356 3.356 0 0 0 2.033-.967 3.356 3.356 0 0 0 .967-2.033 4.17 4.17 0 0 0 0-.5c.168-.23.303-.482.4-.75a3.432 3.432 0 0 0-.339-2.637 3.413 3.413 0 0 0-.899-1.015 3.418 3.418 0 0 0-1.222-.588zM544.18 485a.472.472 0 0 1 0-.13 1.998 1.998 0 0 0-.65-1.2 3.767 3.767 0 0 0-1.28-.93 3.579 3.579 0 0 0-1.77-.31 3.443 3.443 0 0 0-1.15.32c-.175.12-.372.205-.58.25a4.582 4.582 0 0 0-2.27 1.83c-.58.86-1 2-1.5 2.87a4.082 4.082 0 0 0-.51 4.43 3.294 3.294 0 0 0 1.93 1.72 4.845 4.845 0 0 0 2.79-.28 11.964 11.964 0 0 0 1.9-.49 3.908 3.908 0 0 0 2.15.42 3.35 3.35 0 0 0 2.95-3 4.17 4.17 0 0 0 0-.5c.167-.231.301-.483.4-.75a3.43 3.43 0 0 0-.319-2.627 3.46 3.46 0 0 0-.883-1.021 3.453 3.453 0 0 0-1.208-.602zM326.1 469.76a8.008 8.008 0 0 0-3.34 1.17 5.364 5.364 0 0 0-1.27 1.2 4.66 4.66 0 0 0-1.27 2.36c-.39 4 3.56 4.92 4.8 3.65a1.566 1.566 0 0 1 1.9-.07c.6.44.35 1 .41 1.68a3.881 3.881 0 0 0 2.16 2.74 4.906 4.906 0 0 0 3.68.32c.91-.3 1.1-.72 1.89-1a3.882 3.882 0 0 0 3.13-2.44 3.204 3.204 0 0 0-.49-3.57 7.733 7.733 0 0 0-3.09-1.41c-.79-.24-1.53-.66-1.4-.89.49-.05.29-.23-.29-1a8.009 8.009 0 0 0-3.082-2.178 8.017 8.017 0 0 0-3.738-.522v-.04zm-1.21-12.41a13.1 13.1 0 0 1-1.27-1.3 5.671 5.671 0 0 0-3.43-1.95 6.853 6.853 0 0 0-4.06.26 5.311 5.311 0 0 0-2.86 2.7 3.647 3.647 0 0 0 .46 3.61 3.862 3.862 0 0 0 2.53 1.55 4 4 0 0 0 2-.38c.85-.44 2.07.5 2.44 1.53.11.347.254.682.43 1l.06.06c.127.072.261.129.4.17.293.122.604.196.92.22a3.621 3.621 0 0 0 1.93-.28 3.708 3.708 0 0 0 2.06-2.57 5.061 5.061 0 0 0-.13-2.72 3.88 3.88 0 0 0-1.48-1.9zm61.05 44.85a3.706 3.706 0 0 0-2.74.78c-1.09 1-2.86 1.85-4.21 3.43a5.053 5.053 0 0 0-1.19 4.94c.47 1.59 1.73 3 1.95 4.39a3.496 3.496 0 0 0 1.62 2.91 3.81 3.81 0 0 0 3.86.12 3.94 3.94 0 0 0 1.64-2c.3-1 .37-1.07.51-1.51.234-.711.412-1.44.53-2.18.14-.72.3-1.45.39-2.17.088-.639.132-1.284.13-1.93 0-.45-.06-.5-.28-.5-.07-.06-.37 0-.23-.4a4.102 4.102 0 0 0 1-2.88 3.252 3.252 0 0 0-2.98-3zm-14.23-4.2s.05 0 0 0-.05.1 0 0l.26-.19.53-.36a7.997 7.997 0 0 0 2.43-2.7 8.196 8.196 0 0 0 1.07-4.29 8.002 8.002 0 0 0-3.21-6.28 3.513 3.513 0 0 0-2.84-1.38 3.101 3.101 0 0 0-2.13 1.14 3.182 3.182 0 0 0-.51 3.35 2.922 2.922 0 0 1 .07 2.5 2.544 2.544 0 0 1-1.76 1.3c-1 0-3.6 1.56-4.18 4.54a6.747 6.747 0 0 0 3.37 6.89c1.5 1.62 6.66 1 5.85-3.65.107-.075.207-.159.3-.25.31-.14.54-.46.75-.62zm-2.48-1s-.12-.07 0 0l.32.17c.193.137.365.303.51.49.18.241.316.512.4.8v.07a4.29 4.29 0 0 0-.67-1 5.501 5.501 0 0 0-.56-.53zm24.11-12.2a4.298 4.298 0 0 0 1.76-2.35c.153-.539.19-1.105.11-1.66 0-.44.18-.4.31-.46.6.21 1.28.2 2.65-1.21a6.84 6.84 0 0 0 1-1.4c.31-.599.532-1.238.66-1.9a6.175 6.175 0 0 0-.51-3.87 5.998 5.998 0 0 0-3-2.84 5.731 5.731 0 0 0-2.48-.52 4.681 4.681 0 0 0-2.5.93 3.92 3.92 0 0 0-1.292 1.708 3.917 3.917 0 0 0-.198 2.132c.106.613.429 1.167.91 1.56a6.384 6.384 0 0 0-1.09.49 6.75 6.75 0 0 0-1.86 1.47l-.23.3c-.06.08-.23.48-.26.53-.113.223-.21.454-.29.69a5.69 5.69 0 0 0-.32 1.48 4.5 4.5 0 0 0 .56 2.8 8.418 8.418 0 0 0 2.3 2.33 3.326 3.326 0 0 0 3.77-.21zm61.08 28.36a4.34 4.34 0 0 0 1.76-2.34c.142-.541.18-1.105.11-1.66-.05-.45.18-.4.31-.46.59.21 1.27.2 2.64-1.21.394-.42.73-.891 1-1.4a6.742 6.742 0 0 0 .66-1.9 6.106 6.106 0 0 0-.51-3.87 6.004 6.004 0 0 0-2.95-2.84A5.565 5.565 0 0 0 455 497a4.548 4.548 0 0 0-2.49.93 3.916 3.916 0 0 0-1.5 3.84c.106.613.429 1.167.91 1.56a6.322 6.322 0 0 0-1.08.49 6.61 6.61 0 0 0-1.87 1.47l-.23.3c-.06.07-.23.48-.26.53a6.093 6.093 0 0 0-.61 2.17 4.57 4.57 0 0 0 .56 2.8 8.636 8.636 0 0 0 2.31 2.33c.57.327 1.224.477 1.88.43a3.303 3.303 0 0 0 1.8-.69zm-72.67-54.75c-1.61.71-3.87 1.53-5.45 3.6a9.3 9.3 0 0 0-1.38 2.86c-.22.73-.18.58.08.65a3.92 3.92 0 0 1-.81 1.57c-.18.27-.41.41-.38.57a4.167 4.167 0 0 0-2.18.31 3.417 3.417 0 0 0-1.55 3.73c.168.781.59 1.485 1.2 2a7.241 7.241 0 0 0 1.81 1 8.51 8.51 0 0 0 7.17-.67 9.685 9.685 0 0 0 3.11-2.42 8.508 8.508 0 0 0 1.73-3.75c.38-3.11.14-3.73-1-3.67 3.26-3.29-.34-7.11-2.35-5.78zm2.01-23.79a4.283 4.283 0 0 0-2 4.6c.36 1.82 1.84 3.18 2.58 4.38.194.307.371.624.53.95.223.461.539.87.93 1.2a3.797 3.797 0 0 0 3.47.66 3.871 3.871 0 0 0 2.82-3.39 5.203 5.203 0 0 0-.38-2.32c0-.14 0-.26.07-.39.14-.52.47-.87.47-1.12a4.186 4.186 0 0 0-.06-.5v-.14l.41-.5c.243-.36.438-.75.58-1.16a3.644 3.644 0 0 0 0-2.4 3.887 3.887 0 0 0-2.54-2.53 2.694 2.694 0 0 0-2.59.56c-.96.88-2.64 1.12-4.29 2.1zM382 402.06a3.474 3.474 0 0 0-3.67.87 3.57 3.57 0 0 0-1 2.42c0 1.35-1.79 2-2.88 1.5-.55-.16-.92-.41-1.18-.44a.922.922 0 0 0-.37 0 .635.635 0 0 0-.19.08c-.09 0-.77.06-1.11.16-.962.26-1.797.86-2.35 1.69a3.63 3.63 0 0 0-.5 2.32 4.42 4.42 0 0 0 1.83 3c.439.302.937.51 1.46.61.51.09.79.1 1.2.2.77.1 1.59.32 2.47.39a7.11 7.11 0 0 0 5.23-1.39 8.57 8.57 0 0 0 3.43-4.44 7.654 7.654 0 0 0 .31-2.85 6.689 6.689 0 0 0-.55-2.17 3.592 3.592 0 0 0-2.13-1.95zM198.34 503a3.5 3.5 0 0 0 3.56-1.25 3.58 3.58 0 0 0 .79-2.51c-.17-1.35 1.57-2.16 2.7-1.79.56.1 1 .3 1.23.31a.708.708 0 0 0 .36 0c.06 0 .12 0 .18-.1.369-.07.733-.163 1.09-.28a4.138 4.138 0 0 0 2.17-1.91c.34-.741.427-1.574.25-2.37a4.437 4.437 0 0 0-2.12-2.76 3.826 3.826 0 0 0-1.53-.45c-.51-.05-.79 0-1.21-.08-.77 0-1.61-.15-2.5-.13a7.14 7.14 0 0 0-5.05 1.92 8.601 8.601 0 0 0-3 4.77 7.694 7.694 0 0 0 0 2.87c.138.738.398 1.448.77 2.1a3.61 3.61 0 0 0 2.31 1.66zm224.81 4.6a3.474 3.474 0 0 0-3.67.87 3.522 3.522 0 0 0-1 2.42c0 1.35-1.79 2-2.88 1.5-.55-.16-.92-.41-1.18-.44a1.012 1.012 0 0 0-.38 0 .707.707 0 0 0-.18.08c-.09 0-.77.06-1.11.16a4.163 4.163 0 0 0-2.36 1.69 3.693 3.693 0 0 0-.49 2.32 4.445 4.445 0 0 0 1.82 3c.444.3.944.507 1.47.61.51.09.79.1 1.2.2.77.1 1.59.32 2.47.39a7.11 7.11 0 0 0 5.23-1.39 8.616 8.616 0 0 0 3.43-4.44 7.654 7.654 0 0 0 .31-2.85 6.683 6.683 0 0 0-.55-2.17 3.592 3.592 0 0 0-2.13-1.95zm-18.92-95.37c.264-.41.454-.864.56-1.34a3.498 3.498 0 0 0-1.7-3.9 2.705 2.705 0 0 0-3 .1c-1.25.9-3.09 1.75-4.7 2.85a9.182 9.182 0 0 0-.94.74c.3-.05.4.06.29.15a1.872 1.872 0 0 1-.89.28h-.06a9.286 9.286 0 0 1-1 .09 3.742 3.742 0 0 0-2.38.48 3.203 3.203 0 0 0-1.3 1.66 3.812 3.812 0 0 0 .42 3.48c.381.477.837.889 1.35 1.22l1.1.83a6.792 6.792 0 0 0 6.45 1.16 7.772 7.772 0 0 0 3.41-2.16 8.72 8.72 0 0 0 1.68-2.74 5.988 5.988 0 0 0 .45-1.64.892.892 0 0 0-.18-.48c0-.08-.15 0 .05-.21a3.96 3.96 0 0 0 .39-.57z" fill="#174f78"/><path d="m394.3 410.8.13-.12c-.34.06-.66.4-.62.44h.05a1.28 1.28 0 0 0 .44-.32zm12.7 88.09a9.92 9.92 0 0 0 2.79-1.48 7.693 7.693 0 0 0 2.52-3.6 5.47 5.47 0 0 0 .22-2.27 6.67 6.67 0 0 0-.71-2.3 3.43 3.43 0 0 0-4.34-1.75 2.649 2.649 0 0 0-1.84 2.71c0 .67-.81 1.11-1.65 1.16-.84.05-1.82-.09-2.91 0a3.745 3.745 0 0 0-2 .7 5.415 5.415 0 0 0-1.53 1.52c-.309.47-.558.977-.74 1.51-.06.23 0 .31.07.37.29.09.21.64-.77 1.41a3.628 3.628 0 0 0-1.47 2.07 3.941 3.941 0 0 0 .08 2.14c.208.67.612 1.262 1.16 1.7a2.904 2.904 0 0 0 2.13.54c1.16-.2 1.91-.17 3.06-.39a6.002 6.002 0 0 0 3.47-1.72c1-1.12 1.45-2.15 1.74-2.31.13-.1.16 0 .08.17a3.95 3.95 0 0 0 .64-.18zM222.86 497a3.708 3.708 0 0 0-2.62 1.15 3.854 3.854 0 0 0-.76 3.611 3.864 3.864 0 0 0 2.62 2.599 8.884 8.884 0 0 0 3 .76 7.992 7.992 0 0 0 5.81-2.31 12.11 12.11 0 0 0 3.3-4.43c.327-.834.555-1.703.68-2.59a6.045 6.045 0 0 0 0-1.41 4.893 4.893 0 0 0-.6-2.66 3.386 3.386 0 0 0-4-1.52 3.007 3.007 0 0 0-2.07 2.14c-.32 1.47-1.94 2.54-3.41 3.21-1.47.67-2.59 1.1-1.46 1.15.14.1.89.45-.49.3zM136 506.45a3.782 3.782 0 0 0-2.63 1.15 3.86 3.86 0 0 0-.833 1.709 3.883 3.883 0 0 0 .081 1.9 3.875 3.875 0 0 0 2.612 2.601 8.991 8.991 0 0 0 3 .76 7.926 7.926 0 0 0 5.81-2.31 12.072 12.072 0 0 0 3.29-4.43 11.01 11.01 0 0 0 .69-2.59c.06-.465.06-.935 0-1.4a4.807 4.807 0 0 0-.59-2.67 3.386 3.386 0 0 0-4-1.52 3.007 3.007 0 0 0-2.07 2.14c-.33 1.47-2 2.54-3.41 3.21-1.41.67-2.59 1.1-1.47 1.15.1.09.84.44-.48.3zm218.83-29.9a7.248 7.248 0 0 0-2.87-.32l-1 .14a5.275 5.275 0 0 0-1.31.52 3.664 3.664 0 0 0-1.75 2.2 3.533 3.533 0 0 0 1.06 3.52c.649.606 1.493.96 2.38 1a1.277 1.277 0 0 1 1.22 1 1.466 1.466 0 0 1-.61 1.46 1.39 1.39 0 0 1-.87.25H351s0-.05-.1.22a3.733 3.733 0 0 0-.36 1.24 4 4 0 0 0 4.29 4.62 3.485 3.485 0 0 0 3.05-2.07c.52-1.53 1.23-2.68 1.85-4.42 1.46-3.42-1.08-8.1-4.9-9.36zM451 424.1a7.138 7.138 0 0 0-2.88-.33l-1 .15a5.13 5.13 0 0 0-1.32.51 3.595 3.595 0 0 0-1.74 2.21 3.533 3.533 0 0 0 1.06 3.52 3.673 3.673 0 0 0 2.37 1 1.314 1.314 0 0 1 1.23 1.06 1.468 1.468 0 0 1-.61 1.45 1.421 1.421 0 0 1-.88.25s0-.06-.11.21a4.277 4.277 0 0 0 .14 3.87 4.067 4.067 0 0 0 3.79 2 3.485 3.485 0 0 0 3.05-2.07c.52-1.53 1.23-2.68 1.85-4.41 1.43-3.52-1.11-8.16-4.95-9.42zm41.66-106.65a7.25 7.25 0 0 0-2.87-.32l-1 .14c-.46.112-.904.283-1.32.51a3.656 3.656 0 0 0-1.09.932 3.65 3.65 0 0 0-.65 1.278 3.533 3.533 0 0 0 1.06 3.52 3.715 3.715 0 0 0 2.38 1 1.28 1.28 0 0 1 1.22 1.05 1.466 1.466 0 0 1-.61 1.46 1.384 1.384 0 0 1-.88.24s0-.06-.11.22c-.181.39-.302.804-.36 1.23a3.993 3.993 0 0 0 1.021 3.361 4.006 4.006 0 0 0 3.279 1.259 3.454 3.454 0 0 0 3-2.06c.53-1.54 1.24-2.68 1.85-4.42 1.42-3.46-1.1-8.14-4.92-9.4zm-183.4 85.21a3.872 3.872 0 0 0-2.72-2 2.88 2.88 0 0 0-2.4.67c-.89.81-2.53 1-4.06 2.22a3.998 3.998 0 0 0-1.15 5c.87 1.77 2.78 2.58 3.95 3.29.617.365 1.215.762 1.79 1.19a3.876 3.876 0 0 0 1.575.561 3.88 3.88 0 0 0 1.665-.151 4.008 4.008 0 0 0 2.73-2.81c.245-.9.16-1.858-.24-2.7a4.35 4.35 0 0 0-1.22-1.58 3.893 3.893 0 0 0 .08-3.69zm-.24 4.15a1.202 1.202 0 0 1-.44.63.478.478 0 0 1-.2.09h-.09l.37-.41c.142-.181.266-.375.37-.58-.03.09.03.15-.03.27h.02zm-.39-1c-.43-.48.3-.38.42.35-.14-.09-.28-.24-.42-.33v-.02zm-11.79 42.6a4.27 4.27 0 0 0 .84 1.9c.032.122.072.243.12.36.066.13.143.253.23.37l.47.56c.1.15-.07 0 .08.25.289.472.624.914 1 1.32a6.732 6.732 0 0 0 8.1 1.4 9.223 9.223 0 0 0 2.35-1.84l-.25.09a3.59 3.59 0 0 0 .88-.61 2.843 2.843 0 0 0 1.83-2c.36-1.08.426-2.236.19-3.35a5.242 5.242 0 0 0-2.73-3.33 4.914 4.914 0 0 0-4.59.15 3.277 3.277 0 0 0-1.36 1.23c-.06.13-.07.24 0 .28.07.04.18 0 .31.05l.37.15c.35.12.73.51.64.61-.09.1-.28 0-.53-.14a9.838 9.838 0 0 0-1.66-.88 6.61 6.61 0 0 0-3.61-.51 2.995 2.995 0 0 0-2.13 1.32 3.943 3.943 0 0 0-.55 2.62zm5.43 3.29a4.09 4.09 0 0 1-.4.22l-.11.05-.21.07h-.2c-.2 0 0 0 .1-.08l-.44-2.36c.18.22.35.45.55.65a4.15 4.15 0 0 0 1.3.86 3.295 3.295 0 0 1-.59.59zm194.13 26.69c.117.698.409 1.356.85 1.91.027.123.064.243.11.36.065.127.142.247.23.36l.47.56c.1.16-.07 0 .08.25.287.473.622.916 1 1.32a6.849 6.849 0 0 0 3.92 2.11 6.998 6.998 0 0 0 4.17-.7 9.106 9.106 0 0 0 2.35-1.85l-.25.09c.32-.158.616-.36.88-.6a2.925 2.925 0 0 0 1.84-2 6.585 6.585 0 0 0 .19-3.34 5.302 5.302 0 0 0-2.74-3.34 4.995 4.995 0 0 0-4.59.15 3.342 3.342 0 0 0-1.36 1.23c-.06.14-.07.24.05.28.12.04.19 0 .31.05l.37.15c.35.12.73.52.64.62-.09.1-.28 0-.53-.15a9.113 9.113 0 0 0-1.66-.87 6.621 6.621 0 0 0-3.61-.52 2.995 2.995 0 0 0-2.13 1.32 3.94 3.94 0 0 0-.59 2.61zm5.43 3.29a4.06 4.06 0 0 1-.4.23h-.11l-.21.08-.2.05c-.2 0 0-.05.1-.08l-.44-2.36c.18.21.35.44.55.64.375.369.816.664 1.3.87a3.25 3.25 0 0 1-.59.57zm-188.28-4.97c-1.36.54-3.17-.08-4.38-1a5.021 5.021 0 0 1-1.08-.94c-.1-.18.11 0-.12.16h-.23a4.307 4.307 0 0 0-.87-1 3.847 3.847 0 0 0-2.29-.92 4.186 4.186 0 0 0-3.49 1.56c-1 1.06-.5 2.81-.24 3.37.218.903.512 1.787.88 2.64a7.189 7.189 0 0 0 4.68 4c1.807.638 3.753.773 5.63.39a10 10 0 0 0 2.44-.88 9.19 9.19 0 0 0 1.13-.8 4.203 4.203 0 0 0 1.85-2.13 3.525 3.525 0 0 0-1.06-4 2.893 2.893 0 0 0-2.85-.45zm-34.28 1.93a9.343 9.343 0 0 0-3.18-.37 9.001 9.001 0 0 0-5.76 1.89c-.461.402-.858.87-1.18 1.39a3.694 3.694 0 0 0-.53 2.59 4.707 4.707 0 0 0 3.32 3.71 3.621 3.621 0 0 0 1.78 2.48 2.696 2.696 0 0 0 3-.12c1.22-1 3.1-1.32 4.87-2.8a4.898 4.898 0 0 0 1.63-3.1 5.23 5.23 0 0 0-1-3.65 6.075 6.075 0 0 0-2.95-2.02zm-6.52 6h.07l-.06.08s-.01-.02-.01-.05v-.03zm3.25-24.8a3.38 3.38 0 0 0-1 2.44c.07 1.35-1.69 2.08-2.83 1.69-.56-.12-.94-.34-1.19-.36a.795.795 0 0 0-.35 0c-.06 0-.12 0-.18.09a9.875 9.875 0 0 0-1.09.22 4.182 4.182 0 0 0-2.2 1.69c-.4.686-.575 1.48-.5 2.27a4.287 4.287 0 0 0 1.82 3 3.66 3.66 0 0 0 1.52.56c.52.07.79.06 1.21.14.76.07 1.59.25 2.47.29a7.16 7.16 0 0 0 5.16-1.54 8.58 8.58 0 0 0 3.31-4.54 7.71 7.71 0 0 0 .23-2.86 6.721 6.721 0 0 0-.61-2.15 3.63 3.63 0 0 0-2.07-1.85 3.473 3.473 0 0 0-1.986-.096A3.472 3.472 0 0 0 276 459.84zm72.48-5.84c-1.34.65-3.13.24-4.92 0a5.076 5.076 0 0 0-4.44 1.36 13.957 13.957 0 0 0-1.55 2 18.136 18.136 0 0 1-1.81 2.17 3.376 3.376 0 0 0-.18 3.48 3.49 3.49 0 0 0 3.47 2 8.495 8.495 0 0 0 1.06-.2l.6-.06a8.396 8.396 0 0 0 1.15-.15 19.86 19.86 0 0 0 2.14-.6 20.283 20.283 0 0 0 4-1.47 14.67 14.67 0 0 0 1.81-1.17c.3-.249.575-.527.82-.83a4.199 4.199 0 0 0 1.68-2.14c1.07-3.48-2.31-5.39-3.83-4.39zm-14.69 41.37c.178-.087.372-.138.57-.15h.2c.097-.279.164-.567.2-.86a3.866 3.866 0 0 0-1.71-3.62 4.055 4.055 0 0 0-4.656.378 4.043 4.043 0 0 0-1.024 1.292c-.38.89-.38 1.44-.6 2l-.73 1.84a5.6 5.6 0 0 0 0 4.4 6.763 6.763 0 0 0 2.96 3.55 5.804 5.804 0 0 0 3.75.72 3.644 3.644 0 0 0 2.88-2.76 3.852 3.852 0 0 0 .056-1.553 3.844 3.844 0 0 0-.566-1.447 4.063 4.063 0 0 0-1.65-1.35c-.95-.37-.68-2.08.32-2.44zm10.21-68.5a14.42 14.42 0 0 0-2.15-1 3.934 3.934 0 0 0-3.24.4 4.003 4.003 0 0 0-2 3.37c-.01.547.11 1.088.35 1.58l-.07.12a.582.582 0 0 0-.07.13l-.36.44a4.31 4.31 0 0 0-1 2.61 3.443 3.443 0 0 0 .91 2.44 3.685 3.685 0 0 0 3.22 1.12 4.243 4.243 0 0 0 2.18-1c.86-.85 2.46-.79 4.16-1.57a4 4 0 0 0 2-5c-.71-1.97-2.64-2.94-3.93-3.64zm-4.42 6.94a2.624 2.624 0 0 1-.64-.41c.231.132.472.245.72.34l-.08.07zm96.17 59.34a3.117 3.117 0 0 0-2.81.83 1.597 1.597 0 0 1-1.89.26 2.483 2.483 0 0 1-1.19-1.53 6.79 6.79 0 0 1-.22-1.25.349.349 0 0 0-.1-.21l-.1-.06h-.08c-.08-.23-.17-.46-.26-.68a4.189 4.189 0 0 0-2.36-2.16 3.669 3.669 0 0 0-2.64.19 4.09 4.09 0 0 0-2.34 3.12c.002.982.146 1.959.43 2.9.187.938.465 1.856.83 2.74a7.594 7.594 0 0 0 4.3 4.32 9.002 9.002 0 0 0 6.39.5 8.001 8.001 0 0 0 3-1.67 6.011 6.011 0 0 0 1-1.36 4.28 4.28 0 0 0 .87-2.74 3.344 3.344 0 0 0-2.83-3.2zm-28.25-43.5.72-1.16a3.09 3.09 0 0 0 .37-2.3 3.003 3.003 0 0 0-2.85-2.32 4.176 4.176 0 0 0-1.24-1.19 3.394 3.394 0 0 0-2.82-.25 6.577 6.577 0 0 0-1.31.74c-.181.07-.358.15-.53.24-.639.3-1.252.654-1.83 1.06-2.18 1.41-3.74 4.58-8.14 4.53a3.248 3.248 0 0 0-1.91 3.5 3.302 3.302 0 0 0 1.11 2.12c.632.493 1.379.82 2.17.95 1.941.603 3.998.733 6 .38a14.499 14.499 0 0 0 10.26-6.3zm69.68-85.11.71-1.15a3.08 3.08 0 0 0 .38-2.31 3.001 3.001 0 0 0-2.85-2.31 4.176 4.176 0 0 0-1.24-1.19 3.408 3.408 0 0 0-2.82-.25 5.835 5.835 0 0 0-1.31.74 3.827 3.827 0 0 0-.54.24c-.638.296-1.248.651-1.82 1.06-2.18 1.4-3.75 4.57-8.14 4.53a3.246 3.246 0 0 0-1.92 3.49 3.342 3.342 0 0 0 1.12 2.13 4.7 4.7 0 0 0 2.17 1c1.941.604 3.998.735 6 .38a14.475 14.475 0 0 0 10.26-6.36z" fill="#174f78"/></svg>
