<svg width="732" height="658" fill="none" xmlns="http://www.w3.org/2000/svg"><path d="M592.28 289.48c-3.78-7.7-11-13.19-19-15.89-.65-.22-1.32-.41-2-.59a60.975 60.975 0 0 0 3.84-8.46 39.359 39.359 0 0 0-2-30.88c-8.24-16.8-28.34-27.18-46.73-26.41-21.09.88-39.71 12.08-56.47 24a120.64 120.64 0 0 0-10.46 8.29c-.42 10.12-2.21 20-8 28.79-16.88 25.6-50 34.58-79.13 32.88-25.37-1.49-51.79-8.47-74.34-20.89-5.51.3-11 .69-16.59 1.13-9.82.79-19.69 1.38-29.53.7-1.18-.08-2.34-.19-3.51-.3h-.84c-2.32-.36-4.613-.82-6.88-1.38-2.29-.57-4.55-1.23-6.77-2l-1.91-.73c-.71-.34-1.86-.87-2.05-1a65.466 65.466 0 0 1-6.39-3.71c-.58-.39-1.16-.79-1.73-1.2-.3-.22-1-.71-1.43-1.1-1.69-1.44-3.32-3-4.86-4.55-.69-.71-1.37-1.43-2-2.17l-1.5-1.8-1-1.31c-.7-1-1.39-2-2-3.09-1.3-2.1-2.42-4.28-3.55-6.48-.1-.19-.28-.6-.43-.94-.33-.88-.67-1.76-1-2.65a61.57 61.57 0 0 1-1.79-6.41c-.22-1-.37-2-.6-3 .74 3.3-.11-1.28-.15-1.77a64.616 64.616 0 0 1-.13-7c0-1 .09-2.07.17-3.1.06-.74.21-1.78.23-2 .4-2.2.87-4.38 1.47-6.54s1.36-4.44 2.19-6.61l.18-.34c.57-1.16 1.12-2.33 1.74-3.46 1.23-2.28 2.63-4.44 4.07-6.59.11-.16.44-.59.68-.9.85-1 1.72-2 2.61-3 5.86-6.35 6.75-17.15 0-23.34-6.37-5.85-17.07-6.77-23.33 0a86.868 86.868 0 0 0-11.61 15.9c-6.44-4-16-5.53-21.39 1.38-11.92 15.25-14.64 33.49-10.17 52.19a90.089 90.089 0 0 0 23.61 41.64c3.71 13.63 9.26 26.7 19 37.14 1.76 1.88 3.68 3.61 5.44 5.5.16.16 3 3.27 1.73 1.95l-.48-.51c.14.14.61 1.07.76 1.29a30.663 30.663 0 0 1 1 4.14c-.5-2.69.09 1 .15 1.6.35 3.9.56 7.81.71 11.72.55 14.11.66 28.15 3.07 42.12A84.097 84.097 0 0 0 208 406.8c1.6 4 3.37 7.85 5.23 11.7l1.5 3.08c.21.45 2 4.45 2 4.32a63.155 63.155 0 0 1 2.37 7.53c.16.63.29 1 .37 1.25.08.25 0 .71 0 1.41v4.49c0 .42-.21 2.76-.16 2.68-.22 1.54-.55 3.08-.86 4.6-.74 3.6-1.65 7.16-2.53 10.73-3.3 13.42-5.76 27.42-2.36 41.1 4.13 16.6 17.14 26.39 31.09 34.7a100.562 100.562 0 0 0 19.26 9.18c.21-.13.43-.25.63-.39 0 0 .13-.14.3-.29a8.97 8.97 0 0 0 1.34-1.5c.3-.49.58-1 .83-1.49l.06-.1v-.12a21.874 21.874 0 0 0 1.18-7.95c-5.62-5-10.54-10.66-13.66-17.4-5.51-11.89-4.28-24.5 1.66-36 7.12-13.77 20.34-22.75 28.42-35.75 3.8-6.12 7.33-13.1 9-20.15 1-4.37 1.12-8.78 2.78-13 4.54-11.61 19.43-13.94 28.29-5.86a43.644 43.644 0 0 1 7.45 9.85 272.27 272.27 0 0 0 49.17 12.18c3 .43 6 1 9 1.32.76 3.41 1.69 6.78 2.77 10.08 4.27 13.19 9.93 26 15.07 38.85 4.78 12 9.11 24.38 15.51 35.61 6.26 11 16 23.37 28.52 27.38 7.9 2.52 16.89 1.25 22.8-4.93a20.488 20.488 0 0 0 5.45-14c0-4.72-2.2-9-3.19-13.51-.09-.42-.49-2.77-.51-2.66-.16-1.55-.23-3.13-.29-4.68-.11-3.07-.05-6.13.06-9.19 0-.82.07-1.65.1-2.47a9.279 9.279 0 0 1-.91-6.16c.1-.55.23-1.08.36-1.6.53-2.3 1-4.62 1.48-6.94.14-1.47.29-2.93.47-4.38.05-.26.1-.56.17-.93.31-1.74.64-3.48 1.05-5.2.17-.7.37-1.38.57-2.06-.85-5.81-2.26-11.54-2.7-17.43-1-14 1.93-26.93 10.86-38 4-5 8.17-9.83 10.89-15.68 3.07-6.65 3.26-14.31 5.79-21.17a39.464 39.464 0 0 1 11.55-16.26c.4-1 2.5-6 1.32-3.54.09-.2.56-1.13.94-1.86l1.11-.27c1-.09 3.35-.35 3.73-.39 2.14-.193 4.267-.44 6.38-.74a25.41 25.41 0 0 1 3.14-.47 124.497 124.497 0 0 0 37-12c6.34-3.23 12.94-7.07 17.71-12.42 7.49-8.52 9.82-20.04 4.72-30.42zm-79.23-1.78 1.6-2c0 .57.07 1.15.1 1.73-.57.1-1.13.19-1.7.27zm35.32 18.37c.159-.854.236-1.721.23-2.59 1.47.19 3 .32 4.45.42-1.6.82-3.05 1.52-4.68 2.17z" fill="#fff"/><path d="M561.28 287.3c-.34 1.35-.83 1.08 0 0zM447.29 521.47c.36 1.31-.15 1.59 0 0zm71.64-176.22.06-.08s.01.05-.06.08z" fill="#fff"/><path d="M375.94 422.78a22.56 22.56 0 0 0-3.9-1.54c-5.36-1.58-10.86-1.09-15.09-2.2a10.103 10.103 0 0 1-5.11-3.3 29.398 29.398 0 0 0-2.79-3.06 9.172 9.172 0 0 0-4.9-2.2 16.681 16.681 0 0 0-2.28 0 8.749 8.749 0 0 1-1.55-.12 24.31 24.31 0 0 1-3.4-.43 4.817 4.817 0 0 1-1.11-.43l-.19-.12-.18-.52a4.42 4.42 0 0 0-.57-1 4.396 4.396 0 0 0-.55-.63l-.37-.3-.14-.09a11.832 11.832 0 0 0-2.19-1.23 11.684 11.684 0 0 0-5-.92 33.364 33.364 0 0 1-3.55 0 6.6 6.6 0 0 1-1.36-.23 1.878 1.878 0 0 1-.73-.31 8.571 8.571 0 0 1-1.7-2 18.638 18.638 0 0 0-2.93-3.53 8.444 8.444 0 0 0-5.66-2.11 9.572 9.572 0 0 0-5.47 1.83 12.48 12.48 0 0 0-3.47 3.9 13.35 13.35 0 0 0-1.45 4.84 12.922 12.922 0 0 1-.73 3.07c-.2.57-.5 1.17-.77 1.76a4.275 4.275 0 0 0-1.16-.52 4.323 4.323 0 0 0-3.25.52c-1.41 1-1.71 2-2.66 2.74-.414.342-.88.616-1.38.81-.246.109-.5.2-.76.27a4.848 4.848 0 0 0-1 .31 3.226 3.226 0 0 0-1.83 2.69 4.32 4.32 0 0 0 1.06 3.25 4.407 4.407 0 0 0 3.79 1.38 16.614 16.614 0 0 0 1.8-.45c.23.227.489.422.77.58-.09.58-.18 1.16-.21 1.72-.24 2.91-.07 5.51-.21 7.72a9.885 9.885 0 0 1-1.62 5.36 11.3 11.3 0 0 1-1.92 2.13 36.08 36.08 0 0 0-3.21 2.79 9.763 9.763 0 0 0-1.56 2.4 1.21 1.21 0 0 0-.18-.13 5.463 5.463 0 0 0-4.23-.4 5.353 5.353 0 0 0-2.48 1.58c-.18.19.11.38 0 .54-.11.16-.24.14-.3 0s-.07-.05 0-.39a3.564 3.564 0 0 0 0-1 3.003 3.003 0 0 0-1-1.9 3.591 3.591 0 0 0-4.49-.32 5.213 5.213 0 0 0-1.56 2.05 6.003 6.003 0 0 0-.59 1.93 7.174 7.174 0 0 0 .74 4.09 8.087 8.087 0 0 0 2.9 3.31 7.22 7.22 0 0 0 4.52 1.13 7.89 7.89 0 0 0 2.57-.65c.227.198.479.367.75.5.142.058.289.102.44.13-.13.12-.23.25-.36.36-.67.58-1.71 1.22-3 2.18a12.363 12.363 0 0 0-3.52 4.13c-1.89 3.61-1.16 7.33-1.45 8.78a2.77 2.77 0 0 1-.61 1.61 9.278 9.278 0 0 1-.9 1l-1.29 1.16-.43.39a3.86 3.86 0 0 0-2.68-1.5c-1.85-.18-3.5.92-4.74 1.42-.67.29-1.24.45-2 .71a3.389 3.389 0 0 0-2.14 2.61 4.111 4.111 0 0 0 1.13 3.69 4.44 4.44 0 0 0 3.91 1.13s-.05 0-.07-.05a1.307 1.307 0 0 1-.22-.57 1.696 1.696 0 0 1 0-.39v-.09s.05.17.08.24l.19.58c0 .09.11.17.15.26.172-.019.342-.049.51-.09l.56-.19-.12.12-.25.17c-.119.073-.247.13-.38.17a.496.496 0 0 1-.21 0 4.146 4.146 0 0 0 2.06 1.83l-.52 2.62-1.15.75c.37-.38.13-.1-.39.19a7.687 7.687 0 0 0-2.19 2 11.003 11.003 0 0 0-1.81 4.48 24.249 24.249 0 0 0 .11 7.6 33.155 33.155 0 0 0 1.67 7 15.6 15.6 0 0 0 4.68 6.77 9.19 9.19 0 0 0 2.2 1.35c.652.255 1.32.465 2 .63.376.078.746.178 1.11.3l.13.06c.118.073.231.154.34.24.92.68 1.8 2.43 3.31 4.55a11.99 11.99 0 0 0 3.11 3 15.185 15.185 0 0 0 3.65 1.7l1.69.5c.57.14.94.28 1.81.46l1.6.26.4.08a19.029 19.029 0 0 1 2.58 3.54c.051.085.091.176.12.27a2.672 2.672 0 0 1-.31 0h-.21l-.26.05-3 .55h-.17c-6.85 1.1-13.57 2.41-20.31 2.72-3.39.12-6.74.19-9.82-.72a23.917 23.917 0 0 1-8.61-4.7c-2.65-2.09-5.08-4.56-7.61-6.93a35.923 35.923 0 0 0-4-3.39c-1.46-1-3-1.85-4.5-2.69-3-1.65-6.07-3.33-8.13-6a8.841 8.841 0 0 1-1.12-1.91c.408-.415.728-.908.94-1.45.184-.785.421-1.557.71-2.31a7.176 7.176 0 0 0-.12-1.52l-.23-1.78c-.14-1.4-.22-2.78-.26-4.16.028.136.065.269.11.4a12.23 12.23 0 0 0 1.64 2.41 11.394 11.394 0 0 0 4.29 3.61 5.774 5.774 0 0 0 3.5.24 6.363 6.363 0 0 0 3.26-1.91 7.864 7.864 0 0 0 2-6.52 7.762 7.762 0 0 0-1.1-2.93 5.868 5.868 0 0 0-.48-.64l-.74-.76a3.881 3.881 0 0 0-2.64-1.16 3.44 3.44 0 0 0-3.35 2.26 3.202 3.202 0 0 0-.19.77 4.431 4.431 0 0 0-4.2-.07 4.081 4.081 0 0 0-2 2.29c.014-2.521.289-5.035.82-7.5a63.2 63.2 0 0 1 2.33-6.57c.51-1.369.895-2.781 1.15-4.22.314-1.773.19-3.596-.36-5.31-.51-1.61-.93-2.49-1.14-3.38a10.019 10.019 0 0 1-.28-2.57c0-2.11.4-4.52.48-7.18.11-3.08-.23-4.46.35-6.57.26-1.1.68-2.46.93-3.77a8.336 8.336 0 0 0-.16-4.72 26.527 26.527 0 0 1-1.29-3.35 5.74 5.74 0 0 1 .33-3.21c.18-.56.48-1.08.72-1.63a2.183 2.183 0 0 0-.09-2.32 2 2 0 0 0-.57-.51 3.644 3.644 0 0 0 .48-3.57 3.821 3.821 0 0 0-1.55-1.71l-.81-.52a10.56 10.56 0 0 1-1.34-1.15 10.2 10.2 0 0 1-2.56-6.45 19.781 19.781 0 0 1-.07-3.73c.06-.5.19-1 .37-1.83.208-.925.292-1.873.25-2.82a11.33 11.33 0 0 0-1.57-5.37 19.03 19.03 0 0 1-.91-1.71c-.21-.51-.47-1.17-.68-1.76a46.283 46.283 0 0 1-1.8-7.83c-.46-2.78-.87-5.72-1.63-8.74a34.059 34.059 0 0 0-1.45-4.53 8.473 8.473 0 0 1-.78-3.07 23.27 23.27 0 0 1 .3-3.69v-.21c.85 1.18 1.47 2.31 2.56 3.62 2.31 3 7.68 3.2 10.72.36a6.82 6.82 0 0 0 1.69-2.46l.33-.94c.112-.448.163-.908.15-1.37a3.618 3.618 0 0 0-4.59-3.44 3.336 3.336 0 0 0-2 1.63 1.293 1.293 0 0 1-1.49.63 1.243 1.243 0 0 1-.88-1.22c.024-.305.135-.596.32-.84 0-.06.06 0 0-.15a4.603 4.603 0 0 0-.83-1 4.123 4.123 0 0 0-2.62-1.09 3.996 3.996 0 0 0-3.22 1.51c0-.18-.06-.37-.1-.53-.53-2.14-1.34-3.47-1.53-4.29a15.609 15.609 0 0 1-.34-3.24c0-4.78 1.58-10.07 3.64-15.19 2.06-5.12 4.44-10.32 6.6-15.95l.2-.53c.091-.239.167-.482.23-.73.071-.329.111-.664.12-1a5.296 5.296 0 0 0-1-3.14 5.482 5.482 0 0 0-2.35-2 5.708 5.708 0 0 0-2.67-.4 8.324 8.324 0 0 1-3-.28c-2-.51-4.06-2-6.4-3.68a39.138 39.138 0 0 0-5.52-3.51c.19.06.37.13.56.18 2.136.708 4.439.733 6.59.07a12.724 12.724 0 0 0 5.92-3.28 8.864 8.864 0 0 0 2.77-6.26 3.722 3.722 0 0 0-.57-2.83 3.55 3.55 0 0 0-1.91-1.31 2.561 2.561 0 0 0-3.14 1.33c-.7 1.68-2.77 2.47-4.49 2.57a8.374 8.374 0 0 0-4.1 1 21.36 21.36 0 0 1-2.11 1.13 6.063 6.063 0 0 1-.6.22c-.407.05-.806.147-1.19.29a2.91 2.91 0 0 0-1.74 1.87 3.58 3.58 0 0 0 1.1 3.75c-2.69-1-5.38-1.73-7.36-2.88-2.26-1.19-4.21-3.29-7.21-4.9a8.734 8.734 0 0 0-4.88-.91c.06-.52.13-1 .17-1.54.13-2 .34-4.12-.61-6.2a2.637 2.637 0 0 0-1.25-1.26 9.817 9.817 0 0 0-1.46-.58l-2.86-.79c-.06 0-.29-.18-.1 0a2.968 2.968 0 0 1-.2-.34 2.412 2.412 0 0 0-.63-.64 2.497 2.497 0 0 0-1.71-.38 2.227 2.227 0 0 0-1.52.88 1.791 1.791 0 0 0-.12 1.77 4.88 4.88 0 0 0 1.23 1.83c.243.303.526.572.84.8.374.152.776.227 1.18.22.309-.002.617.028.92.09.11 0 .34.33.5.56.326.552.533 1.164.61 1.8.41 2.68-.37 5.27-.72 8.21a2.248 2.248 0 0 0 1.71 2.15c.447.137.92.164 1.38.08.38-.103.753-.227 1.12-.37a4.62 4.62 0 0 1 3.39-.16c2 .84 2.86 3.66 5.33 5.92 2.76 2.09 5.6 2.63 8 3.67a14.431 14.431 0 0 1 3.21 1.74c.93.72 2 1.66 3 2.55a39.989 39.989 0 0 0 7 5.33c.824.465 1.683.863 2.57 1.19a3151.512 3151.512 0 0 0-4 10.76c-.93 2.8-1.9 5.09-3 7.93a30.334 30.334 0 0 0-2.27 9.19c-.038.909.009 1.82.14 2.72.18.796.428 1.576.74 2.33.082.219.136.448.16.68l.17 1.08.35 2.14a65.911 65.911 0 0 1 1 8.38 12.31 12.31 0 0 0 1.1 4.76c.65 1.44 1.38 2.6 1.85 3.85a34.13 34.13 0 0 1 2 8.07 59.793 59.793 0 0 0 1.52 8.65c.84 2.89 2.1 5.52 2.94 8.15 2 5.19.41 11.07 3.11 17.18a12.856 12.856 0 0 0 2.94 3.87 19.865 19.865 0 0 0 3.95 2.77c.213.098.438.165.67.2a16.03 16.03 0 0 0-1.63 4.15 1.992 1.992 0 0 0-1 1.16c-.82 2.16-2.9 3.47-4.94 4.66-2.04 1.19-4.47 2.71-5.34 5.66a6.07 6.07 0 0 0 .59 4.62c.245.417.423.869.53 1.34 0 .25-.13 0-.21.15-.08.15-1.07 1-2 1.84a9.176 9.176 0 0 0-2.78 4.21 9.061 9.061 0 0 0 .31 5.24c.52 1.47 1.15 2.54 1.42 3.26.44 1 .28 2.67-.43 4.74-.71 2.07-1.7 4.52-1.88 7.51a9.41 9.41 0 0 0 .82 4.49 4.995 4.995 0 0 0 1.53 2.11c.366.239.701.521 1 .84l.33.41a.576.576 0 0 0 .32.22 2.74 2.74 0 0 1 1.88 2.89l-1.31.85a.807.807 0 0 0-.32.42v.05c-.68 2.15-1.42 4.46-.94 7a7.611 7.611 0 0 0 1.69 3.47c.879.91 1.891 1.682 3 2.29a19.322 19.322 0 0 0 3.26 1.41c.38.15.76.25 1.14.36a12.56 12.56 0 0 0 2.59 5.57c1.83 2.12 4.39 3.28 6.78 4.37 5.06 1.83 8.57 5.77 12.19 9.68 3.62 3.91 7.75 7.67 12.93 9.73 5.18 2.06 10.75 2.66 16.13 2.61 2.67 0 5.48-.22 8-.31 2.52-.09 5.29 0 8-.09a39.187 39.187 0 0 0 8.37-1.13c2.73-.77 6.15-2.09 8-5.74a9.522 9.522 0 0 0-1.89-10.35 17.022 17.022 0 0 0-3.72-3 14.817 14.817 0 0 0-4.51-1.82 25.155 25.155 0 0 1-3.38-1 11.085 11.085 0 0 1-2.56-1.56 9.506 9.506 0 0 1-1.9-2.34 27.419 27.419 0 0 0-2.55-3.64 12.777 12.777 0 0 0-1.89-1.83 13.999 13.999 0 0 0-2.18-1.34c-1.37-.71-2.51-1.15-3.27-1.64a3.611 3.611 0 0 1-1.45-1.55 12.234 12.234 0 0 1-.94-3 8.998 8.998 0 0 1 .64-5.73c.188-.397.423-.769.7-1.11a.558.558 0 0 0 .1-.14l.16-.07a7.581 7.581 0 0 0 2.8-1.64 6.775 6.775 0 0 0 1.78-3.15c.18-.812.283-1.639.31-2.47 0-.29 0-.43.08-.68l.18-.94c.21-1.171.497-2.327.86-3.46a12.224 12.224 0 0 1 1.36-2.84c.78-1.1.65-.92 2.37-2.31a6.522 6.522 0 0 0 1.88-2.86c.198-.75.326-1.516.38-2.29v-.16l.19-.78c.08-.327.117-.663.11-1a3.604 3.604 0 0 0-.22-1.41 3.494 3.494 0 0 0-1.05-1.53 3.076 3.076 0 0 0-.29-.19l.31-.51c.33-.51.66-1 1-1.54l.55-.78a2.01 2.01 0 0 1 .35-.43c.61-.61 1.75-1.22 3.06-2.23a30.264 30.264 0 0 0 3.16-3 11.991 11.991 0 0 0 3.37-8.66c-2.54-3.72 6.16-6.71 6.63-13.14.56-3 0-5.8-.11-8.31a17.384 17.384 0 0 1 .13-3.69 10.486 10.486 0 0 1 1.19-3.32c1.14-2.23 2.84-4.45 3.67-7.3.49-2.387.841-4.802 1.05-7.23l4.43-.76.13.17.54.77a7.803 7.803 0 0 0 1.47 1.72 8.758 8.758 0 0 0 4.09 1.43c.684.08 1.371.124 2.06.13a14.146 14.146 0 0 0 2.07-.28 4.058 4.058 0 0 1 3 .28c.998.566 1.9 1.289 2.67 2.14.951.944 2.004 1.78 3.14 2.49a8.445 8.445 0 0 0 4 1.65 23.15 23.15 0 0 0 4 .16c2.53-.1 4.6.27 6.28 1.77a32.028 32.028 0 0 1 2.53 2.68 10.118 10.118 0 0 0 3.52 2.53c5.23 2.35 10.75 1.62 15.41 2.38a17.82 17.82 0 0 1 3.36.83 15.37 15.37 0 0 1 1.54.66 3.788 3.788 0 0 0 1.858.409 3.79 3.79 0 0 0 1.822-.549 4 4 0 0 0 1.87-3.13 3.604 3.604 0 0 0-2.12-3.16zm-145.52 76c.197-.112.425-.158.65-.13a1.11 1.11 0 0 1-.33.73c-.22.26-.5.19-.56-.11a.45.45 0 0 1 .24-.45v-.04zm-11.6-46.07c-.16-.78-.07-1.39-.41-1.05-.06-.08.5-.3 1.08-.6-.23.59-.41 1.15-.67 1.69v-.04zm-.38 26c.06.525.09 1.052.09 1.58a5.66 5.66 0 0 1-.17 1.42c-.22 1.08-.69 2.35-.92 3.77-.12.79-.2 1.58-.3 2.36a2.974 2.974 0 0 1-.26-.3 4.75 4.75 0 0 1-.43-3.37c.343-1.825.869-3.61 1.57-5.33l.29-.76c.04.28.1.48.13.7v-.07zm73.9-59.11a.855.855 0 0 0 0 .16.544.544 0 0 1-.07-.13l.07-.03zm2.23-5.22-1.12.72-.61.29c.195-.201.409-.382.64-.54a2.922 2.922 0 0 1 1.09-.4v-.07zm-1.45.72-.34.2c.084-.068.174-.129.27-.18.11.01.08.04.07.05v-.07zM280.05 452l.3-.06a3.752 3.752 0 0 0-.09 1.24c0-.05-.06-.08-.08-.13a2.36 2.36 0 0 1-.13-1.05z" fill="#174f78"/><path d="M604.19 294.39a50.13 50.13 0 0 0-1.91-7.77 61.152 61.152 0 0 0-2.9-7.3 13.31 13.31 0 0 0-2.68-4.06 14.462 14.462 0 0 0-3.9-2.88c-2.9-1.45-4.77-.36-7.13-.83-2.36-.47-7.12.21-9.24-.41-2.41-.65-6.62-6-6.58-6.08.318-1.148.434-2.342.34-3.53a11.594 11.594 0 0 0 4-4.71 29.742 29.742 0 0 0 1.73-5c.36-1.25 3.25-2.48 3.83-4.09a17.88 17.88 0 0 0 1.2-5.81 11.21 11.21 0 0 0-2.11-6.6 13.142 13.142 0 0 0-4.92-4.25 20.311 20.311 0 0 1-3.52-1.77 4.179 4.179 0 0 1-.89-.93 1.568 1.568 0 0 1-.19-.28c.002-.5-.049-1-.15-1.49a5.866 5.866 0 0 0-.68-1.73 5.709 5.709 0 0 0-1.2-1.37 12.224 12.224 0 0 0-2.84-1.74l-.46-.22a3.367 3.367 0 0 1 0-.55c.448-.608.843-1.254 1.18-1.93a6.903 6.903 0 0 0 .3-4.92 8.056 8.056 0 0 0-2.2-3.67 9.937 9.937 0 0 0-6.87-2.42c-.96-.005-1.919.059-2.87.19a8.573 8.573 0 0 0-2.13.55v-.14a7.583 7.583 0 0 0-1-2.48 8.1 8.1 0 0 0-1.69-1.9 7.302 7.302 0 0 0-2.38-1.32 9.518 9.518 0 0 0-4.3-.23l-1.4.17a6.274 6.274 0 0 0-2.83 1.11l-.7.5-.37.08a7.643 7.643 0 0 1-1.78.12 2.744 2.744 0 0 1-1.13-.34 1.744 1.744 0 0 1-.42-.32c-.08-.08-.08-.1-.14-.14a7.1 7.1 0 0 0-1.7-1.52 2.423 2.423 0 0 0-.68-.28h-.11a21.007 21.007 0 0 0-9.88-.36 14.767 14.767 0 0 0-3.75 1.51c-.35-.414-.728-.805-1.13-1.17a7.829 7.829 0 0 0-4.87-1.88 8.26 8.26 0 0 0-4.9 1.5 8.623 8.623 0 0 0-2.9 3.84 20.399 20.399 0 0 0-1 3.63 8.282 8.282 0 0 0-2.81-.8 8.548 8.548 0 0 0-5.91 1.62c-.711.57-1.38 1.192-2 1.86a4.998 4.998 0 0 0-1.19 2.54l-.24.12a1.632 1.632 0 0 0-.41-.32 3.92 3.92 0 0 0-1-.43l-.45-.13c-.3-.11-.6-.23-.93-.38a12.585 12.585 0 0 0-2.54-1 4.435 4.435 0 0 0-3.43.7 10.144 10.144 0 0 0-2.09 1.91 5 5 0 0 0-1.21 3 4.473 4.473 0 0 1-.24 1.85l-.06.14c-.05.148-.071.304-.06.46a5.63 5.63 0 0 1-2.82 5.11l-1.36-.26-.81.13c.45-.19.39-.06.27-.11a3.609 3.609 0 0 0-.72 0c-1.05.25-1 .55-1.32.72a8.269 8.269 0 0 0-1.43 1.46 10.754 10.754 0 0 0-1.77 3.55c-.74 2.43-1 4.82-2.11 6.73a2.575 2.575 0 0 1-2.26 1.64c-1.09.13-2.34.07-3.61.23s-4.86-1.19-5.92-.37a13.41 13.41 0 0 0-2.83 4c-.55 1.17-.5 3.26-.71 4.54-.21 1.28.86 3.34.72 4.45-.14 1.11 1.07 1.37.53 2.34a20.99 20.99 0 0 1-2.09 2.86 13.822 13.822 0 0 0-2.09 3.1 5.996 5.996 0 0 0-.06 3.82c0 .09.06.18.08.26a3.564 3.564 0 0 0-.79 1.67 3.412 3.412 0 0 0 .26 2l.42.94c.44.979.697 2.029.76 3.1a18.134 18.134 0 0 1-.77 5.22c-.39.11-.71.23-1 .3-.71.26-1.68-.63-2.62-1.4a2.545 2.545 0 0 0-1.3-.63 3.438 3.438 0 0 0-1.466.537c-.44.29-.808.678-1.074 1.133a3.238 3.238 0 0 0-.28.71 20.491 20.491 0 0 0-7.76.24 32.78 32.78 0 0 0-5.82 2.15 43.793 43.793 0 0 1-5.75 1.87 71.37 71.37 0 0 1-11.83 2.2 32.424 32.424 0 0 1-5.82.11 16.514 16.514 0 0 1-2.66-.44l-3-.82c-4-1.08-8.67-1.84-13.18-.95a44.701 44.701 0 0 0-6.27 1.69 26.406 26.406 0 0 1-5.32 1.24c-3.45.35-6-.52-9.6-2.77a22.011 22.011 0 0 0-6.57-2.48c-2.26-.42-4.25-.65-6.38-.87-8.331-.604-16.7-.436-25 .5-8.47 1.2-16 4.78-23.88 3.8-3.89-.45-7.78-1.72-11.85-2.62a27.497 27.497 0 0 0-6.32-.73 32.314 32.314 0 0 0-6.27.94 89.392 89.392 0 0 0-12.11 3 29.791 29.791 0 0 0-5.84 2.79l-1.36.9a3.84 3.84 0 0 0-1.54 2.43 4.003 4.003 0 0 0 .57 2.78 3.48 3.48 0 0 0 2.82 1.69 4.483 4.483 0 0 0 2.58-1c.4-.25.77-.52 1.19-.73a20.747 20.747 0 0 1 2.51-1.23 29.601 29.601 0 0 1 5.43-1.6c3.78-.73 7.76-1 11.88-1.42 5-.63 10.17 1.14 16 2.42a3.581 3.581 0 0 0-1.1 1.9 4.631 4.631 0 0 0 2.2 4.89c.824.457 1.76.672 2.7.62l-.44 1c-.44.88-.8 1.86-1.3 2.95-.252.57-.532 1.128-.84 1.67-.05.21-.65.72-.87 1.29a3.003 3.003 0 0 0 1.28 3.95 2.2 2.2 0 0 0 2.37-.12 33.592 33.592 0 0 1 4.35-2.41 13.077 13.077 0 0 0 4.43-3.24 9.119 9.119 0 0 0 2-5.21 8.56 8.56 0 0 0-1.86-6c-.13-.13-.27-.23-.4-.35a73.042 73.042 0 0 0 8.25-1.51 46.91 46.91 0 0 1 11.23-1.63c3 .09 6.05.06 9 .09-.294.08-.572.212-.82.39a4.227 4.227 0 0 0-1.62 3.9 4.68 4.68 0 0 0 2.72 3.59 3.864 3.864 0 0 0 .51 3.42c1.81 2.4 4.8 1.62 5.45.38.72-1 2.33-1.65 3.54-3.28a4.243 4.243 0 0 0-.31-5.38c-1.36-1.49-3.46-1.72-4.81-2.12-.7-.22-1.37-.47-2.06-.72a2.182 2.182 0 0 0-.33-.15 49.153 49.153 0 0 1 12 1.41 18.295 18.295 0 0 1 4.68 1.91 49.324 49.324 0 0 0 5.8 3.25 15.106 15.106 0 0 0 7.85 1.12 24.74 24.74 0 0 0 6.77-2c4-1.79 7-3.38 10.43-3.56 3.43-.18 7 .91 11.29 1.83 4.85 1 9.25-.5 13.09-1.85 1.95-.69 3.83-1.42 5.72-2a39.074 39.074 0 0 0 6-1.86c3.86-1.69 7.26-4 11.18-4.58a13.388 13.388 0 0 1 5.72.47 5.2 5.2 0 0 0 2.14 1c.424.255.869.472 1.33.65-.096.91-.132 1.825-.11 2.74v.44h-.19c-.701.259-1.372.595-2 1l-.34.2v-.05a3.686 3.686 0 0 0-1.306-.966 3.687 3.687 0 0 0-1.594-.314 3.518 3.518 0 0 0-3.19 1.88 4.736 4.736 0 0 0-.39 1 5.764 5.764 0 0 0-.19.84 4.737 4.737 0 0 0 .06 1.83 5.87 5.87 0 0 0 2 3.16c.471.394.988.73 1.54 1a8.505 8.505 0 0 0 2 .54 10.17 10.17 0 0 0 1.75.16c-.46.77-1 1.56-1.54 2.37a50.145 50.145 0 0 0-7.58 13.94l-.57.13c-.88.29-1.58-1-1.44-2v-.68c0-.19.09-.1-.16-.34a5.075 5.075 0 0 0-.69-.53 3.71 3.71 0 0 0-4.05.32 3.473 3.473 0 0 0-1.22 2.9c.065.82.3 1.617.69 2.34a7.415 7.415 0 0 0 1.19 1.68c.33.41.63.94 1 1.46a5.145 5.145 0 0 0 3.14 2.26c.14 0 .28 0 .42.08-.4 3.268-.4 6.572 0 9.84a46.011 46.011 0 0 0 5.2 16.06 28.992 28.992 0 0 0 5.38 7.1 18 18 0 0 0 8.55 4.61c1.92.35 2.85.34 4.11.55 1.083.151 2.153.385 3.2.7a24.666 24.666 0 0 1 6 3.15 19 19 0 0 0 9 3.34 69.203 69.203 0 0 0 8.37-.32l7.75-.73a47.225 47.225 0 0 0 8.32-1 28.17 28.17 0 0 0 5.66-2 64.736 64.736 0 0 1-2.29 16.76 77.6 77.6 0 0 1-3.38 9.61l-1 2.41c-.4.93-.71 1.84-1 2.74l-1.55 5.09a22.159 22.159 0 0 1-1.75 4.23 16.971 16.971 0 0 1-2.75 3.43c-1.15 1.18-2.5 2.43-3.83 4a24.27 24.27 0 0 0-3.48 5.21 12.454 12.454 0 0 0-1.11 3.66 23.1 23.1 0 0 0 0 2.93c0 .07 0 .05 0 0l-.08.3a2.826 2.826 0 0 1-.24.58c-.329.575-.707 1.12-1.13 1.63l-.86 1.15-.78 1.11a16.966 16.966 0 0 0-1.79 2.84 11.91 11.91 0 0 0-.66 1.85l-.11.43a8.03 8.03 0 0 0-.14.83c-.024.41-.024.82 0 1.23.07 1.07.17 1.76.22 2.22a3.699 3.699 0 0 1-.92.49 21.054 21.054 0 0 0-2.94 1.45 19.129 19.129 0 0 0-2.6 2.17 13.376 13.376 0 0 0-3.55 6.19 24.178 24.178 0 0 0-.56 6.11A34.862 34.862 0 0 1 466 459c-.14 1.61-.41 3.26-.72 5a47.953 47.953 0 0 0-1 7.78c-1-4.35-1.56-8.82-2.6-13.32a55.197 55.197 0 0 0-3.35-9.26 11.88 11.88 0 0 1-.9-3.55 15.479 15.479 0 0 1 .33-3.81c.08-.86.88-2.18 1.65-4.09a9.189 9.189 0 0 0 .62-3.27 7.695 7.695 0 0 0-.8-3.17c-.86-1.73-1.18-2.27-.91-3.52.1-.46.3-.71.94-1.14a25.657 25.657 0 0 0 2.13-1.5 14.08 14.08 0 0 0 5.65-11.5V413a3.458 3.458 0 0 0-.21-1 3.203 3.203 0 0 0-1.37-1.68 3.555 3.555 0 0 0-4.25.37 3.302 3.302 0 0 0-1 2.37l-.09 1.14c-.37 2.82-1.75 3.18-5 4.7a10.312 10.312 0 0 0-5 4.27 7.855 7.855 0 0 0-.74 1.71 5.888 5.888 0 0 0-.32 2.31 11.22 11.22 0 0 0 .86 3.35c.171.453.243.937.21 1.42.036.607.019 1.216-.05 1.82a6.285 6.285 0 0 1-1.31 2.93 19.789 19.789 0 0 0-2.4 5.27c-.09.31-.16.66-.23 1a7.709 7.709 0 0 0-.65-3.07 7.878 7.878 0 0 0-1.36-2.05c-.79-1.28-3.23-2.26-4.65-1.54a3.693 3.693 0 0 0-2.29 2.73 3.429 3.429 0 0 0 .49 2.49c.72 1 .05 2.62-.86 3.55-.91.93-1.22 1.4-1.07 2.29a4.672 4.672 0 0 0 0 2.23 4.004 4.004 0 0 0 1.13 1.8 4.628 4.628 0 0 0 3.11 1.1 3.19 3.19 0 0 0 2.67-1.61c.39-.57.93-1.1 1.42-1.72a7.817 7.817 0 0 0 1.73-3.14c-.004.922.113 1.84.35 2.73a21.517 21.517 0 0 0 2.49 5.3l2.41 4c1.47 2.67 3 5.42 4.51 8.28 1.51 2.86 2.95 5.8 4.27 8.8a49.519 49.519 0 0 0 2.13 4.63c.066.056.136.106.21.15a3.596 3.596 0 0 0-1.7 2.74c.023.86.171 1.713.44 2.53l.86 3.6c.58 2.44 1.16 4.94 2 7.45a31.283 31.283 0 0 0 2.9 6.33 3.828 3.828 0 0 0-2.91-.49 4.075 4.075 0 0 0-1.93 1.15 1.1 1.1 0 0 1-1.39.11 1.649 1.649 0 0 1-.71-1.36 1.407 1.407 0 0 1 .11-.59.758.758 0 0 1 .09-.18v-.05a2.483 2.483 0 0 0-.33-.35 3.91 3.91 0 0 0-5.68 5.35c.66.73 1 1 1.49 1.5s.89 1.06 1.44 1.61a5.87 5.87 0 0 0 4.35 1.9 7.121 7.121 0 0 0 4.79-1.38 6.31 6.31 0 0 0 .91-.88c.09-.1.37-.43.6-.75.243-.342.438-.715.58-1.11a3.644 3.644 0 0 0 .15-1.93c1.12 1.65 2.27 3.24 3.43 4.72a119.69 119.69 0 0 1 8.43 11.86 24.99 24.99 0 0 1 2.55 6.06c.236.681.302 1.409.19 2.12-.11.36-.2.5-.74.87-1.086.564-2.265.93-3.48 1.08.067-.227.1-.463.1-.7a17.657 17.657 0 0 0-.38-6 6.212 6.212 0 0 0-3.28-3.81 1.092 1.092 0 0 0-1.25.09c-.07 0-.24.06-.26 0a.504.504 0 0 1-.09-.11l.18-.54a3.123 3.123 0 0 0-.18-2.29 3.652 3.652 0 0 0-3.25-1.87 3.534 3.534 0 0 0-2 .68 7.883 7.883 0 0 0-1.37 1.3 6.284 6.284 0 0 0-1.4 3.59 8.14 8.14 0 0 0 .71 3.62 9.584 9.584 0 0 0 2 3.08c.595.618 1.244 1.18 1.94 1.68.371.301.786.544 1.23.72.153-.03.297-.095.42-.19a.661.661 0 0 1 .31-.06c.102.498.281.977.53 1.42v.05a13.94 13.94 0 0 1-2.73-.17c-4.06-.58-8.37-3.36-14.61-4.19-2.78-.22-5.27-.27-6.13-.75a10.371 10.371 0 0 1-2.24-1.35 2.356 2.356 0 0 1-.79-1.19 16.727 16.727 0 0 1 0-4 3.25 3.25 0 0 0 1.12-1c.68-1.27 2.28-2.1 3.65-3.48a4.843 4.843 0 0 0 1.24-5c-.55-1.76-2.06-3.11-2.81-4.43a3.827 3.827 0 0 0-2.46-2.08 3.382 3.382 0 0 0-3.139.39 3.394 3.394 0 0 0-1.451 2.81c-2.14-3.12-4.39-5.62-6.31-8.16.92-.51 1.91-.82 3.1-1.44a4.864 4.864 0 0 0 2.62-3.56 5.78 5.78 0 0 0-1.06-4.95 4.842 4.842 0 0 0-3.71-1.83 3.515 3.515 0 0 0-3 1.74c-.521.83-.7 1.83-.5 2.79.181.627.473 1.216.86 1.74.24.32-.14.59-.42.25-.19-.12-.12-.37-.42-.55a2.871 2.871 0 0 0-1.43-.11 16.403 16.403 0 0 1-1.39-2.61c-.16-.35-.31-.7-.46-1.06a4.4 4.4 0 0 0 .71-1.12c.134-.346.215-.71.24-1.08.019-.28.019-.56 0-.84-.103-.85-.281-1.69-.53-2.51a10.51 10.51 0 0 0-1-2.51 38.988 38.988 0 0 0-2.44-3.4l-1.09-1.63a12.485 12.485 0 0 0-1-1.07 11.47 11.47 0 0 1-.59-1.23l-.76-1.73-.71-1.55c-.1-.13-.18-.84-.6-1.92a5.722 5.722 0 0 0-.91-1.47c-.25-.28-.48-.58-.74-.83-.5-.53-1-1-1.55-1.48-2.1-1.82-4.21-3.12-5.88-4.6a12.411 12.411 0 0 1-3.67-5.16c-.245-.7-.432-1.419-.56-2.15.748.532 1.67.761 2.58.64a3.412 3.412 0 0 0 1.89-.81 4.099 4.099 0 0 0 1.14-2 16.327 16.327 0 0 0 1.45-4.65c.345-1.522.503-3.08.47-4.64a14.434 14.434 0 0 0-.35-2.33 5.3 5.3 0 0 0-.44-1.16c-.09-.08-.18-.63-.38-1.07a4.128 4.128 0 0 0-.83-1.25 3.363 3.363 0 0 0-4.29-.55 2.933 2.933 0 0 0-1.47 2.62c.08 1.41-.8 2.8-1.68 4.2a11.541 11.541 0 0 0-.7-1.51c-1.23-2.35-2.76-4.32-3.84-6.44a7.442 7.442 0 0 1-.62-1.52c-.19-.49.05-.87-.29-2a4.766 4.766 0 0 0-1.59-1.65l-.19-.12a2 2 0 0 0 .14-1.54 25.934 25.934 0 0 1 .08-13.35l.83-3.2c.275-.844.647-1.653 1.11-2.41.93-1.63 2.48-3.58 3.18-6.7.24-1.279.347-2.579.32-3.88 0-1.24-.11-2.45-.17-3.39a12.106 12.106 0 0 1 1.13-5.72c.81-2 1.93-4.11 3-6.14.56-1 1.07-2 1.66-3l.88-1.48.43-.76.21-.37a2.763 2.763 0 0 0 1.07-.73 2.997 2.997 0 0 0 .67-1.84 3.377 3.377 0 0 0-1.92-3.16 3.532 3.532 0 0 0-2-.23 8.124 8.124 0 0 0-1.4.35 7.222 7.222 0 0 0-2.57 1.55 19.184 19.184 0 0 0-3.06 4.14c-.4.62-.76 1.18-1.12 1.65l-1.36 1.63-.46.58a3.171 3.171 0 0 0-.31-1.28 3.813 3.813 0 0 0-2.43-2 3.768 3.768 0 0 0-2.24.14c-1 .41-2.51 0-4.27.38a3.558 3.558 0 0 0-2.85 3.56c0 1.72 1.19 3.19 1.75 4.3a5.794 5.794 0 0 0 1.26 2 4.424 4.424 0 0 0 2.66 1.18 3.75 3.75 0 0 0 1.5-.21 25.692 25.692 0 0 0-1.06 4.8c-.2 1.25-.51 2.51-.85 3.84a70.528 70.528 0 0 0-2.24 8.94 28.739 28.739 0 0 0 .2 9.72c.12.6.3 1.16.44 1.74l-.26-.09c-1.16-.19-2-1.52-2.93-2.73a3.256 3.256 0 0 0-3.22-1.55 7.137 7.137 0 0 0-1 .22c-.42.152-.856.253-1.3.3a3.862 3.862 0 0 0-2.63 2 4.547 4.547 0 0 0-.57 2.66 3.786 3.786 0 0 0 1.9 2.74 10.216 10.216 0 0 0 3.05 2.25 11.092 11.092 0 0 0 3.29 1.29c.295.045.592.075.89.09l1.46.06a4.066 4.066 0 0 0 3-1.46c.18.51.33 1 .52 1.55l.67 1.73c-1.4-.26-2.81-.4-4.2-.54l-7.49-.51-1.84-.19a2.302 2.302 0 0 0-2.05.69 2.446 2.446 0 0 0-.66 2.05 1.811 1.811 0 0 0 1.59 1.48c5 .75 10.1.49 14.45 2.94 1.06.41 1.26 1.53 1.77 2.74.51 1.21.94 2.34 1.45 3.49a49.64 49.64 0 0 1 2.71 6.88c1.26 4.51 1.14 9.9 3.49 14.79 2.13 5.12 6.88 8.45 9.2 12 .579.887 1.05 1.84 1.4 2.84.152.379.236.782.25 1.19.029.475.113.945.25 1.4.126.426.286.841.48 1.24l.51 1c.239.407.51.795.81 1.16.467.544.965 1.062 1.49 1.55a8.65 8.65 0 0 1 1 1.07.488.488 0 0 1 .09.13l.09.2.36.77c.072.128.132.262.18.4a7.033 7.033 0 0 0-.42 1.17 11.906 11.906 0 0 0-.37 2.49 5.7 5.7 0 0 0 .15 1.77c.113.421.25.835.41 1.24l.65 1.76c.234.659.508 1.304.82 1.93a34.496 34.496 0 0 0 2 3.61c2.82 4.61 6.3 8.26 8.75 12.14a24.813 24.813 0 0 1 2.84 5.91c.597 2.204.906 4.477.92 6.76.072 1.538.393 3.055.95 4.49a10.521 10.521 0 0 0 3 4.08 17.385 17.385 0 0 0 8.13 3.31c2.62.47 5.15.67 7.56 1 2.364.267 4.685.828 6.91 1.67 2.55.858 5.22 1.304 7.91 1.32a29.517 29.517 0 0 0 3.95-.32c1.17-.16 2.4-.26 3.65-.37a33.427 33.427 0 0 0 7.72-1.24 9.136 9.136 0 0 0 3.68-2.29 8.147 8.147 0 0 0 1.86-3.95 17 17 0 0 0-.93-7.92 44.443 44.443 0 0 0-3.14-7 70.823 70.823 0 0 0-6.1-8.79.565.565 0 0 0 0-.13c-2.09-6.74-4.1-13.52-5.84-20.35-.87-3.41-1.79-6.85-2.5-10.24a17.397 17.397 0 0 1 .63-9.54c.51-1.64 1.21-3 1.78-5.18.425-1.9.63-3.843.61-5.79.06-3.46.57-6.45 2-7.68.72-.71 2-1.19 3.87-2.23a12.404 12.404 0 0 0 2.86-2.16 10.005 10.005 0 0 0 2-3.28l.33-.9c.115-.395.192-.8.23-1.21a9.626 9.626 0 0 0 0-1.89l-.09-1.1c0-.3-.05-.1 0-.44a11.136 11.136 0 0 1 2-3.61l.79-1.15c.191-.307.401-.601.63-.88a8.73 8.73 0 0 0 1.79-3.4 8.3 8.3 0 0 0-.07-3.71 4.143 4.143 0 0 1-.07-1.82 8.8 8.8 0 0 1 1.42-4 40.968 40.968 0 0 1 3-4 44.03 44.03 0 0 0 3.48-4.31 16.24 16.24 0 0 0 2.31-5.35c.81-3.69 1.29-6.84 2.73-10.08a92.111 92.111 0 0 0 3.9-10 69.303 69.303 0 0 0 2.22-10.56 82.94 82.94 0 0 0 .6-10.8l-.07-2.71-.08-1.35a6.017 6.017 0 0 0-.13-1 22.014 22.014 0 0 0 2.3-2.43 23.562 23.562 0 0 0 5.16-12.79l4.44-.24c5.29-.2 10.81-.74 15.9-.66 1.216.036 2.426.17 3.62.4 1.09.24 2.32.71 3.7 1.12 1.576.544 3.252.735 4.91.56a13.913 13.913 0 0 0 4.35-1.8c.291-.137.545-.343.74-.6l.08-.11.91-1.24a4.847 4.847 0 0 1 4.28-.43l1 .4a.149.149 0 0 0 .16-.13.118.118 0 0 0 .001-.056.136.136 0 0 0-.023-.052.151.151 0 0 0-.043-.037.133.133 0 0 0-.055-.015c-.1 0 .42.08 1.34.2.562.05 1.128.017 1.68-.1.402-.085.799-.192 1.19-.32a15.587 15.587 0 0 0 3.93-2.09c2.18-1.55 3.75-2.64 5.41-2.81.9-.13 2.17 0 3.85-.31a7.767 7.767 0 0 0 4.92-2.87 15.899 15.899 0 0 0 1.78-4c.038-.099.088-.193.15-.28l.22-.2a.948.948 0 0 1 .37-.24c.36-.02.72-.02 1.08 0a6.574 6.574 0 0 0 3.22-.65 5.81 5.81 0 0 0 2.63-2.55 9.442 9.442 0 0 0 .79-2.53c0-.15.06-.24.08-.3.183-.146.385-.267.6-.36a13.54 13.54 0 0 0 4-2.26c2.83-2.66 3.42-6.33 3.48-9.06 0-1.51 0-2.46.08-3.63l.29-3.62a33.79 33.79 0 0 0 .14-8.17zm-264.51 2a.738.738 0 0 1 .56-.66 5.53 5.53 0 0 0-.47 1.11.808.808 0 0 1-.09-.48v.03zm1.07 1.06c-.197 0-.39-.052-.56-.15a1.007 1.007 0 0 1-.25-.25h.05l.6.2c.18.05.51.12.38.12a.665.665 0 0 1-.22.05v.03zm94.09 197.05s0 .09.05.13a1.176 1.176 0 0 1-.25-.15c-.18-.17 0-.13.2-.01v.03zm154.83-179.3-.24.38c-.49.89-.84 1.86-1 2.08-.188.215-.3.485-.32.77v.65a4.79 4.79 0 0 1-1.31 0l-.76-.11a.135.135 0 0 0-.136.068.134.134 0 0 0-.014.052.129.129 0 0 0 .071.126.12.12 0 0 0 .049.014 5.05 5.05 0 0 0-1.9.44 5.245 5.245 0 0 0-1.76 1.83 4.238 4.238 0 0 1-.49.64c-.308.301-.58.636-.81 1a2.135 2.135 0 0 0-.12 2c.189.366.451.69.77.95-.477.299-.971.569-1.48.81-.6.25-1.18.52-1.8.76a10.46 10.46 0 0 1-1.63.57c-1 .15-2.58-.22-4.1.23-1.403.349-2.75.894-4 1.62-1.22.61-2.44 1.45-3.49 2a7.708 7.708 0 0 1-3.38 1 5.09 5.09 0 0 1-1.63-.29 4.855 4.855 0 0 0-2.51 0c-1.396.374-2.74.922-4 1.63a3.227 3.227 0 0 0-1.17 1 2.461 2.461 0 0 0-.41 1.7l-.2.05a13.606 13.606 0 0 1-3.52.11c-1.1-.23-2.3-.83-3.77-1.23a36.86 36.86 0 0 0-4.2-.56 64.104 64.104 0 0 0-8.2 0c-4.57.27-9.07.78-13.54 1.16a12.64 12.64 0 0 0-.52-1.85c-.54-1.46-1.18-2.61-1.61-3.65a16.329 16.329 0 0 1-1.52-6.54 46.759 46.759 0 0 1 1.23-7.35c.34-1.471.432-2.989.27-4.49a17.032 17.032 0 0 0-1.16-4.19c-1.11-2.76-2.82-4.76-3.56-6.92a20.818 20.818 0 0 1-.7-7.33c0-1.31.06-2.64 0-4-.05-.69-.09-1.33-.21-2.06a8.807 8.807 0 0 0-.74-2 48.024 48.024 0 0 1-1.74-7.43 32.521 32.521 0 0 1-.18-7.7l.2-1.93a1.999 1.999 0 0 0-.76-2.13 2.4 2.4 0 0 0-3.67 1.72 40.47 40.47 0 0 0 .27 15.7c.59 2.59 1.55 5 1.66 7.52.11 2.52-.77 5-.58 7.85.19 2.85 1.55 5.4 2.62 7.72 1.07 2.32 2 4.65 1.58 6.65-.42 2-1.89 4-3.22 6.57a11.16 11.16 0 0 0-1.24 4.56 9.999 9.999 0 0 0 1.09 4.77c1.44 2.74 2.52 4.42 3 6.66a15.05 15.05 0 0 1 .11 6.51 15.35 15.35 0 0 1-7.58 10.05c-3.77 2.16-8.32 2.24-13.66 2.22-5.34-.02-10.85 1.2-14.95.33a16.468 16.468 0 0 1-6.13-2.64 28.35 28.35 0 0 0-3.77-2.13 13.429 13.429 0 0 0-2.32-.77c-.85-.19-1.33-.25-2-.38-5.12-.85-9.45-2.14-12.2-6.06a31.31 31.31 0 0 1-5.43-13.59 32.43 32.43 0 0 1 1.43-14.84c1.6-4.76 4.78-8.89 7.35-13.58a29.345 29.345 0 0 0 3-7.52c.69-2.65.64-5.47.9-7.91.5-5.05 1.94-10.29 1.11-15.95a17.99 17.99 0 0 0-1.14-4.13l-.47-1-.24-.5a4.12 4.12 0 0 0-.55-.73 2.717 2.717 0 0 0-.71-.55 4.011 4.011 0 0 1 .78-1.8 26.875 26.875 0 0 1 2.21-2.51c.76-.84 3.26-1.38 3.67-2.6a9.866 9.866 0 0 0 0-3.52c-.11-1-1.32-2.38-1-3.46.367-1.045.84-2.05 1.41-3a5.277 5.277 0 0 1 2.21-2.14 3.434 3.434 0 0 1 2.89.21h.09l2.07.08a.4.4 0 0 0 .25-.09l.05-.05a10.357 10.357 0 0 0 2.42-2.12 8.103 8.103 0 0 0 1.08-3.15c.36-2.08.4-4.18 1.1-5.94a3.887 3.887 0 0 1 1.64-2c.81-.5 1.08-.23 2.46.11a8.257 8.257 0 0 0 3.46-.4 5.881 5.881 0 0 0 3-2 6.757 6.757 0 0 0 1.6-3.26c.08-1.56-.29-2.18 0-2.92a26.233 26.233 0 0 1 1.73-3.63c.06.21.1.36.18.59.131.36.316.697.55 1 .1.33 1.16.93 1.07.86.335.198.641.44.91.72.49.524 1.087.937 1.75 1.21.737.235 1.52.283 2.28.14a5.69 5.69 0 0 0 3.49-2l.16-.21.06-.1 1.28-2.52c.084-.164.128-.346.13-.53v-.1a2.544 2.544 0 0 1 .33-1.44c0 .06 0-.06.71.14a14.919 14.919 0 0 1 3.83 2.25 3.73 3.73 0 0 0 3 1.43 3.86 3.86 0 0 0 3.25-2c.353-.644.66-1.313.92-2a7.47 7.47 0 0 1 .62-1.31c.122-.157.21-.337.26-.53v-.1c.18-.75.43-2 .44-2 .07-.08-.06.06.17 0a6.011 6.011 0 0 1 2.16.07 4.41 4.41 0 0 0 1.72 1.33 4.129 4.129 0 0 0 4-.53l1.42-1.22a9.829 9.829 0 0 1 1.16-.87c.12-.08.22-.11.34-.18-.231.386-.481.76-.75 1.12-.271.345-.522.705-.75 1.08a18.347 18.347 0 0 0-1.18 2.39 20.565 20.565 0 0 0-1 2.71 8.418 8.418 0 0 0-.24 3.68c.072.386.169.767.29 1.14.07.19.13.37.21.54l.38.76c.304.51.697.96 1.16 1.33.29.23.62.44.79.38.17-.06 0 0 .18-1 .06-.311.19-.605.38-.86l-.08.37a4.287 4.287 0 0 0-.09.74 3.458 3.458 0 0 0 1 2.67 3.589 3.589 0 0 0 2 .93 2.85 2.85 0 0 0 2.91-1.42 8.919 8.919 0 0 0 1.11-2.77c.157-1.11.181-2.234.07-3.35-.19-1.17.32-1.14.38-1.15a5.236 5.236 0 0 0 .23-1.84c0-1.68-.66-3.43-.57-5.13a13.647 13.647 0 0 0 3 1.66c.739.277 1.508.468 2.29.57.488.09.986.114 1.48.07a7.493 7.493 0 0 0 1.36-.27c1.35-.38 2.4-.79 3.47-1.16l.34-.11c.057.478.189.943.39 1.38.086.188.186.368.3.54l.15.22.08.12a7.537 7.537 0 0 0-2.1 2.22c-1.9 3.28-1.94 6-2.36 7.46a53.668 53.668 0 0 0-1.36 6.19 11.778 11.778 0 0 1-.43 2 2.833 2.833 0 0 0 1.349 3.423 2.833 2.833 0 0 0 3.591-.803c1.3-2 3.42-3.53 5.28-5.57a8.882 8.882 0 0 0 2.08-3.62 12.63 12.63 0 0 0 .48-3.12 2.36 2.36 0 0 0-.1-.81.472.472 0 0 1 .06-.62 2.3 2.3 0 0 1 1.23-.5c.3-.054.605-.081.91-.08a3.28 3.28 0 0 0 1.43-.3 3.5 3.5 0 0 0 1.78-2c.037-.132.067-.265.09-.4 0 .24-.03.49-.09.75-.25 1.543-.192 3.12.17 4.64a6.519 6.519 0 0 0 1.5 2.77 9.204 9.204 0 0 0 2 1.67c.579.381 1.188.716 1.82 1 .132.064.245.16.33.28.221.282.421.58.6.89.07.22 0-.11 0 .26a6.79 6.79 0 0 0 .73 3.05 8.817 8.817 0 0 0 1.62 2.08c.57.593 1.207 1.117 1.9 1.56.676.408 1.393.744 2.14 1a2.006 2.006 0 0 1 1.26.91 18.03 18.03 0 0 1 1.4 2.53l.8 1.54a7.723 7.723 0 0 0-.74 1.84 8.685 8.685 0 0 0-.33 2.61c.027.67.09 1.337.19 2 .082.415.123.837.12 1.26a3.247 3.247 0 0 1-.94.27 10.19 10.19 0 0 1-1.36.17l-.69.07a5.063 5.063 0 0 0-1 .29 4.912 4.912 0 0 0-1.75 1.17 4.58 4.58 0 0 0-1.22 4c-.09 4.54-.15 6.23-.15 6.43 0 .72.07 1.4.07 1.4.47.83 1 1.66 1.51 2.46a22.145 22.145 0 0 0 8.8 7.61c7.35 3.74 15.68.45 18.65 5.58a17.908 17.908 0 0 1 2 3.95c-.933.248-1.84.582-2.71 1-1.308.134-2.59.45-3.81.94a8.457 8.457 0 0 0-4.12 4 17.479 17.479 0 0 0-1.34 5.58c-.2 1.928-.126 3.873.22 5.78a10.603 10.603 0 0 0 2.92 5.85 7.919 7.919 0 0 0 3.35 1.89 6.459 6.459 0 0 0 4.32-.34c2.53-1.13 3.83-3.25 4.71-4.16a10.511 10.511 0 0 1-.51 4.25 7.809 7.809 0 0 1-1.12 1.92c-.23.32-.5.61-.76.91l-.32.33h-1.17a2.522 2.522 0 0 0-1.22.39 2.368 2.368 0 0 0-.57.44v.03zm-37.14-95.48a3.412 3.412 0 0 0-.08-.69l.13-.05c-.01.18-.03.43-.05.71v.03zm-2.83-9.32c.227.165.421.372.57.61l-2.87 2 2.85-2a3.232 3.232 0 0 0-.57-.61 1.658 1.658 0 0 0-.23-.16l-1.76.65.39-.15 1.37-.51c.14.02.18.08.25.14v.03zm14.18 10.75s0 .06 0 0zm-117.4 56.76a4.927 4.927 0 0 0-.49.29l-.37.08c.38-.36.8-.5.86-.4v.03zM443.69 290c.107.182.165.389.17.6a5.185 5.185 0 0 0-.39-.91c.078.1.152.203.22.31zm-1.07 6.28a1.402 1.402 0 0 1 .13-1c.021.447.091.889.21 1.32.112.442.313.857.59 1.22l-.26-.24a2.786 2.786 0 0 1-.67-1.26v-.04zm-31.29 81.61a5.4 5.4 0 0 0 .5-1l.26 1.14c-.09.11-.42.07-.76-.1v-.04zm-13.21 7h.07l-.14.22a2.401 2.401 0 0 1 0-.24.182.182 0 0 1 .07.03v-.01z" fill="#174f78"/><path d="M566 280.5a7.45 7.45 0 0 1 1.84-.21c.54 0 1.88-.07 2.28-1a2.473 2.473 0 0 0-.695-3.224 2.473 2.473 0 0 0-1.105-.446 13 13 0 0 0-8.13 1.28c-2.56 1.53-4.42 3.64-6.34 3.45-.724.124-1.442.284-2.15.48a5.868 5.868 0 0 0-1.5.76 9.217 9.217 0 0 0-1.08.86 11.99 11.99 0 0 0-1.68 2.14l-1 1.49c-.74 1.07-1.36 2.1-2 2.93-.24.34-.85.95-.68.86.17-.09 0 .05-.32.22a6.733 6.733 0 0 0-1.58 1 5.221 5.221 0 0 0-1.14 1.53c-.115.22-.215.447-.3.68a5.224 5.224 0 0 0-.33 1.08 6.264 6.264 0 0 0 .27 3c.061.211.135.418.22.62 0 .16.16-.36.3-.41.14-.05-.47.71-.92 1.26a6.652 6.652 0 0 0-1.44 2.52 5.802 5.802 0 0 0 .16 2.57c.085.579.108 1.166.07 1.75v2a33.094 33.094 0 0 1-1.12 7.69 13.003 13.003 0 0 0-.6 4.41c.089.779.246 1.549.47 2.3a3.488 3.488 0 0 0 2.69 2.6 3.999 3.999 0 0 0 3.71-1.4 4.215 4.215 0 0 0 .76-4.14 5 5 0 0 1 .44-2.29l1.4-3.49c.317-.784.555-1.598.71-2.43.13-.76.23-1.47.31-2.2.06-1.145.221-2.283.48-3.4.125-.436.286-.86.48-1.27.063-.148.137-.292.22-.43l.43-.59c.504-.646.955-1.332 1.35-2.05a4.745 4.745 0 0 0 .43-2.78v-.14l.39-.29a13.115 13.115 0 0 0 4-3.59 7.243 7.243 0 0 0 .91-1.91c.132-.495.226-1 .28-1.51 0-.77.19-1-.26-.34.23-.41.11-.55 1.6-1.32a8.988 8.988 0 0 0 2.31-1.59 11.577 11.577 0 0 0 1.54-2c1.67-2.69 1.77-4.53 4.32-5.03zm-40.66-34.89c-.341.318-.64.677-.89 1.07-.197.32-.371.655-.52 1a7.306 7.306 0 0 0-.5 1.95c-.019.31-.019.62 0 .93 0 .3 0 .51.06 1.18.262 1.031.62 2.036 1.07 3 .378.877.646 1.798.8 2.74.015.123.015.247 0 .37a2.525 2.525 0 0 0-1.41.84 3.452 3.452 0 0 0 .23 4.56 4.302 4.302 0 0 0 2.41 1.06 5.516 5.516 0 0 0 6.15-3.23c.564-1.261.877-2.619.92-4 .09-1.23-.07-2.52-.07-3.21-.008-.548.019-1.095.08-1.64 0 0-.43.39.49-.79.239-.318.456-.652.65-1l.3-.59a3.19 3.19 0 0 0 .15-.38 6.115 6.115 0 0 0 .48-2.61l-.08.36a4.319 4.319 0 0 0-.31-2.45l.06 1.11a6.871 6.871 0 0 0-.2-1.33 3.455 3.455 0 0 0-.56-1.14 2.434 2.434 0 0 0-1.24-2.25 4.202 4.202 0 0 0-6.18 2.57 6.478 6.478 0 0 1-.56 1.46c-.21.28-.36 0-.3-.32-.14.03-.54.3-1.03.74zm.86 12.13h-.34c.113-.01.227-.01.34 0zm-5.13-11.86c.196-.166.383-.343.56-.53a7.67 7.67 0 0 0 1.41-2 3.22 3.22 0 0 0 .35-2.13.79.79 0 0 1 .21-.43c-.06-.13.78-.34 1.12-.67a3.27 3.27 0 0 0 1.33-2.43 3.211 3.211 0 0 0-.67-2.16 2.094 2.094 0 0 0-1.92-.7c-1.13.15-2.26.18-3.57.4a10.941 10.941 0 0 0-3.86 1.56 6.001 6.001 0 0 1-2.15 1 5.754 5.754 0 0 0-.81.42 5.723 5.723 0 0 0-2.54 3.28c-.076.283-.133.57-.17.86.043.098.07.203.08.31-.012.361-.134.71-.35 1a5.87 5.87 0 0 1-2.31 2c-.53.27-.91.39-1.63.71a3.16 3.16 0 0 0-1.68 2 3.8 3.8 0 0 0 .25 2.71 3.271 3.271 0 0 0 3 1.68c.275-.015.549-.049.82-.1h1.26a13.657 13.657 0 0 0 1.77-.2 13.392 13.392 0 0 0 3.72-1.2 8.995 8.995 0 0 0 3.91-3.34c.212-.375.402-.763.57-1.16l.41-.21c.321-.189.619-.414.89-.67zm-13.75-9.69a23.06 23.06 0 0 0 3-1.89 5.668 5.668 0 0 0 1.74-1.84.389.389 0 0 1-.11-.2.65.65 0 0 1-.29-.34c-.09-.09-.2-.34-.11-.38.199.193.413.371.64.53a3.002 3.002 0 0 0 3 .28 2.654 2.654 0 0 0 1.531-1.572 2.647 2.647 0 0 0-.171-2.188 8.866 8.866 0 0 0-2.6-2.83 8.496 8.496 0 0 0-4.22-1.38 7.588 7.588 0 0 0-4.36 1.06c-1.08.68-1.77 1.17-1.74 1.35.03.18.33.34 0 .39a3.11 3.11 0 0 1-1.34-.15 70.745 70.745 0 0 1-3.55-1.22 15.03 15.03 0 0 0-3.87-.93 3.065 3.065 0 0 0-2.67 1.43 3.844 3.844 0 0 0 2.23 5.74c.85.19.63.25.82.34.19.09.21.17.33.29l2 1.78a11.32 11.32 0 0 0 4 2.38 6.658 6.658 0 0 0 3.44.22 10.276 10.276 0 0 0 2.3-.87zM546.9 243a2.683 2.683 0 0 1 2 1.06 3 3 0 0 1 .29 2.1A4.492 4.492 0 0 0 550 249a6.004 6.004 0 0 0 2.32 2c.893.393 1.835.662 2.8.8l.68.13.33.08.54.15A3.22 3.22 0 0 0 559 252a3.563 3.563 0 0 0 1.89-3.24 3.471 3.471 0 0 0-.75-2.05 6.401 6.401 0 0 1-.56-.68l-.37-.53a14.733 14.733 0 0 1-1.13-2c-.32-.64-.31-.84-.61-1.58a9.885 9.885 0 0 0-1.52-2.8 8.091 8.091 0 0 0-3-2.37 8.94 8.94 0 0 0-3.33-.76 6.138 6.138 0 0 0-1.55.19c-.25.049-.494.123-.73.22-.501.08-.989.228-1.45.44a3.298 3.298 0 0 0-1.86 2.32c-.109.727.017 1.47.36 2.12a3.277 3.277 0 0 0 2.51 1.72zm-60.37 18.68a9.444 9.444 0 0 0-1.9 1.83c-2.09 2.72-2.43 5.68-4.35 7.5-.236.239-.49.46-.76.66-.436.356-.78.812-1 1.33a3.371 3.371 0 0 0 .52 3.16 2.997 2.997 0 0 0 3.54.89c1-.46 1.5-.68 2.25-1.1a21.404 21.404 0 0 0 3.9-2.69c.294-.244.575-.505.84-.78.193-.179.397-.346.61-.5.41-.31.85-.63 1.37-1a31.699 31.699 0 0 0 3.74-2.53 11.997 11.997 0 0 0 3.36-4.43c.67-1.51 1-2.71 1.43-3.69a25.948 25.948 0 0 0 1.42-4.48 7.618 7.618 0 0 0-.1-2.94 4.387 4.387 0 0 0-1.57-2.71 3.002 3.002 0 0 0-2.83-.2 2.001 2.001 0 0 0-1.25 2.17c0 2.73-3.29 4.05-5.3 6.43a16.898 16.898 0 0 1-2.57 2.08l-1.35 1zm-5.89-2.82a30.238 30.238 0 0 1 3.89-2.51 31.674 31.674 0 0 0 4.89-3.35c2.13-2.45-.95-5.31-2.84-4a9.803 9.803 0 0 1-5 1.08 27.69 27.69 0 0 0-5.79.23 6.457 6.457 0 0 0-3.45 2 14.27 14.27 0 0 0-1.78 2.63 7.629 7.629 0 0 1-.9 1.31L468 258a11.016 11.016 0 0 0-2 2.91 7.112 7.112 0 0 0-.5 3.7c.29 2 .84 3.63.43 4.84a1.584 1.584 0 0 1-1.21 1.06 5.882 5.882 0 0 1-1.06.1 4.573 4.573 0 0 0-1.75.21 3.281 3.281 0 0 0-1.75 3.86 3.35 3.35 0 0 0 1.5 2 5.46 5.46 0 0 0 2.13.6 8.668 8.668 0 0 0 3.555-.298 8.664 8.664 0 0 0 3.135-1.702 11.352 11.352 0 0 0 2.27-2.56 10.399 10.399 0 0 0 1.45-3.44c.43-2.15.72-3.85.94-3.8a12.888 12.888 0 0 0 3.66-3.56c1.56-2.82.81-2.1 1.84-3.06zm9.88 49.55c.495-.521.938-1.091 1.32-1.7.33-.54.63-1.08.92-1.63a19.692 19.692 0 0 0 1.26-3.37 31.673 31.673 0 0 0 1-6.47c.117-2.132.04-4.271-.23-6.39a13.254 13.254 0 0 0-2.81-6.39 3.58 3.58 0 0 0-1.54-1.3 2.411 2.411 0 0 0-2 .2 2.269 2.269 0 0 0-1.185 1.363 2.276 2.276 0 0 0 .185 1.797 7.842 7.842 0 0 1 .28 5.65 25.251 25.251 0 0 1-2.3 5.43l-2.64 5a22.562 22.562 0 0 1-2.77 4.3 10.528 10.528 0 0 0-1.74 3.68 5.625 5.625 0 0 0 0 2.45c.146.838.488 1.63 1 2.31 1.38 1.48 1.83 1.27 2.29 1.94.5.687.841 1.476 1 2.31.32 1.73-.09 3.9.26 6.13a2.817 2.817 0 0 0 1.51 2.13 3.338 3.338 0 0 0 2.6.17 3.505 3.505 0 0 0 2.43-3.25v-.94a6.22 6.22 0 0 1 .63-2.17 9.984 9.984 0 0 0 1-3.55 6.762 6.762 0 0 0-1.5-4.91 12.135 12.135 0 0 0-.88-.92c.25-.28 1.02-.93 1.91-1.87zm-2.18 1.52c-.12-.18.09 0 .14.09 0-.22 0 0 .06.12a1.806 1.806 0 0 1-.2-.21zm-27.4-10.33a2.817 2.817 0 0 0-2 .32 2.513 2.513 0 0 0-1 1.58 2.332 2.332 0 0 0 1.56 2.78c1.67.57 2.62 2.46 2.87 4.19a6.995 6.995 0 0 1-1 4.81 28.698 28.698 0 0 1-2.68 3.89 3.66 3.66 0 0 1-.56.62l-1 .91a8.343 8.343 0 0 0-2.12 3.42c-1.32 4-1.32 8.17-1.48 12.15v3c.012.592.1 1.18.26 1.75a2.63 2.63 0 0 0 1.91 1.63 3.477 3.477 0 0 0 3.89-2.17 3.31 3.31 0 0 0 .21-1.28 6.81 6.81 0 0 1 0-.7 9.43 9.43 0 0 1 .23-1.14 25.781 25.781 0 0 1 2.23-4.61c.47-.79.91-1.77 1.32-2.62.305-.668.68-1.302 1.12-1.89.82-1 2.28-2.55 3.54-4a11.683 11.683 0 0 0 2.14-3.28 12.2 12.2 0 0 0 .9-3.8c.43-4.47-.61-9.48-4.29-12.79a11.632 11.632 0 0 0-6.05-2.77zm39.86 19.19a2.873 2.873 0 0 0-3.05-.79 2.83 2.83 0 0 0-1.659 1.556 2.825 2.825 0 0 0 .029 2.274 6.456 6.456 0 0 1-.63 6.51 25.474 25.474 0 0 0-1.63 2.61 8.455 8.455 0 0 0-.66 2.21 8.135 8.135 0 0 0 0 2.08c.194.969.338 1.947.43 2.93.08.85-.63 2.13-1 3.57a3 3 0 0 0 .69 2.81c.344.323.75.573 1.194.732.443.16.915.228 1.386.198a3.288 3.288 0 0 0 1.482-.47 3.29 3.29 0 0 0 1.098-1.1l.2-.35.09-.08a1.71 1.71 0 0 1 .2-.15l.52-.31a6.771 6.771 0 0 0 3.4-3.27 13.701 13.701 0 0 0 1-4.39c.068-.951.249-1.891.54-2.8a16.15 16.15 0 0 0 .65-4 14.854 14.854 0 0 0-.51-4.32 10.31 10.31 0 0 0-2.14-3.8c-.56-.62-.93-.9-1.63-1.65zm75.02-12c-.06-.25-.14-.52-.22-.75a3.707 3.707 0 0 0-.91-1.36 2.998 2.998 0 0 0-2.54-.69c-.66.085-1.27.4-1.72.89a2.825 2.825 0 0 0-.74 1.79c0 2-1.2 3.9-2.37 5.7a9.516 9.516 0 0 0-1.64 5.29c.08.84 0 1.72.33 1.89 0 .06.2-.06.31 0 .057.009.111.03.16.06 0 0-.18.08-.26.12-.438.157-.84.402-1.18.72a3.683 3.683 0 0 0-1.13 2.18 3.5 3.5 0 0 0 .41 2.27 2.793 2.793 0 0 0 2.19 1.28 8.834 8.834 0 0 0 3.91-.5 7.318 7.318 0 0 0 3.33-2.79 12.745 12.745 0 0 0 1.51-3.38 27.704 27.704 0 0 0 1.5-5.91 12.12 12.12 0 0 0-.78-6.39l-.16-.42zm-281.95 4.46c-2.34.4-4.72.44-7.27.8-1.403.18-2.759.621-4 1.3a7.206 7.206 0 0 0-3.14 3.84 15.096 15.096 0 0 0-.66 4.23 10.026 10.026 0 0 1-.36 2.49 9.658 9.658 0 0 1-2.57 4.26l.32-.18-2.57 1.76a3.417 3.417 0 0 1-1.82.89c-1.07.16-2.34-1.21-3-2.8a2.593 2.593 0 0 0-.29-2.48 3.28 3.28 0 0 0-2.62-1.33 3.16 3.16 0 0 0-2.63 1.44 14.206 14.206 0 0 0-1.27 1.8 6.672 6.672 0 0 0-1.023 5.269 6.673 6.673 0 0 0 3.183 4.321 14.944 14.944 0 0 0 9.25 2.1 17.065 17.065 0 0 0 4.72-1c1.49-.55 2.91-1.275 4.23-2.16a15.494 15.494 0 0 0 6-7.89c.436-1.574.592-3.212.46-4.84a14.104 14.104 0 0 1 0-2.5c0-1.29 1.84-3 4.22-3.93l1.81-.69a2.41 2.41 0 0 0 1.565-1.004 2.397 2.397 0 0 0-1.537-3.719 2.402 2.402 0 0 0-.948.013l-.05.01zM255 313.08c.305.346.639.664 1 .95a6.387 6.387 0 0 0 2.66 1.35 7.673 7.673 0 0 0 6-1.21 18.287 18.287 0 0 0 3.5-3.22l2.15-2.23c.26-.28.47-.39.39-.44-.08-.05-.48-.06-.61-.24a.106.106 0 0 1-.02-.049.1.1 0 0 1 .041-.092.095.095 0 0 1 .049-.019c-.16-.23-.16-.43 0-.4.16.03.64.42 1 .87.398.516.762 1.057 1.09 1.62a3.22 3.22 0 0 0 2.49 2 2.76 2.76 0 0 0 2.301-.857 2.756 2.756 0 0 0 .699-2.353c-.29-1.26-.44-2.55-.62-4a10.198 10.198 0 0 0-1.53-4.49 6.654 6.654 0 0 0-5-2.77 7.17 7.17 0 0 0-5.33 1.93 8.33 8.33 0 0 0-.81.88c-.22.28-.48.56-.82 1.05-.39.69-.63 1.27-.92 1.88a13.689 13.689 0 0 1-1.93 3.27 4.979 4.979 0 0 1-1.25 1.11h-.07l-.1-.07a3.018 3.018 0 0 0-.69-.37 3.607 3.607 0 0 0-3.11.44 3.299 3.299 0 0 0-1.49 3.45c.112.745.434 1.443.93 2.01zm-18.17 19.61a2.731 2.731 0 0 0 2.188.816 2.723 2.723 0 0 0 1.141-.357c.35-.201.651-.478.881-.809 1.22-2.1 3.06-4.35 3.31-7.7a8 8 0 0 0-4.92-7.75c-3-1.29-6-.69-8.48-.66a36.596 36.596 0 0 1-3.79-.11c-.63 0-1.25-.11-1.88-.21a3.598 3.598 0 0 0-3.13 1.46 4.174 4.174 0 0 0-.63 3.71 3.919 3.919 0 0 0 1.4 2c.68.483 1.479.77 2.31.83l3.69.35a13.38 13.38 0 0 1 5 1.43c.442.232.858.51 1.24.83a2.51 2.51 0 0 1 1 1.5 3.24 3.24 0 0 1 .06 1.55 2.998 2.998 0 0 0 .61 3.12zm-8.21 29.37a3.703 3.703 0 0 0 1.92 1.83 4.332 4.332 0 0 0 2.93.1 4.052 4.052 0 0 0 2.59-2.38 4.596 4.596 0 0 0-.48-4c.09 0 .22.11.31.26.14.34.18.42.32.42s.19 0 .61-.17c.8-.3 2.45-.42 4.5-1.16a4.257 4.257 0 0 0 2.58-1.14 3.549 3.549 0 0 0 1-2.16 3.161 3.161 0 0 0-.5-1.95 2.206 2.206 0 0 0-1.54-.88c-1.9-.19-3.58-1.55-5.8-2.42a6.416 6.416 0 0 0-3.776-.297A6.419 6.419 0 0 0 230 350c-1.87 2.07-2.07 4.8-2.17 7a12.58 12.58 0 0 0 .27 3.38c.131.572.305 1.134.52 1.68zm59.87-15.69a3.81 3.81 0 0 0-2.17-2.3 2.927 2.927 0 0 0-2.5.37 3.199 3.199 0 0 0-1.49 3.14 1.842 1.842 0 0 1-1.15 2 4.002 4.002 0 0 1-2.45.13 8.243 8.243 0 0 0-4.38-.31l-1.36.31-.73.19-.38.1c-.246.027-.49.071-.73.13a3.155 3.155 0 0 0-2.29 2 3.716 3.716 0 0 0 0 2.34 3.588 3.588 0 0 0 1.25 1.76 5.07 5.07 0 0 0 1.89.77c.94.24 1.87.65 2.86 1a10.699 10.699 0 0 0 6.78.59 10.248 10.248 0 0 0 6.49-4.35 8.79 8.79 0 0 0 1.35-4 6.71 6.71 0 0 0-.99-3.87zm-65.33 45.13a8.474 8.474 0 0 0 0 6.32c.197.489.427.963.69 1.42a3.275 3.275 0 0 0 3.13 1.58h1.2l1.19.08a3.246 3.246 0 0 0 1.91-.49 3.407 3.407 0 0 0 1.16-3.73v-.1h.3c1 .05 2.22.18 3.5.21h2.09a9.739 9.739 0 0 0 2.95-.5 7.45 7.45 0 0 0 4.47-4.31 8.518 8.518 0 0 0 .3-5.12 13.134 13.134 0 0 0-.7-2.17 4.372 4.372 0 0 0-.74-1.35 2.251 2.251 0 0 0-1.46-.71 2.738 2.738 0 0 0-2.854 1.806c-.137.382-.186.79-.146 1.194.31 1.47-.69 3.2-1.85 2.83a6.746 6.746 0 0 1-1.78-.89 13.26 13.26 0 0 0-2.65-1 9.132 9.132 0 0 0-6 .27 8.43 8.43 0 0 0-4.71 4.66zm53.43 26.85c.325-.556.597-1.142.81-1.75a3.88 3.88 0 0 0 0-2.65c-1.35-3.13-4.84-2.73-5.61-1.3-.8 1.14-2.71.91-3.64.05-.93-.86-1.18-1.15-2.06-1.08 0 .17-.91-.35-1.88-.37a3.603 3.603 0 0 0-2.51.84 4.07 4.07 0 0 0-1.25 3.45 3.874 3.874 0 0 0 1.56 2.71c.58.55 1.18 1.16 1.88 1.74a7.64 7.64 0 0 0 5.13 1.95 9 9 0 0 0 5.54-1.48 7.84 7.84 0 0 0 2.03-2.11zm-33.59-2.1c-1.07.73-2.72.46-4.48.66a4.203 4.203 0 0 0-3.71 3.2c-.52 1.88.32 3.86.66 5.25a4.055 4.055 0 0 0 1.68 2.699 4.06 4.06 0 0 0 3.11.661 3.45 3.45 0 0 0 2-1.38 4.8 4.8 0 0 0 .79-2.23.788.788 0 0 1 .54-.3 3.268 3.268 0 0 0 1.61-.85c.448-.362.876-.749 1.28-1.16 0-.07.4-.37.72-.69.311-.336.58-.709.8-1.11a3.622 3.622 0 0 0-.985-4.438 3.622 3.622 0 0 0-1.465-.702 3.41 3.41 0 0 0-2.55.39zm21.61 67.37a.42.42 0 0 0 .24.16c0-.06-.08-.12-.11-.18l-.13.02zm-25.42 3.29a1.337 1.337 0 0 1-.48-.37c.06-.22-.35.3-.53.51-.224.33-.399.69-.52 1.07a4 4 0 0 0 1.68 4.44 4.15 4.15 0 0 0 5.77-1.9c.55-1.24 1.27-2.31 1.92-3.82a5.75 5.75 0 0 0-.12-4.88 6.598 6.598 0 0 0-4-3.74 6.358 6.358 0 0 0-3.58-.08 3.816 3.816 0 0 0-2.68 3.13 3.89 3.89 0 0 0 .88 3.08c.541.592 1.29.95 2.09 1a.781.781 0 0 1 .58.338.788.788 0 0 1-.055.968.858.858 0 0 1-.955.254zm-5.46-17.32a4.245 4.245 0 0 0 2.81-.38c1.15-.55 2.36-.79 3.82-1.41a5.521 5.521 0 0 0 3.18-3.5 6.605 6.605 0 0 0-.18-5.14 7.33 7.33 0 0 0-.84-1.26 4.755 4.755 0 0 0-1.88-1.44 3.726 3.726 0 0 0-4.09.75 3.935 3.935 0 0 0-1.13 2.88 4 4 0 0 0 .74 2 .64.64 0 0 1-.41 1 1.004 1.004 0 0 1-1.1-.68 1.143 1.143 0 0 1 0-.32c0-.11-.54 0-.8 0-.78.122-1.5.494-2.05 1.06a3.851 3.851 0 0 0 2 6.44h-.07zm35.16 63.21a3.69 3.69 0 0 0 .85 2.61 3.534 3.534 0 0 0 3.59 1.16 3.273 3.273 0 0 0 2.12-1.61c.33-.63.79-1.16 1.3-1.94a5.22 5.22 0 0 0 .7-3.13 4.574 4.574 0 0 0-3.54-4.13c-1.63-.35-3.36.21-4.69-.06a7.022 7.022 0 0 1-2-.78 3.238 3.238 0 0 0-3.71 1 4.18 4.18 0 0 0-.84 4.19c.302.847.857 1.58 1.59 2.1.87.58 1.17.66 1.45.86a19.966 19.966 0 0 0 3.07 1.69c.21.06.41.16.47.12.06-.04 0 .12-.51-1.27a3.054 3.054 0 0 1 0-1.41c.08-.51.61-1.22.36-.73-.127.432-.198.88-.21 1.33zm-33.26-18.05a3.821 3.821 0 0 0 1.37 3.15 3.076 3.076 0 0 0 2.39.67c1.19-.2 2.58.65 4.31 1a3.854 3.854 0 0 0 2.364-.192 3.85 3.85 0 0 0 1.806-1.538c.89-1.42.83-3.16 1.33-4.5a3.86 3.86 0 0 0-6.57-3.83c-.348.249-.72.464-1.11.64-.66.27-1.22.27-1.68.53l-.38.22c-.063.046-.13.086-.2.12l-.11.07c-.06 0-.36.09-.53.14a4.003 4.003 0 0 0-2.99 3.52zM254.07 447a8.292 8.292 0 0 0 1.48-3.05 5.679 5.679 0 0 0 .11-1.65 5.1 5.1 0 0 0-.55-2.59 3.418 3.418 0 0 0-4-1.67 2.886 2.886 0 0 0-2.11 2.16 2.197 2.197 0 0 1-1.364 1.479 2.205 2.205 0 0 1-1.996-.249c-1-.8-.72-1-1.61-1.05a4.613 4.613 0 0 0-2.79-.78 3.823 3.823 0 0 0-2.37 1.09 3.776 3.776 0 0 0-1 4 3.654 3.654 0 0 0 1.08 1.42c.35.26.63.6 1 .88a23.155 23.155 0 0 0 2.18 1.85c3.24 2.62 9.04 1.79 11.94-1.84zm29.59-62.86a7.132 7.132 0 0 0 3.87-.87 3.308 3.308 0 0 0 1.61-2.19 3.939 3.939 0 0 0-.51-2.86 3.64 3.64 0 0 0-2.25-1.61v-.31l.1-1.35v-2a9.177 9.177 0 0 0-8-8.4c-.27-.07-.46-.08-.79-.19a3.876 3.876 0 0 0-1.53-.42 3.25 3.25 0 0 0-2.5 1 2.548 2.548 0 0 0-.832 1.88 2.546 2.546 0 0 0 .832 1.88 11.369 11.369 0 0 1 2.26 2.34c.599.74.892 1.681.82 2.63a6.495 6.495 0 0 0-.5 2 8.486 8.486 0 0 0 .53 3.73 8.166 8.166 0 0 0 6.89 4.74zm.1-7.4c.282-.14.596-.202.91-.18h.07a4.7 4.7 0 0 0-1.22.37.566.566 0 0 1 .24-.19zm-23.23 23.49c1.438.583 2.969.898 4.52.93a11.434 11.434 0 0 0 8.38-2.8l.86-.9c.417-.59.669-1.28.73-2a4.414 4.414 0 0 0-2-4 4.58 4.58 0 0 0-5-.16 5.7 5.7 0 0 0-1.71 1.73c-.09 0-.15.11-.19.08-.2-.06.16-.31.09-.37a1.724 1.724 0 0 0-.3-.4 2.008 2.008 0 0 1-.34-1.05 5.27 5.27 0 0 1 .42-2.41 6.869 6.869 0 0 1 .76-1.5 3.3 3.3 0 0 0 1.07-3c-.42-1.9-2.52-2.81-3.83-1.9-2.11 1.41-4.73 2.49-6.88 5a8.004 8.004 0 0 0-.51 9.55 9.063 9.063 0 0 0 3.93 3.2zm72.94-83.31c.336.107.644.288.9.53.17.16.21.19.26.19.05 0 0-.12 0-.27a8.06 8.06 0 0 0-.32-1.27 6.003 6.003 0 0 0-.75-1.55 27.352 27.352 0 0 0-1.95-2.5 3.67 3.67 0 0 0-2.29-1.7 3.816 3.816 0 0 0-2.39.26 3.106 3.106 0 0 0-1.68 1.73 4.006 4.006 0 0 0 .06 2.19c.176 1.018.269 2.048.28 3.08.05 1.05 0 2.14.14 3.17a6.604 6.604 0 0 0 1.67 4 7.81 7.81 0 0 0 4.87 2.32 10.942 10.942 0 0 0 9.74-4.15c.093-.126.193-.246.3-.36.184-.183.358-.377.52-.58.339-.436.569-.947.67-1.49a3.115 3.115 0 0 0-.73-2.5 2.824 2.824 0 0 0-3.54-.73 6.904 6.904 0 0 1-2.85.59 8.407 8.407 0 0 1-3-.51c-.23-.12-.83-.54.09-.45zm-18.14 10.01v-.08.08zm-12 2.26c.25.683.709 1.271 1.31 1.68.446.332.91.639 1.39.92a6.387 6.387 0 0 0 3.5 1 5.665 5.665 0 0 0 4.25-2.3 9.43 9.43 0 0 0 1.55-3.53v-.07c.19-.42.09-.14 0 0a8.908 8.908 0 0 1 1-1c.23-.22.48-.51.76-.83.13-.16.28-.3.42-.5a5.504 5.504 0 0 0 1-1c2.29-3.61-1.35-6.44-3.1-5.31-1.51.73-3.43.33-5.62.72a5.558 5.558 0 0 0-4.54 5 2.278 2.278 0 0 0 0 .79 2.785 2.785 0 0 0-1.29.8 3.702 3.702 0 0 0-.63 3.63zm4.06-4.87c.25.06.32.15.31.19-.01.04-.67 0-1.37 0l.11-.06a1.73 1.73 0 0 1 .95-.13zm9.53 57.21a3.231 3.231 0 0 0-.68 2.27 3.096 3.096 0 0 0 2 2.71 1.708 1.708 0 0 1 1.27 1.77 11.381 11.381 0 0 1-1 2.46 5 5 0 0 0 .1 3.93 5.417 5.417 0 0 0 3.27 2.9c.815.22 1.656.324 2.5.31.136-.016.274-.016.41 0 .14.06.16 0 .53.36.571.602 1.352.96 2.18 1a3.457 3.457 0 0 0 3.35-2.27 3.595 3.595 0 0 0-.05-2.34 8.495 8.495 0 0 0-.71-1.69 10.239 10.239 0 0 0-2.12-2.6c.04-.171.071-.345.09-.52a8.99 8.99 0 0 0 0-2.15 8.538 8.538 0 0 0-1.47-3.87 7.507 7.507 0 0 0-6.8-3.42 3.567 3.567 0 0 0-2.87 1.15zm10.8 8.56c-.45-.35-.74-.54-.72-.64.02-.1.48.27.72.64zm49.74 13.48a5.154 5.154 0 0 1-5.12-.31 2.164 2.164 0 0 1-.77-1c-.07-.17-.35-.37-.87-.83-.26-.22-.56-.5-.87-.81l-.5-.48a4.82 4.82 0 0 0-.95-1 3.85 3.85 0 0 0-4.58-.1 2.875 2.875 0 0 0-1.25 2 5.67 5.67 0 0 0 .29 1.89c.23.92.34 1.92.58 3a8.063 8.063 0 0 0 4.29 5.9 10.39 10.39 0 0 0 7.49.88 9.556 9.556 0 0 0 5.39-3.53 3.56 3.56 0 0 0 1.35-2.83 3.23 3.23 0 0 0-4.48-2.65v-.13zm9.92-69.57c.277.842.66 1.645 1.14 2.39l.26.47s.05.07.08.08a4.03 4.03 0 0 0-.49.53 3.459 3.459 0 0 0 .23 3.76 3.62 3.62 0 0 0 1.68 1.31 5.453 5.453 0 0 0 5.82-1.75 6.996 6.996 0 0 0 1.48-3.78c.041-.332.061-.666.06-1v-.67c.004-.289.034-.577.09-.86.15-.3 0 .16.11-.11.201-.445.449-.867.74-1.26.2-.324.384-.657.55-1l.34-.63c.302-.387.542-.819.71-1.28 1.16-4.06-3-5.76-4.42-4.24-1.26 1.07-3.21 1.14-5.23 2a5.493 5.493 0 0 0-3.15 6.04zm2.62 2.15-.13.06-.24.12a2.218 2.218 0 0 0-.44.29c.132-.133.276-.253.43-.36.122-.049.25-.079.38-.09v-.02zm-24.71-35.23a.565.565 0 0 0 0-.13c.07-.18-.25-.82-.64-1.21a3.94 3.94 0 0 0-1.29-.93 3.678 3.678 0 0 0-1.76-.3 3.443 3.443 0 0 0-1.15.32 1.781 1.781 0 0 1-.58.25 4.56 4.56 0 0 0-2.28 1.83c-.57.85-.95 2-1.5 2.87a4.063 4.063 0 0 0-.5 4.43 3.271 3.271 0 0 0 1.93 1.72 4.722 4.722 0 0 0 2.78-.29 11.018 11.018 0 0 0 1.9-.48 3.916 3.916 0 0 0 2.15.42 3.373 3.373 0 0 0 2.029-.971 3.373 3.373 0 0 0 .971-2.029 4.17 4.17 0 0 0 0-.5c.168-.23.303-.482.4-.75a3.426 3.426 0 0 0-2.46-4.25zM349.47 362a8.008 8.008 0 0 0-3.34 1.17 5.364 5.364 0 0 0-1.27 1.2 4.66 4.66 0 0 0-1.27 2.36c-.39 4 3.56 4.92 4.8 3.65a1.566 1.566 0 0 1 1.9-.07c.6.44.35 1 .41 1.68a3.881 3.881 0 0 0 2.16 2.74 4.859 4.859 0 0 0 3.68.32c.91-.3 1.1-.72 1.89-1a3.882 3.882 0 0 0 3.13-2.44 3.204 3.204 0 0 0-.49-3.57 7.733 7.733 0 0 0-3.09-1.41c-.79-.24-1.53-.66-1.4-.89.49-.05.29-.23-.29-1a8.009 8.009 0 0 0-3.082-2.178 8.017 8.017 0 0 0-3.738-.522V362zm-1.21-12.42a13.1 13.1 0 0 1-1.27-1.3 5.671 5.671 0 0 0-3.43-1.95 6.853 6.853 0 0 0-4.06.26 5.311 5.311 0 0 0-2.86 2.7 3.646 3.646 0 0 0 .46 3.61 3.874 3.874 0 0 0 2.53 1.55 4 4 0 0 0 2-.38c.85-.44 2.07.5 2.44 1.53.11.347.254.682.43 1l.06.06c.127.072.261.129.4.17.294.12.604.197.92.23a3.613 3.613 0 0 0 2.56-.647 3.615 3.615 0 0 0 1.44-2.213 5.081 5.081 0 0 0-.13-2.72 3.88 3.88 0 0 0-1.49-1.9zm77.07 66.88a3.635 3.635 0 0 0-2.74.78c-1.09 1-2.86 1.85-4.22 3.43a5.087 5.087 0 0 0-1.19 4.94c.48 1.59 1.73 3 1.95 4.39a3.538 3.538 0 0 0 1.62 2.91 3.821 3.821 0 0 0 3.87.11 3.899 3.899 0 0 0 1.63-2c.31-1 .38-1.08.52-1.51.228-.713.406-1.442.53-2.18.14-.73.29-1.45.39-2.18.091-.636.131-1.278.12-1.92 0-.45-.05-.5-.28-.51-.06-.05-.36 0-.22-.39a4.091 4.091 0 0 0 1-2.88 3.253 3.253 0 0 0-2.98-2.99zm-10.86-6.54s-.05.1 0 0l.27-.18.53-.37a8.25 8.25 0 0 0 .29-13.27 3.472 3.472 0 0 0-2.84-1.37 3.059 3.059 0 0 0-2.13 1.13 3.182 3.182 0 0 0-.51 3.35 3.005 3.005 0 0 1 .07 2.51 2.527 2.527 0 0 1-1.76 1.29c-1 0-3.61 1.56-4.18 4.55a6.713 6.713 0 0 0 .609 3.967 6.714 6.714 0 0 0 2.761 2.913c1.5 1.62 6.66 1 5.85-3.65.104-.074.205-.154.3-.24.27-.17.53-.48.74-.63zm-2.47-1.05s-.12-.07 0 0c.116.045.227.102.33.17.195.128.364.291.5.48.186.238.326.51.41.8v.07a3.989 3.989 0 0 0-.66-1 6.983 6.983 0 0 0-.58-.52zm28.33 10.7a4.326 4.326 0 0 0 1.76-2.34c.142-.541.18-1.105.11-1.66-.05-.45.18-.4.31-.47.59.21 1.27.21 2.64-1.21a6.176 6.176 0 0 0 1-1.39c.304-.601.526-1.24.66-1.9a6.177 6.177 0 0 0-.52-3.87 6.067 6.067 0 0 0-2.94-2.85 5.74 5.74 0 0 0-2.49-.51 4.56 4.56 0 0 0-2.49.92 3.918 3.918 0 0 0-1.49 3.84 2.51 2.51 0 0 0 .91 1.57 6.118 6.118 0 0 0-1.09.48 6.662 6.662 0 0 0-1.87 1.48l-.23.3a4.775 4.775 0 0 0-.25.52 6.2 6.2 0 0 0-.3.69c-.161.48-.268.976-.32 1.48a4.603 4.603 0 0 0 .56 2.81 8.487 8.487 0 0 0 2.31 2.32 3.313 3.313 0 0 0 3.73-.21zm-35.21-68.93c-1.61.71-3.87 1.53-5.45 3.61a9.16 9.16 0 0 0-1.38 2.85c-.22.73-.18.59.08.65a3.858 3.858 0 0 1-.81 1.57c-.18.27-.41.41-.38.57a4.167 4.167 0 0 0-2.18.31 3.417 3.417 0 0 0-1.55 3.73c.168.781.59 1.485 1.2 2a7.425 7.425 0 0 0 1.81 1 8.51 8.51 0 0 0 7.17-.67 9.55 9.55 0 0 0 3.11-2.42 8.508 8.508 0 0 0 1.73-3.75c.38-3.11.14-3.73-1-3.67 3.26-3.29-.34-7.11-2.35-5.78zm2.01-23.79a4.283 4.283 0 0 0-2 4.6c.36 1.82 1.84 3.18 2.58 4.39.194.303.371.617.53.94a3.582 3.582 0 0 0 4.4 1.86 3.871 3.871 0 0 0 2.82-3.39 5.203 5.203 0 0 0-.38-2.32c0-.14 0-.26.07-.39.14-.52.47-.87.47-1.12a4.186 4.186 0 0 0-.06-.5v-.13l.41-.5c.241-.365.436-.758.58-1.17a3.644 3.644 0 0 0 0-2.4 3.879 3.879 0 0 0-.959-1.577 3.886 3.886 0 0 0-1.581-.953 2.694 2.694 0 0 0-2.59.56c-.96.88-2.64 1.12-4.29 2.1zm-1.72-32.56a3.474 3.474 0 0 0-3.67.87 3.57 3.57 0 0 0-1 2.42c0 1.35-1.78 2-2.88 1.5-.55-.16-.92-.41-1.18-.44a.772.772 0 0 0-.37 0 .434.434 0 0 0-.19.07 9.916 9.916 0 0 0-1.11.17 4.004 4.004 0 0 0-2.35 1.68 3.63 3.63 0 0 0-.5 2.32 4.42 4.42 0 0 0 1.83 3c.439.302.937.51 1.46.61.51.09.79.1 1.2.2.77.1 1.59.32 2.47.39a7.108 7.108 0 0 0 5.23-1.39 8.53 8.53 0 0 0 3.43-4.44 7.613 7.613 0 0 0 .31-2.85 6.683 6.683 0 0 0-.55-2.17 3.588 3.588 0 0 0-2.13-1.94zm22.19 10.18a4.3 4.3 0 0 0 .56-1.35 3.51 3.51 0 0 0-1.69-3.9 2.721 2.721 0 0 0-3 .1c-1.25.9-3.09 1.75-4.7 2.85a9.182 9.182 0 0 0-.94.74c.3 0 .4.06.29.15a1.872 1.872 0 0 1-.89.28h-.06a9.286 9.286 0 0 1-1 .09 3.742 3.742 0 0 0-2.38.48 3.203 3.203 0 0 0-1.3 1.66 3.812 3.812 0 0 0 .42 3.48c.381.477.837.889 1.35 1.22l1.1.83a6.792 6.792 0 0 0 6.45 1.16 7.772 7.772 0 0 0 3.41-2.16 8.703 8.703 0 0 0 1.68-2.74 5.988 5.988 0 0 0 .45-1.64.884.884 0 0 0-.18-.48c0-.08-.15 0 .05-.21a4.41 4.41 0 0 0 .38-.56z" fill="#174f78"/><path d="m417.67 303 .13-.12c-.34.06-.66.4-.62.44h.05a1.28 1.28 0 0 0 .44-.32zm44.79 87.85c1.59-1 2.912-2.373 3.85-4a21.211 21.211 0 0 0 2.23-4.15c.24-.654.44-1.322.6-2 .069-.329.109-.664.12-1-.11-.1.51-1.42.36-2.43a3.204 3.204 0 0 0-1.39-2.46 3.55 3.55 0 0 0-2-.55 3.278 3.278 0 0 0-2.68 1.42c-.83 1.35-2.52 2.31-4.06 3.48a5.748 5.748 0 0 0-2.46 4c-.08.76-.06 1.54-.09 2.34a12.366 12.366 0 0 1-.65 2.88 3.175 3.175 0 0 0 2.11 3.07 3.743 3.743 0 0 0 4.06-.6zm-14.39-9.96a9.976 9.976 0 0 0 2.79-1.49 7.618 7.618 0 0 0 2.52-3.59 5.47 5.47 0 0 0 .22-2.27 6.67 6.67 0 0 0-.71-2.3 3.643 3.643 0 0 0-2.14-1.85 3.517 3.517 0 0 0-2.2.1 2.666 2.666 0 0 0-1.85 2.71c.05.67-.8 1.11-1.64 1.15-.84.04-1.82-.08-2.92 0a3.933 3.933 0 0 0-2 .7 5.57 5.57 0 0 0-1.53 1.53 6.12 6.12 0 0 0-.74 1.51c-.06.23 0 .3.07.36.29.1.21.65-.78 1.42a3.662 3.662 0 0 0-1.46 2.07 3.896 3.896 0 0 0 .08 2.13 3.53 3.53 0 0 0 1.15 1.71 2.93 2.93 0 0 0 2.14.54c1.16-.2 1.91-.18 3.06-.39a6.075 6.075 0 0 0 3.47-1.73c1-1.11 1.45-2.15 1.74-2.3.13-.1.16 0 .08.16.223-.031.441-.088.65-.17zm50.93-8.65a3.657 3.657 0 0 0-1-2.43 3.46 3.46 0 0 0-5.6.65c-.55 1.19-2.06 2.07-3 3.9a8.359 8.359 0 0 0-.56 2.49c.01.535.14 1.062.38 1.54a4.168 4.168 0 0 0 .49 3.13 3.769 3.769 0 0 0 2.46 1.83 6.18 6.18 0 0 0 3 .08 5.538 5.538 0 0 0 4.26-4.85 12.476 12.476 0 0 0-.2-4.26c-.07-.19-.17 0-.34-.13l-.08-.06c.037-.18.087-.357.15-.53.075-.449.089-.907.04-1.36zm-7.36 3.57v.14a2.732 2.732 0 0 0-.73.24 3.847 3.847 0 0 0-1 .76 1.88 1.88 0 0 1 .16-.27 2.734 2.734 0 0 1 1.59-.87h-.02zm-53.7 96.34a3.746 3.746 0 0 0-3.5 3.358 3.746 3.746 0 0 0 2.74 4.002 8.884 8.884 0 0 0 3 .76A7.923 7.923 0 0 0 446 478a12.072 12.072 0 0 0 3.29-4.43c.335-.832.567-1.702.69-2.59.06-.465.06-.935 0-1.4a4.807 4.807 0 0 0-.59-2.67 3.386 3.386 0 0 0-4-1.52 3.007 3.007 0 0 0-2.07 2.14c-.33 1.47-1.94 2.54-3.41 3.21-1.47.67-2.59 1.1-1.47 1.15.13.05.88.4-.5.26zM378.2 368.78a7.246 7.246 0 0 0-2.87-.32l-1 .14a5.655 5.655 0 0 0-1.31.52 3.664 3.664 0 0 0-1.75 2.2 3.578 3.578 0 0 0 1.06 3.53 3.761 3.761 0 0 0 2.38 1 1.29 1.29 0 0 1 1.22 1.05 1.466 1.466 0 0 1-.61 1.46 1.39 1.39 0 0 1-.87.25h-.05s0-.06-.1.21a3.733 3.733 0 0 0-.36 1.24 4 4 0 0 0 4.29 4.62 3.485 3.485 0 0 0 3.05-2.07c.52-1.53 1.23-2.68 1.85-4.41 1.43-3.48-1.13-8.2-4.93-9.42zM154.56 194.89c2.1.65 4.07 1 5.66.53.15 0 6-1.18 6-1.18 1.29-.17 2.29-.61 3.67.3.46.53 5 .62 5.39.56a3.805 3.805 0 0 0 2.22-1.13 3.514 3.514 0 0 0 .94-2.79 4.542 4.542 0 0 1-.17-1.75 3.64 3.64 0 0 1 .21-1c.193-.486.445-.946.75-1.37.36-.56.95-1.29 1.54-2.23a10.7 10.7 0 0 0 1.56-3.64 8.873 8.873 0 0 0-.67-5.62c1.47 1.06 2.68 2.78 4.36 4.7a37.023 37.023 0 0 0 3.8 4 11.139 11.139 0 0 0 3 2 6.801 6.801 0 0 0 9-3.18c.16-.31.29-.6.41-.89.165-.405.296-.823.39-1.25a8.679 8.679 0 0 0 .16-1.82c-.01-.388-.04-.775-.09-1.16a2.366 2.366 0 0 1-.08-.79c-.001-.654.056-1.306.17-1.95a8.596 8.596 0 0 1 .66-2l.35 3.11.15 1.43.08.71c.073.517.25 1.014.52 1.46a3.756 3.756 0 0 0 2.85 1.77c.95.115 1.911-.07 2.75-.53.305-.177.596-.378.87-.6l.59-.43 1.17-.9c.77-.6 1.52-1.23 2.27-1.87.93-.8 1.78-1.68 2.65-2.55l.05.06c1.13 1.16 2.19 1.88 2.87 2.52a3.553 3.553 0 0 1 1.16 1.69c1.23 3.32 1.48 8.35.23 11.54a9.21 9.21 0 0 1-3 4.16 33.728 33.728 0 0 1-5.52 3.2c-1.07.54-2.13 1-3.41 1.81a12.76 12.76 0 0 0-3.71 3.3 24.026 24.026 0 0 0-3.28 7.65 12.165 12.165 0 0 1-2.59 4.91c-1.28 1.6-3.57 3.62-4.74 7a11.681 11.681 0 0 0-.62 5.19 14.874 14.874 0 0 0 1.46 4.61c1.3 2.53 2.61 4.34 3 5.78.231.64.304 1.326.21 2l-.07.49a.28.28 0 0 1 0 .1 9.271 9.271 0 0 1-.67 1.06 12.577 12.577 0 0 0-1.26 2.24 7.34 7.34 0 0 0-.47 3.43 6.677 6.677 0 0 0 1.22 3.48c.373.479.81.903 1.3 1.26l.29.22c.385.505.67 1.079.84 1.69.262.916.416 1.859.46 2.81.068 1.433.306 2.853.71 4.23a10.332 10.332 0 0 0 2.61 4.26l.31.3c.195.186.432.323.69.4.51.16 1 .29 1.55.41.398.107.802.187 1.21.24a2.84 2.84 0 0 1 1 .26 4.195 4.195 0 0 1 1.73 1.82c.271.482.498.988.68 1.51.069.144.123.295.16.45.022.23.022.461 0 .69 0 .57-.12 1.3-.14 2.2a7.22 7.22 0 0 0 .1 1.49c.078.428.178.852.3 1.27A10.208 10.208 0 0 0 215 281c.461.473.982.883 1.55 1.22a7.223 7.223 0 0 0-5.54.56 7.319 7.319 0 0 0-2.88 2.88 10.195 10.195 0 0 0-.53 7.94 7.682 7.682 0 0 0 3 3.77 7.41 7.41 0 0 0 7.57.38 3.846 3.846 0 0 0 2.44-1.74 3.276 3.276 0 0 0 .29-2.4 2.763 2.763 0 0 0-2.72-2.17 3.208 3.208 0 0 1-2.35-.72c.419.101.85.144 1.28.13a4.645 4.645 0 0 0 3-1.47A3.637 3.637 0 0 0 221 286a4.324 4.324 0 0 0-1.27-1.85 8.694 8.694 0 0 0-1.15-.89c.28.1.56.21.82.29 1.219.315 2.394.778 3.5 1.38a7.385 7.385 0 0 1 2.15 2.75 23.394 23.394 0 0 0 2.39 3.75 2.903 2.903 0 0 0 3 .76c.59-.17 2.25 1.79 2.74 1.89a23.807 23.807 0 0 1 5.32 1.92c1.39.75 20.55-.92 21.39-1.45 1.58-1 13.85-10.4 7.42-11.53-9.61 4-24.17 3.61-27.53 6a2.657 2.657 0 0 1-2.42.23 12.994 12.994 0 0 1-1.93-2 4.304 4.304 0 0 0-3.14-1.33 2.186 2.186 0 0 1-1.15-.18 2 2 0 0 1-.8-.74c-.43-.67-.72-1.66-1.24-2.64a5.866 5.866 0 0 0-2.5-2.48c-1-.55-1.95-.89-2.7-1.31a8.68 8.68 0 0 1-2-1.61 7.61 7.61 0 0 1-1.76-4.64l-.33-2.91-.14-3a8.785 8.785 0 0 0-1-3.69 8.625 8.625 0 0 0-2.73-3 14.481 14.481 0 0 0-3.26-1.45c-.87-.33-.91-.47-1-.71-.09-.24-.37-1.17-.26-1.24 0-.44.34-1.39.57-2.64a7.872 7.872 0 0 0-.43-4.56 5.33 5.33 0 0 0-2.12-2.53 4.294 4.294 0 0 0-1.25-.47v-.24c.054-.088.114-.171.18-.25a18.822 18.822 0 0 0 2-3c.337-.794.54-1.639.6-2.5.075-.718.075-1.442 0-2.16a11.834 11.834 0 0 0-1.18-3.8c-.25-.54-.52-1-.78-1.51s-.65-1.07-1-1.55c-.67-1-1.34-1.73-1.72-2.32a2.636 2.636 0 0 1-.53-1.24A4.391 4.391 0 0 1 206 226c.08-.34.28-.72.41-1.09a6.48 6.48 0 0 1 .46-.79c.84-1.24 2.36-2.56 3.84-4.55 2.75-4.12 3.27-8.25 5.17-10.77a10.001 10.001 0 0 1 3.66-3.12 26.696 26.696 0 0 0 5.63-3.15c3.67-3.37 4.78-7.66 5.77-11.58.99-3.92 1.61-8.37 0-12.61-1.85-4.37-5.89-6.3-7.76-9.33a.38.38 0 0 1-.06-.11s-4.65-3.42-8.49-1.49l-.1.11a48.1 48.1 0 0 1-4.06 4.13v-.21l-.32-2.76-.15-.68a3.508 3.508 0 0 0-.39-1.27 3.648 3.648 0 0 0-2-1.72 3.797 3.797 0 0 0-2.6 0 21.691 21.691 0 0 0-4 2.91c-1.33 1.1-2.65 2.2-4 3.5a19.045 19.045 0 0 0-1.85 2.18l-.42.61c-.09.25-.14.37-.18.47-.32-.38-.67-.79-1.34-1.46a19.675 19.675 0 0 0-2.09-1.71 18.337 18.337 0 0 0-10.89-3.32c-.932.034-1.861.134-2.78.3a3.08 3.08 0 0 0-1.71.75 3.003 3.003 0 0 0-.9 1.94c0 .4-.91 3-.61 3.86a4.247 4.247 0 0 1-.16 2.88 5.13 5.13 0 0 1-1.83 2 7.593 7.593 0 0 0-2.14 2.06 6.82 6.82 0 0 0-1.11 3.75 11.414 11.414 0 0 0-2.22-1c-3.44-1-6.42-.15-9.07.78-1-.24-3.21.85-3.4 1-1.37.73-2.49 4.25-2.55 4.82a3.284 3.284 0 0 0 2.8 3.56zM217 289.24a2.32 2.32 0 0 1-.32.21 2.525 2.525 0 0 1-.87.31c.15-.16.33-.32.48-.5.176-.221.393-.404.64-.54a1.627 1.627 0 0 1-.13.37c-.06.13 0 .06 0 .1l.18-.11c.09-.07.25-.17.18-.05a1.09 1.09 0 0 1-.16.21zm-23.69-112.07v-.09c.078-.178.172-.349.28-.51l.14-.14c-.13.29-.27.59-.39.8-.01.04-.08.15-.03-.06z" fill="#174f78"/><path d="M147.51 213.73c3.5 1.87 7.3 3.5 11.81 3.53 5.23 0 8.26-2.56 10.52-3.22a3.362 3.362 0 0 1 3.76 1.17c2.27 2.33 5.63-.66 4.11-2.69a17.67 17.67 0 0 0-3.7-4.39 11.37 11.37 0 0 0-5.95-2.39 19.925 19.925 0 0 0-5.83.52 15.28 15.28 0 0 1-1.88.27h-2.33c-1.69.06-3.383.03-5.07-.09a7.728 7.728 0 0 1-4.43-1.53 1.996 1.996 0 0 1-.69-1.63l.34-1.09a2.708 2.708 0 0 0-.34-2.36 3.498 3.498 0 0 0-4.18-1 3.836 3.836 0 0 0-1.72 1.71 9.02 9.02 0 0 0-.71 1.54 7.857 7.857 0 0 0 1.14 7.34 15.398 15.398 0 0 0 5.15 4.31zm-2.07 18.73a5.499 5.499 0 0 1 1.37-1.14 18.257 18.257 0 0 1 1.91-1.11 29.09 29.09 0 0 1 4.19-1.57c3-.86 6.24-1.29 9.81-2.07a38.2 38.2 0 0 1 5.53-.8 2.843 2.843 0 0 0 2.71-2.23 2.291 2.291 0 0 0-.23-1.69 1.844 1.844 0 0 0-1.42-.87c-3.66-.42-7.15-1.93-11-2.87a16.293 16.293 0 0 0-11.93 1.5 20.902 20.902 0 0 0-4.73 3.93 33.41 33.41 0 0 0-3.74 4.78c-1 1.85-1.46 3.69-2.47 4.78a1.895 1.895 0 0 1-.71.51 3.183 3.183 0 0 0-1.68 1.67 3.712 3.712 0 0 0 1.79 4.55 3.786 3.786 0 0 0 2.95.21 8.568 8.568 0 0 0 1.84-.86 10.553 10.553 0 0 0 2.68-2.38c1.38-1.71 2.22-3.35 3.13-4.34zm15.05 14.14c-1.06-.35-2-.68-2.77-.86-.77-.18-1.05-.22-1.77-.41a14.14 14.14 0 0 1-2.72-1.15l-3.35-1.91a3.403 3.403 0 0 0-4.44 1.65 2.837 2.837 0 0 0 .44 3c.388.436.724.916 1 1.43 1 1.85 1.94 4.14 4.55 6a12.29 12.29 0 0 0 8.46 2 13.997 13.997 0 0 0 6.67-2.37c.63-.398 1.281-.762 1.95-1.09a3.274 3.274 0 0 0 1.4-2.43 3.192 3.192 0 0 0-.67-2.18 2.082 2.082 0 0 0-.866-.611 2.08 2.08 0 0 0-1.054-.109 14.52 14.52 0 0 1-6.83-.96zm-16.2 13.07a3.305 3.305 0 0 0-2.12 2.92c.013.617.149 1.226.4 1.79l.47 1.15a13.161 13.161 0 0 0 2.96 4.37 14.617 14.617 0 0 0 4.54 2.84 25.003 25.003 0 0 0 9.58 1.76 31.269 31.269 0 0 0 8.62-1.23c.7-.18 1.41-.39 2.11-.5.39-.06.63-.14 1.16-.19a2.997 2.997 0 0 0 1.68-.55 2.994 2.994 0 0 0 1.14-2.66 2.056 2.056 0 0 0-1.74-1.88 57.068 57.068 0 0 1-8.8-2.36 24.738 24.738 0 0 0-8.16-1.12c-2.48.07-5.24.13-7.16-1.78l-.6-.78c-.2-.26-.33-.47-.7-1a2.913 2.913 0 0 0-3.38-.78zm25.79 24.47c.55-.47 1.68-1.53 1.67-2.71.05-2.22-2.29-3.57-3.77-2.51a10.224 10.224 0 0 1-4 1.24 8.362 8.362 0 0 0-4.63 2.55 5.179 5.179 0 0 0-.88 1.72c-.09.15 0-.38 0-.51v-.16c-.33.13-1 .55-1.31.73-.755.418-1.553.753-2.38 1-2.28.78-5 1.74-7.66 1.32a14.787 14.787 0 0 0-2.45-.35 2.998 2.998 0 0 0-2.46 2.13 3.194 3.194 0 0 0 .88 3.4c.765.516 1.575.961 2.42 1.33a19.86 19.86 0 0 0 8.95 2.29c1.681.06 3.363-.105 5-.49a12.284 12.284 0 0 0 5.06-2.38 10.818 10.818 0 0 0 2-2.17l.67-1a8.91 8.91 0 0 0 .67-1.29c.7-1.65.22-1.82.74-2.68a8.664 8.664 0 0 1 1.48-1.46zm44.75-97.02a3.71 3.71 0 0 0-.16-2.4 4.15 4.15 0 0 0-2.81-2.43 4.003 4.003 0 0 0-3 .78c-.808.403-1.584.868-2.32 1.39a7.135 7.135 0 0 0-2.78 5.23c-.228 1.801.013 3.63.7 5.31a9.978 9.978 0 0 0 1.29 2.11l1.2 1.21a3.86 3.86 0 0 0 2.7 1.08 3.425 3.425 0 0 0 3.21-2.35c.165-.449.229-.929.189-1.405a3.275 3.275 0 0 0-.419-1.355 4.343 4.343 0 0 1 .35-4.21c.151-.333.403-.609.72-.79 0 0-.08 0-.09-.08a5.337 5.337 0 0 0 1.22-2.09z" fill="#174f78"/><path d="M213.76 189.23s-.06.05-.09.06c-.03.01.19-.04.09-.06zm-45.05 48.47c1.31.38 2.46.79 3.73 1.07s2.61.44 3.36.68c.885.28 1.742.642 2.56 1.08a19.73 19.73 0 0 0 3.57 1.51c2.815.842 5.842.603 8.49-.67.67-.3 1.11-.58 1.91-.94a3.27 3.27 0 0 0 2-2.26 3.172 3.172 0 0 0-.43-2.4 2.049 2.049 0 0 0-2-.87 8.073 8.073 0 0 1-6.53-1.91 13.055 13.055 0 0 0-2.44-2.14 8.273 8.273 0 0 0-4.42-1.26c-3 0-5.31 1.46-7.64 1.57a8.006 8.006 0 0 1-1.75-.07 2.661 2.661 0 0 0-2.68 1.4 3.747 3.747 0 0 0-.17 2.94 3.797 3.797 0 0 0 2.44 2.27zm14.16 24.66a11.158 11.158 0 0 0 3.72-3.41c.86-1.12 1.34-2 1.72-2.46a7.795 7.795 0 0 1 1.38-1.46 12.645 12.645 0 0 1 2.07-1.57 4.29 4.29 0 0 1 1.65-.65c.503-.09.978-.295 1.389-.599a3.32 3.32 0 0 0 .981-1.151 3.226 3.226 0 0 0 .19-2.39 1.995 1.995 0 0 0-1.72-1.33c-2.36-.22-4.85-1.23-7.91-1a9.663 9.663 0 0 0-2.2.45 5.475 5.475 0 0 0-1.17.58c-.353.226-.688.48-1 .76a10.342 10.342 0 0 0-2.35 3.12c-1 2-1.49 4.45-2.93 4.27a5.96 5.96 0 0 1-.58-.22 3.268 3.268 0 0 0-1.37-.45 2.996 2.996 0 0 0-2.56 1.27 3.523 3.523 0 0 0-.59 2.9 5.071 5.071 0 0 0 1.75 2.36 8.087 8.087 0 0 0 9.55 1l-.02-.02zm20.36 14.23 1.69-1.34a3.203 3.203 0 0 0 1.4-2.71 3.134 3.134 0 0 0-1.06-2.21 2.155 2.155 0 0 0-2.18-.33c-2.26.89-4.79.21-7.78.62a6.527 6.527 0 0 0-4.44 2.67 6.474 6.474 0 0 0-1.07 2.95 7.212 7.212 0 0 0 .26 2.67c.3.93.56 1.35.69 1.2.13-.15.25-.23.35-.21.1.02.08.19.19.21-.1.53-1.49 1.23-2.25 1.22h-.18c-.07 0-.4-.13-.59-.18a3.377 3.377 0 0 0-1.45 0 3.46 3.46 0 0 0-2.13 1.74 2.935 2.935 0 0 0 .29 3.23 7.202 7.202 0 0 0 2.24 1.58 9.804 9.804 0 0 0 9.36-.29 8.928 8.928 0 0 0 2.23-1.81 7.312 7.312 0 0 0 1.64-3.1 9.584 9.584 0 0 0 .22-2.79v-.85.05c-.17.35-.47.25.16-.32a28.972 28.972 0 0 1 2.41-2zm-15.9 29.21h.74l.54.05 1.13.11a7.47 7.47 0 0 0 4.59-.88A8.723 8.723 0 0 0 198 302a8.622 8.622 0 0 0 1-2.36 4.073 4.073 0 0 0-1.36-4.48 3.761 3.761 0 0 0-3.43-.54 3.138 3.138 0 0 0-1.84 1.72c-.45 1.13-2.12 1.46-3.38 1.24-1.26-.22-1.87-.17-2.57.52 0 .13-.81.44-1.38 1a3.648 3.648 0 0 0-1.1 2 4.003 4.003 0 0 0 1 3.16 3.76 3.76 0 0 0 2.39 1.54zm145.3-10.91a3.872 3.872 0 0 0-2.72-2 2.88 2.88 0 0 0-2.4.67c-.89.81-2.53 1-4.06 2.22a3.998 3.998 0 0 0-1.15 5c.87 1.77 2.78 2.58 3.95 3.29.602.347 1.186.724 1.75 1.13a3.876 3.876 0 0 0 1.575.561c.559.071 1.127.02 1.665-.151a3.997 3.997 0 0 0 2.73-2.8 3.932 3.932 0 0 0-.24-2.71 4.32 4.32 0 0 0-1.22-1.57 3.908 3.908 0 0 0 .12-3.64zm-.24 4.15a1.199 1.199 0 0 1-.44.63.478.478 0 0 1-.2.09.139.139 0 0 1-.09 0l.37-.41c.142-.181.266-.375.37-.58-.01.09.03.15-.01.23v.04zm-.39-1c-.43-.48.3-.38.42.35-.14-.09-.28-.24-.42-.33v-.02zm-11.79 42.6a4.27 4.27 0 0 0 .84 1.9c.032.122.072.243.12.36.066.13.143.253.23.37l.47.56c.1.15-.07 0 .08.25.289.472.624.914 1 1.32a6.841 6.841 0 0 0 3.93 2.1 7.003 7.003 0 0 0 4.17-.69 9.51 9.51 0 0 0 2.35-1.85l-.25.09c.32-.158.616-.36.88-.6a2.88 2.88 0 0 0 1.83-2c.36-1.08.426-2.236.19-3.35a5.28 5.28 0 0 0-1.009-1.957 5.29 5.29 0 0 0-1.721-1.373 4.995 4.995 0 0 0-4.59.15 3.277 3.277 0 0 0-1.36 1.23c-.06.14-.07.24.05.28.12.04.18 0 .31.05l.37.15c.35.12.73.51.64.61-.09.1-.28 0-.53-.14a9.838 9.838 0 0 0-1.66-.88 6.61 6.61 0 0 0-3.61-.51 2.996 2.996 0 0 0-2.13 1.32 3.937 3.937 0 0 0-.6 2.61zm5.43 3.29a2.683 2.683 0 0 1-.4.22l-.11.05-.21.08h-.2c-.2 0 0 0 .1-.08l-.44-2.35c.18.21.35.44.55.64.377.366.818.661 1.3.87a3.7 3.7 0 0 1-.59.57zm11.28 25.01c-1.36.54-3.17-.08-4.38-1a4.994 4.994 0 0 1-1.08-.94c-.1-.18.11 0-.12.16h-.23a4.307 4.307 0 0 0-.87-1 3.847 3.847 0 0 0-2.29-.92 4.222 4.222 0 0 0-3.49 1.56c-1 1.06-.49 2.81-.24 3.37.218.903.512 1.787.88 2.64a7.189 7.189 0 0 0 4.68 4c1.807.637 3.751.775 5.63.4a10.447 10.447 0 0 0 2.44-.89 9.19 9.19 0 0 0 1.13-.8 4.2 4.2 0 0 0 1.85-2.13 3.5 3.5 0 0 0-1.06-4 2.87 2.87 0 0 0-2.85-.45zm-34.28 1.93a9.575 9.575 0 0 0-3.18-.37 9.001 9.001 0 0 0-5.76 1.89c-.461.402-.858.87-1.18 1.39a3.689 3.689 0 0 0-.53 2.59 4.706 4.706 0 0 0 3.32 3.71 3.642 3.642 0 0 0 1.78 2.48 2.696 2.696 0 0 0 3-.12c1.22-1 3.1-1.32 4.87-2.8a4.898 4.898 0 0 0 1.63-3.1 5.194 5.194 0 0 0-1-3.64 6.096 6.096 0 0 0-2.95-2.03zm-6.52 6h.07l-.06.08s-.01-.02-.01-.04v-.04zm3.25-24.8a3.38 3.38 0 0 0-1 2.44c.07 1.35-1.69 2.09-2.83 1.69-.56-.11-.94-.34-1.19-.36a.795.795 0 0 0-.35 0c-.06 0-.12 0-.18.09a9.875 9.875 0 0 0-1.09.22 4.179 4.179 0 0 0-2.2 1.69c-.4.686-.575 1.48-.5 2.27a4.287 4.287 0 0 0 1.82 3 3.66 3.66 0 0 0 1.52.56c.52.08.79.07 1.21.14.76.07 1.59.25 2.47.29a7.16 7.16 0 0 0 5.16-1.54 8.58 8.58 0 0 0 3.31-4.54c.26-.93.338-1.901.23-2.86a6.656 6.656 0 0 0-.61-2.14 3.61 3.61 0 0 0-2.07-1.86 3.474 3.474 0 0 0-3.7.91zm72.48-5.87c-1.34.65-3.13.24-4.92 0a5.07 5.07 0 0 0-4.44 1.36c-.574.62-1.092 1.29-1.55 2a18.136 18.136 0 0 1-1.81 2.17 3.367 3.367 0 0 0-.18 3.48 3.494 3.494 0 0 0 3.47 2 8.495 8.495 0 0 0 1.06-.2l.6-.06a8.396 8.396 0 0 0 1.15-.15 17.737 17.737 0 0 0 2.15-.55 20.283 20.283 0 0 0 4-1.47 14.67 14.67 0 0 0 1.81-1.17c.3-.249.575-.527.82-.83a4.199 4.199 0 0 0 1.68-2.14c1.06-3.5-2.31-5.46-3.84-4.44zm-14.69 41.41c.178-.089.371-.144.57-.16h.2c.098-.279.165-.567.2-.86a3.884 3.884 0 0 0-1.71-3.62 4.047 4.047 0 0 0-4.656.378 4.043 4.043 0 0 0-1.024 1.292c-.38.89-.38 1.44-.6 2l-.73 1.84a5.625 5.625 0 0 0 0 4.41 6.77 6.77 0 0 0 2.92 3.57 5.803 5.803 0 0 0 3.75.72c.696-.13 1.34-.46 1.852-.95a3.648 3.648 0 0 0 1.028-1.81 3.852 3.852 0 0 0 .056-1.553 3.844 3.844 0 0 0-.566-1.447 4.063 4.063 0 0 0-1.65-1.35c-.91-.4-.64-2.07.36-2.46zm10.19-68.51a14.42 14.42 0 0 0-2.15-1 3.935 3.935 0 0 0-3.24.4 3.995 3.995 0 0 0-2 3.37c-.01.547.11 1.088.35 1.58l-.07.12a.46.46 0 0 0-.07.14l-.36.43a4.31 4.31 0 0 0-1 2.61c-.03.901.297 1.778.91 2.44a3.685 3.685 0 0 0 3.22 1.12 4.307 4.307 0 0 0 2.18-1c.86-.86 2.46-.8 4.16-1.58a4 4 0 0 0 2-5c-.69-1.96-2.62-2.93-3.93-3.63zm-4.42 6.9a2.594 2.594 0 0 1-.64-.41c.231.132.472.245.72.34l-.08.07zM262.48 465.56a7.098 7.098 0 0 0 4.93 2.05 5.93 5.93 0 0 0 1.34-.16l.68-.17a6.603 6.603 0 0 0 1.15-.46c1.76-.83 2.59-3.37 1.9-4.57a3.715 3.715 0 0 0-.931-1.381 3.713 3.713 0 0 0-1.439-.839 4.573 4.573 0 0 0-2.29-.12.875.875 0 0 1-.914-.493.864.864 0 0 1-.086-.357 1.19 1.19 0 0 1 .67-1.28.496.496 0 0 1 .58.18c0 .13.07 0 .13-.24l.13-.52a5 5 0 0 0 0-1.16 3.998 3.998 0 0 0-4.792-3.375c-.72.152-1.383.5-1.918 1.005a3.489 3.489 0 0 0-.858 1.381 3.488 3.488 0 0 0-.142 1.619c.09 1.34-.18 2.61-.2 4.29a5.924 5.924 0 0 0 2.06 4.6zm212.63-62.86a3.228 3.228 0 0 0-.3 2.4 2.743 2.743 0 0 0 2.71 2.17c1.86-.1 4.29 0 6.65-1.44a6.225 6.225 0 0 0 2.62-7c-.77-2.64-2.9-4.05-4.17-5.5a17.963 17.963 0 0 1-1.78-2.33c-.26-.413-.497-.84-.71-1.28a3.38 3.38 0 0 0-2.39-1.53 4.236 4.236 0 0 0-4.65 3.65 4.651 4.651 0 0 0 1 3.55l.76 1.17c.652.973 1.17 2.029 1.54 3.14.1.13.14.47.3.55.16.08 1 .07.82.68a4.004 4.004 0 0 0-2.4 1.77zm-28.52-44.44a3.152 3.152 0 0 0-2.81.84 1.601 1.601 0 0 1-1.89.26 2.47 2.47 0 0 1-1.19-1.53 6.79 6.79 0 0 1-.22-1.25.408.408 0 0 0-.1-.21l-.1-.06h-.08c-.08-.23-.17-.46-.27-.68a4.134 4.134 0 0 0-2.36-2.16 3.699 3.699 0 0 0-2.63.18 4.138 4.138 0 0 0-1.562 1.266 4.136 4.136 0 0 0-.778 1.854c.001.986.146 1.966.43 2.91.188.937.462 1.854.82 2.74a7.638 7.638 0 0 0 4.31 4.32 9.002 9.002 0 0 0 6.39.5 8.011 8.011 0 0 0 2.95-1.67 6.011 6.011 0 0 0 1-1.36c.589-.79.895-1.755.87-2.74a3.36 3.36 0 0 0-2.78-3.21zm-15.72-16.38.72-1.16a3.09 3.09 0 0 0 .37-2.3 3 3 0 0 0-2.85-2.32 3.992 3.992 0 0 0-1.24-1.18 3.362 3.362 0 0 0-2.82-.26 6.577 6.577 0 0 0-1.31.74 5.224 5.224 0 0 0-.53.25c-.641.293-1.254.644-1.83 1.05-2.18 1.41-3.74 4.58-8.14 4.53a3.248 3.248 0 0 0-1.91 3.5 3.35 3.35 0 0 0 1.11 2.12c.628.51 1.374.854 2.17 1 1.942.6 3.999.727 6 .37a14.502 14.502 0 0 0 10.26-6.34zm105.18-64.33a3.424 3.424 0 0 0 1.92-.39c2.32-.77 4.24-1.54 6.56-2.31a4.466 4.466 0 0 0 3.08-3.47V271l-.39-1.16c-.38-.39-.38-1.16-.77-1.54l-1.15-1.16c-.39-.38-.77-.77-.77-1.15a2.922 2.922 0 0 0-2.7-1.55 6.68 6.68 0 0 0-4.63.77 4.942 4.942 0 0 0-2.7 3.47c0 .39-.38.77-.38 1.55s-.39.38-.39.38a5.148 5.148 0 0 0-2.31 1.93l-.38.38v.39a4.738 4.738 0 0 0 1.085 2.139 4.741 4.741 0 0 0 1.995 1.331c0 .77.77.77 1.93.77z" fill="#174f78"/></svg>
