<svg width="732" height="658" fill="none" xmlns="http://www.w3.org/2000/svg"><path d="M613.61 279.42c-3.81-4.82-9.11-7.69-14.62-10.16-2.52-1.12-5.07-2.19-7.5-3.5a33.527 33.527 0 0 1-3.11-1.87c-.27-.27-.82-.82-1.1-1.06a11.589 11.589 0 0 1-.83-1.83 18.585 18.585 0 0 1-.11-4.73c.19-4 .94-8 .79-12-.2-5.5-2.28-11-7.12-14.07a15.582 15.582 0 0 0-1.54-.85 34.926 34.926 0 0 0-11.24-14.86c-6.86-5.14-15.36-8-23.6-10.06-9.62-2.4-19.56-3.29-29.3-1-26.38 6.09-40.42 29.46-49.15 54h-.06c-12.84 5.66-27.11 8.63-41 10.37-31.78 4-64.15 3-95.52 10.18-16.75 3.84-31.56 11.23-47 18.53a102.357 102.357 0 0 1-15.87 5.87c-3 .6-6.05 1.21-9.06 1.87-3.37.73-7 1.41-10.68 2.2-5.44.75-10.87 1.26-16.21 1.58-7.93.47-14.89-.32-21.53-4.94-6.37-4.44-11.91-10.53-17.15-16.2A193.105 193.105 0 0 1 162.84 247a185.978 185.978 0 0 1-10-21.67c-3.33-8.74-15.83-12-21-2.75a81.68 81.68 0 0 0-9.5 28 8.22 8.22 0 0 1 5.44 8c0 6.25-.06 12.21 1.81 18.06 1.76 5.54 5.62 11.14 9.18 16 4.5 6.16 9.39 12.55 10.91 20.22.34 1.69.46 5.58 1.3 6.45.84.87 5.2 1.64 5.13 1.63 1.66.29 5.38.89 7.91 2.43a23.563 23.563 0 0 1 7.67 7.93c1.05 1.82 1.36 4.05 2.33 5.86.302.008.604-.019.9-.08a26.66 26.66 0 0 1 9.89-1.14c6 .37 12.11 3.72 17 7.06 4.61 3.14 9.65 7.23 11.62 12.66.44.12.88.25 1.33.36.34 1.61.68 3.21 1 4.83.05.24.13.92.19 1.4.22 2.15.41 4.29.51 6.44.19 3.708.19 7.423 0 11.13-.06 1.23-.15 2.46-.26 3.7 0 .22-.43 3.4-.43 3.67-1 6.29-2.33 12.53-3.35 18.82a18.669 18.669 0 0 1-3.82 4.48c-4.9 4.16-12.21 6.89-18.14 10.18a53.878 53.878 0 0 0-18.2 16c-9.14 12.86-10.68 30-10.48 45.32.22 17.3 1 38.18 17.81 48 13 7.56 26.33 2.59 33.83-8 .84-9-4.79-17.59-7.4-26.17-3.32-10.9-2.13-22.86 6.75-30.89 9.41-8.5 22.1-6.69 33.74-6.73 5.43 0 9.17-1.05 13.57-4.33 5.1-3.81 9.54-7.36 15.57-9.63 6.32-2.37 13.21 4.9 11.08 11.09-2.5 7.27-7.22 13.26-8.46 21a72.829 72.829 0 0 0-.64 13c1.46 1.72 3 3.41 4.58 5.09 15.36 16.39 32.42 32.31 54.68 38.27 5.21 1.39 10.08-1 13-5.29.24-.35.45-.72.67-1.09 0-.54.06-1.12.07-1.78a46.38 46.38 0 0 0-2-14.28 31.788 31.788 0 0 0-1.87-4.94 21.43 21.43 0 0 0-1.56-2.7 6.234 6.234 0 0 1-.65-.64l-.09-.05-.53-.18a15.02 15.02 0 0 0-1.65-.36c1.77.35-1.7-.15-2.06-.18-.94-.08-1.87-.12-2.8-.19-8.91-.68-17.83-2.76-22.19-11.5-4.71-9.42-2-19.41 4.54-27.06 11.19-13 28.47-18.13 42.86-26.49 15.23-8.84 31.62-27.32 51.2-19.63 20.9 8.21 15.56 34.15 15.39 51.78a9.386 9.386 0 0 1-.67 3.48c5.61 12.2 13.08 23.58 19.56 35.33 2 3.7 3.64 6.78 6.35 9.25.325.366.72.665 1.16.88.698.441 1.423.839 2.17 1.19a44.041 44.041 0 0 0 5.73 1.67c4.76 1.08 10.47 2.53 16 2.8a20 20 0 0 0 3.77-5c3.68-6.94 1.93-14-.73-20.69a10.313 10.313 0 0 0 4.41 3.42 10.686 10.686 0 0 0 5.28 7.85c4.21 2.47 10.58 2 13.94-1.79 19.82-22.4 32-53.58 17-82 .08-1.4.11-2.79.12-4.15.107-15.78.22-31.553.34-47.32 7.93-8.93 16.2-17.5 24.62-25.71a10.71 10.71 0 0 0 3.38-6.56c16.34-4.45 31.8-9.39 46.09-19 7.54-5.06 15.31-10.76 19-19.37a22.435 22.435 0 0 0-3.13-22.97zM458.12 497.94c.75 1.74 1.52 3.49 2.28 5.26a22.574 22.574 0 0 1-2.28-5.26zm32.74-41.31c-.36 3.33-.06 7.51-1.18 10.05-1.71 3.89-6 6.49-8 10.36a19.543 19.543 0 0 0-1.92 13.45c-2.69-6.05-5.59-12-7.29-18.43-3.71-14.06 1.72-28.06 8.53-40.32.037-.058.07-.118.1-.18.15.35.29.71.43 1.06a18.163 18.163 0 0 0 3.1 7.64 13.436 13.436 0 0 0 7.17 5.27c.24.82.47 1.64.7 2.46a46.338 46.338 0 0 0-1.64 8.64z" fill="#fff"/><path d="M462.47 507.94c.18.23.06.2 0 0zm132.98-214.55v-.01.01zm0-.04v-.19h.05a.832.832 0 0 1-.05.19zm-.01-.35a.338.338 0 0 1 0 .11c.048-.157.081-.317.1-.48.005.086.005.173 0 .26a.946.946 0 0 1-.1.11z" fill="#fff"/><path d="M595.49 292.87c0-.18.07-.22 0 0zm.01.79s.01 0 0 0zm.05-.27a1.352 1.352 0 0 1 0-.18c.26.2.45.35 0 .18z" fill="#fff"/><path d="M293.1 329c-2.22.38-4.46.42-6.87.75a10.79 10.79 0 0 0-3.74 1.23 6.782 6.782 0 0 0-3 3.64 13.875 13.875 0 0 0-.62 4 9.342 9.342 0 0 1-.35 2.35 9.07 9.07 0 0 1-2.42 4l.29-.17-2.39 1.7a3.303 3.303 0 0 1-1.72.85c-1 .14-2.21-1.15-2.87-2.65a2.424 2.424 0 0 0-.27-2.34 3.09 3.09 0 0 0-2.48-1.26 2.997 2.997 0 0 0-2.48 1.36 13.257 13.257 0 0 0-1.2 1.7 6.311 6.311 0 0 0 .082 7.325 6.328 6.328 0 0 0 1.918 1.735 14.141 14.141 0 0 0 8.74 2 15.734 15.734 0 0 0 4.46-.94 19.226 19.226 0 0 0 4-2 14.623 14.623 0 0 0 5.65-7.46c.417-1.485.566-3.033.44-4.57a12.572 12.572 0 0 1 0-2.36c0-1.22 1.73-2.79 4-3.7l1.71-.66a2.33 2.33 0 0 0 1.79-1.66 2.367 2.367 0 0 0-2.67-2.87zm152.58-48.26c-2.21.38-4.45.42-6.86.75a10.57 10.57 0 0 0-3.75 1.23 6.75 6.75 0 0 0-3 3.63 13.64 13.64 0 0 0-.63 4 8.982 8.982 0 0 1-.34 2.35 9.07 9.07 0 0 1-2.43 4l.3-.16-2.42 1.66a3.273 3.273 0 0 1-1.72.84c-1 .15-2.21-1.14-2.87-2.64a2.445 2.445 0 0 0-.27-2.34 3.116 3.116 0 0 0-2.48-1.26 2.998 2.998 0 0 0-2.49 1.36 14.117 14.117 0 0 0-1.19 1.69 6.335 6.335 0 0 0-.981 4.972 6.335 6.335 0 0 0 2.981 4.098 14.198 14.198 0 0 0 8.74 2 15.954 15.954 0 0 0 4.45-.94 19.104 19.104 0 0 0 4-2 14.547 14.547 0 0 0 5.65-7.45c.413-1.486.559-3.033.43-4.57a13.4 13.4 0 0 1 0-2.37c0-1.21 1.73-2.78 4-3.7l1.71-.66a2.323 2.323 0 0 0 1.78-1.65 2.362 2.362 0 0 0-2.61-2.84zm-189.26 50.02c.28.32.58.62.9.9a6.008 6.008 0 0 0 2.52 1.27 7.21 7.21 0 0 0 5.65-1.14 17.537 17.537 0 0 0 3.31-3l2-2.1c.24-.27.44-.38.37-.42-.07-.04-.46-.05-.58-.23a.093.093 0 0 1-.022-.047.083.083 0 0 1 .008-.051.087.087 0 0 1 .084-.052c-.15-.22-.15-.4 0-.38.15.02.6.4.92.83.368.487.702.998 1 1.53a3.006 3.006 0 0 0 2.35 1.92 2.588 2.588 0 0 0 2.724-1.829c.114-.379.141-.78.076-1.171-.27-1.19-.41-2.41-.59-3.74a9.548 9.548 0 0 0-1.44-4.24 6.318 6.318 0 0 0-2.049-1.83 6.316 6.316 0 0 0-2.631-.79 6.827 6.827 0 0 0-5 1.83c-.275.256-.532.53-.77.82-.2.27-.45.53-.76 1a17.802 17.802 0 0 0-.87 1.77 13.415 13.415 0 0 1-1.83 3.09c-.331.414-.73.769-1.18 1.05h-.07l-.09-.07a3.004 3.004 0 0 0-3.58.07 3.122 3.122 0 0 0-1.42 3.26c.161.66.496 1.264.97 1.75zm-17.19 18.52a2.575 2.575 0 0 0 2.079.79 2.575 2.575 0 0 0 1.921-1.12c1.16-2 2.89-4.11 3.13-7.28a7.53 7.53 0 0 0-4.64-7.31c-2.8-1.22-5.65-.66-8-.62a35.647 35.647 0 0 1-3.58-.11c-.59 0-1.18-.1-1.78-.2a3.42 3.42 0 0 0-2.95 1.38 3.92 3.92 0 0 0-.6 3.5c.234.751.7 1.409 1.33 1.88a4.171 4.171 0 0 0 2.17.78l3.49.34c1.634.138 3.224.597 4.68 1.35.417.217.809.479 1.17.78.498.333.854.839 1 1.42.12.479.12.981 0 1.46a2.821 2.821 0 0 0 .58 2.96zM231.48 377a3.449 3.449 0 0 0 1.81 1.73 4.09 4.09 0 0 0 2.76.1 3.852 3.852 0 0 0 2.45-2.25 4.361 4.361 0 0 0-.45-3.82c.08 0 .21.11.29.25.14.32.17.4.3.39.13-.01.19 0 .58-.15.76-.29 2.32-.4 4.25-1.1a4.123 4.123 0 0 0 2.44-1.07c.511-.55.827-1.253.9-2a2.999 2.999 0 0 0-.46-1.84 2.126 2.126 0 0 0-.65-.566 2.12 2.12 0 0 0-.82-.264c-1.79-.18-3.37-1.46-5.47-2.29a6.06 6.06 0 0 0-6.66 1.54c-1.76 2-1.95 4.54-2 6.58a11.177 11.177 0 0 0 .73 4.76zm-55.03 87.34a3.492 3.492 0 0 0 1.81 1.73 4.059 4.059 0 0 0 2.77.09 3.804 3.804 0 0 0 2.44-2.25 4.316 4.316 0 0 0-.45-3.81c.08 0 .21.1.29.25.14.32.17.4.3.39.13-.01.19 0 .58-.16.76-.28 2.32-.39 4.25-1.09a4.072 4.072 0 0 0 2.44-1.08 3.378 3.378 0 0 0 .9-2 2.999 2.999 0 0 0-.46-1.84 2.07 2.07 0 0 0-1.47-.83c-1.79-.18-3.37-1.46-5.47-2.29a5.997 5.997 0 0 0-6.66 1.54c-1.76 2-1.95 4.54-2 6.57-.065 1.07.019 2.143.25 3.19.118.542.279 1.073.48 1.59zM288 362.19a3.632 3.632 0 0 0-2-2.16 2.768 2.768 0 0 0-2.36.35 3 3 0 0 0-1.42 3 1.737 1.737 0 0 1-1.07 1.89 3.758 3.758 0 0 1-2.32.12 7.74 7.74 0 0 0-4.13-.29l-1.29.29-.69.19-.36.09c-.24 0-.47.04-.69.12a2.991 2.991 0 0 0-1.326.668c-.38.33-.67.75-.844 1.222a3.424 3.424 0 0 0 0 2.2 3.372 3.372 0 0 0 1.17 1.67 4.605 4.605 0 0 0 1.73.68c.88.23 1.76.61 2.7.95a10.006 10.006 0 0 0 6.4.56 9.652 9.652 0 0 0 6.13-4.11 8.476 8.476 0 0 0 1.28-3.75 6.519 6.519 0 0 0-.91-3.69zm-61.68 42.63a8.052 8.052 0 0 0 0 6c.186.458.403.902.65 1.33a3.25 3.25 0 0 0 1.37 1.24 3.398 3.398 0 0 0 1.59.26h1.13l1.12.08a3.077 3.077 0 0 0 1.81-.48 3.216 3.216 0 0 0 1.1-3.52s0-.06-.05-.09h.28c1 .05 2.1.17 3.31.2h2a9.484 9.484 0 0 0 2.79-.47 7.043 7.043 0 0 0 4.22-4.07 7.995 7.995 0 0 0 .28-4.84 12.012 12.012 0 0 0-.66-2 4.049 4.049 0 0 0-.7-1.27 2.13 2.13 0 0 0-1.38-.67 2.588 2.588 0 0 0-2.8 2.87c.29 1.39-.65 3-1.74 2.67a6.07 6.07 0 0 1-1.69-.84 12.443 12.443 0 0 0-2.5-1 8.62 8.62 0 0 0-5.67.25 7.922 7.922 0 0 0-4.46 4.35zm50.46 25.35c.305-.526.562-1.079.77-1.65a3.63 3.63 0 0 0-.05-2.5c-1.27-3-4.57-2.58-5.29-1.23-.76 1.08-2.56.86-3.44 0-.88-.86-1.11-1.08-1.95-1 0 .17-.86-.32-1.77-.34a3.387 3.387 0 0 0-2.37.79 3.847 3.847 0 0 0-1.18 3.26 3.682 3.682 0 0 0 1.47 2.56c.55.51 1.12 1.1 1.77 1.64a7.258 7.258 0 0 0 4.85 1.84 8.528 8.528 0 0 0 5.24-1.39 7.555 7.555 0 0 0 1.95-1.98zm-87.28 67.46a9.626 9.626 0 0 0-1.71.62 3.637 3.637 0 0 0-1.73 1.8c-1.2 3 1.4 5.06 2.87 4.61 1.3-.23 2.41 1.21 2.46 2.4.05 1.19 0 1.55.66 2.1.13-.1.38.84 1 1.5a3.414 3.414 0 0 0 2.25 1.11 3.857 3.857 0 0 0 3.13-1.46 3.67 3.67 0 0 0 .77-2.85c0-.76 0-1.57-.09-2.42a7.236 7.236 0 0 0-2.13-4.73 8.46 8.46 0 0 0-4.69-2.71 7.275 7.275 0 0 0-2.79.03zm205.19-210.35c.302-.526.557-1.078.76-1.65a3.689 3.689 0 0 0 0-2.5c-1.28-3-4.57-2.59-5.3-1.23-.75 1.08-2.55.85-3.43 0-.88-.85-1.11-1.08-1.95-1 0 .16-.86-.32-1.77-.35a3.417 3.417 0 0 0-2.38.8 3.826 3.826 0 0 0-1.17 3.25 3.642 3.642 0 0 0 1.47 2.57c.55.51 1.11 1.09 1.77 1.64a7.241 7.241 0 0 0 4.85 1.84 8.551 8.551 0 0 0 5.23-1.4 7.572 7.572 0 0 0 1.92-1.97zm-135.63 88.44a9.873 9.873 0 0 0-1.35-1.21 3.7 3.7 0 0 0-2.4-.7c-3.21.35-3.82 3.61-2.73 4.7.8 1 .06 2.7-1 3.3-1.06.6-1.36.75-1.55 1.57.15.07-.56.72-.85 1.59a3.362 3.362 0 0 0 .06 2.5 3.83 3.83 0 0 0 2.77 2.08 3.671 3.671 0 0 0 2.88-.65c.65-.38 1.37-.75 2.09-1.22a7.212 7.212 0 0 0 3.18-4.09 8.414 8.414 0 0 0 .2-5.41 7.442 7.442 0 0 0-1.3-2.46zm-14 52.47c-1 .69-2.57.44-4.23.62a3.937 3.937 0 0 0-3.5 3c-.5 1.77.3 3.64.61 5 .081.51.263.998.536 1.436a3.841 3.841 0 0 0 3.994 1.734 3.154 3.154 0 0 0 1.91-1.3 4.462 4.462 0 0 0 .76-2.1.672.672 0 0 1 .51-.28 3.266 3.266 0 0 0 1.52-.81c.419-.346.82-.713 1.2-1.1 0-.06.38-.35.68-.65.289-.327.535-.69.73-1.08a3.469 3.469 0 0 0 .21-2.51 3.418 3.418 0 0 0-2.53-2.34 3.177 3.177 0 0 0-2.4.38zm20.4 63.62a.408.408 0 0 0 .23.15l-.1-.17-.13.02zm33.19 3.1a1.002 1.002 0 0 1-.45-.35c.06-.2-.33.29-.5.49a3.646 3.646 0 0 0-.49 1 3.726 3.726 0 0 0 1.59 4.19 3.923 3.923 0 0 0 3.11.29 3.914 3.914 0 0 0 2.33-2.08c.52-1.18 1.2-2.18 1.82-3.61a5.45 5.45 0 0 0 .453-2.319 5.451 5.451 0 0 0-.573-2.291 6.227 6.227 0 0 0-3.74-3.53 5.328 5.328 0 0 0-1.37-.26 5.12 5.12 0 0 0-2 .18 3.6 3.6 0 0 0-2.52 3 3.655 3.655 0 0 0 .82 2.91 2.911 2.911 0 0 0 2 .95.756.756 0 0 1 .549.323.764.764 0 0 1 .111.627.82.82 0 0 1-1.14.48zm-105.24-16.35c.899.187 1.834.06 2.65-.36 1.09-.52 2.23-.74 3.61-1.33a5.163 5.163 0 0 0 3-3.3 6.257 6.257 0 0 0-.16-4.85 6.997 6.997 0 0 0-.81-1.2 4.558 4.558 0 0 0-1.77-1.36 3.517 3.517 0 0 0-3.86.71 3.668 3.668 0 0 0-1.06 2.72c.052.69.291 1.354.69 1.92a.616.616 0 0 1 .061.575.629.629 0 0 1-.441.375.93.93 0 0 1-1-.65c-.01-.1-.01-.2 0-.3 0-.11-.51-.05-.76 0a3.451 3.451 0 0 0-1.93 1 3.674 3.674 0 0 0-.72 4 3.74 3.74 0 0 0 2.5 2.05zM316.92 455a3.528 3.528 0 0 0 .8 2.47 3.347 3.347 0 0 0 3.4 1.09 3.09 3.09 0 0 0 2-1.52c.31-.6.74-1.09 1.22-1.84a4.94 4.94 0 0 0 .67-3 4.343 4.343 0 0 0-3.35-3.9c-1.54-.33-3.17.2-4.43-.06a6.029 6.029 0 0 1-1.86-.73 3.061 3.061 0 0 0-1.905-.114 3.06 3.06 0 0 0-1.605 1.034 3.946 3.946 0 0 0-.79 4 4 4 0 0 0 1.5 2c.82.56 1.11.63 1.36.81.92.614 1.89 1.149 2.9 1.6.2.06.39.16.45.12.06-.04 0 .11-.49-1.2a3.015 3.015 0 0 1 0-1.33c.08-.49.58-1.16.35-.7-.126.412-.2.839-.22 1.27zm6.97 66.21a3.622 3.622 0 0 0 1.27 3 3.004 3.004 0 0 0 2.25.63c1.13-.19 2.45.61 4.08.93a3.663 3.663 0 0 0 3.94-1.63c.83-1.34.78-3 1.25-4.25a3.649 3.649 0 0 0-6.2-3.62 5.38 5.38 0 0 1-1.05.6c-.62.26-1.15.26-1.59.5l-.35.21-.2.12a.461.461 0 0 0-.1.07l-.5.13a3.79 3.79 0 0 0-2.8 3.31zm-82.68-64.03a7.719 7.719 0 0 0 1.4-2.88 5.082 5.082 0 0 0 .11-1.56 4.814 4.814 0 0 0-.53-2.44 3.224 3.224 0 0 0-3.75-1.58 2.7 2.7 0 0 0-2 2 2.077 2.077 0 0 1-1.285 1.398c-.31.114-.642.153-.97.114a2.085 2.085 0 0 1-.915-.342c-.93-.76-.68-1-1.52-1a4.408 4.408 0 0 0-2.63-.74 3.648 3.648 0 0 0-2.24 1 3.555 3.555 0 0 0-.95 3.77c.216.523.559.984 1 1.34.32.25.59.57.92.83a20.584 20.584 0 0 0 2.06 1.75c3.09 2.6 8.56 1.82 11.3-1.66zm42.25-59.31a6.733 6.733 0 0 0 3.65-.83 3.136 3.136 0 0 0 1.52-2.06 3.8 3.8 0 0 0-.48-2.71 3.517 3.517 0 0 0-2.13-1.52 2.805 2.805 0 0 1 0-.29l.1-1.27v-1.88a8.572 8.572 0 0 0-1.46-4.21 8.759 8.759 0 0 0-2.649-2.512 8.764 8.764 0 0 0-3.441-1.218 5.351 5.351 0 0 1-.75-.18 3.633 3.633 0 0 0-1.45-.39 2.994 2.994 0 0 0-2.35 1 2.406 2.406 0 0 0-.785 1.775 2.399 2.399 0 0 0 .785 1.775 10.198 10.198 0 0 1 2.13 2.22 3.5 3.5 0 0 1 .78 2.48 6.143 6.143 0 0 0-.47 1.89 7.899 7.899 0 0 0 .5 3.52 7.721 7.721 0 0 0 6.5 4.41zm.09-7c.265-.136.563-.195.86-.17h.06c-.393.07-.776.187-1.14.35a.486.486 0 0 1 .22-.17v-.01zm-21.94 22.19c1.358.551 2.805.85 4.27.88a10.838 10.838 0 0 0 7.91-2.64l.81-.85c.4-.559.641-1.216.7-1.9a4.192 4.192 0 0 0-1.86-3.76 4.345 4.345 0 0 0-4.72-.15 5.208 5.208 0 0 0-1.62 1.63c-.07 0-.13.1-.18.08-.05-.02.16-.29.09-.35s-.17-.24-.28-.38a1.95 1.95 0 0 1-.32-1c-.05-.78.084-1.561.39-2.28.181-.5.426-.974.73-1.41a3.155 3.155 0 0 0 1-2.8c-.41-1.8-2.38-2.66-3.62-1.79-2 1.33-4.47 2.35-6.5 4.69a7.505 7.505 0 0 0-.48 9 8.532 8.532 0 0 0 3.68 3.03zM366.2 312.45a12.17 12.17 0 0 0 4.27.88 10.875 10.875 0 0 0 7.91-2.64l.81-.86a3.761 3.761 0 0 0 .7-1.89 4.217 4.217 0 0 0-1.86-3.77 4.328 4.328 0 0 0-4.72-.14 5.316 5.316 0 0 0-1.62 1.62c-.07.05-.13.11-.18.09-.05-.02.16-.3.09-.35-.07-.05-.17-.24-.28-.38a1.94 1.94 0 0 1-.32-1 5.048 5.048 0 0 1 .39-2.29c.185-.498.43-.972.73-1.41a3.124 3.124 0 0 0 1-2.79c-.41-1.8-2.38-2.66-3.62-1.8-2 1.34-4.47 2.36-6.5 4.7a7.504 7.504 0 0 0-.48 9 8.604 8.604 0 0 0 3.68 3.03zm79 158.16c1.355.549 2.798.847 4.26.88a10.838 10.838 0 0 0 7.91-2.64l.81-.85c.4-.559.641-1.216.7-1.9a4.165 4.165 0 0 0-1.86-3.76 4.327 4.327 0 0 0-4.72-.15 5.166 5.166 0 0 0-1.61 1.63c-.08 0-.14.1-.18.08-.04-.02.15-.3.09-.35a1.582 1.582 0 0 0-.28-.38 1.856 1.856 0 0 1-.33-1c-.05-.78.084-1.561.39-2.28a6.38 6.38 0 0 1 .73-1.42 3.124 3.124 0 0 0 1-2.79c-.4-1.8-2.38-2.66-3.62-1.8-2 1.34-4.47 2.36-6.5 4.7a7.527 7.527 0 0 0-1.738 4.42 7.525 7.525 0 0 0 1.258 4.58 8.571 8.571 0 0 0 3.69 3.03zm45.23-92.2c1.354.551 2.799.846 4.26.87a10.787 10.787 0 0 0 7.91-2.64l.81-.85a3.8 3.8 0 0 0 .7-1.9 4.173 4.173 0 0 0-1.86-3.76 4.328 4.328 0 0 0-4.72-.14 5.155 5.155 0 0 0-1.61 1.62c-.08.05-.14.11-.18.08-.19-.05.15-.29.09-.35s-.17-.23-.28-.38a1.787 1.787 0 0 1-.33-1 5.05 5.05 0 0 1 .39-2.29c.185-.498.43-.972.73-1.41a3.142 3.142 0 0 0 1-2.79c-.4-1.8-2.38-2.66-3.62-1.8-2 1.33-4.47 2.35-6.5 4.69a7.543 7.543 0 0 0-.48 9 8.638 8.638 0 0 0 3.69 3.05zm-159.94-44.02c.22 0 .77.41.86.49.09.08.19.18.23.19.04.01.05-.12 0-.26a8.856 8.856 0 0 0-.3-1.19 5.94 5.94 0 0 0-.71-1.47 28.286 28.286 0 0 0-1.85-2.36 3.414 3.414 0 0 0-2.16-1.61 3.561 3.561 0 0 0-2.26.25 2.942 2.942 0 0 0-1.58 1.63 3.85 3.85 0 0 0 .05 2.07c.167.961.258 1.934.27 2.91 0 1 0 2 .13 3a6.272 6.272 0 0 0 1.58 3.73 7.362 7.362 0 0 0 4.6 2.19 10.333 10.333 0 0 0 9.2-3.91c.09-.12.14-.2.27-.35.18-.168.347-.348.5-.54.32-.413.536-.897.63-1.41a2.887 2.887 0 0 0-.69-2.36 2.66 2.66 0 0 0-3.34-.69 6.659 6.659 0 0 1-2.69.56 7.905 7.905 0 0 1-2.79-.49c-.25-.07-.82-.46.05-.38zm-8.44 167.34c.32.095.615.263.86.49.16.15.2.18.23.19.03.01.05-.12 0-.26a7.977 7.977 0 0 0-.3-1.2 5.963 5.963 0 0 0-.71-1.46 26.31 26.31 0 0 0-1.85-2.36 3.396 3.396 0 0 0-2.16-1.61 3.561 3.561 0 0 0-2.26.25 2.942 2.942 0 0 0-1.58 1.63 3.85 3.85 0 0 0 .05 2.07c.168.961.258 1.934.27 2.91.05 1 0 2 .14 3a6.17 6.17 0 0 0 1.57 3.73 7.362 7.362 0 0 0 4.6 2.19 10.305 10.305 0 0 0 9.2-3.92c.09-.11.14-.19.28-.34.14-.15.35-.36.5-.54.311-.417.523-.899.62-1.41a2.887 2.887 0 0 0-.69-2.36 2.646 2.646 0 0 0-3.34-.69 6.659 6.659 0 0 1-2.69.56 7.905 7.905 0 0 1-2.79-.49c-.25-.11-.82-.47.05-.38zm-8.69-157.89v-.07.07zM302 346a3.3 3.3 0 0 0 1.24 1.58c.422.312.859.602 1.31.87a6.1 6.1 0 0 0 3.31.92 5.383 5.383 0 0 0 4-2.17 8.824 8.824 0 0 0 1.46-3.34v-.07c.18-.39.08-.13 0 0 .275-.339.576-.657.9-.95.279-.262.539-.543.78-.84.146-.146.279-.303.4-.47.38-.283.717-.62 1-1 2.16-3.41-1.27-6.08-2.93-5-1.42.68-3.23.31-5.3.68a5.25 5.25 0 0 0-4.29 4.74 2.248 2.248 0 0 0 0 .75 2.587 2.587 0 0 0-1.23.75A3.491 3.491 0 0 0 302 346zm3.84-4.6c.23.05.3.13.29.17-.01.04-.64 0-1.3 0l.11-.06c.29-.135.614-.18.93-.13l-.03.02zm-22.1 69.03a3 3 0 0 0-.64 2.15 2.941 2.941 0 0 0 1.89 2.56 1.622 1.622 0 0 1 1.21 1.67 11.205 11.205 0 0 1-.92 2.32 4.735 4.735 0 0 0 .09 3.71 5.154 5.154 0 0 0 3.09 2.74c.769.21 1.564.307 2.36.29a1.59 1.59 0 0 1 .39 0c.13.06.15 0 .5.34a3.123 3.123 0 0 0 2.06.93 3.294 3.294 0 0 0 3.16-2.15 3.384 3.384 0 0 0 0-2.2 8.863 8.863 0 0 0-.68-1.61 9.414 9.414 0 0 0-2-2.45c.04-.161.07-.325.09-.49a9.16 9.16 0 0 0 0-2 7.996 7.996 0 0 0-1.39-3.64 7.058 7.058 0 0 0-6.42-3.24 3.352 3.352 0 0 0-2.79 1.07zm10.19 8.09c-.42-.33-.69-.52-.67-.61.02-.09.45.26.67.61zm49.51 12a4.909 4.909 0 0 1-4.84-.3 1.94 1.94 0 0 1-.72-1 5.22 5.22 0 0 0-.82-.78c-.25-.2-.53-.47-.83-.76l-.47-.45a4.557 4.557 0 0 0-.9-1 3.627 3.627 0 0 0-4.32-.09 2.688 2.688 0 0 0-.786.8 2.68 2.68 0 0 0-.394 1.05 5.258 5.258 0 0 0 .27 1.79c.22.86.32 1.81.54 2.81a7.671 7.671 0 0 0 4.06 5.57 9.832 9.832 0 0 0 7.07.83 9.002 9.002 0 0 0 5.09-3.33 3.348 3.348 0 0 0 1.28-2.68 2.997 2.997 0 0 0-2.831-2.754 2.992 2.992 0 0 0-1.399.264v.03zm37.96-79.99a9.72 9.72 0 0 0 1.08 2.26l.24.45.08.07a4.538 4.538 0 0 0-.47.51 3.267 3.267 0 0 0 .22 3.54c.392.565.947.997 1.59 1.24a5.39 5.39 0 0 0 2 .21 5.176 5.176 0 0 0 3.5-1.86 6.696 6.696 0 0 0 1.4-3.57v-1.56c0-.276.03-.551.09-.82.14-.28 0 .16.1-.1a6.67 6.67 0 0 1 .7-1.19c.191-.307.364-.624.52-.95l.32-.6a4.41 4.41 0 0 0 .67-1.2c1.1-3.84-2.87-5.45-4.18-4-1.19 1-3 1.08-4.93 1.93a5.182 5.182 0 0 0-2.93 5.64zm2.47 2-.12.05-.23.12a2.39 2.39 0 0 0-.42.26c.07-.06.17-.15.41-.33a1.23 1.23 0 0 1 .36-.07v-.03zM401 293.72c.267.797.63 1.559 1.08 2.27l.25.44a.32.32 0 0 0 .08.08 2.717 2.717 0 0 0-.47.5 3.24 3.24 0 0 0 .21 3.54c.394.567.952 1 1.6 1.24a5.305 5.305 0 0 0 2 .21 5.128 5.128 0 0 0 3.5-1.86 6.662 6.662 0 0 0 1.4-3.57c.036-.309.053-.619.05-.93v-.63a3.864 3.864 0 0 1 .08-.81c.14-.29 0 .15.1-.11.198-.416.432-.815.7-1.19.191-.307.364-.624.52-.95l.32-.6a4.41 4.41 0 0 0 .67-1.2c1.1-3.84-2.87-5.44-4.18-4-1.18 1-3 1.09-4.93 1.93a5.196 5.196 0 0 0-2.98 5.64zm2.48 2-.12.06-.23.11c-.149.07-.287.161-.41.27.121-.127.255-.241.4-.34.115-.042.237-.062.36-.06v-.04zm-42.94 23.56a.801.801 0 0 1 0-.12c.06-.18-.25-.78-.61-1.14a3.681 3.681 0 0 0-1.21-.88 3.471 3.471 0 0 0-1.67-.29 3.591 3.591 0 0 0-1.09.3c-.169.11-.354.191-.55.24a4.288 4.288 0 0 0-2.15 1.73c-.54.8-.89 1.86-1.41 2.71a3.828 3.828 0 0 0-.48 4.18 3.126 3.126 0 0 0 1.82 1.62 4.539 4.539 0 0 0 2.64-.27 9.21 9.21 0 0 0 1.79-.46 3.571 3.571 0 0 0 2 .4 3.172 3.172 0 0 0 2.79-2.85c.01-.157.01-.314 0-.47a2.98 2.98 0 0 0 .37-.71 3.224 3.224 0 0 0-.292-2.46 3.22 3.22 0 0 0-1.948-1.53zM345.6 377a7.389 7.389 0 0 0-3.15 1.11c-.46.303-.865.682-1.2 1.12a4.474 4.474 0 0 0-1.2 2.24c-.37 3.76 3.36 4.64 4.53 3.45a1.461 1.461 0 0 1 1.79-.07c.58.41.33.94.39 1.58a3.673 3.673 0 0 0 2 2.59 4.624 4.624 0 0 0 3.48.3c.86-.28 1-.68 1.78-.95a3.677 3.677 0 0 0 3-2.3 3.078 3.078 0 0 0-.46-3.38 7.454 7.454 0 0 0-2.92-1.33c-.75-.22-1.44-.62-1.32-.84.46 0 .27-.22-.28-1a7.57 7.57 0 0 0-6.44-2.52zm-1.14-11.77a14.073 14.073 0 0 1-1.2-1.23 5.307 5.307 0 0 0-3.24-1.84 6.328 6.328 0 0 0-3.83.25 5 5 0 0 0-2.7 2.55 3.404 3.404 0 0 0 .43 3.4c.28.392.636.724 1.046.977.411.252.868.42 1.344.493a3.752 3.752 0 0 0 1.92-.36c.81-.42 2 .47 2.31 1.45.107.343.241.677.4 1l.06.05c.12.07.248.127.38.17a3 3 0 0 0 .87.21 3.441 3.441 0 0 0 3.77-2.7 4.828 4.828 0 0 0-.13-2.57 3.628 3.628 0 0 0-1.43-1.85zm153.32 109.53a14.1 14.1 0 0 1-1.19-1.23 5.33 5.33 0 0 0-3.25-1.84 6.296 6.296 0 0 0-3.82.25 5.002 5.002 0 0 0-2.71 2.55 3.435 3.435 0 0 0 .44 3.4 3.692 3.692 0 0 0 2.39 1.47 3.783 3.783 0 0 0 1.92-.36c.81-.42 2 .47 2.3 1.44.104.346.241.681.41 1l.06.05c.118.065.242.118.37.16.278.114.571.188.87.22a3.439 3.439 0 0 0 3.78-2.7 4.828 4.828 0 0 0-.13-2.57 3.64 3.64 0 0 0-1.44-1.84zm-130.1-191.08a12.679 12.679 0 0 1-1.2-1.22 5.307 5.307 0 0 0-3.24-1.84 6.336 6.336 0 0 0-3.83.25 5 5 0 0 0-2.7 2.55 3.455 3.455 0 0 0 .43 3.4 3.711 3.711 0 0 0 2.39 1.47 3.801 3.801 0 0 0 1.93-.36c.8-.42 2 .47 2.3 1.44.104.346.241.681.41 1h.05c.121.066.248.12.38.16.279.112.572.186.87.22a3.59 3.59 0 0 0 1.83-.28 3.48 3.48 0 0 0 1.94-2.42 4.827 4.827 0 0 0-.12-2.57 3.715 3.715 0 0 0-1.44-1.8zm152.22 78.48a15.522 15.522 0 0 1-1.2-1.22 5.307 5.307 0 0 0-3.24-1.84 6.412 6.412 0 0 0-3.83.24 5 5 0 0 0-2.7 2.55 3.432 3.432 0 0 0 .43 3.4c.28.392.636.724 1.046.977.411.252.868.42 1.344.493a3.716 3.716 0 0 0 1.93-.36c.8-.41 2 .47 2.3 1.45.103.344.237.679.4 1l.06.06c.123.062.25.116.38.16a3 3 0 0 0 .87.21 3.401 3.401 0 0 0 3.77-2.69 4.854 4.854 0 0 0-.12-2.58 3.697 3.697 0 0 0-1.44-1.85zm-16.32 65.2c-.4-.33-.76-.78-1.19-1.22a5.307 5.307 0 0 0-3.24-1.84 6.327 6.327 0 0 0-3.83.24 5 5 0 0 0-2.7 2.55 3.404 3.404 0 0 0 .43 3.4c.28.392.636.724 1.046.977.411.252.868.42 1.344.493a3.658 3.658 0 0 0 1.92-.36c.81-.41 2 .47 2.31 1.45.105.344.239.678.4 1l.06.06c.123.062.25.116.38.16a3 3 0 0 0 .87.21 3.435 3.435 0 0 0 1.82-.27 3.497 3.497 0 0 0 1.95-2.42 4.865 4.865 0 0 0-.13-2.58 3.582 3.582 0 0 0-1.44-1.85zM453 414.09a3.451 3.451 0 0 0-2.58.73c-1 .93-2.7 1.75-4 3.24a4.804 4.804 0 0 0-1.12 4.67c.45 1.5 1.63 2.82 1.84 4.14a3.326 3.326 0 0 0 1.53 2.75 3.593 3.593 0 0 0 3.65.11 3.768 3.768 0 0 0 1.55-1.87c.29-.95.35-1 .49-1.43.215-.674.382-1.363.5-2.06.13-.68.27-1.37.36-2.05.081-.603.121-1.212.12-1.82 0-.43-.05-.47-.26-.48-.21-.01-.35 0-.22-.37.647-.754.98-1.728.93-2.72a3.077 3.077 0 0 0-2.79-2.84zm-60.34-7.77s0 .09 0 0l.25-.17.5-.35a7.434 7.434 0 0 0 2.3-2.55 7.78 7.78 0 0 0-2-10 3.323 3.323 0 0 0-2.69-1.29 2.891 2.891 0 0 0-2 1.06 2.997 2.997 0 0 0-.48 3.17 2.804 2.804 0 0 1 .07 2.37 2.42 2.42 0 0 1-1.66 1.22c-1 0-3.41 1.47-4 4.29a6.368 6.368 0 0 0 3.18 6.5c1.42 1.53 6.29 1 5.53-3.44l.34-.13c.24-.24.46-.54.66-.68zm-2.34-1s-.11-.07 0 0c.108.043.212.097.31.16.181.13.343.285.48.46.169.226.298.48.38.75v.07a3.76 3.76 0 0 0-.62-1 5.875 5.875 0 0 0-.55-.42v-.02zm126.41 56.15s0 .1 0 0l.25-.17.49-.35a7.53 7.53 0 0 0 2.3-2.55 7.654 7.654 0 0 0 1-4 7.56 7.56 0 0 0-3-5.94 3.345 3.345 0 0 0-2.68-1.3 2.915 2.915 0 0 0-2 1.07 3.005 3.005 0 0 0-.49 3.17 2.72 2.72 0 0 1 .07 2.36A2.403 2.403 0 0 1 511 455c-1 0-3.4 1.47-4 4.29a6.363 6.363 0 0 0 3.19 6.5c1.41 1.53 6.28 1 5.52-3.45.102-.066.196-.143.28-.23.32-.2.55-.5.74-.64zm-2.33-1s-.12-.06 0 0c.104.045.204.099.3.16.183.124.345.276.48.45.174.227.303.485.38.76v.07a3.573 3.573 0 0 0-.63-1c-.16-.13-.34-.28-.53-.43v-.01zm-83-29.15a4.003 4.003 0 0 0 1.66-2.21 3.894 3.894 0 0 0 .11-1.56c0-.43.17-.39.29-.44.56.2 1.21.19 2.5-1.15a6.122 6.122 0 0 0 1-1.32 7.01 7.01 0 0 0 .62-1.79 5.833 5.833 0 0 0-.48-3.65 5.739 5.739 0 0 0-2.79-2.69A5.255 5.255 0 0 0 432 416a4.363 4.363 0 0 0-2.36.88 3.714 3.714 0 0 0-1.41 3.63c.069.573.343 1.102.77 1.49-.345.127-.679.28-1 .46a6.313 6.313 0 0 0-1.76 1.39l-.21.29c-.06.06-.22.45-.25.49-.1.21-.2.43-.28.65a6.568 6.568 0 0 0-.3 1.4 4.379 4.379 0 0 0 .53 2.65 8.135 8.135 0 0 0 2.18 2.2 3.127 3.127 0 0 0 1.777.43 3.129 3.129 0 0 0 1.713-.64zm-33.25-65.09c-1.51.67-3.65 1.44-5.14 3.41a8.352 8.352 0 0 0-1.3 2.69c-.22.69-.17.55.07.62a3.77 3.77 0 0 1-.77 1.48c-.16.25-.38.39-.35.53a3.996 3.996 0 0 0-2.06.3 3.223 3.223 0 0 0-1.46 3.52c.154.73.553 1.387 1.13 1.86a6.566 6.566 0 0 0 1.7 1 8 8 0 0 0 6.78-.63 9.127 9.127 0 0 0 2.93-2.28 8.1 8.1 0 0 0 1.64-3.54c.36-2.94.13-3.52-.91-3.47 3.04-3.14-.35-6.72-2.26-5.49zm1.9-22.47a4.065 4.065 0 0 0-1.92 4.35c.34 1.72 1.74 3 2.44 4.14.17.3.37.58.51.89a3.37 3.37 0 0 0 4.15 1.76 3.661 3.661 0 0 0 2.66-3.2 4.997 4.997 0 0 0-.35-2.19 2.01 2.01 0 0 1 .06-.37c.13-.49.44-.82.44-1.06 0-.24 0-.25-.05-.47 0 0-.05-.05 0-.13l.39-.47a4.92 4.92 0 0 0 .55-1.1c.25-.736.25-1.534 0-2.27a3.642 3.642 0 0 0-2.4-2.38 2.526 2.526 0 0 0-2.45.52c-.89.83-2.47 1.06-4.03 1.98zM398.43 313a3.257 3.257 0 0 0-3.46.82 3.312 3.312 0 0 0-1 2.28c0 1.28-1.68 1.87-2.72 1.42-.51-.15-.87-.38-1.11-.41a.731.731 0 0 0-.36 0 .478.478 0 0 0-.17.07c-.08 0-.73.06-1.05.16a3.84 3.84 0 0 0-2.22 1.58 3.448 3.448 0 0 0-.47 2.2 4.197 4.197 0 0 0 1.72 2.8c.421.282.893.479 1.39.58.48.09.74.09 1.13.19.72.09 1.5.3 2.33.36a6.692 6.692 0 0 0 4.94-1.31 8.101 8.101 0 0 0 3.24-4.19c.266-.87.364-1.783.29-2.69a6.015 6.015 0 0 0-.52-2.05 3.355 3.355 0 0 0-1.96-1.81zm20.96 9.63c.244-.392.423-.821.53-1.27a3.33 3.33 0 0 0-1.61-3.69 2.533 2.533 0 0 0-2.85.1c-1.19.85-2.92 1.65-4.45 2.69a8.237 8.237 0 0 0-.88.7c.28-.05.38 0 .28.14a1.912 1.912 0 0 1-.84.27h-.06c-.331.05-.665.08-1 .09a3.508 3.508 0 0 0-2.24.45 3.003 3.003 0 0 0-1.23 1.57 3.599 3.599 0 0 0 .39 3.29c.363.449.795.837 1.28 1.15l1 .78a6.46 6.46 0 0 0 6.09 1.1 7.397 7.397 0 0 0 3.22-2 8.434 8.434 0 0 0 1.59-2.59 5.753 5.753 0 0 0 .42-1.55.921.921 0 0 0-.17-.46c0-.07-.14 0 .05-.2a4.15 4.15 0 0 0 .48-.57z" fill="#174f78"/><path d="m410 321.27.12-.11c-.32 0-.63.38-.58.41h.05c.152-.077.291-.178.41-.3zm42.31 82.94a11.007 11.007 0 0 0 3.63-3.74 20.37 20.37 0 0 0 2.11-3.93c.222-.606.409-1.223.56-1.85.068-.33.108-.664.12-1-.11-.1.48-1.34.34-2.29a2.999 2.999 0 0 0-1.32-2.33 3.358 3.358 0 0 0-1.85-.51 3.088 3.088 0 0 0-2.54 1.33c-.79 1.28-2.38 2.19-3.83 3.29a5.456 5.456 0 0 0-2.33 3.82c-.07.72-.05 1.45-.08 2.21a12.687 12.687 0 0 1-.61 2.72 3.001 3.001 0 0 0 2 2.9 3.574 3.574 0 0 0 3.8-.62zm-13.6-9.41a9.473 9.473 0 0 0 2.64-1.41 7.214 7.214 0 0 0 2.38-3.39 5.05 5.05 0 0 0 .2-2.15 5.998 5.998 0 0 0-.66-2.17 3.44 3.44 0 0 0-2-1.74 3.356 3.356 0 0 0-2.08.09 2.51 2.51 0 0 0-1.74 2.56c0 .63-.77 1.05-1.56 1.09-.79.04-1.71-.08-2.75 0a3.646 3.646 0 0 0-1.88.66c-.57.38-1.06.869-1.44 1.44a6.18 6.18 0 0 0-.7 1.43c-.05.21 0 .28.06.34.28.09.21.61-.72 1.33a3.476 3.476 0 0 0-1.39 2 3.695 3.695 0 0 0 .08 2 3.318 3.318 0 0 0 1.09 1.61 2.792 2.792 0 0 0 2 .51c1.09-.19 1.8-.17 2.88-.37a5.703 5.703 0 0 0 3.28-1.63c1-1.05 1.37-2 1.64-2.18.27-.18.15 0 .08.16.202-.04.4-.1.59-.18zm48.12-8.17a3.46 3.46 0 0 0-1-2.3 3.278 3.278 0 0 0-5.3.62c-.51 1.12-1.94 1.95-2.87 3.68a7.997 7.997 0 0 0-.52 2.35c.008.504.131 1 .36 1.45a3.896 3.896 0 0 0 .46 3 3.563 3.563 0 0 0 2.32 1.73c.92.254 1.887.282 2.82.08a5.257 5.257 0 0 0 4-4.59c.164-1.335.1-2.687-.19-4-.06-.17-.16 0-.32-.12l-.07-.06s.1-.34.13-.5c.128-.435.188-.887.18-1.34zm-6.95 3.37a.565.565 0 0 0 0 .13 2.668 2.668 0 0 0-.69.23c-.351.187-.668.43-.94.72.06-.09.08-.17.15-.26.388-.432.909-.72 1.48-.82zm-24.99 48.08a3.599 3.599 0 0 0-2.49 1.09 3.677 3.677 0 0 0-.6 3.74 3.593 3.593 0 0 0 2.36 2.12c.906.41 1.878.654 2.87.72a7.442 7.442 0 0 0 5.48-2.18 11.315 11.315 0 0 0 3.12-4.18c.315-.787.53-1.61.64-2.45a5.3 5.3 0 0 0 0-1.32 4.61 4.61 0 0 0-.56-2.52 3.193 3.193 0 0 0-3.78-1.43 2.79 2.79 0 0 0-1.95 2c-.31 1.39-1.84 2.4-3.22 3-1.38.6-2.45 1-1.39 1.08.11.14.81.47-.48.33zm-82.15-54.72a6.847 6.847 0 0 0-2.72-.3l-1 .13a5.08 5.08 0 0 0-1.24.49 3.437 3.437 0 0 0-1.65 2.08 3.376 3.376 0 0 0 1 3.33 3.514 3.514 0 0 0 2.25.93c.278.011.544.116.755.297.21.182.353.43.405.703a1.395 1.395 0 0 1-.58 1.38 1.339 1.339 0 0 1-.83.23s0-.05-.1.2a3.596 3.596 0 0 0-.34 1.17 3.903 3.903 0 0 0 .47 2.49 3.83 3.83 0 0 0 3.58 1.87 3.263 3.263 0 0 0 2.88-1.95c.49-1.45 1.16-2.53 1.75-4.17 1.37-3.24-1.03-7.69-4.63-8.88zM157.08 258.7c-.77-.72-1.44-1.39-2-1.84-.56-.45-.81-.61-1.35-1.06a14.016 14.016 0 0 1-1.87-2.07l-2.1-3a3.217 3.217 0 0 0-4.46-.36 2.686 2.686 0 0 0-.84 2.77 6.17 6.17 0 0 1 .25 1.62c.11 2 0 4.31 1.51 6.92a11.603 11.603 0 0 0 6.44 5.12c2.125.779 4.415 1 6.65.64a17.767 17.767 0 0 1 2.1-.16 3.085 3.085 0 0 0 2.17-1.52c.36-.649.467-1.408.3-2.13a2.003 2.003 0 0 0-1.36-1.39 13.688 13.688 0 0 1-5.44-3.54zM149 276a3.077 3.077 0 0 0-2 2.75c.015.583.144 1.157.38 1.69l.44 1.09a12.362 12.362 0 0 0 2.75 4.12 13.48 13.48 0 0 0 4.28 2.68 23.608 23.608 0 0 0 9.06 1.67 29.387 29.387 0 0 0 8.13-1.16c.66-.17 1.34-.37 2-.47a9.526 9.526 0 0 1 1.09-.18 2.748 2.748 0 0 0 1.58-.53 2.815 2.815 0 0 0 1.09-2.51 2.001 2.001 0 0 0-1.65-1.77 54.223 54.223 0 0 1-8.31-2.23 23.467 23.467 0 0 0-7.7-1.06c-2.34.07-5 .12-6.77-1.68l-.56-.73c-.19-.25-.31-.45-.66-1A2.762 2.762 0 0 0 149 276zm32.91 21.71a3.877 3.877 0 0 0 1.58-2.56c0-2.1-2.16-3.37-3.56-2.36a9.898 9.898 0 0 1-3.77 1.17 7.856 7.856 0 0 0-4.37 2.4A4.644 4.644 0 0 0 171 298c-.08.14 0-.36 0-.48s0-.16-.05-.16c-.31.13-.9.53-1.24.69-.71.416-1.465.752-2.25 1-2.14.74-4.67 1.65-7.23 1.25a13.339 13.339 0 0 0-2.31-.33 2.864 2.864 0 0 0-2.33 2 3.058 3.058 0 0 0 .83 3.22c.723.486 1.49.905 2.29 1.25a18.853 18.853 0 0 0 8.46 2.16 18.09 18.09 0 0 0 4.69-.46 11.672 11.672 0 0 0 4.77-2.25 10.317 10.317 0 0 0 1.87-2.05l.63-1c.243-.389.454-.797.63-1.22.66-1.56.21-1.71.7-2.53a8.65 8.65 0 0 1 1.45-1.38zM155 227.78a3.486 3.486 0 0 0-.14-2.26 3.995 3.995 0 0 0-2.66-2.3 3.818 3.818 0 0 0-2.86.74c-.763.379-1.495.817-2.19 1.31a6.759 6.759 0 0 0-2.63 4.94 9.819 9.819 0 0 0 .67 5 8.622 8.622 0 0 0 1.22 2l1.13 1.14a3.59 3.59 0 0 0 2.54 1 3.226 3.226 0 0 0 3-2.22 3.177 3.177 0 0 0-.22-2.61 4.085 4.085 0 0 1 .33-4 1.66 1.66 0 0 1 .68-.75s-.08 0-.09-.07a4.924 4.924 0 0 0 1.22-1.92zm62.45-13.98-.09.06c.08.03.18-.03.09-.06zm4.34 108.2 1.61-1.26a2.997 2.997 0 0 0 1.31-2.55 2.921 2.921 0 0 0-1-2.09 2.005 2.005 0 0 0-2.05-.32c-2.14.85-4.53.2-7.35.59a6.143 6.143 0 0 0-4.19 2.52 5.992 5.992 0 0 0-1 2.78 6.675 6.675 0 0 0 .24 2.53c.29.88.53 1.27.66 1.13.13-.14.23-.21.33-.2.1.01.06.18.18.2-.1.51-1.42 1.16-2.13 1.15h-.17c-.07 0-.38-.12-.56-.17a3.07 3.07 0 0 0-3.38 1.67 2.796 2.796 0 0 0 .28 3.06 6.832 6.832 0 0 0 2.11 1.49 9.285 9.285 0 0 0 8.84-.28 8.55 8.55 0 0 0 2.11-1.71 6.807 6.807 0 0 0 1.54-2.92 8.847 8.847 0 0 0 .21-2.64v-.8c-.16.33-.45.23.15-.31s1.31-1.09 2.26-1.87zm-35.17-3.6h.71l.51.05 1.06.1a7.001 7.001 0 0 0 4.34-.83 8.227 8.227 0 0 0 3.41-2.94c.417-.69.727-1.438.92-2.22a3.853 3.853 0 0 0-1.28-4.24 3.552 3.552 0 0 0-3.25-.5 2.922 2.922 0 0 0-1.73 1.62c-.43 1.07-2 1.38-3.19 1.17-1.19-.21-1.77-.17-2.42.49 0 .12-.77.42-1.31.95a3.49 3.49 0 0 0-1 1.92 3.817 3.817 0 0 0 .9 3 3.552 3.552 0 0 0 2.33 1.43zm143.08-4.81a3.644 3.644 0 0 0-2.57-1.94 2.702 2.702 0 0 0-2.26.64c-.85.76-2.39 1-3.84 2.09a3.767 3.767 0 0 0-1.09 4.71c.82 1.67 2.63 2.43 3.73 3.1.61.35 1.09.7 1.7 1.13a3.656 3.656 0 0 0 3.05.39 3.76 3.76 0 0 0 2.36-5.21 3.997 3.997 0 0 0-1.16-1.48 3.657 3.657 0 0 0 .08-3.43zm-.23 3.91a1.162 1.162 0 0 1-.41.6.417.417 0 0 1-.19.08.139.139 0 0 1-.09 0l.35-.39c.137-.17.255-.354.35-.55-.01.09.03.15-.01.26zm-.36-.92c-.41-.46.28-.36.39.33-.14-.11-.26-.25-.39-.33zM321.44 301a3.657 3.657 0 0 0-2.57-1.93 2.735 2.735 0 0 0-2.27.64c-.84.76-2.39 1-3.84 2.09a3.783 3.783 0 0 0-1.08 4.71c.82 1.67 2.63 2.43 3.73 3.1.61.35 1.08.7 1.69 1.13a3.684 3.684 0 0 0 3.06.38 3.835 3.835 0 0 0 2.59-2.64 3.792 3.792 0 0 0-.23-2.56 4.152 4.152 0 0 0-1.16-1.49 3.657 3.657 0 0 0 .08-3.43zm-.23 3.92a1.162 1.162 0 0 1-.41.6.58.58 0 0 1-.2.08.122.122 0 0 1-.08 0l.35-.39c.137-.17.255-.354.35-.55a1.25 1.25 0 0 1-.01.34v-.08zm-.36-.93c-.42-.45.28-.36.39.34-.14-.07-.24-.21-.39-.33v-.01zM318 356.78c.109.658.384 1.278.8 1.8.027.118.061.235.1.35.13.22.14.22.22.34l.45.53c.09.14-.07 0 .07.23.261.449.569.868.92 1.25a6.348 6.348 0 0 0 7.65 1.33 8.792 8.792 0 0 0 2.21-1.74l-.23.08a3.58 3.58 0 0 0 .83-.57 2.77 2.77 0 0 0 1.74-1.89 6.132 6.132 0 0 0 .17-3.16 5.005 5.005 0 0 0-2.57-3.15 4.68 4.68 0 0 0-4.35.14 3.223 3.223 0 0 0-1.28 1.16c-.06.13-.07.23.05.27.12.04.18 0 .29 0l.35.14c.33.12.69.49.61.59-.08.1-.26 0-.5-.14a9.13 9.13 0 0 0-1.57-.83 6.163 6.163 0 0 0-3.41-.48 2.845 2.845 0 0 0-2 1.24 3.763 3.763 0 0 0-.55 2.51zm5.13 3.11a3.678 3.678 0 0 1-.38.22h-.1l-.2.07h-.19c-.19 0 0 0 .1-.08l-.42-2.23c.162.212.336.416.52.61.352.346.766.624 1.22.82a3.208 3.208 0 0 1-.58.59h.03zm-37.39-45.75c.112.657.387 1.276.8 1.8.027.115.061.228.1.34.065.118.139.232.22.34l.45.53c.09.15-.07 0 .07.24.26.449.569.868.92 1.25A6.356 6.356 0 0 0 296 320a8.552 8.552 0 0 0 2.21-1.74l-.23.08c.305-.146.585-.338.83-.57a2.7 2.7 0 0 0 1.73-1.89 5.997 5.997 0 0 0 .18-3.16 5.005 5.005 0 0 0-2.57-3.15 4.714 4.714 0 0 0-4.35.14 3.223 3.223 0 0 0-1.28 1.16c-.06.13-.07.23 0 .27.07.04.18 0 .29 0l.35.14c.33.11.69.48.61.58-.08.1-.26 0-.5-.14a9.014 9.014 0 0 0-1.57-.82 6.278 6.278 0 0 0-3.41-.49 2.88 2.88 0 0 0-2 1.24 3.767 3.767 0 0 0-.55 2.49zm5.13 3.11-.38.21h-.1l-.2.07-.19.05c-.19 0 0 0 .1-.08l-.42-2.22c.17.2.33.42.52.61.355.341.768.615 1.22.81a3.29 3.29 0 0 1-.55.55zm-120.6 199.19c.112.657.387 1.276.8 1.8.029.115.066.229.11.34.06.122.13.239.21.35l.45.53c.09.14-.07 0 .07.23.268.446.579.865.93 1.25a6.334 6.334 0 0 0 7.64 1.33 9.007 9.007 0 0 0 2.22-1.74l-.23.08c.295-.156.571-.348.82-.57a2.74 2.74 0 0 0 1.74-1.9 6.063 6.063 0 0 0 .18-3.15 5.004 5.004 0 0 0-2.58-3.16 4.7 4.7 0 0 0-4.34.15 3.208 3.208 0 0 0-1.29 1.16c-.06.13-.06.23.05.26.099.022.199.039.3.05l.35.14c.33.11.68.49.6.58-.08.09-.26 0-.5-.13a8.792 8.792 0 0 0-1.57-.83 6.163 6.163 0 0 0-3.41-.48 2.845 2.845 0 0 0-2 1.24 3.753 3.753 0 0 0-.55 2.47zm5.13 3.11a2.04 2.04 0 0 1-.38.21h-.1l-.2.07h-.19c-.19 0 0 0 .1-.08l-.42-2.23c.162.212.336.416.52.61.354.345.767.622 1.22.82a3.228 3.228 0 0 1-.55.6zm157.11-219.08c.109.656.381 1.275.79 1.8.031.115.067.228.11.34.063.12.136.233.22.34l.44.54c.09.14-.06 0 .08.23.26.449.569.868.92 1.25a6.334 6.334 0 0 0 7.64 1.33 8.86 8.86 0 0 0 2.22-1.74l-.23.08c.299-.156.578-.347.83-.57a2.735 2.735 0 0 0 1.73-1.9 6.111 6.111 0 0 0 .18-3.16 4.994 4.994 0 0 0-2.58-3.15 4.734 4.734 0 0 0-4.34.14c-.526.265-.968.67-1.28 1.17-.06.13-.07.23 0 .26.099.022.199.039.3.05l.35.14c.33.11.68.49.6.58-.08.09-.26 0-.5-.14a9.014 9.014 0 0 0-1.57-.82 6.155 6.155 0 0 0-3.41-.48 2.845 2.845 0 0 0-2 1.24 3.682 3.682 0 0 0-.5 2.47zm5.12 3.11c-.121.079-.248.15-.38.21h-.09l-.21.08h-.18c-.19 0 0 0 .09-.07l-.42-2.23c.18.2.33.42.52.61.355.347.773.625 1.23.82-.162.215-.35.41-.56.58zM214.37 427c.109.656.381 1.275.79 1.8.029.115.066.229.11.34.062.123.136.24.22.35l.44.53c.09.14-.06 0 .07.23.268.446.579.865.93 1.25a6.334 6.334 0 0 0 7.64 1.33 8.86 8.86 0 0 0 2.22-1.74l-.23.08c.299-.156.578-.347.83-.57a2.735 2.735 0 0 0 1.73-1.9 6.063 6.063 0 0 0 .18-3.15 5.004 5.004 0 0 0-2.58-3.16 4.7 4.7 0 0 0-4.34.15c-.526.26-.97.661-1.28 1.16-.06.13-.07.23 0 .26.099.022.199.039.3.05l.35.14c.33.11.68.49.6.58-.08.09-.26 0-.5-.13a8.477 8.477 0 0 0-1.57-.83 6.155 6.155 0 0 0-3.41-.48 2.812 2.812 0 0 0-2 1.24 3.635 3.635 0 0 0-.5 2.47zm5.12 3.11a2.04 2.04 0 0 1-.38.21l-.09.05-.21.07-.19.05c-.18 0 0-.05.1-.08l-.42-2.23c.162.212.336.416.52.61.355.347.773.625 1.23.82a3.297 3.297 0 0 1-.56.46v.04zm230.65 54.26c.109.656.381 1.275.79 1.8.031.115.067.229.11.34.065.118.139.232.22.34l.44.53c.09.15-.06 0 .08.24.263.447.571.866.92 1.25a6.343 6.343 0 0 0 7.64 1.32 8.617 8.617 0 0 0 2.22-1.74l-.23.08c.303-.148.583-.34.83-.57a2.71 2.71 0 0 0 1.73-1.89 6.122 6.122 0 0 0 .18-3.16 4.994 4.994 0 0 0-2.58-3.15 4.684 4.684 0 0 0-2.187-.461 4.69 4.69 0 0 0-2.153.601c-.526.26-.97.661-1.28 1.16-.06.13-.07.23 0 .27.07.04.18 0 .3 0l.35.14c.33.12.68.49.6.59-.08.1-.26 0-.49-.14a8.914 8.914 0 0 0-1.58-.83 6.333 6.333 0 0 0-3.41-.48 2.845 2.845 0 0 0-2 1.24 3.717 3.717 0 0 0-.5 2.52zm5.17 3.15-.39.21h-.09l-.21.07-.18.05c-.19 0 0 0 .09-.08l-.42-2.22c.18.2.33.42.52.61a4.17 4.17 0 0 0 1.23.81 3.297 3.297 0 0 1-.59.51l.04.04zm43.53-74.19c.115.656.39 1.275.8 1.8.026.116.063.23.11.34.059.119.13.233.21.34l.45.53c.09.15-.07 0 .07.24.268.446.579.865.93 1.25a6.455 6.455 0 0 0 3.7 2 6.636 6.636 0 0 0 3.94-.65 8.817 8.817 0 0 0 2.22-1.75l-.24.08a3.45 3.45 0 0 0 .83-.56 2.74 2.74 0 0 0 1.74-1.9 6.23 6.23 0 0 0 .18-3.16 4.994 4.994 0 0 0-2.58-3.15 4.718 4.718 0 0 0-4.35.14 3.306 3.306 0 0 0-1.28 1.17c-.06.13-.06.23.05.26s.18 0 .3 0l.34.14c.34.11.69.49.61.58-.08.09-.26 0-.5-.14a8.682 8.682 0 0 0-1.57-.82 6.269 6.269 0 0 0-3.41-.49 2.852 2.852 0 0 0-2 1.25 3.729 3.729 0 0 0-.55 2.5zm5.13 3.11a3.597 3.597 0 0 1-.38.21h-.1l-.2.08h-.19c-.19 0 0 0 .1-.07l-.42-2.23c.17.2.33.42.52.61a4.06 4.06 0 0 0 1.22.81 2.951 2.951 0 0 1-.52.59h-.03zm-170.22-32.92a4.694 4.694 0 0 1-4.13-.91 5.014 5.014 0 0 1-1-.89c-.1-.17.1 0-.12.15h-.22a3.813 3.813 0 0 0-.82-.93 3.568 3.568 0 0 0-2.16-.88 3.994 3.994 0 0 0-3.3 1.48c-.92 1-.46 2.65-.22 3.18.201.856.479 1.693.83 2.5A6.804 6.804 0 0 0 327 391c1.707.602 3.546.73 5.32.37a9.15 9.15 0 0 0 2.31-.84 7.42 7.42 0 0 0 1.07-.75 4.003 4.003 0 0 0 1.75-2 3.324 3.324 0 0 0-1-3.75 2.679 2.679 0 0 0-2.7-.51zm-32.37 1.81a8.998 8.998 0 0 0-3-.35 8.555 8.555 0 0 0-5.44 1.79c-.433.382-.81.823-1.12 1.31a3.496 3.496 0 0 0-.5 2.45 4.449 4.449 0 0 0 3.14 3.51 3.42 3.42 0 0 0 1.68 2.33 2.535 2.535 0 0 0 2.84-.11c1.15-.92 2.93-1.25 4.6-2.65a4.598 4.598 0 0 0 1.54-2.92 4.922 4.922 0 0 0-.94-3.44 5.779 5.779 0 0 0-2.8-1.92zm-6.16 5.7h.07l-.06.08s-.01-.05-.01-.11v.03zm3.07-23.45a3.187 3.187 0 0 0-1 2.31c.07 1.27-1.6 2-2.67 1.59-.53-.11-.9-.32-1.13-.34a.708.708 0 0 0-.33 0 .63.63 0 0 0-.17.08c-.08 0-.72.1-1 .21a3.998 3.998 0 0 0-2.08 1.6 3.636 3.636 0 0 0-.47 2.14 4.08 4.08 0 0 0 1.72 2.87c.433.277.921.458 1.43.53.49.06.75 0 1.14.13.73.06 1.51.23 2.34.27a6.772 6.772 0 0 0 4.87-1.46 8.003 8.003 0 0 0 3.13-4.29 7.255 7.255 0 0 0 .22-2.7 6.594 6.594 0 0 0-.58-2 3.417 3.417 0 0 0-2-1.75 3.279 3.279 0 0 0-3.42.81zm68.45-5.58c-1.27.62-3 .23-4.65 0a4.812 4.812 0 0 0-4.19 1.3 13.596 13.596 0 0 0-1.47 1.86 15.738 15.738 0 0 1-1.71 2.05 3.228 3.228 0 0 0-.17 3.29 3.293 3.293 0 0 0 3.28 1.91c.34 0 .79-.16 1-.18l.56-.06a7.54 7.54 0 0 0 1.09-.14 16.269 16.269 0 0 0 2-.53c1.319-.321 2.6-.784 3.82-1.38a14.01 14.01 0 0 0 1.71-1.11c.286-.23.544-.491.77-.78a4.004 4.004 0 0 0 1.59-2c.99-3.31-2.19-5.15-3.63-4.23zm-13.88 39.14c.168-.087.352-.138.54-.15h.19c.089-.264.152-.535.19-.81a3.659 3.659 0 0 0-1.62-3.42 3.796 3.796 0 0 0-3.019-.375 3.796 3.796 0 0 0-1.369.735 3.795 3.795 0 0 0-.962 1.22 18.745 18.745 0 0 0-.57 1.87l-.69 1.74a5.274 5.274 0 0 0 0 4.16 6.422 6.422 0 0 0 2.76 3.37 5.457 5.457 0 0 0 3.54.68 3.442 3.442 0 0 0 2.72-2.6 3.654 3.654 0 0 0-.48-2.84 3.789 3.789 0 0 0-1.56-1.27c-.87-.36-.61-1.97.33-2.31zm9.63-64.69c-.641-.36-1.31-.667-2-.92a3.686 3.686 0 0 0-3.06.38 3.817 3.817 0 0 0-1.87 3.18 3.236 3.236 0 0 0 .33 1.5l-.07.1a.544.544 0 0 0-.07.13l-.34.41a4.146 4.146 0 0 0-.9 2.47 3.289 3.289 0 0 0 .85 2.31 3.535 3.535 0 0 0 3.05 1.05 4.008 4.008 0 0 0 2.05-1c.82-.81 2.33-.74 3.93-1.49a3.79 3.79 0 0 0 1.87-4.72c-.72-1.85-2.54-2.74-3.77-3.4zm-4.17 6.55a2.355 2.355 0 0 1-.61-.39c.215.126.439.236.67.33l-.06.06zm81.97 15.07c.316.097.607.265.85.49.16.15.2.18.24.19.04.01 0-.12 0-.26a7.977 7.977 0 0 0-.3-1.2 5.692 5.692 0 0 0-.7-1.46 28.286 28.286 0 0 0-1.85-2.36 3.43 3.43 0 0 0-2.16-1.61 3.561 3.561 0 0 0-2.26.25c-.36.15-.686.372-.957.653-.272.28-.484.612-.623.977a3.621 3.621 0 0 0 .05 2.06c.169.964.256 1.941.26 2.92.05 1 0 2 .14 3a6.24 6.24 0 0 0 1.57 3.73 7.411 7.411 0 0 0 4.6 2.19 10.305 10.305 0 0 0 9.2-3.92c.1-.11.14-.19.28-.34.14-.15.35-.36.5-.54.312-.418.527-.899.63-1.41a2.904 2.904 0 0 0-.69-2.36 2.646 2.646 0 0 0-3.34-.69 6.706 6.706 0 0 1-2.7.56 7.905 7.905 0 0 1-2.79-.49c-.24-.07-.82-.45.05-.38zm27.19 13.48a.482.482 0 0 0 0-.12c.07-.17-.24-.78-.61-1.14a3.633 3.633 0 0 0-1.21-.88 3.546 3.546 0 0 0-1.67-.29c-.374.04-.739.142-1.08.3a1.48 1.48 0 0 1-.55.24 4.35 4.35 0 0 0-2.15 1.73c-.54.81-.9 1.86-1.42 2.71a3.834 3.834 0 0 0-.47 4.18 3.104 3.104 0 0 0 1.82 1.63c.884.175 1.8.081 2.63-.27a10.617 10.617 0 0 0 1.79-.46c.615.32 1.31.455 2 .39a3.163 3.163 0 0 0 2.79-2.84 2.46 2.46 0 0 0 0-.47c.158-.219.286-.458.38-.71a3.252 3.252 0 0 0-2.25-4zm-27.99-34.29a3.656 3.656 0 0 0-2.56-1.93 2.725 2.725 0 0 0-2.27.64c-.84.76-2.39 1-3.84 2.09a3.783 3.783 0 0 0-1.08 4.71c.82 1.67 2.63 2.43 3.73 3.1.61.35 1.08.7 1.69 1.13a3.637 3.637 0 0 0 3.06.38 3.815 3.815 0 0 0 2.58-2.64 3.727 3.727 0 0 0-.23-2.56 4.126 4.126 0 0 0-1.15-1.49 3.685 3.685 0 0 0 .07-3.43zm-.22 3.92c-.072.24-.219.45-.42.6a.491.491 0 0 1-.19.08.122.122 0 0 1-.08 0l.35-.39c.137-.17.255-.354.35-.55.006.087.002.174-.01.26zm-.37-.93c-.41-.45.28-.35.39.34-.13-.11-.29-.25-.39-.34zm20.99-3.25a3.651 3.651 0 0 0-2.57-1.93 2.72 2.72 0 0 0-2.26.64c-.84.76-2.39 1-3.84 2.09a3.761 3.761 0 0 0-1.08 4.71c.82 1.67 2.62 2.43 3.73 3.1.61.35 1.08.7 1.69 1.13.452.281.96.461 1.488.527a3.686 3.686 0 0 0 1.572-.147 3.756 3.756 0 0 0 2.375-2.058 3.742 3.742 0 0 0-.025-3.142 4.237 4.237 0 0 0-1.15-1.49 3.685 3.685 0 0 0 .07-3.43zm-.22 3.92c-.072.24-.219.45-.42.6a.491.491 0 0 1-.19.08.122.122 0 0 1-.08 0l.35-.39c.13-.174.247-.358.35-.55a1.25 1.25 0 0 1-.01.28v-.02zm-.37-.93c-.41-.45.28-.35.39.34-.13-.09-.26-.23-.39-.33v-.01zM442 314a3.651 3.651 0 0 0-2.57-1.93 2.735 2.735 0 0 0-2.27.64c-.84.76-2.38 1-3.84 2.09a3.783 3.783 0 0 0-1.08 4.71c.82 1.67 2.63 2.43 3.73 3.1.61.35 1.08.7 1.69 1.13a3.65 3.65 0 0 0 3.06.38 3.835 3.835 0 0 0 2.59-2.64 3.792 3.792 0 0 0-.23-2.56 4.152 4.152 0 0 0-1.16-1.49A3.657 3.657 0 0 0 442 314zm-.23 3.92a1.162 1.162 0 0 1-.41.6.58.58 0 0 1-.2.08.122.122 0 0 1-.08 0l.35-.39c.137-.17.255-.354.35-.55.02.11.06.17.02.28l-.03-.02zm-.36-.93c-.42-.45.28-.35.39.34-.11-.09-.24-.23-.36-.33l-.03-.01zm61.76 127.45a3.656 3.656 0 0 0-2.56-1.93 2.76 2.76 0 0 0-2.27.63c-.84.77-2.39 1-3.84 2.1a3.761 3.761 0 0 0-1.08 4.71c.82 1.66 2.62 2.43 3.73 3.1.61.34 1.08.7 1.69 1.12a3.669 3.669 0 0 0 3.06.39 3.823 3.823 0 0 0 2.58-2.65 3.77 3.77 0 0 0-.23-2.55 4.154 4.154 0 0 0-1.15-1.49 3.685 3.685 0 0 0 .07-3.43zm-.22 3.92a1.099 1.099 0 0 1-.42.59.537.537 0 0 1-.19.09.136.136 0 0 1-.08 0l.35-.38c.132-.174.249-.358.35-.55.022.082.035.165.04.25h-.05zm-.37-.93c-.41-.45.28-.36.39.33-.13-.1-.26-.24-.39-.33zm-181.14-17.11a3.644 3.644 0 0 0-2.57-1.94 2.735 2.735 0 0 0-2.27.64c-.84.76-2.39 1-3.84 2.09a3.783 3.783 0 0 0-1.08 4.71c.82 1.67 2.63 2.43 3.73 3.1.61.35 1.08.7 1.69 1.13a3.682 3.682 0 0 0 3.06.39 3.852 3.852 0 0 0 2.59-2.65 3.799 3.799 0 0 0-.23-2.56 3.997 3.997 0 0 0-1.16-1.48 3.657 3.657 0 0 0 .08-3.43zm-.23 3.91a1.162 1.162 0 0 1-.41.6.432.432 0 0 1-.2.08.122.122 0 0 1-.08 0l.35-.39c.137-.17.255-.354.35-.55.006.087.002.174-.01.26zm-.36-.92c-.42-.46.28-.36.39.33-.14-.11-.24-.25-.39-.33zM207 435.62a3.652 3.652 0 0 0-2.56-1.94 2.725 2.725 0 0 0-2.27.64c-.84.76-2.39 1-3.84 2.09a3.761 3.761 0 0 0-1.08 4.71c.82 1.67 2.63 2.43 3.73 3.1.61.35 1.08.7 1.69 1.13a3.669 3.669 0 0 0 3.06.39 3.847 3.847 0 0 0 2.58-2.65 3.792 3.792 0 0 0-.23-2.56 3.998 3.998 0 0 0-1.15-1.48 3.697 3.697 0 0 0 .07-3.43zm-.22 3.91c-.072.24-.219.45-.42.6a.491.491 0 0 1-.19.08.122.122 0 0 1-.08 0l.35-.39c.134-.172.251-.356.35-.55a1.268 1.268 0 0 1-.04.26h.03zm-.37-.92c-.41-.46.28-.36.39.33a3.718 3.718 0 0 0-.42-.33h.03zm-24.25 42.78a3.737 3.737 0 0 0-2.57-1.94 2.725 2.725 0 0 0-2.27.64c-.84.76-2.39 1-3.84 2.1a3.764 3.764 0 0 0-1.08 4.7c.82 1.67 2.63 2.43 3.73 3.1.61.35 1.08.7 1.69 1.13a3.669 3.669 0 0 0 3.06.39 3.797 3.797 0 0 0 1.411-.774c.409-.357.737-.797.961-1.291a3.796 3.796 0 0 0-.012-3.145 4.14 4.14 0 0 0-1.16-1.48 3.695 3.695 0 0 0 .08-3.43zm-.23 3.91a1.078 1.078 0 0 1-.42.6.37.37 0 0 1-.19.08.122.122 0 0 1-.08 0l.35-.39c.135-.168.252-.349.35-.54.006.083.002.167-.01.25zm-.37-.92c-.41-.46.29-.36.39.33a3.718 3.718 0 0 0-.39-.33zm275.6 16.31a3.651 3.651 0 0 0-2.57-1.93 2.738 2.738 0 0 0-2.26.63c-.85.77-2.39 1-3.84 2.1a3.758 3.758 0 0 0-1.09 4.71c.82 1.67 2.63 2.43 3.73 3.1.61.35 1.08.7 1.7 1.12a3.656 3.656 0 0 0 3.05.39 3.806 3.806 0 0 0 2.59-2.65 3.77 3.77 0 0 0-.23-2.55 4.076 4.076 0 0 0-1.16-1.49 3.657 3.657 0 0 0 .08-3.43zm-.23 3.92a1.162 1.162 0 0 1-.41.6.57.57 0 0 1-.19.08h-.09l.35-.39c.137-.17.255-.354.35-.55-.01.09.06.15-.01.26zm-.36-.93c-.42-.45.28-.36.39.34-.14-.11-.27-.25-.39-.34zm15.71-149.27a12.874 12.874 0 0 0-2-.92 3.725 3.725 0 0 0-3.06.37 3.872 3.872 0 0 0-1.87 3.19 3.217 3.217 0 0 0 .33 1.49l-.07.11a1.399 1.399 0 0 0-.06.13l-.34.41a4.091 4.091 0 0 0-.91 2.47c-.028.85.281 1.677.86 2.3a3.498 3.498 0 0 0 3 1.06 4.007 4.007 0 0 0 2.06-1c.81-.81 2.33-.75 3.93-1.49a3.779 3.779 0 0 0 1.86-4.72c-.67-1.81-2.49-2.74-3.73-3.4zm-4.17 6.59a2.355 2.355 0 0 1-.61-.39c.217.128.445.238.68.33l-.07.06zM292.05 474.75a6.704 6.704 0 0 0 4.66 1.94c.424 0 .847-.05 1.26-.15l.64-.16a5.361 5.361 0 0 0 1.09-.44c1.66-.78 2.44-3.18 1.79-4.31a3.486 3.486 0 0 0-2.24-2.1 4.279 4.279 0 0 0-2.16-.11.84.84 0 0 1-.635-.199.828.828 0 0 1-.285-.601 1.118 1.118 0 0 1 .63-1.21.456.456 0 0 1 .55.17c0 .12.06 0 .12-.23l.12-.49a4.417 4.417 0 0 0 0-1.09 3.81 3.81 0 0 0-6.35-2.25 3.308 3.308 0 0 0-1 2.85c.08 1.26-.18 2.47-.2 4.05a5.598 5.598 0 0 0 2.01 4.33zm172.2-59.36a3.078 3.078 0 0 0-.28 2.27 2.57 2.57 0 0 0 2.56 2c1.76-.1 4.05 0 6.28-1.36a5.887 5.887 0 0 0 2.47-6.59c-.73-2.49-2.74-3.82-3.94-5.19a16.92 16.92 0 0 1-1.68-2.2c-.247-.39-.471-.794-.67-1.21a3.19 3.19 0 0 0-2.25-1.44 4 4 0 0 0-4.4 3.45 4.428 4.428 0 0 0 1 3.35l.72 1.1c.616.93 1.104 1.939 1.45 3 .1.12.13.45.29.52.16.07.93.06.76.64a3.756 3.756 0 0 0-2.31 1.66zm23.55-82.85a5.062 5.062 0 0 0-1.54 1.41c-.73 1-.84 1.95-.4 2.24a3.838 3.838 0 0 0 3.12 1.27c1.64-.12 3.79-1.64 5.09-3.5a14.253 14.253 0 0 0 1.9-4.79c.23-.682.5-1.35.81-2 .15-.33.33-.68.53-1a1.942 1.942 0 0 0 .11-1.73c-.64-.84-2.12-.65-3.78.76a6.744 6.744 0 0 0-1.8 2.54l-.44 1a16.68 16.68 0 0 1-1.38 2.47c0 .11-.23.33-.22.43a.48.48 0 0 1-.14.69 2.498 2.498 0 0 0-1.86.21zm-50.49 40.89a2.998 2.998 0 0 0-2.65.79 1.532 1.532 0 0 1-1.78.25 2.362 2.362 0 0 1-1.13-1.45 5.559 5.559 0 0 1-.2-1.18.37.37 0 0 0-.1-.2l-.09-.06h-.08c-.07-.22-.16-.44-.25-.65a3.86 3.86 0 0 0-2.23-2 3.437 3.437 0 0 0-2.49.17 3.887 3.887 0 0 0-2.2 2.95 9.454 9.454 0 0 0 .4 2.74c.181.885.442 1.752.78 2.59a7.148 7.148 0 0 0 4.07 4.07 8.553 8.553 0 0 0 6 .48 7.828 7.828 0 0 0 2.79-1.58 6.134 6.134 0 0 0 1-1.28 4.113 4.113 0 0 0 .82-2.59 3.159 3.159 0 0 0-2.66-3.05zM422.47 358l.68-1.09c.397-.65.523-1.429.35-2.17a2.863 2.863 0 0 0-2.69-2.19 4.004 4.004 0 0 0-1.17-1.12 3.18 3.18 0 0 0-2.66-.24 6.157 6.157 0 0 0-1.24.7 4.608 4.608 0 0 0-.5.23c-.605.282-1.184.616-1.73 1-2.06 1.33-3.53 4.32-7.69 4.27a3.23 3.23 0 0 0-.75 5.31c.593.473 1.3.783 2.05.9 1.828.569 3.765.692 5.65.36a13.689 13.689 0 0 0 9.7-5.96z" fill="#174f78"/><path d="M548.12 345.14v.82c-.792.485-1.626.9-2.49 1.24-2.7.79-3.88 2.37-3.76 5.32.11 2.66-1.21 3.43-4 3-1-.13-2.31-.63-2.89-.18-2.47 1.88-5.52 3.62-5.1 7.41.54 4.94-.89 8.08-6.35 8.75-2.08.25-2.6 1.61-2.11 3.71.31 1.31.79 2.59 1.38 4.46-2.09.2-3.82.65-5.46.46-2.08-.25-2.78.76-3.15 2.42-.17.74-.18 1.52-.33 2.26a4.785 4.785 0 0 1-3.54 4.07c-1.82.53-4 .78-5.26 2-1.26 1.22-1.57 3.33-2.39 5.28h-6c-3.56-.1-3.73 0-4.84 3.38-1.11 3.38-1.18 3.38-4.84 2.8a4.74 4.74 0 0 0-3.44.61c-1.11 1-.33 2.23.48 3.36 1.11 1.59 2.11 3.56.57 5.25-2.29 2.51-1.38 5.22-1.05 7.94.167.816.404 1.615.71 2.39-.49.4-.74.76-1.08.86-1.45.43-2.93.76-4.39 1.18-2.76.79-3.29 2.55-1.43 4.79.56.69 1.23 1.3 1.77 2 1.72 2.22 1.77 3-.36 4.77a10.993 10.993 0 0 0-4.44 7.69 9.662 9.662 0 0 1-1.07 2.83c-1.95 4.22-1.54 8.42.23 12.54 1.27 2.94 1.33 3.14-.89 5.25-.56.53-1.17 1-1.74 1.5-3.46 3.06-4.16 7.19-2.12 11.33a19.091 19.091 0 0 1 1.82 5.34 7.527 7.527 0 0 0 3.08 4.94 18.994 18.994 0 0 1 5.21 6.33 14.25 14.25 0 0 0 4.48 5.92 12.092 12.092 0 0 1 3.29 4 30.506 30.506 0 0 1 2.18 6.07 58.482 58.482 0 0 1 1.34 6.7c.47 3.14-.86 5.31-3.72 6.74a7 7 0 0 1-6.24-.08 10.828 10.828 0 0 0-7.08-.7c-2.72.67-5.45 1.31-8.09 2.22-4.37 1.51-8.21.51-11.94-1.88a39.173 39.173 0 0 0-5.72-3c-2.42-1-3.91-2.45-4.32-5.25a11.358 11.358 0 0 0-4.28-7.81 5.78 5.78 0 0 1-2-6.21 34.603 34.603 0 0 1 1.35-4.76c1.37-3.22 1.58-6.07-1.46-8.58-1.48-1.21-1.81-2.76-.81-4.75a5.299 5.299 0 0 0-1.43-6.89c-2-1.64-2.1-3.54-1.49-5.83a32.027 32.027 0 0 0 1.1-6.35 3.597 3.597 0 0 0-1.22-2.88c-1.9-1-1.66-2.4-1.43-3.89.23-1.49.72-2.71 1-4.07.44-2 .53-3.8-1.17-5.6a10.19 10.19 0 0 1-2.75-7A7.341 7.341 0 0 0 428 436c-1.11-1.91-3.18-3.45-3.75-5.46-.64-2.26-.45-4.64-2.17-6.69-3.43-4.1-3.46-6.35-.74-11.09 2-3.48 2-6.65-.81-9.39-3.48-3.36-5.8-7.39-8-11.53a21.535 21.535 0 0 1-2-5.64c-.39-1.82-.82-3.32-2.59-4.39-.94-.57-1.5-1.9-2-3-.66-1.37-1-2.9-1.7-4.25s-2.13-1.37-3.34-.9c-.48.19-1.09 1.45-.9 1.77 1.89 3.06.9 7.47 4.6 9.72a2.995 2.995 0 0 1 .94 2.29 11.69 11.69 0 0 0 2.1 6.44c2.55 4.22 4.79 8.62 8.61 12 2.27 2 2.08 3 .68 5.73-1.29 2.56-2.43 5.19-3.76 8.06-3.51-1-7.31-.25-11 1.25a6.485 6.485 0 0 1-1.82.51 10.454 10.454 0 0 0-7.5 4.06c-1.24 1.63-3 1.44-4.54 1-1-.26-1.7-1.48-2.49-2.22L389 420c-3.33 0-6-.6-8.16.15-3 1-5.21-.05-7.51-1.39-1.31-.77-2.46-1.8-3.7-2.7a9.433 9.433 0 0 0-11.57 0c-4.19 3.12-8.31 2.18-10.47-2.4-.37-.78-.61-1.63-1.07-2.9-1.65.39-3.23.69-4.76 1.13-2.95.85-5.9.85-8.41-.94-1.49-1.06-2.51-2.78-4-4.51 1.36-2.13 3-4.7 4.64-7.24.86-1.31 1.58-2.59 0-4.41a19.243 19.243 0 0 0-3.41 2.17c-1.27 1.23-2.11 2.91-3.41 4.1-3.31 3-6.2 7.23-11.84 4.67a2.365 2.365 0 0 0-2.221.102 2.372 2.372 0 0 0-1.159 1.898c-.19 2-.1 4-.42 5.92-.16 1-.72 2.48-1.47 2.77-3.55 1.33-4.11 4.07-4.23 7.33a6.588 6.588 0 0 1-3.09 5.39 9.79 9.79 0 0 0-3.49 3.42 8.236 8.236 0 0 1-6.29 4.94c-2.94.61-5 2.12-5.58 5.39-.58 3.27-2.88 4.26-5.88 4.29-1.146 0-2.291.06-3.43.18a4.853 4.853 0 0 0-2.17.57c-3.88 2.64-7.79 5.23-11.49 8.09-2.59 2-5.19 2.55-8.19 1.39-.83-.33-1.66-.64-2.47-1a3.787 3.787 0 0 0-4.83 1c-.58.67-1.36 1.15-2 1.79-3.78 3.9-8.08 6-13.71 4.68a7.347 7.347 0 0 0-7.26 2.07c-1.72 1.69-4.33 2.5-6.6 3.56a32.204 32.204 0 0 1-3.3.92 7.997 7.997 0 0 0-5.58 5.26 40.945 40.945 0 0 1-3.46 7.18 3.989 3.989 0 0 1-2.52 1.88c-1.82.19-2.33 1.32-2.75 2.69-.403 1.28-.54 2.628-.403 3.963a9.835 9.835 0 0 0 1.203 3.797c1.05 2 2.23 3.91 1.73 6.47-.16.86 1 2.31 1.86 3 2.29 1.64 3.12 3.45 2.08 6.22a4.939 4.939 0 0 0 .1 3.59c2.57 5.06 1.55 10.14.6 15.66-2.65.46-5.35 1.59-7.81 1.19-2.87-.46-5.44.67-8.15.4-1.39-.14-2.76-.45-4.14-.65-2.77-.39-5.54-.72-8.3-1.15-3.13-.48-6.27-.94-9.36-1.63a4.527 4.527 0 0 1-2.84-1.74c-1.62-3-3.16-6.09-3.07-9.65.14-5.34.25-10.67.48-16a18.056 18.056 0 0 1 .86-5.95 17.703 17.703 0 0 0 .76-12.66 7.445 7.445 0 0 1 .6-6.64c2.17-3.17 2-6.12 0-9.23-1.73-2.65-1.4-5.32.34-7.87.58-.84 1.2-1.65 1.82-2.45a4.996 4.996 0 0 0 1-5.32 6.221 6.221 0 0 1 .08-3.28c.39-1.86 1.21-3.64 1.45-5.51.24-1.87 1.38-2.59 3.06-2.68a35.261 35.261 0 0 1 5.34-.12 4.997 4.997 0 0 0 5.28-2.91c.467-.762.885-1.554 1.25-2.37 1.45-3.92 4.57-5.16 8.38-5.46a26.131 26.131 0 0 0 5.61-.82 3.638 3.638 0 0 0 2.3-2.2c.66-4.25 3.53-5.61 7.22-6a6.47 6.47 0 0 0 4.43-2.68c2.49-3 5.07-5.88 7.6-8.82.341-.383.648-.795.92-1.23a23.168 23.168 0 0 0 3.08-13c-.2-5.4-1.15-10.23-4.42-14.66-1.62-2.2-1-4.6.59-7.06 2.24-3.36 3.3-7.08.79-11a9.756 9.756 0 0 1-.87-8.82c.346-1.334.597-2.691.75-4.06l-8.06-.55c-.49-2.2-1.87-2.86-4.42-1.95-1.42.5-3.18.09-4.64.09a8.216 8.216 0 0 1-.51-1.62c0-6.46-1.85-6.64-7.51-6.74h-.8c-4 .14-4.81.93-5.13 5.24-4.35 1.54-8.85 3.13-13.35 4.74-.59.21-1.35.35-1.67.79a3.246 3.246 0 0 0-.79 2.29 2.35 2.35 0 0 0 2 1.1 21.193 21.193 0 0 0 6.13-1.93c3.84-2.22 8.5-3.41 10.94-8.06l4.91.88c.144.477.247.966.31 1.46 0 1 0 2-.11 3.06-.18 2.77.24 3.32 3 3.63 1.89.22 3.79.35 5.58.52 1.25 3.68 1.52 3.81 5.25 3a23.855 23.855 0 0 1 2.47-.33c.67 3.32.55 6.71 2 9.12 2 3.19 1.35 5.54-.6 7.93-2.59 3.19-2.58 6.49-1 10a27.816 27.816 0 0 0 2.21 4 11.998 11.998 0 0 1 2 6.42c.19 3.4.38 6.78-1 9.95a22.163 22.163 0 0 1-2.94 4.74c-1.05 1.38-2.43 2.51-3.54 3.85-2.28 2.74-4.39 5.38-8.45 5.9a8.007 8.007 0 0 0-6.45 5.4c-.31.82-.73 1.6-1.18 2.58-7.81-.5-13.64 2.44-16.42 9.74-3.46.67-6.61 1.18-9.7 1.91-3.72.88-5 2.6-5.39 6.33a47.892 47.892 0 0 1-1 4.83c-.25 1.24-.86 2.53-.67 3.69a9.104 9.104 0 0 1-1.78 6.74c-2.56 3.93-3 8.07-.31 12.21.2.32.29.71.5 1a2.482 2.482 0 0 1 0 3.16c-2.45 3.23-2.64 6.89-1.46 10.53a14.434 14.434 0 0 1-.56 10.24 15.162 15.162 0 0 0-1.14 6.69 69.637 69.637 0 0 1-.46 16c-.67 4.52 1.63 8.37 3.23 12.28.63 1.53 2.69 2.61 4.3 3.57A12.158 12.158 0 0 0 172 534c5.39.83 10.81 1.52 16.21 2.26 2.27.31 4.57 1 6.81.81 5-.37 10-1.14 15-1.79 3.42-.44 4.57-1.85 4.56-5.35a36.22 36.22 0 0 1 .18-5.32 17.14 17.14 0 0 0-.66-8.29 11.398 11.398 0 0 1-.46-6c.53-2.91.15-5.85-2.43-8a5.1 5.1 0 0 1-1.16-1.87c-1-2.43-1.9-5-3.1-7.31-.79-1.56-.58-2.63.7-3.66a18.758 18.758 0 0 0 1.73-1.48c1.38-1.4 2.13-3.36 4.6-3.65 1.42-.17 1.39-1.83 1.24-3.19-.49-4.35.48-5.65 4.59-6.84 3-.89 6.33-1.55 8.43-4.15 1.8-2.22 3.75-2 6.13-1.5 1.678.504 3.455.58 5.17.22 3.63-1.15 7.22-2.69 9.76-5.71a4 4 0 0 1 5-1.35 13 13 0 0 0 14.1-3.06 12.003 12.003 0 0 1 2.6-1.67c1.07-.58 2.2-1 3.48-1.61.124 1.656.372 3.301.74 4.92a4 4 0 0 1-1.67 5c-1.86 1.25-3.16 2.59-1.89 5a3.834 3.834 0 0 1 0 1.85c-.15 2.27-.29 4.53-.5 6.8-.19 2 1 3.11 2.69 3.65a3.94 3.94 0 0 0 2.75-.17c.33-.16.32-1.64 0-2.32-1.05-2.37-1.28-4.89 0-7 1.15-1.86.48-3.2-.32-4.57 4.18-3.46 4.31-4.14 3.55-9.32a45.678 45.678 0 0 1-.06-6.72 43.651 43.651 0 0 1 4.86-1.11 7.15 7.15 0 0 0 6.69-5.87c.55-2.41 1.91-3.37 4-3.91a10.415 10.415 0 0 0 7.46-6 5.447 5.447 0 0 1 1.95-2.27c3.84-2.43 5.44-6.12 6.39-10.34a3.864 3.864 0 0 1 2.3-2.09c2.49-.93 5.09-1.58 7.65-2.31 1.13-.31 2-1 1.64-2.12a2.997 2.997 0 0 0-1.86-1.52 37.688 37.688 0 0 0-4.5-.79c4.71-4.22 8.67-4.18 12.63-.49a9 9 0 0 0 4.53 2.42c3 .39 6 .11 9.4.11a22.354 22.354 0 0 0 2.31 3.41c.91 1 2.14 2.19 3.3 2.27 4.27.29 8.7.87 12.42-2.44 1.73 2.16 3.39.93 4.49.11l11 5.81a4.503 4.503 0 0 1-.68 1.07c-2.37 2.29-5 4.35-7.11 6.85-2.91 3.46-6 5.47-10.87 4.86a5.822 5.822 0 0 0-6.5 4.21 5.442 5.442 0 0 1-3 3.22c-2.72 1.37-5.39 2.84-8.09 4.26-3.59 1.89-5.31 5.71-8.36 8.15-.32.25-.35.94-.39 1.44-.28 3.37-2.47 5.19-5.32 6.25-3.2 1.2-5.53 3.46-8.31 5.86.85 1.38 1.56 2.68 2.42 3.87 1.05 1.45 2.23 2.78 2 4.79a3.215 3.215 0 0 0 .49 1.78 13.267 13.267 0 0 1 1.43 10.58c-.65 2.43.34 5.51 4.19 5.22a61.231 61.231 0 0 0 7.57-.81 6.87 6.87 0 0 1 5.08.81c4.77 2.62 6.82 6.74 6.62 12-.16 4.17-.62 8.34-1 12.5-.29 3.43-2.57 6-6 6.1-4.06.17-8.13 0-12.19-.15-5.68-.16-9.75-4.28-14.78-6.08a8.293 8.293 0 0 1-4.71-4.76 9.465 9.465 0 0 0-6.49-5.45 4.807 4.807 0 0 1-3.33-2.88 14.52 14.52 0 0 0-7.88-7.39 5.435 5.435 0 0 1-2.43-2.19c-1.16-2.07-2.34-3.94-4.91-4.41-.32-.06-.81-.36-.86-.62-.58-2.78-3.35-3.27-5-4.77.4-2.66 0-3.59-1.62-4-1.62-.41-2.73.53-3.18 2.83-.1.5-.17 1-.24 1.51-.35 2.66-.12 3.5 2.46 3.72 5 .41 7 4 8.8 7.69a7.92 7.92 0 0 0 4.5 4.37 9.64 9.64 0 0 1 3.432 1.987 9.64 9.64 0 0 1 2.338 3.203c1.17 2.44 3 4.44 6 4.73 2.22.22 3.32 1.86 4 3.64 1.3 3.33 3.74 5.24 6.86 6.74 2.62 1.25 5.91 1.33 7.68 4.26a3.462 3.462 0 0 0 2.38 1.08 43.86 43.86 0 0 0 8.3.58 18.619 18.619 0 0 1 6.74.57c5.55 1.61 9.86-1.09 13.93-4.28a4.224 4.224 0 0 0 1.2-2.7c.54-5.81 1.09-11.63 1.37-17.46a13.158 13.158 0 0 0-3.82-10.05 37.188 37.188 0 0 1-3.05-3.87 5.334 5.334 0 0 0-4.82-2.56c-2.27.17-4.53.48-6.78.83-3 .47-3.59 0-4.11-2.85-1.07-5.83-1.61-11.86-5.76-16.68 1.19-2.21 2.46-3.93 5.15-4.16a5.5 5.5 0 0 0 2.61-1.34 12.76 12.76 0 0 0 4.26-6.6 11.577 11.577 0 0 1 6-7c3.15-1.63 6.28-3.32 9.34-5.12 1.06-.63 2.45-1.52 2.7-2.54.84-3.44 3.26-3.45 5.93-3.34 2.67.11 5.13-.1 7.14-2 3.74-3.62 7.58-7.16 11.14-10.95 1.3-1.39 2.21-2 3.74-.68 3.56 3.05 7.41 1.69 11.24.77 2.63-3.6 6.79-3.7 10.54-5 3.75-1.3 6.62-1.65 10.18.08 3.76 1.83 4.11 1.69 4.11 5.75 0 1.82.39 3.26 2 4.17 2.15 1.18 2.89 3 2.82 5.4a9.108 9.108 0 0 0 2.35 7.05c1.9 1.91 2.62 3.93 1.47 6.55a8.005 8.005 0 0 0-.59 3.36c0 1.34 0 3 .75 3.93 1.5 2 1.48 3.9.94 6.07a29.481 29.481 0 0 0-.62 3.77c-.27 2.51 0 4.76 2.44 6.36a3 3 0 0 1 .68 4.68 4.097 4.097 0 0 0-.521 4.837c.292.502.688.936 1.161 1.273 2.83 2.44 2.86 5.08 1.61 8.17-.34.82-.43 1.74-.76 2.56-1.55 3.84-.3 7.1 2.45 9.7a11.914 11.914 0 0 1 3.87 7.63c.35 3.16 2.19 5 5 6.21a45.184 45.184 0 0 1 5.39 2.82c5.68 3.48 11.54 5.4 18.08 2.44a4.496 4.496 0 0 1 1.45-.44c3.13-.23 6.06-2.36 9.3-1.16a14.773 14.773 0 0 0 10-.06c3.3-1.06 5.19-3.15 5.63-6.46a25.428 25.428 0 0 0-1.32-12.36c-.44-1.16-1.59-2.35-.86-3.57 3.36.57 6.44 1.37 9.56 1.58a9.938 9.938 0 0 0 10.02-6.4 9.947 9.947 0 0 0 .62-4.17 4.767 4.767 0 0 1 2-4.57 43.461 43.461 0 0 0 6.13-5.69 6.383 6.383 0 0 0 1.58-3.73c.09-2.27.62-4.15 2.63-5.37a6.33 6.33 0 0 0-.32-1.64c-1.17-2.21-.79-4 1-5.82 1-1.13 1.38-2.93 2-4.41A7.568 7.568 0 0 1 528 461c2.93-2.6 2.8-5.89 2.09-9.17a12.258 12.258 0 0 1 .42-6.33c.52-1.82.89-4.33 0-5.77a36.957 36.957 0 0 1-2.64-6.6c-.55-1.56-.75-3.54-1.84-4.55-2.52-2.35-2.91-5.23-3.47-8.33-.42-2.33-.62-4.18 2-5.61-2.34-2.13-1.76-4.33-1.07-6.77 1.27-4.53 3-9 .5-13.9a8.31 8.31 0 0 1 .55-8c1.95-3.22 2.95-6.76 1.74-10.61a35.867 35.867 0 0 1 3.54-1.8c3.17-1.21 4.51-3.51 4.38-6.82a21.198 21.198 0 0 1 .09-3.82c.34-2.43 1.31-3.23 3.73-3.35 5.34-.26 6.49-1.21 8.11-6.28.32-1 .93-2.32 1.76-2.68a8.642 8.642 0 0 0 4.36-3.83 24.05 24.05 0 0 1-4.13-1.64zM519 383.27c.54 1.48.54 1.48-.79 3 .26-1.14.46-1.89.79-3zm-42.8 99.49c-.33-.41-1-.9-.94-1.23.47-2.21-.6-3.92-1.59-5.71-1.95-3.53-1.77-4.72.92-7.77.303-.411.638-.799 1-1.16 3.55-2.94 4.17-6.18 1.92-10.4a8.935 8.935 0 0 1 .58-9.14c1.55 1.16 2.94 2.24 4.37 3.27a2.832 2.832 0 0 1 1.428 1.961 2.85 2.85 0 0 1-.608 2.349c-1.62 2.26-1.73 4.66-1.33 7.25a11.553 11.553 0 0 1-1.59 8.28 27.635 27.635 0 0 0-4.16 12.3zm47.16-49.6a9.655 9.655 0 0 1 .12 4.86 4.365 4.365 0 0 1 1.8 2.46c.14 1.85 1.5 3.75.14 5.68-1.17 1.66-.49 3.39-.08 5.14.66 2.88 1.29 5.79-1.76 7.93a2.78 2.78 0 0 0-1 2c0 2.94-1.86 4.88-3.44 7-.83 1.11-1.59 2.12-1.14 3.79 1.61 6 0 10.81-5.72 13.69-4 2-5 4.68-4.91 8.66.1 4.47-2.2 6.72-6.71 6.73a18.814 18.814 0 0 1-5.64-.84 35.856 35.856 0 0 1-7-3c-2.14-1.21-4.55-2.38-4.73-5.49-.05-.77-1-1.46-1.4-2.23-.62-1.07-1.52-2.06-.35-3.43.37-.44.19-1.44.11-2.17a18.313 18.313 0 0 1 4.11-13.89 5.14 5.14 0 0 0 1.21-4.59 23.085 23.085 0 0 1-.37-5.32 14.25 14.25 0 0 1 .79-4.4c1.33-3.48.46-6.28-2.46-8.68a19.656 19.656 0 0 1-3.69-4.62c-.84-1.29-.44-2.56.56-3.83 3.47-4.42 3.44-5.5.24-10a3.456 3.456 0 0 1-.22-.93l3.1-1.17c2.85-1.09 4-2.36 3.29-5.15a12.428 12.428 0 0 1 1.23-9.12c.68-1.31.28-3.17.38-5.16 3.18-.69 5.13-3.2 6.31-6.76h5.29c3.57-.1 5-1 6-4.45a3.813 3.813 0 0 1 3-2.59c2.8-.88 5.46-2 7.5-5.33.53 3 .6 5.27 1.38 7.31 1.69 4.41.34 8.52-.57 12.77-.64 3-1.29 6-1.72 9 .246.888.324 1.814.23 2.73-.08.75-.12 1.48-.14 2.22.413.448.797.923 1.15 1.42a33.505 33.505 0 0 1 5.11 9.76zM326.53 278c-2.36-1.15-4.37.18-6 1.25-2.47 1.64-4.69 2.41-7.72 1.71-2.85-.66-5.57.66-7.55 2.78-1.08 1.15-1.6 2.82-2.53 4.56-.676-.12-1.343-.28-2-.48-3.87-1.5-7.43-.86-10.94 1.21a17.446 17.446 0 0 0-4.79 3.54 25.573 25.573 0 0 1-6.11 5.14 12.99 12.99 0 0 1-6 1.93c-3.73.12-7.47-.53-11.2-.59a9.518 9.518 0 0 0-7.5 3.15c-6.26 6.91-14.63 7.37-23.12 7.4a1.003 1.003 0 0 1-.37-.08c-5.17-2.11-10.57-3.79-15.47-6.41a128.03 128.03 0 0 1-26.73-18.84c-8.23-7.58-15.34-16-20.27-26-2.12-4.31-4.23-8.69-4.94-13.55a77.724 77.724 0 0 0-5.46-19.79 10.997 10.997 0 0 1-.42-7.78 48.429 48.429 0 0 0 1.32-9.81 3.175 3.175 0 0 0-1.06-2.61 17.623 17.623 0 0 0-6.33-2.05c-4.74-.22-8.8 3-10.31 7.59-.59 1.77-1.22 3.53-2 5.65-2-4.46-3.29-4.75-6.53-1.91-.95.84-2 1.6-2.92 2.45a5.875 5.875 0 0 0-2.07 5.82 10.73 10.73 0 0 1-.89 6.39c-.464-.36-.948-.694-1.45-1-2.61-1.44-4.29-.75-5.1 2.13-.38 1.35-.57 2.74-.87 4.11-.82 3.69 3.72 10 7 10.88a3.881 3.881 0 0 0 3.11-.51c1-.89.36-2.1-.5-3-1.32-1.36-2.63-2.72-2.79-5a24.48 24.48 0 0 0 3.4-.24 6.92 6.92 0 0 0 3.09-1.17c1.77-1.57 3.56-2.79 6.07-2.09 2.64-4.05-2.8-5-2.73-8 1.07-.17 2.17-.39 3.28-.48.492.041.977.148 1.44.32 2.33.45 3.87-.67 4.18-3.05.46-3.52 1-7 1.35-10.57.17-1.62.81-2.53 2.81-2.8.68 1.67 1.67 3.23 1.93 4.9.73 4.63 1.19 9.31 1.69 14 .24 2.22.78 4.19 2.61 5.73a5.21 5.21 0 0 1 1.28 2.64c.74 3.08 1.49 6.18 2 9.31a62.623 62.623 0 0 0 6.87 19.69c5.06 9.44 12 17.33 19.88 24.47 6 5.38 11.9 10.74 19 14.59 3.57 1.92 6.86 4.42 10.54 6.07 6.6 3 13.39 5.5 20.09 8.21.59.24 1.42.36 1.7.8l.05.08a43.718 43.718 0 0 0 6.92-1.39c3.79-1.08 6.8-3.2 10-5.37a15.182 15.182 0 0 0-.33-1.87c3.26.63 3.28.5 4.49-2.62a4.832 4.832 0 0 1 2.42-2.55 26.38 26.38 0 0 1 5.14-1c.234.583.497 1.154.79 1.71.308.459.642.899 1 1.32 9.55-1.21 16.74-6.67 23.83-12.12 2.77-2.13 5.16-3.28 8.64-2.09 4.19 1.43 6.73.14 8.65-3.84.138-.353.254-.713.35-1.08a2.678 2.678 0 0 1 2.175-2.035 2.685 2.685 0 0 1 1.045.035c1.64.207 3.262.541 4.85 1 1.64.5 3.4.5 4.07-1 1.27-2.83 3.65-4.44 5.79-6.36.24-.43.11-.94.15-1.43z" fill="#174f78" stroke="#174f78" stroke-miterlimit="10"/><path d="M543.94 347.9a45.812 45.812 0 0 0 4.85-3.22c.73-.52 1.47-1 2.22-1.51.75-1.07 1.42-2 2.06-3 2.42-3.62 1.94-7.08-1.46-9.65-1.15-.87-2.6-2.38-4-1s.14 2.65 1.09 3.8c1.73 2.11 1.8 3.18.32 5.43-.84 1.27-1.91 2.4-2.67 3.7a2.996 2.996 0 0 1-3.09 1.71c-1.36-.09-2.8-.13-3.48 1.42.74 1.65 2.09 2.15 3.54 2.59.28-.17.56-.26.62-.27zm-401.87-66.96c1.83 1.41 1.88 2.54.34 3.9-6.59 5.84-16.53 4.66-21.12-2.83-1.11-1.82-1.16-4.33-1.51-6.55a11.8 11.8 0 0 1 .35-3c-2.73-2-5.46-3.8-8-5.82a4.867 4.867 0 0 1-1.77-5.78c.81-2.39 2.87-3.8 5.75-3.9A3.29 3.29 0 0 1 116 258c-1.76 3.58-1.57 4.34 1.46 6.6a25.471 25.471 0 0 0 16.66 5.5c1.07 0 2.17.69 3.87 1.27-3.88 3.66-8.11 2.61-11.88 3.06-1.5 4.36 1.57 8.61 6.6 9.19 2.42.28 4.83.28 6.92-1.37a15.558 15.558 0 0 1 2.44-1.31zm240.84-5.36c-.67 3.81-1.93 4.74-4.81 3.2-4.24-2.26-8.83-2.08-13.35-2.49a3.177 3.177 0 0 0-2.37.65c-2 2.34-4.6 2.42-7.32 2.35-4.14-.1-4.3 0-5.21 4.28-2.39 1.62-5 1.5-7.61.65-1.93-.63-3.83-1.34-5.73-2-1.9-.66-3.9-.91-5.53 1-.84 1-2.17 1.72-3.35.66-1.18-1.06-.67-2.61.13-3.81a6.875 6.875 0 0 1 5.41-3.13 15.82 15.82 0 0 1 8.1 1.76c1.12.52 2.26 1 3.39 1.46.453-.417.861-.88 1.22-1.38 2.05-3.79 5.36-4.72 9.37-4.36 1.89.17 3.8 0 5.7-.05a3.705 3.705 0 0 0 3-1.17 4.127 4.127 0 0 1 3-1.31c3.73.56 7.66-.16 11.18 1.84a39.273 39.273 0 0 0 4.78 1.85zm10.81-3.51c-1.33.62-2.71 1.17-4 1.88-1.1.61-2 1.64-3.18 2a3.29 3.29 0 0 1-2.72-.52c-.43-.36-.4-1.75-.08-2.44a8.616 8.616 0 0 1 5.41-4.5c3.55-1.17 7-.47 10.55.16a5.001 5.001 0 0 0 2.87-.08c3.88-1.94 7.21-.79 10.24 1.7a7.673 7.673 0 0 0 6.65 2 6.089 6.089 0 0 0 3.85-2.14c3.19-3.79 6.71-4.67 11.25-3a26.214 26.214 0 0 1 4.82 2.27c.7.43 1 1.51 1.49 2.29-.8.49-1.61 1.38-2.4 1.36a12.243 12.243 0 0 1-4.35-1c-3-1.24-5.85-2.16-7.94 1.44-.12.21-.37.49-.57.49-3 .08-5.24 2.17-8 2.91a6.208 6.208 0 0 1-6-1.69c-3.25-3-6.86-3.21-11-2.36-2.15.45-4.51-.18-6.77-.33l-.12-.44zM161 331.61c2.87 2.11 5.3-.22 8.33-.32-.13.92 0 1.84-.37 2.37-1.92 2.64-7.38 3.38-10.11 1.5-1.11-.78-2-5.29-1.31-7a9.455 9.455 0 0 1 5.49-5.52 30.954 30.954 0 0 1 3.23-1.13c1.94-.57 4.07-.81 4.29-3.55 0-.42.88-.77 1.32-1.12 4.12 3.37 2.86 7-2.54 8.39-3.68.91-6.59 2.54-8.33 6.38zm-21.84-73.23c-4 2.81-8 2.29-12 .61-4.61-1.94-7.85-5.57-10.72-9.51-1.27-1.74-1-3.54.37-4.36 1.37-.82 3-.3 4.22 1.41 1.13 1.53 2.12 3.19 3.39 4.6a14.584 14.584 0 0 0 10.72 5.05c1.52.05 3.18-.27 4.02 2.2zm23.3 59.56a2.879 2.879 0 0 1-1.486 1.672 2.868 2.868 0 0 1-2.234.098c-4-1.33-6.1.9-7.93 4a48.435 48.435 0 0 1-4 5.51c-.39.48-1.28.57-2 .85a3.274 3.274 0 0 1-.5-4c1.74-3 3.39-6.28 5.76-8.79 3.33-3.51 9.52-2.87 12.39.66zm-18.22-16.73c-1.6-.66-2.79-1.09-3.92-1.64-1.37-.66-2.68-1.44-4-2.13a6.997 6.997 0 0 0-6.6 0 5.093 5.093 0 0 1-1.71.8c-.67.05-1.68-.08-2-.51a2.434 2.434 0 0 1 .13-2.06c1.22-2.25 5.3-3.88 8-3.13 1.813.575 3.59 1.26 5.32 2.05 1.75.7 3.45 1.56 5.23 2.13 1.27.4 2.34 1.19 2 2.32-.26.87-1.6 1.45-2.45 2.17zm9.67 8.52a7.558 7.558 0 0 1-2.25.69c-5.29-.2-9.68 1.52-12.92 5.83a9.94 9.94 0 0 1-1 1.14c-.9.86-2.11 1.41-3 .42a3.003 3.003 0 0 1-.1-2.73 12.996 12.996 0 0 1 2.89-3.93 20.001 20.001 0 0 1 11.14-4.5c2.17-.25 4 .35 5.24 3.08zM448.89 262c2.36.91 5.19 1.92 7.95 3.12.46.21 1 1.55.77 1.81-.55.7-1.54 1.6-2.26 1.52a14.998 14.998 0 0 1-4.66-1.46c-2-1-3.52-.83-5 1-.82 1-2.08 2.48-3.48 1.31s-.34-2.78.52-4a7.007 7.007 0 0 1 6.16-3.3zm-257.35 70.8c-3.35 2.43-6.54 4.91-9.93 7.08-1.24.608-2.63.84-4 .67a2.483 2.483 0 0 1-1.7-1.63 2.545 2.545 0 0 1 .93-2.21c3.77-2 7.63-3.88 11.49-5.73 1.39-.66 2.47-.26 3.21 1.82zM175 327.68c1.28-2.67 2-3.3 3.77-2.36 2.41 1.25 4.89 1.15 7.41 1.33 1.369.189 2.725.462 4.06.82-2.24 4.96-11.01 4.86-15.24.21zm343.17 58.61c.3-1.16.5-1.91.79-3 .54 1.46.54 1.46-.79 3z" fill="#174f78" stroke="#174f78" stroke-miterlimit="10"/><path d="M619.85 284.67A50.374 50.374 0 0 0 618 277a62.06 62.06 0 0 0-2.88-7.25 13.655 13.655 0 0 0-2.66-4 14.748 14.748 0 0 0-3.87-2.85c-2.89-1.45-4.75-.37-7.09-.84s-7.08.21-9.18-.4c-2.4-.65-6.57-6-6.53-6 .311-1.139.423-2.323.33-3.5a11.608 11.608 0 0 0 3.95-4.68 30.433 30.433 0 0 0 1.71-5c.36-1.24 3.23-2.46 3.8-4.06a17.679 17.679 0 0 0 1.2-5.78 11.11 11.11 0 0 0-2.1-6.56 12.996 12.996 0 0 0-4.89-4.21 21.017 21.017 0 0 1-3.49-1.76 4.388 4.388 0 0 1-.88-.93 1.517 1.517 0 0 1-.19-.28 6.696 6.696 0 0 0-.16-1.48 5.722 5.722 0 0 0-.67-1.72 5.517 5.517 0 0 0-1.19-1.35 11.96 11.96 0 0 0-2.82-1.74c-.2-.08-.34-.15-.46-.21a5.045 5.045 0 0 1 0-.55c.445-.605.836-1.248 1.17-1.92a6.822 6.822 0 0 0 .3-4.89 7.999 7.999 0 0 0-2.19-3.64 9.88 9.88 0 0 0-6.81-2.41 19.972 19.972 0 0 0-2.86.19 9.04 9.04 0 0 0-2.12.55.818.818 0 0 0 0-.14 7.241 7.241 0 0 0-1-2.46 7.986 7.986 0 0 0-1.68-1.88 6.992 6.992 0 0 0-2.36-1.32 9.573 9.573 0 0 0-4.28-.23l-1.38.17a6.346 6.346 0 0 0-2.8 1.14l-.69.5-.36.08a7.127 7.127 0 0 1-1.78.11 2.553 2.553 0 0 1-1.12-.33 1.484 1.484 0 0 1-.41-.32c-.09-.07-.09-.1-.14-.13a6.992 6.992 0 0 0-1.69-1.51 1.999 1.999 0 0 0-.73-.41h-.11a20.99 20.99 0 0 0-9.82-.35c-1.303.325-2.556.83-3.72 1.5-.35-.412-.724-.803-1.12-1.17a7.811 7.811 0 0 0-4.84-1.86 8.089 8.089 0 0 0-4.87 1.49 8.537 8.537 0 0 0-2.88 3.81 19.382 19.382 0 0 0-1 3.61 8.716 8.716 0 0 0-2.79-.8 8.578 8.578 0 0 0-5.87 1.61 18.526 18.526 0 0 0-2 1.85 5.067 5.067 0 0 0-1.18 2.52l-.23.13a1.973 1.973 0 0 0-.41-.33 3.563 3.563 0 0 0-1-.42l-.44-.13c-.3-.11-.6-.23-.93-.38-.8-.426-1.645-.762-2.52-1a4.446 4.446 0 0 0-3.41.69 9.731 9.731 0 0 0-2.07 1.91 5.002 5.002 0 0 0-1.2 3 4.601 4.601 0 0 1-.24 1.84l-.06.14c-.05.144-.07.297-.06.45a5.615 5.615 0 0 1-2.81 5.09l-1.35-.26-.8.12a2.24 2.24 0 0 1 .31-.1 2.891 2.891 0 0 0-.72 0c-1 .24-1 .54-1.31.71a8.122 8.122 0 0 0-1.42 1.45 10.794 10.794 0 0 0-1.75 3.53c-.74 2.42-1 4.78-2.11 6.68a2.524 2.524 0 0 1-2.27 1.57c-1.09.13-2.33.07-3.59.23-1.26.16-4.83-1.19-5.89-.37a13.691 13.691 0 0 0-2.81 4c-.54 1.17-.49 3.25-.7 4.51-.21 1.26.86 3.33.71 4.43-.15 1.1 1.06 1.36.53 2.32a21.655 21.655 0 0 1-2.07 2.84 13.495 13.495 0 0 0-2.08 3.08 6 6 0 0 0-.07 3.79l.09.27a3.621 3.621 0 0 0-.65 1.23c.07.83.12 1.67.17 2.5l.37.81c.436.976.691 2.023.75 3.09.003 1.755-.253 3.5-.76 5.18l-.41.13a49.737 49.737 0 0 1-.95 9.09c1 5.76-1 11.65-5 16.3 1.28-1.51-.89 1.71-1.1 2.12a18.75 18.75 0 0 0-1.15 2.81 82.767 82.767 0 0 0-2.59 9.55c-1.35 6.15-1.62 13.16-1.8 19.75v1c.19.67.39 1.35.61 2 3.74 5.57 7.91 10.84 11.64 16.4 1.4.74 2.78 1.54 4.13 2.38.43.13.86.24 1.3.34 1.91.34 2.83.34 4.08.55 1.076.148 2.139.378 3.18.69a24.688 24.688 0 0 1 6 3.13 18.999 18.999 0 0 0 8.94 3.32 68.418 68.418 0 0 0 8.31-.32l7.7-.72a50.69 50.69 0 0 0 7.93-.93c2.13-1.26 4.22-2.56 6.28-4 3-2.07 6.25-4.3 9.61-6.18a23.55 23.55 0 0 0 4.49-11.86l4.41-.23c5.25-.21 10.74-.74 15.79-.66a22.21 22.21 0 0 1 3.6.4c1.08.24 2.31.7 3.68 1.11 1.565.546 3.233.734 4.88.55a13.725 13.725 0 0 0 4.32-1.78 2.08 2.08 0 0 0 .73-.6l.08-.11.9-1.22a4.807 4.807 0 0 1 4.26-.43l1 .39a.128.128 0 0 0 .055-.003.122.122 0 0 0 .05-.024.14.14 0 0 0 .055-.093.146.146 0 0 0-.026-.109.147.147 0 0 0-.094-.061c-.1 0 .41.08 1.33.2a5.232 5.232 0 0 0 1.66-.1 9.1 9.1 0 0 0 1.18-.32 15.289 15.289 0 0 0 3.91-2.07c2.17-1.54 3.72-2.62 5.38-2.79.9-.13 2.16 0 3.82-.31a7.72 7.72 0 0 0 4.89-2.85 14.983 14.983 0 0 0 1.76-4c.043-.096.097-.186.16-.27l.21-.2c.25-.21.35-.23.37-.23a5.975 5.975 0 0 1 1.07 0A6.57 6.57 0 0 0 608 317a5.757 5.757 0 0 0 2.62-2.54 9.698 9.698 0 0 0 .79-2.51c.018-.101.041-.201.07-.3.183-.146.385-.267.6-.36a13.661 13.661 0 0 0 4-2.25c2.8-2.63 3.39-6.28 3.45-9 0-1.5 0-2.45.08-3.61l.29-3.6a33.804 33.804 0 0 0-.05-8.16zm-56.39-80.89 2.83-2a2.922 2.922 0 0 0-.57-.61 1.508 1.508 0 0 0-.22-.16l-1.75.65.39-.15 1.36-.5c.07.06.11.12.18.18.227.165.42.372.57.61l-2.84 2 .05-.02zm47.1 97.44a7.916 7.916 0 0 1-1.11 1.91c-.23.31-.5.6-.76.9l-.31.33h-1.17a2.712 2.712 0 0 0-1.21.39 2.31 2.31 0 0 0-.57.55l-.24.38c-.49.88-.84 1.85-1.05 2.07a1.209 1.209 0 0 0-.31.76v.65a4.425 4.425 0 0 1-1.31 0l-.75-.1a.133.133 0 0 0-.098.023.125.125 0 0 0-.052.087.133.133 0 0 0 .023.098.157.157 0 0 0 .038.035.143.143 0 0 0 .049.017c-.65.015-1.29.165-1.88.44a5.1 5.1 0 0 0-1.75 1.81 4.097 4.097 0 0 1-.48.64 5.774 5.774 0 0 0-.81 1 2.1 2.1 0 0 0-.12 2c.188.363.447.686.76.95-.469.303-.961.57-1.47.8-.59.25-1.16.52-1.78.75-.524.235-1.066.429-1.62.58-.95.15-2.57-.22-4.08.23a14.758 14.758 0 0 0-3.94 1.61c-1.21.6-2.42 1.44-3.47 2a7.568 7.568 0 0 1-3.35.95 4.684 4.684 0 0 1-1.62-.28 4.714 4.714 0 0 0-2.5 0c-1.396.373-2.74.921-4 1.63a3.07 3.07 0 0 0-1.16 1 2.429 2.429 0 0 0-.41 1.69l-.2.05a13.45 13.45 0 0 1-3.5.1c-1.08-.22-2.28-.82-3.74-1.22a36.13 36.13 0 0 0-4.17-.55 63.325 63.325 0 0 0-8.15 0c-4.54.27-9 .77-13.45 1.15a12.765 12.765 0 0 0-.52-1.84c-.53-1.44-1.17-2.59-1.6-3.63a15.995 15.995 0 0 1-1.5-6.49 46.007 46.007 0 0 1 1.21-7.3c.339-1.464.434-2.975.28-4.47a17.369 17.369 0 0 0-1.16-4.16c-1.11-2.74-2.8-4.72-3.53-6.87a20.54 20.54 0 0 1-.7-7.28c0-1.3.06-2.63 0-4 0-.68-.09-1.32-.21-2a8.941 8.941 0 0 0-.73-2 47.3 47.3 0 0 1-1.73-7.38 32.103 32.103 0 0 1-.18-7.65l.19-1.92a1.996 1.996 0 0 0-.75-2.11 2.384 2.384 0 0 0-3.103.652c-.229.311-.38.675-.437 1.058-.74 5.12-1 10.46.27 15.6.59 2.56 1.54 5 1.66 7.46.12 2.46-.77 4.93-.59 7.8.18 2.87 1.55 5.37 2.61 7.67 1.06 2.3 2 4.62 1.56 6.61-.44 1.99-1.87 3.95-3.19 6.53a11.157 11.157 0 0 0-1.24 4.52 10.171 10.171 0 0 0 1.09 4.75c1.43 2.71 2.51 4.38 3 6.61.511 2.122.548 4.331.11 6.47a15.25 15.25 0 0 1-7.53 10c-3.75 2.14-8.27 2.21-13.57 2.19-5.3-.02-10.78 1.2-14.85.33a16.267 16.267 0 0 1-6.09-2.62 26.967 26.967 0 0 0-3.75-2.11 13.194 13.194 0 0 0-2.3-.77c-.85-.19-1.33-.24-2-.37-5.09-.85-9.38-2.13-12.12-6a31.243 31.243 0 0 1-5.39-13.5 32.301 32.301 0 0 1 1.42-14.75c1.59-4.73 4.75-8.84 7.3-13.49a29.033 29.033 0 0 0 3-7.47c.69-2.63.63-5.44.9-7.86.49-5 1.92-10.22 1.1-15.84a18.015 18.015 0 0 0-1.14-4.1l-.46-1-.24-.49a3.774 3.774 0 0 0-.54-.74 2.875 2.875 0 0 0-.71-.54 3.86 3.86 0 0 1 .77-1.78 26.381 26.381 0 0 1 2.2-2.5c.76-.83 3.24-1.37 3.64-2.59a9.98 9.98 0 0 0 0-3.49c-.12-1-1.31-2.37-1-3.44a15.95 15.95 0 0 1 1.39-3 5.178 5.178 0 0 1 2.2-2.13 3.423 3.423 0 0 1 2.87.2h.1l2.05.08a.3.3 0 0 0 .25-.09l.05-.05a10.202 10.202 0 0 0 2.41-2.1 8.15 8.15 0 0 0 1.07-3.13c.36-2.07.4-4.16 1.09-5.9a3.816 3.816 0 0 1 1.63-2c.81-.51 1.07-.23 2.44.1a8.518 8.518 0 0 0 3.44-.39 5.871 5.871 0 0 0 3-2 6.732 6.732 0 0 0 1.59-3.24c.08-1.55-.28-2.16 0-2.91a24.861 24.861 0 0 1 1.73-3.6c.045.2.102.397.17.59.135.356.316.692.54 1 .1.32 1.16.91 1.07.85.335.194.641.432.91.71.478.526 1.07.936 1.73 1.2.732.24 1.514.288 2.27.14a5.731 5.731 0 0 0 3.47-2l.15-.2.06-.1 1.27-2.51c.083-.161.127-.339.13-.52v-.1a2.41 2.41 0 0 1 .32-1.43c0 .05 0-.06.7.14a14.055 14.055 0 0 1 3.81 2.24 3.732 3.732 0 0 0 3 1.41 3.794 3.794 0 0 0 3.23-2 16.36 16.36 0 0 0 .91-2c.163-.453.371-.888.62-1.3.122-.157.21-.338.26-.53v-.1c.18-.75.42-2 .43-1.94.08-.08-.06.05.18-.06a5.73 5.73 0 0 1 2.14.08 4.336 4.336 0 0 0 1.71 1.31 4.096 4.096 0 0 0 4-.52l1.41-1.21c.36-.321.748-.609 1.16-.86.104-.073.215-.137.33-.19a9.683 9.683 0 0 1-.75 1.11c-.265.345-.509.705-.73 1.08-.455.758-.849 1.55-1.18 2.37a21.966 21.966 0 0 0-1 2.7 8.56 8.56 0 0 0-.24 3.65c.071.387.171.768.3 1.14.056.18.123.357.2.53l.38.75c.3.512.694.963 1.16 1.33.29.23.61.43.78.37.17-.06 0 0 .18-1 .062-.311.192-.605.38-.86l-.09.37a4.275 4.275 0 0 0-.09.74 3.292 3.292 0 0 0 2.95 3.57 2.803 2.803 0 0 0 2.88-1.41c.525-.846.9-1.777 1.11-2.75.157-1.103.181-2.221.07-3.33-.19-1.16.32-1.13.38-1.14.18-.589.257-1.205.23-1.82 0-1.68-.66-3.41-.56-5.1a13.418 13.418 0 0 0 2.93 1.64c.731.28 1.493.471 2.27.57a5.07 5.07 0 0 0 1.47.07c.46-.05.914-.137 1.36-.26 1.34-.39 2.38-.79 3.44-1.16l.34-.11c.073.435.204.859.39 1.26.09.18.25.44.31.53l.14.22.09.12a7.322 7.322 0 0 0-2.09 2.21c-1.89 3.25-1.93 5.95-2.35 7.41a52.153 52.153 0 0 0-1.35 6.14 11.38 11.38 0 0 1-.42 2 2.813 2.813 0 0 0 1.338 3.409 2.804 2.804 0 0 0 1.936.257 2.805 2.805 0 0 0 1.636-1.066c1.29-2 3.39-3.5 5.24-5.53a8.994 8.994 0 0 0 2.07-3.59c.282-1.01.44-2.052.47-3.1a2.7 2.7 0 0 0-.09-.81.472.472 0 0 1 0-.62 2.473 2.473 0 0 1 1.22-.5c.298-.044.599-.067.9-.07a3.18 3.18 0 0 0 1.42-.3 3.385 3.385 0 0 0 1.77-2c.043-.131.076-.265.1-.4 0 .24-.06.48-.09.74-.25 1.533-.192 3.1.17 4.61a6.521 6.521 0 0 0 1.49 2.75 9.085 9.085 0 0 0 1.93 1.66c.576.38 1.181.715 1.81 1 .19.11.12 0 .33.27.221.28.418.578.59.89.08.22 0-.11.06.25 0 1.043.247 2.071.72 3a9.344 9.344 0 0 0 1.61 2.08c.567.619 1.205 1.17 1.9 1.64.672.41 1.386.745 2.13 1 .26.07.506.181.73.33.2.161.372.353.51.57a16.745 16.745 0 0 1 1.4 2.51l.8 1.53a6.995 6.995 0 0 0-.74 1.83 8.856 8.856 0 0 0-.34 2.59c0 .79.13 1.49.2 2 .086.411.123.83.11 1.25a3.115 3.115 0 0 1-.93.27c-.446.087-.897.144-1.35.17l-.68.07c-.358.06-.71.154-1.05.28a5.093 5.093 0 0 0-1.74 1.16 4.567 4.567 0 0 0-1.21 4c-.09 4.51-.15 6.19-.15 6.39 0 .71.07 1.39.07 1.39a28.44 28.44 0 0 0 1.51 2.44 21.9 21.9 0 0 0 8.73 7.56c7.31 3.72 15.58.45 18.53 5.55a18.16 18.16 0 0 1 2 3.93 14.1 14.1 0 0 0-2.69 1 13.47 13.47 0 0 0-3.79.93 8.43 8.43 0 0 0-4.09 4 17.012 17.012 0 0 0-1.33 5.54c-.2 1.917-.126 3.853.22 5.75a10.488 10.488 0 0 0 2.9 5.81 7.84 7.84 0 0 0 3.33 1.88 6.35 6.35 0 0 0 4.28-.34c2.52-1.12 3.81-3.23 4.68-4.13.124 1.405-.04 2.82-.48 4.16z" fill="#174f78"/><path d="M568.52 210.46a2.682 2.682 0 0 0-.07-.68l.13-.05c-.01.2-.03.45-.06.73zm11.29 1.42s0 .06 0 0-.01 0 0 0zm2.12 58.99a7.283 7.283 0 0 1 1.83-.21c.54 0 1.86-.07 2.26-1 .2-.348.312-.74.326-1.141a2.459 2.459 0 0 0-2.116-2.509 12.995 12.995 0 0 0-8.07 1.27c-2.54 1.53-4.4 3.62-6.31 3.43-.718.12-1.43.281-2.13.48a5.73 5.73 0 0 0-1.48.76 8.951 8.951 0 0 0-1.08.84 12.726 12.726 0 0 0-1.67 2.13l-1 1.48c-.73 1.07-1.34 2.09-2 2.91-.24.34-.85.95-.68.86.17-.09 0 0-.32.22a6.572 6.572 0 0 0-1.56 1c-.47.43-.854.946-1.13 1.52-.13.24-.21.45-.31.68a4.994 4.994 0 0 0-.32 1.07 6.19 6.19 0 0 0 .27 3c.058.212.132.419.22.62 0 .15.15-.36.29-.41.14-.05-.46.7-.91 1.25a6.766 6.766 0 0 0-1.43 2.5 5.685 5.685 0 0 0 .16 2.55c.085.579.108 1.166.07 1.75v2a32.676 32.676 0 0 1-1.12 7.64 13.084 13.084 0 0 0-.59 4.39c.086.773.243 1.536.47 2.28a3.456 3.456 0 0 0 2.67 2.58 4.001 4.001 0 0 0 3.68-1.4 4.167 4.167 0 0 0 .76-4.11 4.763 4.763 0 0 1 .44-2.27l1.39-3.47c.312-.778.546-1.586.7-2.41.13-.76.23-1.46.31-2.18.061-1.142.221-2.276.48-3.39a7.16 7.16 0 0 1 .47-1.25c.1-.2.26-.54.23-.43l.42-.59c.499-.63.947-1.299 1.34-2a4.66 4.66 0 0 0 .42-2.76v-.14l.39-.28a13.361 13.361 0 0 0 4-3.57 6.86 6.86 0 0 0 .9-1.9c.132-.492.226-.993.28-1.5 0-.76.19-1-.25-.33.23-.41.1-.55 1.59-1.32a8.583 8.583 0 0 0 2.29-1.58 11.975 11.975 0 0 0 1.53-2c1.64-2.74 1.74-4.59 4.29-5.06zm-40.42-34.66a5.26 5.26 0 0 0-.88 1.07c-.2.319-.374.653-.52 1a7.25 7.25 0 0 0-.49 1.95v.92c0 .3 0 .5.07 1.17a17.054 17.054 0 0 0 1.06 3c.37.873.638 1.786.8 2.72.009.12.009.24 0 .36a2.51 2.51 0 0 0-1.4.84 3.424 3.424 0 0 0 .22 4.53 4.182 4.182 0 0 0 2.4 1.05 5.487 5.487 0 0 0 6.11-3.2 10.91 10.91 0 0 0 .92-4c.08-1.22-.08-2.51-.08-3.2-.006-.541.024-1.083.09-1.62 0 0-.43.39.48-.79.236-.318.45-.652.64-1l.3-.59c.06-.123.11-.25.15-.38a6.008 6.008 0 0 0 .47-2.59l-.07.36a4.328 4.328 0 0 0-.31-2.43l.06 1.09a6.824 6.824 0 0 0-.2-1.31 3.475 3.475 0 0 0-.56-1.14 2.393 2.393 0 0 0-1.23-2.23 4.185 4.185 0 0 0-3.701-.245 4.183 4.183 0 0 0-2.439 2.795c-.13.505-.314.995-.55 1.46-.21.27-.36 0-.3-.33a2.531 2.531 0 0 0-1.04.74z" fill="#174f78"/><path d="M542.37 248.26h-.34c.113-.009.227-.009.34 0zm-5.09-11.78c.193-.166.377-.343.55-.53a7.691 7.691 0 0 0 1.4-2 3.231 3.231 0 0 0 .35-2.11.838.838 0 0 1 .2-.43c-.06-.13.78-.33 1.12-.66a3.249 3.249 0 0 0 1.32-2.42 3.151 3.151 0 0 0-.67-2.15 2.08 2.08 0 0 0-.866-.592 2.083 2.083 0 0 0-1.044-.098c-1.11.15-2.24.18-3.54.39a10.808 10.808 0 0 0-3.83 1.56 5.99 5.99 0 0 1-2.14 1 5.971 5.971 0 0 0-.8.41 6.31 6.31 0 0 0-1.14.9 5.517 5.517 0 0 0-1.39 2.37 8.169 8.169 0 0 0-.17.86.83.83 0 0 1 .09.29 1.829 1.829 0 0 1-.35 1 5.887 5.887 0 0 1-2.3 2c-.52.27-.91.39-1.62.7-.403.196-.76.475-1.047.82a3.15 3.15 0 0 0-.613 1.18 3.672 3.672 0 0 0 .24 2.68 3.246 3.246 0 0 0 3 1.67c.26 0 .59-.06.81-.09h.4l.85-.05a13.846 13.846 0 0 0 5.45-1.38 8.996 8.996 0 0 0 3.89-3.32c.209-.375.396-.763.56-1.16l.41-.21c.316-.177.611-.388.88-.63zm-13.66-9.63a22.607 22.607 0 0 0 3-1.87c.79-.64 1.62-1.37 1.73-1.83a.319.319 0 0 1-.1-.21.61.61 0 0 1-.3-.33c-.09-.09-.19-.34-.1-.38.193.196.404.374.63.53a3 3 0 0 0 2.95.28 2.635 2.635 0 0 0 1.518-1.566 2.633 2.633 0 0 0-.178-2.174 8.937 8.937 0 0 0-2.57-2.81 8.449 8.449 0 0 0-4.2-1.37 7.499 7.499 0 0 0-4.33 1c-1.08.68-1.76 1.16-1.73 1.34.03.18.33.34-.06.39a3.08 3.08 0 0 1-1.33-.15 69.22 69.22 0 0 1-3.52-1.21 14.895 14.895 0 0 0-3.84-.92 3.009 3.009 0 0 0-1.516.354c-.465.25-.856.617-1.134 1.066a3.811 3.811 0 0 0-.333 3.408 3.8 3.8 0 0 0 2.543 2.292c.85.19.63.25.81.33.117.092.227.192.33.3l2 1.76a11.139 11.139 0 0 0 4 2.37 6.8 6.8 0 0 0 3.42.22 10.35 10.35 0 0 0 2.31-.82zm39.31 6.76a2.624 2.624 0 0 1 2 1c.346.639.45 1.381.29 2.09a4.404 4.404 0 0 0 .81 2.81 5.887 5.887 0 0 0 2.3 2c.886.392 1.821.661 2.78.8l.67.13.33.07.54.16a3.216 3.216 0 0 0 2.23-.23 3.562 3.562 0 0 0 1.88-3.22 3.477 3.477 0 0 0-.74-2 5.44 5.44 0 0 1-.56-.68l-.37-.52c-.425-.636-.8-1.305-1.12-2-.32-.64-.31-.84-.61-1.57a9.777 9.777 0 0 0-1.51-2.79 8.054 8.054 0 0 0-3-2.35 9.09 9.09 0 0 0-3.31-.76 5.643 5.643 0 0 0-1.54.2 3.194 3.194 0 0 0-.73.21c-.495.08-.976.228-1.43.44a3.296 3.296 0 0 0-1.86 2.31 3.385 3.385 0 0 0 .36 2.1 3.257 3.257 0 0 0 2.59 1.8zM503 252.17a9.696 9.696 0 0 0-1.89 1.83c-2.07 2.69-2.41 5.64-4.32 7.44a7.227 7.227 0 0 1-.75.66 3.1 3.1 0 0 0-.49 4.46 3 3 0 0 0 3.52.88c1-.45 1.49-.67 2.23-1.09a20.565 20.565 0 0 0 3.87-2.67c.294-.241.574-.498.84-.77.23-.22.39-.34.6-.51.42-.3.85-.62 1.37-.95a31.195 31.195 0 0 0 3.71-2.51 12 12 0 0 0 3.34-4.4c.67-1.5 1-2.69 1.42-3.67a25.521 25.521 0 0 0 1.42-4.45 7.517 7.517 0 0 0-.11-2.92 4.332 4.332 0 0 0-1.56-2.69 3.008 3.008 0 0 0-2.77-.24 1.999 1.999 0 0 0-1.24 2.15c0 2.71-3.27 4-5.27 6.39a16.895 16.895 0 0 1-2.55 2.07l-1.37.99zm-5.89-2.8a29.984 29.984 0 0 1 3.87-2.49 31.74 31.74 0 0 0 4.86-3.33c2.11-2.44-.95-5.28-2.83-4a9.658 9.658 0 0 1-5 1.08 27.952 27.952 0 0 0-5.76.22 6.634 6.634 0 0 0-3.43 2 14.751 14.751 0 0 0-1.76 2.62c-.254.464-.555.9-.9 1.3l-1.63 1.72a11.213 11.213 0 0 0-2 2.89 6.998 6.998 0 0 0-.5 3.68c.28 2 .83 3.61.43 4.81a1.587 1.587 0 0 1-1.21 1.06c-.33.064-.665.094-1 .09a5.006 5.006 0 0 0-1.75.21 3.284 3.284 0 0 0-1.74 3.84 3.4 3.4 0 0 0 1.5 2 5.44 5.44 0 0 0 2.12.59 8.586 8.586 0 0 0 6.64-2 11.19 11.19 0 0 0 2.25-2.54 10.432 10.432 0 0 0 1.44-3.41c.43-2.14.71-3.83.94-3.78a12.895 12.895 0 0 0 3.63-3.54c1.55-2.78.81-2.06 1.83-3.02zm9.81 49.23a9.876 9.876 0 0 0 1.32-1.7c.33-.52.63-1.07.91-1.61a20.732 20.732 0 0 0 1.26-3.35 32.75 32.75 0 0 0 1-6.43 35.847 35.847 0 0 0-.24-6.35 13.236 13.236 0 0 0-2.78-6.34 3.588 3.588 0 0 0-1.53-1.29 2.353 2.353 0 0 0-2 .2 2.253 2.253 0 0 0-1.189 1.351c-.093.295-.125.606-.093.914.033.308.129.606.282.875a7.78 7.78 0 0 1 .27 5.61 24.355 24.355 0 0 1-2.28 5.39l-2.63 4.93a22.246 22.246 0 0 1-2.75 4.27 10.516 10.516 0 0 0-1.73 3.65 5.9 5.9 0 0 0 0 2.44 5.341 5.341 0 0 0 1 2.3c1.37 1.46 1.81 1.26 2.28 1.92a5.84 5.84 0 0 1 1 2.3c.32 1.72-.09 3.87.26 6.09a2.787 2.787 0 0 0 1.5 2.12 3.33 3.33 0 0 0 2.58.16 3.504 3.504 0 0 0 2.06-1.77 3.6 3.6 0 0 0 .35-1.46v-.93a6.405 6.405 0 0 1 .63-2.16 10 10 0 0 0 1-3.52 6.747 6.747 0 0 0-1.49-4.89c-.38-.43-.66-.7-.87-.91.24-.24.96-.88 1.88-1.81z" fill="#174f78"/><path d="M504.76 300.11c-.12-.18.09 0 .13.08.06-.21.06 0 .07.12a1.888 1.888 0 0 1-.2-.2zm-27.22-10.27a2.807 2.807 0 0 0-2 .32 2.489 2.489 0 0 0-1 1.57 2.308 2.308 0 0 0 1.55 2.76c1.66.57 2.6 2.45 2.85 4.17a6.908 6.908 0 0 1-1 4.78 28.421 28.421 0 0 1-2.67 3.86 4.207 4.207 0 0 1-.55.62l-1 .9a8.337 8.337 0 0 0-2.1 3.4c-1.32 4-1.31 8.11-1.47 12.06v3a6.37 6.37 0 0 0 .25 1.73 2.62 2.62 0 0 0 1.9 1.62 3.451 3.451 0 0 0 3.87-2.15 3.5 3.5 0 0 0 .21-1.27v-.7c.055-.382.135-.759.24-1.13a24.712 24.712 0 0 1 2.21-4.58c.48-.847.918-1.719 1.31-2.61.304-.664.676-1.294 1.11-1.88.82-1 2.26-2.52 3.52-3.94a11.438 11.438 0 0 0 2.13-3.26c.495-1.201.796-2.474.89-3.77.43-4.44-.6-9.42-4.26-12.71a11.588 11.588 0 0 0-5.99-2.79zm39.6 19.06a2.879 2.879 0 0 0-3-.78 2.807 2.807 0 0 0-1.867 2.675c.004.388.088.771.247 1.125a6.394 6.394 0 0 1-.61 6.47 23.08 23.08 0 0 0-1.62 2.6 7.717 7.717 0 0 0-.68 4.25c.19.965.331 1.94.42 2.92.08.85-.62 2.12-1 3.55a2.861 2.861 0 0 0 .68 2.78 3.36 3.36 0 0 0 2.56.93 3.248 3.248 0 0 0 2.56-1.56l.2-.34.09-.08a.978.978 0 0 1 .2-.15l.52-.31a6.756 6.756 0 0 0 3.37-3.25 13.805 13.805 0 0 0 1-4.36c.065-.945.243-1.878.53-2.78.385-1.301.603-2.645.65-4a14.686 14.686 0 0 0-.51-4.29 10.36 10.36 0 0 0-2.12-3.78c-.56-.59-.92-.87-1.62-1.62zm74.52-11.9a6.349 6.349 0 0 0-.22-.74 3.524 3.524 0 0 0-.9-1.35 2.99 2.99 0 0 0-2.53-.69 2.83 2.83 0 0 0-2.44 2.66c0 2-1.19 3.88-2.35 5.67a9.48 9.48 0 0 0-1.63 5.25c.08.84 0 1.71.33 1.88 0 .06.2-.06.3 0 .06.009.118.03.17.06 0 0-.19.07-.26.11-.436.155-.835.4-1.17.72a3.628 3.628 0 0 0-1.13 2.16 3.47 3.47 0 0 0 .41 2.26 2.788 2.788 0 0 0 2.18 1.27 8.875 8.875 0 0 0 3.88-.49 7.361 7.361 0 0 0 3.31-2.78 12.749 12.749 0 0 0 1.5-3.36 26.581 26.581 0 0 0 1.48-5.87 11.991 11.991 0 0 0-.77-6.35l-.16-.41zm-39.51-29.06a3.493 3.493 0 0 0 1.92-.38c2.29-.77 4.21-1.54 6.51-2.3a4.44 4.44 0 0 0 3.06-3.45v-.38l-.38-1.15c-.39-.38-.39-1.15-.77-1.53l-1.15-1.15c-.38-.38-.76-.77-.76-1.15a2.897 2.897 0 0 0-2.68-1.53 6.587 6.587 0 0 0-4.6.77 4.837 4.837 0 0 0-1.748 1.402 4.837 4.837 0 0 0-.932 2.038c0 .38-.38.77-.38 1.53s-.39.39-.39.39a4.997 4.997 0 0 0-2.29 1.91l-.39.38v.39a4.702 4.702 0 0 0 3.07 3.44c0 .77.76.77 1.91.77z" fill="#174f78"/></svg>
