<svg width="732" height="658" fill="none" xmlns="http://www.w3.org/2000/svg"><path d="M573 369.51c-16.37-3.93-32.61-6.65-47.57-14.88-13-7.17-24.82-18.1-30.09-32.32-4.63-12.49-3.54-26.51 4.95-37.16A28.605 28.605 0 0 1 515.16 275c8.33-2.21 17.22-.49 25.52-3.29a44.401 44.401 0 0 0 28.4-31.29c3.69-15.4-1.48-36.06-19.88-37.86-5.51-.54-13.87 2.81-17.79-2.27-4.45-5.78-4.13-14.53-5.26-21.35-2.74-16.68-14.33-27.74-30.43-31.93-17-4.44-35 .5-51.85-4.73-8.43-2.62-16.5-6.41-25.53-6.3-8.1.1-16.09 3-21.21 9.5-9.3 11.7-3.76 25.32-5.15 38.65-.6 5.76-4 7.8-9 10.18-6.79 3.23-13.29 6.65-17.2 13.42-8.27 14.32.8 29.38.67 44.29-.11 14-13.63 24.29-25 29.94-12.55 6.24-26.53 9.28-39.89 13.24-15.81 4.68-30.07 11.9-45 18.72-11.12 5.09-23.85 9-35.74 5-1.63-4-3.24-7.94-4.86-11.91 1.06-17 1.12-35.24-7.86-50.27-3.8-6.36-9.14-11-14.44-15.87-.52-10.16-2-19.9-6.67-29.2a12.38 12.38 0 0 0-6.38-6 15.372 15.372 0 0 0-10.1-4.18c-8.43 0-13.79 6.66-14.5 14.5 0 .2 0 .39-.05.59-19 28-12.32 65 4.57 93A226.797 226.797 0 0 0 178 334.06c4.61 5.79 12.12 12.33 13.69 19.88.85 4.05-.58 8.06-1.84 11.88-1.47 4.5-3 9-4.64 13.42a221.941 221.941 0 0 1-9.2 22.43 107.438 107.438 0 0 1-13.21 21.49c-5.14 6.26-11.15 11.09-17.59 15.9-6.78 5.08-13.43 10.76-16 19.18-2.9 9.55 1.16 19.37 4.83 28.08a136.92 136.92 0 0 0 13.3 24.54c5.11 7.43 11 16 18.68 20.95 8.68 5.57 20.27 3.41 23.87-6.95 3-8.72 2.41-20 1.54-29.07a119.853 119.853 0 0 0-3-17.74c-.56-2.2-1.33-4.38-2.09-6.57a88.276 88.276 0 0 1 4-15.14c.15-.43.7-1.7.79-1.93a57.672 57.672 0 0 1 1.73-3.41c.35-.65.72-1.29 1.11-1.93 2.44-1.47 4.89-2.71 6.78-3.72 13.67-7.26 29.1-10.57 44.45-13 .17 1.35.34 2.69.52 4-.1 2.54-.193 5.077-.28 7.61-2.27 5.71-5.11 11.28-6.88 16.47-4.78 14.09-4.09 29.44 6.74 40.58 9.37 9.65 26.52 15.75 39.84 12.25 19.75-5.19 6.72-32.82 3.24-45.33-1.91-6.86-3.34-14-1.44-21.05a30.803 30.803 0 0 1 9-14.24c8.71-8.22 21-12.84 32.74-14.49 18-2.54 36.37.28 54.43-.22 18.72-.52 35.32-6.08 52.94-11.78 7.87-2.54 16.35-6.2 22.49 1.14 5.52 6.61 9.75 13.93 16 20a91.804 91.804 0 0 0 45.81 23.77c5.55 1.07 11.53-2.45 11.39-8.68a146.552 146.552 0 0 0-8.94-47.23 73.011 73.011 0 0 1 11.2 2.43c8.28 2.49 15.21 6.89 22.76 10.93 7.55 4.04 15.72 6.68 24.28 4.76 7.29-1.64 14.08-6.8 16.47-14 5.49-16.4-11.1-26.53-24.51-29.76zm-142.6-98.18c-.07-.08-.13-.17-.21-.25l.42-.63-.21.88zm104-29.88-.56-.21-.51-.2h.1s.9.31.9.41h.07zm-.8-11.94c.1-.28.18-.37-.07 0h.07zm-20.93 198.56c.1.75.19 1.51.28 2.27-.59-.21-1.18-.44-1.77-.67a14.095 14.095 0 0 0 1.49-1.6z" fill="#fff"/><path d="M532.31 209.41a6.922 6.922 0 0 1 1.67-.51c.51-.06 1.73-.4 1.95-1.3a2.333 2.333 0 0 0-.336-2.158 2.327 2.327 0 0 0-1.974-.932c-2.656.05-5.224.959-7.32 2.59-2.11 1.87-3.48 4.15-5.3 4.31a17.61 17.61 0 0 0-1.91.81c-.461.273-.882.61-1.25 1a8.621 8.621 0 0 0-.86 1c-.481.713-.88 1.478-1.19 2.28l-.7 1.56c-.5 1.13-.89 2.19-1.35 3.07-.16.36-.62 1-.48.92.14-.08 0 0-.26.26a6.143 6.143 0 0 0-1.28 1.24 4.662 4.662 0 0 0-.79 1.61 7.087 7.087 0 0 0-.17.69c-.073.348-.11.704-.11 1.06.028.959.293 1.897.77 2.73.088.188.192.369.31.54 0 .15.08-.35.2-.43.08.09-.3.74-.63 1.33a6.454 6.454 0 0 0-.9 2.59c.022.812.227 1.608.6 2.33.179.525.299 1.068.36 1.62.11.62.25 1.23.32 1.85.381 2.424.478 4.884.29 7.33a12.544 12.544 0 0 0 .21 4.21c.22.684.494 1.349.82 1.99a3.282 3.282 0 0 0 3 2 3.76 3.76 0 0 0 3.2-1.94 4.001 4.001 0 0 0 0-4 4.599 4.599 0 0 1 0-2.2l.69-3.48c.159-.78.236-1.574.23-2.37 0-.74 0-1.42-.09-2.1a19.946 19.946 0 0 1-.14-3.25c.043-.422.116-.839.22-1.25.06-.21.15-.55.14-.44l.29-.63c.362-.686.663-1.402.9-2.14a4.43 4.43 0 0 0-.09-2.65l-.06-.12.32-.33a12.473 12.473 0 0 0 3.09-4.1 6.222 6.222 0 0 0 .51-1.93 7.635 7.635 0 0 0 0-1.45c-.1-.72 0-1-.29-.26.14-.43 0-.53 1.26-1.51A8.45 8.45 0 0 0 528 217c.435-.664.8-1.371 1.09-2.11 1.15-2.89.91-4.59 3.22-5.48zm-40.14-48.85c-.262.354-.477.74-.64 1.15a6.517 6.517 0 0 0-.42 2.9c.016.292.052.583.11.87 0 .28.11.47.27 1.08.42.918.926 1.796 1.51 2.62.505.75.914 1.559 1.22 2.41.038.107.068.218.09.33a2.436 2.436 0 0 0-1.17 1 3.262 3.262 0 0 0 1 4.19 4.001 4.001 0 0 0 2.42.57 5.188 5.188 0 0 0 2.05-.4 5.4 5.4 0 0 0 1.98-1.466 5.398 5.398 0 0 0 1.12-2.194c.304-1.281.355-2.61.15-3.91-.13-1.16-.51-2.34-.62-3a11.603 11.603 0 0 1-.21-1.53s-.33.44.32-.81c.163-.325.306-.659.43-1l.18-.6a3.48 3.48 0 0 0 .07-.38 5.745 5.745 0 0 0 0-2.51v.36a4.136 4.136 0 0 0-.72-2.22l.25 1a6.421 6.421 0 0 0-.42-1.19 3.269 3.269 0 0 0-.72-1 2.27 2.27 0 0 0-1.54-1.87 3.99 3.99 0 0 0-1.794-.188 3.986 3.986 0 0 0-2.945 1.92 3.995 3.995 0 0 0-.551 1.718 7.03 7.03 0 0 1-.26 1.46c-.15.3-.35 0-.34-.25-.12.13-.44.44-.82.94zm2.9 11.11h-.13c-.05 0-.11.06-.17.08.097-.038.197-.064.3-.08zm-10.9-.29v-.73a7.091 7.091 0 0 0-.34-2.3 2.999 2.999 0 0 0-1.13-1.69.746.746 0 0 1-.14-.43c-.12 0 .33-.74.34-1.18a3.06 3.06 0 0 0-.491-2.333 3.06 3.06 0 0 0-2.019-1.267 2 2 0 0 0-1.77.77c-.68.82-1.44 1.58-2.2 2.57a10.18 10.18 0 0 0-1.65 3.58 5.637 5.637 0 0 1-.82 2.1 3.779 3.779 0 0 0-.28.8 5.445 5.445 0 0 0-.21 1.36 5.185 5.185 0 0 0 .58 2.55c.129.247.276.484.44.71a.564.564 0 0 1 .25.15c.231.26.377.584.42.93.149.964.042 1.95-.31 2.86-.19.53-.37.86-.67 1.54a3.007 3.007 0 0 0 .13 2.45 3.565 3.565 0 0 0 1.92 1.7 3.096 3.096 0 0 0 3.16-.78c.17-.18.37-.43.5-.6l.27-.28.55-.58c.393-.4.76-.825 1.1-1.27a13.086 13.086 0 0 0 1.78-3.23 8.563 8.563 0 0 0 .54-4.83 10.592 10.592 0 0 0-.37-1.17l.15-.41c.124-.32.215-.652.27-.99zm-.61 2c-.03.09-.04.1 0 0zm-20.22.95c.381-1.048.679-2.125.89-3.22a5.475 5.475 0 0 0 0-2.39.34.34 0 0 1-.2-.08.59.59 0 0 1-.43 0c-.11 0-.35-.11-.31-.19.26.02.52.02.78 0a2.878 2.878 0 0 0 2.25-1.69 2.519 2.519 0 0 0-1.45-3.49 8.516 8.516 0 0 0-3.61-.32 8.11 8.11 0 0 0-3.83 1.73 7.121 7.121 0 0 0-2.36 3.51c-.33 1.16-.5 2-.36 2.05.14.05.45 0 .21.31a2.941 2.941 0 0 1-1 .74c-1 .48-2.14 1-3.25 1.42a14.012 14.012 0 0 0-3.29 1.8 2.895 2.895 0 0 0-.95 2.7 3.624 3.624 0 0 0 1.956 2.601 3.621 3.621 0 0 0 3.254-.011c.71-.41.6-.23.78-.29.18-.06.26 0 .42 0h2.53a10.616 10.616 0 0 0 4.32-.89 6.393 6.393 0 0 0 2.54-2 9.619 9.619 0 0 0 1.11-2.29zm47.36-3.4a2.495 2.495 0 0 1 2.08.64c.435.531.66 1.204.63 1.89a4.222 4.222 0 0 0 1.25 2.49 5.666 5.666 0 0 0 2.51 1.49c.895.206 1.813.29 2.73.25h1.53a3 3 0 0 0 2.05-.6 3.405 3.405 0 0 0 1.19-3.34 3.278 3.278 0 0 0-1-1.78 5.234 5.234 0 0 1-.64-.53l-.44-.43a15.104 15.104 0 0 1-1.39-1.66 15.199 15.199 0 0 1-.84-1.36 9.282 9.282 0 0 0-1.9-2.34 7.669 7.669 0 0 0-3.24-1.67 8.432 8.432 0 0 0-3.22-.13 5.146 5.146 0 0 0-1.41.45 3.523 3.523 0 0 0-.64.33c-.45.158-.874.38-1.26.66a3.089 3.089 0 0 0-1.33 2.48c.024.692.27 1.358.7 1.9a3.104 3.104 0 0 0 2.64 1.26zm-66.97 34.79a9.25 9.25 0 0 0-1.44 2c-1.47 2.88-1.28 5.69-2.74 7.71a8.347 8.347 0 0 1-.59.75c-.355.4-.599.886-.71 1.41a3.182 3.182 0 0 0 1 2.84 2.821 2.821 0 0 0 3.44.21c.82-.59 1.27-.89 1.9-1.41 1.165-.936 2.221-2 3.15-3.17.229-.279.442-.569.64-.87.18-.24.31-.38.48-.58.33-.35.69-.73 1.11-1.12a30.02 30.02 0 0 0 3-3 11.362 11.362 0 0 0 2.35-4.69c.37-1.52.5-2.7.69-3.68.312-1.451.496-2.927.55-4.41a7.166 7.166 0 0 0-.61-2.7 4.128 4.128 0 0 0-1.93-2.25 2.877 2.877 0 0 0-1.346-.188 2.878 2.878 0 0 0-1.284.448 1.93 1.93 0 0 0-.79 2.23c.51 2.53-2.35 4.33-3.8 6.89a16.666 16.666 0 0 1-2 2.38l-1.07 1.2zm-15.56-5.98a28.172 28.172 0 0 1 4.07-1.36 29.327 29.327 0 0 0 5.17-1.89c2.48-1.72.37-5-1.64-4.26a9.003 9.003 0 0 1-4.75-.17 26.014 26.014 0 0 0-5.27-1.13 6.067 6.067 0 0 0-3.55 1 13.38 13.38 0 0 0-2.2 2 7.241 7.241 0 0 1-1.12 1L417 196a10.284 10.284 0 0 0-2.44 2.16 6.497 6.497 0 0 0-1.3 3.21c-.2 1.86-.08 3.46-.73 4.46a1.452 1.452 0 0 1-1.33.67 4.228 4.228 0 0 1-1-.15 4.815 4.815 0 0 0-1.63-.22 3.14 3.14 0 0 0-1.57 5.25 4.932 4.932 0 0 0 1.78 1 8.086 8.086 0 0 0 3.273.525 8.084 8.084 0 0 0 3.207-.835 10.692 10.692 0 0 0 2.63-1.78 9.46 9.46 0 0 0 2.11-2.69c.89-1.83 1.53-3.3 1.73-3.2a12.43 12.43 0 0 0 4.11-2.36c2.02-2.14 1.16-1.67 2.33-2.3zm3.71-44.53a28.912 28.912 0 0 1 3.95 1.86 30.284 30.284 0 0 0 5.13 2.25c3 .47 3.78-3.43 1.79-4.29a9.182 9.182 0 0 1-3.37-3.46 26.792 26.792 0 0 0-3.08-4.57 6.218 6.218 0 0 0-3.31-1.78 14.002 14.002 0 0 0-3-.1 7.452 7.452 0 0 1-1.5-.07l-2.22-.45a10.136 10.136 0 0 0-3.31-.12 6.768 6.768 0 0 0-3.22 1.44c-1.45 1.23-2.49 2.49-3.66 2.77a1.513 1.513 0 0 1-1.46-.44 4.682 4.682 0 0 1-.6-.8 4.677 4.677 0 0 0-1-1.3 3.11 3.11 0 0 0-4 .53 3.179 3.179 0 0 0-.87 2.22c.055.699.253 1.38.58 2a8.16 8.16 0 0 0 5 4.32c1.03.341 2.105.526 3.19.55a10.113 10.113 0 0 0 3.47-.56c1.94-.73 3.45-1.35 3.52-1.15a12.445 12.445 0 0 0 4.68 1.16c2.95-.11 2-.36 3.29-.01zm-25.75 80.64a9.975 9.975 0 0 0 2 0 16.717 16.717 0 0 0 1.74-.25 18.466 18.466 0 0 0 3.26-1 30.82 30.82 0 0 0 5.41-3 33.69 33.69 0 0 0 4.65-3.86 12.551 12.551 0 0 0 3.16-5.77 3.378 3.378 0 0 0 .09-1.9 2.329 2.329 0 0 0-1.29-1.37 2.148 2.148 0 0 0-2.438.382 2.125 2.125 0 0 0-.492.718 7.471 7.471 0 0 1-4.07 3.46 23.47 23.47 0 0 1-5.38 1.4l-5.24.88a20.873 20.873 0 0 1-4.81.4 9.994 9.994 0 0 0-3.76.82 5.515 5.515 0 0 0-1.84 1.39 5.244 5.244 0 0 0-1.16 2.08c-.31 1.88.1 2.1-.13 2.83a5.519 5.519 0 0 1-1.14 2.1c-1.11 1.24-3 2.18-4.44 3.73a2.663 2.663 0 0 0-.72 2.36c.177.82.669 1.539 1.37 2 .367.249.779.423 1.213.513.434.089.882.091 1.317.007a3.482 3.482 0 0 0 1.3-.58l.49-.39.21-.15a5.983 5.983 0 0 1 2-.77 9.554 9.554 0 0 0 3.23-1.31 6.392 6.392 0 0 0 2.81-3.95c.11-.55.15-.91.18-1.19.35.08 1.27.29 2.48.42zm-2.39-.76c.07-.19.05.07 0 .15.19-.08.06 0-.05.12.008-.092.025-.182.05-.27zm20.73 5.46a2.689 2.689 0 0 0-1.29-1.44 2.287 2.287 0 0 0-1.78 0 2.19 2.19 0 0 0-1.42 2.65c.4 1.62-.63 3.33-1.87 4.42a6.623 6.623 0 0 1-4.32 1.68 27.46 27.46 0 0 1-4.46-.15 4.186 4.186 0 0 1-.77-.13l-1.22-.3a7.807 7.807 0 0 0-3.8.05c-3.86 1-7.17 3.12-10.41 5-.8.51-1.6 1-2.39 1.58a6.54 6.54 0 0 0-1.26 1.1 2.486 2.486 0 0 0-.32 2.35 3.294 3.294 0 0 0 3.71 2 3.396 3.396 0 0 0 1.12-.48c.188-.12.381-.23.58-.33a8.38 8.38 0 0 1 1-.39 23.148 23.148 0 0 1 4.8-.57c.86 0 1.87-.18 2.76-.3a9.883 9.883 0 0 1 2.07-.07c1.22.13 3.18.52 5 .8 1.225.203 2.475.203 3.7 0a11.82 11.82 0 0 0 3.48-1.22c3.77-1.93 7.22-5.32 8-9.93.325-2.15.009-4.349-.91-6.32zM379 227.1a2.666 2.666 0 0 0 1.39 2.58 2.62 2.62 0 0 0 3.63-1.3 6.001 6.001 0 0 1 4.84-3.68 23.142 23.142 0 0 0 2.8-.53 7.705 7.705 0 0 0 1.93-.94 7.524 7.524 0 0 0 1.42-1.3c.73-.85 1.11-1.55 1.74-2.14.63-.59 1.85-.91 3.06-1.58a2.711 2.711 0 0 0 1.47-2.24 3.156 3.156 0 0 0-1-2.34 3 3 0 0 0-2.7-.77l-.36.08h-.11a1.765 1.765 0 0 1-.23 0l-.55-.16a6.316 6.316 0 0 0-4.37-.26 13.006 13.006 0 0 0-3.59 2.11 10.898 10.898 0 0 1-2.26 1.4 15.033 15.033 0 0 0-3.14 2.09 13.458 13.458 0 0 0-2.63 3.07 9.788 9.788 0 0 0-1.24 3.85c-.1.68-.02 1.11-.1 2.06zm167 5.01c-.1-.22-.21-.45-.33-.66a3.428 3.428 0 0 0-1.08-1.1 2.88 2.88 0 0 0-2.48-.2 2.682 2.682 0 0 0-1.82 2.91c.36 1.84-.44 3.84-1.21 5.71a8.928 8.928 0 0 0-.6 5.19c.21.77.26 1.6.63 1.7 0 .05.17-.09.28-.07a.442.442 0 0 1 .17 0s-.16.1-.23.15a3.385 3.385 0 0 0-1 .88 3.448 3.448 0 0 0-.67 2.21 3.25 3.25 0 0 0 .78 2 2.632 2.632 0 0 0 2.25.81 8.491 8.491 0 0 0 3.55-1.14 7.004 7.004 0 0 0 2.6-3.17c.433-1.088.706-2.234.81-3.4.34-1.897.464-3.826.37-5.75a11.508 11.508 0 0 0-1.83-5.8l-.19-.27zM267.9 333.05c-2.23-.24-4.4-.82-6.81-1.16a10.564 10.564 0 0 0-3.93.15 6.74 6.74 0 0 0-3.85 2.67 13.754 13.754 0 0 0-1.7 3.66 9.344 9.344 0 0 1-1 2.17 9.066 9.066 0 0 1-3.44 3.2l.33-.08-2.79.93a3.272 3.272 0 0 1-1.88.34c-1-.14-1.81-1.71-2-3.33a2.436 2.436 0 0 0 .38-2.33 3.109 3.109 0 0 0-.779-1.183 3.102 3.102 0 0 0-1.221-.717 2.999 2.999 0 0 0-2.77.63 13.58 13.58 0 0 0-1.61 1.3 6.317 6.317 0 0 0-.54 9.28 14.146 14.146 0 0 0 7.86 4.3c1.489.33 3.019.441 4.54.33a19.448 19.448 0 0 0 4.4-.85 14.652 14.652 0 0 0 7.49-5.61 13.188 13.188 0 0 0 1.67-4.28 13.12 13.12 0 0 1 .63-2.28c.32-1.17 2.43-2.2 4.85-2.46l1.83-.16a2.328 2.328 0 0 0 2.17-1.1c.171-.34.258-.716.254-1.096a2.377 2.377 0 0 0-2.084-2.324zm-35.73-8.43c.178.382.385.75.62 1.1a6 6 0 0 0 2.07 1.93 7.241 7.241 0 0 0 5.74.45 16.995 16.995 0 0 0 4-2l2.54-1.46c.3-.19.52-.24.47-.3-.05-.06-.43-.18-.5-.38s0-.14.11-.13c-.08-.25 0-.43.07-.37.302.269.526.614.65 1 .229.573.419 1.161.57 1.76a3.067 3.067 0 0 0 1.73 2.5 2.611 2.611 0 0 0 3.53-2.14c.09-1.26.244-2.515.46-3.76a9.633 9.633 0 0 0-.22-4.48 6.264 6.264 0 0 0-3.77-3.8 6.807 6.807 0 0 0-5.34.37c-.349.166-.683.36-1 .58-.27.2-.58.38-1 .74-.53.53-.91 1-1.32 1.47a13.43 13.43 0 0 1-2.58 2.5 4.584 4.584 0 0 1-1.42.68h-.08l-.06-.09a3.219 3.219 0 0 0-.53-.52 3.452 3.452 0 0 0-1.424-.535 3.46 3.46 0 0 0-1.516.125 3.13 3.13 0 0 0-2.26 2.75 3.837 3.837 0 0 0 .46 2.01zM219 343a2.59 2.59 0 0 0 3.91.78c1.65-1.59 3.91-3.16 5-6.13a7.536 7.536 0 0 0-2.45-8.32c-2.35-1.93-5.25-2.18-7.52-2.8a32.513 32.513 0 0 1-3.42-1.09 17.178 17.178 0 0 1-1.65-.68 3.407 3.407 0 0 0-3.22.51 4.002 4.002 0 0 0-1.54 3.2c.02.788.286 1.55.76 2.18a4.22 4.22 0 0 0 1.87 1.35l3.26 1.28a12.678 12.678 0 0 1 4.13 2.58c.339.328.644.69.91 1.08.378.456.571 1.038.54 1.63.002.495-.118.983-.35 1.42A2.81 2.81 0 0 0 219 343zm-23.55 19.21c.14.853.593 1.622 1.27 2.16a4.112 4.112 0 0 0 2.63.85 3.787 3.787 0 0 0 3-1.49 4.281 4.281 0 0 0 .61-3.79c.1 0 .18.16.22.32 0 .35 0 .43.18.46.18.03.18 0 .6 0 .81-.06 2.34.26 4.39.12a4.1 4.1 0 0 0 2.64-.37 3.345 3.345 0 0 0 1.43-1.71c.225-.61.246-1.277.06-1.9a2.121 2.121 0 0 0-1.18-1.2c-1.67-.66-2.84-2.33-4.63-3.71a5.994 5.994 0 0 0-6.82-.35c-2.24 1.39-3.13 3.82-3.78 5.75a11.31 11.31 0 0 0-.64 3.14c-.038.573-.032 1.148.02 1.72zm58.44 1.33a3.663 3.663 0 0 0-1.38-2.65 2.775 2.775 0 0 0-2.36-.32A2.994 2.994 0 0 0 248 363a1.727 1.727 0 0 1-1.56 1.52 3.76 3.76 0 0 1-2.25-.52 7.838 7.838 0 0 0-3.9-1.42l-1.32-.07h-1.08c-.24 0-.47-.06-.7-.07a3.002 3.002 0 0 0-2.6 1.22 3.469 3.469 0 0 0-.58 2.13c.023.693.257 1.363.67 1.92.407.473.908.858 1.47 1.13.78.47 1.52 1.07 2.33 1.66a10.13 10.13 0 0 0 6 2.31 9.764 9.764 0 0 0 7-2.27c1-.893 1.775-2.01 2.26-3.26a6.478 6.478 0 0 0 .15-3.74zm-59.61 13.97a8 8 0 0 0-1.68 5.72c.051.496.137.987.26 1.47a3.129 3.129 0 0 0 1 1.56c.416.35.915.588 1.45.69.36.12.73.2 1.08.34l1.06.39a3.09 3.09 0 0 0 1.86 0 3.212 3.212 0 0 0 2-3.08v-.1l.27.08c.91.31 2 .74 3.13 1.1.619.215 1.25.396 1.89.54a9.447 9.447 0 0 0 2.81.32 7.063 7.063 0 0 0 5.18-2.75 7.994 7.994 0 0 0 1.6-4.58c.042-.717.019-1.437-.07-2.15a3.994 3.994 0 0 0-.32-1.42 2.119 2.119 0 0 0-1.14-1 2.602 2.602 0 0 0-2.218.174 2.603 2.603 0 0 0-1.272 1.826c-.1 1.41-1.46 2.72-2.41 2.08-.45-.19-.79-.7-1.39-1.27a12.044 12.044 0 0 0-2.14-1.62 8.654 8.654 0 0 0-5.52-1.32 7.932 7.932 0 0 0-5.43 3zm30.08 48.28c.437-.424.835-.886 1.19-1.38a3.703 3.703 0 0 0 .65-2.41c-.41-3.2-3.69-3.75-4.75-2.64-1 .82-2.7.11-3.32-.91-.62-1.02-.77-1.34-1.59-1.52-.07.15-.74-.54-1.61-.82a3.388 3.388 0 0 0-2.5.11 3.856 3.856 0 0 0-2 2.81 3.64 3.64 0 0 0 .71 2.86c.39.65.77 1.37 1.25 2.07a7.23 7.23 0 0 0 4.15 3.1 8.515 8.515 0 0 0 5.42.11 7.617 7.617 0 0 0 2.4-1.38zm-55.3 21.78a9.832 9.832 0 0 0 1.2-1.37 3.703 3.703 0 0 0 .64-2.42c-.41-3.2-3.68-3.74-4.75-2.64-1 .83-2.7.12-3.32-.9-.62-1.02-.77-1.35-1.59-1.52-.07.15-.74-.55-1.61-.83a3.444 3.444 0 0 0-2.5.12 3.83 3.83 0 0 0-2 2.8 3.668 3.668 0 0 0 .7 2.87c.39.65.77 1.36 1.26 2.07a7.203 7.203 0 0 0 4.15 3.1 8.514 8.514 0 0 0 5.42.1 7.276 7.276 0 0 0 2.4-1.38zm25.35-32.42c-1.17.38-2.59-.29-4.24-.58a4 4 0 0 0-4.2 1.95c-1 1.56-.71 3.59-.77 4.93a3.834 3.834 0 0 0 2.009 3.865c.456.243.956.39 1.471.435a3.194 3.194 0 0 0 2.2-.73 4.382 4.382 0 0 0 1.3-1.81.685.685 0 0 1 .57-.13 3.114 3.114 0 0 0 1.68-.36c.503-.213.994-.453 1.47-.72 0-.05.45-.23.82-.44a5.22 5.22 0 0 0 1-.84 3.499 3.499 0 0 0 .9-2.35 3.414 3.414 0 0 0-.496-1.717 3.413 3.413 0 0 0-1.294-1.233 3.117 3.117 0 0 0-2.42-.27zm257.98-27.08c-1.16.38-2.59-.29-4.24-.57a3.993 3.993 0 0 0-4.2 1.94c-1 1.57-.71 3.59-.77 4.93a3.834 3.834 0 0 0 2.009 3.865c.456.243.956.39 1.471.435a3.182 3.182 0 0 0 2.2-.73 4.382 4.382 0 0 0 1.3-1.81.737.737 0 0 1 .57-.13 3.114 3.114 0 0 0 1.68-.36c.504-.211.995-.451 1.47-.72 0-.05.45-.23.82-.44a4.682 4.682 0 0 0 1-.84 3.499 3.499 0 0 0 .9-2.35 3.418 3.418 0 0 0-1.79-3 3.179 3.179 0 0 0-2.42-.22zm93.21 9.32c-1.16.38-2.59-.29-4.23-.57a3.993 3.993 0 0 0-4.2 1.94c-1 1.57-.72 3.59-.77 4.93a3.828 3.828 0 0 0 3.47 4.3 3.182 3.182 0 0 0 2.2-.73 4.512 4.512 0 0 0 1.31-1.81.698.698 0 0 1 .56-.13 3.096 3.096 0 0 0 1.68-.36c.504-.211.995-.452 1.47-.72 0-.05.45-.23.83-.43a5.246 5.246 0 0 0 1-.85 3.477 3.477 0 0 0 .9-2.35 3.41 3.41 0 0 0-1.78-2.95 3.208 3.208 0 0 0-2.44-.27zm-349.1 84.54a.403.403 0 0 0 .18.2 1.043 1.043 0 0 1-.05-.19l-.13-.01zm-28.22-3.64a1.006 1.006 0 0 1-.33-.45c.1-.19-.41.18-.62.32a4.137 4.137 0 0 0-.75.84 3.736 3.736 0 0 0 .37 4.47 3.926 3.926 0 0 0 2.915 1.131 3.926 3.926 0 0 0 2.815-1.361c.82-1 1.76-1.76 2.74-3a5.47 5.47 0 0 0 1.15-4.47 6.239 6.239 0 0 0-2.62-4.43 5.532 5.532 0 0 0-1.24-.62 4.989 4.989 0 0 0-2-.38 3.627 3.627 0 0 0-3.567 3.64c0 .516.108 1.027.317 1.5a2.88 2.88 0 0 0 1.64 1.52.748.748 0 0 1 .134 1.331.816.816 0 0 1-.652.11.818.818 0 0 1-.302-.151zm3.84-17.14a3.91 3.91 0 0 0 2.65.39c1.19-.2 2.35-.1 3.83-.28a5.247 5.247 0 0 0 3.8-2.35 6.302 6.302 0 0 0 1.18-4.71 7.75 7.75 0 0 0-.44-1.38 4.657 4.657 0 0 0-1.33-1.78 3.511 3.511 0 0 0-3.91-.39 3.65 3.65 0 0 0-1.77 2.32 3.77 3.77 0 0 0 .14 2 .611.611 0 0 1-.63.8.91.91 0 0 1-.78-1.2c0-.1-.48-.19-.72-.24a3.366 3.366 0 0 0-2.13.43 3.631 3.631 0 0 0 .11 6.35v.04zm15.48 66.53a3.472 3.472 0 0 0 .09 2.6 3.347 3.347 0 0 0 3 2 3.074 3.074 0 0 0 2.34-.92c.47-.48 1-.84 1.69-1.42a5.004 5.004 0 0 0 1.45-2.66 4.33 4.33 0 0 0-2.17-4.68c-1.4-.74-3.11-.68-4.24-1.27a6.429 6.429 0 0 1-1.6-1.22 3.06 3.06 0 0 0-3.62-.09 4.004 4.004 0 0 0-1.86 3.59 4.18 4.18 0 0 0 .9 2.32c.64.76.89.91 1.09 1.16a19.59 19.59 0 0 0 2.35 2.33c.17.11.33.26.4.24.07-.02-.08.1-.14-1.29.023-.45.15-.888.37-1.28.21-.44.88-1 .53-.57-.245.359-.44.749-.58 1.16zm-25.5-25.03a3.61 3.61 0 0 0 .4 3.21 3.012 3.012 0 0 0 2 1.23c1.14.13 2.18 1.26 3.66 2a3.654 3.654 0 0 0 4.24-.49c1.17-1.06 1.58-2.65 2.37-3.74a3.684 3.684 0 0 0 .052-4.187 3.671 3.671 0 0 0-1.052-1.033 3.718 3.718 0 0 0-4 0c-.38.134-.772.231-1.17.29-.67.08-1.18-.08-1.67 0l-.4.11-.21.05h-.64a3.777 3.777 0 0 0-3.58 2.56zm34.37-56.76a7.835 7.835 0 0 0 2.14-2.38c.252-.46.43-.956.53-1.47.278-.8.337-1.66.17-2.49a3.22 3.22 0 0 0-3.17-2.55 2.71 2.71 0 0 0-2.48 1.4 2.072 2.072 0 0 1-3.37.25c-.69-1-.39-1.12-1.19-1.37a4.416 4.416 0 0 0-2.33-1.44 3.671 3.671 0 0 0-2.44.37 3.6 3.6 0 0 0-2 3.37c.065.565.279 1.104.62 1.56.24.33.41.72.65 1.06.451.781.952 1.533 1.5 2.25 2.3 3.28 7.78 4.03 11.37 1.44zm43.21-49.32a6.73 6.73 0 0 0 3.74.22 3.122 3.122 0 0 0 1.168-.571c.344-.271.628-.611.832-.999.441-.84.545-1.817.29-2.73a3.499 3.499 0 0 0-1.63-2.05c0-.1.05-.18.09-.28l.44-1.19a8.74 8.74 0 0 0 .28-.89c.092-.305.165-.616.22-.93a8.687 8.687 0 0 0-.25-4.45 8.764 8.764 0 0 0-4.83-5.26 6.139 6.139 0 0 1-.67-.38 3.739 3.739 0 0 0-1.28-.78 3.058 3.058 0 0 0-2.53.28 2.402 2.402 0 0 0-1.255 1.489 2.406 2.406 0 0 0 .255 1.931c.61.828 1.095 1.741 1.44 2.71a3.59 3.59 0 0 1 .06 2.6 6.124 6.124 0 0 0-1 1.68 8.068 8.068 0 0 0-.48 3.53 7.69 7.69 0 0 0 5.11 6.07zm2-6.69c.292-.06.594-.032.87.08h.06a4.819 4.819 0 0 0-1.2 0 .481.481 0 0 1 .28-.08h-.01zm-27.19 15.28a12.158 12.158 0 0 0 3.86 2 10.84 10.84 0 0 0 8.34-.36l1-.59a3.898 3.898 0 0 0 1.19-1.64 4.201 4.201 0 0 0-.75-4.13 4.309 4.309 0 0 0-4.49-1.43 5.427 5.427 0 0 0-2 1.11c-.08 0-.15.07-.19 0-.04-.07.23-.24.18-.31a1.693 1.693 0 0 0-.17-.44 1.993 1.993 0 0 1 0-1 5.111 5.111 0 0 1 1-2.09 6.49 6.49 0 0 1 1.09-1.15 3.185 3.185 0 0 0 1.74-2.41c.11-1.85-1.56-3.22-3-2.73-2.28.74-4.94 1-7.54 2.72a7.53 7.53 0 0 0-2.94 8.54 8.61 8.61 0 0 0 2.68 3.91zm87.89-56.65c.21.05.62.6.68.71.06.11.14.22.18.24.04.02.07-.1.09-.24a7.429 7.429 0 0 0 0-1.23 5.407 5.407 0 0 0-.27-1.6 28.88 28.88 0 0 0-1.06-2.79 3.466 3.466 0 0 0-1.63-2.14 3.633 3.633 0 0 0-2.24-.38 2.937 2.937 0 0 0-2 1.13 3.757 3.757 0 0 0-.52 2 17.634 17.634 0 0 1-.55 2.88c-.23 1-.54 1.94-.69 2.91a6.21 6.21 0 0 0 .48 4 7.35 7.35 0 0 0 3.82 3.37 9.724 9.724 0 0 0 3.76.75 9.588 9.588 0 0 0 6.16-2c.13-.08.19-.15.36-.25.22-.114.43-.244.63-.39a3.303 3.303 0 0 0 1-1.18 2.904 2.904 0 0 0 0-2.46 2.658 2.658 0 0 0-3-1.58 6.541 6.541 0 0 1-2.74-.21 7.843 7.843 0 0 1-2.55-1.23c-.29-.1-.73-.63.09-.31zm120.03 11.92c.21.05.63.6.69.71.06.11.14.23.17.24.03.01.08-.1.1-.24.029-.41.029-.821 0-1.23a5.726 5.726 0 0 0-.28-1.6 27.821 27.821 0 0 0-1.12-2.78 3.438 3.438 0 0 0-1.64-2.14 3.552 3.552 0 0 0-2.24-.39 2.91 2.91 0 0 0-2 1.14 3.734 3.734 0 0 0-.52 2c-.099.973-.28 1.937-.54 2.88-.23 1-.55 1.95-.7 2.92a6.263 6.263 0 0 0 .48 4 7.383 7.383 0 0 0 3.82 3.37 9.724 9.724 0 0 0 3.76.75 9.617 9.617 0 0 0 6.17-2c.115-.091.235-.174.36-.25.217-.118.427-.249.63-.39a3.501 3.501 0 0 0 1-1.18 2.999 2.999 0 0 0 0-2.46 2.669 2.669 0 0 0-3-1.58 6.558 6.558 0 0 1-2.74-.21 7.843 7.843 0 0 1-2.55-1.23c-.26-.12-.66-.65.15-.33zm-139.11-7.56.06-.06-.06.06zm-11.48-1.07c.059.685.324 1.337.76 1.87.4.48.63.81 1 1.2a6.1 6.1 0 0 0 2.93 1.79 5.357 5.357 0 0 0 4.45-1 8.81 8.81 0 0 0 2.32-2.81v-.05c.29-.33.12-.11 0 0a9.18 9.18 0 0 1 1.13-.66c.314-.169.618-.356.91-.56.178-.102.348-.215.51-.34a5.02 5.02 0 0 0 1.19-.66c3-2.68.45-6.2-1.43-5.63-1.56.27-3.2-.58-5.29-.8a5.242 5.242 0 0 0-5.43 3.38 2.411 2.411 0 0 0-.21.71 2.672 2.672 0 0 0-1.38.38 3.524 3.524 0 0 0-1.46 3.18zm5-3.36c.21.11.25.21.23.25-.02.04-.61-.16-1.25-.34h.12a1.57 1.57 0 0 1 .86.09h.04zm6.38-31.36c.061.707.34 1.378.8 1.92.4.47.63.81 1 1.19a6.005 6.005 0 0 0 2.93 1.79 5.327 5.327 0 0 0 4.45-1 8.915 8.915 0 0 0 2.33-2.81v-.06c.29-.33.12-.1 0 0a8.68 8.68 0 0 1 1.13-.66c.314-.169.618-.356.91-.56.16-.11.34-.2.51-.34a5 5 0 0 0 1.19-.67c3-2.67.45-6.19-1.43-5.62-1.55.27-3.2-.59-5.29-.81a5.251 5.251 0 0 0-5.42 3.38 2.245 2.245 0 0 0-.22.72 2.582 2.582 0 0 0-1.38.38 3.504 3.504 0 0 0-1.51 3.15zm5-3.36c.21.11.25.21.23.25-.02.04-.61-.16-1.25-.35h.12c.29-.049.589-.014.86.1h.04zm-17.65 89.14a3.001 3.001 0 0 0-1.21 1.88 2.941 2.941 0 0 0 1.12 3 1.62 1.62 0 0 1 .69 1.94 10.757 10.757 0 0 1-1.52 2 4.705 4.705 0 0 0-.93 3.59 5.13 5.13 0 0 0 2.22 3.49 8.082 8.082 0 0 0 2.18.92c.124.038.245.089.36.15.12.09.16 0 .39.46a3.005 3.005 0 0 0 1.72 1.46 3.27 3.27 0 0 0 3.64-1.19 3.46 3.46 0 0 0 .56-2.13 8.748 8.748 0 0 0-.2-1.73 9.665 9.665 0 0 0-1.25-2.9l.22-.45a9.435 9.435 0 0 0 .54-2 8.001 8.001 0 0 0-.33-3.88 7.093 7.093 0 0 0-5.28-4.88 3.337 3.337 0 0 0-2.92.27zm7.57 10.57c-.32-.43-.53-.68-.48-.77.05-.09.36.34.48.77zM272.3 436a4.914 4.914 0 0 1-4.58-1.62 2.061 2.061 0 0 1-.42-1.15 4.458 4.458 0 0 0-.57-1c-.18-.26-.38-.59-.59-.95l-.32-.57a4.735 4.735 0 0 0-.6-1.19 3.627 3.627 0 0 0-4.13-1.28 2.693 2.693 0 0 0-1.64 1.46 5.117 5.117 0 0 0-.23 1.79c0 .89-.19 1.83-.26 2.85a7.629 7.629 0 0 0 2.37 6.47 9.765 9.765 0 0 0 6.57 2.75 9.003 9.003 0 0 0 5.81-1.8 3.338 3.338 0 0 0 2-2.22 2.896 2.896 0 0 0-.46-2.23 3 3 0 0 0-2.95-1.31zm223.45-20.21a4.898 4.898 0 0 1-4.57-1.62 1.996 1.996 0 0 1-.42-1.15 5.09 5.09 0 0 0-.58-1c-.18-.27-.38-.6-.58-1l-.33-.57a4.687 4.687 0 0 0-.59-1.19 3.634 3.634 0 0 0-1.855-1.317 3.635 3.635 0 0 0-2.275.047 2.634 2.634 0 0 0-.982.546c-.285.25-.513.558-.668.904a5.117 5.117 0 0 0-.23 1.79c0 .9-.19 1.84-.25 2.86a7.634 7.634 0 0 0 2.36 6.47 9.834 9.834 0 0 0 6.57 2.74 9.003 9.003 0 0 0 5.81-1.8 3.366 3.366 0 0 0 2-2.22 3 3 0 0 0-.46-2.23 2.998 2.998 0 0 0-2.95-1.26zm-50.15-48.05a4.894 4.894 0 0 1 4.57 1.62c.257.33.404.732.42 1.15.146.356.338.692.57 1 .215.322.412.656.59 1l.33.56c.135.424.334.825.59 1.19a3.632 3.632 0 0 0 4.13 1.28 2.674 2.674 0 0 0 1.64-1.46c.18-.579.261-1.184.24-1.79 0-.89.19-1.83.25-2.85a7.647 7.647 0 0 0-2.37-6.47 9.756 9.756 0 0 0-6.57-2.75 8.997 8.997 0 0 0-5.81 1.8 3.327 3.327 0 0 0-2 2.22 2.896 2.896 0 0 0 .46 2.23 2.937 2.937 0 0 0 2.96 1.27zm31.79-12.26a4.883 4.883 0 0 1 4.61 1.62c.264.326.411.731.42 1.15.155.354.349.689.58 1 .18.27.38.6.58 1l.33.57c.139.422.338.823.59 1.19a3.626 3.626 0 0 0 4.13 1.27 2.648 2.648 0 0 0 1.65-1.45 5.12 5.12 0 0 0 .23-1.79c0-.9.19-1.84.25-2.86a7.63 7.63 0 0 0-2.36-6.47 9.83 9.83 0 0 0-6.57-2.74 8.997 8.997 0 0 0-5.81 1.8 3.366 3.366 0 0 0-2 2.22 3.001 3.001 0 0 0 3.38 3.56l-.01-.07zm-39.83-55.79a4.894 4.894 0 0 1 4.57 1.62c.257.33.404.732.42 1.15.149.355.34.691.57 1 .19.26.38.59.59.95l.33.57c.135.424.334.825.59 1.19a3.632 3.632 0 0 0 4.13 1.28 2.687 2.687 0 0 0 1.64-1.45c.18-.579.261-1.184.24-1.79 0-.89.19-1.83.25-2.86a7.622 7.622 0 0 0-2.37-6.46 9.756 9.756 0 0 0-6.57-2.75 8.997 8.997 0 0 0-5.81 1.8 3.327 3.327 0 0 0-2 2.22 2.896 2.896 0 0 0 .46 2.23 3.002 3.002 0 0 0 2.96 1.3zm-90.69 78.36a10.2 10.2 0 0 0 .41 2.47l.12.49c.01.036.027.07.05.1a3.131 3.131 0 0 0-.59.35 3.257 3.257 0 0 0-.76 3.47 3.391 3.391 0 0 0 1.18 1.62c.565.37 1.197.628 1.86.76a5.144 5.144 0 0 0 3.88-.83 6.598 6.598 0 0 0 2.33-3c.12-.29.22-.59.31-.88l.19-.6c.078-.263.181-.518.31-.76.21-.23 0 .16.12-.07.3-.35.635-.668 1-.95.24-.21.49-.48.77-.78l.47-.48a4.694 4.694 0 0 0 1-1c2.12-3.39-1.26-6-2.91-5-1.42.65-3.2.21-5.27.49a5.221 5.221 0 0 0-4.47 4.6zm1.82 2.63h-.37a1.762 1.762 0 0 0-.48.15c.154-.086.315-.159.48-.22.126.002.251.026.37.07zm-13.26-38.42v-.12a1.88 1.88 0 0 0-.28-1.27 3.397 3.397 0 0 0-.92-1.17 3.477 3.477 0 0 0-1.52-.74 3.25 3.25 0 0 0-1.13 0c-.19.065-.39.092-.59.08a4.26 4.26 0 0 0-2.54 1.07c-.75.62-1.38 1.54-2.11 2.21a3.849 3.849 0 0 0-1.61 3.89 3.064 3.064 0 0 0 1.3 2.06c.803.416 1.713.58 2.61.47a9.69 9.69 0 0 0 1.85 0 3.503 3.503 0 0 0 1.84.94 3.15 3.15 0 0 0 3.59-2.45 2.8 2.8 0 0 0 .56-.58 3.23 3.23 0 0 0-1.05-4.39zm-30.25 51.33a7.357 7.357 0 0 0-3.34.19 5.066 5.066 0 0 0-1.46.75 4.373 4.373 0 0 0-1.77 1.82c-1.39 3.51 1.95 5.39 3.4 4.56a1.478 1.478 0 0 1 1.75.43c.44.55.06 1-.06 1.63a3.643 3.643 0 0 0 1.25 3 4.628 4.628 0 0 0 3.25 1.25c.91 0 1.19-.37 2-.43a3.617 3.617 0 0 0 3.47-1.4 3.002 3.002 0 0 0 .49-3.37 7.363 7.363 0 0 0-2.43-2.08c-.67-.42-1.22-1-1-1.17.46.08.33-.14 0-1a7.193 7.193 0 0 0-2.36-2.88 7.285 7.285 0 0 0-3.19-1.3zm2.13-11.59c-.306-.485-.58-.99-.82-1.51a5.28 5.28 0 0 0-2.61-2.66 6.317 6.317 0 0 0-3.74-.82 4.999 4.999 0 0 0-3.3 1.71 3.44 3.44 0 0 0-.53 3.39 3.71 3.71 0 0 0 1.9 2.07c.638.24 1.329.302 2 .18.89-.18 1.75 1 1.81 2 .014.336.054.67.12 1v.07c.098.096.206.183.32.26.237.185.499.333.78.44.575.25 1.209.337 1.83.25a3.523 3.523 0 0 0 2.54-1.8c.416-.766.62-1.629.59-2.5a3.676 3.676 0 0 0-.89-2.08zm-37.61 85a3.47 3.47 0 0 0-2.69 0c-1.24.61-3.07 1-4.72 2a4.763 4.763 0 0 0-2.36 4.17c0 1.56.79 3.16.63 4.49a3.331 3.331 0 0 0 .71 3.07 3.6 3.6 0 0 0 3.48 1.1 3.691 3.691 0 0 0 2-1.37c.54-.83.62-.88.86-1.24.396-.586.747-1.201 1.05-1.84.32-.62.65-1.24.92-1.87.245-.554.449-1.126.61-1.71.1-.42.08-.47-.12-.54 0-.07-.32-.11-.1-.41a3.865 3.865 0 0 0 1.63-2.37 2.999 2.999 0 0 0-1.9-3.48zm-13.48-4.11s-.07.08 0 0l.29-.1.57-.19a7.781 7.781 0 0 0 4.9-5.058 7.78 7.78 0 0 0-1.18-6.942 3.338 3.338 0 0 0-2.22-2 3 3 0 0 0-2.23.47 2.996 2.996 0 0 0-1.34 2.91 2.798 2.798 0 0 1-.58 2.3 2.435 2.435 0 0 1-1.94.72c-.93-.25-3.68.48-5 3a6.377 6.377 0 0 0 1.27 7.13c.94 1.86 5.78 2.67 6.26-1.79.116-.037.226-.087.33-.15.34.01.65-.19.87-.3zm-2-1.6s-.09-.09 0 0c.091.072.174.152.25.24.142.171.257.363.34.57.101.265.152.546.15.83v.07a3.924 3.924 0 0 0-.34-1.1 6.83 6.83 0 0 0-.38-.61h-.02zm8.66 45.71a4 4 0 0 0 2.21-1.66c.278-.451.458-.955.53-1.48.08-.42.27-.32.4-.35.49.35 1.11.52 2.72-.4.472-.28.909-.615 1.3-1a6.906 6.906 0 0 0 1.1-1.56c.568-1.124.757-2.4.54-3.64a5.71 5.71 0 0 0-1.94-3.35 5.383 5.383 0 0 0-2.12-1.12 4.4 4.4 0 0 0-2.51.2 3.697 3.697 0 0 0-2.35 3.1 2.413 2.413 0 0 0 .42 1.65 5.327 5.327 0 0 0-1.11.16 6.233 6.233 0 0 0-2.08.85l-.28.21c-.08.05-.34.38-.38.41-.04.03-.31.36-.44.55a6.41 6.41 0 0 0-.68 1.26 4.331 4.331 0 0 0-.22 2.69 8.071 8.071 0 0 0 1.49 2.72 3.114 3.114 0 0 0 3.4.76zm95.77-109.25c-1.64.23-3.91.38-5.88 1.86a8.326 8.326 0 0 0-2 2.24c-.39.6-.31.48-.1.6a3.706 3.706 0 0 1-1.14 1.22c-.23.19-.47.26-.49.41a4.078 4.078 0 0 0-2.06-.28 3.237 3.237 0 0 0-2.38 3 3.35 3.35 0 0 0 .58 2.1c.386.53.848 1.002 1.37 1.4a8.095 8.095 0 0 0 6.69 1.26 9.295 9.295 0 0 0 3.45-1.39 8.062 8.062 0 0 0 2.55-2.95c1.15-2.73 1.09-3.35.07-3.59 3.79-2.16 1.52-6.56-.66-5.88zm8.01-21.07a4.047 4.047 0 0 0-3 3.65c-.14 1.75.84 3.36 1.2 4.65.099.328.179.662.24 1 .092.472.272.924.53 1.33a3.7 3.7 0 0 0 6.42-.85 5.003 5.003 0 0 0 .27-2.2 2.51 2.51 0 0 1 .16-.33c.26-.44.65-.67.71-.9.039-.154.066-.312.08-.47v-.12l.5-.35c.315-.267.593-.573.83-.91a3.46 3.46 0 0 0 .63-2.17 3.662 3.662 0 0 0-.451-1.706 3.656 3.656 0 0 0-1.199-1.294 2.556 2.556 0 0 0-2.49-.17c-1.09.6-2.68.37-4.43.84zm21.22-44.31a3.35 3.35 0 0 0-3.55-.19 3.157 3.157 0 0 0-1.56 1.84c-.32 1.2-2.12 1.28-3 .57-.46-.28-.74-.59-1-.69a.73.73 0 0 0-.34-.08.605.605 0 0 0-.19 0c-.09 0-.72-.15-1.05-.14a3.906 3.906 0 0 0-2.56.86 3.266 3.266 0 0 0-1 1.91 4.004 4.004 0 0 0 .92 3.08c.326.378.723.687 1.17.91.44.22.69.3 1 .49.67.29 1.36.69 2.15 1a6.89 6.89 0 0 0 5.09.15 7.86 7.86 0 0 0 4.23-3 6.753 6.753 0 0 0 1-2.42c.13-.659.147-1.335.05-2a3.384 3.384 0 0 0-1.36-2.29zm3.19 29.31c.346-.305.637-.667.86-1.07a3.338 3.338 0 0 0-.53-4 2.57 2.57 0 0 0-2.77-.69c-1.37.49-3.26.78-5 1.37a7.606 7.606 0 0 0-1 .43c.28 0 .35.15.22.21a1.87 1.87 0 0 1-.88 0h-.06a9.437 9.437 0 0 1-1-.18 3.538 3.538 0 0 0-2.28-.19 2.998 2.998 0 0 0-1.61 1.17 3.592 3.592 0 0 0-.53 3.27 5.43 5.43 0 0 0 .91 1.46l.79 1a6.444 6.444 0 0 0 5.55 2.73 7.326 7.326 0 0 0 3.65-1.08 8.188 8.188 0 0 0 2.24-2.05c.347-.412.63-.874.84-1.37a.802.802 0 0 0 0-.48c.05-.06-.14 0 .1-.18.176-.103.343-.22.5-.35z" fill="#174f78"/><path d="M382.43 357.8a.684.684 0 0 1 .15-.07c-.32 0-.71.19-.67.23.183-.014.36-.069.52-.16zm72.89-27.99a10.94 10.94 0 0 0 2.88-4.34 20.234 20.234 0 0 0 1.35-4.25c.106-.636.18-1.276.22-1.92a6.833 6.833 0 0 0-.07-1c-.12-.08.23-1.41-.09-2.32a2.991 2.991 0 0 0-.619-1.227 2.989 2.989 0 0 0-1.101-.823 3.341 3.341 0 0 0-1.92-.16 3.094 3.094 0 0 0-2.25 1.78c-.53 1.4-1.93 2.58-3.16 3.93a5.479 5.479 0 0 0-1.59 4.16c.06.71.21 1.43.32 2.18.078.931.044 1.867-.1 2.79a3.002 3.002 0 0 0 2.49 2.49 3.572 3.572 0 0 0 3.64-1.29zM294.27 445.27a8.976 8.976 0 0 0 2.92-.62 7.201 7.201 0 0 0 3.22-2.6 5 5 0 0 0 .79-2c.144-.75.144-1.52 0-2.27a3.426 3.426 0 0 0-1.46-2.23 3.366 3.366 0 0 0-2-.49 2.533 2.533 0 0 0-2.39 2c-.13.62-1 .8-1.79.62-.79-.18-1.63-.55-2.65-.75a3.67 3.67 0 0 0-2 .12 5.191 5.191 0 0 0-1.79 1c-.406.343-.763.74-1.06 1.18-.12.19-.12.26 0 .34.25.17 0 .65-1.07 1.09a3.39 3.39 0 0 0-1.86 1.49 3.682 3.682 0 0 0-.48 2c.005.661.215 1.304.6 1.84.435.546 1.06.907 1.75 1.01 1.1.12 1.78.34 2.87.44a5.724 5.724 0 0 0 3.6-.66c1.23-.75 1.88-1.58 2.18-1.64.15-.06.14.06 0 .17.208.012.416-.002.62-.04zM486 306.19a3.42 3.42 0 0 0-1.37-2.08 3.267 3.267 0 0 0-2.948-.523 3.26 3.26 0 0 0-2.132 2.103c-.3 1.2-1.56 2.28-2.15 4.15a8.15 8.15 0 0 0-.08 2.41c.095.494.307.957.62 1.35a3.832 3.832 0 0 0 1 2.82 3.536 3.536 0 0 0 2.59 1.28 5.944 5.944 0 0 0 2.78-.44 5.243 5.243 0 0 0 3.11-5.25 11.703 11.703 0 0 0-.92-3.92c-.09-.16-.15 0-.34-.06h-.08a5.01 5.01 0 0 1 0-.52c.04-.441.013-.886-.08-1.32zm-6.21 4.59v.12a3.12 3.12 0 0 0-.63.36 3.49 3.49 0 0 0-.79.88c.024-.096.058-.19.1-.28a2.554 2.554 0 0 1 1.34-1.08h-.02zm-8.9-20.84a3.474 3.474 0 0 0-1.37-2.08 3.28 3.28 0 0 0-2.95-.527 3.28 3.28 0 0 0-2.14 2.097c-.3 1.2-1.56 2.28-2.15 4.16a8.084 8.084 0 0 0-.08 2.4c.101.495.313.96.62 1.36a3.877 3.877 0 0 0 1 2.82 3.536 3.536 0 0 0 2.59 1.28 5.944 5.944 0 0 0 2.78-.44 5.25 5.25 0 0 0 3.12-5.25 12.291 12.291 0 0 0-.92-3.92c-.1-.16-.16 0-.35-.06h-.08c.003-.174.02-.348.05-.52a5.183 5.183 0 0 0-.12-1.32zm-6.22 4.59v.12a2.893 2.893 0 0 0-.63.36 3.466 3.466 0 0 0-.79.87c0-.09 0-.18.1-.27a2.55 2.55 0 0 1 1.32-1.08zM279.93 502.61a3.542 3.542 0 0 0-4.152 4.581c.27.8.817 1.477 1.542 1.909a8.363 8.363 0 0 0 2.55 1.47 7.52 7.52 0 0 0 5.88-.58 11.414 11.414 0 0 0 4.14-3.17 10.31 10.31 0 0 0 1.3-2.17c.166-.411.283-.841.35-1.28a4.54 4.54 0 0 0 .15-2.57 3.2 3.2 0 0 0-3.23-2.42c-.494 0-.979.129-1.407.374-.428.246-.784.6-1.033 1.026-.68 1.25-2.42 1.8-3.93 2-1.51.2-2.64.32-1.63.66.09.15.68.66-.53.17zm49.57-95.39a6.795 6.795 0 0 0-2.53-1l-1-.13a5.212 5.212 0 0 0-1.33.12 3.444 3.444 0 0 0-2.15 1.55 3.339 3.339 0 0 0 0 3.47 3.55 3.55 0 0 0 1.91 1.52 1.211 1.211 0 0 1 .83 1.27 1.383 1.383 0 0 1-.93 1.16 1.282 1.282 0 0 1-.86 0s0-.05-.16.16c-.264.3-.483.637-.65 1a4.003 4.003 0 0 0-.23 2.52 3.845 3.845 0 0 0 2.93 2.79 3.263 3.263 0 0 0 3.3-1.08c.88-1.26 1.82-2.11 2.83-3.53 2.27-2.77 1.18-7.68-1.96-9.82zM157.16 236.94c3.31 1.77 6.9 3.32 11.15 3.35 4.94 0 7.8-2.42 9.94-3a3.17 3.17 0 0 1 3.55 1.11c2.14 2.2 5.32-.63 3.88-2.54a16.57 16.57 0 0 0-3.5-4.15 10.787 10.787 0 0 0-5.61-2.26 19.306 19.306 0 0 0-5.51.49 13.39 13.39 0 0 1-1.77.26h-2.2a45.03 45.03 0 0 1-4.79-.09 7.267 7.267 0 0 1-4.19-1.45 1.844 1.844 0 0 1-.64-1.53l.31-1a2.506 2.506 0 0 0-.32-2.23 3.3 3.3 0 0 0-4-.92 3.562 3.562 0 0 0-1.62 1.61 7.865 7.865 0 0 0-.67 1.46 7.402 7.402 0 0 0 1.08 6.92c1.323 1.671 3 3.027 4.91 3.97zm-1.96 17.7c.371-.429.81-.794 1.3-1.08a16.247 16.247 0 0 1 1.8-1.05 27.496 27.496 0 0 1 4-1.48c2.78-.81 5.89-1.22 9.26-2a36.894 36.894 0 0 1 5.22-.75 2.693 2.693 0 0 0 2.56-2.11 2.143 2.143 0 0 0-.21-1.6 1.83 1.83 0 0 0-1.35-.82c-3.45-.39-6.75-1.82-10.41-2.71a15.44 15.44 0 0 0-11.27 1.42 20.006 20.006 0 0 0-4.46 3.71 31.728 31.728 0 0 0-3.53 4.52c-.92 1.74-1.38 3.48-2.34 4.51-.183.212-.412.38-.67.49a3.002 3.002 0 0 0-1.58 1.57 3.491 3.491 0 0 0 1.69 4.29 3.547 3.547 0 0 0 2.78.2 8.1 8.1 0 0 0 1.74-.81 9.725 9.725 0 0 0 2.53-2.25c1.29-1.57 2.09-3.12 2.94-4.05zM169.41 268c-1-.33-1.89-.65-2.61-.81-.72-.16-1-.21-1.67-.39a12.752 12.752 0 0 1-2.57-1.09l-3.16-1.8a3.231 3.231 0 0 0-4.2 1.56 2.705 2.705 0 0 0 .42 2.87c.353.415.658.867.91 1.35.93 1.75 1.83 3.9 4.29 5.64a11.55 11.55 0 0 0 8 1.92 13.206 13.206 0 0 0 6.3-2.24 20.376 20.376 0 0 1 1.83-1 3 3 0 0 0 .7-4.36 2.006 2.006 0 0 0-1.82-.68 13.737 13.737 0 0 1-6.42-.97zm-15.29 12.33a3.115 3.115 0 0 0-2 2.76c.015.583.144 1.157.38 1.69l.44 1.09a12.362 12.362 0 0 0 2.75 4.12 13.445 13.445 0 0 0 4.28 2.68 23.59 23.59 0 0 0 9.06 1.67 29.734 29.734 0 0 0 8.13-1.16c.66-.17 1.33-.37 2-.48.37-.06.6-.13 1.1-.18a2.735 2.735 0 0 0 1.58-.52 2.81 2.81 0 0 0 1.09-2.51 2.001 2.001 0 0 0-1.65-1.77 54.14 54.14 0 0 1-8.31-2.23 23.52 23.52 0 0 0-7.7-1.06c-2.34.06-4.95.12-6.77-1.68l-.56-.73c-.19-.26-.31-.45-.66-1a2.775 2.775 0 0 0-3.16-.69zm24.35 23.11a3.874 3.874 0 0 0 1.58-2.56c0-2.1-2.16-3.37-3.56-2.37a9.708 9.708 0 0 1-3.77 1.18 7.807 7.807 0 0 0-4.37 2.4 4.646 4.646 0 0 0-.83 1.63c-.08.13 0-.37 0-.49s0-.15-.05-.15c-.31.12-.9.52-1.24.69-.71.417-1.465.752-2.25 1-2.14.74-4.67 1.64-7.23 1.25a13.436 13.436 0 0 0-2.31-.33 2.876 2.876 0 0 0-2.33 2 2.998 2.998 0 0 0 .83 3.21c.726.485 1.492.906 2.29 1.26a18.853 18.853 0 0 0 8.46 2.16 18.09 18.09 0 0 0 4.69-.46 11.666 11.666 0 0 0 4.77-2.25c.71-.58 1.339-1.253 1.87-2l.63-1c.243-.389.454-.797.63-1.22.66-1.56.21-1.72.7-2.53a8.317 8.317 0 0 1 1.49-1.42zm9.67-93.11a3.516 3.516 0 0 0-.14-2.27 3.996 3.996 0 0 0-2.66-2.29 3.797 3.797 0 0 0-2.86.73 16.55 16.55 0 0 0-2.19 1.32 6.705 6.705 0 0 0-2.63 4.93 9.85 9.85 0 0 0 .67 5 8.804 8.804 0 0 0 1.22 2l1.13 1.14a3.645 3.645 0 0 0 2.54 1 3.253 3.253 0 0 0 3-2.23 3.152 3.152 0 0 0-.22-2.6 4.101 4.101 0 0 1 .33-4 1.72 1.72 0 0 1 .68-.75s-.08 0-.09-.06a4.917 4.917 0 0 0 1.22-1.92zm31.59 3.48s-.07.05-.09.05c-.02 0 .18-.03.09-.05zm-42.54 45.77c1.23.37 2.31.75 3.52 1s2.46.42 3.17.65c.834.262 1.644.597 2.42 1 1.071.592 2.2 1.071 3.37 1.43a11.17 11.17 0 0 0 8-.63c.63-.28 1-.55 1.8-.89a3.065 3.065 0 0 0 1.87-2.13c.086-.386.095-.785.027-1.175a3.016 3.016 0 0 0-.427-1.095 1.944 1.944 0 0 0-1.9-.82 7.643 7.643 0 0 1-3.284-.218 7.637 7.637 0 0 1-2.886-1.582 11.827 11.827 0 0 0-2.3-2 7.75 7.75 0 0 0-4.18-1.2c-2.82 0-5 1.39-7.21 1.49a7.064 7.064 0 0 1-1.65-.07 2.508 2.508 0 0 0-2.53 1.33 3.493 3.493 0 0 0-.365 1.369c-.028.476.042.953.205 1.401a3.567 3.567 0 0 0 2.35 2.14zm13.36 23.29a10.736 10.736 0 0 0 3.52-3.21c.8-1.07 1.26-1.88 1.62-2.34A7.577 7.577 0 0 1 197 276a12.009 12.009 0 0 1 1.95-1.49 4.186 4.186 0 0 1 1.57-.61 3.104 3.104 0 0 0 2.23-1.65 3.001 3.001 0 0 0 .18-2.26 1.895 1.895 0 0 0-1.62-1.25c-2.23-.21-4.58-1.17-7.47-1a8.795 8.795 0 0 0-2.08.43 5.21 5.21 0 0 0-1.1.53c-.348.219-.682.46-1 .72a9.894 9.894 0 0 0-2.23 2.95c-1 1.91-1.4 4.2-2.76 4a5.164 5.164 0 0 1-.55-.2 3.131 3.131 0 0 0-1.29-.43 2.8 2.8 0 0 0-2.42 1.2 3.31 3.31 0 0 0-.56 2.74 4.904 4.904 0 0 0 1.65 2.23 7.62 7.62 0 0 0 9 1l.05-.04zm19.23 13.44 1.6-1.27a3.002 3.002 0 0 0 1.31-2.55 2.912 2.912 0 0 0-1-2.09 1.995 1.995 0 0 0-2.05-.32c-2.14.85-4.53.2-7.35.59a6.205 6.205 0 0 0-4.19 2.53 6.003 6.003 0 0 0-1 2.77 6.727 6.727 0 0 0 .24 2.54c.29.87.53 1.27.66 1.12.13-.15.23-.21.33-.2.1.01.07.19.18.2-.1.51-1.41 1.17-2.13 1.16h-.17c-.07 0-.38-.12-.56-.16a3.12 3.12 0 0 0-1.36 0 3.216 3.216 0 0 0-2 1.64 2.78 2.78 0 0 0 .28 3.05 6.815 6.815 0 0 0 2.11 1.49 9.273 9.273 0 0 0 8.84-.28 8.329 8.329 0 0 0 2.11-1.71 6.807 6.807 0 0 0 1.54-2.92 9.226 9.226 0 0 0 .22-2.63l-.05-.81v.05c-.16.33-.45.23.15-.31.73-.669 1.495-1.3 2.29-1.89zm-15.02 27.58h.71l.51.05 1.06.1a7.001 7.001 0 0 0 4.34-.83 7.431 7.431 0 0 0 2.782-2.062 7.43 7.43 0 0 0 1.548-3.098 3.857 3.857 0 0 0-1.28-4.24 3.606 3.606 0 0 0-3.25-.5 3.01 3.01 0 0 0-1.73 1.62c-.43 1.07-2 1.38-3.2 1.17-1.2-.21-1.76-.16-2.42.49 0 .13-.76.42-1.31 1a3.472 3.472 0 0 0-1 1.91 3.846 3.846 0 0 0 .9 3 3.56 3.56 0 0 0 2.34 1.39zm112.59 4.4a3.718 3.718 0 0 0-1.94-2.57 2.729 2.729 0 0 0-2.35 0c-1 .5-2.57.29-4.27 1a3.762 3.762 0 0 0-2.34 4.22c.33 1.83 1.86 3.06 2.73 4 .49.5.85 1 1.32 1.55a3.705 3.705 0 0 0 2.83 1.22 3.83 3.83 0 0 0 3.21-1.84 3.779 3.779 0 0 0 .49-2.52 4.18 4.18 0 0 0-.7-1.74 3.723 3.723 0 0 0 1.02-3.32zm-1.3 3.7a1.088 1.088 0 0 1-.57.46.518.518 0 0 1-.2 0h-.08l.45-.27c.169-.132.33-.276.48-.43a.88.88 0 0 1-.08.25v-.01zm-.1-1c-.27-.55.37-.27.28.43a4.5 4.5 0 0 0-.23-.42l-.05-.01zm-21.78 35.59a4.009 4.009 0 0 0 .27 2c-.01.117-.01.234 0 .35.03.132.067.262.11.39l.29.64c0 .16-.08 0 0 .24.132.505.317.994.55 1.46a6.47 6.47 0 0 0 3 2.92 6.572 6.572 0 0 0 4 .46 8.793 8.793 0 0 0 2.61-1.07h-.25a4.08 4.08 0 0 0 1-.32 2.744 2.744 0 0 0 2.19-1.34 6.255 6.255 0 0 0 1-3 5.005 5.005 0 0 0-1.61-3.74 4.713 4.713 0 0 0-1.98-1.048 4.713 4.713 0 0 0-2.24-.012 3.254 3.254 0 0 0-1.55.76c-.09.11-.13.21 0 .27.13.06.17.06.28.13l.29.23c.29.2.53.66.42.72-.11.06-.25-.05-.44-.27a9.117 9.117 0 0 0-1.28-1.22 6.335 6.335 0 0 0-3.15-1.41 2.886 2.886 0 0 0-2.27.65 3.744 3.744 0 0 0-1.24 2.21zm4.07 4.41-.42.1h-.51c-.19 0 0 0 .11-.05l.21-2.26c.11.25.2.5.33.73.26.433.599.813 1 1.12a3.066 3.066 0 0 1-.72.37v-.01zm267.56 9.8a3.997 3.997 0 0 0 .27 1.95c-.01.12-.01.24 0 .36.06.25.07.25.11.39l.29.63c0 .17-.08 0 0 .25.129.501.31.987.54 1.45a6.348 6.348 0 0 0 7 3.38 8.748 8.748 0 0 0 2.62-1.06h-.25a3.417 3.417 0 0 0 1-.31 2.762 2.762 0 0 0 2.19-1.35 6.08 6.08 0 0 0 1-3 5.005 5.005 0 0 0-1.61-3.74 4.757 4.757 0 0 0-4.22-1.06 3.23 3.23 0 0 0-1.55.77c-.09.11-.13.2 0 .27s.17.06.27.12l.3.23c.29.2.52.66.42.73-.1.07-.25-.06-.44-.27a9.379 9.379 0 0 0-1.29-1.23 6.163 6.163 0 0 0-3.14-1.4 2.88 2.88 0 0 0-2.27.64 3.741 3.741 0 0 0-1.24 2.25zm4.07 4.4c-.137.047-.277.08-.42.1h-.4l.21-2.26c.11.24.2.49.33.73.25.426.571.804.95 1.12a3.183 3.183 0 0 1-.67.31zM292 396.63a4.705 4.705 0 0 1-3.73-2 4.874 4.874 0 0 1-.73-1.14c0-.19.09.07-.16.11h-.21a3.986 3.986 0 0 0-.53-1.13 3.606 3.606 0 0 0-1.84-1.43 4.006 4.006 0 0 0-3.58.5c-1.16.71-1.17 2.43-1.09 3-.042.879-.002 1.759.12 2.63a6.694 6.694 0 0 0 3.2 4.85 9.375 9.375 0 0 0 7.46 1.66 7.765 7.765 0 0 0 1.23-.44 3.932 3.932 0 0 0 2.23-1.44 3.312 3.312 0 0 0 .07-3.89 2.678 2.678 0 0 0-2.44-1.28zm-31.64-7.17a9.348 9.348 0 0 0-2.79-1.17 8.486 8.486 0 0 0-5.72.23 5.647 5.647 0 0 0-1.44 1 3.51 3.51 0 0 0-1.15 2.22 4.44 4.44 0 0 0 2.05 4.23 3.402 3.402 0 0 0 1 2.71 2.548 2.548 0 0 0 2.76.68c1.36-.58 3.16-.4 5.15-1.28a4.62 4.62 0 0 0 2.29-2.39 4.89 4.89 0 0 0 0-3.57 5.693 5.693 0 0 0-2.15-2.66zm-7.49 3.78h.06l-.08.06.02-.06zm-56.61 4.91a9.225 9.225 0 0 0-2.79-1.17 8.534 8.534 0 0 0-5.72.22 5.673 5.673 0 0 0-1.44 1 3.48 3.48 0 0 0-1.15 2.21 4.456 4.456 0 0 0 2.05 4.24 3.448 3.448 0 0 0 1 2.71 2.554 2.554 0 0 0 2.77.67c1.36-.57 3.16-.4 5.15-1.28a4.63 4.63 0 0 0 2.29-2.38 4.89 4.89 0 0 0 0-3.57 5.685 5.685 0 0 0-2.16-2.65zm-7.49 3.78h.06l-.08.05s.01.02.02-.05zm73.51-30.39a3.186 3.186 0 0 0-1.57 1.95c-.29 1.24-2.08 1.45-3 .8-.48-.25-.77-.56-1-.64a.762.762 0 0 0-.33-.06.603.603 0 0 0-.18 0 9.556 9.556 0 0 0-1-.08 3.921 3.921 0 0 0-2.43 1 3.551 3.551 0 0 0-1.05 1.93 4.005 4.005 0 0 0 .87 3.22c.336.39.756.698 1.23.9.45.2.7.26 1.06.44.67.27 1.38.64 2.17.91a6.77 6.77 0 0 0 5.08-.06 8.108 8.108 0 0 0 4.2-3.26c.469-.78.788-1.642.94-2.54a6.326 6.326 0 0 0 0-2.1 3.411 3.411 0 0 0-1.4-2.22 3.312 3.312 0 0 0-3.59-.19zM252 485.76a3.216 3.216 0 0 0-2.24-1.1c-1.28 0-1.87-1.72-1.44-2.76.14-.53.38-.88.41-1.11a.78.78 0 0 0 0-.34c0-.05 0-.11-.07-.17a9.967 9.967 0 0 0-.15-1 3.943 3.943 0 0 0-1.47-2.16 3.578 3.578 0 0 0-2.12-.6A4 4 0 0 0 242 478a3.457 3.457 0 0 0-.62 1.39c-.09.49-.1.74-.2 1.13-.1.72-.32 1.49-.4 2.32a6.718 6.718 0 0 0 1.16 4.95 8.104 8.104 0 0 0 4.06 3.41 7.225 7.225 0 0 0 2.69.37 6.176 6.176 0 0 0 2.05-.45 3.44 3.44 0 0 0 1.86-1.85 3.31 3.31 0 0 0-.6-3.51zm181.68-156.02a3.26 3.26 0 0 0-1.57 1.95c-.28 1.25-2.08 1.46-3 .8-.48-.25-.77-.55-1-.64a.812.812 0 0 0-.33-.06.672.672 0 0 0-.19 0c-.08 0-.71-.1-1-.08a3.942 3.942 0 0 0-2.44 1 3.531 3.531 0 0 0-1 1.93 4.062 4.062 0 0 0 .86 3.22c.338.39.758.701 1.23.91.46.19.7.26 1.06.44.68.26 1.38.64 2.17.9a6.748 6.748 0 0 0 5.09-.06 8 8 0 0 0 4.19-3.26c.472-.78.795-1.641.95-2.54a6.38 6.38 0 0 0 0-2.1 3.423 3.423 0 0 0-1.4-2.22 3.308 3.308 0 0 0-3.62-.19zM329.6 385.07c-1.39.24-2.9-.6-4.46-1.28a4.81 4.81 0 0 0-4.39.09c-.681.405-1.323.87-1.92 1.39a17.417 17.417 0 0 1-2.21 1.5 3.201 3.201 0 0 0-1.07 3.11 3.273 3.273 0 0 0 2.62 2.74 9.32 9.32 0 0 0 1 .11l.56.1c.356.076.717.13 1.08.16.695.061 1.393.078 2.09.05a18.692 18.692 0 0 0 4.05-.27 14.24 14.24 0 0 0 2-.6 4.77 4.77 0 0 0 .95-.54 3.997 3.997 0 0 0 2.09-1.5c1.82-2.94-.73-5.59-2.39-5.06zm200.04.3c-1.39.24-2.91-.6-4.47-1.28a4.812 4.812 0 0 0-4.39.09c-.679.407-1.321.872-1.92 1.39a16.773 16.773 0 0 1-2.21 1.5 3.225 3.225 0 0 0-1.07 3.11 3.314 3.314 0 0 0 2.63 2.75c.33.08.8.06 1 .1l.55.1a8.35 8.35 0 0 0 1.09.16c.696.045 1.394.045 2.09 0a18.68 18.68 0 0 0 4-.27c.681-.15 1.349-.351 2-.6a5.134 5.134 0 0 0 1-.54 3.923 3.923 0 0 0 2.08-1.5c1.82-2.88-.73-5.54-2.38-5.01zm-10.45 43.95c-1.39.25-2.91-.59-4.47-1.27a4.777 4.777 0 0 0-4.38.09 13.74 13.74 0 0 0-1.93 1.38 15.503 15.503 0 0 1-2.2 1.51 3.193 3.193 0 0 0-1.07 3.11 3.287 3.287 0 0 0 2.62 2.74c.331.052.665.085 1 .1l.55.1c.37.08.74.13 1.09.17.695.061 1.393.078 2.09.05 1.34.05 2.681-.044 4-.28.682-.14 1.351-.338 2-.59a5.393 5.393 0 0 0 1-.54 4.062 4.062 0 0 0 2.09-1.51c1.81-2.93-.74-5.58-2.39-5.06zM305.5 418.84c.181-.04.369-.04.55 0h.19a3.97 3.97 0 0 0 .41-.72 3.662 3.662 0 0 0-.62-3.73 3.812 3.812 0 0 0-2.79-1.211 3.827 3.827 0 0 0-2.79 1.211c-.58.71-.73 1.22-1.06 1.65l-1.15 1.48a5.32 5.32 0 0 0-1.1 4 6.459 6.459 0 0 0 1.72 4 5.488 5.488 0 0 0 3.22 1.62 3.423 3.423 0 0 0 1.926-.378 3.417 3.417 0 0 0 1.404-1.372 3.638 3.638 0 0 0 .32-2.86 3.844 3.844 0 0 0-1.15-1.65c-.77-.5-.08-1.98.92-2.04zm27.07-59.54a13.196 13.196 0 0 0-1.7-1.44 3.733 3.733 0 0 0-3.05-.49 3.872 3.872 0 0 0-2.67 2.55 3.226 3.226 0 0 0-.1 1.53l-.09.08a.522.522 0 0 0-.1.11l-.44.3a4.203 4.203 0 0 0-1.55 2.12 3.281 3.281 0 0 0 .19 2.46 3.483 3.483 0 0 0 2.63 1.84 3.994 3.994 0 0 0 2.25-.36c1-.55 2.44-.07 4.18-.34a3.789 3.789 0 0 0 3.09-4c-.14-2.01-1.64-3.39-2.64-4.36zm-5.82 5.15a2.655 2.655 0 0 1-.48-.54c.18.178.37.345.57.5l-.09.04zM142.08 465a6.718 6.718 0 0 0 3.94 3.14c.411.116.834.183 1.26.2h.65a5.23 5.23 0 0 0 1.17-.12c1.81-.29 3.22-2.38 2.91-3.65a3.483 3.483 0 0 0-1.57-2.63 4.353 4.353 0 0 0-2.05-.71.828.828 0 0 1-.67-1 1.139 1.139 0 0 1 .95-1 .465.465 0 0 1 .47.31c0 .13.08 0 .18-.18l.26-.44c.141-.319.242-.655.3-1a3.805 3.805 0 0 0-1.552-3.621A3.804 3.804 0 0 0 144.4 454a3.326 3.326 0 0 0-1.71 2.47c-.27 1.24-.85 2.32-1.3 3.84a5.63 5.63 0 0 0 .69 4.69zm332.74-70.09a6.696 6.696 0 0 0 3.95 3.14c.407.116.827.183 1.25.2h.66c.393.008.785-.029 1.17-.11 1.81-.29 3.22-2.39 2.91-3.65a3.54 3.54 0 0 0-1.57-2.64 4.378 4.378 0 0 0-2.05-.71.812.812 0 0 1-.554-.353.835.835 0 0 1-.116-.647 1.139 1.139 0 0 1 .95-1 .487.487 0 0 1 .47.32c0 .12.08 0 .18-.19l.25-.44c.149-.317.253-.654.31-1a3.79 3.79 0 0 0-.275-2.023 3.793 3.793 0 0 0-3.202-2.285 3.795 3.795 0 0 0-2.003.398 3.286 3.286 0 0 0-1.71 2.47c-.28 1.24-.85 2.33-1.3 3.84a5.579 5.579 0 0 0 .68 4.68zm-5.71-56.3a3.102 3.102 0 0 0 .14 2.28 2.59 2.59 0 0 0 2.9 1.55c1.7-.42 4-.71 5.91-2.49a5.89 5.89 0 0 0 1.23-6.93c-1.17-2.31-3.4-3.25-4.83-4.38a17.247 17.247 0 0 1-2-1.85 11.394 11.394 0 0 1-.89-1.07 3.195 3.195 0 0 0-2.48-1 3.997 3.997 0 0 0-3.68 4.2 4.44 4.44 0 0 0 1.49 3.08l.91.94a12.511 12.511 0 0 1 2 2.66c.11.1.21.41.37.45.16.04.93-.1.87.49a3.777 3.777 0 0 0-1.94 2.07zm-74.8 76.85a2.998 2.998 0 0 0-2.76 0 1.526 1.526 0 0 1-1.78-.25 2.387 2.387 0 0 1-.69-1.71c.005-.396.045-.791.12-1.18a.376.376 0 0 0 0-.23.283.283 0 0 0-.08-.07L389 412c0-.233-.02-.463-.06-.69a3.933 3.933 0 0 0-1.58-2.57 3.443 3.443 0 0 0-2.44-.52 3.891 3.891 0 0 0-2.94 2.22 9.473 9.473 0 0 0-.37 2.75 15.41 15.41 0 0 0 0 2.7 7.174 7.174 0 0 0 2.79 5 8.536 8.536 0 0 0 5.67 2.13 7.682 7.682 0 0 0 3.11-.76 6.16 6.16 0 0 0 1.3-1 4.129 4.129 0 0 0 1.5-2.26 3.157 3.157 0 0 0-1.67-3.54zm-10-16.1.95-.87a2.908 2.908 0 0 0 .94-2 2.858 2.858 0 0 0-2-2.84 3.86 3.86 0 0 0-.81-1.4 3.205 3.205 0 0 0-2.5-1 6.352 6.352 0 0 0-1.38.33l-.55.08c-.656.108-1.302.272-1.93.49-2.35.71-4.59 3.18-8.57 2a3.108 3.108 0 0 0-2.65 2.68c-.121.771.043 1.56.46 2.22a4.506 4.506 0 0 0 1.73 1.43 11.997 11.997 0 0 0 5.33 1.9 13.721 13.721 0 0 0 10.98-3.02zM504 211.87a3.324 3.324 0 0 0 1.72-.69c2-1.12 3.67-2.17 5.68-3.29a4.172 4.172 0 0 0 2.26-3.75l-.06-.36-.56-1c-.42-.29-.56-1-1-1.29l-1.28-.88c-.42-.29-.85-.58-.91-.94a2.76 2.76 0 0 0-2.78-1 6.253 6.253 0 0 0-4.16 1.52 4.65 4.65 0 0 0-1.9 3.69c.07.35-.22.78-.09 1.49s-.29.43-.29.43a4.79 4.79 0 0 0-1.81 2.19l-.29.42.06.36a4.497 4.497 0 0 0 3.47 2.69c.13.71.85.58 1.92.38l.02.03z" fill="#174f78"/><path d="M485.49 383.34c4.37-.9 5.57-.48 7 4.08a7.854 7.854 0 0 0 4.45 4.95c6.62 3.33 13.26 6.63 19.76 10.19a12.923 12.923 0 0 0 6.73 1.67c2.87-.103 5.743.071 8.58.52 2.79.51 5.8 1.29 5.76 5.18l.17-.24c-5.78-3.06-11.87-3.28-18.14-2.08a8.128 8.128 0 0 1-2.35-.26c-.22.55-.52 1-.43 1.11 4.69 5.7 9.6 11.24 14.09 17.1 4.21 5.49 7.78 11.42 9.66 18.19.53 1.93.49 3.65-1.41 4.93a6.202 6.202 0 0 0-1.57 1.93c-3.52 5.7-8.66 7.21-15 4.61a18.273 18.273 0 0 0-8.32-1.15c-5.49.36-11.08-.37-16.6-.9a8.556 8.556 0 0 1-4.06-1.92c-3.43-2.68-6.81-5.43-10-8.4a7.18 7.18 0 0 1-1.89-4c-.84-5.92-2.69-11.12-8.31-14.25a3.614 3.614 0 0 1-1.6-1.91c-1.56-5.18-6.57-7.94-8.72-12.75-1.17-2.62-5.59-3.84-8.42-3-1.28.39-2.57.79-3.82 1.28-3.76 1.47-7.08.7-9.63-2.31a9.258 9.258 0 0 0-9.88-3.35 18.205 18.205 0 0 1-3.54 0c-2 0-3.93.22-5.51 2-1.11 1.2-2.86 1.8-4.13 2.89-1.48 1.27-3.37 2.54-4 4.22-1.64 4.34-5 5.22-8.9 5.26a71.275 71.275 0 0 1-8.16-.77l-2.3 2.6c-3.3 4-7.65 4.67-12.28 3.38-2.71-.75-4.95-1.14-7.71.23-3.9 1.94-7.94.72-11.7-1.05-1.84-.86-3.55-2-5.38-2.83-3.08-1.45-6.24-1.75-9.16.33-2.41 1.72-5.34 2.17-7.89 3.92-2.91 2-7.18 1.6-10.47-1-1-.82-2-1.72-3.48-3-5.3 5.85-12 5.42-19.24 3.6.26 1.92.4 3.19.61 4.46 1.13 6.94-2.15 12.43-6.07 17.54-3.28 4.27-7.11 8.11-10.54 12.27a13.156 13.156 0 0 0-2.62 4.85c-1.12 4.34-2.71 8.33-6.94 11.16 3.77 3.27 6.32 6.71 6.16 11.5a2.504 2.504 0 0 0 .75 1.78c3 2.66 6 5.31 9.14 7.81 3.76 3 6.42 6.49 6 11.6a75.21 75.21 0 0 1-.86 9c-.74 3.59-3.32 5.74-6.81 6.78-.94.28-2.17.21-2.8.8-4.39 4.08-9.71 4.19-15.17 3.89a7.673 7.673 0 0 0-2.53 0c-6.19 1.86-12.08-.23-18-1.53a14.767 14.767 0 0 1-6.06-3.4 68.53 68.53 0 0 1-8.07-8.27 9.62 9.62 0 0 1-1.75-5c-.48-5.18-2.39-9.28-6.89-12.29-1.4-.94-2.14-3.27-2.61-5.11-.87-3.39-1.32-6.89-1.95-10.35-.16-.82-.71-1.84-.42-2.44 1.55-3.13.61-6.28.35-9.42-.33-3.8 1.3-6.78 3.62-9.64 2.9-3.58 4.71-13.81 3.44-19.35a24.201 24.201 0 0 0-4.62 1.17c-5 2.33-9.86 5-14.92 7.23a8.429 8.429 0 0 0-5.24 5.72c-1.08 3.92-3.4 6-7.64 5.81-1-.05-2 .45-3 .42-4.9-.14-8.93.91-10.41 6.42-.27 1-1.54 1.72-2.43 2.48-.89.76-1.62 1.2-2.65 1.93.19 4.91 1 9.62 4.66 13.4 2.77 2.9 4.24 6.43 5.36 10.2a11.173 11.173 0 0 0 2 3.93c6.48 7.74 5.6 20.69-2 27.33a5.31 5.31 0 0 1-3.07 1.42c-4 0-8.07-.4-12.1-.46-4.03-.06-8.08-.09-12.09.25a12.999 12.999 0 0 1-6.86-.92c-7.35-3.31-12-8.6-14.7-16.35a129.284 129.284 0 0 1-5.13-16.87 9.43 9.43 0 0 0-3.31-4.85 12.602 12.602 0 0 1-4.7-10.72 12.273 12.273 0 0 0-3.61-9.61 8.058 8.058 0 0 1-2.16-4.45c-.58-4.68-.85-9.4-1.08-14.12-.2-4.2.38-4.71 4.29-6.22a8.36 8.36 0 0 0 3.92-2.82 11.445 11.445 0 0 1 6.32-4.67c1.59-.56 3.49-1.75 4.13-3.17 1-2.09 2.53-3 4.22-4.12 4.24-2.73 8.48-5.47 12.68-8.27a10.86 10.86 0 0 0 5.16-10.35 8.474 8.474 0 0 1 3.78-8.22c3-2.21 5.5-5.09 5-9.35 4.76-7.4.59-15 .38-22.45a16.801 16.801 0 0 1 3.15-10.37 49.382 49.382 0 0 0 4.48-7.83c1.82-4.09 3.27-8.33 5-12.82-3.89-4.29-9.9.37-14.64-2.57 1.66-3.62 5.09-2.22 7.5-2.6a16.48 16.48 0 0 1 7.84 1.1c2.63.95 5 2.74 8.08 4.55-1.11 1.14-1.89 2.49-3 3a7.876 7.876 0 0 0-4.33 5.3 49.137 49.137 0 0 1-7 14.48 13.053 13.053 0 0 0-2 7.11 33.997 33.997 0 0 0 1.28 10 12.19 12.19 0 0 1-.69 8.82 13.004 13.004 0 0 0-1.52 4.83 13.878 13.878 0 0 1-5.47 11c-2 1.65-3.13 3.56-2.76 6.13.8 5.56-2.21 9.36-6 12.64-3.79 3.28-7.7 7-12.77 8.84-1.59.57-3 1.54-3.11 3.6-.17 2.94-2.37 4-4.78 4.43a11.733 11.733 0 0 0-6.37 3.81 85.121 85.121 0 0 1-6.92 5.74c0 4-.15 8.35.09 12.72a6.909 6.909 0 0 0 1.89 3.94 14.61 14.61 0 0 1 4 11.14 10.05 10.05 0 0 0 3.82 8.43 13.81 13.81 0 0 1 4.74 9.07c1 7.43 4.07 14.36 8 20.64 3.06 4.88 7.5 8.16 14.26 7.51 5.65-.54 11.47.11 17.16.69 3.51.36 6.23-.07 8.48-3 2.4-3.18 3.55-6.7 2.62-10.44-.83-3.29-1.34-6.88-5.1-8.9-1.44-.77-2.16-3.34-2.68-5.23a20.753 20.753 0 0 0-5.77-9.93 9.255 9.255 0 0 1-2.43-4.24c-1.2-4.66-2.1-9.4-3.16-14.29a21.52 21.52 0 0 1 3.34-1 6.516 6.516 0 0 0 6-4.69c1.26-3.82 4-5.14 7.8-5.12 2.37 0 4.75-.36 7.09-.21 2.87.19 4.43-1 5.24-3.64a14.007 14.007 0 0 1 1.81-4.16 11.005 11.005 0 0 1 3.55-3.33c5.49-2.87 11.86-3.87 16.78-8 1.07-.9 2.82-1.08 4.3-1.38 4.9-1 7.3-4 8.36-8.87.47-2.16 2.7-3.94 4.1-5.85l-4.18-2.83c1.9-.43 2.91-.9 3.9-.85 2.347.135 4.685.409 7 .82a13.247 13.247 0 0 0 10.55-2.17c3.77-2.6 6.19-1.91 9.22 1.23 4.92 5.1 11.76 6.78 19 3.47a17.755 17.755 0 0 1 9.81-1.81c1.67.22 3.3.73 4.95 1.08 2.31.49 4.61 1 6.93 1.4a10.771 10.771 0 0 0 9.69-3.24c3.13-3 3.44-3.08 5.76.09 2.94 4 5.22 4.37 10.1 2.76a57.09 57.09 0 0 0 6.42-3c3.37-1.61 6.63-3 10.41-.75 2.6 1.52 5.55 2.42 8.31 3.67 5.25 2.4 8.84 1.9 13-2.1a30.116 30.116 0 0 0 2.84 1.72c4.36 2.08 7.66 1.66 10.66-2.12 2.65-3.34 5.81-4.56 9.74-3.71 5.28 1.13 8.87-.4 10.84-5.63.4-1 1.9-1.67 2.93-2.43 1.58-1.16 3.2-2.27 4.64-3.28-.24-.71-.25-1-.35-1-3.17-1.31-7.08-1.85-9.34-4.07-2.91-2.86-6.14-3.07-9.54-3.65a106.041 106.041 0 0 0-11-1.68c-3.82-.23-5.83-2.25-7-5.52-.53-1.41-1-2.83-1.43-4.28-1.07-3.68-2.65-4.78-6.53-4.95a61.616 61.616 0 0 1-8-.93c-5.52-1-8.55-4.83-9.73-9.84-1.11-4.69-1.33-9.58-1.94-14.31 2.39-1 2.67.78 2.92 1.88.63 2.8 1 5.65 1.39 8.5.71 5.49 3.74 8.94 9.06 10.28a41.203 41.203 0 0 0 7.44 1.34c4 .24 7 1.88 7.72 5.94 1.06 6.18 4.8 8.83 10.69 9.35 4 .34 7.95.75 11.9 1.37 1.23.19 2.34 1.16 3.52 1.75 2.52 1.25 5 2.65 7.59 3.68a38.994 38.994 0 0 0 13.71 2.79c1.13 0 2.24 1.23 3.35 1.88 1.95-2.7 4.72-3.47 6.22-1 3.61 6 8.68 4.64 13.85 3.83a5.681 5.681 0 0 0 1.51-.14c3.14-1.5 5 .12 6.78 2.47 1.63 2.12 3.71 3.88 5.47 5.9a27.551 27.551 0 0 1 3.24 4.44c1.68 2.95 3.32 5.77 6.29 7.76 3.63 2.44 4.44 6.71 5.32 10.56a11.003 11.003 0 0 0 3.88 6.77c2.36 1.88 4.34 4.33 6.9 5.83 2.23 1.32 5 1.83 7.58 2.38 2.789.514 5.603.888 8.43 1.12a7.196 7.196 0 0 0 3.34-.07c3-1.25 5.57-.61 8.24.78 5 2.59 9.5 1.76 13.28-2.07a5.691 5.691 0 0 0 1.3-6.92c-2.93-6.64-6-13.19-11.6-18.14a22.765 22.765 0 0 1-3.33-4.43c-1.88-2.75-3.21-5.94-6.73-7.26a3.33 3.33 0 0 1-1.87-2.22c-.34-3.6-3.21-5-5.57-6.79-1.84-1.42-3.75-2.76-5.53-4.25a9.992 9.992 0 0 0-7.43-2.6c-2.8.24-3.95-1.09-4.6-3.54a66.97 66.97 0 0 0-2.52-7.6c-.33-.81-1.32-1.36-2-2l-.02-.07zm-232.8 36.94c-2.93 5-4.33 10.44-8.46 14.35a5.54 5.54 0 0 0-1.24 3.16c-.24 2-.06 4.07-.29 6.08-.74 6.26-.26 12.89-5.36 17.91A5.187 5.187 0 0 0 236 465c-.17 5-.28 10-.08 15 .1 2.67 1.07 5.3 1.26 8a6.628 6.628 0 0 0 2.64 5.13 15.368 15.368 0 0 1 5.84 11.31c.25 4.25 9.54 14.28 14.11 15.36 5.76 1.36 11.47 2.45 17.52 1.62 5.77-.8 11.35-.67 16.79-4.11 5.79-3.66 8.5-7.27 6.25-13.83-.74-2.14-1.94-5.14-3.64-5.74-5.05-1.79-7.73-6.48-12.21-8.84-1.67-.88-3.2-2.69-2.27-4.59 1.87-3.78-.27-5.61-2.8-7.57-4.21-3.27-4.46-5.39-.18-8.53 3.16-2.32 4.45-5.55 5.54-8.81a19.41 19.41 0 0 1 6.32-9 44.405 44.405 0 0 0 12.46-17.25 8.062 8.062 0 0 0 .38-3.85c-.29-2.6-.85-5.17-1.35-8-2.58-1-4.89.62-7.41 1.49-8.45 2.91-16.25 2-22.8-4.56-1.53-1.53-2.93-2.11-4.87-.79-3.21 2.2-6.86 2.63-10.66 2.47a27.353 27.353 0 0 0-4.15.37z" fill="#174f78" stroke="#174f78" stroke-width="3" stroke-miterlimit="10"/><path d="M611.68 387.43c-.49-2.94-3.22-3.73-4.91-5.5a23.405 23.405 0 0 0-1.86-1.73 14.517 14.517 0 0 0-8.74-3.48 125.968 125.968 0 0 1-12.46-1.94c-5.47-1-10.89-2.49-16.39-3-6.06-.54-10.87-4.43-16.69-5.35-2-2.79-4.8-2.37-7.76-2.09-4.19.41-7.79-.59-10.62-4.36a13.72 13.72 0 0 0-11-5.43 10.443 10.443 0 0 1-8.8-5.16 34.23 34.23 0 0 1-4.75-10c-.95-3.65-1.88-6.75-5.71-8.26a12.986 12.986 0 0 1-3.79-2.4c-1.36-1.21-3-2.5-3.58-4.09a74.47 74.47 0 0 1-2.44-10.81c-.39-2.3 0-4.79-.63-7s-.39-3.45 1.38-4.79a9.469 9.469 0 0 0 3.53-6.94 67.027 67.027 0 0 1 2.15-10.35 6.377 6.377 0 0 1 2.44-3.66 83.949 83.949 0 0 1 9.55-4.46 4.16 4.16 0 0 1 2.63.05c3.61 1.13 6.94.26 9.17-2.43 2.23-2.69 5-2.86 7.67-2.18 4.39 1.09 7.34-.82 9.34-4.13a4.598 4.598 0 0 1 1.588-1.819 4.604 4.604 0 0 1 2.292-.761c2.7-.26 5.41-.34 8.08-.75 1.42-.21 3.21-.57 4.06-1.54 3.57-4 9.11-6.64 9.91-12.86.07-.54.86-1 1.29-1.47 1.57-1.81 3.42-3.47 4.9-5.33.8-1.625 1.375-3.35 1.71-5.13-.11-1.84-.42-3.62-.73-5.56-.11-.75-.2-1.49-.26-2.22a43.673 43.673 0 0 1-1-5.49c-1-7.1-.68-14.43-4.55-21.06-3.35-5.72-7.46-8.17-14-7.06-3.493.594-6.993 1.13-10.5 1.61a10.234 10.234 0 0 1-9.15-3.33c-2.83-3-2.72-6.5.19-9.35a36.124 36.124 0 0 1 3.31-3.13c2.18-1.66 2.35-3.88 2.25-6.34-.14-3.54-2.56-5.57-5.14-7.05-3.69-2.12-5.41-5.25-6.37-8.9a16.334 16.334 0 0 1-2.37-7.16c-1-2.39-2.43-4.6-5.17-5-4.5-.63-7.68-3.07-10.34-6.35a9.247 9.247 0 0 0-2.23.42 17.001 17.001 0 0 1-12.73 1.31c-1.07-.32-2.6.41-3.76 1a31.11 31.11 0 0 0-3.72 2.51c-3.86-1.49-7.52-2.88-10.75 1-1.05 1.27-2.44.7-3.59-.29a32.26 32.26 0 0 0-4.26-3.52c-3-1.81-6.16-3.4-9.28-5a7.587 7.587 0 0 0-3.23-1.25c-4.84 0-9.39-.33-14.07-2.38s-10.09-2.65-15.24-3.47a11.351 11.351 0 0 0-5.82 1c-1.57.66-2.79 2.13-4.47 3.48l-3.75-1.52c-5.07-2.07-7.67-.12-9.66 3.5-.45.81-1.16 1.84-1.94 2.05-5.27 1.38-6.27 5.46-6.78 10a7.746 7.746 0 0 1-1.36 4c-3.77 4.46-4.26 12.07-.76 16.78 1.2 1.62 2.62 3.07 4.13 4.83-2.33 2.52-2.29 5.23-.57 8.21 1.11 1.93.55 3.85-1.06 5.52-2 2.08-3.45 4.48-3.11 7.41-2.86 2.32-6 2.28-9.3 2.24-4.35 0-9.17-.51-11.41 4.43a13.329 13.329 0 0 1-9.26 7.59c-2.51.69-3.34 2.59-2.55 4.67.657 1.879.751 3.909.27 5.84a94.092 94.092 0 0 0-1.34 11.35c-.22 3.79.88 5.18 4.19 6.55 3.31 1.37 6.54 2.82 10.1 4.37 1.41-2.33-.53-3.7-2.34-4.77-1.81-1.07-4.06-1.67-6-2.69-2.82-1.49-3.4-3.05-1.69-5.73a7.608 7.608 0 0 0 1.28-6.17c-.46-2.11-.59-4.3-.9-6.45-.42-3 .52-4.91 3.42-5.79a13.418 13.418 0 0 0 7.66-6.18c1.15-1.81 8-3.75 9.8-3.38 2 .41 4 .39 6 .89 2.27.59 3.6-.42 4.55-2.18.391-.918.663-1.883.81-2.87 1.82-7.6 4.67-8.49 10.67-7.4 2.28.42 4.62.53 6.54.74 1.44-2.11 2.25-4.11 3.72-5.29 3.77-3 7.83-5.72 11.34-8.23 3-.18 5.65-.35 8.29-.49 1.61-.09 3.4.3 4.81-.27 2.07-.83 1.36-3.15 1.8-4.89a6.12 6.12 0 0 1 2.21-3 10.49 10.49 0 0 1 3.09-1.13c-.2-2.5-.37-4.71-.57-7.29h7.39c.29-1.88.47-3.53.81-5.14.65-3.09 1.64-3.88 4.57-2.6 2.93 1.28 4.66.28 6.39-2 2.34-3.15 3-3.16 6.09-1l2.67 1.86c2-1.43 3.83-2.9 5.81-4.09 2.75-1.65 4.17 1.35 6.38 2.18.87-.38 2-.56 2.66-1.23 2.4-2.54 4.75-4.67 8.5-2.33.43.27 1.31-.1 2-.26 2.54-.59 5.07-1.21 7.52-1.8.36.32.73.48.86.76 1.32 2.91 2.64 4.79 6.76 4.07 4.12-.72 5.47 1.21 6.57 5.8 1.44 6.05 3.95 11.31 9.31 15.13 6 4.29 5.06 7-.31 11.43-.5.43-1.42.48-1.74 1a11.361 11.361 0 0 0-1.85 3.78 11.995 11.995 0 0 0 .3 4c1.21 7.52 7.84 11.93 15.4 10.31 3.46-.75 6.91-1.65 10.42-2.1 7.61-1 13.4 4.72 13.17 13.23-4.76 0-10.73-2.91-13 4.43-1.33 4.36-1.36 8.52 2.22 11.7 3.9 3.45 8.36 4.13 12.77.66 3.26 6.13 3.07 7.85-.41 12.59-2 2.7-3.32 5.89-5.37 8.52-4.36 5.61-8.06 12.37-17 11a6.697 6.697 0 0 0-6.64 2.92c-2.57 3.57-5.57 5.46-10.34 4.23-2.27-.59-5.9-.7-6.92 1.8-1.72 4.25-4.63 3.83-7.78 3.14-6.36-1.39-10.93 2.29-15.72 5.32a4.479 4.479 0 0 0-1.7 2.42 63.957 63.957 0 0 0-1.77 8.2c-.68 5.13-2 9.79-6.92 12.59-.33.19-.36.89-.55 1.39a11.427 11.427 0 0 1 2.9 10.12c-.56 3.91.81 8.29 2.07 12.22 1.16 3.61 4.64 5.13 8.08 6.34 1.88.66 4.37 1.07 4.37 3.58 0 4.67 2.36 8.44 4.39 12.26 2.41 4.53 5.87 8.63 11.27 9.15a14.063 14.063 0 0 1 10.24 5.45c2.8 3.53 6.26 4.47 10.64 4.54 4.38.07 9.17.84 12.95 3.49a27.995 27.995 0 0 0 12.36 4.95c6 .87 12 1.91 17.91 2.93 4.66.8 9.33 1.54 13.93 2.58a8.379 8.379 0 0 1 5.9 5.1c1.08 2.42-.69 3.69-1.5 5.47-1.27 2.74-3.56 5.46-1.5 8.94l5.14-2.37c-1 2.7-1.64 4.42-2.26 6.08-2.38-.62-4.15-1.51-5.88-1.46-3.92.12-7.34.88-9.6 5.1-2 3.65-4.33 6.75-3.11 11.22.41 1.51.06 3.22.06 5.36-6.58-.84-12.42-1.33-17.4-5.44a12.593 12.593 0 0 0-6.78-2.89c-7.31-.41-14-2.35-19.8-6.8-1.23-.94-2.29-1-3.41-.1.14 2.68 2.92 2.32 4.31 3.57 1.39 1.25 3.54 1.64 4.42 3a4.396 4.396 0 0 0 3.65 2.15c2 .22 4 .27 6 .45 4.25.37 8.38.89 11.32 4.61 2.54 3.22 7.65 2.48 10 6.25.29.46 1.94.23 2.91.08a19.174 19.174 0 0 0 11.47-6.52c1.68-1.89 3.13-4.08 5.08-5.64 6.41-5.15 10.12-12.12 13.39-19.38a18.728 18.728 0 0 0 1.02-10.82zM461.82 151.34c-.94-.14-1.75-.23-2.54-.4-4.07-.89-5.85-.19-6.95 3.64-.82 2.81-1.86 4.2-5.09 4.3-3 .09-4.24 2.15-4.17 5.26.041.812.134 1.62.28 2.42-3.24 2.48-6.24 4.71-9.15 7-.45.519-.956.985-1.51 1.39-2.26 1.68-4.9 1.35-7.46.84l-.61-.06a2.347 2.347 0 0 0-2 .52A15.84 15.84 0 0 1 415 183c-1.05.45-2.54 1-2.83 1.92-1.26 3.74-4.11 3.44-7 3.18-.52-.05-1.05-.12-1.6-.21a3.887 3.887 0 0 1-2.3-.33 2.994 2.994 0 0 1-1.66-2.48c-.003-.548.034-1.097.11-1.64a4.626 4.626 0 0 0-.31-1.69 4.636 4.636 0 0 1 .42-3.59c.203-.358.445-.693.72-1a4.102 4.102 0 0 0-1.89-4.87c-3.65-2.57-4.89-6-4.7-10.44.1-2.45.58-4.19 2.74-5.45 2-1.17 2.37-2.7 1.71-5.13-1.34-4.92.72-7 6-6.79.238-.23.446-.489.62-.77 2.86-6.31 3.17-6.42 9.18-3.19 3.51 1.88 5.59 1.74 7.85-1.56 1.6-2.34 3.3-2.34 5.61-2 3.42.47 6.7 2.05 10.39.6 1.05-.41 3.26.87 4.31 2 2.12 2.23 4.67 3.09 7.34 2.32 6.51-1.86 10.24 2.69 15.1 5.66l-2.99 3.8zM608.78 394c-1.95-3.33-1.95-3.33-.53-5.25 1.75 1.33 1.02 2.92.53 5.25zm-303.32-99.16c-1.47 4-5.4 4.94-8.68 6.1-11.28 4-22.78 7.27-34.06 11.22-11.44 4-22.57.86-34-.44l2.72 5.91c-2.29 1.33-3.4.43-4.52-.72a100.62 100.62 0 0 1-26.89-49 197.894 197.894 0 0 1-4.75-36.55 41.997 41.997 0 0 0-11.11-27.08 31.946 31.946 0 0 0-4.77-3.72c-1.55-1.15-3.09-1.77-5.12-.75-1.09.54-2.57.3-4 .43-2.06 4.54-3.92 8.88-.81 13.84 1.56 2.48.21 4.77-2.73 4.88a21.68 21.68 0 0 1-6.39-1c-1.84-.49-3.26-.93-5.13.49-1.24.95-3.46.68-5.25.8-3.29.22-6.66-1.48-10 .35-1 4.22 2.57 6.24 4.38 8.81-.68 2-1.9 2.15-3.34 1.71-3.85-1.16-7.32-7.26-6.15-11.13a4.426 4.426 0 0 1 2.19-2.59 36.334 36.334 0 0 1 7.18-2 38.52 38.52 0 0 1 6-.06 64.078 64.078 0 0 1 .37-7.13c.19-1.16.9-2.71 1.83-3.16 1.64-.78 2.64.49 3.39 2.05a27.52 27.52 0 0 0 2.94 4.69 32.973 32.973 0 0 0 3.49 3.33c.55-3.08 1-5.13 1.25-7.21.21-1.84 0-3.73.31-5.55a8.937 8.937 0 0 1 3.695-5.977 8.942 8.942 0 0 1 6.875-1.453c7.95 1.26 13.53 5.84 17.35 12.62 5.48 9.74 7.86 20.24 8.35 31.46.76 17.64 3.93 34.87 12.17 50.79 2.63 5.08 5.12 10.28 9.29 14.37a8.68 8.68 0 0 0 3.2 2.22c9.22 2.84 18.74 4.07 28.32 4.9.836.015 1.669-.1 2.47-.34a56.934 56.934 0 0 0 6.36-1.65c4.32-1.58 9-.59 13.41-3.19 3.89-2.32 8.91-2.75 13.41-4.08a7.451 7.451 0 0 0 2.65-1.25c3.61-3.09 8.19-3.64 12.48-4.93.57-.16 1.31.23 2 .37l-.38-.38z" fill="#174f78" stroke="#174f78" stroke-width="3" stroke-miterlimit="10"/><path d="M426.12 261.65c-1.7 3.8-2.44 4.25-6.07 2.54-2.81-1.32-4.7-1.36-7 1.32-3.27 3.83-6.26 4-10.09.8-2.84-2.35-5.36-2.19-8.29-.54-3.81 2.15-7.6.51-11.22-.56a2.998 2.998 0 0 1-1.77-1.29 12.329 12.329 0 0 1-3.67-2.61 14.749 14.749 0 0 1-3.45-6c-1.93-2.38-1.35-6.15-5.24-7.85 1.32 4.6 2.38 8.47 3.54 12.31.78 2.57 0 4.59-2.32 4.24-3.42-.51-5.49 1.54-8.18 2.65a13.843 13.843 0 0 0-7.32 6.53c-1.16 2.14-2.72 3-5.19 3.34-2.92.4-5.72 1.69-8.55 2.65-1.26.42-2.58 1.56-3.69 1.36-3.75-.65-6.2 1.34-8.41 3.67-1.63 1.72-3.48 2.21-5.7 2.65-4.94 1-9.82 2.29-14.66 3.73-2 .6-4.44 1.43-3.18 4.54 1.11 1.29 2.47.77 3.86.32 5.1-1.67 10.23-3.26 15.32-5 1.42-.48 3.12-.92 4-2 2.62-2.94 6.19-4 9.58-5.32 1.24-.5 2.83-.07 4.13-.47 4-1.23 7.88-2.65 12.68-4.29a27.895 27.895 0 0 1 2-3.42c2.66-3.65 6.31-6.81 10.62-7 4.31-.19 7-1.36 8.7-4.53 2.13 1.8 3.85 4.37 6.07 4.9 3.6.94 7.373.998 11 .17 3.53-1 6.06-.79 8.79 1.51 2.73 2.3 5.83 2.38 8.8.11 1.72-1.32 3.46-2.6 5.11-3.84 10.26 4.51 13.83-.55 14.56-9.3-2.94.61-2.94.61-4.76 4.68z" fill="#174f78" stroke="#174f78" stroke-width="2" stroke-miterlimit="10"/><path d="M485.58 383.3c-1.05-1.47-2.09-3-3.16-4.41-1.8-2.43-3.43-4.77-3.92-8-.89-6-5.75-8.14-10.84-9.86-6.85-2.32-14.28-3-20.39-7.48-1.44-1-3.49-1.21-5.2-1.92-4.31-1.82-8.65-3.6-12.87-5.63-2.4-1.14-2.9-2.38-3.31-6.37 1.73.63 3.46.79 4.54 1.72a37.408 37.408 0 0 0 13.57 7.41 37.418 37.418 0 0 1 7.38 3.29 52.484 52.484 0 0 0 15.05 5.63c7.18 1.55 12.59 5.25 14.87 12.77a22.795 22.795 0 0 0 4.08 8c1.66 2 1.17 3.21.1 4.87l.1-.02z" fill="#174f78" stroke="#174f78" stroke-miterlimit="10"/><path d="M430.88 255.75c2.56-4.06 5.83-3.57 8.65-4.09 2.62-2.92 1.12-6.07.6-9.37l10-6.33c.53-2.59-2-5 1.1-7l-3.16-1.77c.31-.6.42-1.22.77-1.42a60.156 60.156 0 0 1 7.47-4.16c2.33-1 3.5-2.27 3.53-4.86.032-2.321.6-4.604 1.66-6.67a12.75 12.75 0 0 1 2 3.07c1.31 4.7-.19 8.33-4.34 11.06l-6.13 4c-.19.61-.45 1-.36 1.23 2.16 6-1.43 9.66-5.43 12.86-2.2 1.75-3.37 3.25-3 6.25.37 3.27-1 5.08-4.27 5.93-2.65.73-5.44.8-9.09 1.27z" fill="#174f78" stroke="#174f78" stroke-width="2" stroke-miterlimit="10"/><path d="M135.7 266.67c1.09-4.15-.95-6.27-3.07-8.47a37.971 37.971 0 0 1-3.22-4.61c4.65-2.71 5.45 1.93 8.17 3.16 2.45-1.64 4.67-.58 7 1.2 1.28 1 3.06 1.32 4.66 1.82 2.24.72 3.52 1.94 2.68 4.84l-16.22 2.06zm7.45 29.22c4.8 6.45 11.7 6.25 18.79 6.49l-1 3.49 6.54 4.06c-4.17.91-6.64-.63-9.2-1.53-3.61-1.27-7.2-2.6-10.74-4a20.904 20.904 0 0 1-4.36-2.42c-2.18-1.63-2.45-3.55-.03-6.09zm9.85-14.43c-.85.54-1.69 1.52-2.57 1.56-4.88.23-9.74 0-14.32-2a6.182 6.182 0 0 1-2.35-1.75 1.7 1.7 0 0 1 1.37-2.84 2.62 2.62 0 0 1 1.46.23c4.87 3.13 10.34 3.71 16 3.64.09.4.24.78.41 1.16zm-13.87-47.78c1.73 2.36 3.34 4.82 5.23 7.06 1.74 2 5.6.91 6.92 4.08-5.78 2-13.42-2.44-14.34-8.06-.22-1.4-.04-1.65 2.19-3.08z" fill="#174f78" stroke="#174f78" stroke-width=".5" stroke-miterlimit="10"/><path d="M154.41 318.86c2-3 3.47-1.54 5-.55 3.63 2.4 7.37 4.47 12.14 3.68-.2 2.85-2.24 3.32-3.91 3.25a17.688 17.688 0 0 1-13.23-6.38z" fill="#174f78"/><path d="M158.72 284.75c-2.77 8.34-8.39 11.1-14.16 7.67 1.72-3.24 5.42-.72 7.55-2.63s4.4-3.37 6.61-5.04z" fill="#174f78" stroke="#174f78" stroke-width=".5" stroke-miterlimit="10"/><path d="M464.11 211c0-5.32 3.26-8.69 4.48-13.26 2.67 1.78 1.61 3.61 1.21 5.19-1.52 6.01-1.63 6.07-5.69 8.07zM595 392.47a3.008 3.008 0 0 0-1.67-1.77.425.425 0 0 0-.31 0 .376.376 0 0 0-.18.17 6.687 6.687 0 0 0-1 5.8 1.416 1.416 0 0 0 .83 1.07c.344.052.696-.011 1-.18.286-.088.542-.254.74-.48a1.68 1.68 0 0 0 .23-.64 8.373 8.373 0 0 0 .21-3.91.612.612 0 0 0-.32-.45c-.18-.05-.4.19-.26.32" fill="#174f78"/><path d="M596.5 391.58a4.278 4.278 0 0 0-1.251-1.725 4.28 4.28 0 0 0-1.929-.905c-1.55-.15-2.32 1.31-2.84 2.55-.9 2.17-1.32 6.78 1.51 7.81a3.643 3.643 0 0 0 3.8-1.2c.83-1.06 1-3.09 1-4.4 0-1.31-.38-3.16-2-3.37a1.991 1.991 0 0 0-.961.113 1.993 1.993 0 0 0-1.24 1.41 1.99 1.99 0 0 0 .011.967c.46 2.21 3.83 1.27 3.37-.93v-.15l-.45 1.7-.47.29-1.7-.45c-.15-.41-.18-.43-.1-.07a1.39 1.39 0 0 1 0 .49c.007.422-.026.844-.1 1.26 0 .17-.25 1-.24 1 .01 0 0 .07.28.11.38.22.45.11.21-.32.06-1.27-.26-2.83.83-3.84l-1.23.51c-.31-.07-.28 0 .09.23.167.209.296.446.38.7.89 2.06 3.91.28 3-1.77l.03-.01zM407.26 176.93a2.73 2.73 0 0 0 1.42 2.63 2.683 2.683 0 0 0 3.7-1.32 6.081 6.081 0 0 1 4.91-3.75 22.414 22.414 0 0 0 2.86-.54 7.466 7.466 0 0 0 2-1 7.082 7.082 0 0 0 1.44-1.32 27.68 27.68 0 0 1 1.77-2.17c.54-.6 1.88-.93 3.11-1.61a2.767 2.767 0 0 0 1.5-2.27 3.22 3.22 0 0 0-1-2.39 3.124 3.124 0 0 0-1.28-.725 3.125 3.125 0 0 0-1.47-.055l-.36.08h-.12a1.765 1.765 0 0 1-.23 0l-.55-.16a6.42 6.42 0 0 0-4.45-.26 13.117 13.117 0 0 0-3.66 2.14 10.526 10.526 0 0 1-2.29 1.42 15.652 15.652 0 0 0-3.2 2.13 13.907 13.907 0 0 0-2.67 3.12 9.754 9.754 0 0 0-1.26 3.92c-.13.73-.1 1.2-.17 2.13zM371.1 313.84c.06-.21.63-.61.74-.66.11-.05.23-.13.25-.17.02-.04-.1-.08-.24-.1a7.449 7.449 0 0 0-1.23-.09 5.857 5.857 0 0 0-1.62.18c-.95.26-1.8.63-2.82 1a3.412 3.412 0 0 0-2.2 1.55 3.53 3.53 0 0 0-.47 2.23 2.925 2.925 0 0 0 1.05 2 3.762 3.762 0 0 0 2 .59c.967.141 1.92.362 2.85.66 1 .27 1.93.62 2.89.81a6.26 6.26 0 0 0 4-.33 7.342 7.342 0 0 0 3.52-3.69 10.293 10.293 0 0 0-.85-10c-.08-.13-.14-.19-.24-.37a5.8 5.8 0 0 0-.36-.65 3.487 3.487 0 0 0-1.14-1 2.889 2.889 0 0 0-2.46-.08 2.652 2.652 0 0 0-1.7 3 6.703 6.703 0 0 1-.31 2.73 8.061 8.061 0 0 1-1.33 2.5c-.13.27-.68.69-.33-.11zm79.02-58.08c.198-.267.45-.488.74-.65.19-.11.23-.14.25-.17.02-.03-.1-.08-.23-.1a7.57 7.57 0 0 0-1.24-.09 5.56 5.56 0 0 0-1.64.25c-.94.26-1.8.63-2.82 1a3.44 3.44 0 0 0-1.257.552 3.438 3.438 0 0 0-.943.998 3.571 3.571 0 0 0-.47 2.23 2.907 2.907 0 0 0 1.06 2 3.7 3.7 0 0 0 2 .6c.967.141 1.92.362 2.85.66.95.27 1.92.62 2.89.8a6.14 6.14 0 0 0 4-.32 7.41 7.41 0 0 0 3.52-3.69 10.293 10.293 0 0 0-.85-10c-.08-.13-.14-.2-.24-.37a5.8 5.8 0 0 0-.36-.65 3.302 3.302 0 0 0-1.14-1 2.93 2.93 0 0 0-2.46-.09 2.665 2.665 0 0 0-1.7 3 6.517 6.517 0 0 1-.31 2.73 7.706 7.706 0 0 1-1.33 2.51c-.12.19-.67.6-.32-.2zm-84.04 76.16-.05-.06.05.06zm-1.5 11.43a3.33 3.33 0 0 0 1.89-.68c.49-.39.84-.6 1.23-1a6.076 6.076 0 0 0 1.91-2.87 5.345 5.345 0 0 0-.81-4.48 8.675 8.675 0 0 0-2.72-2.43h-.06c-.32-.3-.1-.12 0 0a8.217 8.217 0 0 1-.62-1.15 7.688 7.688 0 0 0-.53-.93 3.363 3.363 0 0 0-.32-.53A5.109 5.109 0 0 0 364 328c-2.56-3.12-6.18-.69-5.68 1.21.21 1.57-.71 3.17-1 5.26a5.262 5.262 0 0 0 3.17 5.55c.221.121.461.203.71.24-.025.489.089.974.33 1.4a3.514 3.514 0 0 0 3.05 1.69zm-3.17-5.08c.12-.2.22-.24.25-.22.03.02-.18.6-.39 1.23v-.12a1.527 1.527 0 0 1 .14-.89zm-3.94-58.84h-.13a1.903 1.903 0 0 0-1.27.23 3.509 3.509 0 0 0-2.01 2.37 3.661 3.661 0 0 0-.05 1.12c.047.196.068.398.06.6.038.947.39 1.855 1 2.58.59.77 1.49 1.43 2.13 2.19a3.827 3.827 0 0 0 3.82 1.76 3.079 3.079 0 0 0 2.08-1.28c.45-.781.649-1.682.57-2.58.097-.612.14-1.231.13-1.85a3.614 3.614 0 0 0 1-1.8 3.156 3.156 0 0 0-1.83-3.54 3.956 3.956 0 0 0-.45-.15 2.703 2.703 0 0 0-.55-.57 3.234 3.234 0 0 0-2.441-.475 3.247 3.247 0 0 0-2.059 1.395zm-37.36 38.3H320a1.876 1.876 0 0 0-1.27.22 3.812 3.812 0 0 0-1.22.88 3.275 3.275 0 0 0-.85 2.62c.06.194.08.398.06.6a4.353 4.353 0 0 0 1 2.58c.6.76 1.49 1.43 2.14 2.19a3.82 3.82 0 0 0 3.82 1.75 3.06 3.06 0 0 0 2.11-1.22 4.58 4.58 0 0 0 .57-2.58 9.791 9.791 0 0 0 .12-1.85 3.63 3.63 0 0 0 1-1.81 3.148 3.148 0 0 0-2.28-3.68 3.416 3.416 0 0 0-.56-.58 3.237 3.237 0 0 0-2.45-.512 3.227 3.227 0 0 0-2.08 1.392zm132.3 27.14h-.13a1.903 1.903 0 0 0-1.27.23 3.509 3.509 0 0 0-2.01 2.37 3.373 3.373 0 0 0-.05 1.12c.054.195.071.399.05.6a4.34 4.34 0 0 0 1 2.58c.59.77 1.49 1.43 2.13 2.19a3.827 3.827 0 0 0 3.82 1.76 3.069 3.069 0 0 0 2.11-1.23c.45-.781.649-1.682.57-2.58a9.791 9.791 0 0 0 .12-1.85 3.569 3.569 0 0 0 1-1.8 3.156 3.156 0 0 0-1.83-3.54 3.956 3.956 0 0 0-.45-.15 2.776 2.776 0 0 0-.56-.57 3.223 3.223 0 0 0-2.431-.501 3.232 3.232 0 0 0-2.069 1.371zm56.04 10.56h-.13a1.943 1.943 0 0 0-1.27.22 3.66 3.66 0 0 0-1.21.88 3.445 3.445 0 0 0-.8 1.5 3.373 3.373 0 0 0-.05 1.12c.054.195.071.399.05.6a4.369 4.369 0 0 0 1 2.58c.59.76 1.49 1.43 2.13 2.19.397.632.97 1.135 1.648 1.448.679.312 1.433.421 2.172.312a3.092 3.092 0 0 0 2.11-1.23 4.412 4.412 0 0 0 .57-2.58 9.791 9.791 0 0 0 .12-1.85c.5-.491.847-1.116 1-1.8a3.156 3.156 0 0 0-1.83-3.54 3.956 3.956 0 0 0-.45-.15 3.077 3.077 0 0 0-.56-.58 3.25 3.25 0 0 0-4.5.88zm-188.34-60.29H320a1.903 1.903 0 0 0-1.27.23 3.794 3.794 0 0 0-1.22.87 3.501 3.501 0 0 0-.79 1.5 3.4 3.4 0 0 0-.06 1.12c.06.194.08.398.06.6a4.325 4.325 0 0 0 1 2.58c.6.77 1.49 1.43 2.14 2.19a3.827 3.827 0 0 0 3.82 1.76 3.085 3.085 0 0 0 2.11-1.23c.44-.785.639-1.683.57-2.58a9.791 9.791 0 0 0 .12-1.85c.5-.491.847-1.116 1-1.8a3.161 3.161 0 0 0-2.32-3.68 2.993 2.993 0 0 0-.56-.57 3.224 3.224 0 0 0-3.592-.026c-.355.233-.66.535-.898.886zm95.16-26.56h-.13a1.903 1.903 0 0 0-1.27.23 3.509 3.509 0 0 0-2.01 2.37 3.373 3.373 0 0 0-.05 1.12c.047.196.068.398.06.6.038.947.39 1.855 1 2.58.59.77 1.49 1.43 2.13 2.19a3.827 3.827 0 0 0 3.82 1.76 3.069 3.069 0 0 0 2.11-1.23c.45-.781.649-1.682.57-2.58a9.791 9.791 0 0 0 .12-1.85 3.569 3.569 0 0 0 1-1.8 3.156 3.156 0 0 0-1.83-3.54 3.956 3.956 0 0 0-.45-.15 3 3 0 0 0-.55-.57 3.23 3.23 0 0 0-2.441-.507 3.233 3.233 0 0 0-2.079 1.377zm17.95 38.83h-.12a1.925 1.925 0 0 0-1.28.23 3.54 3.54 0 0 0-1.21.88 3.258 3.258 0 0 0-.85 2.61c.06.194.08.398.06.6a4.24 4.24 0 0 0 1 2.58c.59.77 1.49 1.44 2.13 2.19a3.838 3.838 0 0 0 3.83 1.76 3.111 3.111 0 0 0 2.11-1.22c.442-.787.638-1.69.56-2.59.097-.612.14-1.231.13-1.85a3.674 3.674 0 0 0 1-1.8 3.18 3.18 0 0 0-1.84-3.54 2.607 2.607 0 0 0-.45-.14 2.75 2.75 0 0 0-.55-.58 3.256 3.256 0 0 0-4.52.87zm21.44-32.36h-.12a1.92 1.92 0 0 0-1.28.23c-.459.204-.871.5-1.21.87a3.39 3.39 0 0 0-.79 1.5 3.347 3.347 0 0 0-.06 1.12c.06.194.08.398.06.6.038.947.39 1.855 1 2.58.6.77 1.49 1.43 2.13 2.19a3.838 3.838 0 0 0 3.83 1.76 3.085 3.085 0 0 0 2.11-1.23 4.458 4.458 0 0 0 .56-2.58 9.798 9.798 0 0 0 .13-1.85c.5-.491.847-1.116 1-1.8a3.172 3.172 0 0 0-1.84-3.54 3.956 3.956 0 0 0-.45-.15 2.703 2.703 0 0 0-.55-.57 3.23 3.23 0 0 0-2.441-.507 3.233 3.233 0 0 0-2.079 1.377zm36.67 61.26h-.13a1.876 1.876 0 0 0-1.27.22 3.66 3.66 0 0 0-1.21.88 3.18 3.18 0 0 0-.85 2.62c.054.195.071.399.05.6a4.368 4.368 0 0 0 1 2.57c.6.77 1.5 1.44 2.14 2.2a3.84 3.84 0 0 0 3.82 1.75 3.06 3.06 0 0 0 2.11-1.22 4.412 4.412 0 0 0 .57-2.58 9.791 9.791 0 0 0 .12-1.85 3.63 3.63 0 0 0 1-1.81 3.179 3.179 0 0 0-1.83-3.54 3.906 3.906 0 0 0-.45-.14 3.416 3.416 0 0 0-.56-.58 3.247 3.247 0 0 0-3.612-.016 3.26 3.26 0 0 0-.898.896zm12.79 39.02H504a1.905 1.905 0 0 0-1.28.22 3.66 3.66 0 0 0-1.21.88c-.385.423-.66.935-.8 1.49a3.755 3.755 0 0 0 0 1.13c.054.195.074.398.06.6a4.29 4.29 0 0 0 1 2.58c.59.76 1.49 1.43 2.13 2.19a3.833 3.833 0 0 0 3.82 1.75 3.04 3.04 0 0 0 2.11-1.22 4.412 4.412 0 0 0 .57-2.58c.097-.612.14-1.231.13-1.85a3.709 3.709 0 0 0 1-1.81 3.157 3.157 0 0 0-1.84-3.53 2.64 2.64 0 0 0-.45-.15 3.025 3.025 0 0 0-.55-.58 3.252 3.252 0 0 0-4.57.88zm31.58-3.09h-.12a2.001 2.001 0 0 0-1.28.23 3.54 3.54 0 0 0-2 2.37 3.373 3.373 0 0 0-.06 1.12c.06.194.08.398.06.6a4.31 4.31 0 0 0 1 2.58c.6.77 1.49 1.44 2.14 2.19a3.823 3.823 0 0 0 3.82 1.76 3.06 3.06 0 0 0 2.11-1.22 4.586 4.586 0 0 0 .57-2.59 9.686 9.686 0 0 0 .12-1.84c.5-.495.847-1.123 1-1.81a3.18 3.18 0 0 0-1.84-3.54 2.744 2.744 0 0 0-.44-.14 3.077 3.077 0 0 0-.56-.58 3.23 3.23 0 0 0-4.52.87zM563.17 400H563a1.925 1.925 0 0 0-1.28.23c-.459.204-.871.5-1.21.87-.38.429-.651.944-.79 1.5a3.373 3.373 0 0 0-.06 1.12c.06.194.08.398.06.6a4.31 4.31 0 0 0 1 2.58c.6.77 1.49 1.44 2.14 2.19a3.823 3.823 0 0 0 3.82 1.76 3.111 3.111 0 0 0 2.11-1.22c.44-.789.638-1.689.57-2.59.093-.612.134-1.231.12-1.85.5-.491.847-1.116 1-1.8a3.172 3.172 0 0 0-1.84-3.54 2.744 2.744 0 0 0-.44-.14 3.077 3.077 0 0 0-.56-.58 3.229 3.229 0 0 0-4.47.87zm-162.64-30.25h-.13a1.903 1.903 0 0 0-1.27.23 3.521 3.521 0 0 0-2 2.37 3.373 3.373 0 0 0-.05 1.12c.054.195.071.399.05.6a4.34 4.34 0 0 0 1 2.58c.59.77 1.49 1.43 2.13 2.19a3.827 3.827 0 0 0 3.82 1.76 3.07 3.07 0 0 0 2.11-1.23c.45-.781.649-1.682.57-2.58a9.791 9.791 0 0 0 .12-1.85c.5-.491.847-1.116 1-1.8a3.168 3.168 0 0 0-1.83-3.54 3.956 3.956 0 0 0-.45-.15 2.776 2.776 0 0 0-.56-.57 3.23 3.23 0 0 0-4.51.87zm7.07-58.13a7.532 7.532 0 0 0 .07 3.34c.147.533.383 1.037.7 1.49a4.362 4.362 0 0 0 1.75 1.84c3.45 1.52 5.45-1.74 4.68-3.23a1.479 1.479 0 0 1 .5-1.73c.57-.41 1 0 1.62.13a3.692 3.692 0 0 0 3.1-1.13 4.58 4.58 0 0 0 1.37-3.21c0-.9-.32-1.2-.35-2a3.64 3.64 0 0 0-1.26-3.53 3.052 3.052 0 0 0-3.35-.61 7.578 7.578 0 0 0-2.18 2.35c-.44.65-1 1.18-1.21 1 .11-.46-.12-.33-1 0a7.256 7.256 0 0 0-3 2.25 7.46 7.46 0 0 0-1.44 3.04zm-11.49-2.57c-.495.286-1.01.536-1.54.75a5.333 5.333 0 0 0-2.76 2.51 6.36 6.36 0 0 0-1 3.71 4.997 4.997 0 0 0 1.58 3.37 3.471 3.471 0 0 0 3.37.65 3.67 3.67 0 0 0 2.14-1.82 3.765 3.765 0 0 0 .26-1.94c-.15-.89 1.05-1.71 2.09-1.73.335.003.67-.024 1-.08h.07c.099-.095.19-.198.27-.31.194-.228.352-.485.47-.76a3.387 3.387 0 0 0-.227-3.32 3.466 3.466 0 0 0-1.153-1.1 4.786 4.786 0 0 0-2.48-.69 3.632 3.632 0 0 0-2.09.76zM342.44 307a3.691 3.691 0 0 0-2.64 1.84 2.722 2.722 0 0 0-.1 2.35c.46 1 .19 2.58.79 4.3a3.762 3.762 0 0 0 4.14 2.5c1.84-.26 3.12-1.74 4.11-2.57.52-.48 1-.81 1.59-1.26a3.672 3.672 0 0 0 1.33-2.79 3.771 3.771 0 0 0-1.217-2.899 3.766 3.766 0 0 0-2.993-.961 4.08 4.08 0 0 0-1.78.64 3.67 3.67 0 0 0-3.23-1.15zm3.65 1.44c.203.143.357.346.44.58.008.07.008.14 0 .21a.273.273 0 0 1 0 .07l-.26-.45a3.277 3.277 0 0 0-.41-.5c.07-.01.14-.03.23.04v.05zm-1 .06c-.56.25-.26-.38.43-.27a4.411 4.411 0 0 0-.42.22l-.01.05zM401 355.6c.672.108 1.36.043 2-.19h.36c.132-.024.262-.058.39-.1l.65-.26c.16 0 0 .08.24 0a7.258 7.258 0 0 0 1.48-.49 6.343 6.343 0 0 0 3.64-6.85 8.603 8.603 0 0 0-1-2.65v.25a3.522 3.522 0 0 0-.28-1 2.699 2.699 0 0 0-1.26-2.23 6.052 6.052 0 0 0-2.94-1.16 5.008 5.008 0 0 0-3.8 1.47 4.661 4.661 0 0 0-1.124 1.935 4.66 4.66 0 0 0-.096 2.235c.087.58.329 1.126.7 1.58.11.09.2.13.27 0s.07-.17.14-.27l.24-.29c.21-.28.68-.5.74-.39.06.11-.07.25-.29.43a9.907 9.907 0 0 0-1.27 1.23 6.168 6.168 0 0 0-1.52 3.09 2.838 2.838 0 0 0 .55 2.3 3.699 3.699 0 0 0 2.18 1.36zm4.56-3.9c.036.141.063.285.08.43v.4l-2.25-.3c.25-.1.5-.18.74-.3.438-.231.831-.54 1.16-.91.1.218.177.446.23.68h.04zm4.58-26.77a4.683 4.683 0 0 1-2.15 3.64c-.35.292-.745.525-1.17.69-.19 0 .08-.08.11.16v.21a3.98 3.98 0 0 0-1.15.49 3.65 3.65 0 0 0-1.5 1.78 4 4 0 0 0 .37 3.6c.66 1.18 2.37 1.27 2.95 1.2.875.08 1.755.08 2.63 0a6.805 6.805 0 0 0 5-3 10.096 10.096 0 0 0 2-4.94 9.527 9.527 0 0 0-.08-2.45 8.15 8.15 0 0 0-.38-1.25 3.94 3.94 0 0 0-1.37-2.29 3.313 3.313 0 0 0-3.87-.22 2.712 2.712 0 0 0-1.39 2.38zm15.99 51.78a4.689 4.689 0 0 1-2.16 3.64 4.084 4.084 0 0 1-1.16.69c-.19 0 .07-.08.11.16l-.05.21c-.403.105-.787.27-1.14.49a3.551 3.551 0 0 0-1.5 1.78 3.995 3.995 0 0 0 .36 3.6c.67 1.18 2.38 1.27 3 1.2.875.08 1.755.08 2.63 0a6.78 6.78 0 0 0 5-3 10.106 10.106 0 0 0 2-4.94 9.997 9.997 0 0 0-.08-2.45 7.3 7.3 0 0 0-.39-1.25 3.916 3.916 0 0 0-1.36-2.29 3.334 3.334 0 0 0-3.88-.22 2.704 2.704 0 0 0-1.38 2.38zM400 286.89c.19 1.39-.71 2.88-1.44 4.41a4.833 4.833 0 0 0-.09 4.39c.38.704.822 1.374 1.32 2 .529.72 1.004 1.479 1.42 2.27a3.2 3.2 0 0 0 3.06 1.18 3.293 3.293 0 0 0 2.84-2.51 8.21 8.21 0 0 0 .14-1l.13-.55c.086-.356.153-.717.2-1.08.087-.693.131-1.391.13-2.09.106-1.35.065-2.708-.12-4.05a13.15 13.15 0 0 0-.52-2 4.998 4.998 0 0 0-.5-1 3.998 3.998 0 0 0-1.42-2.14c-2.83-1.95-5.58.49-5.15 2.17zm32.94-14.58c.19 1.39-.71 2.88-1.44 4.41a4.797 4.797 0 0 0-.08 4.39c.373.706.811 1.376 1.31 2a16.914 16.914 0 0 1 1.42 2.27 3.2 3.2 0 0 0 3.06 1.18 3.309 3.309 0 0 0 2.85-2.51c.065-.33.108-.664.13-1l.13-.55a10.4 10.4 0 0 0 .21-1.08 18.48 18.48 0 0 0 .13-2.09 18.843 18.843 0 0 0-.13-4 13.15 13.15 0 0 0-.52-2 4.998 4.998 0 0 0-.5-1 3.998 3.998 0 0 0-1.42-2.14c-2.86-2-5.61.44-5.15 2.12zm46.55-7.52c.19 1.4-.7 2.88-1.44 4.41a4.797 4.797 0 0 0-.08 4.39c.373.706.811 1.376 1.31 2a16.914 16.914 0 0 1 1.42 2.27 3.217 3.217 0 0 0 3.07 1.19 3.3 3.3 0 0 0 2.84-2.52c.063-.331.11-.664.14-1l.12-.55c.088-.359.158-.723.21-1.09.082-.69.126-1.385.13-2.08a18.26 18.26 0 0 0-.13-4.06 12.78 12.78 0 0 0-.52-2 4.998 4.998 0 0 0-.5-1 3.998 3.998 0 0 0-1.42-2.14c-2.86-1.94-5.64.51-5.15 2.18zm-105.1 18.15a13.092 13.092 0 0 0-1.5 1.64 3.691 3.691 0 0 0-.6 3 3.797 3.797 0 0 0 2.44 2.77 3.133 3.133 0 0 0 1.52.16l.08.1a.498.498 0 0 0 .11.1l.28.45a4.131 4.131 0 0 0 2.06 1.63 3.313 3.313 0 0 0 2.46-.09 3.506 3.506 0 0 0 1.95-2.57 4 4 0 0 0-.28-2.25c-.51-1 0-2.45-.18-4.2a3.792 3.792 0 0 0-3.91-3.24c-1.98.08-3.42 1.56-4.43 2.5zm4.92 6a2.249 2.249 0 0 1-.55.46c.184-.17.357-.35.52-.54l.03.08zm87.69-41a13.867 13.867 0 0 0-1.5 1.64 3.726 3.726 0 0 0-.6 3 3.872 3.872 0 0 0 2.45 2.77c.488.17 1.009.222 1.52.15l.08.1c.025.04.06.075.1.1l.28.45a4.105 4.105 0 0 0 2.07 1.63c.797.292 1.677.26 2.45-.09a3.485 3.485 0 0 0 1.95-2.57 3.998 3.998 0 0 0-.27-2.25c-.52-1 0-2.44-.19-4.2a3.79 3.79 0 0 0-3.9-3.24c-1.97.1-3.44 1.57-4.44 2.51zm4.93 6a2.858 2.858 0 0 1-.56.45 5.2 5.2 0 0 0 .52-.54l.04.09zm26.57 18.55c-.743.04-1.482.136-2.21.29a3.72 3.72 0 0 0-2.4 1.93 3.87 3.87 0 0 0 .09 3.7c.268.441.634.814 1.07 1.09v.13a.301.301 0 0 0 0 .14l-.07.53a4.13 4.13 0 0 0 .53 2.58 3.248 3.248 0 0 0 1.94 1.5 3.465 3.465 0 0 0 3.14-.71 3.938 3.938 0 0 0 1.24-1.9c.27-1.12 1.59-1.86 2.56-3.34a3.788 3.788 0 0 0-.91-5c-1.55-1.21-3.58-1.03-4.98-.94zm-.09 7.77a2.482 2.482 0 0 1-.72 0 5.73 5.73 0 0 0 .75-.08l-.03.08z" fill="#174f78"/></svg>
