<svg width="732" height="658" fill="none" xmlns="http://www.w3.org/2000/svg"><path d="M505.59 315.06c-4.92-5.68-11.17-10-16.91-14.76a251.622 251.622 0 0 1-23.86-22.54c6.55-20.25 11-41.17 12-62.5.6-12.81-1.08-25.66 1.89-36.68 1.08-4 5.5-9.68 8.78-14A80.741 80.741 0 0 0 498.61 145c4.61-11.83 6.79-27.23 2.67-39.53-2.66-7.93-8.3-14.47-16.45-17C476.94 86 469 88.29 462 92.06c-2.19 1.18-4.27 2.55-6.44 3.76-.09.05-1.94 1-2.46 1.32-.66 0-1.79-.18-2.22-.2a13.712 13.712 0 0 0-1.89-.61c-.89-.47-1.74-1-2.58-1.53a3.634 3.634 0 0 0-.65-.42c-.64-.54-1.28-1.09-1.89-1.66-4.66-4.39-5.74-7.82-10.79-13.51a28.522 28.522 0 0 0-22.89-9.53c-7.7.34-15.47 2.71-22.85 4.81a249.684 249.684 0 0 0-22.75 7.64c-3.22 1.26-6.58 2.44-9.74 3.86l-1.27.37-.65-.39c-5.76-3.45-10.29-8.14-17-9.92-16.36-4.36-36 8.67-30.73 26.87 2.68 9.24 14.44 14 23.17 15.45l.76.13a33.2 33.2 0 0 1-14.84 13.5c-7.33 3.32-18.41 6.42-25.6 13.21-7.5 7.08-10.14 17.59-8.51 27.55a23.65 23.65 0 0 0 22.73 19.55c8.87.31 18.76-4.17 27-7.19a162.662 162.662 0 0 0 24.6-11l3.91 33.14c.14 1.16.29 2.32.44 3.48a62.085 62.085 0 0 1-3.59 5.76c.12-.24-1.8 2.25-1.84 2.29-1 1.12-2 2.19-3.07 3.23a103.501 103.501 0 0 1-7.87 6.79c-4.77 3.81-9.71 7.48-13.91 11.94-6.13 6.49-10.17 13.82-13.45 22.05a319.746 319.746 0 0 0-13.71 43.62c-3.61 15.08-4.1 30.28-6 45.58-.48 3.84-2.56 12.65-4.31 16.21a133.323 133.323 0 0 1-11.9 19c-7.45 10.35-14.29 21-21.18 31.71-2.88 4.48-5.39 8.23-8 11.7-2.24 1.74-4.58 3.36-7.22 5.05-3.16 2-6.413 3.857-9.76 5.57-1.69.85-3.4 1.65-5.12 2.42-.08 0-3.14 1.32-3.48 1.47-2.74 1.14-5.52 2.33-8.25 3.62-6.66.43-13.48.57-20.31.81-15.26.54-30.71 1.57-45.41 5.93-6.1 1.81-11.31 7.84-11 14.46.28 6.07 4.41 13.45 11 14.47 12.94 2 26.28 3.86 39.51 4.22a11.85 11.85 0 0 0 5.48 5.53c13.35 6.2 25.87 2.53 37.1-6.12 5.95-4.57 11.55-9.62 17.17-14.63 16.68-4.91 31.75-13.55 46-23.43a180.002 180.002 0 0 1-2.24 24.55c-3.07 18.06-9.2 32.53-16.42 48.64-7.47 16.68-13.36 34.28-8.63 52.62 4 15.69 16.12 31.07 32.95 33.63 10.07 1.52 18.2-3.91 19-14.47.62-8.32-2.28-15.82-5-23.48a70.104 70.104 0 0 1-2.63-9.2c-.09-.47-.46-2.91-.49-2.86a65.94 65.94 0 0 1-.3-4.87c-.04-1.63 0-3.15.05-4.73 0-.77.25-3.7.22-3.57a82.165 82.165 0 0 1 1.95-8.73c.513-1.767 1.1-3.51 1.76-5.23 0-.11.08-.2.11-.29a32.85 32.85 0 0 1 .9-1.89 67.03 67.03 0 0 1 5.24-8.79c.224-.293.427-.6.61-.92.26-.183.504-.387.73-.61.43-.39 2.17-2 1.79-1.79.66-.46 1.35-.88 2-1.28.64 1.82 1.28 3.65 1.9 5.48 5 14.91 8.23 30.09 12 45.31 4 16 13.6 30.89 31.54 31.87 12.07.66 17.73-13 12.95-22.57-2.57-5.12-5.76-11.45-7.5-15.81a101.536 101.536 0 0 1-3.43-10c-.31-1.12-.6-2.26-.87-3.4-.19-.83-1-5.61-.89-4.62a52.694 52.694 0 0 1-.14-8.52c0-.19.46-3.36.34-2.91.21-1.13.44-2.25.71-3.36.59-2.4 1.31-4.76 2.13-7.09.4-1.14.83-2.28 1.29-3.41.08-.14 1-2.34 1.21-2.68 5-10.62 11.23-20.58 16.3-31.16 6-12.59 9.85-25 10.83-39 1-13.76-.14-26.17 3.35-38.87 3.49-12.7 8.86-23.14 14.8-35.16l3.41-6.89 3.8-4.2 14.48-16c2.45-2.7 4.84-5.49 7.4-8.09a39.645 39.645 0 0 1 3-2.84h.08c.69 1.43 1.37 2.75.75 1 .69 1.87 1.36 3.74 2 5.63 3.3 9.93 6.69 20.29 15.77 26.45 12.29 8.33 28.25 3.89 36.23-8 9.3-14.09 5.16-30.88-5.19-42.82zM486.07 340a3.676 3.676 0 0 1-.1.57c-.13.51-.27.59.1-.57zm5.44 1a.534.534 0 0 1 0-.08c.49.19.39.19 0 .08zM329.15 515.7c.31-.2.51-.31 0 0zm144.07-395.59v1c0 .89-.05 1.63-.09 2.29-.6-.772-1.27-1.489-2-2.14l2.09-1.15zM337.55 475.86l-.62 1.68a54.976 54.976 0 0 0-2.05 5.44c-1.54 6.02-2.76-4.32 2.67-7.12zm-16.1 10.41c.08.25.17.49.26.73l-.44.11.18-.84zm131.27-389c-.23.09-.22.06 0 0zm-126.23 6.93c.159.178.344.33.55.45-.31-.09-.53-.24-.55-.42v-.03zm-24 58.28a.853.853 0 0 1 .92-.55c-.54.23-.89.42-.95.58l.03-.03zm189.42 179.25c1.53 1.95.35.65 0 0z" fill="#fff"/><path d="M166.11 479.9c-4.78 2.79-9.62 5.34-15.31 5.23a7.743 7.743 0 0 1-7.75-7c-.08-.7.57-2.07 1-2.14.95.012 1.873.32 2.64.88.33.19.32.95.49 1.45a4.849 4.849 0 0 0 4.82 3.37 15.373 15.373 0 0 0 8.05-1.42c1.84-1 3.82-1.85 6.06-.37zM138.8 458c-.91 2.86.5 4.38 2.06 5.88a18.554 18.554 0 0 0 12.12 5c1.651.008 3.283.348 4.8 1-.44.3-.86.81-1.32.85-7.78.8-15-.3-20.58-6.46-2.45-2.68-1.61-4.93 2.92-6.27z" fill="#174f78" stroke="#174f78" stroke-miterlimit="10"/><path d="M327.11 123.5c3.18-3.16 6.82-4 11.19-2.7 1.85.54 3.68 1 5.51 1.69 2.111.653 4.364.698 6.5.13 3.72-.94 7.24-2.32 8.06-7 .42-2.48 2.53-3.56 5.22-3 2-3.59 4-7 2.66-11.24-.63-2.09 1-2.84 2.6-3.25a21.693 21.693 0 0 0 7.79-3.7c1.36-1 2.27-2 2.08-3.9.048-1.267.267-2.522.65-3.73a37.009 37.009 0 0 1-4-1.29c-2.15-1-4.23-2-6.32-3.09-.7-.35-1.37-1-2.06-1.06-3.57-.1-5.27-2.6-7-5.12-.47-.8-1.019-1.55-1.64-2.24-1.12-1.05-2.37-1.58-3.93-.64-2.94 1.79-5.94.79-8.74-.31-1-.4-1.79-1.81-2.34-2.92a3.431 3.431 0 0 0-4.17-2.13 9.561 9.561 0 0 1-2.69.58c-6.82-.77-10.59 4.25-15.11 7.84a5.915 5.915 0 0 0-2.23 6.35c.54 2.31.14 3.89-2.52 4.34-.56.09-1 .76-1.54 1.12l-6.74 4.46c.19 1.79.61 4.17.65 6.57a8.897 8.897 0 0 1-1 4.11c-.89 1.69-.37 2.66.92 3.71 1.228.95 2.36 2.019 3.38 3.19 2.24 2.7 5.49 2.23 8.38 2.8 1.617.147 3.243.147 4.86 0-.71 2.47-2.26 3-3.79 2.92a75.97 75.97 0 0 1-8.67-.65c-2.28-.29-9.11-6.23-10.05-8.32a4.446 4.446 0 0 1 .68-4.8c1.39-2 2.86-3.8.66-6.26-.58-.66-.42-2-.49-3.08-.2-3 .73-4 3.83-5 2.1-.712 4.105-1.68 5.97-2.88.357-.33.633-.739.807-1.193.173-.454.239-.943.193-1.427-.67-4.3 1.57-7.1 4.71-9.33 2.74-2 6.1-3.08 7.43-6.72.27-.74 2-1.16 3.12-1.34 3-.5 6-.83 9-1.15 3-.32 5.62.49 7.22 3.59 1.38 2.7 4.45 3.48 7.45 2.33 4.05-1.56 5.91-1 8.44 2.39.7 1 1.27 2 2 3 .85 1.2 1.71 2.13 3.5 2.1 1.18 0 2.35 1 3.55 1.43 2.8 1.11 5.56 2.31 8.43 3.19a9.54 9.54 0 0 0 3.9-.1c2.66-.38 5.3-.89 8.62-1.46.136-1.135.19-2.278.16-3.42a5.088 5.088 0 0 1 2.12-4.47c3.2-2.45 7-2.88 10.89-2.73.7 0 1.37 1 2 1.51-.64.72-1.16 1.75-2 2.07-1.06.43-2.34.22-3.52.4-4 .62-4.85 1.58-5.09 5.54a8.195 8.195 0 0 1-.32 2.34c-.94 2.53-2.75 3.58-5.61 3.32-1.68-.15-3.61-.94-4.83.64a14.326 14.326 0 0 0-2.79 5.49 10.658 10.658 0 0 1-8.19 8.81c-4 1-3.68 1-4.23 5.2a58.555 58.555 0 0 1-2.8 10.18c-.18.57-1.18 1-1.88 1.27-1.08.45-2.22.73-3.49 1.14-.35 4.76-3.68 6.65-7.66 7.89a30.07 30.07 0 0 1-10.4 1.51c-3-.11-5.54-.15-8.15-1.65-2.8-1.6-6.44 1-7.81 4.21-1.25 2.92-3.1 4-6 4-.525.06-1.055.06-1.58 0-5.58-1.36-10.68.49-15.79 2.3-4.12 1.46-8.15 2.58-12.71 1.33a8.25 8.25 0 0 0-8.28 2.7c-2.29 2.52-4.38 5.24-6.78 8.15 2 1.07 2.31 2.34 1.45 4.29-1.8 4.08-1.34 5.39 2 8.18.311.26.646.491 1 .69 1.19.64 2.5 1.28 1.67 3-.6 1.24-2.66 1.58-4.21.54-5.14-3.49-7.53-7.25-4.81-12.55.274-.628.508-1.272.7-1.93l-2.2-1c1.32-4.44 4.48-7.81 7-11.56 2.89-4.36 7.84-4.48 12.45-6.13 2.89 2.37 6.11 1.9 9.79.79 5.62-1.68 11.05-4.58 17.34-3.43.67-1.38 1.22-2.53 1.87-3.85 2.07.4 4.12.61 5.52-1.35l.24-.23zM263.1 545.35c.29 2.75 2.1 4.58 3.46 6.72 1.1 1.74 1.11 4.64.63 6.82a15 15 0 0 0 1.18 10.34 88.249 88.249 0 0 1 4 9.81 53.66 53.66 0 0 1 1.71 7.24c.29 1.42.25 2.91.56 4.32.72 3.43 2.37 5 5.79 5.52 3 .41 6 .45 9 .87 6.57.92 13.12.56 19.71.16 2.46-.15 5 .54 7.45.5 3.26 0 6.51-.42 9.16-.61 1.07-2.67 1.74-4.73 2.71-6.65 2.59-5.16 2-8.62-2.39-12.22a6.659 6.659 0 0 1-2.5-5.93 4.718 4.718 0 0 0-3.08-5c-1.42-.67-2.72-1.59-4.15-2.25a5.057 5.057 0 0 0-2.57-.6c-3.27.4-6.55.84-9.77 1.53a4.547 4.547 0 0 1-5.11-2.07 27.185 27.185 0 0 0 3.35-2.86 8.13 8.13 0 0 0 2.07-6.22c-.31-2.89.68-5.36 2.07-7.88a32.157 32.157 0 0 0 2.7-7.3c.75-2.87 2.48-4.28 5.33-4.36 3.52-.09 5.92-1.67 6.23-5.26.22-2.61 3.19-3.71 3.06-6.42 0-.27 1.06-.88 1.61-.85a5.48 5.48 0 0 0 5.41-2.59c1.57-2.59 3.2-5.21 2.56-8.49-.1-.52-.15-1-.28-1.94a18.818 18.818 0 0 1 3.16-2.58 12.088 12.088 0 0 0 6.52-8c.268-.72.603-1.413 1-2.07 1.77.46 1.83 1.52 1.53 2.79a14.106 14.106 0 0 1-7.07 9.57 3.784 3.784 0 0 0-2.31 3.74 12.84 12.84 0 0 1-6.78 12.13 6.322 6.322 0 0 0-.88.77c0 2.28 1.37 3.2 3.38 3.76 6.25 1.74 6.65 2.23 5.74 8.43a17.55 17.55 0 0 0 .84 8.56 17.004 17.004 0 0 1 .49 9.75 12.367 12.367 0 0 0 .36 7.37c1.5 4.11 1.994 8.52 1.44 12.86a5.92 5.92 0 0 0 .61 3.75c3.11 4.51 4 9.62 4.38 15.11 4.52.9 9 .65 13.44.64 7.51 0 15 .11 22.54 0a42.292 42.292 0 0 0 5.89-.9c.86 1.67.12 2.87-1.22 3.62a8.614 8.614 0 0 1-3.71 1.22c-10.42.22-20.83.38-31.25.4a63.05 63.05 0 0 1-7.44-.9 1.948 1.948 0 0 1-1.556-.748 1.943 1.943 0 0 1-.344-1.692 17.887 17.887 0 0 0-3.25-13 8.484 8.484 0 0 1-1.56-7.13c.88-4.039.321-8.259-1.58-11.93a9.302 9.302 0 0 1-.43-6.56c.93-3.89 1.28-7.62-.22-11.64a14.455 14.455 0 0 1-.45-9.7c1-3.06.38-3.84-2.73-4.16-3.11-.32-5.38-1.19-6.4-4.31-.09-.28-.57-.43-1.12-.81a16.342 16.342 0 0 0-1.07 3.45c-.27 3.86-2.77 5.75-6.08 6.26-3.73.58-5.14 2.62-5.48 6.06a7.871 7.871 0 0 1-1.23 3.26 11.228 11.228 0 0 0-1.78 8.26l4.56 3.65-5.89 1.44a8.323 8.323 0 0 0 5.52.31c2.72-.49 5.17-.37 7.25 1.87.76.82 2.08 1.11 3.09 1.72 2.63 1.58 4.58 3.58 3.88 7a4.46 4.46 0 0 0 2.08 4.76c5.83 4.31 5.21 9.79 1.88 15a9.887 9.887 0 0 0-1 3 10.14 10.14 0 0 1-3.64 4.72 14.755 14.755 0 0 1-9.66 2.91c-5.8-.13-11.6 0-17.4-.07-1.71 0-3.42-.2-5.12-.36-.92-.09-1.9-.59-2.72-.38-4.47 1.08-8.6-.61-12.85-1.32a8.926 8.926 0 0 1-7.31-7.25 46.338 46.338 0 0 1-.43-4.72 23.778 23.778 0 0 0-2.82-9.76c-2.05-3.92-3.33-8.26-4.87-12.44a7.858 7.858 0 0 1 .53-6.14c1.47-3.27 1.31-4-1.45-6.43-1.54-1.35-1.47-3-1.46-4.69.04-1.44.77-2.38 2.55-2.78zm238.64-440.61c-2 1.36-3.64 2.23-5 3.39a5.229 5.229 0 0 1-6.59.61 55.231 55.231 0 0 1-7.15-5.52 4.343 4.343 0 0 1-.89-5.46c1.29-2.55 2.36-5.37 6.22-5.91-3.22-2.38-5.38-5.7-9.43-6.35-1-.16-2.28-.56-3.08-.15-3.61 1.84-7.28 3.61-10 6.85-1.94 2.3-4.22 4.31-6.38 6.42-.37.374-.817.664-1.31.85-4.41 1.59-11.86-.67-14.72-4.43-1.52-2-1.12-4.26-.8-6.48.21-1.43.71-2.82.86-4.25.33-3.33-.95-5.3-4-6.38a14.736 14.736 0 0 0-3.8-1.08c-6.33-.35-11.54-3.37-16.63-6.73a8.3 8.3 0 0 0-2.83-1.28 4.54 4.54 0 0 0-5.12 2.09c-.34.5-1.59.4-2.42.58a6.528 6.528 0 0 1-.41-2.19c.49-2.91 2.14-4.28 5.18-4.43 3.21-.16 6.2.16 9 2.17a37.688 37.688 0 0 0 17.23 6.46c5.19.7 8.06 4.47 7.76 9.71a33.544 33.544 0 0 1-.66 5.1c-.67 3.06 1.08 5 3.33 6.1 2.25 1.1 5.22 2.34 7.77 0a30.523 30.523 0 0 0 4.13-4.22 19.49 19.49 0 0 1 8.18-6.62 7.36 7.36 0 0 0 2.32-1.46 5.099 5.099 0 0 1 5.12-1.34c2.65.73 5.48 1.35 7.73 2.79a95.114 95.114 0 0 1 12 9 40.85 40.85 0 0 1 11.37 16.84c1.39 3.84 2.89 7.64 4.3 11.48.392.959.645 1.969.75 3 .12 1.81-.18 3.66.08 5.44a6.2 6.2 0 0 1-1.31 5.21c-2.51 2.8-4.66 6.06-8.5 7.4a2.87 2.87 0 0 0-1.46 1.64 31.015 31.015 0 0 0-1.63 6.49 7 7 0 0 1-2.95 5.32 21.466 21.466 0 0 1-1.8 1.54c-4 2.39-5.51 6.3-5.85 10.57-.34 4.27-2.81 7-6.67 7.77-5.45 1.11-9.91 4-14.61 6.6-.6.32-1.87.52-2.05.26-.43-.65-.79-1.84-.46-2.37a6.483 6.483 0 0 1 2.72-2.65c4.61-1.91 8.61-5.15 13.63-6.13a4 4 0 0 0 3.36-3.88 8.41 8.41 0 0 1 2.91-5.88 2.772 2.772 0 0 0 1-1.94c-.22-2.87 1.64-4.34 3.66-5.61 2.02-1.27 3.08-2.51 3.23-5a21.805 21.805 0 0 1 1.72-6.45 4.658 4.658 0 0 1 2.32-2.48c3.53-1.34 5.21-4.69 7.93-6.89 1.38-1.12 1.23-2.86.82-4.44-1.55-6.11-2.75-12.34-5.39-18.13-.71-1.63-1.58-3.29-2.73-5.55zm-7.31-.67-8.55-6.33c1.4 5.1 5.53 8.12 8.55 6.33zm-22.36 145.06c.23.736.549 1.441.95 2.1 2.88 3.88 2.36 8.12.74 12.07-1.47 3.58-1.07 7-.4 10.46.52 2.63 2 4.3 5 5.39 3.45 1.25 6.45 4 9.38 6.4 2.93 2.4 5.28 5.14 9.08 6.12.86.22 1.57 1.24 2.23 2 .91 1.06 1.49 2.56 2.6 3.25a9.317 9.317 0 0 1 4.41 7.58c.47 5.83 2.15 10.92 6.4 15.22a7.836 7.836 0 0 1 2.15 8.4 2.675 2.675 0 0 0 0 1.56c1.82 6.45 2.44 13.19 5.42 19.38 1.51 3.14 2.08 6.78 2.75 10.25a5.746 5.746 0 0 1-2.35 5.92 24.188 24.188 0 0 0-3.78 4 5.416 5.416 0 0 1-6 2 18.061 18.061 0 0 0-5.46-.53c-3.1.3-4.87-1.67-6.79-3.44a1.828 1.828 0 0 1-.24-1.71 1.93 1.93 0 0 1 1.62-.74 9.658 9.658 0 0 1 2.1 1c1.042.493 2.131.881 3.25 1.16 1.8.33 3.66.38 5.48.67 4.79.77 9.11-2.88 8.36-7.62a48.529 48.529 0 0 0-3.23-11.34 37.87 37.87 0 0 1-3.17-10.95 54.241 54.241 0 0 0-1.24-5.37c-.25-1.15-.76-2.41-.52-3.47 1.15-5-1.61-8.36-4.93-11.28a7.169 7.169 0 0 1-2.65-5.45c-.25-5.45-2-10.22-6.13-14a3.6 3.6 0 0 1-.95-1.69c-.41-1.62-1.43-2.14-3-2.66a20.066 20.066 0 0 1-5.32-3.16c-3.28-2.42-6.38-5.1-9.7-7.45-2.59-1.83-4-1.42-6 1.16-.64.83-1.36 1.6-2 2.39-2.37 2.76-2.3 4.81.25 7.42-2.17 2.6-2.74 2.8-4.9.84a10.896 10.896 0 0 0-6.26-3 10.742 10.742 0 0 1-6.35-3.52c-2.39-2.4-5.76-3.83-9-5.86 0-.12-.09-.63-.15-1.14-.49-3.94-1.18-4.44-5-4.12a7.05 7.05 0 0 1-3.78-.53 36.83 36.83 0 0 0-10.76-3.8 5.172 5.172 0 0 1-4.62-5.16c-.11-1.65 0-1.81 2.43-3 .328.388.592.827.78 1.3.52 2.55 2 3.54 4.61 4.06 2.78.58 5.37 2.08 8.06 3.12a9.76 9.76 0 0 0 3.31 1c5.43-.06 6.23.4 8.19 5.42.28.72.45 1.48.72 2.4a14 14 0 0 1 9.14 4.82 6.49 6.49 0 0 0 6.63 1.86c1.49-2 2.54-4.13 4.17-5.55 2.6-2.28 2.7-4.83 2.11-7.89A45.154 45.154 0 0 1 469 268a14.307 14.307 0 0 1 1.43-6.85c1.42-2.89 1.88-6-.53-8.93a14.013 14.013 0 0 1-1.58-3.61c-.74-1.81-.59-3.24 1.41-4.28a4.363 4.363 0 0 0 1.97-2.33c1.51-4.93 2.82-9.86 1.33-15.15-1.2-4.26-1-4.32-.38-7.35 1.77-.6 2.74 0 3 1.9.39 3.26.86 6.52 1.25 9.79a24.837 24.837 0 0 1-1.05 11.74c-.78 1.97-2.25 3.71-3.78 6.2zM146.63 439.68l-4.86 2.73c-.48 6 3.74 9.67 8.43 14-1.66.08-2.53.36-3.24.13-4.61-1.51-9.5-9-9.06-13.81.16-1.78.58-3.27 2.81-3.72.89-.18 1.61-1.42 2.31-2.26 2.56-3.09 3.32-3.11 6.32-.63 5.28 4.36 11.52 6.81 18 8.79 7.85 2.4 15.92 2 24 2.35 11.83.51 23-1.92 34-6 5.45-2 11.1-3.55 15.92-6.89a75.24 75.24 0 0 0 10.1-8.12c3-2.95 5.34-6.5 8-9.76a5.224 5.224 0 0 1 2.05-1.47c-2 5.94-4.68 11.44-9.16 15.81a55.362 55.362 0 0 1-22.51 13.56c-7 2.18-14 5.07-21.21 6.26-7.49 1.24-15.24.92-22.89 1.11a64.397 64.397 0 0 1-18.4-2.27 59.07 59.07 0 0 1-19.62-9.1c-.39-.31-.82-.59-.99-.71zm305.09-107.17v-5.68c3 1.89 2.1 4.89 3 7.38 4.81.23 5.85 4.59 7.63 7.81 1.89 3.4 2.85 7.08 1.45 11.32-1.4 4.24.5 7.73 4.46 9.9-2.42 3.06-4.59 2.95-6.35-.12-1.9-3.32-2.93-6.77-1.72-10.59.098-.385.172-.776.22-1.17 1.06-5.6-1-9.44-6.09-11.74-2.49 2.59-5 5-7.32 7.66a6.811 6.811 0 0 0-1.52 3.43c-.27 2.08 0 4.22-.2 6.32-.23 3-1.59 4.84-3.91 5.32a2.913 2.913 0 0 1-2.43-.53c-.4-.55 0-1.68.06-2.55a.915.915 0 0 1 .42-.65c3.1-1.32 2.42-3.83 2.15-6.34-.37-3.51-.17-6.58 3.59-8.8a8.933 8.933 0 0 0 4.71-7.1 12.314 12.314 0 0 0-1.63 0c-4.06.62-4.9.36-6.62-3.2a6.705 6.705 0 0 0-5.22-4.18 24.06 24.06 0 0 1-9.73-4.05c-2-1.38-5-1.21-7.58-1.74a43.764 43.764 0 0 1-5-1.08 6.996 6.996 0 0 1-4.75-4.43c-1-3-3.32-4.21-6.18-4.86a9.008 9.008 0 0 1-3.59-1.42 2.996 2.996 0 0 1-.32-2.68c.18-.46 1.59-.87 2.25-.67 2 .61 3.87 1.53 5.79 2.34a8.898 8.898 0 0 1 5 4.8c1.11 2.62 3.19 3.75 5.86 4 4.71.5 9.27 1.1 13.39 4 2.12 1.5 5.17 1.88 7.87 2.33a6.351 6.351 0 0 1 4.38 3c2.61 3.83 2.61 3.83 7.93 3.97zm-173 126.11a51.716 51.716 0 0 1 1.72-6.57 22.132 22.132 0 0 1 3.12-5.33 2.524 2.524 0 0 1 1.893-1.097 2.514 2.514 0 0 1 2.037.797c-.19.56-.21 1.26-.53 1.45-3 1.77-3.11 4.91-3.74 7.79a10.193 10.193 0 0 0-.169 4.331A10.194 10.194 0 0 0 284.7 464a12.65 12.65 0 0 1 1.48 13.43c-.2.48-.16 1.07-.39 1.53-1.42 2.89-.48 5.07 1.94 6.86.43.32.82.67 1.22 1 2.45 2.13 2.35 2.5 1.46 5.41a25.53 25.53 0 0 1-9.41 13.61 4.122 4.122 0 0 0-1.65 4.17c.24 2-.6 3.44-2.13 4.8a9.836 9.836 0 0 0-2.46 3.86c-1.34 3.64-2.84 7.09-5.95 9.64-1 .82-1.71 2-2.67 2.91-2.27 2.13-2.91 4.89-3.17 7.8.027.667.007 1.335-.06 2-.32 1.26-1.59 1.7-2.38.73a4.687 4.687 0 0 1-1.05-2.78c0-4.32 2.14-7.7 5.1-10.67 2.96-2.97 6.11-6.17 6.89-10.75a5.78 5.78 0 0 1 1.17-2.9c1.95-2 3.79-3.83 3.39-7.05-.1-.81 1.29-1.86 2.1-2.72 2-2.1 4.25-4 6-6.28a31.258 31.258 0 0 0 3.31-6.68c.21-.51-.36-1.41-.69-2.06a2.07 2.07 0 0 0-.93-.72c-4.89-2.61-4.72-6.75-3.38-11.23.147-.51.324-1.011.53-1.5 1.36-3.25 1.6-6.34-1-9.23a8.541 8.541 0 0 1-1.39-2.82 2.648 2.648 0 0 0-3-2c-1.63.09-2.88.6-3.32 2.24a59.264 59.264 0 0 0-1.57 6.9 47.292 47.292 0 0 0 0 6c-2.24.51-3.52.11-3.83-2.21a20.316 20.316 0 0 1 2.66-13.33 6.686 6.686 0 0 1 3-2.32 21.431 21.431 0 0 1 4.2-1.02z" fill="#174f78" stroke="#174f78" stroke-width="3" stroke-miterlimit="10"/><path d="M495.64 364.6c-.74-2.71-1.45-5.23-2.11-7.77-.66-2.54-1.27-4.83-1.76-7.27a16.11 16.11 0 0 1-.44-4.62 34.43 34.43 0 0 0-.72-10.62c-.46-2.05-1.2-3.83-3.34-4.52-1.83-.6-2.24-1.95-2.48-3.63a19.132 19.132 0 0 0-3.18-8.86 13.866 13.866 0 0 1-1.67-3.57c-1.67-4.65-3.87-8.87-8.11-11.78a6.37 6.37 0 0 1-2.05-2.84c-.28-.7-.15-2.25.22-2.4.83-.34 2.54-.43 2.81 0 2.73 4.58 8.49 6.71 9.68 12.62.58 2.9 2.41 5.54 3.66 8.3a26.264 26.264 0 0 1 1.7 4c.72 2.78 1.14 5.44 4.07 7.19 1.3.77 2 3.13 2.28 4.88.591 3.234.899 6.513.92 9.8a28.75 28.75 0 0 0 1.23 8.54 70.42 70.42 0 0 1 1.92 9.26c.26 1.57-.16 2.92-2.63 3.29zM324.6 246a1.913 1.913 0 0 1 2.696-.445c.274.202.49.473.624.785.43.83.07 2.26-.32 3.27a10.232 10.232 0 0 1-2 3 14.166 14.166 0 0 0-3.82 8.08 3.944 3.944 0 0 1-2.65 3.62c-1.88.63-2.22 1.94-2.43 3.61-.4 3.1-1.32 6-.42 9.34.39 1.42-1.16 3.69-2.35 5.13a17.441 17.441 0 0 1-4.67 3.54c-3.51 2.07-4.82 4.23-3.23 7.76 1.59 3.53.83 5.77-1.88 7.89a5.586 5.586 0 0 0-2.14 6.3c.07.26.33.57.25.73a21.323 21.323 0 0 1-1.06 1.86c-.6-.39-1.55-.67-1.73-1.2-1.16-3.4-1.36-6.8 1.28-9.65a5.003 5.003 0 0 0 1.31-5.28c-1.43-5.85.09-8.64 5.39-11.64A23.582 23.582 0 0 0 311 280c.532-.386.929-.93 1.135-1.555a3.133 3.133 0 0 0 .015-1.925c-1.12-4.57.91-8.81 1.73-13.18a2.141 2.141 0 0 1 1.2-1.44c2.52-.66 2.84-2.78 3.58-4.77a43.733 43.733 0 0 1 2.62-5.27c1.05-1.97 2.2-3.93 3.32-5.86zm89.5 157.85c.84 3.6-2.58 5.57-3.65 8.57 4.22 2.77 5.36 7.27 6.25 11.78 1 4.89-.35 9.11-4.84 12 .088.787.239 1.567.45 2.33 1.07 3 1.74 5.81-.22 9-1 1.71-.56 4.35-.77 6.57-.17 1.88-.94 3.23-3.61 3.52.22-2.44.26-4.7.64-6.91s.1-4.51 1.26-6.77c.62-1.22-.57-3.49-1.2-5.19-1.38-3.7-1.44-3.67 1.88-6 2.94-2 4.67-4.57 3.66-8.36-.4-1.53-.61-3.11-1-4.63-.63-2.28-.67-2.27-3.08-3.72-2.39 1.61-4.59 3.21-6.91 4.61a6.916 6.916 0 0 1-3 .78c-.48 0-1.37-.56-1.41-.93a2.822 2.822 0 0 1 .68-1.95c.4-.46 1.18-.55 1.75-.87a13.725 13.725 0 0 0 5.45-5.47c1.8-3.22 4.37-6 6.61-9l1.06.64zm-85.02-162.98 2.62-1.94a6.102 6.102 0 0 0-.23-1.5c-1.46-3.31-1.09-6.67-.59-10.12a6 6 0 0 1 5-5.37c.51-.12 1-.17 1.56-.27 3.91-.76 3.88-.79 4.06-4.9a31.598 31.598 0 0 1 .75-7.44 21.862 21.862 0 0 1 3.49-6.09 4.261 4.261 0 0 1 2.74-1.33c2.3-.27 4.63-.29 6.94-.33.29 0 .58.46 1 .83-.82 2.17-2.19 3.49-4.63 3.45-3.57-.06-5.12 1.15-5.66 4.71-.27 1.82-.24 3.68-.33 5.53-.07 1.31 0 2.64-.18 3.94-.57 4.21-.61 4.19-5 5-.91.16-1.79.44-2.7.62a3.536 3.536 0 0 0-3.048 2.525c-.132.449-.173.92-.122 1.385.17 2.74.66 5.45 1.09 8.16.26 1.62.53 3.13-1.16 4.21-2.07 1.31-3.24 1.32-5.34-.16-.06-.1-.06-.28-.26-.91zm-45.18-72.45a10.892 10.892 0 0 1 5 9.91 10.569 10.569 0 0 0 5 9.64 9.263 9.263 0 0 1 1.83 1.42c3.87 4.45 8.3 5.56 13.31 3.26 1.11-.51 2.31-2.06 3.38-.37 1.07 1.69-.57 2.57-1.74 3.39a12.908 12.908 0 0 1-16.1-1 17.28 17.28 0 0 1-2.2-3.47c-1.17-.29-2.54-.74-3.94-1-2.93-.49-3.48-.93-4.19-3.77a4.309 4.309 0 0 1-.21-1.17A15.301 15.301 0 0 0 281 175c-1.85-2.34-.53-4.74 2.9-6.58zm20.99 146.35a42.632 42.632 0 0 1-4.26 3.12 50.449 50.449 0 0 1-5.74 2.64 5.004 5.004 0 0 0-3.38 4c-.56 4-1.86 7.94-.15 12.06 1 2.39.47 2.91-2.05 4.07a7.259 7.259 0 0 0-4.08 6.28 51.644 51.644 0 0 0 .25 9c.12 1.38.48 2.61-1.55 3.53-.55-.65-1.49-1.28-1.75-2.13-2.11-6.92-2.14-13.58 3.43-19.08a4.862 4.862 0 0 0 1.53-4.43 27.058 27.058 0 0 1 3.16-14.46 4.794 4.794 0 0 1 2.41-1.69 185.79 185.79 0 0 1 9.5-3.73 7.256 7.256 0 0 1 2.38 0l.3.82zm84.92 265.28c-.24-.84-.57-1.36-.49-1.8.65-3.48-.95-6.11-3.05-8.61a11.672 11.672 0 0 0-7.07-4c-5.8-1-6.91-6.26-9.22-10.26-.69-1.2-.3-3.67.53-5 1.8-2.75 1.53-5.44.92-8.31a6.217 6.217 0 0 1 0-1.22c1.87-1.3 2.89-.07 3.14 1.4.54 3 1.81 6.14-.19 9.22a3.613 3.613 0 0 0-.38 3c1.71 3.31 3.28 7 7.26 8.15 6.61 1.92 9.87 6.6 11.23 12.93.38 1.88.11 3.76-2.68 4.5zm-16.5-159.89c5.19.93 4.18 5.44 5.66 8.52 2.92 1.73 5.2-.73 7.85-1.42 1.28 1.94.6 3.14-1.22 3.67a38.893 38.893 0 0 1-6.56 1.41 6.348 6.348 0 0 0-4.91 2.93c-2.08 3.18-4 6.41-4.27 10.42a17.755 17.755 0 0 1-2 5.89c-.87 1.89-2.13 3.59-3.1 5.43-.65 1.24-1.52 1.94-2.84 1.35-1.49-.66-1.22-2-.55-3 1-1.55 2.34-2.87 3.19-4.48a19.648 19.648 0 0 0 2.22-5.82c.79-5.11 2.48-9.66 6.28-13.32 2.65-2.54 2.51-5.61 1.38-8.79-.35-.95-.76-1.87-1.13-2.79zm39.51-19.41c2.2-1.46 3.57-3 5.18-3.3 3.64-.7 4.53-3.27 4.95-6.2.33-2.34.92-3.8 3.44-5 2.52-1.2 3.71-4.42 3.69-7.43 0-3.45.79-6.13 4.2-7.71a4.641 4.641 0 0 0 2.51-4.21c0-.53.92-1 1.41-1.5.55.61 1.47 1.15 1.58 1.84a5.876 5.876 0 0 1-2.28 5.58 10.566 10.566 0 0 0-3.86 7.67c-.29 3.41-1.83 7-5.39 8.69a4.496 4.496 0 0 0-2.9 4.62c.09 3.17-1.32 5.23-4.59 5.92-2.33.5-4.45 2.28-7.94 1.03zm44.83-289.84c.43.94 1 1.63 1 2.31 0 7.59 2.59 14.72 3.87 22.08a6.465 6.465 0 0 0 1.61 3.07c2.32 2.49 4.77 4.86 7.23 7.21.85.8 1.47 1.57.75 2.69a1.778 1.778 0 0 1-.536.582 1.777 1.777 0 0 1-1.523.244 1.769 1.769 0 0 1-.691-.386 27.455 27.455 0 0 1-3.76-2.81 56.642 56.642 0 0 1-4.91-5.13 8.248 8.248 0 0 1-1.7-3.41c-1.17-5.51-2.2-11.06-3.2-16.6a52.384 52.384 0 0 1-.71-5.87 3.481 3.481 0 0 1 2.57-3.98zM235.3 490.07c-1.16 5.26.27 8.67 3.9 11.45 2.36 1.8 2.26 4 .41 6.84-.24-.08-.67-.1-.71-.23-.87-3-3.45-4.68-5.19-7-1.74-2.32-2.3-5.17-3.5-8.05a28.849 28.849 0 0 0-9.89 6.47 11.999 11.999 0 0 0-3.18 11.31c-3.09-1.09-4.18-3.59-3.37-6.89 1.16-4.73 4.43-7.67 8.5-9.82a71.32 71.32 0 0 1 8.28-3.68c1.23-.47 2.7-.25 4.75-.4zM407 460.16c3.3 3.14 3 6.22.66 8.25-1.38 1.2-1.53 2.59-1.87 4.15-.76 3.51-.62 7.2-3.16 10.34-1.18 1.47-1.45 4-1.46 6.05 0 4.18-2.85 6.19-5.85 7.65a17.274 17.274 0 0 1-9.52 1.76c.2-2.38 1.77-2.53 3.12-2.9a41.212 41.212 0 0 0 4.56-1.2c5.08-2.05 5-6.8 5.57-11.13.11-.74-.11-1.7.29-2.18 2.75-3.37 2.77-7.55 3.6-11.48.06-.25-.15-.62 0-.77 1.81-2.46 3.72-4.88 4.06-8.54zm-50.8-278.32c-.48-4-.26-4.12 3.27-4.55a25.375 25.375 0 0 0 14.45-6.54c1-.92 2.14-1.71 4-3.16-.15 1.87.07 2.89-.33 3.46-1.27 1.83-2.47 4-4.24 5.13-4.88 3.21-8.3 7.58-11.28 12.44a6.844 6.844 0 0 1-2 2.38 2.876 2.876 0 0 1-2.44-.12c-.35-.19-.47-1.51-.18-2 1.11-2.05 2.42-4 3.73-6.06a5.824 5.824 0 0 0-5.05-1l.07.02zm-2.14 295.95c1.75-1.4 3.18-2.71 4.77-3.78 4.39-2.95 5.33-4.54 3.78-9a9.507 9.507 0 0 1-.36-2.34c-.06-.63 0-1.27 0-2.5 1 .52 2.07.72 2.27 1.26 1.25 3.23 2.08 6.63.7 10a14.003 14.003 0 0 1-3.19 4.33 23.028 23.028 0 0 1-4 2.6c.76 5.24-.09 10.3-4.53 14.07-1.48 1.25-3.08 2.47-5.26 1.9-.45-1.89.85-2.41 2-3 4.32-2.26 4.71-6.64 5.6-10.68.16-.65-.84-1.51-1.78-2.86zm142.26-110a13.699 13.699 0 0 1-1 3.2 8.483 8.483 0 0 1-8.65 3.25 11.093 11.093 0 0 0-3.08-.32c-2.6.18-5.18.64-7.78.75-4.52.18-6.94-1.62-8.79-6.27 1.13-1.49 2.48-1.55 3.59-.17 3.35 4.21 7.72 3.1 12 2.49.91-.13 1.78-.51 2.69-.57a46.62 46.62 0 0 0 8.93-2.21 9.04 9.04 0 0 1 2.09-.15zM394.44 158.37c.53 0 1.06 0 1.58.13.303.123.589.284.85.48-.22 2.93-2.14 5.06-4.17 6.74a34.984 34.984 0 0 1-7.78 4.63c-2 .9-4.29 1.36-6.11-.58.15-2.48 2.09-2.66 3.47-3.14 3-8.85 3-8.85 5.11-9.87 2.09 2.29.2 5 .49 7.76 3.13-1.48 4.86-3.93 6.69-6.28l-.13.13zM265 415.55c1.91-2.93 1.6-6.26 1.31-9.47-.56-6.33 2.44-10.83 6.93-14.68a5 5 0 0 1 2-1.15 2.1 2.1 0 0 1 1.64.6c.25.24.18 1 0 1.43a3.34 3.34 0 0 1-1 1.18c-4.66 3.88-6.22 9-5.68 14.81.23 2.54.21 5-1.54 7.1-1.13 1.37-1.26 1.4-3.66.18zm12.89-28.74c-1.88.93-2.91.54-3.45-1-1.32-3.85-1-7.8-.58-11.73.07-.65.8-1.33 1.39-1.81a22.485 22.485 0 0 1 2.95-2c2.1-1.22 4.06-2.43 4-5.34 0-.57 1.07-1.15 1.65-1.73.47.57 1.19 1.08 1.35 1.72.45 1.85.35 3.73-1.13 5.14a31.853 31.853 0 0 1-4.53 3.77 4.542 4.542 0 0 0-1.874 1.951 4.543 4.543 0 0 0-.436 2.669c.25 2.74.44 5.48.66 8.36zM178 491.53c-4.44 4.05-8.73 8.24-13.35 12-1.87 1.53-4.4 2.31-6.71 3.21a4.675 4.675 0 0 1-5.07-1.28c-.46-.45-.83-1.69-.56-2 .47-.57 1.77-1.22 2.17-1 2.72 1.73 5.05.24 7-1.09 3.43-2.37 6.51-5.26 9.71-8 1.2-1 2.23-2.25 3.5-3.15 1.27-.9 2.43-.57 3.31 1.31z" fill="#174f78" stroke="#174f78" stroke-width="3" stroke-miterlimit="10"/><path d="M356.14 181.75a7.609 7.609 0 0 1-8.28 3.16 13.099 13.099 0 0 0-11.45 2.68 4.022 4.022 0 0 1-.64.46c-1.11.59-2.31 1.86-3.41.24s-.18-2.86 1.06-3.76c3.13-2.24 6.39-4.23 10.46-4.14 3 .06 6.05 0 9.07.26 1.128.242 2.218.636 3.24 1.17l-.05-.07zm42.16 118.83c-.74 3.09-2.49 4-4.61 4.31-6.22.8-14.32-4.74-15.9-10.86a1.64 1.64 0 0 1 2.59-1.88 7.328 7.328 0 0 1 1.78 2.49c2.14 4.54 6.43 6 10.7 7.14 1.39.38 3.14-.65 5.44-1.2zM194 512.39a7.642 7.642 0 0 1-1.3-2.18c-.91-4.7 2.38-12.09 6.36-14.54 2.37-1.45 4.62-1.29 6.55.47 0 .11-.08.32-.14.33-6.57 1-7.84 6.22-9.21 11.39-.38 1.46-.74 2.92-1.11 4.39l-1.15.14zm69.35-28.66 4-.39c.78 2.57-.36 4.34-1.91 5.76-1.55 1.42-4.83.49-5.48-1.93a57.723 57.723 0 0 1-1.4-10.11c-.05-.57 1-1.6 1.72-1.75.46-.1 1.54.89 1.72 1.57.63 2.22.93 4.52 1.35 6.85zm102.7-87.07c-1 4.55 1.93 7.43 4.33 10.73 1.8 2.47 2.82 5.52 4.11 8.35.15.33-.24.9-.55 1.95-1.28-1.48-2.73-2.46-3.12-3.75-.86-2.79-2.93-4.55-4.49-6.76a29.301 29.301 0 0 1-3.57-7.76c-.69-2.07.38-2.88 3.29-2.76zm-119.12 86.03c-1.39 6.43 2.39 8.87 6.85 10.85 1.46.65 3.49.69 3.55 3.25-.44.19-1 .64-1.33.55-4.25-1.08-8.31-2.54-11.36-5.94-2.7-3.02-2.13-5.98 2.29-8.71zm221.15-282.25c2 .73 2.68 2 2.35 3.73-1.13 6.06-1.16 6.05.88 10.49-.55.86-1.16 1.82-1.8 2.8-5.14-5.46-6.51-7.87-1.43-17.02zM184.65 506.5c-2.05 1-3.62.5-5.85-1.8-1.85-1.93-2.16-6.4-.65-9.28a6.486 6.486 0 0 1 7-3.29 22.09 22.09 0 0 1-1.77 2.07c-3.55 3.23-3.7 6.36-.43 9.77a21.782 21.782 0 0 1 1.56 1.78c.19.17.12.49.14.75zm144.28-321.22c-.26 3.4-2.71 4.86-4.63 6.34-2.25 1.73-5 2.78-7.6 4.07-1 .51-2.27.73-2.61-.6-.2-.8.5-1.83.85-2.74.08-.2.39-.35.62-.46l13.37-6.61zm47.14 330.91c.84-3.48 3.7-5.38 5.79-7.86 2.09-2.48 3.86-5.06 6-7.92a6.533 6.533 0 0 1-1.33 7c-3.09 3.29-5.53 7.5-10.46 8.78zm-3.73 20.02c-2.36-1.77-2.87-4.15-2.84-6.66.082-1.582.3-3.154.65-4.7.56-3 1.54-3.5 5.42-2.64-3.43 2.57-2.61 6-2.33 9.33.12 1.46 1.2 3.1-.9 4.67zM485.07 124.1a12.002 12.002 0 0 1 8.13 13.12 8.22 8.22 0 0 1-1.72-1.28c-1.94-2.61-3.73-5.34-5.75-7.88-.96-1.2-2.01-2.14-.66-3.96zm-90.5 34.14c-1.7.54-3.35 1.62-5.29.47.05-.35 0-.87.18-1.06 2.69-2.49 5.37-5 8.18-7.32.65-.54 1.81-.46 3.22-.77-.91 4.43-4.55 6-6.42 8.81l.13-.13zm-5.17 435.95c.7-3.25 1.62-6.47.62-9.86-.27-.91.54-2.14.91-3.45.78.3 1.55.37 1.64.67a17.252 17.252 0 0 1 .39 10.79c-.66 2.04-.96 2.14-3.56 1.85zm81.43-409.41a13.273 13.273 0 0 1-.72 3.62 54.653 54.653 0 0 1-3.88 6.32c-.36.52-1.55 1-1.93.82a4.002 4.002 0 0 1-1.38-2.07 1.788 1.788 0 0 1 .41-1.45c2.12-2.57 4.3-5.09 6.47-7.63l1.03.39zM441 118.35c-.3.928-.728 1.81-1.27 2.62a2.791 2.791 0 0 1-3.9.58c-1.32-.86-2.05-2.42-1.14-3.74a9.87 9.87 0 0 1 3.78-3.14c1.4-.67 2.53.91 2.53 3.68zm-113.89 5.15-.3.17a2.07 2.07 0 0 1-3.15.1 26.7 26.7 0 0 1-3.49-4.23 2.512 2.512 0 0 1 .29-2.14 1.842 1.842 0 0 1 1.69-.49c1.94 1.67 3.77 3.47 5.57 5.3.11.12-.39.85-.61 1.29zm35.11 272.16c-2.74-5.7-6.06-2.36-9.23-1.46 2.1-2.87 5.44-3.94 8.28-2.81 1.73.7 1.96 1.84.95 4.27zm132.21-291.59c-3 1.79-7.15-1.23-8.55-6.33l8.55 6.33z" fill="#174f78" stroke="#174f78" stroke-width="3" stroke-miterlimit="10"/><path d="M417.53 348.36c-1.29 1.94-2.86 3.67-4.33 5.74a11.167 11.167 0 0 0-1.74 3.71 7.096 7.096 0 0 0 .64 4.84 14.429 14.429 0 0 0 2.58 3.31 9.421 9.421 0 0 1 2.85 6.65l.09-.34-.47 3a3.371 3.371 0 0 1-.59 1.91c-.61.87-2.44.86-4.05.29a2.515 2.515 0 0 0-2-1.47 3.302 3.302 0 0 0-2.73 1 3.123 3.123 0 0 0-.73 2.86 13.8 13.8 0 0 0 .43 2.11 6.578 6.578 0 0 0 8.32 4.92 14.743 14.743 0 0 0 7.73-5.21 16.603 16.603 0 0 0 2.47-4.05 19.988 19.988 0 0 0 1.3-4.47 15.173 15.173 0 0 0-1.62-9.6 13.586 13.586 0 0 0-3.15-3.59 13.96 13.96 0 0 1-1.81-1.67c-.93-.85-.87-3.3 0-5.66l.72-1.76a2.363 2.363 0 0 0-1.606-3.583 2.36 2.36 0 0 0-2.394 1.073l.09-.01zM299 444.14c-1.28 1.95-2.85 3.68-4.32 5.74a11.005 11.005 0 0 0-1.74 3.72 7.056 7.056 0 0 0 .64 4.83 14.262 14.262 0 0 0 2.58 3.32 9.726 9.726 0 0 1 1.53 1.94 9.423 9.423 0 0 1 1.32 4.7l.09-.34-.47 3A3.482 3.482 0 0 1 298 473c-.61.86-2.44.85-4.05.28a2.549 2.549 0 0 0-2-1.46 3.208 3.208 0 0 0-2.72 1 3.126 3.126 0 0 0-.74 2.85c.096.712.24 1.417.43 2.11a6.57 6.57 0 0 0 5.64 5.16c.903.11 1.819.032 2.69-.23a14.689 14.689 0 0 0 7.72-5.22 16.312 16.312 0 0 0 2.47-4 19.65 19.65 0 0 0 1.31-4.48 15.255 15.255 0 0 0-1.62-9.6 13.364 13.364 0 0 0-3.15-3.58 13.193 13.193 0 0 1-1.81-1.67c-.94-.85-.88-3.3 0-5.66l.71-1.77a2.377 2.377 0 0 0 0-2.53 2.445 2.445 0 0 0-.85-.711 2.46 2.46 0 0 0-3.03.651zM326 307c.439.034.881.034 1.32 0a6.294 6.294 0 0 0 2.76-1 7.486 7.486 0 0 0 3.16-5.09c.226-1.551.242-3.125.05-4.68l-.13-3c0-.37 0-.6-.06-.58-.06.02-.37.31-.58.28a.099.099 0 0 1-.089-.055.101.101 0 0 1-.011-.054.107.107 0 0 1 .02-.051c-.26 0-.4-.17-.31-.24.409-.152.851-.19 1.28-.11.639.063 1.274.167 1.9.31a3.15 3.15 0 0 0 3.13-.41 2.708 2.708 0 0 0 .553-3.386 2.7 2.7 0 0 0-.843-.894 39.383 39.383 0 0 1-3.26-2.22 10.007 10.007 0 0 0-4.24-1.93 6.546 6.546 0 0 0-5.32 1.68 7.069 7.069 0 0 0-2.2 5.11c-.005.392.022.783.08 1.17.044.433.111.864.2 1.29.23.75.48 1.31.72 1.93a13.594 13.594 0 0 1 1 3.58 4.658 4.658 0 0 1 0 1.64v.08H325a3.367 3.367 0 0 0-.73.25 3.516 3.516 0 0 0-1.78 2.52 3.256 3.256 0 0 0 1.46 3.4 3.88 3.88 0 0 0 2.05.46zm2.25 24.54a2.701 2.701 0 0 0 2.59-3.24c-.68-2.29-1-5.12-3.28-7.56a7.85 7.85 0 0 0-8.86-1.7c-2.91 1.25-4.52 3.81-6.18 5.62a34.298 34.298 0 0 1-2.63 2.64 18.58 18.58 0 0 1-1.42 1.21 3.527 3.527 0 0 0-1.06 3.22 4.099 4.099 0 0 0 2.22 2.95 3.888 3.888 0 0 0 2.37.32 4.358 4.358 0 0 0 2.14-1.09l2.74-2.4a13.087 13.087 0 0 1 4.35-2.58 7.291 7.291 0 0 1 1.43-.33 2.495 2.495 0 0 1 1.77.27c.457.237.852.58 1.15 1a2.907 2.907 0 0 0 2.67 1.67zM323 360.29a3.673 3.673 0 0 0 2.61-.14 4.283 4.283 0 0 0 2-2 4 4 0 0 0 0-3.46 4.51 4.51 0 0 0-3.22-2.37c0-.09.24-.09.4-.05.35.13.42.16.51.05.09-.11.12-.15.3-.55.33-.77 1.35-2 2.2-4a4.224 4.224 0 0 0 .92-2.61 3.44 3.44 0 0 0-.91-2.14 3.003 3.003 0 0 0-1.72-1 2.144 2.144 0 0 0-1.67.52c-1.41 1.22-3.51 1.51-5.64 2.51a6.315 6.315 0 0 0-3.58 6.14c.22 2.74 2.05 4.72 3.52 6.24a12.393 12.393 0 0 0 2.6 2.08c.535.31 1.098.571 1.68.78zm29.13-53.41a3.764 3.764 0 0 0-3.1 0 2.863 2.863 0 0 0-1.42 2 3.14 3.14 0 0 0 1.24 3.18 1.833 1.833 0 0 1 .66 2.17 3.999 3.999 0 0 1-1.56 1.84 8.114 8.114 0 0 0-3.17 2.92l-.7 1.19-.35.65-.19.34c-.14.2-.28.4-.4.61-.269.451-.42.962-.44 1.486a3.128 3.128 0 0 0 .33 1.514 3.727 3.727 0 0 0 3.79 1.85 4.836 4.836 0 0 0 1.75-.83c.8-.5 1.71-.9 2.64-1.36a10.465 10.465 0 0 0 5-4.45 10.092 10.092 0 0 0 1.26-7.58 8.735 8.735 0 0 0-1.94-3.64 6.666 6.666 0 0 0-3.4-1.89zM340.43 384a8.38 8.38 0 0 0 4.5 4.28c.481.19.976.344 1.48.46a3.3 3.3 0 0 0 1.91-.16c.523-.216.984-.56 1.34-1 .27-.27.53-.57.82-.83l.86-.8a3.14 3.14 0 0 0 .93-1.7 3.343 3.343 0 0 0-1.88-3.34.418.418 0 0 0-.1 0c.07-.07.12-.14.2-.21.73-.7 1.62-1.47 2.51-2.37.493-.474.961-.975 1.4-1.5a9.431 9.431 0 0 0 1.63-2.44 7.318 7.318 0 0 0-.07-6.1 8.285 8.285 0 0 0-3.47-3.66 12.573 12.573 0 0 0-2-1 4.425 4.425 0 0 0-1.46-.38 2.24 2.24 0 0 0-1.48.57 2.718 2.718 0 0 0-.901 2.13 2.706 2.706 0 0 0 1.071 2.05c1.26.76 1.82 2.64.78 3.22a6.694 6.694 0 0 1-1.84.68c-.881.308-1.725.711-2.52 1.2a9.001 9.001 0 0 0-3.85 4.48 8.27 8.27 0 0 0 .14 6.42zm55.19-20.13a9.439 9.439 0 0 0-.7-1.76 3.847 3.847 0 0 0-1.93-1.75c-3.15-1.15-5.21 1.62-4.7 3.14.27 1.34-1.18 2.54-2.42 2.63-1.24.09-1.61.07-2.16.75.1.13-.86.42-1.53 1.09a3.538 3.538 0 0 0-1.09 2.37 4.005 4.005 0 0 0 1.63 3.21 3.8 3.8 0 0 0 3 .72c.78-.06 1.62-.07 2.51-.18a7.45 7.45 0 0 0 4.84-2.36 8.861 8.861 0 0 0 2.68-5 7.864 7.864 0 0 0-.13-2.86zm-36.91 165.99a9.656 9.656 0 0 0-.7-1.75 3.773 3.773 0 0 0-1.93-1.75c-3.15-1.15-5.21 1.62-4.7 3.13.28 1.34-1.18 2.55-2.42 2.64-1.24.09-1.61.07-2.16.75.1.13-.86.42-1.53 1.09a3.538 3.538 0 0 0-1.09 2.37 4.005 4.005 0 0 0 1.63 3.21 3.803 3.803 0 0 0 3 .71c.78 0 1.62-.06 2.51-.17a7.547 7.547 0 0 0 4.84-2.36 8.861 8.861 0 0 0 2.68-5 7.918 7.918 0 0 0-.13-2.87zm36.47-62.54a9.656 9.656 0 0 0-.7-1.75 3.777 3.777 0 0 0-1.92-1.75c-3.16-1.15-5.22 1.62-4.71 3.13.28 1.34-1.18 2.55-2.41 2.64-1.23.09-1.62.07-2.17.75.1.13-.86.42-1.53 1.09a3.538 3.538 0 0 0-1.09 2.37 4.005 4.005 0 0 0 1.63 3.21 3.8 3.8 0 0 0 3 .71c.79-.05 1.63-.06 2.51-.17a7.564 7.564 0 0 0 4.85-2.36 8.784 8.784 0 0 0 2.67-5 7.497 7.497 0 0 0-.13-2.87zm-35.95 76.93a9.77 9.77 0 0 0-.75 1.74 3.848 3.848 0 0 0 .13 2.6c1.42 3 4.83 2.54 5.54 1.11.75-1.15 2.64-1 3.57-.16.93.84 1.19 1.09 2.06 1 0-.17.91.31 1.86.31.9.022 1.774-.304 2.44-.91a3.992 3.992 0 0 0 1.12-3.42 3.788 3.788 0 0 0-1.61-2.61c-.59-.52-1.19-1.11-1.9-1.66a7.503 7.503 0 0 0-5.09-1.75 8.82 8.82 0 0 0-5.4 1.61 7.718 7.718 0 0 0-1.97 2.14zm12.27-157.76c-.2 1.26-1.5 2.26-2.54 3.65a4.123 4.123 0 0 0-.21 4.81c1 1.64 3 2.37 4.2 3.06a3.994 3.994 0 0 0 3.061.613 4.013 4.013 0 0 0 1.465-.625 4.012 4.012 0 0 0 1.104-1.148 3.367 3.367 0 0 0 .37-2.39 4.768 4.768 0 0 0-1.05-2.07.752.752 0 0 1 .15-.58 3.265 3.265 0 0 0 .47-1.73c.032-.566.032-1.134 0-1.7v-1a5.246 5.246 0 0 0-.3-1.32 3.662 3.662 0 0 0-1.75-2 3.588 3.588 0 0 0-3.58.25 3.34 3.34 0 0 0-1.39 2.18zm62.76 29.9a.554.554 0 0 0 .28-.06l-.21-.05-.07.11zM392.4 340.7a1.121 1.121 0 0 1-.58.09c-.12-.19 0 .46 0 .72.084.384.222.755.41 1.1a3.887 3.887 0 0 0 4.31 1.78 4.084 4.084 0 0 0 2.442-2.154 4.072 4.072 0 0 0 .088-3.256c-.52-1.22-.8-2.46-1.44-3.94a5.69 5.69 0 0 0-3.58-3.2 6.55 6.55 0 0 0-5.35.32 6 6 0 0 0-1.17.85 5.307 5.307 0 0 0-1.3 1.66 3.761 3.761 0 0 0 .44 4 3.8 3.8 0 0 0 2.8 1.45 3.001 3.001 0 0 0 2.12-.81.778.778 0 0 1 .634-.189.791.791 0 0 1 .556.359.853.853 0 0 1-.38 1.22zm11.03 88.3a4.21 4.21 0 0 0 1.62-2.27c.37-1.19 1-2.22 1.56-3.68a5.448 5.448 0 0 0-.36-4.63 6.49 6.49 0 0 0-3.8-3.33 6.41 6.41 0 0 0-1.48-.25 4.694 4.694 0 0 0-2.28.38 3.626 3.626 0 0 0-2.22 3.43 3.845 3.845 0 0 0 1.3 2.74 4.098 4.098 0 0 0 2 .85.621.621 0 0 1 .509.373.628.628 0 0 1-.069.627.94.94 0 0 1-1.48.14c-.08-.08-.4.36-.57.55a3.621 3.621 0 0 0-.61 2.18 3.828 3.828 0 0 0 2.49 3.38 3.987 3.987 0 0 0 1.75.136 3.988 3.988 0 0 0 1.64-.626zm-29.15 69.76a4.109 4.109 0 0 0 1.62-2.26c.38-1.2 1-2.22 1.56-3.68a5.408 5.408 0 0 0-.36-4.63 6.563 6.563 0 0 0-1.559-2.051 6.554 6.554 0 0 0-2.231-1.289 7.347 7.347 0 0 0-1.48-.24 4.592 4.592 0 0 0-2.29.37 3.644 3.644 0 0 0-2.22 3.43 3.812 3.812 0 0 0 1.3 2.74 3.998 3.998 0 0 0 1.95.85.646.646 0 0 1 .501.377.646.646 0 0 1-.061.623 1 1 0 0 1-1.23.33 1.101 1.101 0 0 1-.25-.19c-.08-.08-.4.36-.57.55a3.606 3.606 0 0 0-.61 2.18 3.839 3.839 0 0 0 2.49 3.38 3.922 3.922 0 0 0 3.44-.49zm26.64-99.52a8.2 8.2 0 0 0-1.18-3.11 5.251 5.251 0 0 0-1.11-1.19 4.941 4.941 0 0 0-2.22-1.35 3.341 3.341 0 0 0-3.87 1.72 2.8 2.8 0 0 0 .11 3 2.162 2.162 0 0 1-.457 2.791c-.264.22-.577.374-.913.449-1.24.16-1.22-.17-1.84.44a4.602 4.602 0 0 0-2.44 1.47 3.865 3.865 0 0 0-.82 2.43 3.735 3.735 0 0 0 2.18 3.41 3.5 3.5 0 0 0 1.75.18c.42-.07.85 0 1.29-.1a22.149 22.149 0 0 0 2.79-.31c4.1-.57 7.41-5.27 6.73-9.83zm-25.01-63.47a7.066 7.066 0 0 0 2-3.35 3.253 3.253 0 0 0-.49-2.63 3.862 3.862 0 0 0-2.39-1.56 3.634 3.634 0 0 0-2.67.53l-.21-.22-.89-1c-.11-.14-.48-.49-.69-.69a9.738 9.738 0 0 0-.75-.64 8.997 8.997 0 0 0-11.41.07 5.812 5.812 0 0 1-.67.44 3.871 3.871 0 0 0-1.33.81 3.204 3.204 0 0 0-.95 2.47c0 1.55 1.43 2.82 2.69 2.54a11.069 11.069 0 0 1 3.2 0c.93.074 1.797.495 2.43 1.18a6.475 6.475 0 0 0 1.1 1.71 8.182 8.182 0 0 0 3 2.12 7.995 7.995 0 0 0 8.03-1.78zm-5.23-5a1.64 1.64 0 0 1 .48-.77h.06a5.014 5.014 0 0 0-.55 1.11.472.472 0 0 1 .01-.39v.05zm-69.16 57.64a6.996 6.996 0 0 0 2-3.35 3.27 3.27 0 0 0-.48-2.62 3.943 3.943 0 0 0-2.39-1.57 3.672 3.672 0 0 0-2.67.53l-.22-.22-.89-1a9.034 9.034 0 0 0-.69-.68 9.866 9.866 0 0 0-.75-.65A9.001 9.001 0 0 0 284 379c-.24.15-.37.28-.67.44a3.914 3.914 0 0 0-1.34.81 3.204 3.204 0 0 0-.95 2.47 2.511 2.511 0 0 0 2.7 2.54 11 11 0 0 1 3.19 0 3.745 3.745 0 0 1 2.44 1.18 6.25 6.25 0 0 0 1.09 1.71 8.39 8.39 0 0 0 3 2.13 7.993 7.993 0 0 0 8.06-1.87zm-5.23-5.05c.087-.298.257-.565.49-.77h.06c-.235.346-.42.723-.55 1.12a.502.502 0 0 1 0-.35zm75.56-20.2a12.365 12.365 0 0 0 3.7-2.61 11.29 11.29 0 0 0 3.64-7.88l-.06-1.22a4.003 4.003 0 0 0-.95-1.88 4.338 4.338 0 0 0-4.18-1.27 4.506 4.506 0 0 0-3.48 3.47 5.388 5.388 0 0 0 .08 2.38c0 .09 0 .18-.06.2-.06.02-.12-.33-.21-.32a1.529 1.529 0 0 0-.48-.06 2.002 2.002 0 0 1-1-.45 5.404 5.404 0 0 1-1.44-1.93 6.852 6.852 0 0 1-.56-1.56 3.229 3.229 0 0 0-1.39-2.75c-1.65-1-3.72-.1-4 1.46-.41 2.46-1.4 5.06-1.07 8.27a7.82 7.82 0 0 0 6.61 6.79 8.997 8.997 0 0 0 4.85-.64zm-10.5-108.29a2.388 2.388 0 0 1 1-.29c.23 0 .28 0 .31-.05.03-.05-.06-.11-.18-.2a8.261 8.261 0 0 0-1.12-.63 5.835 5.835 0 0 0-1.61-.5 29.464 29.464 0 0 0-3.11-.29 3.57 3.57 0 0 0-2.76.49 3.793 3.793 0 0 0-1.42 1.89 3.004 3.004 0 0 0 .11 2.36 3.936 3.936 0 0 0 1.6 1.44c.851.555 1.654 1.18 2.4 1.87.78.68 1.54 1.43 2.36 2a6.519 6.519 0 0 0 3.95 1.47 7.703 7.703 0 0 0 4.95-1.93 10.127 10.127 0 0 0 2.48-3.12 9.999 9.999 0 0 0 1.11-6.64 4.264 4.264 0 0 1-.06-.45c0-.27 0-.53-.06-.77a3.547 3.547 0 0 0-.62-1.48 2.999 2.999 0 0 0-2.28-1.16 2.771 2.771 0 0 0-2.91 2 6.908 6.908 0 0 1-1.49 2.52 8.206 8.206 0 0 1-2.36 1.77c-.28.16-.98.3-.29-.3zm-5.06 19.72v-.08a.072.072 0 0 0 0 .05v.03z" fill="#174f78"/><path d="M349.83 284.7a3.45 3.45 0 0 0 2.09.19 15.206 15.206 0 0 0 1.59-.37 6.222 6.222 0 0 0 3.05-1.86 5.55 5.55 0 0 0 1.125-2.153c.21-.792.243-1.621.095-2.427a9.35 9.35 0 0 0-1.49-3.49v-.06c-.17-.43 0-.16 0 0a8.964 8.964 0 0 1-.07-1.36c0-.32 0-.69-.08-1.1a3.721 3.721 0 0 0-.08-.64c.07-.471.07-.949 0-1.42-1-4.06-5.52-3.37-5.89-1.35-.49 1.56-2.06 2.67-3.26 4.51a5.43 5.43 0 0 0 .54 6.62c.15.215.34.398.56.54a2.704 2.704 0 0 0-.31 1.46 3.646 3.646 0 0 0 2.13 2.91zm-.75-6.18c.21-.14.32-.14.35-.1.03.04-.45.49-.92 1a.801.801 0 0 1 0-.12c.108-.311.306-.583.57-.78zm-3.35-48.83a3.452 3.452 0 0 0 2.09.2c.63-.15 1.05-.2 1.59-.38a6.311 6.311 0 0 0 3-1.85 5.604 5.604 0 0 0 1.22-4.59 9.35 9.35 0 0 0-1.49-3.49v-.06c-.17-.42 0-.16 0 0a8.962 8.962 0 0 1-.07-1.35A9.53 9.53 0 0 0 352 217a3.821 3.821 0 0 0-.07-.64 5.195 5.195 0 0 0 0-1.42c-1-4.06-5.52-3.37-5.89-1.35-.49 1.56-2.06 2.67-3.27 4.51a5.453 5.453 0 0 0 .55 6.62c.15.215.34.398.56.54a2.704 2.704 0 0 0-.31 1.46 3.648 3.648 0 0 0 2.16 2.97zm-.75-6.18c.2-.14.32-.13.34-.1.06.19-.44.49-.91 1a.801.801 0 0 1 0-.12 1.58 1.58 0 0 1 .59-.78h-.02zm64.1 80.02a3.112 3.112 0 0 0 1.17 2 3.066 3.066 0 0 0 3.29.39 1.669 1.669 0 0 1 2.12.28 10.98 10.98 0 0 1 1.11 2.35 4.935 4.935 0 0 0 2.88 2.57 5.403 5.403 0 0 0 4.28-.38 8.6 8.6 0 0 0 1.9-1.59c.092-.095.193-.182.3-.26.14-.06.09-.15.61-.14a3.222 3.222 0 0 0 2.18-.89 3.415 3.415 0 0 0 .63-3.93 3.564 3.564 0 0 0-1.7-1.54 8.596 8.596 0 0 0-1.7-.63 9.66 9.66 0 0 0-3.28-.24l-.31-.42c-.468-.53-.991-1.01-1.56-1.43a8.281 8.281 0 0 0-3.75-1.55 7.378 7.378 0 0 0-7 2.56 3.492 3.492 0 0 0-1.17 2.85zm13.4-2c-.55.09-.89.16-.94.08-.05-.08.51-.12.94-.04v-.04zm44.6 8.98a5.096 5.096 0 0 1-3.67 3.45c-.43.081-.874.025-1.27-.16a5.238 5.238 0 0 0-1.18.07c-.33 0-.73.07-1.16.08h-.68a4.497 4.497 0 0 0-1.38 0 3.773 3.773 0 0 0-3.15 3.21c-.068.388-.053.787.044 1.169a2.8 2.8 0 0 0 .516 1.051c.448.44.969.798 1.54 1.06.82.46 1.61 1.05 2.53 1.6a7.938 7.938 0 0 0 7.11.89 10.227 10.227 0 0 0 5.67-4.76 9.344 9.344 0 0 0 1.1-6.23 3.503 3.503 0 0 0-.219-1.57 3.505 3.505 0 0 0-.891-1.31 3.15 3.15 0 0 0-2.819-.537 3.171 3.171 0 0 0-2.091 1.967v.02zm-57.21-82.7c.794.368 1.63.637 2.49.8l.51.13h.13c-.025.239-.025.48 0 .72a3.403 3.403 0 0 0 2.84 2.36 3.499 3.499 0 0 0 2.07-.33 5.014 5.014 0 0 0 1.58-1.36 5.314 5.314 0 0 0 1.09-4 7 7 0 0 0-1.7-3.6 9.037 9.037 0 0 0-.67-.7l-.46-.47a4.28 4.28 0 0 1-.56-.65c-.11-.3.14.09 0-.15a8.172 8.172 0 0 1-.4-1.37c-.08-.32-.21-.69-.35-1.08l-.22-.66a4.652 4.652 0 0 0-.44-1.37c-2.12-3.57-6.17-1.71-6 .3-.08 1.63-1.34 3.07-2.06 5.12a5.4 5.4 0 0 0 2.15 6.31zm3.31-.42v.13l-.08.25a2.007 2.007 0 0 0-.09.51 2.409 2.409 0 0 1 0-.55c.039-.121.097-.236.17-.34zm-41.86-6.06-.11-.06a1.997 1.997 0 0 0-1.3-.35 3.767 3.767 0 0 0-1.53.29 3.379 3.379 0 0 0-2 2.09c-.027.209-.099.41-.21.59a4.52 4.52 0 0 0-.22 2.86c.22 1 .77 2 1.05 3a4.003 4.003 0 0 0 2.82 3.34 3.247 3.247 0 0 0 2.53-.22c.94-.45 1.46-1.8 1.68-2.19.373-.53.698-1.092.97-1.68a3.754 3.754 0 0 0 1.74-1.25 3.28 3.28 0 0 0-.52-4.48 3.194 3.194 0 0 0-.27-.79 3.38 3.38 0 0 0-4.63-1.15zm-3.08-28.07a.38.38 0 0 1-.11-.06 1.997 1.997 0 0 0-1.3-.35 3.767 3.767 0 0 0-1.53.29 3.665 3.665 0 0 0-1.41 1.06 3.513 3.513 0 0 0-.55 1 1.681 1.681 0 0 1-.21.59c-.383.9-.46 1.901-.22 2.85.22 1 .77 2 1.05 3a4.003 4.003 0 0 0 2.82 3.34 3.196 3.196 0 0 0 2.53-.22c.94-.45 1.47-1.79 1.68-2.19.36-.531.671-1.094.93-1.68a3.86 3.86 0 0 0 1.74-1.26 3.288 3.288 0 0 0-.52-4.48 3.126 3.126 0 0 0-3.449-2.5 3.128 3.128 0 0 0-1.441.56l-.01.05zm43.59-39.77a1.138 1.138 0 0 1-.11-.07 2.062 2.062 0 0 0-1.3-.35 3.793 3.793 0 0 0-1.53.3 3.538 3.538 0 0 0-1.41 1.05c-.235.302-.42.64-.55 1-.027.209-.099.41-.21.59a4.507 4.507 0 0 0-.22 2.86c.22 1 .77 2 1.05 3a4.003 4.003 0 0 0 2.82 3.34 3.196 3.196 0 0 0 2.53-.22c.94-.45 1.46-1.79 1.68-2.18.358-.536.669-1.101.93-1.69a3.837 3.837 0 0 0 1.74-1.25 3.303 3.303 0 0 0-.17-4.15 2.73 2.73 0 0 0-.35-.33 3.063 3.063 0 0 0-.27-.79 3.378 3.378 0 0 0-4.63-1.11zm25.54 153.02a7.78 7.78 0 0 0-1.41 3.18 5.166 5.166 0 0 0 0 1.71 4.53 4.53 0 0 0 .84 2.5c2.59 3 5.92.77 5.84-1a1.539 1.539 0 0 1 1.23-1.41c.72-.14.95.43 1.48.84a3.799 3.799 0 0 0 3.42.3 4.793 4.793 0 0 0 2.7-2.42c.4-.85.23-1.28.55-2a3.795 3.795 0 0 0 .36-3.88 3.147 3.147 0 0 0-2.88-2.06 7.867 7.867 0 0 0-3.09 1.26c-.7.41-1.5.65-1.58.41.3-.39 0-.37-.94-.49a7.85 7.85 0 0 0-6.51 3.06h-.01zm-42.7-40.23c-.593.041-1.187.041-1.78 0a5.573 5.573 0 0 0-3.71 1.15 6.61 6.61 0 0 0-2.54 3.07 5.238 5.238 0 0 0 0 3.87 3.589 3.589 0 0 0 2.89 2.1 3.82 3.82 0 0 0 2.82-.76 4.007 4.007 0 0 0 1.1-1.72c.26-.91 1.75-1.15 2.73-.71.323.153.657.28 1 .38h.08c.137-.047.271-.104.4-.17.282-.133.545-.305.78-.51a3.563 3.563 0 0 0 .64-4.78 5.08 5.08 0 0 0-2-1.74 3.838 3.838 0 0 0-2.41-.18zm105.21 59.06c-.301.508-.635.995-1 1.46a5.562 5.562 0 0 0-1.25 3.67 6.688 6.688 0 0 0 1 3.87 5.239 5.239 0 0 0 3.14 2.26 3.595 3.595 0 0 0 3.39-1.1 3.469 3.469 0 0 0 .29-4.63c-.58-.74.1-2.1 1-2.64.321-.173.625-.374.91-.6l.05-.07c.04-.138.07-.278.09-.42.063-.306.079-.619.05-.93a3.569 3.569 0 0 0-3.49-3.33 4.999 4.999 0 0 0-2.61.63 3.786 3.786 0 0 0-1.57 1.83zm3.48 32.99a13.85 13.85 0 0 1 1-1.46 5.569 5.569 0 0 0 1.25-3.68 6.576 6.576 0 0 0-1-3.86 5.186 5.186 0 0 0-3.13-2.27 3.608 3.608 0 0 0-3.4 1.11 3.852 3.852 0 0 0-1 2.73c.078.686.333 1.341.74 1.9.59.74-.09 2.09-1 2.63a5.646 5.646 0 0 0-.92.61v.07a2.754 2.754 0 0 0-.1.41c-.04.308-.04.621 0 .93.043.652.261 1.28.63 1.82a3.598 3.598 0 0 0 2.86 1.51 5.002 5.002 0 0 0 2.6-.63 3.843 3.843 0 0 0 1.47-1.82zM458 221.46a3.554 3.554 0 0 0-1.29 2.48c0 1.45-.6 3.3-.39 5.33a5.001 5.001 0 0 0 2.74 4.18c1.45.73 3.29.77 4.45 1.56a3.435 3.435 0 0 0 3.17.8 3.762 3.762 0 0 0 2.69-2.69 3.83 3.83 0 0 0-.32-2.5c-.51-.9-.52-1-.73-1.39a15.943 15.943 0 0 0-1.2-1.85c-.43-.59-.84-1.18-1.3-1.74a12.203 12.203 0 0 0-1.29-1.38c-.34-.3-.4-.3-.55-.14-.09 0-.26.24-.44-.11a4.065 4.065 0 0 0-1.4-2.64 3.198 3.198 0 0 0-4.14.09zm-10.13-37.07a3.578 3.578 0 0 0-1.29 2.48c0 1.44-.59 3.29-.38 5.33a5.004 5.004 0 0 0 2.74 4.17c1.45.73 3.29.77 4.45 1.56a3.435 3.435 0 0 0 3.17.8 3.775 3.775 0 0 0 2.69-2.68 3.92 3.92 0 0 0-.32-2.51c-.52-.9-.52-1-.73-1.39a14.556 14.556 0 0 0-1.21-1.84c-.42-.59-.84-1.19-1.29-1.75-.4-.488-.83-.949-1.29-1.38-.34-.29-.4-.3-.56-.14-.08 0-.25.24-.43-.11a4 4 0 0 0-1.4-2.63 3.193 3.193 0 0 0-4.15.09zm9.95 77.01s0-.06 0 0 0 .11 0 0l.05-.32.09-.62a7.742 7.742 0 0 0-.29-3.56 8.075 8.075 0 0 0-9-5.59 3.488 3.488 0 0 0-2.9 1.11 2.993 2.993 0 0 0-.62 2.29 3.124 3.124 0 0 0 2.05 2.62 2.866 2.866 0 0 1 1.9 1.67 2.531 2.531 0 0 1-.25 2.13c-.68.74-1.32 3.63.43 6.05a6.634 6.634 0 0 0 7.2 2.22c2.17 0 5.22-4.07 1.32-6.64a3.011 3.011 0 0 0 0-.38c.05-.38-.02-.73.02-.98zm-2.42 1.07s-.13 0 0 0l.34-.11a1.99 1.99 0 0 1 .68 0c.296.03.585.114.85.25h.06a4.09 4.09 0 0 0-1.18-.22 6.296 6.296 0 0 0-.75.08zm-21.69-36.16c-.57 1.62-1.51 3.8-1.08 6.33a8.566 8.566 0 0 0 1.12 2.9c.37.66.29.53.51.39.315.492.513 1.049.58 1.63.07.31 0 .57.15.66-.22.25-1.11 1-1.24 1.77a3.371 3.371 0 0 0 1.62 3.62c.664.398 1.443.56 2.21.46a7.24 7.24 0 0 0 1.95-.6 8.38 8.38 0 0 0 4.35-5.58 9.658 9.658 0 0 0 .37-3.86 8.35 8.35 0 0 0-1.52-3.76c-2-2.37-2.58-2.61-3.28-1.78-.17-4.49-5.33-4.49-5.74-2.18zm-15.66-17.46a4.217 4.217 0 0 0 1.92 4.56c1.55 1 3.52.82 4.88 1.1.35.09.7.13 1 .25.481.152.988.203 1.49.15a3.761 3.761 0 0 0 2.81-2 3.828 3.828 0 0 0-.53-4.3 5.217 5.217 0 0 0-1.91-1.29c-.09-.12-.17-.2-.24-.31-.28-.45-.31-.92-.48-1.09-.17-.17-.22-.16-.4-.3 0 0-.07 0-.09-.1l-.09-.63a4.757 4.757 0 0 0-.44-1.19 3.58 3.58 0 0 0-1.71-1.63 3.817 3.817 0 0 0-3.52.12 2.627 2.627 0 0 0-1.34 2.22c.02 1.24-.95 2.59-1.35 4.44zM395 198.57a3.403 3.403 0 0 0-1.393 1.334 3.4 3.4 0 0 0-.447 1.876 3.493 3.493 0 0 0 1 2.38c1 .89.22 2.61-.86 3.07-.48.28-.91.39-1.11.55a.647.647 0 0 0-.24.28c0 .06-.07.1-.07.18-.229.289-.44.593-.63.91a3.996 3.996 0 0 0-.38 2.81 3.554 3.554 0 0 0 1.33 1.92 4.309 4.309 0 0 0 3.35.69 3.904 3.904 0 0 0 1.42-.63c.41-.31.6-.5.95-.73.59-.48 1.3-.92 1.95-1.51a7.004 7.004 0 0 0 2.52-4.67 8.437 8.437 0 0 0-.86-5.44 7.534 7.534 0 0 0-1.83-2.14 6.593 6.593 0 0 0-1.93-1.07 3.526 3.526 0 0 0-2.77.19zm20.82-19.44a4.26 4.26 0 0 0-.59-1.3 3.45 3.45 0 0 0-3.93-1.42 2.666 2.666 0 0 0-1.344.806 2.668 2.668 0 0 0-.656 1.424c-.19 1.51-.83 3.39-1.12 5.29a8.98 8.98 0 0 0-.1 1.17c.16-.25.3-.25.3-.11-.06.306-.198.592-.4.83v.06a7.574 7.574 0 0 1-.63.81 3.744 3.744 0 0 0-1.26 2 3.14 3.14 0 0 0 .32 2 3.746 3.746 0 0 0 2.77 2.05 5.706 5.706 0 0 0 1.79-.15l1.32-.23a6.715 6.715 0 0 0 5.18-3.83 7.745 7.745 0 0 0 .75-3.9 8.884 8.884 0 0 0-.83-3 6.716 6.716 0 0 0-.87-1.43.899.899 0 0 0-.47-.19c0-.07-.11.11-.12-.18a4.032 4.032 0 0 0-.11-.7z" fill="#174f78"/><path d="M408.1 185.27v-.17c-.2.28-.16.75-.11.73.079-.176.117-.367.11-.56zm20.48 72.52a6.992 6.992 0 0 0-2.17 1.83l-.58.83a5.23 5.23 0 0 0-.52 1.29 3.61 3.61 0 0 0 .4 2.73 3.49 3.49 0 0 0 3.24 1.61 3.621 3.621 0 0 0 2.3-1 1.271 1.271 0 0 1 1.58-.16 1.43 1.43 0 0 1 .63 1.42c-.045.302-.189.58-.41.79l.08.23c.156.394.371.762.64 1.09a3.992 3.992 0 0 0 3.1 1.472 3.993 3.993 0 0 0 3.1-1.472 3.419 3.419 0 0 0 .57-3.58c-.75-1.4-1.09-2.68-1.91-4.29-1.52-3.35-6.58-4.68-10.05-2.79zM488 296.62a6.927 6.927 0 0 0-2.17 1.84l-.58.82a5.324 5.324 0 0 0-.52 1.29 3.545 3.545 0 0 0 .41 2.73 3.495 3.495 0 0 0 3.23 1.62 3.621 3.621 0 0 0 2.3-1 1.284 1.284 0 0 1 1.58-.17 1.43 1.43 0 0 1 .63 1.42c-.045.302-.189.58-.41.79l.08.22c.154.395.37.763.64 1.09a4.1 4.1 0 0 0 2.22 1.42 3.998 3.998 0 0 0 4-1.38 3.413 3.413 0 0 0 .57-3.57c-.75-1.41-1.09-2.69-1.91-4.3-1.51-3.37-6.57-4.71-10.07-2.82zm-143-55.98a3.802 3.802 0 0 0-3.3.57 2.829 2.829 0 0 0-1.13 2.17c0 1.18-1 2.51-1.15 4.4a3.929 3.929 0 0 0 2.79 4.18c1.85.57 3.72-.26 5-.62.7-.21 1.31-.32 2.06-.48a3.794 3.794 0 0 0 2.48-2 3.927 3.927 0 0 0 .127-3.263 3.917 3.917 0 0 0-2.387-2.227 4.311 4.311 0 0 0-2-.19 3.829 3.829 0 0 0-2.49-2.54zm2.81 3c.13.224.182.484.15.74a.422.422 0 0 1-.07.2.138.138 0 0 1-.07 0v-.54a3.398 3.398 0 0 0-.17-.65c.04.09.11.11.18.22l-.02.03zm-1-.39c-.64 0-.07-.47.53-.06-.12 0-.34 0-.48.03l-.05.03zm22.58 37.08a4.2 4.2 0 0 0 1.93.68c.12 0 .22.13.33.16.137.04.278.067.42.08h.72c.17 0 0 .08.23.11.525.123 1.061.19 1.6.2a6.63 6.63 0 0 0 6.46-4.85 9.262 9.262 0 0 0 .26-2.92l-.1.23c.094-.325.148-.661.16-1a2.872 2.872 0 0 0-.2-2.67 6.514 6.514 0 0 0-2.27-2.39 5.225 5.225 0 0 0-4.22-.29 4.889 4.889 0 0 0-3 3.39 3.277 3.277 0 0 0 0 1.8c.06.14.13.22.24.16.11-.06.13-.13.24-.2l.36-.16c.32-.17.86-.17.87 0 .01.17-.17.21-.46.28a9.393 9.393 0 0 0-1.75.6 6.396 6.396 0 0 0-2.79 2.24 2.996 2.996 0 0 0-.49 2.41c.223.861.74 1.618 1.46 2.14zm6.01-1.67c0 .15-.07.3-.11.44v.1l-.09.21-.1.18c-.12.15 0 0 0-.13l-2-1.27c.27 0 .55.05.83 0a4.168 4.168 0 0 0 1.49-.35c.027.273.02.548-.02.82zm97 71.72a4.118 4.118 0 0 0 1.94.68c.105.066.215.123.33.17l.41.08h.73c.17 0 0 .07.22.11.53.113 1.069.177 1.61.19a6.573 6.573 0 0 0 6.45-4.85c.249-.952.34-1.938.27-2.92l-.11.23c.1-.324.154-.661.16-1a2.815 2.815 0 0 0-.2-2.66A6.332 6.332 0 0 0 482 338a5.195 5.195 0 0 0-4.23-.29 4.914 4.914 0 0 0-3 3.39 3.335 3.335 0 0 0 0 1.8c.06.14.13.21.23.15s.14-.12.25-.19l.36-.16c.32-.17.85-.18.87 0 .02.18-.18.2-.46.27a9.258 9.258 0 0 0-1.75.61 6.429 6.429 0 0 0-2.8 2.24 2.99 2.99 0 0 0-.49 2.4 3.855 3.855 0 0 0 1.42 2.16zm6.02-1.66c0 .15-.07.3-.11.43v.11l-.09.2-.1.18c-.12.16 0-.05 0-.13l-2-1.27c.28.015.56.015.84 0a4.418 4.418 0 0 0 1.49-.34 3.41 3.41 0 0 1-.03.82zm-77.53-61.29a4.897 4.897 0 0 1-1.518 1.678 4.893 4.893 0 0 1-2.112.812 4.346 4.346 0 0 1-1.4.13c-.2 0 .1 0 0 .2l-.13.18a3.988 3.988 0 0 0-1.29 0 3.762 3.762 0 0 0-2.21 1A4.154 4.154 0 0 0 391 295c.1 1.41 1.68 2.25 2.25 2.44.794.458 1.627.842 2.49 1.15a7.008 7.008 0 0 0 6-.65 10.401 10.401 0 0 0 4.07-3.76 9.183 9.183 0 0 0 1-2.35c.106-.439.17-.888.19-1.34a4.18 4.18 0 0 0-.27-2.76 3.496 3.496 0 0 0-3.56-1.92 2.836 2.836 0 0 0-2.28 1.62zm-21.7 25.83a9.255 9.255 0 0 0-2.41 2 8.84 8.84 0 0 0-2.52 5.4c-.023.6.045 1.2.2 1.78a3.592 3.592 0 0 0 1.5 2.12 4.597 4.597 0 0 0 4.89.12 3.572 3.572 0 0 0 3 .4 2.655 2.655 0 0 0 1.94-2.23c.12-1.53 1.14-3.11 1.27-5.38a4.785 4.785 0 0 0-1.12-3.25 5.11 5.11 0 0 0-3.27-1.74 5.996 5.996 0 0 0-3.48.78zm-.07 8.73.05-.05c.05-.05 0 .07 0 .1l-.05-.05zm-82.51 13.86a9.591 9.591 0 0 0-2.4 2 8.908 8.908 0 0 0-2.53 5.4c-.023.6.045 1.2.2 1.78a3.637 3.637 0 0 0 1.5 2.12 4.597 4.597 0 0 0 4.89.12 3.572 3.572 0 0 0 3 .4 2.655 2.655 0 0 0 1.94-2.23c.12-1.53 1.14-3.11 1.28-5.38a4.785 4.785 0 0 0-1.12-3.25 5.068 5.068 0 0 0-3.28-1.74 6.078 6.078 0 0 0-3.48.78zm-.07 8.73h.06v.1l-.06-.1zm24.46-84.4a9.46 9.46 0 0 0-2.41 2 8.868 8.868 0 0 0-2.52 5.4 6.39 6.39 0 0 0 .19 1.78 3.683 3.683 0 0 0 1.5 2.12 4.638 4.638 0 0 0 4.9.13 3.545 3.545 0 0 0 3 .39 2.653 2.653 0 0 0 1.95-2.23c.12-1.53 1.14-3.11 1.27-5.38a4.808 4.808 0 0 0-1.12-3.25 5.11 5.11 0 0 0-3.27-1.74 5.995 5.995 0 0 0-3.49.78zm-.07 8.73.05-.05a.335.335 0 0 1 0 .1l-.05-.05zm91.66 60.51a9.635 9.635 0 0 0-2.41 2 8.92 8.92 0 0 0-2.52 5.4c-.023.6.045 1.2.2 1.78a3.637 3.637 0 0 0 1.5 2.12 4.62 4.62 0 0 0 4.89.13 3.57 3.57 0 0 0 3 .39 2.64 2.64 0 0 0 1.94-2.23c.12-1.53 1.14-3.11 1.28-5.38a4.808 4.808 0 0 0-1.12-3.25 5.14 5.14 0 0 0-3.28-1.74 5.996 5.996 0 0 0-3.48.78zm-.07 8.73h.06v.1l-.06-.1zm-48.99-35.21a3.352 3.352 0 0 0 1.06 2.38c1 .85.35 2.62-.69 3.16-.47.32-.89.45-1.07.61a.717.717 0 0 0-.21.28.48.48 0 0 0-.06.18c0 .08-.44.61-.58.93a3.998 3.998 0 0 0-.26 2.71 3.66 3.66 0 0 0 1.28 1.89 4.264 4.264 0 0 0 3.4.74 3.8 3.8 0 0 0 1.42-.71c.4-.32.58-.52.91-.77.57-.5 1.25-1 1.87-1.58A6.999 6.999 0 0 0 373 308a8.411 8.411 0 0 0-1-5.43 7.556 7.556 0 0 0-1.9-2.08 6.266 6.266 0 0 0-1.94-1 3.568 3.568 0 0 0-2.72.23 3.475 3.475 0 0 0-1.91 3.22zm44.61-55.82c-.44 1.4-1.94 2.41-3.31 3.53a5.002 5.002 0 0 0-2 4.1c.047.823.171 1.64.37 2.44.185.91.298 1.833.34 2.76a3.329 3.329 0 0 0 2.36 2.47 3.462 3.462 0 0 0 3.79-1.12c.213-.287.406-.588.58-.9l.35-.46c.247-.294.475-.605.68-.93.372-.616.706-1.254 1-1.91a19 19 0 0 0 1.67-3.87c.183-.685.31-1.384.38-2.09a5.568 5.568 0 0 0 0-1.14 4.183 4.183 0 0 0-.39-2.65c-1.85-3.1-5.52-2-5.82-.23zm24.22-78.32c-.39 2.09-2 4.29-3.47 6.56a10.792 10.792 0 0 0-2 6.55c.111 1.015.309 2.019.59 3 .287 1.116.485 2.253.59 3.4a2.329 2.329 0 0 0 2.84 1.82c1.18-.11 3.11-1.34 4.18-3.71.25-.49.46-1.2.59-1.52l.37-.82c.26-.54.49-1.08.69-1.61.42-1.06.72-2.08 1-3.11a42.448 42.448 0 0 0 1.6-6c.154-.993.248-1.995.28-3a7.321 7.321 0 0 0-.13-1.47 5.001 5.001 0 0 0-.64-3.21c-2.22-2.99-6.27.62-6.49 3.12zm.08 118.09c.064-.184.159-.357.28-.51l.12-.15a4.236 4.236 0 0 0-.48-.72 3.802 3.802 0 0 0-3.74-1.21 4.003 4.003 0 0 0-2.63 5.18c.38.87.78 1.25 1 1.76l.83 1.77a5.443 5.443 0 0 0 3.18 2.93 6.734 6.734 0 0 0 4.53.32 5.775 5.775 0 0 0 3-2.2 3.59 3.59 0 0 0 0-3.92 3.818 3.818 0 0 0-2.49-1.66 3.92 3.92 0 0 0-2.08.28c-.89.44-1.96-.91-1.52-1.87zm-46.72-54.79c-.736.236-1.451.53-2.14.88a3.861 3.861 0 0 0-1.9 2.59 4.001 4.001 0 0 0 1.08 3.69c.384.377.854.655 1.37.81v.13a.47.47 0 0 0 0 .14l.07.55a4.328 4.328 0 0 0 1.22 2.45 3.403 3.403 0 0 0 2.36 1 3.651 3.651 0 0 0 3-1.55c.456-.664.71-1.445.73-2.25 0-1.19 1.1-2.29 1.68-4a3.928 3.928 0 0 0-2.25-4.77c-1.85-.86-3.84-.14-5.22.33zm2 7.83a2.309 2.309 0 0 1-.73.19c.25-.079.494-.176.73-.29v.1zM381.85 182c-.736.235-1.451.53-2.14.88a3.88 3.88 0 0 0-1.89 2.59 4.001 4.001 0 0 0 1.08 3.69c.38.377.847.655 1.36.81v.13a.469.469 0 0 0 .05.14l.06.55a4.351 4.351 0 0 0 1.23 2.45 3.393 3.393 0 0 0 2.36 1 3.623 3.623 0 0 0 3-1.55 4.186 4.186 0 0 0 .74-2.25c0-1.19 1.09-2.29 1.67-4a3.928 3.928 0 0 0-2.24-4.77c-1.9-.85-3.9-.12-5.28.33zm2 7.83a2.399 2.399 0 0 1-.73.19c.249-.081.493-.178.73-.29v.1zm36.05 215.92a6.943 6.943 0 0 0 4.79-2.15c.303-.32.565-.676.78-1.06l.34-.6c.19-.363.341-.745.45-1.14.59-1.81-.67-4.11-2-4.43a3.673 3.673 0 0 0-3.19.2 4.547 4.547 0 0 0-1.63 1.56.85.85 0 0 1-.601.342.872.872 0 0 1-.659-.212 1.184 1.184 0 0 1-.47-1.35.495.495 0 0 1 .52-.29c.11.07 0-.08-.08-.25l-.29-.45a5.13 5.13 0 0 0-.82-.78 4.01 4.01 0 0 0-2-.674 4.008 4.008 0 0 0-3.618 1.865 4.002 4.002 0 0 0-.612 2.019 3.473 3.473 0 0 0 1.47 2.76c1 .84 1.75 1.89 2.93 3a5.817 5.817 0 0 0 4.69 1.64zM449.17 205l-1-.9a2.996 2.996 0 0 0-2.16-.77 2.995 2.995 0 0 0-2.75 2.32c-.52.236-.987.576-1.37 1a3.328 3.328 0 0 0-.76 2.67c.104.487.265.961.48 1.41.035.186.082.37.14.55.162.688.393 1.358.69 2 1 2.36 3.73 4.45 2.89 8.68a3.209 3.209 0 0 0 3 2.49 3.287 3.287 0 0 0 2.26-.7 4.65 4.65 0 0 0 1.31-1.92 12.47 12.47 0 0 0 1.45-5.71 14.285 14.285 0 0 0-4.18-11.12zM414.8 87.59c.331.316.7.588 1.1.81.928.49 1.952.774 3 .83.303.02.607.02.91 0 .3 0 .5 0 1.15-.13a17.514 17.514 0 0 0 2.91-1.21 11.816 11.816 0 0 1 2.63-.89c.12-.008.24-.008.36 0 .148.534.468 1.005.91 1.34a3.39 3.39 0 0 0 4.46-.48 4.05 4.05 0 0 0 .9-2.42 5.28 5.28 0 0 0-.13-2.17 5.605 5.605 0 0 0-3.36-3.69 10.638 10.638 0 0 0-4-.68c-1.21 0-2.47.21-3.15.25-.536.042-1.074.042-1.61 0 0 0 .41.41-.8-.43a8.153 8.153 0 0 0-1-.58l-.59-.27c-.19-.07-.23-.07-.39-.12a6 6 0 0 0-2.58-.33l.36.06a4.209 4.209 0 0 0-2.39.44l1.08-.12a6.122 6.122 0 0 0-1.28.27c-.403.13-.776.337-1.1.61a2.373 2.373 0 0 0-2.13 1.34 4.137 4.137 0 0 0-.041 3.666 4.127 4.127 0 0 0 2.891 2.254c.504.103.997.257 1.47.46.28.2 0 .36-.3.32-.02.03.26.41.72.87zm11.85-1.51v.14c.012.064.029.128.05.19a1.934 1.934 0 0 1-.05-.33zm-21.13 6.58a6.331 6.331 0 0 0-.59-.47 7.751 7.751 0 0 0-2.15-1.11 3.2 3.2 0 0 0-2.12-.06.81.81 0 0 1-.45-.14c-.12.07-.43-.72-.79-1a3.263 3.263 0 0 0-2.54-1 3.22 3.22 0 0 0-2 .94 2.087 2.087 0 0 0-.42 2c.29 1.07.47 2.17.85 3.41a10.914 10.914 0 0 0 2 3.56 6.002 6.002 0 0 1 1.29 2c.148.258.319.502.51.73.293.371.629.707 1 1a5.584 5.584 0 0 0 3.37 1.1c.087-.053.181-.094.28-.12.363-.04.73.033 1.05.21a5.746 5.746 0 0 1 2.23 2c.33.48.5.83.9 1.5a3.144 3.144 0 0 0 2.15 1.36 3.67 3.67 0 0 0 2.6-.59 3.246 3.246 0 0 0 1.25-3.15c0-.25-.14-.57-.2-.78l-.08-.39-.15-.82a13.608 13.608 0 0 0-2.08-5.17 8.87 8.87 0 0 0-3.76-3.37c-.396-.156-.8-.29-1.21-.4l-.26-.37a4.856 4.856 0 0 0-.68-.87zm1.33 1.73c.06.08.06.09 0 0zm-15.2 13.03a21.532 21.532 0 0 0-3.23-1.28 5.688 5.688 0 0 0-2.47-.32.368.368 0 0 1-.11.2.62.62 0 0 1-.09.44c0 .12-.16.35-.24.3a5.62 5.62 0 0 0 .05-.81 2.992 2.992 0 0 0-1.5-2.52 2.624 2.624 0 0 0-3.104.231 2.621 2.621 0 0 0-.666.879 8.85 8.85 0 0 0-.74 3.7 8.407 8.407 0 0 0 1.36 4.15 7.447 7.447 0 0 0 3.37 2.84c1.16.47 2 .73 2.08.6.08-.13.07-.46.34-.18.305.326.528.72.65 1.15.38 1.12.77 2.32 1.1 3.52a14.51 14.51 0 0 0 1.5 3.6 2.996 2.996 0 0 0 2.69 1.29 3.776 3.776 0 0 0 3.482-3.367 3.773 3.773 0 0 0-.222-1.723c-.35-.79-.18-.65-.21-.85a3.589 3.589 0 0 1 0-.44l.25-2.61a11.083 11.083 0 0 0-.44-4.57 6.6 6.6 0 0 0-1.82-2.85 9.668 9.668 0 0 0-2.03-1.38zM374.84 147a9.86 9.86 0 0 0-2 1.6c-2.33 2.43-3 5.29-5 6.87a8.61 8.61 0 0 1-.81.57 3.233 3.233 0 0 0-1.13 1.19 3.29 3.29 0 0 0 .18 3.14 3.003 3.003 0 0 0 3.37 1.24c1-.35 1.53-.51 2.31-.84a20.384 20.384 0 0 0 4.09-2.22c.312-.206.613-.43.9-.67.208-.156.425-.3.65-.43.44-.26.9-.53 1.44-.79a31.66 31.66 0 0 0 3.92-2.08 12.001 12.001 0 0 0 3.74-4c.82-1.41 1.31-2.54 1.79-3.47a25.304 25.304 0 0 0 1.86-4.22 7.442 7.442 0 0 0 .2-2.88 4.242 4.242 0 0 0-1.24-2.81 2.996 2.996 0 0 0-2.71-.53 2 2 0 0 0-1.44 2c-.26 2.66-3.64 3.61-5.85 5.72a16.867 16.867 0 0 1-2.73 1.77l-1.54.84zm-2.09-12.71a28.512 28.512 0 0 1 4.46-.13 31.28 31.28 0 0 0 5.72-.34c3-1 1.86-4.88-.36-4.74a9.497 9.497 0 0 1-4.68-1.59 27.813 27.813 0 0 0-4.91-2.7 6.387 6.387 0 0 0-3.84-.08c-.975.33-1.91.766-2.79 1.3a7.797 7.797 0 0 1-1.39.63l-2.23.62a10.359 10.359 0 0 0-3.08 1.43 6.754 6.754 0 0 0-2.26 2.81c-.76 1.79-1.12 3.42-2.06 4.22a1.514 1.514 0 0 1-1.53.27 5.113 5.113 0 0 1-.92-.44 4.604 4.604 0 0 0-1.56-.7 3.181 3.181 0 0 0-3.37 2.33c-.24.809-.157 1.68.23 2.43.381.61.881 1.137 1.47 1.55a8.318 8.318 0 0 0 6.56 1.63 11.292 11.292 0 0 0 3.15-1 10.129 10.129 0 0 0 2.91-2.13c1.43-1.56 2.51-2.83 2.68-2.68a12.524 12.524 0 0 0 4.8-1.12c2.64-1.51 1.66-1.29 3-1.57zM332.1 158.3c.644.274 1.314.481 2 .62.61.12 1.21.2 1.82.27 1.177.11 2.363.11 3.54 0a31.5 31.5 0 0 0 6.28-1.35 35.458 35.458 0 0 0 5.79-2.46 13.096 13.096 0 0 0 4.88-4.81c.393-.544.619-1.19.65-1.86a2.375 2.375 0 0 0-.87-1.75 2.217 2.217 0 0 0-2.537-.358 2.21 2.21 0 0 0-.703.568 7.774 7.774 0 0 1-5.1 2.24c-1.928.15-3.868.08-5.78-.21l-5.48-.7a22.02 22.02 0 0 1-4.92-1 10.484 10.484 0 0 0-4-.31 5.884 5.884 0 0 0-2.26.84 5.333 5.333 0 0 0-1.78 1.72c-.87 1.79-.53 2.13-1 2.79a5.783 5.783 0 0 1-1.77 1.75c-1.48.91-3.6 1.29-5.53 2.39a2.76 2.76 0 0 0-1.43 2.13 3.32 3.32 0 0 0 .75 2.45 3.442 3.442 0 0 0 2.37 1.27c.497.042.998-.019 1.47-.18l.6-.25.26-.09a6.502 6.502 0 0 1 2.21-.17 9.867 9.867 0 0 0 3.61-.34 6.562 6.562 0 0 0 4-3.1c.203-.365.383-.743.54-1.13.36.06 1.22.54 2.39 1.03zm-2.16-1.47c.12-.17 0 .09 0 .16.21 0 0 0-.09.1.025-.088.055-.175.09-.26zm2.92 11.45a2.76 2.76 0 0 0-.85-1.82 2.43 2.43 0 0 0-1.77-.55 2.281 2.281 0 0 0-2.21 2.22c-.09 1.73-1.62 3.13-3.19 3.84a6.821 6.821 0 0 1-4.8.38 27.751 27.751 0 0 1-4.4-1.48 4.058 4.058 0 0 1-.73-.36l-1.12-.67a8.363 8.363 0 0 0-3.81-1.08c-4.14-.16-8.07 1-11.87 1.88-.95.27-1.9.54-2.86.86a6.575 6.575 0 0 0-1.58.72 2.575 2.575 0 0 0-1 2.24 3.42 3.42 0 0 0 3.1 3.1 3.58 3.58 0 0 0 1.26-.15c.41-.12.44-.09.67-.15a8.669 8.669 0 0 1 1.15-.08c1.675.116 3.334.405 4.95.86.87.23 1.92.38 2.84.54a9.646 9.646 0 0 1 2.08.54c1.18.5 3 1.47 4.71 2.28 1.156.579 2.399.964 3.68 1.14 1.278.145 2.571.084 3.83-.18 4.33-.8 8.79-3.13 10.93-7.5a11.482 11.482 0 0 0 .99-6.58zm-40.03-18.47a2.77 2.77 0 0 0 .61 3 2.733 2.733 0 0 0 4-.21 6.22 6.22 0 0 1 5.92-2.22c.993.165 1.995.269 3 .31a8.216 8.216 0 0 0 2.2-.37 7.845 7.845 0 0 0 1.81-.86 27.196 27.196 0 0 1 2.37-1.61c.7-.44 2.11-.36 3.51-.67a2.772 2.772 0 0 0 2.14-1.78 3.26 3.26 0 0 0-.28-2.63 3.176 3.176 0 0 0-2.46-1.58h-.49a1.105 1.105 0 0 1-.21-.11l-.5-.32a6.523 6.523 0 0 0-4.27-1.56c-1.452.103-2.877.44-4.22 1-.853.351-1.747.592-2.66.72a15.908 15.908 0 0 0-3.76 1.15 13.677 13.677 0 0 0-3.54 2.27 9.991 9.991 0 0 0-2.39 3.46c-.34.64-.43 1.08-.78 2.01zM341 173.18a2.77 2.77 0 0 0 .61 3 2.733 2.733 0 0 0 4-.21 6.22 6.22 0 0 1 5.92-2.22c.993.165 1.995.269 3 .31a8.17 8.17 0 0 0 2.2-.36 8.333 8.333 0 0 0 1.81-.87c1-.63 1.56-1.21 2.36-1.61.8-.4 2.12-.36 3.52-.66a2.818 2.818 0 0 0 2.14-1.79 3.26 3.26 0 0 0-.28-2.63 3.176 3.176 0 0 0-2.46-1.58h-.49l-.21-.12-.5-.32a6.527 6.527 0 0 0-4.28-1.56c-1.448.104-2.87.441-4.21 1-.855.348-1.748.593-2.66.73-1.297.218-2.56.601-3.76 1.14a13.933 13.933 0 0 0-3.54 2.27 9.991 9.991 0 0 0-2.39 3.46c-.32.66-.41 1.1-.78 2.02zm11.82-80.48a29.873 29.873 0 0 1 4.11 1.93 30.89 30.89 0 0 0 5.34 2.37c3.15.5 3.93-3.56 1.86-4.46a9.635 9.635 0 0 1-3.51-3.6 27.106 27.106 0 0 0-3.21-4.72 6.441 6.441 0 0 0-3.41-1.87 13.997 13.997 0 0 0-3.12-.11 7.225 7.225 0 0 1-1.56-.08L347 81.7a10.711 10.711 0 0 0-3.45-.13 6.912 6.912 0 0 0-3.35 1.51c-1.51 1.27-2.59 2.58-3.81 2.87a1.549 1.549 0 0 1-1.52-.46 6.05 6.05 0 0 1-.63-.82 4.507 4.507 0 0 0-1.09-1.36 3.23 3.23 0 0 0-4.13.56 3.312 3.312 0 0 0-.91 2.3c.056.733.268 1.445.62 2.09a8.476 8.476 0 0 0 5.18 4.5 11.17 11.17 0 0 0 3.32.57c1.229.027 2.452-.17 3.61-.58 2-.76 3.59-1.41 3.67-1.19a12.936 12.936 0 0 0 4.86 1.2c3.1-.17 2.11-.42 3.45-.06zm-23.41 11.88a2.84 2.84 0 0 0-.69 3 2.787 2.787 0 0 0 1.572 1.582 2.778 2.778 0 0 0 2.228-.082 6.313 6.313 0 0 1 6.41.45c.838.562 1.71 1.073 2.61 1.53.699.298 1.436.5 2.19.6a8.26 8.26 0 0 0 2 0 28.761 28.761 0 0 1 2.87-.49c.83-.11 2.11.56 3.53.87a2.856 2.856 0 0 0 2.74-.75 3.343 3.343 0 0 0 .85-2.55 3.254 3.254 0 0 0-1.61-2.5l-.34-.19-.09-.08c-.05 0-.1-.13-.15-.19l-.32-.51A6.668 6.668 0 0 0 350 102a13.663 13.663 0 0 0-4.33-.84 11.257 11.257 0 0 1-2.77-.45 15.843 15.843 0 0 0-4-.53 13.996 13.996 0 0 0-4.23.61A10.157 10.157 0 0 0 331 103c-.6.5-.87.87-1.59 1.58zm132.1 2.94a6.866 6.866 0 0 1 1.11-1.44c.4-.35 1.23-1.38.88-2.27a2.423 2.423 0 0 0-2.749-1.718 2.413 2.413 0 0 0-1.071.478 12.807 12.807 0 0 0-4.67 6.59c-.67 2.86-.46 5.62-1.91 6.84a19.8 19.8 0 0 0-1.13 1.84 5.808 5.808 0 0 0-.49 1.58 8.502 8.502 0 0 0-.14 1.35c.017.891.138 1.777.36 2.64l.34 1.75c.25 1.26.55 2.4.69 3.42.08.4.09 1.25.15 1.07 0 0 .05 0-.07.38a6.45 6.45 0 0 0-.34 1.82 4.906 4.906 0 0 0 .29 1.84c.077.235.167.465.27.69.145.351.326.686.54 1a6.22 6.22 0 0 0 2.3 1.86c.188.107.386.197.59.27.11.11-.15-.35-.09-.49.17.485.258.996.26 1.51.064.959.333 1.894.79 2.74a5.581 5.581 0 0 0 1.92 1.64c.466.341.895.73 1.28 1.16.46.46.95.9 1.38 1.38a32.46 32.46 0 0 1 4.65 6.06 9.92 9.92 0 0 0 4.65 4.68 3.404 3.404 0 0 0 3.67-.11 4.007 4.007 0 0 0 1.55-3.58 4.163 4.163 0 0 0-2.4-3.37 4.824 4.824 0 0 1-1.31-1.87l-1.5-3.38a12.684 12.684 0 0 0-1.22-2.16c-.45-.62-.89-1.17-1.34-1.73a19.665 19.665 0 0 1-2.07-2.67 9.02 9.02 0 0 1-.57-1.2c-.07-.21-.2-.55-.14-.45l-.13-.71a14.993 14.993 0 0 0-.52-2.36 4.667 4.667 0 0 0-1.67-2.2l-.12-.07.07-.47a13.06 13.06 0 0 0 .23-5.31 6.77 6.77 0 0 0-.73-2 10.042 10.042 0 0 0-.87-1.23c-.51-.55-.6-.85-.41 0-.13-.44-.31-.45.17-2a8.714 8.714 0 0 0 .46-2.72c-.03-.823-.144-1.64-.34-2.44-.78-3.16-2.03-4.51-.6-6.64zm25.22 11.1a6.168 6.168 0 0 0-.67-.36 3.473 3.473 0 0 0-1.58-.29 2.987 2.987 0 0 0-1.265.407c-.386.228-.716.54-.965.913a2.794 2.794 0 0 0 .2 3.56c1.41 1.35 1.93 3.52 2.41 5.58a9.26 9.26 0 0 0 2.59 4.77c.65.53 1.19 1.21 1.56 1.06.07 0 .09-.18.2-.22a.481.481 0 0 1 .16-.08s-.08.18-.1.27a3.153 3.153 0 0 0-.3 1.32 3.56 3.56 0 0 0 .76 2.29 3.43 3.43 0 0 0 1.88 1.27 2.743 2.743 0 0 0 2.4-.67 8.826 8.826 0 0 0 2.33-3.1 7.321 7.321 0 0 0 .32-4.25 12.903 12.903 0 0 0-1.36-3.38 26.274 26.274 0 0 0-3.14-5.1 11.828 11.828 0 0 0-5-3.83l-.43-.16zm-47.83 8A3.471 3.471 0 0 0 440 125c1-2.15 1.82-4 2.86-6.2a4.388 4.388 0 0 0-.34-4.55l-.27-.26-1.08-.52c-.53 0-1.08-.52-1.61-.51h-1.61a2 2 0 0 1-1.34-.25 2.844 2.844 0 0 0-2.93.85 6.49 6.49 0 0 0-2.63 3.78 4.849 4.849 0 0 0 .6 4.28c.27.26.28.8.82 1.33.54.53 0 .53 0 .53a5.08 5.08 0 0 0-.23 3v.52l.27.26a4.646 4.646 0 0 0 4.56.2c.54.53 1.07 0 1.86-.83l-.03-.01zM342.77 399c-2.3.4-4.63.44-7.14.78-1.367.186-2.688.62-3.9 1.28a7.082 7.082 0 0 0-3.08 3.78A14.147 14.147 0 0 0 328 409a9.714 9.714 0 0 1-.36 2.45 9.486 9.486 0 0 1-2.52 4.18l.31-.17-2.52 1.73a3.474 3.474 0 0 1-1.79.88c-1.05.15-2.3-1.19-3-2.75a2.533 2.533 0 0 0-.28-2.44 3.227 3.227 0 0 0-2.58-1.31 3.11 3.11 0 0 0-2.59 1.42 15.84 15.84 0 0 0-1.24 1.76 6.573 6.573 0 0 0-1.003 5.179 6.576 6.576 0 0 0 3.123 4.251 14.802 14.802 0 0 0 9.1 2.06 16.514 16.514 0 0 0 4.63-1 20.138 20.138 0 0 0 4.16-2.11 15.249 15.249 0 0 0 5.88-7.76c.429-1.548.581-3.159.45-4.76-.08-.818-.08-1.642 0-2.46 0-1.26 1.8-2.9 4.14-3.85l1.78-.68a2.423 2.423 0 0 0 1.86-1.73 2.458 2.458 0 0 0-1.624-2.785 2.452 2.452 0 0 0-1.156-.105zm-32.88-5.17c.291.332.605.643.94.93a6.392 6.392 0 0 0 2.61 1.33 7.56 7.56 0 0 0 5.88-1.19 17.373 17.373 0 0 0 3.44-3.17l2.12-2.19c.25-.27.46-.38.39-.43-.07-.05-.48-.06-.61-.24s0-.14.07-.16c-.15-.22-.15-.41 0-.39.15.02.63.42 1 .86.391.506.749 1.037 1.07 1.59a3.152 3.152 0 0 0 2.45 2 2.71 2.71 0 0 0 2.233-.856 2.701 2.701 0 0 0 .677-2.294c-.28-1.24-.43-2.5-.61-3.89a10.147 10.147 0 0 0-1.5-4.42 6.586 6.586 0 0 0-4.87-2.71 7.002 7.002 0 0 0-5.23 1.89 7.841 7.841 0 0 0-.8.86c-.22.28-.47.55-.8 1-.39.68-.63 1.25-.91 1.84a13.255 13.255 0 0 1-1.9 3.22c-.339.43-.752.795-1.22 1.08h-.07l-.1-.07a3.394 3.394 0 0 0-.68-.37 3.545 3.545 0 0 0-3.05.44 3.254 3.254 0 0 0-1.47 3.39 3.94 3.94 0 0 0 .94 1.95zM297 419.07a2.684 2.684 0 0 0 2.143.806 2.7 2.7 0 0 0 1.987-1.136c1.2-2.07 3-4.28 3.26-7.58a7.837 7.837 0 0 0-4.83-7.61c-2.91-1.26-5.88-.68-8.33-.65a35.443 35.443 0 0 1-3.73-.1c-.62 0-1.23-.11-1.85-.21a3.554 3.554 0 0 0-3.07 1.43 4.102 4.102 0 0 0-.62 3.64 3.809 3.809 0 0 0 1.38 2c.663.476 1.445.76 2.26.82l3.63.34c1.695.15 3.345.625 4.86 1.4.433.232.842.506 1.22.82a2.51 2.51 0 0 1 1 1.48c.14.495.161 1.016.06 1.52a2.903 2.903 0 0 0 .63 3.03zm-18.15 20.34a3.698 3.698 0 0 0 1.89 1.8 4.31 4.31 0 0 0 2.88.1 3.999 3.999 0 0 0 2.54-2.35 4.453 4.453 0 0 0-.47-4c.09 0 .22.11.3.26.15.33.18.41.32.4.14-.01.19 0 .6-.16.79-.29 2.41-.41 4.42-1.14a4.193 4.193 0 0 0 2.54-1.12 3.502 3.502 0 0 0 .94-2.13 3.113 3.113 0 0 0-.49-1.91 2.162 2.162 0 0 0-1.52-.86c-1.86-.19-3.51-1.52-5.7-2.38a6.256 6.256 0 0 0-6.92 1.6c-1.84 2-2 4.72-2.13 6.84a12.14 12.14 0 0 0 .26 3.32c.134.59.314 1.169.54 1.73zm58.64-5.88a3.785 3.785 0 0 0-2.13-2.25 2.919 2.919 0 0 0-2.46.36 3.17 3.17 0 0 0-1.47 3.09 1.811 1.811 0 0 1-1.12 2 3.897 3.897 0 0 1-2.41.13 8.159 8.159 0 0 0-4.3-.3l-1.34.3-.72.19-.37.1c-.247 0-.487.04-.72.12a3.107 3.107 0 0 0-2.25 2 3.563 3.563 0 0 0 0 2.29 3.609 3.609 0 0 0 1.23 1.74c.543.352 1.152.59 1.79.7.92.24 1.83.64 2.81 1a10.468 10.468 0 0 0 6.66.59 10.111 10.111 0 0 0 6.38-4.28 8.754 8.754 0 0 0 1.32-3.91 6.681 6.681 0 0 0-.9-3.87zm-91.18 9.24a8.344 8.344 0 0 0 0 6.21c.196.478.423.942.68 1.39a3.237 3.237 0 0 0 1.43 1.28 3.46 3.46 0 0 0 1.65.28h1.17l1.18.09a3.204 3.204 0 0 0 1.87-.49 3.355 3.355 0 0 0 1.15-3.67s0-.06-.05-.09h.29c1 .06 2.18.18 3.44.21a20.22 20.22 0 0 0 2.06 0 9.92 9.92 0 0 0 2.89-.48 7.332 7.332 0 0 0 4.4-4.24 8.368 8.368 0 0 0 .29-5 12.773 12.773 0 0 0-.69-2.14 4.208 4.208 0 0 0-.73-1.32 2.211 2.211 0 0 0-1.43-.7 2.718 2.718 0 0 0-2.169.81 2.713 2.713 0 0 0-.751 2.19c.3 1.44-.68 3.14-1.81 2.78a6.907 6.907 0 0 1-1.76-.88 13.39 13.39 0 0 0-2.6-1 9.002 9.002 0 0 0-5.9.27 8.24 8.24 0 0 0-4.61 4.5zm79.49 61.49c.313-.547.58-1.119.8-1.71a3.892 3.892 0 0 0-.05-2.61c-1.33-3.08-4.76-2.69-5.51-1.28-.79 1.13-2.66.89-3.57 0-.91-.89-1.16-1.12-2-1.06 0 .16-.9-.34-1.85-.37a3.57 3.57 0 0 0-2.47.83 4.001 4.001 0 0 0-1.22 3.39 3.78 3.78 0 0 0 1.53 2.66c.57.54 1.16 1.15 1.85 1.71a7.5 7.5 0 0 0 5 1.92 8.858 8.858 0 0 0 5.44-1.45 7.761 7.761 0 0 0 2.05-2.03zm-33.01-2.06c-1.05.72-2.67.45-4.4.64a4.14 4.14 0 0 0-3.64 3.15c-.52 1.84.31 3.8.64 5.15a3.998 3.998 0 0 0 4.71 3.31 3.302 3.302 0 0 0 2-1.36 4.717 4.717 0 0 0 .79-2.19.766.766 0 0 1 .52-.29 3.272 3.272 0 0 0 1.59-.84c.436-.358.853-.739 1.25-1.14 0-.06.39-.36.7-.67.301-.343.556-.722.76-1.13.4-.815.479-1.75.22-2.62a3.553 3.553 0 0 0-2.63-2.43 3.347 3.347 0 0 0-2.51.42zM314 568.4a.46.46 0 0 0 .24.15l-.1-.18-.14.03zm-25 3.22a1.136 1.136 0 0 1-.46-.36c.06-.22-.35.3-.52.5a3.733 3.733 0 0 0-.51 1.06 3.886 3.886 0 0 0 1.65 4.36 4.079 4.079 0 0 0 3.24.294 4.088 4.088 0 0 0 2.43-2.164c.54-1.22 1.25-2.27 1.88-3.76a5.618 5.618 0 0 0-.12-4.79 6.53 6.53 0 0 0-3.89-3.68 6.24 6.24 0 0 0-1.42-.27 5.2 5.2 0 0 0-2.1.2 3.726 3.726 0 0 0-2.63 3.07 3.82 3.82 0 0 0 .86 3 3 3 0 0 0 2.05 1 .791.791 0 0 1 .68 1 .85.85 0 0 1-1.14.54zm-5.31-17.02c.935.201 1.911.07 2.76-.37 1.12-.54 2.32-.77 3.75-1.38a5.424 5.424 0 0 0 3.12-3.44 6.53 6.53 0 0 0-.17-5 7.752 7.752 0 0 0-.83-1.24 4.679 4.679 0 0 0-1.85-1.41 3.64 3.64 0 0 0-4 .73 3.834 3.834 0 0 0-1.11 2.83c.051.72.3 1.412.72 2a.628.628 0 0 1-.4 1 .927.927 0 0 1-1.08-.66 1.143 1.143 0 0 1 0-.32c0-.11-.54 0-.79 0a3.51 3.51 0 0 0-2 1 3.84 3.84 0 0 0-.75 4.13 3.901 3.901 0 0 0 2.63 2.13zm27.04 37.4c.933.194 1.905.06 2.75-.38 1.13-.54 2.32-.77 3.76-1.38a5.424 5.424 0 0 0 3.12-3.44 6.53 6.53 0 0 0-.17-5 7.325 7.325 0 0 0-.84-1.24 4.64 4.64 0 0 0-1.84-1.41 3.637 3.637 0 0 0-4 .74 3.835 3.835 0 0 0-1.1 2.82c.051.72.3 1.412.72 2a.628.628 0 0 1-.4 1 .997.997 0 0 1-1.09-.66 1.143 1.143 0 0 1 0-.32c0-.11-.54 0-.79 0a3.57 3.57 0 0 0-2 1 3.815 3.815 0 0 0-.75 4.13 3.905 3.905 0 0 0 2.63 2.14zm63.47-6.67c.943.22 1.934.103 2.8-.33 1.13-.54 2.32-.77 3.76-1.38a5.424 5.424 0 0 0 3.12-3.44 6.53 6.53 0 0 0-.17-5 7.325 7.325 0 0 0-.84-1.24 4.64 4.64 0 0 0-1.84-1.41 3.637 3.637 0 0 0-4 .74 3.835 3.835 0 0 0-1.1 2.82c.05.721.299 1.413.72 2a.646.646 0 0 1-.4 1 .998.998 0 0 1-1.09-.67.86.86 0 0 1 0-.32c0-.11-.54 0-.79 0a3.57 3.57 0 0 0-2 1 3.815 3.815 0 0 0-.75 4.13 3.91 3.91 0 0 0 2.58 2.1zm-88.64 12.61a3.759 3.759 0 0 0 1.31 3.1 3.055 3.055 0 0 0 2.35.65c1.17-.19 2.54.64 4.24 1a3.789 3.789 0 0 0 4.1-1.7c.87-1.39.81-3.1 1.3-4.42a3.824 3.824 0 0 0-.187-2.999 3.83 3.83 0 0 0-2.293-1.941 3.876 3.876 0 0 0-4 1.18 5.564 5.564 0 0 1-1.09.62c-.65.28-1.2.27-1.65.53l-.37.22-.2.11-.11.08c-.05 0-.36.08-.52.13a4 4 0 0 0-2.88 3.44zm18.11-65.58a8.135 8.135 0 0 0 1.45-3 5.577 5.577 0 0 0 .11-1.63 4.994 4.994 0 0 0-.54-2.54 3.364 3.364 0 0 0-3.91-1.64 2.792 2.792 0 0 0-2.07 2.12 2.157 2.157 0 0 1-2.349 1.569 2.152 2.152 0 0 1-.951-.359c-1-.78-.71-1-1.59-1a4.595 4.595 0 0 0-2.74-.77 3.799 3.799 0 0 0-2.33 1.07 3.718 3.718 0 0 0-1 3.92c.23.548.599 1.028 1.07 1.39.34.27.61.6 1 .88a22.252 22.252 0 0 0 2.14 1.81c3.16 2.62 8.85 1.82 11.71-1.82zm63.99-15.06a8.059 8.059 0 0 0 1.45-3 5.257 5.257 0 0 0 .12-1.63 4.998 4.998 0 0 0-.55-2.54 3.338 3.338 0 0 0-3.9-1.64 2.815 2.815 0 0 0-2.08 2.11 2.152 2.152 0 0 1-1.336 1.46c-.323.12-.669.16-1.011.118a2.146 2.146 0 0 1-.953-.358c-1-.79-.71-1-1.58-1a4.538 4.538 0 0 0-2.74-.76 3.767 3.767 0 0 0-2.33 1.07 3.718 3.718 0 0 0-1 3.92 3.41 3.41 0 0 0 1.06 1.39c.34.26.62.6 1 .87a22.233 22.233 0 0 0 2.14 1.82c3.17 2.6 8.86 1.78 11.71-1.83zm-56.79-150.62a8.059 8.059 0 0 0 1.45-3 5.512 5.512 0 0 0 .11-1.62 4.998 4.998 0 0 0-.54-2.55 3.364 3.364 0 0 0-3.91-1.64 2.823 2.823 0 0 0-2.07 2.12 2.152 2.152 0 0 1-1.336 1.46c-.323.12-.669.16-1.011.118a2.146 2.146 0 0 1-.953-.358c-1-.79-.72-1-1.59-1a4.588 4.588 0 0 0-2.74-.77 3.854 3.854 0 0 0-2.33 1.07 3.736 3.736 0 0 0-1 3.93c.234.532.594.999 1.05 1.36.33.26.61.6 1 .87a20.967 20.967 0 0 0 2.14 1.82c3.18 2.63 8.86 1.81 11.73-1.81zm49.39 204.66a8.135 8.135 0 0 0 1.45-3 5.577 5.577 0 0 0 .11-1.63 4.994 4.994 0 0 0-.54-2.54 3.364 3.364 0 0 0-3.91-1.64 2.792 2.792 0 0 0-2.07 2.12 2.157 2.157 0 0 1-2.349 1.569 2.152 2.152 0 0 1-.951-.359c-1-.78-.72-1-1.59-1a4.588 4.588 0 0 0-2.74-.77 3.799 3.799 0 0 0-2.33 1.07 3.718 3.718 0 0 0-1 3.92c.23.548.599 1.028 1.07 1.39.33.26.61.6 1 .88a22.252 22.252 0 0 0 2.14 1.81c3.16 2.62 8.85 1.84 11.71-1.82zm-27.51-100.69a6.993 6.993 0 0 0 3.8-.86 3.232 3.232 0 0 0 1.57-2.15 3.82 3.82 0 0 0-.5-2.81 3.62 3.62 0 0 0-2.21-1.58v-.31l.1-1.32v-1c0-.32 0-.65-.05-1a8.94 8.94 0 0 0-1.53-4.38 9.104 9.104 0 0 0-6.33-3.88 7.207 7.207 0 0 1-.78-.19 3.996 3.996 0 0 0-1.51-.41 3.174 3.174 0 0 0-2.45 1 2.493 2.493 0 0 0-.818 1.85 2.495 2.495 0 0 0 .818 1.85c.85.652 1.599 1.427 2.22 2.3.582.729.871 1.649.81 2.58a6.29 6.29 0 0 0-.5 2A8.322 8.322 0 0 0 326 466a7.995 7.995 0 0 0 6.75 4.65zm.09-7.27c.278-.142.59-.201.9-.17h.06c-.41.069-.81.19-1.19.36a.521.521 0 0 1 .23-.19zm-15.68 28.23a12.71 12.71 0 0 0 4.44.91 11.223 11.223 0 0 0 8.23-2.75l.85-.88a4 4 0 0 0 .72-2 4.345 4.345 0 0 0-1.94-3.91 4.495 4.495 0 0 0-4.9-.15 5.276 5.276 0 0 0-1.68 1.69c-.08 0-.14.11-.19.08-.05-.03.16-.3.09-.36s-.17-.25-.29-.4a1.93 1.93 0 0 1-.34-1 5.362 5.362 0 0 1 .41-2.38c.195-.518.45-1.011.76-1.47a3.266 3.266 0 0 0 1.05-2.9c-.42-1.88-2.48-2.77-3.77-1.88-2.07 1.39-4.65 2.45-6.76 4.89a7.825 7.825 0 0 0-.5 9.38 9.007 9.007 0 0 0 3.82 3.13zm34.23-34a9.51 9.51 0 0 0-3.12-.37 8.882 8.882 0 0 0-5.66 1.86 6.139 6.139 0 0 0-1.16 1.37 3.638 3.638 0 0 0-.52 2.55 4.613 4.613 0 0 0 3.26 3.64 3.598 3.598 0 0 0 1.75 2.44 2.66 2.66 0 0 0 2.95-.12c1.2-1 3.05-1.3 4.79-2.75a4.817 4.817 0 0 0 1.6-3.05 5.077 5.077 0 0 0-1-3.58 6.01 6.01 0 0 0-2.89-1.99zm-6.4 5.93h.07l-.07.08v-.08zm3.18-24.4a3.32 3.32 0 0 0-1 2.4c.07 1.32-1.67 2-2.78 1.66-.55-.12-.93-.34-1.17-.36a.67.67 0 0 0-.53.08c-.36.054-.718.128-1.07.22a4.121 4.121 0 0 0-2.16 1.66 3.725 3.725 0 0 0-.49 2.23 4.23 4.23 0 0 0 1.79 3c.45.29.959.478 1.49.55.51.07.78.06 1.19.14.75.06 1.56.24 2.43.28a7.06 7.06 0 0 0 5.07-1.51 8.48 8.48 0 0 0 3.26-4.49 7.63 7.63 0 0 0 .22-2.81 6.611 6.611 0 0 0-.6-2.1 3.535 3.535 0 0 0-.818-1.11 3.451 3.451 0 0 0-4.832.16zm4.08-13.63a7.001 7.001 0 0 0 4.85 2c.442.007.883-.047 1.31-.16l.67-.16a6.06 6.06 0 0 0 1.13-.46c1.73-.8 2.54-3.3 1.86-4.48a3.674 3.674 0 0 0-2.33-2.19 4.518 4.518 0 0 0-2.25-.11.864.864 0 0 1-.689-.187.859.859 0 0 1-.311-.643 1.187 1.187 0 0 1 .67-1.27.482.482 0 0 1 .56.18c0 .13.07 0 .13-.23l.13-.52a4.746 4.746 0 0 0 0-1.13 3.99 3.99 0 0 0-.931-2.012 3.993 3.993 0 0 0-1.859-1.208 3.997 3.997 0 0 0-3.81.88 3.48 3.48 0 0 0-.862 1.379 3.482 3.482 0 0 0-.138 1.621c.09 1.32-.17 2.57-.19 4.22a5.802 5.802 0 0 0 2.06 4.48zm24.83 31.7a6.999 6.999 0 0 0 4.84 2 5.75 5.75 0 0 0 1.32-.16l.66-.17c.395-.109.777-.26 1.14-.45 1.73-.81 2.54-3.31 1.86-4.49a3.634 3.634 0 0 0-2.33-2.18 4.417 4.417 0 0 0-2.25-.12.864.864 0 0 1-.689-.187.859.859 0 0 1-.311-.643 1.183 1.183 0 0 1 .66-1.26.49.49 0 0 1 .57.17c0 .13.07 0 .12-.23l.13-.51a4.35 4.35 0 0 0 0-1.14 4.003 4.003 0 0 0-2.613-3.11 4.001 4.001 0 0 0-3.987.78 3.463 3.463 0 0 0-1 3c.09 1.31-.18 2.57-.2 4.21a5.848 5.848 0 0 0 2.08 4.49zm-178.81 25.47c1.84-3.43 3.45-7.17 3.48-11.59-.05-5.15-2.51-8.12-3.16-10.34a3.269 3.269 0 0 1 1.14-3.7c2.29-2.23-.64-5.53-2.64-4a17.685 17.685 0 0 0-4.32 3.64 11.275 11.275 0 0 0-2.35 5.84c-.105 1.928.07 3.862.52 5.74.127.607.213 1.222.26 1.84v2.29a48.77 48.77 0 0 1-.08 5 7.598 7.598 0 0 1-1.51 4.35 2.005 2.005 0 0 1-1.6.68L187 482a2.625 2.625 0 0 0-2.32.34 3.42 3.42 0 0 0-1 4.1 3.759 3.759 0 0 0 1.68 1.69 8.47 8.47 0 0 0 1.52.7 7.7 7.7 0 0 0 7.2-1.13 14.877 14.877 0 0 0 4.19-5.02zm19.73-2.12a5.446 5.446 0 0 1-.22-1.74 15.58 15.58 0 0 1 .07-2.16c.188-1.457.485-2.898.89-4.31.83-2.9 2.19-5.86 3.41-9.24a38.203 38.203 0 0 1 2.23-5 2.792 2.792 0 0 0-.44-3.42 2.239 2.239 0 0 0-1.52-.7 1.906 1.906 0 0 0-1.47.73c-2.26 2.82-5.35 4.94-8.15 7.67a16 16 0 0 0-5 10.71 20.286 20.286 0 0 0 .79 6 32.453 32.453 0 0 0 2 5.62c1 1.78 2.3 3.14 2.68 4.56.084.279.101.573.05.86a3.1 3.1 0 0 0 .51 2.26 3.643 3.643 0 0 0 4.72.89 3.739 3.739 0 0 0 1.72-2.34 9.103 9.103 0 0 0 .25-2 10.352 10.352 0 0 0-.58-3.47c-.64-2.09-1.56-3.65-1.94-4.92zm-42.6-15.79c-.34 1-.68 2-.85 2.72-.17.72-.21 1-.4 1.74a14.33 14.33 0 0 1-1.15 2.67l-1.88 3.28a3.37 3.37 0 0 0 1.62 4.38 2.828 2.828 0 0 0 3-.44 6.834 6.834 0 0 1 1.41-.94c1.81-1 4.06-1.91 5.87-4.47a12.048 12.048 0 0 0 2-8.32 13.668 13.668 0 0 0-2.33-6.55c-.35-.52-.46-.79-1.07-1.91a3.145 3.145 0 0 0-2.107-1.348 3.132 3.132 0 0 0-2.423.618 2.078 2.078 0 0 0-.7 1.89 14.308 14.308 0 0 1-.99 6.68zm49.6 19.09a3.234 3.234 0 0 0 2.87 2.08 4.493 4.493 0 0 0 1.75-.39l1.14-.46a12.846 12.846 0 0 0 4.28-2.87 13.917 13.917 0 0 0 2.79-4.45 24.36 24.36 0 0 0 1.74-9.42 30.614 30.614 0 0 0-1.21-8.47c-.18-.68-.38-1.38-.49-2.07-.06-.38-.14-.62-.19-1.14a2.817 2.817 0 0 0-.958-2.095 2.813 2.813 0 0 0-2.202-.675 2.002 2.002 0 0 0-1.84 1.71 56.726 56.726 0 0 1-2.32 8.65 24.61 24.61 0 0 0-1.1 8c.07 2.44.13 5.15-1.75 7l-.76.59c-.26.19-.46.32-1 .69a2.867 2.867 0 0 0-.75 3.32zm24.06-25.34a3.99 3.99 0 0 0-2.66-1.64c-2.18-.05-3.5 2.25-2.46 3.7a10.142 10.142 0 0 1 1.22 3.93 8.203 8.203 0 0 0 2.5 4.54 5.07 5.07 0 0 0 1.7.87c.14.08-.38 0-.51 0h-.15c.12.33.54.95.71 1.29.422.743.758 1.531 1 2.35.77 2.23 1.71 4.86 1.3 7.52-.18.789-.297 1.592-.35 2.4a3.002 3.002 0 0 0 2.1 2.43 3.158 3.158 0 0 0 3.34-.87c.511-.75.949-1.547 1.31-2.38a19.725 19.725 0 0 0 2.25-8.79 18.707 18.707 0 0 0-.48-4.89 12.092 12.092 0 0 0-2.34-5 10.757 10.757 0 0 0-2.13-1.94l-1-.66a8.64 8.64 0 0 0-1.27-.66c-1.63-.69-1.79-.22-2.64-.73a8.98 8.98 0 0 1-1.44-1.47zm-87.85-10.73-1.32-1.67a3.129 3.129 0 0 0-2.66-1.37 3.082 3.082 0 0 0-2.17 1 2.12 2.12 0 0 0-.33 2.14c.88 2.22.21 4.71.61 7.64a6.426 6.426 0 0 0 2.63 4.36c.86.59 1.853.954 2.89 1.06a7 7 0 0 0 2.63-.26c.91-.3 1.32-.54 1.17-.68-.15-.14-.22-.24-.2-.35.02-.11.19-.06.2-.18.53.1 1.22 1.47 1.21 2.22v.17c0 .07-.12.39-.17.58-.1.468-.1.952 0 1.42a3.37 3.37 0 0 0 1.71 2.1 2.905 2.905 0 0 0 3.18-.29 7.446 7.446 0 0 0 1.55-2.19 9.689 9.689 0 0 0-.29-9.2 8.872 8.872 0 0 0-1.78-2.2 7.083 7.083 0 0 0-3-1.6 9.707 9.707 0 0 0-2.74-.23l-.84.05h.05c.34.17.24.47-.32-.15s-1.22-1.38-2.01-2.37z" fill="#174f78"/></svg>
