<svg xmlns="http://www.w3.org/2000/svg" width="25" height="14" viewBox="0 0 25 14" fill="none"><path fill="#fff" stroke="#fff" stroke-width=".2" d="M5 7.5 2 7l4 1.5L4 11l.5 2.5s1.379.105 1.5-.5c.086-.428-.305-.61-.5-1s-.452-.566-.5-1c-.136-1.227 1.775-.845 3-1 1.562-.198 4 .5 4 .5l4.5 1s2.556 2.303 2 1.5c-.314-.454-1-1-1-1l.5-.5 2.5-2 .5-2 .5-2.5.5-1 2.5-1.5-1-1s-.83-.785-1.5-1c-.744-.238-1.301-.35-2 0-.494.247-1 1-1 1L18.5 5 17 6l-4 .5-1.5.5-4-.5-2.5 1Z"/><path fill="#174F78" d="M24.796 1.88c-.058 0-.087-.03-.144-.03h-.142a1.192 1.192 0 0 1-.145-.031 1.319 1.319 0 0 0-.488-.152.838.838 0 0 1-.372-.18c-.206-.153-.402-.333-.633-.486a.946.946 0 0 1-.412-.424.82.82 0 0 0-.235-.3.765.765 0 0 0-.34-.154.52.52 0 0 1-.228-.06 2.377 2.377 0 0 0-.46-.062h-.546a.238.238 0 0 0-.142.03 1.76 1.76 0 0 1-.206.062c-.086.03-.206.06-.286.09-.114.03-.23.05-.346.06a.498.498 0 0 0-.287.121.834.834 0 0 0-.206.274c-.071.14-.169.264-.286.363a.702.702 0 0 0-.194.256.74.74 0 0 0-.063.32c-.008.227-.047.451-.116.666-.029.06-.029.122-.057.152-.03.03-.03.152-.058.218a6.74 6.74 0 0 0-.206.848 2.095 2.095 0 0 1-.346.817 2.552 2.552 0 0 0-.206.363l-.058.092a2.155 2.155 0 0 1-.575.698.214.214 0 0 1-.086.03.392.392 0 0 0-.258.03.1.1 0 0 0-.057.029c-.094.024-.19.034-.287.03a.841.841 0 0 0-.545.092.104.104 0 0 1-.087.03.1.1 0 0 0-.058.03c-.028 0-.028.03-.057.03a.306.306 0 0 0-.171.092.827.827 0 0 1-.318.122 5.667 5.667 0 0 1-.659.059h-.057a.35.35 0 0 0-.173.03.742.742 0 0 1-.373.061h-.258a2.47 2.47 0 0 0-.46.03c-.19.031-.383.031-.574 0-.315-.03-.604-.06-.89-.06h-.89c-.115 0-.206.03-.315.03-.11 0-.144.03-.23.03a1.772 1.772 0 0 1-.413 0h-.206a1.103 1.103 0 0 0-.317 0h-.206c-.23.036-.464.026-.69-.03h-.113a.535.535 0 0 0-.206.03 2.377 2.377 0 0 0-.46.061h-.206a1.116 1.116 0 0 0-.315.03c-.13.058-.27.09-.412.092-.21.018-.415.08-.603.18-2.306.733-4.67-.217-4.67-.217S.665 5.72.206 5.785a.2.2 0 0 0-.146.064.224.224 0 0 0-.06.154c.175.478 1.908 1.606 2.398 1.74.296.082.603.108.904.169.307.063.617.106.93.128.411.026.669.24.644.704a.208.208 0 0 1-.03.096l-.075.311c-.029.091-.058.15-.087.241a.861.861 0 0 1-.113.244l-.029.091c-.029.03-.029.09-.057.12a1.277 1.277 0 0 1-.489.485c-.344.217-.459.304-.286.79.056.15.113.27.171.423l.058.122a.983.983 0 0 1-.03.757c-.129.257-.225.532-.285.817a.49.49 0 0 0 .01.312c.038.1.107.182.196.234.007 0 .015.003.02.009a.031.031 0 0 1 .008.021c.03.03.058.03.087.061A.4.4 0 0 0 4.23 14h.173c.231 0 .46-.03.69-.03a.59.59 0 0 0 .306-.063.629.629 0 0 0 .238-.211c.029-.061.087-.15.029-.242-.029-.03-.029-.091-.058-.122v-.03c.162.025.325.035.489.03h.545a.301.301 0 0 0 .206-.074.332.332 0 0 0 .11-.197.293.293 0 0 0 .003-.166.28.28 0 0 0-.088-.139l-.346-.272c-.084-.06-.142-.121-.229-.182a2.718 2.718 0 0 1-.315-.303l-.029-.03a.492.492 0 0 1-.086-.393c0-.092.058-.122.142-.153.085-.03.173-.03.26-.06.086-.031.144-.031.206-.061a1.89 1.89 0 0 0 .488-.18.397.397 0 0 1 .173-.062h.029a.807.807 0 0 1 .257-.06l.346-.092c.206-.06.412-.122.573-.183a.605.605 0 0 1 .317 0c.215.063.437.093.66.092h.086c.374-.02.748-.01 1.12.03h.258c.058 0 .144-.03.206-.03a.21.21 0 0 0 .115-.03 2.18 2.18 0 0 1 1.32.151c.178.086.36.159.547.218.115.03.23.089.315.12.236.111.49.173.748.182a.166.166 0 0 1 .115.03.098.098 0 0 1 .085.031h.028c.087 0 .173.03.26.03h.196c.192.006.385.026.574.061.197.056.4.086.604.09.115-.005.23.005.344.03h.144v.03c0 .03.029.061.029.092.023.207.094.405.206.576l.029.06c.109.159.196.332.26.516a.59.59 0 0 0 .144.23c.065.062.143.108.228.133.087.03.206.061.315.092h.03c.264.05.534.07.803.06h.401a.355.355 0 0 0 .232-.069.389.389 0 0 0 .141-.204 2.941 2.941 0 0 0-.229-.425.917.917 0 0 0-.315-.271c-.057-.061-.144-.092-.206-.152a.25.25 0 0 0-.183-.094.027.027 0 0 1-.015-.017.03.03 0 0 1-.002-.011c-.028-.03-.086-.061-.115-.122-.029-.061-.058-.09-.086-.15-.03-.061 0-.03-.03-.061.152-.129.316-.24.489-.333.087-.06.173-.091.258-.152.028-.03.086-.03.144-.06a.941.941 0 0 0 .517-.303l.029-.03c.029-.03.086-.061.115-.092a1.7 1.7 0 0 0 .229-.182l.028-.03c.145-.15.287-.273.46-.425.086-.089.173-.15.257-.241.085-.092.116-.092.145-.152.144-.218.26-.394.412-.607l.115-.18c.144-.247.224-.529.23-.818v-.88c.047-.168.065-.342.056-.516v-.218c.005-.113.025-.225.058-.332.058-.218.087-.455.144-.668l.015-.078a.201.201 0 0 0-.06-.18.36.36 0 0 0 .23-.031.261.261 0 0 0 .098-.118.279.279 0 0 0 .018-.156v-.03c0-.092-.029-.218-.029-.303 0-.084-.029-.121-.029-.217v-.15a.087.087 0 0 1 .058-.03.292.292 0 0 0 .144-.122c.107-.12.222-.231.344-.333a.486.486 0 0 1 .344-.122h.029a.931.931 0 0 0 .288-.03c.168-.07.331-.15.489-.242a1.53 1.53 0 0 1 .228-.121c.251-.086.478-.235.662-.435l.084-.092c.087-.09.173-.152.206-.274l.029-.03.029-.028a.235.235 0 0 0 .057-.122c.03-.091.03-.183.058-.244-.03-.234-.089-.326-.204-.356ZM10.815 7.94l.058-.03a.84.84 0 0 1-.412.182c.125-.054.239-.091.354-.152Zm-4.652 4.699c.03 0 .03.028.058.059a.346.346 0 0 1-.17.03l-.518-.09-.206-.03-.058-.456a.56.56 0 0 0-.028-.18.437.437 0 0 1 .144-.333c.029.03.029.03.029.058v.037c0 .102.024.202.068.291.045.09.11.167.19.225.057.06.115.09.172.152.095.095.202.175.32.237Zm6.03-2.366h-.086c-.03.03-.058.03-.058 0s.029-.028.058-.028a.1.1 0 0 0 .086-.03v.058Zm9.188-4.816a.162.162 0 0 0-.058.12c-.029.121-.058.243-.087.334-.028.092-.057.272-.086.394l-.029.122a.271.271 0 0 1-.206.058H20.8a1.28 1.28 0 0 0-.545.161 1.353 1.353 0 0 0-.432.385c-.061.088-.13.17-.206.244a4.22 4.22 0 0 0-.344.393c-.113.122-.206.272-.315.394-.029.03-.029.03-.029.06a.031.031 0 0 1-.008.022.028.028 0 0 1-.02.009l-.058.06c-.03.062-.087.092-.114.15-.119.1-.217.225-.288.366-.029.03-.029.061-.058.09a.724.724 0 0 0-.086.334.554.554 0 0 1-.056.363.677.677 0 0 1-.086.153c-.058.09-.087.217-.145.302a.673.673 0 0 0-.057.667.339.339 0 0 1-.03.333.868.868 0 0 0-.141.485.522.522 0 0 1-.087.302c-.115.152-.057.244.03.366l.028.028.084.091a.808.808 0 0 0 .2.274c.084.075.183.13.289.161.145.04.276.124.375.243.028.03.028.03.028.061a.22.22 0 0 1-.23.03c-.144 0-.287-.03-.46-.03a.84.84 0 0 1-.346-.083.883.883 0 0 1-.286-.221 7.782 7.782 0 0 1-.344-.515l-.058-.12c-.029-.03-.029-.06-.057-.122-.03-.06-.03-.03-.03-.06a.386.386 0 0 1-.026-.303c0-.03.027-.06.027-.091.02-.117.06-.23.115-.333.029-.06.058-.152.087-.217.036-.097.085-.189.144-.272a.208.208 0 0 0 .029-.183.18.18 0 0 0-.074-.073.167.167 0 0 0-.1-.018.24.24 0 0 0-.172.091c-.056.122-.143.218-.207.333l-.206.304c-.057 0-.086 0-.113-.03a.113.113 0 0 1-.029-.091v-.364l-.086-.03c-.058-.03-.087-.03-.115-.06-.03-.031-.058-.031-.087-.031a.703.703 0 0 1-.206-.122 2.283 2.283 0 0 0-.517-.302 1.585 1.585 0 0 0-.344-.122 1.764 1.764 0 0 0-.206-.061 6.314 6.314 0 0 0-1.092-.241.6.6 0 0 1-.229-.03c-.115 0-.205-.031-.315-.031a.76.76 0 0 0-.26.03c-.057 0-.115.03-.17.03a1.773 1.773 0 0 0-.604.15c-.273.114-.533.26-.774.436h-.03a.104.104 0 0 1-.086.03c-.36.06-.726.09-1.091.09h-.489a3.322 3.322 0 0 1-.919-.09.744.744 0 0 0-.515 0l-.346.09c-.057.03-.084.03-.142.06a.1.1 0 0 0-.057.03.209.209 0 0 1-.116.03 4.83 4.83 0 0 0-.919.303l-.086.03c-.029 0-.058.031-.087.031a1.616 1.616 0 0 1-.543.152h-.03a.7.7 0 0 0-.205.061h-.03c-.028.03-.086.03-.114.061a.231.231 0 0 1-.107.063.222.222 0 0 1-.122-.002c-.029 0-.058.03-.115.06l-.03.03c-.057.03-.084.09-.141.151-.145.218-.318.485-.173.848 0 .03.028.061.028.122v.06c0 .062.03.092.03.153s.028.218.057.302c.024.15.063.295.115.435 0 .061.027.092.027.152l-.027.03c-.26.12-.517.062-.805.031a.239.239 0 0 1-.142-.03.028.028 0 0 1-.02-.009.031.031 0 0 1-.01-.021c0-.031-.028-.061 0-.061.03-.061.03-.122.058-.183.03-.06.056-.18.085-.302.02-.108.06-.21.115-.303a.338.338 0 0 0 .087-.217v-.122a1.845 1.845 0 0 0-.087-.695c-.029-.061-.029-.092-.057-.153a3.202 3.202 0 0 1-.143-.515c.041-.076.1-.139.171-.183a1.43 1.43 0 0 0 .231-.15c.168-.126.306-.292.402-.485l.206-.03.69-.091a.788.788 0 0 0 .257-.061c.058 0 .087-.03.145-.061.09-.08.199-.131.315-.15a.754.754 0 0 0 .344-.183c.152-.119.316-.22.488-.302A7.21 7.21 0 0 1 8.691 8.8h.054a.695.695 0 0 1 .43 0c.251.09.524.09.775 0l.086-.03c.171-.03.344-.092.517-.122a1.2 1.2 0 0 0 .504-.125c.158-.079.298-.19.413-.33.058-.06.086-.121.144-.152a.995.995 0 0 0 .26-.333c.16-.314.397-.576.688-.758a.515.515 0 0 1 .144-.06.316.316 0 0 0 .183-.041.34.34 0 0 0 .132-.14c0-.031.029-.031.058-.031h.029c.251-.075.513-.106.774-.092.113.03.231.03.344 0h.03a1.39 1.39 0 0 1 .374-.06.53.53 0 0 0 .206-.03h.058l.144-.031c.206-.029.43-.09.66-.12a.373.373 0 0 0 .205-.091c.058-.03.087-.061.142-.092.056-.03.058-.03.087-.06h.029a.214.214 0 0 1 .115-.061c.142-.03.288-.03.43 0 .03.121.087.217.058.335a.41.41 0 0 0 .044.254.378.378 0 0 0 .185.17c.086.03.173.09.26.121.028.029.057.029.086.059.029.03.056.03.084.03.207 0 .412.04.604.122h.029c.22.021.443.01.661-.03.205-.043.4-.13.573-.254a1.59 1.59 0 0 0 .43-.472c.03-.03.03-.061.058-.092a.673.673 0 0 1 .087-.152c.144-.18.286-.363.517-.363a.1.1 0 0 0 .086-.03c.032-.01.06-.03.08-.057a.171.171 0 0 0 .033-.096c0-.12.087-.18.173-.241.08-.053.167-.094.258-.122a.1.1 0 0 0 .058-.03.397.397 0 0 1 .173-.061l.028.03c.03.03.058.03.058.061l.206.165c-.045-.017-.093 0-.154.068Zm2.84-2.79c-.057 0-.142.03-.206.03-.179.042-.363.052-.546.03a.732.732 0 0 0-.344-.03c-.16.04-.325.051-.488.03h-.115c-.087.031-.144.062-.173.153a.157.157 0 0 0 .01.11c.015.033.043.06.076.073.074.069.161.118.256.144a.586.586 0 0 0 .29.006h.03c.09-.04.19-.05.285-.03h.03a.328.328 0 0 1-.23.06h-.172c-.187 0-.371.044-.54.127a1.279 1.279 0 0 0-.437.358.415.415 0 0 1-.113.091l-.029.03a.096.096 0 0 1-.029-.06l-.173-.637-.029-.09c0-.03 0-.03-.029-.06-.028-.03-.028-.091-.028-.122a3.877 3.877 0 0 1-.206-.607c-.03-.12-.087-.271-.116-.393a2.586 2.586 0 0 0-.228-.485.38.38 0 0 0-.058-.091.436.436 0 0 0-.115-.333l-.03-.03-.028-.03h-.029a.341.341 0 0 0-.25.12.38.38 0 0 0-.094.273.816.816 0 0 1-.115.304.616.616 0 0 0-.087.546v.028c.062.233.149.457.26.668.06.122.136.235.228.332a.512.512 0 0 0 .177.16c.07.037.147.057.225.058l.058.06c.05.06.108.11.173.15a.5.5 0 0 1 .115.218v.03c.056.242.113.516.171.788v.121h-.029a2.504 2.504 0 0 0-.824-.667 1.613 1.613 0 0 1-.46-.424 2.972 2.972 0 0 0-.285-.302 7.763 7.763 0 0 1-.633-.729.57.57 0 0 1-.115-.272c-.03-.152-.085-.24-.229-.271v-.03a.287.287 0 0 1 .029-.153v-.122a.953.953 0 0 1 .083-.348.91.91 0 0 1 .203-.287c.087-.06.116-.182.173-.274a.46.46 0 0 1 .138-.227.421.421 0 0 1 .235-.105c.087-.03.144-.03.23-.061.087-.03.207-.061.316-.092a2.97 2.97 0 0 1 .517-.06c.27-.002.54.029.803.09a.81.81 0 0 1 .46.364c.029.03.029.06.058.091l-.058.03a.515.515 0 0 1-.206.062.257.257 0 0 0-.113.111.278.278 0 0 0-.03.16.405.405 0 0 0 .03.183.271.271 0 0 0 .063.115.25.25 0 0 0 .108.068.338.338 0 0 0 .23-.122.514.514 0 0 0 .142-.363c.03-.03.058 0 .087 0l.206.15c.229.152.46.304.688.485.157.12.331.214.517.274.061.006.12.027.173.06.085.031.113.09.142.181.029.091.058.152.087.218.029.065.029.06.029.09 0 .031-.054.077-.112.077Z"/></svg>