<svg width="135" height="194" fill="none" xmlns="http://www.w3.org/2000/svg"><path fill-rule="evenodd" clip-rule="evenodd" d="M132.51 128.23c-2.33-4.47-5.37-8.75-7.53-12.62a1.844 1.844 0 0 1-.21-.58l-.38-.56a41.273 41.273 0 0 0-22.53-8.16c-4-4.667-8.067-9.267-12.2-13.8a71.52 71.52 0 0 1-6.32-5.79c-2.79-2.87-5.86-6.53-7.55-10.58-.88-1.82-1.79-3.63-2.78-5.38a5.23 5.23 0 0 0-.41-3.16l.18-1a21.3 21.3 0 0 0 5.88-12.25 16.2 16.2 0 0 0-5.08-13.58c-4.43-4-9.94-5.51-15.68-6.11-5.45-.56-11.2-.62-15.8 3a18.108 18.108 0 0 0-4.89 6.1 6.1 6.1 0 0 1-3.72 3.1 15.39 15.39 0 0 1-4.49.89 29.619 29.619 0 0 0-12.78 1.55c-1 .73-2.74 1-3.64 1.78-2.52 2.34-4.91 3-5.7 9.14a26.669 26.669 0 0 0-.24 3.86c0 1.42-1 2.47-1.74 3.67a7.52 7.52 0 0 0-.38 5.92 14.06 14.06 0 0 0 6 7.84c1.8 1.16 3.64 2.32 4 2.53a21.001 21.001 0 0 0 6.07 2.46 12.422 12.422 0 0 0 4.72 1.24 134.313 134.313 0 0 0 11 13.41c4.52 6.61 8.74 13.47 13.41 20a53.464 53.464 0 0 0-2.23 12.3c-.66 12.21 4.78 26.28 16.33 31.13l.16.11c.83.8 1.758 1.491 2.76 2.06 3.727.437 7.494.393 11.21-.13 5.79-.91 10.8-3.8 15.66-7 2.8-1.87 5.77-3.65 9.09-4.26a29.06 29.06 0 0 1 9.26.12c2.875.564 5.785.935 8.71 1.11a12.24 12.24 0 0 0 4.07-.65c3.21-2.82 6.07-4 7-8.27 1-1.16 2.09-4.2 2.79-5.58-.74-4.35-.2-10.17-2-13.82l-.02-.04ZM25 56.52a24.858 24.858 0 0 0-4.31-.07l-.13.12c-.642.47-1.31.904-2 1.3a1.1 1.1 0 0 1-.31.51 4.18 4.18 0 0 0-1.13 3.6A1.66 1.66 0 0 1 16 63.43c.155.495.418.95.77 1.33.83.9-.88 2.55-1.71 1.65-2.1-2.3-1.5-5.19.11-7.43a5.72 5.72 0 0 1 2.29-2.93c.067-.522.4-.973.88-1.19a18.34 18.34 0 0 1 7.56-.44c1.33.12.19 2.18-.88 2.1H25Zm93.18 85.38a1.067 1.067 0 0 1-.84.36 1.501 1.501 0 0 1-1.11 1c-.643.086-1.292.123-1.94.11-2.7.1-5.6-.05-7.9-1.42-1.08-.64.38-2.51 1.33-1.94.384.222.785.413 1.2.57a1.08 1.08 0 0 1 .9-.26 9.732 9.732 0 0 0 5.3-.13 4.234 4.234 0 0 1 3-1.69.757.757 0 0 1 .26 0c.09-.2.18-.4.27-.56a3.9 3.9 0 0 1 .16-1.27 1.19 1.19 0 0 1 1.83-.64c1.52 1.42-1.56 4.92-2.47 5.87" fill="#FFE180"/><path fill-rule="evenodd" clip-rule="evenodd" d="M42.56 105.16s.57.8.6.84c1.7 2.13 2.55 2.64 4.29 4.75.39.28.87-.18 1-.56.13-.38-.64-1.26-.84-1.51l-3.48-4.47a1 1 0 0 0-1.37-.18.698.698 0 0 0-.2 1.13Zm6.52-1.41a26.282 26.282 0 0 0-1.87-2.58.825.825 0 0 0-.76-.264.83.83 0 0 0-.62.514 1 1 0 0 0 0 1.18c.87 1.21 1.76 2.4 2.66 3.55.42.54 1.62.2 2-.36.14-.19-.92-1.34-1.41-2.04Zm-15.27-9.19c1.76 2.16 2.67 3.23 4.43 5.39a1.001 1.001 0 0 0 1.62-.13v-.06a1 1 0 0 0-.08-1.1L35.2 92.8a1 1 0 0 0-1.54 0c-.75.86.34 1.69.15 1.76Zm2.33-5.5c1.43 2.44 2.93 4.94 4.53 7.43a1 1 0 0 0 1.54.16c.252-.23.516-.447.79-.65a1 1 0 0 0 .19-1.37c-1.75-2.33-3.46-4.7-5.07-7.14a1.001 1.001 0 0 0-1.69.06c-.11.2-.22.4-.32.61a1 1 0 0 0 .03.9Zm-9.62-6.72c-1.68 0-3.356-.174-5-.52a1 1 0 0 0-1.16.65c-.157.513-.35 1.015-.58 1.5a1 1 0 0 0 .53 1.36 25.478 25.478 0 0 0 6.29 1.41 2.34 2.34 0 0 1 1.44.69c.44.54.6.94 1.3 1.26 2.05-1-.72-2.32 0-3.78a6.09 6.09 0 0 1 2.13-2.15.35.35 0 0 0-.22-.63c-1.6.11-3.16.23-4.73.21Zm-15.09-7.85a1.243 1.243 0 0 0-.27-.29 9.219 9.219 0 0 1-1.2-1 1 1 0 0 0-1.49.16c-.14.182-.29.355-.45.52A2.6 2.6 0 0 0 8 77.4a19.994 19.994 0 0 0 2.7 2.49c.81.63 1.64 1.23 2.48 1.8a1 1 0 0 0 1.49-.57c.141-.472.308-.936.5-1.39a1 1 0 0 0-.31-1.13 15.998 15.998 0 0 1-3.43-4.11ZM4.79 62.35a1.07 1.07 0 0 0-1.32-.78l-.46.09A1.999 1.999 0 0 0 1.37 64a15.3 15.3 0 0 0 1.45 4.12c.15.27.28.55.42.82a2.07 2.07 0 0 0 1.47 1.13 1.15 1.15 0 0 0 1.35-1.34c-.32-1.66-.95-4.99-1.27-6.38Zm4.3-13.47-.23-.24a1 1 0 0 0-1.37-.14c-1 .84-2.29 1.51-2.94 2.56-.59.97-1.127 1.972-1.61 3a1.94 1.94 0 0 0 1.77 2.73.9.9 0 0 0 .91-.73c.6-2.69 1.38-5.58 3.47-7.18Zm12.73-7.68c-3.17.015-6.27.95-8.92 2.69a1 1 0 0 0-.25 1.52l.16.18a1 1 0 0 0 1.33.19 14.09 14.09 0 0 1 7.71-2.43 1 1 0 0 0 .94-.83 1.15 1.15 0 0 1 0-.18 1 1 0 0 0-.97-1.14Zm30.52 76.52a15.641 15.641 0 0 1-.4-2.34 5 5 0 0 0-.86-2.21c-.24-.31-1.06-.39-1.25-.15a1 1 0 0 0-.08 1.09c.275.478.512.976.71 1.49a11.3 11.3 0 0 1 .78 6.45c-.14.66-.28 1.32-.44 2a1.001 1.001 0 0 0 1.22 1.18h.06a.999.999 0 0 0 .7-.74c.7-3.23 1.47-6.44 2.14-9.67.048-.166.068-.338.06-.51.4-1.85-1.14-3.21-1.6-3.61a1.527 1.527 0 0 0-1.48-.41 1.001 1.001 0 0 0 .09 1.24c.45.48.41.39 1 1 .215.244.317.567.28.89-.27 1.47-.64 2.84-.93 4.3ZM50.81 139c-.036-2.41.158-4.817.58-7.19a1.002 1.002 0 0 0-.9-1.17h-.17a1.001 1.001 0 0 0-1.06.82 39.342 39.342 0 0 0-.55 7.66.997.997 0 0 0 .925.961c.163.012.326-.016.475-.081l.13-.06c.35-.183.57-.545.57-.94Zm17.61 19.88a.992.992 0 0 0 .753-.267 1 1 0 0 0 .317-.733c0-1-1-1-1-1.08-.617-.01-1.233-.07-1.84-.18a28.69 28.69 0 0 1-3-.64 1.007 1.007 0 0 0-.826.123 1.003 1.003 0 0 0-.444.707c-.05.45-.09 1 1.26 1.46.15.08 2.82.47 4.78.61ZM66.84 163a14.272 14.272 0 0 1-3.93-1.3 1.734 1.734 0 0 0-1.282-.072c-.42.142-.77.44-.978.832-.08.14-.16.28-.23.42a1 1 0 0 0 .27 1.26 11.491 11.491 0 0 0 4 2c1.173.322 2.37.55 3.58.68a1.005 1.005 0 0 0 .82-.283 1.004 1.004 0 0 0 .29-.817v-.11a2.896 2.896 0 0 0-2.54-2.61Zm14.89-6.11a2.349 2.349 0 0 1 0-.26.992.992 0 0 0-.444-.684.997.997 0 0 0-.806-.126 32.494 32.494 0 0 1-5.73.94 1.002 1.002 0 0 0-.92 1.1v.22a1 1 0 0 0 1.05.91l.65-.05A34.478 34.478 0 0 0 81 158a1.004 1.004 0 0 0 .73-1.11ZM102.62 146s.36.13 1 .28a1.381 1.381 0 0 0 1.7-1.55 2.34 2.34 0 0 1 0-.41 1 1 0 0 0-.71-.94c-1.25-.41-2.48-.88-3.72-1.27-3.13-1-4.95-.52-6.45 1.81a1.71 1.71 0 0 0-.19 1.25c.21.65 1.82.84 2.14 0a1.836 1.836 0 0 1 .876-1.145 1.829 1.829 0 0 1 1.434-.155c1.2.29 2.7 1.65 3.92 2.13Zm2.6 8.76a1 1 0 0 0-.83-.89l-.51-.08c-2.18-.41-2.54.21-4.35 1.52-.12.09-1.51 2.11-.44 3.38a.9.9 0 0 0 1.22-.52c.94-1.73 2.06-2.28 3.81-2a.932.932 0 0 0 1.122-.632.928.928 0 0 0 .018-.468c-.02-.07-.03-.19-.04-.31Zm5.44-7.34c2.46 1.48 6.82-.46 9.6-2a1.816 1.816 0 0 0 .9-2 1.004 1.004 0 0 0-.933-.746 1.01 1.01 0 0 0-.417.076 23.118 23.118 0 0 1-8.53 1.6c-.64 0-.59.69-1 1.21-.41.52.27 1.23.38 1.86Zm18.7-24.61-.1.12c.491.774.88 1.607 1.16 2.48a16.37 16.37 0 0 1 .66 3.53 1.004 1.004 0 0 0 .74.92c.197.049.388.12.57.21.454.225.883.496 1.28.81a15.93 15.93 0 0 0-1.37-8.31.99.99 0 0 0-.982-.543 1.022 1.022 0 0 0-.378.113 7.256 7.256 0 0 1-1.58.67ZM96.7 92.83c-1.6-1.75-3.2-3.5-4.82-5.23a.999.999 0 0 0-1.5.07l-.11.13a1 1 0 0 0 .07 1.29l3.23 3.4c.8.85 1.18 1.76 2.68 2.26 1.48-.1.81-1.52.45-1.92ZM42.92 28.89c.32 1 .71 2.53 2.46 2.4 1.75-.13 2.21 0 3.89-.13a1 1 0 0 0 .9-1c0-.76-.06-1.52-.06-2.28a1 1 0 0 0-1-1 28.18 28.18 0 0 0-5.13.63c-.68.11-1.22.9-1.06 1.38Zm-6.54 9.95a1 1 0 0 0 1.86-.41 9.212 9.212 0 0 1 .21-1.89 8.3 8.3 0 0 1 1-1.91 1 1 0 0 0 .12-1l-.28-.6a1 1 0 0 0-1.71-.16 14.512 14.512 0 0 0-1.13 2c-.28.63-.55 1.27-.8 1.91a1 1 0 0 0 0 .81c.28.41.5.83.73 1.25ZM29 44a7.74 7.74 0 0 0 5.43-1c-.3-.51-.59-1-.84-1.57a1 1 0 0 0-1.31-.46 6.58 6.58 0 0 1-2.52.49.91.91 0 0 0-1 1.16c.12.452.2.914.24 1.38Zm25.27-15.76v1.68a1 1 0 0 0 1 1 37.388 37.388 0 0 1 5.59.22c.3 0 2 .5 2.63-.5.12-.83 0-.88-.53-1.57-.53-.69-2.25-.83-2.25-.84-1.85-.34-2.55-.61-5.27-1a1 1 0 0 0-1.17 1.01Zm13.85 3.11c-.06.16-.12.31-.19.47a1 1 0 0 0 .52 1.29 16.152 16.152 0 0 1 3.65 2.29 1 1 0 0 0 1.38-.08 1.76 1.76 0 0 0 .24-1.13c-.88-1.91-2.35-2.58-4.32-3.41a1 1 0 0 0-1.28.57Zm9.03 7.54c-.208.21-.428.407-.66.59a1 1 0 0 0-.22 1.22c.18.36.37.73.54 1.11.6 1.34 1.44 3.66 3.19 3.88a.94.94 0 0 0 .9-1.2 21 21 0 0 0-2.18-5.38 1.001 1.001 0 0 0-1.57-.22Zm2.14 11.73a1 1 0 0 0-.88.82c-.31 1.57-.13 1.94-1.22 3.5-.27.37-.89 2.23 0 2.78.62.37 1.65.53 2.4-1.25a14.23 14.23 0 0 0 1.32-4.63c.11-.7-.11-1.53-.81-1.37a10.9 10.9 0 0 1-.81.15Zm-3.73 13.57c0-.78.35-2.24-.5-2.6a1.4 1.4 0 0 0-1.92 1c-.58 1.53 0 4.94 2.24 8 .48.67 1.91 1.57 2.71.47.35-.47-.17-1.49-.09-1.5a16.002 16.002 0 0 0-1.54-2.43c-.99-1.25-.9-1.38-.9-2.94Zm8.9 15.35c-.29-.32-.6-.63-.9-1a.757.757 0 0 1-.13-.17l-1.58-2.61a1 1 0 0 0-1.5-.22l-.7.61a.999.999 0 0 0-.09 1.43c1.7 1.8 3.41 3.58 5.12 5.37a1 1 0 0 0 1.52-.1c.39-.85-.93-2.46-1.74-3.31Zm19.09 21.73a11.71 11.71 0 0 0-3.34-1.19 1.471 1.471 0 0 0-1.11 2.48c.113.138.249.256.4.35a10.7 10.7 0 0 0 2.29.86c1.41.45 2.83.86 4.24 1.28a1.003 1.003 0 0 0 1.14-.46l.41-.7a.996.996 0 0 0 .068-.847 1.013 1.013 0 0 0-.608-.593l-3.49-1.18Zm14.45 5.07c-1.32-.53-2.66-1-4-1.5a1.002 1.002 0 0 0-1.23.52 1.462 1.462 0 0 0-.156.625 1.462 1.462 0 0 0 .522 1.143c.167.139.363.239.574.292 2 .51 4.21 1.19 4.42 1.11a1 1 0 0 0 .69-1.86c-.247-.107-.52-.217-.82-.33Zm8.64 7.03a11.898 11.898 0 0 0-2-2.56c-.19-.18-.54-.92-1.18-.78a1.204 1.204 0 0 0-.69.59 6.688 6.688 0 0 1-.51.75.999.999 0 0 0 .08 1.27c.92 1 1.756 2.073 2.5 3.21.54.77 1 1.55 1.54 2.35a1 1 0 0 0 1.36.31l.65-.38a.995.995 0 0 0 .464-.61.992.992 0 0 0-.104-.76c-.7-1.14-1.37-2.29-2.11-3.39Zm2.24 25.75c.452-.796.827-1.633 1.12-2.5.07-.29.75-1.06.19-1.46-.94-.69-1.92 1.09-2.07 1.28a11.178 11.178 0 0 1-2.47 2.56.995.995 0 0 0-.33 1l.33 1.2a1.004 1.004 0 0 0 .753.691 1.001 1.001 0 0 0 .967-.331 24.751 24.751 0 0 0 1.51-2.44Zm2.37.06c-.25.45-2.43 3.63-2.6 4.2a12.984 12.984 0 0 1-1.09 2.54 1 1 0 0 0-.06.89c.09.2.18.4.28.6a1 1 0 0 0 1.77 0l.53-1.06c.91-1.89 1.7-3.83 2.49-5.76.206-.719.343-1.455.41-2.2.02-.32-.92-1.39-1.73.79Zm-19.36 17.26a.698.698 0 0 1 .14.1c1.4 1.21 4.69 0 6.24-.41a9.815 9.815 0 0 0 5.74-4c0-.17-.11-.34-.16-.51a1.008 1.008 0 0 0-.568-.623.996.996 0 0 0-.842.033 20.443 20.443 0 0 1-3.7 1.56 36.102 36.102 0 0 1-6.11 1.37 1 1 0 0 0-.87 1.08c.06.46.1.91.13 1.37v.03Zm-20.48-4.3c0-.19-.07-.38-.11-.56a.996.996 0 0 0-.679-.743 1.001 1.001 0 0 0-.981.223 13.81 13.81 0 0 1-3.25 2.45 2.16 2.16 0 0 0-.18 1.53.996.996 0 0 0 1.013.681.986.986 0 0 0 .417-.121 16.468 16.468 0 0 0 3.49-2.54.995.995 0 0 0 .28-.92Zm2.93 9.19a1 1 0 0 0-1.18-.39c-.4.15-.8.3-1.22.42-.81.25-1.62.45-2.44.63a.998.998 0 0 0-.77 1.13c0 .16.05.32.07.48a.996.996 0 0 0 .807.88.99.99 0 0 0 .423-.01c1-.24 1.88-.49 2.75-.74.49-.14 1-.31 1.43-.49a.998.998 0 0 0 .42-1.52c-.1-.12-.19-.25-.29-.39Zm-10.9 2.2c-.15-.4-.56-.78-1-.64a15.423 15.423 0 0 1-4.79.86c-3.1.31-2.8 1.33-2.7 2.27a.998.998 0 0 0 1 .87c2.388-.19 4.764-.5 7.12-.93a.99.99 0 0 0 .68-.511.998.998 0 0 0 .04-.849c-.06-.35-.21-.71-.35-1.07Zm-29.65-12.05c-.21-.31-1.23-2.33-2-3.65a1.145 1.145 0 0 0-.854-.533 1.16 1.16 0 0 0-.512.062 1.16 1.16 0 0 0-.434.281.999.999 0 0 0-.23 1.05 16.651 16.651 0 0 0 2.27 4.15 42.813 42.813 0 0 1 3 4.15 1.004 1.004 0 0 0 1.001.411.997.997 0 0 0 .789-.741l.06-.25a2.53 2.53 0 0 0-.8-2.4 13.476 13.476 0 0 1-2.29-2.53Z" fill="#E66C55"/><path fill-rule="evenodd" clip-rule="evenodd" d="M132.51 128.23c-2.33-4.47-5.37-8.75-7.53-12.62a1.844 1.844 0 0 1-.21-.58l-.38-.56a41.273 41.273 0 0 0-22.53-8.16c-4-4.667-8.067-9.267-12.2-13.8a71.52 71.52 0 0 1-6.32-5.79c-2.79-2.87-5.86-6.53-7.55-10.58-.88-1.82-1.79-3.63-2.78-5.38a5.23 5.23 0 0 0-.41-3.16l.18-1a21.3 21.3 0 0 0 5.88-12.25 16.2 16.2 0 0 0-5.08-13.58c-4.43-4-9.94-5.51-15.68-6.11-5.45-.56-11.2-.62-15.8 3a18.108 18.108 0 0 0-4.89 6.1 6.1 6.1 0 0 1-3.72 3.1 15.39 15.39 0 0 1-4.49.89 29.619 29.619 0 0 0-12.78 1.55c-1 .73-2.74 1-3.64 1.78-2.52 2.34-4.91 3-5.7 9.14a26.669 26.669 0 0 0-.24 3.86c0 1.42-1 2.47-1.74 3.67a7.52 7.52 0 0 0-.38 5.92 14.06 14.06 0 0 0 6 7.84c1.8 1.16 3.64 2.32 4 2.53a21.001 21.001 0 0 0 6.07 2.46 12.422 12.422 0 0 0 4.72 1.24 134.313 134.313 0 0 0 11 13.41c4.52 6.61 8.74 13.47 13.41 20a53.464 53.464 0 0 0-2.23 12.3c-.66 12.21 4.78 26.28 16.33 31.13l.16.11c.83.8 1.758 1.491 2.76 2.06 3.727.437 7.494.393 11.21-.13 5.79-.91 10.8-3.8 15.66-7 2.8-1.87 5.77-3.65 9.09-4.26a29.06 29.06 0 0 1 9.26.12c2.875.564 5.785.935 8.71 1.11a12.24 12.24 0 0 0 4.07-.65c3.21-2.82 6.07-4 7-8.27 1-1.16 2.09-4.2 2.79-5.58-.74-4.35-.2-10.17-2-13.82l-.02-.04ZM25 56.52a24.858 24.858 0 0 0-4.31-.07l-.13.12c-.642.47-1.31.904-2 1.3a1.1 1.1 0 0 1-.31.51 4.18 4.18 0 0 0-1.13 3.6A1.66 1.66 0 0 1 16 63.43c.155.495.418.95.77 1.33.83.9-.88 2.55-1.71 1.65-2.1-2.3-1.5-5.19.11-7.43a5.72 5.72 0 0 1 2.29-2.93c.067-.522.4-.973.88-1.19a18.34 18.34 0 0 1 7.56-.44c1.33.12.19 2.18-.88 2.1H25Zm93.18 85.38a1.067 1.067 0 0 1-.84.36 1.501 1.501 0 0 1-1.11 1c-.643.086-1.292.123-1.94.11-2.7.1-5.6-.05-7.9-1.42-1.08-.64.38-2.51 1.33-1.94.384.222.785.413 1.2.57a1.08 1.08 0 0 1 .9-.26 9.732 9.732 0 0 0 5.3-.13 4.234 4.234 0 0 1 3-1.69.757.757 0 0 1 .26 0c.09-.2.18-.4.27-.56a3.9 3.9 0 0 1 .16-1.27 1.19 1.19 0 0 1 1.83-.64c1.52 1.42-1.56 4.92-2.47 5.87" fill="#fff"/><path fill-rule="evenodd" clip-rule="evenodd" d="M42.56 105.16s.57.8.6.84c1.7 2.13 2.55 2.64 4.29 4.75.39.28.87-.18 1-.56.13-.38-.64-1.26-.84-1.51l-3.48-4.47a1 1 0 0 0-1.37-.18.698.698 0 0 0-.2 1.13Zm6.52-1.41a26.282 26.282 0 0 0-1.87-2.58.825.825 0 0 0-.76-.264.83.83 0 0 0-.62.514 1 1 0 0 0 0 1.18c.87 1.21 1.76 2.4 2.66 3.55.42.54 1.62.2 2-.36.14-.19-.92-1.34-1.41-2.04Zm-15.27-9.19c1.76 2.16 2.67 3.23 4.43 5.39a1.001 1.001 0 0 0 1.62-.13v-.06a1 1 0 0 0-.08-1.1L35.2 92.8a1 1 0 0 0-1.54 0c-.75.86.34 1.69.15 1.76Zm2.33-5.5c1.43 2.44 2.93 4.94 4.53 7.43a1 1 0 0 0 1.54.16c.252-.23.516-.447.79-.65a1 1 0 0 0 .19-1.37c-1.75-2.33-3.46-4.7-5.07-7.14a1.001 1.001 0 0 0-1.69.06c-.11.2-.22.4-.32.61a1 1 0 0 0 .03.9Zm-9.62-6.72c-1.68 0-3.356-.174-5-.52a1 1 0 0 0-1.16.65c-.157.513-.35 1.015-.58 1.5a1 1 0 0 0 .53 1.36 25.478 25.478 0 0 0 6.29 1.41 2.34 2.34 0 0 1 1.44.69c.44.54.6.94 1.3 1.26 2.05-1-.72-2.32 0-3.78a6.09 6.09 0 0 1 2.13-2.15.35.35 0 0 0-.22-.63c-1.6.11-3.16.23-4.73.21Zm-15.09-7.85a1.243 1.243 0 0 0-.27-.29 9.219 9.219 0 0 1-1.2-1 1 1 0 0 0-1.49.16c-.14.182-.29.355-.45.52A2.6 2.6 0 0 0 8 77.4a19.994 19.994 0 0 0 2.7 2.49c.81.63 1.64 1.23 2.48 1.8a1 1 0 0 0 1.49-.57c.141-.472.308-.936.5-1.39a1 1 0 0 0-.31-1.13 15.998 15.998 0 0 1-3.43-4.11ZM4.79 62.35a1.07 1.07 0 0 0-1.32-.78l-.46.09A1.999 1.999 0 0 0 1.37 64a15.3 15.3 0 0 0 1.45 4.12c.15.27.28.55.42.82a2.07 2.07 0 0 0 1.47 1.13 1.15 1.15 0 0 0 1.35-1.34c-.32-1.66-.95-4.99-1.27-6.38Zm4.3-13.47-.23-.24a1 1 0 0 0-1.37-.14c-1 .84-2.29 1.51-2.94 2.56-.59.97-1.127 1.972-1.61 3a1.94 1.94 0 0 0 1.77 2.73.9.9 0 0 0 .91-.73c.6-2.69 1.38-5.58 3.47-7.18Zm12.73-7.68c-3.17.015-6.27.95-8.92 2.69a1 1 0 0 0-.25 1.52l.16.18a1 1 0 0 0 1.33.19 14.09 14.09 0 0 1 7.71-2.43 1 1 0 0 0 .94-.83 1.15 1.15 0 0 1 0-.18 1 1 0 0 0-.97-1.14Zm30.52 76.52a15.641 15.641 0 0 1-.4-2.34 5 5 0 0 0-.86-2.21c-.24-.31-1.06-.39-1.25-.15a1 1 0 0 0-.08 1.09c.275.478.512.976.71 1.49a11.3 11.3 0 0 1 .78 6.45c-.14.66-.28 1.32-.44 2a1.001 1.001 0 0 0 1.22 1.18h.06a.999.999 0 0 0 .7-.74c.7-3.23 1.47-6.44 2.14-9.67.048-.166.068-.338.06-.51.4-1.85-1.14-3.21-1.6-3.61a1.527 1.527 0 0 0-1.48-.41 1.001 1.001 0 0 0 .09 1.24c.45.48.41.39 1 1 .215.244.317.567.28.89-.27 1.47-.64 2.84-.93 4.3ZM50.81 139c-.036-2.41.158-4.817.58-7.19a1.002 1.002 0 0 0-.9-1.17h-.17a1.001 1.001 0 0 0-1.06.82 39.342 39.342 0 0 0-.55 7.66.997.997 0 0 0 .925.961c.163.012.326-.016.475-.081l.13-.06c.35-.183.57-.545.57-.94Zm17.61 19.88a.992.992 0 0 0 .753-.267 1 1 0 0 0 .317-.733c0-1-1-1-1-1.08-.617-.01-1.233-.07-1.84-.18a28.69 28.69 0 0 1-3-.64 1.007 1.007 0 0 0-.826.123 1.003 1.003 0 0 0-.444.707c-.05.45-.09 1 1.26 1.46.15.08 2.82.47 4.78.61ZM66.84 163a14.272 14.272 0 0 1-3.93-1.3 1.734 1.734 0 0 0-1.282-.072c-.42.142-.77.44-.978.832-.08.14-.16.28-.23.42a1 1 0 0 0 .27 1.26 11.491 11.491 0 0 0 4 2c1.173.322 2.37.55 3.58.68a1.005 1.005 0 0 0 .82-.283 1.004 1.004 0 0 0 .29-.817v-.11a2.896 2.896 0 0 0-2.54-2.61Zm14.89-6.11a2.349 2.349 0 0 1 0-.26.992.992 0 0 0-.444-.684.997.997 0 0 0-.806-.126 32.494 32.494 0 0 1-5.73.94 1.002 1.002 0 0 0-.92 1.1v.22a1 1 0 0 0 1.05.91l.65-.05A34.478 34.478 0 0 0 81 158a1.004 1.004 0 0 0 .73-1.11ZM102.62 146s.36.13 1 .28a1.381 1.381 0 0 0 1.7-1.55 2.34 2.34 0 0 1 0-.41 1 1 0 0 0-.71-.94c-1.25-.41-2.48-.88-3.72-1.27-3.13-1-4.95-.52-6.45 1.81a1.71 1.71 0 0 0-.19 1.25c.21.65 1.82.84 2.14 0a1.836 1.836 0 0 1 .876-1.145 1.829 1.829 0 0 1 1.434-.155c1.2.29 2.7 1.65 3.92 2.13Zm2.6 8.76a1 1 0 0 0-.83-.89l-.51-.08c-2.18-.41-2.54.21-4.35 1.52-.12.09-1.51 2.11-.44 3.38a.9.9 0 0 0 1.22-.52c.94-1.73 2.06-2.28 3.81-2a.932.932 0 0 0 1.122-.632.928.928 0 0 0 .018-.468c-.02-.07-.03-.19-.04-.31Zm5.44-7.34c2.46 1.48 6.82-.46 9.6-2a1.816 1.816 0 0 0 .9-2 1.004 1.004 0 0 0-.933-.746 1.01 1.01 0 0 0-.417.076 23.118 23.118 0 0 1-8.53 1.6c-.64 0-.59.69-1 1.21-.41.52.27 1.23.38 1.86Zm18.7-24.61-.1.12c.491.774.88 1.607 1.16 2.48a16.37 16.37 0 0 1 .66 3.53 1.004 1.004 0 0 0 .74.92c.197.049.388.12.57.21.454.225.883.496 1.28.81a15.93 15.93 0 0 0-1.37-8.31.99.99 0 0 0-.982-.543 1.022 1.022 0 0 0-.378.113 7.256 7.256 0 0 1-1.58.67ZM96.7 92.83c-1.6-1.75-3.2-3.5-4.82-5.23a.999.999 0 0 0-1.5.07l-.11.13a1 1 0 0 0 .07 1.29l3.23 3.4c.8.85 1.18 1.76 2.68 2.26 1.48-.1.81-1.52.45-1.92ZM42.92 28.89c.32 1 .71 2.53 2.46 2.4 1.75-.13 2.21 0 3.89-.13a1 1 0 0 0 .9-1c0-.76-.06-1.52-.06-2.28a1 1 0 0 0-1-1 28.18 28.18 0 0 0-5.13.63c-.68.11-1.22.9-1.06 1.38Zm-6.54 9.95a1 1 0 0 0 1.86-.41 9.212 9.212 0 0 1 .21-1.89 8.3 8.3 0 0 1 1-1.91 1 1 0 0 0 .12-1l-.28-.6a1 1 0 0 0-1.71-.16 14.512 14.512 0 0 0-1.13 2c-.28.63-.55 1.27-.8 1.91a1 1 0 0 0 0 .81c.28.41.5.83.73 1.25ZM29 44a7.74 7.74 0 0 0 5.43-1c-.3-.51-.59-1-.84-1.57a1 1 0 0 0-1.31-.46 6.58 6.58 0 0 1-2.52.49.91.91 0 0 0-1 1.16c.12.452.2.914.24 1.38Zm25.27-15.76v1.68a1 1 0 0 0 1 1 37.388 37.388 0 0 1 5.59.22c.3 0 2 .5 2.63-.5.12-.83 0-.88-.53-1.57-.53-.69-2.25-.83-2.25-.84-1.85-.34-2.55-.61-5.27-1a1 1 0 0 0-1.17 1.01Zm13.85 3.11c-.06.16-.12.31-.19.47a1 1 0 0 0 .52 1.29 16.152 16.152 0 0 1 3.65 2.29 1 1 0 0 0 1.38-.08 1.76 1.76 0 0 0 .24-1.13c-.88-1.91-2.35-2.58-4.32-3.41a1 1 0 0 0-1.28.57Zm9.03 7.54c-.208.21-.428.407-.66.59a1 1 0 0 0-.22 1.22c.18.36.37.73.54 1.11.6 1.34 1.44 3.66 3.19 3.88a.94.94 0 0 0 .9-1.2 21 21 0 0 0-2.18-5.38 1.001 1.001 0 0 0-1.57-.22Zm2.14 11.73a1 1 0 0 0-.88.82c-.31 1.57-.13 1.94-1.22 3.5-.27.37-.89 2.23 0 2.78.62.37 1.65.53 2.4-1.25a14.23 14.23 0 0 0 1.32-4.63c.11-.7-.11-1.53-.81-1.37a10.9 10.9 0 0 1-.81.15Zm-3.73 13.57c0-.78.35-2.24-.5-2.6a1.4 1.4 0 0 0-1.92 1c-.58 1.53 0 4.94 2.24 8 .48.67 1.91 1.57 2.71.47.35-.47-.17-1.49-.09-1.5a16.002 16.002 0 0 0-1.54-2.43c-.99-1.25-.9-1.38-.9-2.94Zm8.9 15.35c-.29-.32-.6-.63-.9-1a.757.757 0 0 1-.13-.17l-1.58-2.61a1 1 0 0 0-1.5-.22l-.7.61a.999.999 0 0 0-.09 1.43c1.7 1.8 3.41 3.58 5.12 5.37a1 1 0 0 0 1.52-.1c.39-.85-.93-2.46-1.74-3.31Zm19.09 21.73a11.71 11.71 0 0 0-3.34-1.19 1.471 1.471 0 0 0-1.11 2.48c.113.138.249.256.4.35a10.7 10.7 0 0 0 2.29.86c1.41.45 2.83.86 4.24 1.28a1.003 1.003 0 0 0 1.14-.46l.41-.7a.996.996 0 0 0 .068-.847 1.013 1.013 0 0 0-.608-.593l-3.49-1.18Zm14.45 5.07c-1.32-.53-2.66-1-4-1.5a1.002 1.002 0 0 0-1.23.52 1.462 1.462 0 0 0-.156.625 1.462 1.462 0 0 0 .522 1.143c.167.139.363.239.574.292 2 .51 4.21 1.19 4.42 1.11a1 1 0 0 0 .69-1.86c-.247-.107-.52-.217-.82-.33Zm8.64 7.03a11.898 11.898 0 0 0-2-2.56c-.19-.18-.54-.92-1.18-.78a1.204 1.204 0 0 0-.69.59 6.688 6.688 0 0 1-.51.75.999.999 0 0 0 .08 1.27c.92 1 1.756 2.073 2.5 3.21.54.77 1 1.55 1.54 2.35a1 1 0 0 0 1.36.31l.65-.38a.995.995 0 0 0 .464-.61.992.992 0 0 0-.104-.76c-.7-1.14-1.37-2.29-2.11-3.39Zm2.24 25.75c.452-.796.827-1.633 1.12-2.5.07-.29.75-1.06.19-1.46-.94-.69-1.92 1.09-2.07 1.28a11.178 11.178 0 0 1-2.47 2.56.995.995 0 0 0-.33 1l.33 1.2a1.004 1.004 0 0 0 .753.691 1.001 1.001 0 0 0 .967-.331 24.751 24.751 0 0 0 1.51-2.44Zm2.37.06c-.25.45-2.43 3.63-2.6 4.2a12.984 12.984 0 0 1-1.09 2.54 1 1 0 0 0-.06.89c.09.2.18.4.28.6a1 1 0 0 0 1.77 0l.53-1.06c.91-1.89 1.7-3.83 2.49-5.76.206-.719.343-1.455.41-2.2.02-.32-.92-1.39-1.73.79Zm-19.36 17.26a.698.698 0 0 1 .14.1c1.4 1.21 4.69 0 6.24-.41a9.815 9.815 0 0 0 5.74-4c0-.17-.11-.34-.16-.51a1.008 1.008 0 0 0-.568-.623.996.996 0 0 0-.842.033 20.443 20.443 0 0 1-3.7 1.56 36.102 36.102 0 0 1-6.11 1.37 1 1 0 0 0-.87 1.08c.06.46.1.91.13 1.37v.03Zm-20.48-4.3c0-.19-.07-.38-.11-.56a.996.996 0 0 0-.679-.743 1.001 1.001 0 0 0-.981.223 13.81 13.81 0 0 1-3.25 2.45 2.16 2.16 0 0 0-.18 1.53.996.996 0 0 0 1.013.681.986.986 0 0 0 .417-.121 16.468 16.468 0 0 0 3.49-2.54.995.995 0 0 0 .28-.92Zm2.93 9.19a1 1 0 0 0-1.18-.39c-.4.15-.8.3-1.22.42-.81.25-1.62.45-2.44.63a.998.998 0 0 0-.77 1.13c0 .16.05.32.07.48a.996.996 0 0 0 .807.88.99.99 0 0 0 .423-.01c1-.24 1.88-.49 2.75-.74.49-.14 1-.31 1.43-.49a.998.998 0 0 0 .42-1.52c-.1-.12-.19-.25-.29-.39Zm-10.9 2.2c-.15-.4-.56-.78-1-.64a15.423 15.423 0 0 1-4.79.86c-3.1.31-2.8 1.33-2.7 2.27a.998.998 0 0 0 1 .87c2.388-.19 4.764-.5 7.12-.93a.99.99 0 0 0 .68-.511.998.998 0 0 0 .04-.849c-.06-.35-.21-.71-.35-1.07Zm-29.65-12.05c-.21-.31-1.23-2.33-2-3.65a1.145 1.145 0 0 0-.854-.533 1.16 1.16 0 0 0-.512.062 1.16 1.16 0 0 0-.434.281.999.999 0 0 0-.23 1.05 16.651 16.651 0 0 0 2.27 4.15 42.813 42.813 0 0 1 3 4.15 1.004 1.004 0 0 0 1.001.411.997.997 0 0 0 .789-.741l.06-.25a2.53 2.53 0 0 0-.8-2.4 13.476 13.476 0 0 1-2.29-2.53Z" fill="#174f78"/></svg>
