<svg xmlns="http://www.w3.org/2000/svg" width="32" height="26" viewBox="0 0 32 26" fill="none"><g fill-rule="evenodd" clip-path="url(#a)" clip-rule="evenodd"><path fill="#fff" d="m5.113.374-.336 1.9c-.15.854-.302 1.707-.453 2.56-.064.364-.128.742-.032 1.1.1.37.36.673.612.963.811.931 1.758 1.932 2.993 2.01.661.043 1.304-.193 1.95-.34 1.968-.448 4.014-.068 6.02.15 2.007.22 4.165.245 5.888-.802.467-.284.93-.732.886-1.275-.021-.255-.154-.514-.067-.755.06-.167.214-.28.36-.382l1.706-1.205c.54-.382 1.096-.77 1.734-.949.638-.177 1.388-.105 1.868.35.534.506.6 1.313.698 2.041.098.728.34 1.551 1.015 1.845.264.114.564.13.82.262.519.266.702.905.793 1.48.088.556.126 1.177-.207 1.633-.363.498-1.038.631-1.649.726l-3.17.494c-.29.045-.588.093-.84.24-.722.422-.78 1.409-1.007 2.211-.278.982-.91 1.82-1.347 2.743-1.15 2.424-.836 5.472.784 7.613-.718.36-1.53.664-2.311.479-1.165-.276-1.806-1.49-2.3-2.576l-1.96-4.313c-.074-.163-.152-.332-.288-.45-.119-.101-.27-.155-.419-.207l-3.26-1.134c-.635-.22-1.377-.432-1.944-.07-.292.184-.48.49-.656.786l-1.254 2.09c-.307.513-.618 1.035-.756 1.616-.137.581-.075 1.24.307 1.7.366.44.95.627 1.407.972.458.344.777 1.046.392 1.47-.163.179-.41.255-.65.293-1.363.217-2.67-.558-3.807-1.338-.307-.211-.62-.433-.825-.744-.323-.49-.324-1.116-.321-1.703.02-3.338-.15-6.678-.507-9.998-.021-.196-.044-.396-.128-.574-.157-.332-.496-.532-.804-.734C2.16 9.32.761 7.214.77 4.965.777 2.716 2.423.467 4.654.125c.155-.024.389.114.269.214"/><path fill="#1E5D8A" d="M2.738 8.936a.158.158 0 0 1 .156.068c.004.007.011.022.013.022-.004-.006.004 0 .007-.001l.19.053c.033.01.066.021.098.039a.18.18 0 0 1 .084.083c.063.138.05.28.04.413-.002.034-.007.068-.01.102.109-.012.229.011.325.061.2.107.331.247.482.326.132.077.312.125.492.192a.239.239 0 0 1-.074-.249.194.194 0 0 1 .116-.125c.027-.013.062-.014.08-.02l.04-.014c.053-.024.1-.05.141-.075a.561.561 0 0 1 .274-.069c.115-.006.253-.059.3-.17.024-.07.12-.117.21-.09.044.013.09.039.127.087a.25.25 0 0 1 .039.189.59.59 0 0 1-.186.417.85.85 0 0 1-.395.219.728.728 0 0 1-.44-.005c-.013-.003-.025-.008-.038-.012.135.068.265.155.369.233.157.112.294.211.428.246a.56.56 0 0 0 .202.018c-.016-.001.117-.01.178.027a.366.366 0 0 1 .212.405.327.327 0 0 1-.005.021l-.01.027-.013.035c-.144.375-.308.716-.441 1.062-.137.341-.245.693-.243 1.011a1.07 1.07 0 0 0 .023.216c.012.055.066.143.102.286l.007.035a.264.264 0 0 1 .39-.028c.025.02.038.043.055.067.007.01.001.006.002.01-.002.006-.02.024-.02.056-.003.03.02.073.058.081.038.013.08-.007.1-.042a.221.221 0 0 1 .137-.108.24.24 0 0 1 .306.229.34.34 0 0 1-.01.09l-.021.064a.468.468 0 0 1-.113.164c-.204.189-.563.177-.716-.025-.074-.087-.115-.162-.172-.24l-.001.013c-.012.101-.024.183-.02.246a.55.55 0 0 0 .052.204c.041.1.07.202.097.302.05.202.078.397.109.582.03.184.063.36.12.522.014.039.031.082.046.116.015.035.034.068.06.114a.757.757 0 0 1 .088.546c-.012.054-.02.088-.025.122-.008.057-.002.168.005.248.016.172.063.32.171.43a.726.726 0 0 0 .09.076l.054.034c.04.024.08.062.104.114a.243.243 0 0 1-.033.238c.014.01.03.019.038.034a.145.145 0 0 1 .007.154c-.017.037-.036.072-.048.108a.385.385 0 0 0-.023.215c.01.067.055.127.087.222a.556.556 0 0 1 .01.315c-.017.087-.044.177-.062.25-.039.142-.016.233-.023.438-.006.177-.034.337-.032.478 0 .072.006.125.018.17.015.06.042.12.077.226a.743.743 0 0 1 .024.354 1.606 1.606 0 0 1-.077.28c-.061.17-.127.308-.156.438a2.42 2.42 0 0 0-.055.499v-.002l.021-.046a.284.284 0 0 1 .069-.078l.041-.027a.297.297 0 0 1 .281.005.208.208 0 0 1 .013-.052c.027-.064.09-.153.223-.15.064 0 .136.033.176.077l.05.051a.418.418 0 0 1 .033.042.523.523 0 0 1-.062.629.424.424 0 0 1-.207.129.38.38 0 0 1-.234-.016c-.14-.06-.21-.153-.286-.24-.037-.046-.079-.096-.11-.16-.003-.007-.004-.019-.007-.027.003.091.008.184.017.277l.016.118c0 .012.012.055.007.101a.223.223 0 0 1-.033.1.285.285 0 0 1-.077.15c.02.045.043.087.075.128.138.175.343.287.544.397.1.055.202.111.3.179a2.4 2.4 0 0 1 .269.226c.169.157.33.321.508.46.175.142.367.258.576.313.205.061.43.057.655.048.451-.02.9-.107 1.357-.18l.012-.002.2-.036.018-.003a.064.064 0 0 1 .014-.002.101.101 0 0 0 .02-.002 1.283 1.283 0 0 0-.18-.254l-.026-.005-.107-.018c-.058-.012-.083-.02-.12-.03l-.114-.034a.808.808 0 0 1-.452-.314c-.1-.141-.16-.258-.22-.303-.008-.007-.016-.01-.023-.016a.72.72 0 0 0-.084-.024c-.035-.01-.08-.02-.133-.042a.614.614 0 0 1-.148-.09 1.04 1.04 0 0 1-.312-.45 2.228 2.228 0 0 1-.112-.467 1.587 1.587 0 0 1-.007-.506.728.728 0 0 1 .12-.299c.05-.07.116-.112.147-.132a.344.344 0 0 0 .022-.014l.012-.01-.008.01.077-.05.035-.174a.275.275 0 0 1-.138-.122c.005.002.009.002.014 0 .007 0 .015-.006.025-.01a.097.097 0 0 0 .017-.012.031.031 0 0 0 .009-.008l-.038.012c-.01.004-.023.004-.034.006-.003-.006-.008-.01-.01-.017l-.013-.038-.005-.017a.118.118 0 0 0 0 .033c0 .017.01.028.014.037l.005.004c-.094.016-.205-.011-.261-.075a.273.273 0 0 1-.076-.246.227.227 0 0 1 .143-.174c.05-.017.09-.028.134-.047.082-.034.193-.106.317-.094a.254.254 0 0 1 .178.1l.03-.027.086-.077a.697.697 0 0 0 .06-.064.181.181 0 0 0 .04-.107c.02-.097-.029-.345.097-.585a.823.823 0 0 1 .236-.275c.083-.064.153-.106.197-.145.01-.008.016-.016.024-.024-.01-.003-.02-.004-.03-.009a.282.282 0 0 1-.05-.033.553.553 0 0 1-.17.043.484.484 0 0 1-.303-.075.54.54 0 0 1-.243-.493.393.393 0 0 1 .039-.128c.016-.03.05-.102.105-.137a.241.241 0 0 1 .3.021.205.205 0 0 1 .063.211l.002.011c.004.012.016.012.02.002.008-.01-.012-.023 0-.036.012-.027.095-.082.165-.105a.365.365 0 0 1 .284.027l.011.008a.667.667 0 0 1 .105-.16c.098-.102.164-.138.214-.185a.775.775 0 0 0 .129-.142.661.661 0 0 0 .108-.357c.009-.147-.003-.32.014-.514.001-.037.007-.075.014-.114h-.003a.227.227 0 0 1-.051-.04 1.04 1.04 0 0 1-.12.03.294.294 0 0 1-.253-.091.287.287 0 0 1-.071-.217c.004-.08.063-.157.123-.179.032-.014.048-.016.065-.02a.383.383 0 0 0 .142-.073c.064-.046.084-.115.179-.182a.286.286 0 0 1 .216-.035c.031.008.054.022.078.035.018-.04.038-.079.052-.117a.861.861 0 0 0 .048-.204c.013-.085.03-.204.097-.322a.833.833 0 0 1 .232-.26.644.644 0 0 1 .365-.122.565.565 0 0 1 .378.14c.097.085.148.17.196.235a.574.574 0 0 0 .114.134c.018.01.017.013.048.021a.48.48 0 0 0 .091.015c.064.006.137 0 .237-.002a.787.787 0 0 1 .478.143l.01.006.024.02a.284.284 0 0 1 .075.11l.012.034.013.009a.33.33 0 0 0 .074.028c.057.016.134.02.228.03.057.006.06.007.103.007.034 0 .088-.005.152.002.13.016.238.072.327.147.087.076.138.15.187.204.097.11.204.183.34.22.284.073.651.04 1.01.146.089.026.177.06.26.103.063.02.153.126.14.223a.263.263 0 0 1-.125.208.253.253 0 0 1-.245.01c-.034-.015-.067-.033-.103-.044a1.139 1.139 0 0 0-.224-.055c-.312-.051-.681-.002-1.03-.159a.68.68 0 0 1-.236-.168c-.063-.068-.112-.131-.168-.178-.113-.1-.251-.125-.42-.119-.084.002-.175.005-.268-.01a.567.567 0 0 1-.268-.11 1.226 1.226 0 0 1-.21-.165.692.692 0 0 0-.178-.143.273.273 0 0 0-.202-.019c-.04.007-.085.017-.138.019a1.29 1.29 0 0 1-.137-.009.58.58 0 0 1-.273-.095c-.054-.044-.07-.078-.099-.114l-.036-.052-.008-.011-.296.05c-.018.16-.033.318-.07.482-.056.19-.17.337-.246.486a.71.71 0 0 0-.08.22c-.012.08-.013.162-.008.246.008.168.045.354.007.554-.03.428-.612.627-.443.875a.797.797 0 0 1-.225.576 2.033 2.033 0 0 1-.21.197c-.088.067-.164.108-.205.148-.013.014-.007.007-.024.03l-.072.103-.034.051a1.479 1.479 0 0 0-.02.033l.019.013c.033.03.059.065.07.102.016.043.015.068.014.094 0 .03-.002.051-.007.066l-.012.052-.002.01c-.005.022-.004.078-.026.153a.43.43 0 0 1-.125.19c-.116.093-.106.08-.159.154a.81.81 0 0 0-.09.189c-.024.07-.042.147-.058.23l-.012.063c-.003.017-.004.026-.005.046-.003.035-.003.091-.021.164a.45.45 0 0 1-.12.21c-.063.065-.155.098-.186.11-.006.001-.008.002-.01.004l-.007.008a.364.364 0 0 0-.047.075.6.6 0 0 0-.043.381c.012.068.034.14.063.199a.238.238 0 0 0 .097.103c.05.033.127.062.218.11a.845.845 0 0 1 .272.212c.072.081.127.172.17.24a.619.619 0 0 0 .128.156.75.75 0 0 0 .17.105c.056.023.133.04.226.063.089.02.211.061.302.12.087.055.172.12.248.203a.691.691 0 0 1 .166.32.679.679 0 0 1-.04.37c-.124.242-.353.33-.535.382-.19.05-.376.066-.56.075-.18.008-.362.004-.534.006-.167.005-.354.02-.533.02-.36.003-.735-.03-1.078-.174-.346-.137-.623-.389-.863-.648-.242-.26-.477-.522-.814-.644-.16-.072-.33-.15-.453-.29a.826.826 0 0 1-.173-.372 1.36 1.36 0 0 1-.294-.118.842.842 0 0 1-.198-.152.503.503 0 0 1-.113-.23c-.032-.171.017-.325.063-.468a.053.053 0 0 1 .023-.031l.087-.057c-.001-.097-.04-.165-.126-.192a.048.048 0 0 1-.021-.015l-.023-.027c-.015-.02-.027-.026-.065-.056a.342.342 0 0 1-.103-.14.623.623 0 0 1-.054-.3c.012-.198.085-.36.125-.5.048-.138.059-.25.03-.315-.02-.048-.061-.119-.096-.217a.598.598 0 0 1-.02-.349c.043-.15.127-.22.185-.28.062-.055.119-.105.133-.123.006-.01.012.007.014-.01a.318.318 0 0 0-.035-.089c-.042-.074-.078-.209-.04-.308.058-.196.226-.295.357-.377.137-.079.276-.166.33-.31a.137.137 0 0 1 .07-.077c.024-.097.06-.19.108-.276-.015-.004-.03-.006-.044-.014a1.342 1.342 0 0 1-.264-.184.874.874 0 0 1-.197-.258c-.18-.406-.074-.798-.207-1.143-.056-.175-.14-.35-.197-.543-.056-.194-.076-.386-.101-.576a2.281 2.281 0 0 0-.131-.537c-.032-.083-.08-.16-.124-.256a.822.822 0 0 1-.073-.317 4.337 4.337 0 0 0-.068-.558l-.023-.142-.012-.072c-.004-.032-.004-.025-.01-.045-.01-.033-.035-.08-.05-.155a.98.98 0 0 1-.01-.182c.012-.229.084-.427.152-.612.077-.189.142-.34.203-.528.088-.24.177-.478.268-.716a1.154 1.154 0 0 1-.172-.08c-.187-.102-.331-.233-.47-.354a4.21 4.21 0 0 0-.203-.17.943.943 0 0 0-.214-.115c-.162-.07-.351-.105-.536-.244-.165-.151-.221-.339-.356-.395-.063-.028-.146-.02-.227.01-.018.006-.04.017-.074.025a.195.195 0 0 1-.092-.005c-.058-.014-.119-.073-.115-.143.024-.196.076-.368.048-.547a.308.308 0 0 0-.04-.12c-.011-.015-.026-.036-.034-.037-.014-.005-.038-.004-.061-.005-.024-.002-.05-.002-.079-.016-.033-.02-.038-.037-.056-.053a.325.325 0 0 1-.082-.121c-.016-.035-.019-.083.008-.118a.148.148 0 0 1 .102-.059ZM5.029.242a.255.255 0 0 1 .306.117.246.246 0 0 1 .026.084l.006.049.021.184.002.014c.095-.087.187-.178.271-.275l.006-.008c.257-.128.568.099.568.1l.004.007c.125.201.394.33.518.621.107.282.058.575 0 .84-.066.26-.14.546-.386.77-.127.107-.273.156-.376.21a.655.655 0 0 0-.245.208c-.127.168-.161.442-.345.717-.099.132-.2.22-.256.303a.373.373 0 0 0-.031.053c-.009.023-.023.05-.028.072a.294.294 0 0 0-.019.109c.002.023.01.042.035.083.026.039.07.09.115.154a1.406 1.406 0 0 1 .119.204.708.708 0 0 1 .08.397c-.007.048-.005.082-.04.166-.053.106-.098.149-.131.198l-.012.017v.016a.293.293 0 0 1 .084.031c.09.056.117.12.142.169a.523.523 0 0 1 .028.303c-.015.084-.036.147-.038.176-.007.005.008.064.017.083.009.016.011.025.07.047.053.02.14.044.217.097a.561.561 0 0 1 .182.197.588.588 0 0 1 .067.246l.01.196.022.194c.016.128.04.228.117.309.038.04.087.082.133.107.05.028.115.05.18.087a.39.39 0 0 1 .167.165c.035.066.055.132.083.176.012.02.033.038.054.05.02.01.04.011.076.011a.284.284 0 0 1 .21.09c.048.048.09.11.129.132.05.021.108.018.162-.014.225-.162 1.197-.138 1.84-.403a.332.332 0 0 1 .022.005c.192-.053.388-.088.58-.128.13-.026.273-.062.42-.062.144-.003.286.019.422.048.272.06.531.144.792.174.528.066 1.03-.173 1.595-.252a9.087 9.087 0 0 1 1.67-.034c.143.015.276.03.426.058.154.03.307.09.44.165.239.15.41.208.64.185.113-.012.233-.044.356-.083.116-.037.274-.089.419-.112.302-.06.613-.009.88.063l.198.054c.055.015.116.024.178.03.125.01.257.004.389-.008a4.845 4.845 0 0 0 1.175-.27c.121-.05.25-.116.389-.144.17-.04.346-.04.518-.015a.198.198 0 0 1 .018-.048.227.227 0 0 1 .17-.11c.026 0 .056.018.087.041.063.051.128.11.175.093.02-.004.042-.012.067-.02a1.18 1.18 0 0 0 .052-.347.588.588 0 0 0-.05-.207l-.03-.063a.23.23 0 0 1-.016-.13.237.237 0 0 1 .053-.111l-.006-.018a.4.4 0 0 1 .004-.254c.035-.082.09-.144.14-.207.05-.063.103-.124.14-.19.035-.065-.049-.08-.036-.156.01-.074-.058-.21-.048-.296.014-.085.01-.225.047-.303a.897.897 0 0 1 .19-.268c.07-.055.31.033.395.024.085-.01.168-.006.242-.015.078-.008.109-.038.15-.109.077-.127.091-.286.141-.448a.727.727 0 0 1 .118-.236.54.54 0 0 1 .096-.098c.023-.011.018-.03.088-.047.024-.003.039 0 .048 0 .009.004.012-.004-.017.008l.053-.008.091.017c.124-.084.2-.203.189-.34a.063.063 0 0 1 .004-.031l.003-.01a.31.31 0 0 0 .017-.123.328.328 0 0 1 .08-.2.663.663 0 0 1 .14-.127.298.298 0 0 1 .23-.046c.077.018.123.048.169.067.022.01.042.018.062.025l.03.009c.02.007.038.01.068.029a.133.133 0 0 1 .027.021.19.19 0 0 0 .016-.008.333.333 0 0 1 .08-.17c.043-.045.074-.078.13-.123a.574.574 0 0 1 .584-.054c.015-.077.034-.157.068-.242a.575.575 0 0 1 .194-.256.55.55 0 0 1 .327-.1c.12.002.245.054.326.125.03.026.052.052.075.078a.996.996 0 0 1 .25-.1c.237-.057.465-.023.661.023.024.006.04.013.053.021a.463.463 0 0 1 .114.101c.004.002.003.004.01.01.008.009.017.015.027.02a.176.176 0 0 0 .075.023c.034.003.075 0 .12-.008l.024-.005.047-.033c.034-.023.093-.065.188-.077l.093-.012c.063-.006.163-.023.287.016a.545.545 0 0 1 .272.214.497.497 0 0 1 .065.165l.001.01a.58.58 0 0 1 .142-.037c.061-.008.125-.013.193-.013.13.003.304.022.458.162a.54.54 0 0 1 .148.244c.03.07.032.237-.021.327-.034.069-.065.11-.078.129v.037l.03.014c.051.023.127.062.19.116.007.004.06.054.08.091.024.04.038.082.046.115.01.048.01.078.01.1l.012.018a.282.282 0 0 0 .06.063c.038.033.113.059.235.117a.876.876 0 0 1 .329.283.746.746 0 0 1 .14.44c0 .155-.044.279-.08.386-.038.107-.232.19-.256.273-.026.09-.057.213-.115.333a.778.778 0 0 1-.265.314c0 .002.01.168-.023.234-.002.006.279.362.44.405.14.041.453-.004.617.027.158.032.283-.04.477.056a.968.968 0 0 1 .26.192c.08.076.146.193.179.27.072.152.14.322.194.486.054.167.1.337.127.517.032.2.014.381 0 .548l-.02.241c-.005.078-.002.141-.004.242-.004.181-.044.426-.233.603-.101.094-.221.127-.266.15a.189.189 0 0 0-.04.024.223.223 0 0 0-.005.02c-.008.03-.014.093-.053.169a.395.395 0 0 1-.176.17.44.44 0 0 1-.215.043.442.442 0 0 0-.072-.002c-.002 0-.009.002-.025.015l-.014.014a.08.08 0 0 0-.01.018c-.022.038-.034.15-.12.267a.518.518 0 0 1-.328.19c-.112.019-.197.013-.257.021-.111.011-.217.084-.362.187-.072.05-.158.105-.262.139-.026.01-.053.015-.08.021a.344.344 0 0 1-.111.007c-.063-.008-.097-.014-.09-.013a.01.01 0 0 1 .008.01.01.01 0 0 1-.011.009h-.002l-.07-.027a.322.322 0 0 0-.286.029l-.061.082a.142.142 0 0 1-.055.047c-.062.03-.16.1-.29.12a.76.76 0 0 1-.329-.037c-.092-.027-.174-.059-.246-.075a1.52 1.52 0 0 0-.243-.027c-.113-.001-.23.001-.348.006l-.714.039-.296.015c-.027.31-.149.611-.346.852-.045.059-.099.11-.152.162.006.03.007.055.008.067l.005.09.005.18a5.6 5.6 0 0 1-.04.72 4.55 4.55 0 0 1-.149.702c-.067.233-.17.452-.26.665-.096.216-.128.426-.182.672-.03.122-.082.248-.155.356-.072.109-.157.2-.233.287a2.812 2.812 0 0 0-.204.264.59.59 0 0 0-.094.265c-.008.063-.006.059.005.121.009.053.03.14.005.247a.587.587 0 0 1-.12.226.585.585 0 0 0-.042.058l-.053.078a.749.749 0 0 0-.137.24c-.005.023-.001.009-.002.03l.007.072c.002.033.005.075 0 .126a.468.468 0 0 1-.015.081l-.022.06a.661.661 0 0 1-.326.362c-.125.069-.212.1-.26.148-.092.082-.127.281-.131.511-.004.117-.005.25-.04.386-.04.145-.086.236-.12.345a1.155 1.155 0 0 0-.042.635c.048.226.11.455.167.681.117.456.25.907.39 1.356.146.194.291.383.41.594.082.15.154.304.209.468.052.164.093.34.062.527a.542.542 0 0 1-.124.263.61.61 0 0 1-.246.152c-.176.06-.348.067-.516.083-.083.007-.165.014-.244.025a1.69 1.69 0 0 1-.792-.067 1.935 1.935 0 0 0-.462-.11c-.16-.02-.33-.034-.505-.065-.173-.034-.365-.078-.543-.22a.712.712 0 0 1-.2-.272.955.955 0 0 1-.063-.3c-.01-.184-.017-.314-.061-.45a1.646 1.646 0 0 0-.19-.393c-.163-.258-.396-.502-.584-.808a2.364 2.364 0 0 1-.186-.369l-.043-.117c-.007-.018-.016-.037-.028-.082a.414.414 0 0 1-.01-.119.812.812 0 0 1 .025-.165.509.509 0 0 1 .028-.078.152.152 0 0 0-.012-.026l-.024-.052-.006-.013-.006-.01a.619.619 0 0 0-.067-.07c-.03-.029-.064-.061-.1-.103-.017-.023-.036-.046-.054-.078l-.034-.067a.433.433 0 0 1-.049-.176.24.24 0 0 0-.016-.08.902.902 0 0 0-.094-.189c-.155-.238-.472-.46-.614-.8-.157-.326-.149-.684-.234-.985a3.248 3.248 0 0 0-.18-.458 4.54 4.54 0 0 1-.098-.232c-.034-.08-.047-.155-.118-.183-.29-.162-.633-.146-.965-.195-.047-.005-.101-.046-.106-.1-.01-.05.01-.1.044-.136a.154.154 0 0 1 .137-.045l.123.012.5.034c.093.01.187.019.28.037l-.044-.116c-.013-.034-.023-.07-.035-.103a.27.27 0 0 1-.2.097l-.098-.004c-.02 0-.04-.004-.06-.006-.077-.012-.148-.05-.22-.086a.688.688 0 0 1-.203-.15.247.247 0 0 1-.126-.182.303.303 0 0 1 .037-.177.257.257 0 0 1 .176-.133c.049-.006.065-.012.087-.02a.656.656 0 0 1 .065-.015c.083-.01.155.022.215.104.06.08.118.17.195.181l.018.007c-.01-.039-.021-.076-.03-.116a1.904 1.904 0 0 1-.012-.647c.034-.222.099-.42.149-.595.022-.089.043-.173.057-.256a1.65 1.65 0 0 1 .07-.32.253.253 0 0 1-.1.014.3.3 0 0 1-.178-.078c-.046-.04-.068-.102-.084-.135-.037-.075-.115-.172-.117-.287a.238.238 0 0 1 .191-.237c.117-.025.218.002.285-.025a.253.253 0 0 1 .15-.01c.059.018.127.06.162.137a.207.207 0 0 1 .02.085l.032-.039.087-.11c.024-.031.048-.069.075-.11.053-.08.105-.184.204-.275a.49.49 0 0 1 .172-.104c.032-.011.063-.017.093-.022a.237.237 0 0 1 .137.014c.09.043.128.13.127.21a.197.197 0 0 1-.044.123.182.182 0 0 1-.072.049l-.042.075-.06.099c-.039.065-.073.133-.11.2-.07.134-.145.275-.199.408-.055.141-.089.266-.075.381.004.063.013.143.011.226 0 .088 0 .152-.021.258-.047.208-.15.338-.213.446a.77.77 0 0 0-.074.16l-.055.213c-.07.288-.09.6-.005.89a.133.133 0 0 1-.01.102l.013.008c.035.027.073.048.106.11.023.075.006.1.02.133a.508.508 0 0 0 .04.101c.073.14.175.272.258.429a.824.824 0 0 1 .046.1c.059-.093.118-.186.112-.28a.195.195 0 0 1 .098-.174.225.225 0 0 1 .287.037.293.293 0 0 1 .056.083c.013.03.02.066.025.071a.424.424 0 0 1 .03.078.974.974 0 0 1 .023.155c.007.103-.013.206-.032.309-.013.103-.049.206-.097.31a.27.27 0 0 1-.076.134.245.245 0 0 1-.299.011.821.821 0 0 0 .282.487c.113.098.254.185.394.306.036.03.07.063.104.099.017.016.033.036.049.055.01.009.05.065.06.098.029.072.035.118.041.127l.047.104.051.115a.773.773 0 0 0 .04.081 1.05 1.05 0 0 1 .065.072l.084.102c.055.073.102.127.163.227.03.05.056.118.07.166.013.056.023.075.035.168a.39.39 0 0 1-.002.056c-.005.026 0 .028-.017.072a.28.28 0 0 1-.047.075l.03.07c.024.06.057.116.094.173a.201.201 0 0 1 .095.008c.02.012.016.029.028.036.02.023.044.005.029-.016-.019-.03-.044-.06-.058-.116a.253.253 0 0 1 .033-.186.236.236 0 0 1 .202-.116.327.327 0 0 1 .248.122c.088.11.09.224.07.33a.32.32 0 0 1-.174.237c-.08.041-.146.061-.207.095.127.17.278.336.421.544a.242.242 0 0 1 .059-.154c.088-.084.178-.076.248-.059.072.016.139.08.165.138.05.088.15.178.187.295a.32.32 0 0 1-.083.332c-.091.092-.198.148-.244.232a.22.22 0 0 1-.075.07c-.004.123-.014.222 0 .265.01.03.02.048.054.08.033.03.09.061.15.09.057.032.223.036.409.05.417.055.705.24.976.279a.97.97 0 0 0 .183.01l-.003-.002a.337.337 0 0 1-.036-.095c-.01 0-.013.002-.02.004l-.015.009-.013.004c-.015-.002-.045-.023-.082-.048a.904.904 0 0 1-.13-.112.63.63 0 0 1-.184-.446.42.42 0 0 1 .093-.24.582.582 0 0 1 .092-.086.245.245 0 0 1 .353.08.209.209 0 0 1 .012.152l-.012.036c.002.004.004.005.006.007.002.004.013.003.017 0 .025-.019.045-.02.084-.005.065.029.16.092.219.253.047.149.027.292.026.402 0 .015-.003.031-.007.047a.687.687 0 0 0 .232-.073c.036-.024.042-.033.05-.057a.284.284 0 0 0-.013-.141 1.685 1.685 0 0 0-.17-.404c-.153-.264-.364-.527-.564-.79a6.19 6.19 0 0 1-.229-.313.235.235 0 0 1-.01.128.294.294 0 0 1-.038.074l-.04.05a.393.393 0 0 1-.062.058.474.474 0 0 1-.32.092.395.395 0 0 1-.29-.126c-.037-.036-.066-.075-.096-.107-.032-.036-.055-.052-.1-.1a.267.267 0 0 1 .086-.405.27.27 0 0 1 .316.072.096.096 0 0 0-.016.054c-.001.031.017.074.047.09.03.023.07.017.093-.006.03-.03.068-.06.129-.077a.255.255 0 0 1 .195.033 2.084 2.084 0 0 1-.195-.422c-.056-.167-.095-.333-.134-.495l-.057-.24c-.007-.044-.027-.059-.029-.169a.236.236 0 0 1 .113-.182l-.014-.01c-.072-.115-.089-.206-.143-.308-.087-.2-.186-.396-.285-.586-.1-.19-.202-.374-.301-.551l-.161-.267c-.057-.096-.124-.204-.166-.352a.697.697 0 0 1-.024-.182.51.51 0 0 1-.115.209c-.033.04-.07.076-.095.114-.03.055-.105.111-.179.107a.308.308 0 0 1-.208-.073.258.258 0 0 1-.074-.12.315.315 0 0 1-.002-.148c-.01-.06.01-.089.072-.153.06-.061.105-.168.057-.236a.227.227 0 0 1-.033-.166.245.245 0 0 1 .153-.181c.095-.049.258.017.31.102a.496.496 0 0 1 .134.341v-.002l.008-.031.009-.033c.036-.13.097-.254.16-.35.062-.1.077-.124.087-.196a.651.651 0 0 0 .004-.121c-.006-.064.003-.043-.015-.094-.014-.044-.05-.114-.057-.223a.394.394 0 0 1 .022-.154c.014-.04.026-.078.049-.114a.691.691 0 0 1 .331-.285c.22-.1.312-.124.337-.313l.006-.075a.22.22 0 0 1 .066-.158.238.238 0 0 1 .284-.024.214.214 0 0 1 .092.111c.01.023.011.046.014.068v.044c-.001.058-.004.118-.015.177-.037.24-.188.443-.364.589-.047.038-.1.072-.142.1-.043.028-.056.045-.063.075-.018.084.003.12.061.235a.509.509 0 0 1 .012.429c-.051.127-.105.214-.11.271a1.062 1.062 0 0 0-.022.255c.006.078.026.15.06.236.071.167.177.402.224.616.07.3.11.598.174.887.005-.182.034-.358.064-.518.022-.115.04-.225.049-.332.012-.113.013-.196.01-.326.001-.122 0-.256.038-.407a.885.885 0 0 1 .238-.411c.056-.057.104-.096.174-.145.089-.056.149-.074.195-.097a.234.234 0 0 0 .062-.033c-.003-.03-.01-.076-.014-.147a.513.513 0 0 1 .01-.137l.008-.028a.825.825 0 0 1 .043-.124c.043-.09.094-.15.12-.189l.052-.074.058-.077a.814.814 0 0 0 .075-.108.218.218 0 0 0 .016-.038l.006-.02v-.025c-.003-.032-.008-.09 0-.17a.829.829 0 0 1 .074-.245c.069-.142.146-.242.232-.347.089-.104.18-.188.256-.266.078-.08.14-.15.184-.228a1.43 1.43 0 0 0 .116-.282l.104-.339c.02-.06.04-.12.067-.182l.07-.16c.089-.21.165-.423.226-.64l-.034.116a.56.56 0 0 1-.268.112.824.824 0 0 1-.282-.005.368.368 0 0 1-.233-.125c-.041-.055-.078-.123-.046-.211a.185.185 0 0 1-.037-.104c-.001-.052.019-.078.053-.169.093-.123.237-.183.288-.264.046-.087.3-.196.531-.044.054.038.097.101.098.165a.252.252 0 0 1-.012.091c-.004.012-.017.036-.014.036.023.014.033.001.04.013l.029-.163a4.11 4.11 0 0 0 .04-.564 1.904 1.904 0 0 1-.379.135c-.189.048-.4.055-.555.067l-.518.048a4.62 4.62 0 0 1-.56.021c-.236-.012-.452-.127-.6-.222-.155-.098-.271-.17-.404-.21a1.433 1.433 0 0 0-.215-.046c-.084-.014-.145-.014-.273-.037a1.205 1.205 0 0 1-.572-.307 1.921 1.921 0 0 1-.36-.473 3.06 3.06 0 0 1-.347-1.069 2.7 2.7 0 0 1 .002-.655c-.009-.002-.019-.002-.028-.005a.342.342 0 0 1-.21-.15c-.025-.035-.044-.07-.066-.098a.502.502 0 0 1-.08-.111.403.403 0 0 1-.046-.156.23.23 0 0 1 .082-.193.249.249 0 0 1 .27-.022c.017.01.031.023.046.035.017.016.007.014.01.023l.001.046c-.009.07.038.155.096.136l.039-.009c.111-.342.31-.665.506-.928.038-.054.072-.106.103-.157a.674.674 0 0 1-.117-.01c-.034-.008-.056-.007-.136-.037a.523.523 0 0 1-.103-.068.394.394 0 0 1-.135-.21.31.31 0 0 1 .009-.178c.007-.023.013-.045.026-.066a.235.235 0 0 1 .213-.126.25.25 0 0 1 .194.085l.002.004.022-.014c.041-.023.082-.048.133-.064l.013-.002v-.03c-.003-.059 0-.12.007-.182a.508.508 0 0 1-.089-.043.348.348 0 0 1-.143-.067.882.882 0 0 0-.382-.032c-.262.04-.49.193-.747.306-.127.058-.28.09-.399.123-.126.037-.252.085-.382.132-.257.09-.55.187-.875.123-.285-.061-.53-.14-.755-.122-.23.012-.426.118-.696.237a1.644 1.644 0 0 1-.452.135 1.008 1.008 0 0 1-.525-.075c-.157-.068-.275-.15-.388-.216a1.232 1.232 0 0 0-.312-.127 3.332 3.332 0 0 0-.803-.093c.008.003.018.006.022.009.046.017.09.033.138.048.09.027.23.042.321.141.09.095.102.253.02.358-.08.109-.187.15-.235.219-.044.083-.244.135-.365-.026a.244.244 0 0 1-.046-.153.231.231 0 0 1 .012-.074.313.313 0 0 1-.182-.239.283.283 0 0 1 .109-.26.186.186 0 0 1 .054-.026c-.198-.002-.4 0-.602-.005-.237-.005-.484.047-.75.108a4.95 4.95 0 0 1-.552.1l.027.024a.57.57 0 0 1 .124.401.605.605 0 0 1-.134.347.87.87 0 0 1-.296.215c-.107.053-.204.1-.29.16a.147.147 0 0 1-.159.01.207.207 0 0 1-.103-.15.208.208 0 0 1 .018-.114c.014-.038.054-.072.058-.086.021-.037.04-.075.056-.11.033-.073.057-.139.086-.197l.03-.067a.307.307 0 0 1-.327-.367.241.241 0 0 1 .073-.126c-.388-.085-.731-.203-1.067-.161-.275.029-.54.046-.793.095a1.939 1.939 0 0 0-.363.106 1.36 1.36 0 0 0-.168.081c-.027.015-.053.033-.08.05-.01.004-.084.068-.171.063l.054-.006c-.149.039-1.327.14-1.416.092a1.579 1.579 0 0 0-.356-.128c-.032-.007-.144-.137-.183-.127-.049.014-.14.023-.203-.05-.07-.082-.114-.17-.16-.25a.502.502 0 0 0-.143-.182c-.059-.039-.14-.062-.234-.092a.719.719 0 0 1-.055-.02.6.6 0 0 1 .077.06c.03.031.058.052.085.122.025.067 0 .17-.056.229a.312.312 0 0 1-.198.098.3.3 0 0 1-.086-.009c.035.037.1.05.157.048.074-.007.158.052.181.145a.215.215 0 0 1-.019.16.26.26 0 0 1-.163.115.51.51 0 0 1-.708-.276.63.63 0 0 1-.035-.28.628.628 0 0 1 .07-.248.483.483 0 0 1 .563-.229.677.677 0 0 1-.31-.563c.002-.06.01-.109.01-.147a.219.219 0 0 0-.001-.046c-.002-.013-.002-.006-.01-.03a.66.66 0 0 0-.046-.1.28.28 0 0 0-.116-.121.194.194 0 0 0-.066-.018 1.62 1.62 0 0 1-.185-.043.111.111 0 0 1-.046-.026l-.02-.02a.692.692 0 0 1-.175-.284c-.034-.107-.04-.206-.047-.281a.833.833 0 0 0-.031-.188.343.343 0 0 0-.056-.112l-.02-.015c-.013-.01-.051-.037-.086-.084-.072-.101-.074-.177-.082-.232a.488.488 0 0 1 .032-.227c.027-.067.06-.114.084-.15a.606.606 0 0 0 .044-.07l.002-.007.005-.033a.271.271 0 0 0-.014-.13c-.028-.096-.115-.216-.202-.385a.982.982 0 0 1-.097-.306.773.773 0 0 1 .041-.346c.079-.226.231-.36.317-.466a.815.815 0 0 0 .173-.328c.042-.137.089-.329.22-.509a.851.851 0 0 1 .247-.22c.085-.05.157-.084.227-.12.143-.071.272-.137.37-.213a.61.61 0 0 0 .202-.277c.084-.212.067-.548-.015-.768-.028-.061-.028-.067-.078-.112-.045-.043-.116-.09-.192-.168 0-.002-.002-.003-.003-.004-.058.057-.115.117-.177.17-.05.042-.1.084-.152.124l-.078.06-.04.029-.012.009-.046.03a.311.311 0 0 1-.183.036.254.254 0 0 1-.19-.118.254.254 0 0 1-.035-.098l-.006-.047-.01-.095-.023-.207a.558.558 0 0 0-.044.134c-.01.045-.01.089-.011.13 0 .02 0 .044.005.052.002.017.005.045.006.077 0 .033 0 .072-.01.122a.532.532 0 0 1-.054.142.468.468 0 0 1-.252.227.475.475 0 0 1-.35-.015.754.754 0 0 1-.2-.13 2.53 2.53 0 0 1-.253-.269c-.113-.127-.194-.243-.291-.312.05.103.073.23.045.373a.722.722 0 0 1-.105.243c-.04.062-.079.111-.103.148a.488.488 0 0 0-.05.091.244.244 0 0 0-.014.064c-.001.033-.006.03.012.116a.236.236 0 0 1-.063.186.252.252 0 0 1-.149.075c-.026.004-.329-.002-.36-.037-.092-.061-.159-.032-.245-.02 0 0-.392.075-.402.078-.106.033-.238.008-.379-.035a.218.218 0 0 1-.182-.24c.004-.038.08-.272.17-.321.014-.007.162-.08.228-.063.177-.062.376-.12.606-.053.05.016.1.04.148.065a.455.455 0 0 1 .074-.25c.045-.069.096-.101.143-.136a.343.343 0 0 0 .123-.137.28.28 0 0 0 .01-.192c-.02-.057.04-.23.04-.257a.196.196 0 0 1 .06-.129.203.203 0 0 1 .116-.05 1.22 1.22 0 0 1 1.053.315c.044.045.067.072.089.097a.533.533 0 0 0 .012-.03l.028-.041c.039-.054.08-.102.123-.146.088-.086.176-.16.265-.233.034-.03.207-.175.268-.193Zm4.11 23.95.045.016c.057.027.082.042.132.051.09.019.204-.02.314.005.104.022.218.11.236.274a.346.346 0 0 1-.047.209c-.034.052-.064.087-.086.129a.221.221 0 0 1-.142.107.237.237 0 0 1-.24-.077.243.243 0 0 1-.057-.174.344.344 0 0 1 .016-.09c.017-.033-.019.015-.024.049a.208.208 0 0 0 0 .094c.03.093.043.079.033.084-.004.003-.017-.004-.031-.008-.058-.021-.13-.067-.205-.113-.018-.012-.04-.018-.097-.056a.29.29 0 0 1-.106-.14.277.277 0 0 1 .056-.28c.056-.075.184-.102.248-.064l-.045-.015ZM7.755 23.09l.053.011c.155.055.218.211.169.335-.033.089-.03.205-.088.3a.259.259 0 0 1-.28.114c-.115-.022-.208-.078-.287-.065a.21.21 0 0 1-.16-.045.254.254 0 0 1-.09-.21c-.002-.093.089-.208.199-.235l.035-.009a.027.027 0 0 1 .007-.005l.014-.008.025-.014c.03-.018.068-.017.112-.036.024-.012.037-.015.074-.042.06-.076.19-.111.27-.08l-.053-.011Zm-.331-2.012.04.002a.395.395 0 0 1 .096.018.44.44 0 0 1 .265.25.382.382 0 0 1 .009.324c-.044.1-.092.172-.129.254-.035.104-.22.225-.385.127a.264.264 0 0 1-.112-.296.259.259 0 0 1 .035-.07c.011-.015.039-.05.035-.035.006.009.018.02.031.025.03.013.071-.005.078-.037.01-.032-.016-.063-.047-.066a.209.209 0 0 1-.14-.067.26.26 0 0 1-.058-.206.254.254 0 0 1 .18-.208.362.362 0 0 1 .142-.013l-.04-.002Zm13.662-.836a.226.226 0 0 1 .267.101.32.32 0 0 1 .04.177.391.391 0 0 1 0 .094.746.746 0 0 1-.045.172.805.805 0 0 1-.22.295.531.531 0 0 1-.388.154.595.595 0 0 1-.203-.05c-.053-.014-.144-.071-.167-.15-.023-.075-.038-.169.043-.264a.253.253 0 0 1 .175-.077c.092.01.042-.014.034-.02-.038-.001-.036-.008-.014-.02l.112-.056c.098-.045.206-.116.228-.214a.198.198 0 0 1 .138-.142ZM7.133 19.7a.248.248 0 0 1 .273-.05.32.32 0 0 1 .126.095l.026.034.03.05a.44.44 0 0 1 .013.343.368.368 0 0 1-.213.233c-.098.041-.179.057-.255.093a.28.28 0 0 1-.188.026.264.264 0 0 1-.182-.149.26.26 0 0 1 .05-.28.241.241 0 0 1 .137-.07c.017-.001.054-.006.054.002 0 .007 0 .014.002.021.007.03.045.054.074.046.032-.007.043-.043.027-.067a.266.266 0 0 1-.049-.136.256.256 0 0 1 .075-.191Zm1.868-.306.068.01a.273.273 0 0 1 .19.218.301.301 0 0 1-.001.077l-.009.035c-.004.013-.007.024-.009.016a.034.034 0 0 0-.038-.013c-.03.01-.051.053-.045.086.003.037.035.062.065.056a.308.308 0 0 1 .153.008.25.25 0 0 1 .159.148c.046.08-.01.25-.127.304a.382.382 0 0 1-.077.031l-.045.011c-.03.009-.06.01-.09.011a.476.476 0 0 1-.33-.136.394.394 0 0 1-.138-.306c.002-.112.02-.197.014-.285a.234.234 0 0 1 .068-.201.277.277 0 0 1 .26-.06L9 19.394Zm-.893-.974a.228.228 0 0 1 .265.111.337.337 0 0 1 .037.173v.055l-.007.055a.553.553 0 0 1-.1.202c-.193.246-.58.3-.797.123-.056-.038-.101-.084-.146-.123-.023-.02-.042-.042-.065-.06a.235.235 0 0 1-.073-.094.251.251 0 0 1 .068-.266.26.26 0 0 1 .158-.072.31.31 0 0 1 .186.052c.06.002.042.017.108.07.064.054.207.021.225-.082a.19.19 0 0 1 .14-.144Zm11.637-1.433c.066.012.182.047.198.2a.273.273 0 0 1-.065.192c-.01.025.01.022.015.026.015 0 .017.004.019.034 0 .026-.002.08-.009.128-.006.048-.016.096-.026.145l-.014.073-.021.072c-.01.029-.014.033-.035.1a.259.259 0 0 1-.109.132.256.256 0 0 1-.258-.007c-.077-.036-.108-.142-.108-.194-.015-.094-.099-.187-.13-.292a.337.337 0 0 1 .079-.329c.09-.105.209-.163.282-.229a.244.244 0 0 1 .183-.051Zm-12.077-.048.066.006a.24.24 0 0 1 .164.341.37.37 0 0 1-.051.077c-.021.021-.046.042-.048.046-.03.032-.06.056-.085.077-.052.041-.09.056-.108.057-.01.002-.021.003-.036.02a.317.317 0 0 1-.053.148.227.227 0 0 1-.136.092.271.271 0 0 1-.32-.224c-.022-.092-.079-.224-.044-.35a.281.281 0 0 1 .248-.213c.117-.012.227.006.3-.043a.226.226 0 0 1 .17-.028l-.067-.006Zm1.31-.3c.065.002.124.037.126.025.06-.004.073.016.138.072.062.058.19.073.243-.003.051-.095.284-.122.375.087a.26.26 0 0 1 .003.176.695.695 0 0 1-.055.116.528.528 0 0 1-.138.141.603.603 0 0 1-.37.098.511.511 0 0 1-.343-.13c-.047-.038-.086-.079-.126-.115a.258.258 0 0 1-.103-.18.27.27 0 0 1 .083-.23.241.241 0 0 1 .168-.056Zm11.808-.524a.403.403 0 0 1 .397.481.431.431 0 0 1-.113.22c-.091.094-.137.095-.177.08-.008.005-.023.002-.02.031a.278.278 0 0 1-.008.111.284.284 0 0 1-.117.156.222.222 0 0 1-.247.014.564.564 0 0 1-.154-.155.302.302 0 0 1-.037-.187.43.43 0 0 1 .021-.098c.005-.016.013-.031.02-.046.002-.003.013-.03.017-.035l.015-.02a.44.44 0 0 1 .125-.098c.02-.013.047-.023.073-.032a.169.169 0 0 1-.061-.105.26.26 0 0 1 .1-.255.308.308 0 0 1 .166-.062Zm-1.862-.572c.073-.008.156.04.197.09a.53.53 0 0 1 .22.42.541.541 0 0 1-.241.465l-.058.038c.003-.007 0-.005 0-.005-.014.01-.03.031-.048.045a.18.18 0 0 1-.02.016c.055.312-.3.35-.403.243-.137-.073-.275-.257-.233-.458.04-.199.218-.302.289-.303.044-.012.098-.035.12-.086a.19.19 0 0 0-.004-.167.206.206 0 0 1 .035-.223.215.215 0 0 1 .146-.075Zm-3.289.28a.258.258 0 0 1 .306.006c.026.019.047.047.063.069l.034.032c.02.02.04.039.058.053.035.031.053.045.058.055.005.01.013.042.051.07.081.063.239.078.343.021a.209.209 0 0 1 .224.034c.034.03.069.073.075.142.007.07-.04.149-.09.189a.635.635 0 0 1-.36.234.695.695 0 0 1-.5-.059.538.538 0 0 1-.288-.392c-.015-.07-.023-.137-.038-.198-.004-.025-.025-.07-.02-.126a.188.188 0 0 1 .084-.13Zm7.612-.716c.076.008.133.06.16.102a1.14 1.14 0 0 0 .167.24c.084.097.227.19.278.366.05.172-.02.37-.175.464-.158.099-.32.09-.444.096-.074.007-.159-.052-.181-.145a.215.215 0 0 1 .02-.16c.029-.058.104-.1.16-.115.011-.04-.048-.042-.055-.046-.01-.004-.013-.027-.02-.036-.008-.025-.037-.112-.102-.209l-.052-.078a.312.312 0 0 1-.066-.236.283.283 0 0 1 .31-.243Zm-14.278-.38c.088-.06.228 0 .256.128.019.063-.023.155-.071.197a.46.46 0 0 0-.08.26c.002.033.015.055.024.07.008.01.018.019.02.027.004.004-.02.02-.007.024.004.002.008-.002.013-.005a.374.374 0 0 1 .115-.115.307.307 0 0 1 .333.01c.081.055.142.155.132.265a.268.268 0 0 1-.05.134l-.057.06a.766.766 0 0 1-.56.186.844.844 0 0 1-.301-.062.61.61 0 0 1-.26-.212.53.53 0 0 1 .034-.635c.143-.165.318-.237.46-.331Zm-1.4.01c.033.002.07.018.097.047.026.026.04.068.05.09.02.045.035.093.047.144a.56.56 0 0 1-.02.341.499.499 0 0 1-.299.287c-.098.032-.141.029-.197.033a1.55 1.55 0 0 1-.14 0c-.085-.002-.165-.01-.234-.013h-.02l.004.006c.024.09.003.188-.078.248a.217.217 0 0 1-.128.033l-.08-.005c-.026-.003-.052-.002-.079-.002a.232.232 0 0 1-.112-.019.227.227 0 0 1-.097-.087.565.565 0 0 1-.044-.515.56.56 0 0 1 .31-.307.61.61 0 0 1 .402-.018c.058.016.12.038.177.068.052.027.085.055.12.06.077.024.143-.091.122-.189-.015-.1.07-.209.2-.203Zm5.132-.15a.515.515 0 0 1 .464.227.604.604 0 0 1 .096.435.616.616 0 0 1 .193.286.238.238 0 0 1 .003.156.237.237 0 0 1-.229.151.223.223 0 0 1-.148-.066c-.026-.026-.027-.02-.037-.024-.007-.002-.018-.002-.028-.002-.042-.002-.097 0-.17-.02a.368.368 0 0 1-.223-.194.322.322 0 0 1-.007-.261c.025-.067.062-.114.066-.164.008-.05-.031-.1-.087-.118a.207.207 0 0 1-.136-.18.206.206 0 0 1 .046-.152c.042-.053.13-.08.197-.075Zm2.062.28a.27.27 0 0 1 .379-.11c.075.043.127.15.114.24a.293.293 0 0 1-.014.058h-.013a.105.105 0 0 0-.038.01c-.067.025-.085.138-.02.163.033.018.075.039.11.09.032.05.054.123.034.2a.244.244 0 0 1-.192.183c-.106.026-.226-.033-.25-.047a.452.452 0 0 1-.196-.239.37.37 0 0 1-.003-.292l.049-.123c.014-.036.014-.073.04-.132Zm7.717-.687a.24.24 0 0 1 .132.036c.045.027.088.09.093.164.01.067-.031.154-.024.162a.346.346 0 0 1-.008.07c-.01.043-.024.085-.04.13-.032.088-.086.18-.15.276a.77.77 0 0 1-.256.264.252.252 0 0 1-.27.043c-.071-.03-.147-.098-.14-.205.024-.108.044-.133.042-.191.002-.054.001-.106.006-.156a.38.38 0 0 1 .166-.267c.102-.078.215-.142.27-.232a.22.22 0 0 1 .18-.094Zm-11.128-.253c.066 0 .14 0 .219.03.08.031.152.084.204.164.053.08.079.193.068.294a.419.419 0 0 1-.112.25c-.122.12-.251.148-.335.228a.165.165 0 0 1-.208.01.297.297 0 0 1-.122-.201.365.365 0 0 1-.229-.3.343.343 0 0 1 .037-.21.48.48 0 0 1 .082-.112.56.56 0 0 1 .396-.153Zm10.039-.082.053.008a.243.243 0 0 1 .143.123c.029.068.043.1.047.153a.363.363 0 0 1-.014.152.51.51 0 0 1-.169.239.648.648 0 0 1-.228.111c.005-.01.003-.018-.006-.011-.019.01-.047.08-.116.153-.08.084-.159.098-.232.116l-.204.025a.195.195 0 0 1-.143-.036.254.254 0 0 1-.082-.255.243.243 0 0 1 .098-.139c.066-.05.071-.087.052-.093-.008-.004-.009-.01-.005-.025a.424.424 0 0 1 .05-.1.36.36 0 0 1 .101-.102c.057-.04.096-.04.133-.046.074-.007.137.007.195-.001.056-.003.113-.032.11-.077-.01-.067.038-.15.123-.18a.24.24 0 0 1 .147-.007l-.053-.008Zm-4.986-.054a.484.484 0 0 1 .192.022c.255.084.425.395.328.626-.041.115-.089.192-.124.293a.231.231 0 0 1-.203.138.273.273 0 0 1-.254-.132.276.276 0 0 1-.033-.175c.002-.032.014-.056.024-.083l.007-.014h.015a.087.087 0 0 0 .047-.017c.026-.017.05-.06.04-.097a.087.087 0 0 0-.081-.07.25.25 0 0 1-.16-.065.237.237 0 0 1-.07-.235.242.242 0 0 1 .117-.147.36.36 0 0 1 .087-.034l.068-.01Zm-6.627-.3a.26.26 0 0 1 .103.028c.022.008.034.008.053.012a.618.618 0 0 1 .535.56c.001.023.003.046.002.067l-.001.065-.007.09v.02a.245.245 0 0 1 .15.108.26.26 0 0 1 .034.19.22.22 0 0 1-.108.146.475.475 0 0 1-.258.058.545.545 0 0 1-.462-.314.566.566 0 0 1-.035-.248c.003-.062.022-.095.033-.133.01-.044-.013-.117-.055-.175a.737.737 0 0 0-.15-.156c-.074-.05-.075-.177 0-.25a.218.218 0 0 1 .166-.068Zm3.462.09a.26.26 0 0 1 .153.062c.025.018.04.042.058.066l.015-.002c.016-.007.002-.022.009-.01a.308.308 0 0 0 .072.062c.08.059.201.1.292.064a.193.193 0 0 1 .19.037.234.234 0 0 1 .072.265.28.28 0 0 1-.124.141c-.031.024-.049.04-.076.054a.679.679 0 0 1-.163.059.717.717 0 0 1-.376-.026.482.482 0 0 1-.313-.267c-.028-.062-.044-.122-.058-.176-.018-.038-.05-.154.016-.225a.283.283 0 0 1 .233-.104Zm1.437-.22a.52.52 0 0 1 .239.03c.062.018.18.093.217.149.04.053.052.066.02.069-.01.015.04.043.093.06.051.02.129.024.207.093.072.076.06.17.032.238a.258.258 0 0 1-.209.162c-.052.02-.065.047-.126.067a.328.328 0 0 1-.246-.02c-.091-.044-.145-.14-.144-.183-.005-.045.013-.083-.028-.112-.034-.03-.089-.024-.127.005-.083.084-.346.021-.32-.243a.307.307 0 0 1 .085-.158.364.364 0 0 1 .084-.08.527.527 0 0 1 .223-.077Zm5.82-.58.067.01c.07.022.13.085.157.144a.6.6 0 0 1 .018.045l.013.006a.032.032 0 0 1 .006.015c.003.013.002.045.014.082.012.038.039.084.08.103a.108.108 0 0 0 .127-.018c.04-.04.108-.07.187-.055a.223.223 0 0 1 .189.211.288.288 0 0 1-.059.182.42.42 0 0 1-.07.09.546.546 0 0 1-.196.112.61.61 0 0 1-.427-.033.506.506 0 0 1-.288-.288 1.002 1.002 0 0 1-.055-.182c-.01-.06-.033-.104-.029-.194a.274.274 0 0 1 .157-.207.244.244 0 0 1 .176-.013l-.067-.01Zm-2.102-.176c.135-.089.375.166.16.384.073-.004.09.037.064.245a.566.566 0 0 1-.115.249c-.071.085-.138.122-.208.161a.573.573 0 0 1-.48.045.48.48 0 0 1-.12-.068.237.237 0 0 1-.08-.131c-.016-.093.006-.188.104-.248a.161.161 0 0 1 .08-.022h.065c-.002-.01.013-.02.025-.037.024-.033.055-.081.054-.105-.016-.004-.02.006-.004-.043a.585.585 0 0 1 .091-.19c.106-.138.257-.193.364-.24Zm-11.701-.043a.428.428 0 0 1 .47-.108c.15.058.261.148.388.161a.147.147 0 0 1 .103.058.211.211 0 0 1 .033.13.236.236 0 0 1-.063.144c-.04.047-.121.07-.173.076-.137.05-.247.058-.3.077-.028.01-.035.014-.042.011-.009 0-.011-.005-.02-.027-.006-.01-.015-.02-.022-.018.039.058.074.174.032.269a.27.27 0 0 1-.173.159.288.288 0 0 1-.195-.007.246.246 0 0 1-.129-.122.744.744 0 0 1-.036-.115c-.018-.076-.021-.15-.018-.224.007-.144.02-.326.145-.464Zm4.818.068.063.014a.243.243 0 0 1 .14.123c.03.06.035.121.04.143a.511.511 0 0 1-.015.19.572.572 0 0 1-.222.303.479.479 0 0 1-.344.102c-.06-.003-.115-.014-.166-.019-.028-.005-.046-.005-.08-.01a.247.247 0 0 1-.102-.037.284.284 0 0 1-.122-.201.252.252 0 0 1 .034-.152.276.276 0 0 1 .147-.112c.022-.008.067-.013.073-.015.004-.003.008-.003.011-.006a.048.048 0 0 1 .024-.002c.017.002.042.016.08.024.075.027.193-.023.189-.112a.235.235 0 0 1 .314-.219l-.064-.014Zm-1.104-.471.05.009c.074.02.126.1.146.152.043.074.069.164.062.257a.597.597 0 0 1-.09.265.684.684 0 0 1-.434.29.718.718 0 0 1-.452-.04c-.067-.024-.129-.05-.191-.067-.024-.006-.084-.017-.122-.048a.242.242 0 0 1-.083-.117.24.24 0 0 1-.002-.156c.015-.06.085-.118.153-.133a.43.43 0 0 1 .049-.009l.025-.006.049-.013.091-.02a.55.55 0 0 1 .293.02c.05.01.114.016.163-.008a.123.123 0 0 0 .076-.134.214.214 0 0 1 .1-.209.196.196 0 0 1 .168-.024l-.051-.01Zm5.765.15c.102-.067.327.063.26.297a.284.284 0 0 1-.113.143.365.365 0 0 1-.055.055.928.928 0 0 1-.121.078c-.083.046-.177.07-.27.098-.047.013-.093.028-.143.037a.734.734 0 0 1-.078.01l-.04.003c-.014.003-.046.013-.07.014a.233.233 0 0 1-.232-.135.225.225 0 0 1 .012-.232c.064-.072.085-.092.12-.145a.966.966 0 0 1 .104-.131.342.342 0 0 1 .297-.091c.12.015.24.043.329 0Zm-2.161.027a.449.449 0 0 1 .27-.018c.09.012.172.063.23.13.03.031.055.063.085.086.04.028.083.071.1.129a.334.334 0 0 1 .01.181.245.245 0 0 1-.137.17.245.245 0 0 1-.13.02c-.023 0-.041-.009-.061-.015a.197.197 0 0 1-.027-.011c-.014-.015-.019-.041-.033-.073-.024-.069-.106-.131-.163-.102-.034.013-.074.032-.136.026a.258.258 0 0 1-.17-.104.242.242 0 0 1-.03-.24c.03-.089.14-.162.192-.18ZM26.156 3.35c-.008.005-.015.007-.022.012-.026.018-.052.033-.078.058l-.096.08a.274.274 0 0 1-.265.036.284.284 0 0 1-.114-.088.4.4 0 0 0-.145-.005c-.016.007-.006-.002-.012.004 0-.006-.017.08-.029.13a.104.104 0 0 1-.018.042.465.465 0 0 0-.042.087c-.016.04-.032.083-.061.135a.255.255 0 0 1-.218.132.25.25 0 0 1-.2-.095.99.99 0 0 0-.257-.15.184.184 0 0 0-.042-.008h-.006a.168.168 0 0 0-.018.06l-.003.035c0 .019-.003.031-.008.041l-.085.169-.005.006-.01.014a.382.382 0 0 1-.233.133.307.307 0 0 1-.153-.01c-.057-.02-.094-.06-.116-.08a.292.292 0 0 0-.062-.048c.006.004-.064-.035-.071-.057-.021-.027-.027-.047-.037-.069l-.011-.039a1.708 1.708 0 0 0-.117.241c-.019.05.006.091 0 .195-.014.096-.06.157-.106.217a.396.396 0 0 1-.199.135c-.075.018-.14.04-.231.026-.092-.022-.11-.04-.164-.007a.258.258 0 0 0-.11.132c-.046.117-.05.257-.073.395a.542.542 0 0 1-.072.21c-.044.07-.12.103-.162.141-.008.008-.014.01-.02.01l-.138-.006c-.072-.032-.141-.044-.202-.017a.353.353 0 0 0-.148.143c-.038.062-.068.13-.094.199-.023.072.058.162.066.23.003.072.025.151 0 .235-.026.08-.193.117-.245.173-.051.056-.106.108-.147.167a.26.26 0 0 0-.052.12c.017.01.034.021.048.036.016.015.025.032.036.05l.016.032.031.066c.035.089.064.181.077.275.055.376-.041.725-.074 1.062-.018.161-.014.35-.06.526-.042.178-.116.346-.202.5-.171.312-.384.587-.49.905-.11.317-.142.659-.096.988.048.327.176.648.362.905.184.26.473.346.815.403.046.009.078.012.135.025.054.013.106.03.155.051.097.043.178.096.252.142a1.1 1.1 0 0 0 .409.176c.274.058.632-.032 1-.022.356.001.66-.004.912-.147.254-.14.445-.386.506-.67.029-.142.027-.29-.007-.434-.033-.149-.106-.26-.202-.443a.668.668 0 0 1-.073-.318.74.74 0 0 1 .083-.303c.089-.172.194-.3.215-.437.026-.133-.033-.29-.105-.443-.072-.154-.16-.322-.176-.514-.012-.193.051-.36.04-.523-.008-.165-.072-.328-.112-.5-.086-.344-.068-.702-.018-1.045.011-.108.143-.173.239-.115.052.029.058.102.05.142l-.014.128c-.014.171-.015.344.012.513.028.165.065.346.117.495.017.037.04.08.05.132.007.049.01.091.014.137.005.09.003.179.001.266-.004.173-.004.34.047.488.05.143.163.277.238.46.033.085.065.176.078.28.014.102 0 .21-.019.299-.036.175-.077.34-.081.489-.006.141.04.286.1.435.03.07.072.146.108.243.016.04.026.081.035.123.299-.025.6-.059.905-.077a4.3 4.3 0 0 1 .548 0c.094.01.178.017.28.038.099.027.179.067.252.082.054.01.17.003.235-.007.005 0 .009-.002.013-.004a.162.162 0 0 1 .028-.113c.025-.035.053-.05.078-.064.085-.041.165-.086.267-.11a.324.324 0 0 1 .168.002c.049.012.079.022.109.019a.512.512 0 0 0 .226-.064c.07-.038.151-.095.233-.135.077-.041.17-.088.265-.108.102-.03.21-.005.274-.015.023-.002.068-.024.109-.039.042-.015.08-.033.12-.05a.93.93 0 0 0 .1-.054.208.208 0 0 1-.053-.063c-.025-.045-.01-.107.009-.135.016-.03.043-.054.054-.066a.287.287 0 0 0 .033-.043.347.347 0 0 1 .117-.122c.068-.035.146-.027.127-.03a.01.01 0 0 1-.008-.009.01.01 0 0 1 .01-.008l.051.007c.03.005.059.003.087 0l.003-.044c0-.02.009-.038.021-.051.015-.016.039-.081.071-.14l.017-.025a.143.143 0 0 1 .038-.037.18.18 0 0 1 .081-.026.497.497 0 0 1 .035-.002h.044l.02-.021a.67.67 0 0 0 .127-.189.697.697 0 0 0 .034-.282c-.06.06-.146.201-.315.277a.43.43 0 0 1-.288.022.525.525 0 0 1-.224-.126.702.702 0 0 1-.195-.39 1.349 1.349 0 0 1-.015-.384 1.15 1.15 0 0 1 .09-.372.566.566 0 0 1 .274-.269.918.918 0 0 1 .255-.062.965.965 0 0 1 .181-.064 1.206 1.206 0 0 0-.136-.263c-.2-.343-.755-.123-1.247-.372a1.48 1.48 0 0 1-.588-.507 1.866 1.866 0 0 1-.1-.164s-.006-.045-.006-.093c0-.013.005-.126.01-.428a.308.308 0 0 1 .2-.342.367.367 0 0 1 .07-.02l.045-.004c.032-.003.066-.005.091-.011a.212.212 0 0 0 .063-.019.37.37 0 0 0-.008-.083c-.004-.036-.011-.082-.013-.135a.587.587 0 0 1 .023-.174c.011-.034.02-.073.05-.123l-.054-.102a1.167 1.167 0 0 0-.094-.169.171.171 0 0 0-.035-.038.166.166 0 0 0-.05-.022.696.696 0 0 1-.27-.17.446.446 0 0 1-.157-.342v-.012a.505.505 0 0 0-.043-.065c-.014-.015-.009-.01-.022-.018-.016-.008-.074-.032-.121-.064-.053-.037-.081-.056-.13-.112a.432.432 0 0 1-.1-.184c-.035-.128-.02-.228-.012-.309l.006-.05-.003.013-.003.014a.25.25 0 0 1-.066.1l-.053.035a.22.22 0 0 1-.096.02.359.359 0 0 0-.06.005c-.035.007-.067.017-.083.034-.015.017-.009.03-.003.041.005.012.006.03.006.054a.863.863 0 0 1-.032.208.604.604 0 0 1-.139.24c-.124.136-.266.238-.353.371-.053.08-.178.105-.276.03-.052-.036-.08-.132-.053-.204.02-.064.019-.087.028-.132.02-.159.061-.291.091-.411.028-.098.03-.28.158-.497a.497.497 0 0 1 .14-.148l-.006-.008-.01-.015a.322.322 0 0 1-.047-.12l-.022.007c-.071.025-.142.052-.232.078-.03.006-.043.013-.09.018-.055.005-.072-.002-.1-.005a.66.66 0 0 1-.152-.038.919.919 0 0 1-.198-.11c-.006.113.035.23.038.341a.381.381 0 0 1-.015.122c-.005.001-.039 0-.026.077a.957.957 0 0 1-.004.223c-.015.076-.047.132-.075.185a.189.189 0 0 1-.194.094.234.234 0 0 1-.132-.062.232.232 0 0 1-.066-.177c0-.019.003-.033.006-.05l.005-.024a.145.145 0 0 0-.025.057c-.01.065-.003.062-.012.067-.012.004-.033-.01-.052-.025-.022-.02-.037-.025-.078-.089l-.026-.05-.014-.036a.567.567 0 0 1-.02-.076.564.564 0 0 1 .017-.245 1.435 1.435 0 0 1 .193-.412c.016-.023.026-.033.05-.074ZM13.29 11.634a.28.28 0 0 1 .307-.012c.092.055.16.164.182.273a.65.65 0 0 1-.012.274.228.228 0 0 1-.123.164.266.266 0 0 1-.059.05l.017-.008a.653.653 0 0 1-.157.151.389.389 0 0 1-.279.057.443.443 0 0 1-.29-.21l-.037-.07c-.01-.018 0-.008-.005-.02l-.032-.047-.015-.03c-.005-.008-.005-.02-.008-.029a.385.385 0 0 1-.056-.156.382.382 0 0 1 .038-.214.2.2 0 0 1 .142-.108.366.366 0 0 1 .241.042c.04.022.072.038.111.072.017.013.033.021.035.011.006-.008-.019-.04-.042-.05l-.025-.012c-.008-.003-.018-.002-.021-.004-.008-.003-.007-.012-.003-.023.012-.023.027-.054.09-.101Zm6.437-.093a.227.227 0 0 1 .189.017.283.283 0 0 1 .083.08.202.202 0 0 1 .19.153.204.204 0 0 1-.026.154l-.047.077c-.146.235-.417.382-.686.42a.85.85 0 0 1-.4-.026c-.024-.006-.106-.022-.146-.063a.222.222 0 0 1-.074-.142c-.011-.092.032-.195.128-.232.294.003.398-.208.544-.302a.751.751 0 0 1 .157-.087c.013-.006.055-.04.088-.049Zm4.857-1.109c.057-.027.153-.006.204.053.047.05.071.068.105.109a.684.684 0 0 1 .143.252.95.95 0 0 1 .034.288 1.085 1.085 0 0 1-.043.267.792.792 0 0 0-.036.187c-.01.08-.014.179-.064.292-.068.15-.18.186-.227.217l-.035.021-.014.01-.005.006-.014.023a.22.22 0 0 1-.173.104.227.227 0 0 1-.171-.062.194.194 0 0 1-.046-.186c.023-.096.07-.181.066-.238 0-.063-.02-.117-.029-.196-.003-.043-.008-.073.001-.138a.544.544 0 0 1 .044-.147c.038-.082.072-.108.11-.174.08-.115.118-.294.04-.433-.045-.085-.004-.208.11-.255Zm-6.724.532c.108-.101.433.012.342.282a.314.314 0 0 1-.055.085l-.025.042a.793.793 0 0 1-.043.067.487.487 0 0 0-.058.084c-.005.018.004-.012-.008.008a.236.236 0 0 0-.007.057l-.002.045c0 .02 0 .043-.004.065a.438.438 0 0 1-.114.252.442.442 0 0 1-.287.13.478.478 0 0 1-.164-.014.274.274 0 0 1-.13-.087c-.054-.072-.077-.16-.018-.25.01-.013.025-.024.039-.036l-.007-.005-.02-.031c-.03-.049-.066-.092-.088-.16-.028-.207.09-.334.245-.399.157-.059.307-.064.404-.135Zm4.221-1.76.044.003a.783.783 0 0 1 .411.188c.245.22.315.555.286.852a.821.821 0 0 1-.06.253.776.776 0 0 1-.143.218c-.084.095-.182.197-.236.264a.71.71 0 0 0-.075.126c-.027.057-.057.122-.088.175-.059.11-.12.205-.149.307a.5.5 0 0 0-.016.076c0 .016-.003.017-.003.046a.227.227 0 0 1-.014.085.232.232 0 0 1-.26.145.176.176 0 0 1-.127-.109c-.018-.056-.014-.08-.018-.116a4.149 4.149 0 0 1-.002-.202c.01-.265.01-.542.098-.809a.551.551 0 0 1 .142-.227l.065-.06c.014-.016.017-.016.037-.042.062-.081.128-.164.179-.26a.462.462 0 0 0 .064-.32c-.017-.114-.08-.24-.191-.278-.076-.018-.125-.109-.104-.185a.167.167 0 0 1 .069-.105.189.189 0 0 1 .135-.022l-.044-.004Zm-11.118.778c.105-.022.21.081.188.197-.008.064-.082.108-.127.117l-.12.046c-.16.065-.284.175-.282.261-.007.041-.002.09.001.167a.912.912 0 0 1-.03.322c-.078.23-.22.401-.4.526-.09.06-.185.107-.283.143a1.12 1.12 0 0 1-.315.066 1.004 1.004 0 0 1-.618-.14.481.481 0 0 1-.217-.306.48.48 0 0 1 .073-.332c.023-.046.056-.08.084-.12.025-.045.105-.103.175-.096a.22.22 0 0 1 .176.09c.038.043.039.112.02.165.046.105.13.196.202.186.04-.003.072-.022.122-.06l.171-.117-.02.012a.638.638 0 0 0 .195-.45c.006-.073.005-.172.044-.28a.476.476 0 0 1 .21-.257.753.753 0 0 1 .265-.086c.17-.024.33-.027.486-.054Zm7.973.854.052.008a.258.258 0 0 1 .17.328.34.34 0 0 1-.04.078l-.027.033c-.003.006 0 .007 0 .009.002.015.004.024.004.034 0 .016-.022.04-.03.074-.004.009-.004.017-.006.026.008.025.036.098.025.154a.26.26 0 0 1-.188.226.256.256 0 0 1-.232-.043.26.26 0 0 1-.062-.08c-.01-.023-.024-.042-.036-.064-.05-.08-.148-.17-.172-.291a.285.285 0 0 1 .136-.307c.11-.065.222-.081.286-.14.035-.031.1-.06.172-.037l-.052-.008ZM6.38 10.293a2.451 2.451 0 0 0 .38.021c.166-.002.368-.041.566.044.19.075.351.292.329.516-.017.223-.14.373-.222.513-.05.086-.187.109-.281.023-.052-.042-.069-.139-.042-.209a.216.216 0 0 0-.004-.103c-.013-.058-.049-.083-.069-.1a.47.47 0 0 0-.083-.055.898.898 0 0 0-.33-.095l-.247-.024a.304.304 0 0 1-.154-.054.264.264 0 0 1-.094-.133.277.277 0 0 1 .042-.247.24.24 0 0 1 .21-.097Zm9.172.183a.307.307 0 0 1 .258-.033c.063.022.115.05.17.08.105.056.259.135.316.295.06.156-.02.348-.157.405-.135.064-.262.059-.331.128a.332.332 0 0 1-.173.083.29.29 0 0 1-.257-.09.284.284 0 0 1-.073-.198.364.364 0 0 1 .077-.213l.029-.035a.032.032 0 0 1 .005-.01l.006-.01a.28.28 0 0 1-.028-.129.33.33 0 0 1 .158-.273Zm-3.149-.03c.117-.078.36.115.207.36-.019.028-.044.049-.068.069-.009.013-.02.023-.028.034l-.05.057a.572.572 0 0 0-.065.068l.004-.01.002-.006-.006.013-.001.002-.002.004v.002c-.012.046-.035.152-.103.24a.376.376 0 0 1-.284.156.425.425 0 0 1-.234-.066c-.034-.019-.056-.037-.092-.062a.24.24 0 0 1-.088-.114.257.257 0 0 1 .042-.25.184.184 0 0 1 .087-.054.375.375 0 0 1 .303-.395c.147-.026.276 0 .376-.049Zm.872-.53.057.007c.06.01.12.058.153.113.05.06.093.109.131.167.019.03.033.05.05.103a.547.547 0 0 1 .021.084c.002.01.002.019-.001.018-.003 0-.005-.002-.017-.013-.006-.006-.045-.035-.06-.035-.062-.005-.022.022-.002.027.05.02.136.038.198.034a.464.464 0 0 0 .19-.039c.067-.042.171-.027.236.049a.203.203 0 0 1 .005.265.544.544 0 0 1-.036.039c-.01.01-.013.016-.02.024a.68.68 0 0 1-.38.254.694.694 0 0 1-.27.022.523.523 0 0 1-.326-.155c-.095-.114-.104-.201-.111-.263-.008-.068-.006-.14-.01-.21a1.277 1.277 0 0 0-.018-.206c-.005-.023-.026-.093-.004-.146a.207.207 0 0 1 .111-.115c.047-.02.101-.03.16-.017l-.057-.006Zm16.28-.417a.206.206 0 0 1 .17.046.241.241 0 0 1 .06.09c.006.016.01.034.015.05l.01.027a.8.8 0 0 1 .052.426c-.013.137-.057.267-.1.393a.879.879 0 0 1-.1.225.494.494 0 0 1-.222.186.593.593 0 0 1-.262.033.187.187 0 0 1-.146-.085.23.23 0 0 1-.028-.151.241.241 0 0 1 .155-.193c.005-.003.02-.006.017-.008a.025.025 0 0 0-.01-.004h-.021c-.025-.01-.017-.069-.022-.125 0-.111.03-.232.11-.352.077-.12.158-.247.157-.38-.002-.079.065-.16.164-.178Zm-5.507-1.528.047.009c.047.014.085.062.103.086.09.11.167.267.187.425a2.349 2.349 0 0 1-.05.856 1.332 1.332 0 0 1-.145.333.717.717 0 0 1-.09.114c-.059.062-.11.105-.125.121.014.014.033.032.06.061a.451.451 0 0 1 .1.327c-.007.106-.044.183-.067.237a.432.432 0 0 0-.042.144l-.001.019.001.044a.236.236 0 0 1-.336.205.188.188 0 0 1-.1-.142c-.024-.148.004-.293-.018-.408a.382.382 0 0 0-.069-.154c-.03-.044-.061-.03-.153-.128a.363.363 0 0 1-.066-.155.379.379 0 0 1 .001-.163.7.7 0 0 1 .116-.245c.1-.13.126-.17.185-.286l.177-.33a1.7 1.7 0 0 0 .154-.362.526.526 0 0 0-.019-.376c-.048-.068-.01-.174.065-.21a.16.16 0 0 1 .132-.013l-.047-.009Zm5.145-.367.107.009c.11.008.18.14.12.244-.026.06-.116.068-.152.065a.496.496 0 0 0-.123.014c-.171.031-.178.155-.292.34-.03.045-.056.084-.103.131a.597.597 0 0 1-.154.106c-.1.052-.092.06-.107.088.03-.047.02-.028.017.022a.463.463 0 0 1-.08.228c-.086.132-.215.2-.27.24l-.026.019.003.009a.315.315 0 0 1-.029.185c-.037.071-.065.1-.09.136l-.028.04a.564.564 0 0 0-.047.113c-.017.052-.022.129-.032.227a2.481 2.481 0 0 1-.021.146.833.833 0 0 1-.047.162l-.094.232c-.024.072-.035.11-.03.152a.279.279 0 0 1-.298.37c-.113-.01-.18-.142-.18-.173a.853.853 0 0 1-.031-.153c-.01-.112.019-.21.04-.294.047-.168.067-.337.075-.513.003-.043.001-.088.002-.132v-.085l-.005-.032c-.006-.037-.027-.087-.01-.17.026-.087.063-.125.096-.168.03-.037.065-.077.06-.084-.008.003-.019.038-.019.027a.337.337 0 0 1-.015-.041c-.012-.042-.032-.103-.018-.2a.359.359 0 0 1 .022-.072l.02-.045a.348.348 0 0 1 .076-.102.441.441 0 0 1 .106-.07c.023-.01.023-.013.021-.014.008-.013.034-.04.046-.057.043-.055.084-.124.134-.195l.069-.099c.017-.023.056-.094.111-.143a.568.568 0 0 1 .173-.107c.056-.018.1-.024.143-.032.129.012.253-.128.425-.23a.873.873 0 0 1 .542-.085l-.107-.009ZM9.403 9.073a.447.447 0 0 1 .33.184c.072.1.088.207.103.3.012.093.022.178.041.263.026.1-.062.218-.198.213-.073 0-.146-.08-.166-.135a.933.933 0 0 0-.073-.108c-.023-.03-.051-.057-.065-.059-.008-.001-.008.012.002.027-.005.001-.008.006-.004.01.008.013.038.016.041.017.002.001.001.003 0 .005l-.026.025-.144.147c-.056.059-.124.144-.234.215a.516.516 0 0 1-.4.08.432.432 0 0 1-.242-.153.26.26 0 0 1-.069-.126.221.221 0 0 1 .1-.23.242.242 0 0 1 .207-.03c.016.009.034.015.047.025a.031.031 0 0 0 .006.005.313.313 0 0 0 .088-.076.925.925 0 0 0 .13-.217c.019-.04.035-.08.061-.126.022-.032.04-.05.054-.07.017-.019.034-.04.055-.058a.481.481 0 0 1 .356-.128Zm10.216.115a.182.182 0 0 1 .203-.006.235.235 0 0 1 .113.26.288.288 0 0 1-.066.127c-.014.014-.002.01-.004.014.007.011.013.02.012.032a.592.592 0 0 1-.143.292.518.518 0 0 1-.227.143.455.455 0 0 1-.43-.077l-.074-.055c-.019-.014-.07-.047-.09-.081a.253.253 0 0 1-.028-.232.21.21 0 0 1 .087-.11.248.248 0 0 1 .159-.032.643.643 0 0 0 .069-.006h-.001c.031-.005.054-.01.063-.02.007-.006 0-.012-.02-.01a.602.602 0 0 1 .063-.049c.108-.073.231-.13.314-.19Zm-4.134-.064a.255.255 0 0 1 .204.082c.025.026.048.068.043.08l.002.009c.122.034.193.16.159.282-.005.018-.017.033-.027.05 0 .01.002.02 0 .032-.01.07-.051.18-.197.201a.255.255 0 0 1-.144-.027.699.699 0 0 1-.126.032c-.03.008-.12.044-.186.019a.219.219 0 0 1-.13-.115.269.269 0 0 1 .034-.294c.037-.06.062-.134.1-.191a.306.306 0 0 1 .152-.122c.014-.006.004.003.04-.017a.236.236 0 0 1 .076-.021Zm-2.052-.369.062.003a.319.319 0 0 1 .225.159c.047.072.043.188-.008.281.04.032.078.07.101.122.032.07.041.15.02.21-.035.125-.132.186-.225.218a.336.336 0 0 1-.266-.032c-.054-.035-.095-.064-.148-.093-.096-.055-.253-.117-.325-.254a.297.297 0 0 1 .094-.387c.127-.091.262-.11.335-.172a.25.25 0 0 1 .197-.052l-.062-.003Zm4.918.085.064.014a.242.242 0 0 1 .14.128c.03.062.032.123.036.145a.508.508 0 0 1-.02.19.571.571 0 0 1-.23.295.476.476 0 0 1-.349.092c-.059-.004-.114-.019-.165-.026-.027-.006-.046-.007-.08-.013a.262.262 0 0 1-.098-.04.293.293 0 0 1-.122-.198c-.005-.045 0-.1.033-.155a.276.276 0 0 1 .157-.112c.023-.007.069-.009.074-.01.005-.004.009-.004.013-.006a.06.06 0 0 1 .025 0c.017.001.042.018.079.028.073.032.194-.01.192-.1a.238.238 0 0 1 .07-.16c.05-.046.131-.098.245-.059l-.064-.013Zm-14.052.036a.253.253 0 0 1 .23.036c.083.05.128.195.09.299a.567.567 0 0 1-.065.157.582.582 0 0 1-.241.207.5.5 0 0 1-.307.058l-.075-.007-.036-.004-.05-.002a.253.253 0 0 1-.168-.1.271.271 0 0 1-.064-.21.244.244 0 0 1 .074-.135c.038-.037.094-.058.092-.068.047-.045.085-.047.171-.034.085.015.196-.007.226-.082a.209.209 0 0 1 .123-.115ZM2.552 7.83c.099-.07.255.02.252.167.001.08-.075.15-.112.18-.044.038-.085.07-.103.098-.034.057-.003.068-.05.178-.011.026-.024.056-.044.086l-.045.069a.714.714 0 0 1-.132.145.826.826 0 0 1-.337.158 1.293 1.293 0 0 1-.333.032 1.34 1.34 0 0 1-.598-.152c-.048-.026-.076-.03-.162-.088a.214.214 0 0 1-.059-.227c.024-.067.082-.134.165-.142.088 0 .116.02.164.023.18.028.36-.036.512-.088a.813.813 0 0 0 .159-.068c.023-.012.065-.04.087-.048.005 0 .008-.002.004.01-.005.009-.008.044-.002.035a.33.33 0 0 1 .058-.116.556.556 0 0 1 .31-.169c.1-.018.19-.033.266-.083Zm2.346-.594a.143.143 0 0 1 .145.023.209.209 0 0 1 .07.147c.006.06-.031.137-.093.18l-.113.089c-.068.052-.13.101-.165.136-.042.038-.022.045-.011.021V7.83l.005.057c0 .028.002.067-.002.112l-.013.073a.481.481 0 0 1-.11.207.659.659 0 0 1-.775.14c-.047-.027-.087-.042-.148-.106a.195.195 0 0 1-.02-.215.23.23 0 0 1 .143-.115.23.23 0 0 1 .096-.003c.013.003.035.012.04.012h.011c.051 0 .144-.046.151-.082-.008 0-.004-.014-.013-.014-.007 0-.017.01-.023.014-.01.01-.026-.018-.046-.08a.466.466 0 0 1-.018-.177.422.422 0 0 1 .072-.196.437.437 0 0 1 .296-.179c.2-.027.37.02.52-.04Zm22.554-.38.077.01c.077 0 .129.026.18.103 0 .026.026.052.052.077l.077.077c.026.026.026.077.051.103l.026.077v.026c-.026.077-.051.18-.206.23-.154.052-.283.103-.438.154-.051.026-.077.026-.128.026-.078 0-.129 0-.129-.051-.052-.026-.18-.077-.206-.231V7.43l.026-.025a.342.342 0 0 1 .154-.129s.026.026.026-.025c0-.052.026-.077.026-.103a.326.326 0 0 1 .18-.231.447.447 0 0 1 .309-.051l-.077-.01Zm-3.614-1.018c.126-.087.332.103.19.267-.114.098-.22.158-.327.223a2 2 0 0 0-.26.167c-.069.064-.019.016-.12.2a.88.88 0 0 1-.245.237c-.015-.003-.034.11-.064.253a.698.698 0 0 1-.096.23.774.774 0 0 1-.152.17.581.581 0 0 1-.447.136c-.027-.005-.088-.007-.142-.04a.224.224 0 0 1-.1-.135c-.024-.096.013-.212.116-.257.05-.02.102-.012.118-.014.026.001.047-.004.07-.007.043-.01.069-.034.081-.07.028-.081-.01-.19-.028-.323a.469.469 0 0 1 .033-.246.742.742 0 0 1 .132-.194l.11-.116a.48.48 0 0 0 .06-.086c.025-.04.056-.107.119-.176a.439.439 0 0 1 .23-.132c.142-.03.27-.013.387-.015a.656.656 0 0 0 .335-.072Zm.698.067a.205.205 0 0 1 .186.016c.068.04.091.132.105.18.015.06.018.131.007.196-.024.131-.071.228-.095.298-.026.066-.05.146-.096.246a.807.807 0 0 1-.224.295c-.093.077-.181.125-.25.168a1.468 1.468 0 0 0-.132.098 1.39 1.39 0 0 1-.317.231c-.05.028-.085.042-.15.073-.078.04-.197.004-.236-.06a.221.221 0 0 1-.035-.21.223.223 0 0 1 .067-.088.53.53 0 0 0 .051-.044c.128-.121.15-.319.29-.5a.668.668 0 0 1 .127-.122l.093-.066c.05-.035.102-.07.171-.138.135-.159.357-.247.354-.429a.136.136 0 0 1 .084-.144ZM.969 6.55c.07-.03.172-.016.223.05l.047.069.04.051c.128.127.313.123.479.119.169-.003.349.012.544.074.196.062.394.13.588.157.057.007.114.061.117.126a.196.196 0 0 1-.077.176.199.199 0 0 1-.112.037c-.035.004-.051.009-.077.013-.047.007-.095.021-.141.033a2.1 2.1 0 0 1-.576.082 1.67 1.67 0 0 1-.64-.117.958.958 0 0 1-.303-.19.868.868 0 0 1-.195-.29l-.032-.077a.317.317 0 0 1-.027-.118.22.22 0 0 1 .142-.195ZM26.607 5.49c.088-.219.36-.249.498-.17a.157.157 0 0 1 .1.15c.024.027.039.057.044.075.013.039.014.065.017.088l-.005-.073a.244.244 0 0 1 .025.163l.006-.024c.011.042-.02.14-.039.173-.004.011-.004.014-.012.026l-.023.04c-.017.025-.037.046-.053.063-.074.079-.037.055-.039.053a.641.641 0 0 0-.007.109c0 .046.013.132.006.214a.61.61 0 0 1-.074.269.45.45 0 0 1-.317.214.547.547 0 0 1-.178 0 .37.37 0 0 1-.194-.07c-.108-.098-.096-.218-.018-.304a.212.212 0 0 1 .113-.056c0-.008 0-.015-.002-.024a.674.674 0 0 0-.064-.182c-.03-.065-.066-.118-.086-.202-.003-.044-.006-.058-.006-.078l.001-.03.004-.032a.413.413 0 0 1 .04-.13c.012-.023.02-.04.042-.069a.39.39 0 0 1 .07-.072c.04-.029.072-.046.082-.045-.005.02.008.04.025.022.014-.015.026-.053.044-.098ZM3.778 5.66c.205-.013.371.055.529.07a.133.133 0 0 1 .115.087.212.212 0 0 1-.013.16.22.22 0 0 1-.158.116c-.064.011-.075.026-.11.043-.058.033-.102.073-.139.105a.504.504 0 0 0-.091.097c-.026.032-.058.089-.115.164a.755.755 0 0 1-.249.227.564.564 0 0 1-.347.069.565.565 0 0 1-.29-.137c-.03-.025-.098-.08-.118-.157a.235.235 0 0 1 .04-.193c.037-.048.098-.092.17-.085a.22.22 0 0 1 .092.03l.039.015c.096.012.128-.15.196-.284a.68.68 0 0 1 .225-.26.362.362 0 0 1 .078-.037.614.614 0 0 1 .146-.03ZM1.046 5.5a.229.229 0 0 1 .297-.11l.223.127c.07.037.135.065.182.077.048.013.061.011.119.027.05.012.114.035.184.058.144.05.307.09.454.067a.141.141 0 0 1 .129.047.212.212 0 0 1-.05.308c-.076.04-.094.049-.129.072a.942.942 0 0 1-.446.158.823.823 0 0 1-.566-.135c-.174-.123-.237-.275-.303-.398-.022-.035-.025-.05-.065-.095-.046-.05-.062-.145-.029-.203Zm25.256-.606a.14.14 0 0 1 .128.046.213.213 0 0 1-.044.306c-.023.022-.08.036-.075.044a.056.056 0 0 0-.014.029c0 .036.015.06-.023.142a.508.508 0 0 1-.094.134c-.01.012-.025.024-.038.036a.358.358 0 0 1-.06.04l-.027.013a.675.675 0 0 1-.038.078.609.609 0 0 1-.261.223.921.921 0 0 1-.367.092l-.057.003-.027.002a.614.614 0 0 1-.055.006.22.22 0 0 1-.2-.112.252.252 0 0 1-.017-.18.213.213 0 0 1 .112-.132c.048-.021.074-.03.109-.047a.394.394 0 0 0 .155-.132.123.123 0 0 0 .023-.068.053.053 0 0 0-.006-.02c.004-.018.006-.037.012-.057a.364.364 0 0 1 .17-.22.303.303 0 0 1 .053-.027c.03-.01.066-.015.144-.069a.745.745 0 0 1 .258-.104c.088-.014.164-.016.239-.026Zm1.741.074a.55.55 0 0 1 .426.208c.06.073.084.143.102.187.02.049.02.063.04.106.02.037.043.087.076.133l.025.035c.006.01.02.024.038.045.031.04.05.09.05.137a.24.24 0 0 1-.127.216.217.217 0 0 1-.15.016l-.036-.011-.022-.005-.045-.009a.738.738 0 0 1-.187-.053.396.396 0 0 1-.155-.136.3.3 0 0 1-.055-.189c.003-.05.013-.096-.02-.139-.027-.044-.082-.066-.135-.07a.22.22 0 0 1-.174-.119.224.224 0 0 1-.024-.14.218.218 0 0 1 .124-.155c.034-.017.067-.023.097-.03.016-.006.032-.01.05-.014a.393.393 0 0 1 .102-.013ZM3.254 4.546a.552.552 0 0 1 .296.084c.078.048.119.1.163.143.096.096.28.152.436.126a.138.138 0 0 1 .135.059c.03.045.039.1.028.16a.217.217 0 0 1-.133.15c-.054.024-.083.043-.127.062a.789.789 0 0 1-.567.045c-.107-.032-.179-.07-.24-.1a1.022 1.022 0 0 0-.17-.072c-.05-.017-.14-.025-.224-.046-.086-.018-.162-.045-.25-.07a.252.252 0 0 1-.164-.152.25.25 0 0 1 .01-.196c.031-.066.12-.106.18-.093a.512.512 0 0 0 .117.005c.156-.008.31-.103.51-.105Zm-2.147-.664c.25-.142.541-.163.798-.1.258.062.492.163.736.19a.128.128 0 0 1 .095.059.152.152 0 0 1 .015.112.19.19 0 0 1-.181.149c-.128.006-.25.03-.37.053-.238.052-.457.081-.655.138a1.96 1.96 0 0 0-.28.104 1.14 1.14 0 0 0-.127.075.366.366 0 0 0-.092.075c-.06.066-.117.175-.21.29a.702.702 0 0 1-.18.158.59.59 0 0 1-.123.057.256.256 0 0 1-.197-.014.246.246 0 0 1-.12-.303.21.21 0 0 1 .112-.11.13.13 0 0 0 .048-.035c.068-.073.1-.195.165-.318.078-.124.159-.217.25-.319.092-.098.192-.189.316-.261Zm24.275.317c.102.005.203.04.282.092.08.054.13.12.173.189.055.077.015.202-.09.25a.204.204 0 0 1-.198-.018c-.016-.01-.029-.023-.043-.036-.006.003.001.02.008.025.003.01.01.018.019.023a.024.024 0 0 0 .007.013c-.008.031-.063.08-.116.123-.058.042-.12.084-.2.125-.043.02-.084.041-.16.059-.112.018-.161.002-.229-.015a.748.748 0 0 1-.268-.158l-.134-.12-.022-.018c-.012-.006.002-.01-.055-.023a.257.257 0 0 1-.178-.175.256.256 0 0 1 .03-.207.205.205 0 0 1 .178-.096.988.988 0 0 1 .258.063c.079.03.16.056.237.08.036.01.07.016.09.01.025-.003.004-.02.003-.025-.002-.012.044-.045.116-.09a.51.51 0 0 1 .292-.07ZM.927 2.502c.101-.041.207-.022.278.065a.176.176 0 0 1 .024.157l-.023.073a.133.133 0 0 0 .046.108c.068.065.187.09.296.102.113.01.228.008.339.006l.155-.002a1 1 0 0 0 .126-.018c.098-.018.237-.05.39-.035.147.014.29.075.397.16.106.086.181.188.247.292.102.135-.123.334-.274.179-.087-.095-.18-.104-.252-.078-.15.044-.353.211-.702.215-.301-.002-.556-.111-.79-.236a1.025 1.025 0 0 1-.343-.283.521.521 0 0 1-.077-.489c.012-.038.03-.07.048-.103a.255.255 0 0 1 .115-.113Zm4.493-1.11.064.005c.08.022.15.073.188.162.019.044.026.102.01.16-.01.056-.064.116-.083.14 0 .004.003.003.006.004-.01.004-.03.02-.049.053-.05.078-.071.202-.022.28.026.047.04.112.015.184a.229.229 0 0 1-.215.157.259.259 0 0 1-.18-.073l-.08-.08a.637.637 0 0 1-.086-.14.7.7 0 0 1-.048-.354.473.473 0 0 1 .186-.348 1.13 1.13 0 0 1 .156-.093c.036-.021.114-.074.202-.052l-.064-.004Z"/></g><defs><clipPath id="a"><path fill="#fff" d="M0 0h32v26H0z"/></clipPath></defs></svg>