<svg xmlns="http://www.w3.org/2000/svg" width="43" height="27" viewBox="0 0 43 27" fill="none"><path fill="#fff" d="m40.313 2.443.488.489 1.222.488.488.978-.977 1.466-1.954.488-.978 1.222-1.465 3.176-1.222.489-1.222 3.176h.733l.733 1.71-2.199-.977.855.61.367 1.588-1.71-.977.733.733v1.466l-1.71-2.199-.245 3.665-.244 3.91 1.466.976.488.489-1.221.977-1.955.245-.977-.978-.733-.977-1.222.489.978-2.444-1.71.733 1.71-2.687h-1.955l1.71-2.443-.488-1.222-1.222-.244-2.932.488-2.199-.244-1.465-.489-2.932 1.955-2.2.977-.488 1.222.489 1.71 1.466 1.71 1.466 1.222v.977h-1.955l-1.222-1.954-1.221-1.71-.977-1.955-1.222.489-.733 2.443.733 1.71.244.977h-1.466l-1.221-.733.244-2.687v-2.2l.977-1.71.978-1.954 3.664-5.13 6.841 2.931 3.665-6.596 3.665-1.955 2.443-1.466 1.955-2.443 1.954-1.71 2.688-.244 1.466.488.733 1.466Z"/><path fill="#1E5D8A" d="M40.245 2.54c-.244-.455-.663-.523-1.057-.832-.028-.053-.53-.464-.582-.51-.2-.18-.096-.23-.308-.36-.056-.043.12-.105.064-.142l-.35-.272a.44.44 0 0 0-.309-.093 2.9 2.9 0 0 0-2.612.347c-.687.417-1.133.86-1.328 1.41a.515.515 0 0 0-.148.118 3.547 3.547 0 0 0-.819 1.694.696.696 0 0 1 .16-.133c.087-.05.509-.222.57-.142.139.18-.206.69-.23.928 0 .025-.093.442-.121.618-.043.248-.308.486-.308.74 0 .253.203.377.2.618-.003.241-.228.566-.268.807v.022c.022.423.154.887-.117 1.237-.27.35-.45.485-.542.928-.026.243-.026.489 0 .732 0 .09-.326.334-.391.31.024.188.09.182.222.402.345.572.988 1.416 1.746 1.268.339-.068.515-.34.86-.31.345.031.499.31.865.279a.923.923 0 0 0 .573-.31c.08-.083.173-.364.268-.414.05-.025.114.043.277.047.647 0 .962 0 1.233-.7a22.76 22.76 0 0 0 .643-2.214c.124-.309-.132-1.005-.144-1.045.089-.46-.38-1.33-.376-1.336-.33-.736-.881-1.129-1.186-1.89a1.55 1.55 0 0 1-.111-.497 1.586 1.586 0 0 0-.213-.774 1.4 1.4 0 0 1-.073-1.184c.043-.142.261-.08.218.059a.257.257 0 0 0 0 .046.125.125 0 0 1 0 .068c-.044.275 0 .557.127.804.021 0 .154.387.243.591.05.154.09.31.117.47.087.462.3.89.616 1.237.114.128.218.265.308.411.105.136.192.284.259.443.13.22.22.462.268.714.031.277.096.549.19.81.029.093.093.31.102.331.01.022 0 .028 0 .04a.7.7 0 0 0 .105-.176c.087-.345.256-.663.493-.928.237.033.479.005.702-.08.598-.288.687-1.101.724-1.695a4.86 4.86 0 0 0-.56-2.492Zm-4.621.064a.35.35 0 0 1 .363.31c.02.123.02.248 0 .37 0 .072-.033.137-.049.208v.028a.199.199 0 0 0 .176.148.117.117 0 0 1 .08.143c-.04.154-.142.207-.24.185h-.034a.335.335 0 0 1-.404-.33c-.024-.31.188-.58 0-.845a.114.114 0 0 1-.074-.17.114.114 0 0 1 .053-.047.086.086 0 0 1 .104-.021l.025.021Zm-1.611.263a.46.46 0 0 1 .154-.198c.083-.065.206-.08.28-.136.074-.055.096-.213.16-.309a.428.428 0 0 1 .238-.173.267.267 0 0 1 .11 0 .55.55 0 0 1 .453.111c.01.002.02.002.031 0 .133-.058.25.136.117.198l-.064.019a.091.091 0 0 1-.062.063.092.092 0 0 1-.086-.017l-.047-.028a1.019 1.019 0 0 1-.15-.043.2.2 0 0 0-.133.065c-.105.099-.065.087-.074.213a.44.44 0 0 1-.095.257c-.127.127-.589-.03-.493.285.037.12.25.225.145.377-.105.151-.309.043-.404-.056a.65.65 0 0 1-.08-.628Zm-.49 3.844c.057-.175.153-.334.28-.467.18-.185.42-.309.472-.58.058-.326-.111-.697.185-.929a.123.123 0 0 1 .098-.024c.093-.053.21.086.13.185-.182.22 0 .59-.028.897a.484.484 0 0 1-.037.31.875.875 0 0 1-.342.284c-.207.155-.36.371-.438.618a.114.114 0 0 1-.194 0 .512.512 0 0 1-.046-.148.101.101 0 0 1-.095-.105c.001-.018.006-.035.015-.05v.01Zm-.12 4.197a.136.136 0 0 1-.028.105.117.117 0 0 1-.177.08.118.118 0 0 1-.048-.058c0-.029-.009-.06-.027-.093-.308-.337-.077-1.017.385-1.048a.307.307 0 0 1 .397.185.119.119 0 0 1-.06.133.117.117 0 0 1-.05.013c-.327-.044-.438.426-.392.683Zm.924.6a.117.117 0 0 1-.19-.05.986.986 0 0 1-.026-.414c0-.158 0-.275-.175-.238a.219.219 0 0 1-.111-.288c.2-.256.493-.114.616.13a.683.683 0 0 1-.11.854l-.004.006Zm.271-3.42c-.08.327-.416.516-.366.881a.111.111 0 0 1-.059.099h-.03a.117.117 0 0 1-.14 0c-.347-.362.075-.959.112-1.382.008-.125.023-.249.046-.372a.422.422 0 0 1 .172-.398.089.089 0 0 1 .096 0 .307.307 0 0 1 .172 0 .114.114 0 0 1 .068.167.508.508 0 0 0-.102.448.121.121 0 0 1-.018.083c.059.149.077.31.052.467l-.003.007Zm.977 2.449c-.003.156-.033.31-.09.455-.027.122-.07.241-.129.352a.1.1 0 0 1-.136.096.309.309 0 0 1-.19-.436.585.585 0 0 1 .175-.244c.093-.08.148-.112.145-.245a.114.114 0 0 1 .174-.088.114.114 0 0 1 .048.06v.028s.006.01.006.016l-.003.006Zm.123-1.389c-.231-.105-.17.189-.173.337.005.05.005.1 0 .149a.555.555 0 0 1-.055.337.414.414 0 0 1-.595.207 1.328 1.328 0 0 1-.157 0 .095.095 0 0 1-.073-.052.096.096 0 0 1 .002-.09.173.173 0 0 1 .034-.173.116.116 0 0 1 .135-.05.117.117 0 0 1 .044.025.222.222 0 0 0 .222.04.308.308 0 0 0 .065-.09.624.624 0 0 0 0-.117c0-.093-.047-.182-.056-.275v-.034a.56.56 0 0 1-.11-.31c.015-.2.193-.26.372-.256.228-.105.56-.031.545.266a.115.115 0 0 1-.07.101.114.114 0 0 1-.12-.02l-.01.005Zm.345-.958a.114.114 0 0 1-.164.124.115.115 0 0 1-.055-.062.101.101 0 0 1-.098-.047.369.369 0 0 1-.08-.424c.08-.145.255-.185.363-.309.216-.222-.099-.328-.105-.572-.006-.244.176-.356.33-.473.092-.065.222.068.157.158-.246.34.182.64.062 1.017-.09.263-.487.285-.407.582l-.003.006Zm1.623 1.623a.409.409 0 0 0-.138.044l-.028.018a.188.188 0 0 0-.034.226c.053.096-.05.207-.135.167a.105.105 0 0 1-.105-.053.424.424 0 0 1-.053-.488.554.554 0 0 1 .475-.155c.114.012.15.213.021.235l-.003.006Zm-.77-1.435c.077-.256.351-.34.462-.575.056-.114.2-.04.213.059a.437.437 0 0 1-.086.31.406.406 0 0 1-.077.135l-.031.037a.326.326 0 0 0-.037.254.1.1 0 0 1 0 .09c.098.266.178.46-.034.705a.096.096 0 0 1-.077.028h-.034a.111.111 0 0 1-.096-.137c-.086-.315-.289-.612-.2-.912l-.003.006Zm-.268 1.707a.115.115 0 0 1 .044-.151.114.114 0 0 1 .153.037c.154.26-.04.458-.2.656a.542.542 0 0 0 0 .074c0 .164-.05.39-.268.334-.12-.031-.13-.13-.102-.226a.518.518 0 0 1 .117-.343c.1-.115.253-.189.262-.356l-.003-.03-.003.005Zm-.175-5.724a.113.113 0 0 1 .104.07.115.115 0 0 1-.024.125c-.123.12-.123.31-.173.464a.408.408 0 0 1-.154.25l-.03.025a.695.695 0 0 1-.142.077c-.228.084-.552.075-.653-.173a.098.098 0 0 1-.099-.08c-.092-.371.388-.21.567-.22.286-.018.243-.553.607-.544l-.003.006Zm2.131-1.311v.018a.19.19 0 0 1-.034.053.544.544 0 0 1-.705 0 .252.252 0 0 1-.148-.155.354.354 0 0 1 .133-.275c-.019 0 .074-.065.077-.068a.4.4 0 0 1 .098-.043.568.568 0 0 1 .228 0 .308.308 0 0 1 .24.157.215.215 0 0 1 .14.218.217.217 0 0 1-.026.089l-.003.006ZM35.803 14.523a3.095 3.095 0 0 0-.755-.365c-.114-.028-.308.21-.438.189a.148.148 0 0 0-.101 0 .128.128 0 0 0-.059.08.122.122 0 0 0 .038.132c.012.01.027.018.042.023.218.075.426.18.616.31.19.114.37.243.54.386a.782.782 0 0 1 .308.56.806.806 0 0 1 0 .17.21.21 0 0 0 0 .105.163.163 0 0 0 .08.077.145.145 0 0 0 .114 0 .126.126 0 0 0 .083-.09c0-.065.021-.12.034-.179.037-.241.123-.467 0-.68-.123-.214-.29-.591-.502-.718ZM35.266 15.6c-.166-.19-.674-.233-.89-.36-.105-.064-.234-.049-.339-.108a.175.175 0 0 0-.101-.034.114.114 0 0 0-.087.06.13.13 0 0 0 .031.178c.197.142.376.307.533.492.156.175.298.36.425.557.134.192.2.424.188.659a.814.814 0 0 1-.03.173c0 .034-.016.052-.025.093a.133.133 0 0 0 .04.114.158.158 0 0 0 .173.035.157.157 0 0 0 .052-.035.233.233 0 0 0 .03-.053v-.046l.028-.09c.124-.25.172-.532.139-.81-.062-.26.003-.637-.167-.826ZM34.684 16.942c-.083-.245-.462-.4-.671-.55a1.665 1.665 0 0 0-.327-.192.215.215 0 0 0-.101-.022.135.135 0 0 0-.09.059.118.118 0 0 0 .037.173c.209.119.369.308.45.535.08.216.13.442.148.67.034.233 0 .471 0 .728a.62.62 0 0 0 .135.361.166.166 0 0 0 .222 0 .145.145 0 0 0 .034-.133.83.83 0 0 0-.043-.09c-.062-.2.09-.423.117-.676.028-.254.188-.613.09-.863Z"/><path fill="#1E5D8A" d="M38.313 5.697a1.255 1.255 0 0 0-.342-.442l-.166-.152c.023.045.049.088.077.13.093.093.175.197.243.31.098.1.177.215.234.343.017.04.03.083.04.126a1.43 1.43 0 0 0-.086-.315Z"/><path fill="#1E5D8A" d="M42.885 3.622a1.038 1.038 0 0 0-.2-.247 2.783 2.783 0 0 0-.226-.164 7.895 7.895 0 0 0-.924-.477l-.225-.108-.234-.114a.924.924 0 0 1-.342-.232.468.468 0 0 1-.074-.158c-.018-.065-.033-.148-.055-.241a1.684 1.684 0 0 0-.24-.535 2.468 2.468 0 0 0-.829-.752 3.932 3.932 0 0 0-1.01-.399A4.324 4.324 0 0 0 36.585.05c-.176.037-.459.025-.616.08-.157.056-.25.276-.382.334a3.455 3.455 0 0 0-.244.112c-.296.15-.575.332-.831.544a4.85 4.85 0 0 0-.73.758 9.43 9.43 0 0 0-.616.791 7.692 7.692 0 0 1-.589.848c-.1.142-.208.277-.326.405l-.096.086a4.177 4.177 0 0 0-.6.406.14.14 0 0 0-.022.021l-.025.044-.027.05a1.193 1.193 0 0 1-.219.278c-.123.106-.26.195-.407.265-.308.146-.634.245-.964.39a2.434 2.434 0 0 0-.483.275c-.144.11-.28.23-.407.359-.227.25-.484.467-.767.65a4.94 4.94 0 0 1-1.272.528c-.635.05-1.411.177-2.006.238h-.668c-.69 0-1.393-.055-2.092-.055h-.77a31.723 31.723 0 0 0-4.574.105c-.64.075-1.273.202-1.892.38-.384.09-.76.212-1.124.365l-.142.062a21.394 21.394 0 0 0-3.73 1.964c-.422.269-1.513 1.104-2.64 1.735-1.11.13-2.212.229-2.884-.619-.203-.476-.197-1.085-.637-1.472a1.34 1.34 0 0 0-.795-.334 1.973 1.973 0 0 0-.453-.055 1.247 1.247 0 0 0-.557.123 1.144 1.144 0 0 0-.97.888c-.092.38-.31.72-.617.962a1.194 1.194 0 0 0-.357 1.005.93.93 0 0 0-.05.216.643.643 0 0 0 .189.535l.027.025c.08.255.183.503.308.739-.01.115-.004.23.019.343.024.101.07.196.132.279.056.06.117.116.182.167.091.081.166.18.219.29.049.127.083.259.101.393a.706.706 0 0 0 .124.272.422.422 0 0 0 .126.118.409.409 0 0 0 .175.065.523.523 0 0 1 .176.024c.048.02.092.049.13.084.086.074.163.204.28.33.121.124.27.216.434.27.154.05.313.08.474.086h.228c.07-.004.14-.004.21 0 0 .022 0 .044.018.056.021.065.036.13.043.198.01.081.028.161.056.238.034.08.082.152.142.214.059.066.134.116.218.145.085.02.174.02.26 0 .156-.028.307-.077.427-.093a.383.383 0 0 1 .351.118.484.484 0 0 0 .453.17.956.956 0 0 0 .219-.096c.06-.035.125-.064.191-.087a.783.783 0 0 1 .407-.03c.067 0 .135.033.224.04a.552.552 0 0 0 .247-.053 1.52 1.52 0 0 0 .373-.275c.102-.091.221-.16.35-.204.284-.049.572-.06.857-.031a.87.87 0 0 0 .484-.133s.44-.214.459-.238c.04-.047.083-.09.13-.13l.067-.065c.182-.028.367-.059.567-.108.2-.05.822-.075.958.222 0 .016 0 .031.021.047-.03.059-.057.12-.08.182a4.195 4.195 0 0 0-.175 1.16.862.862 0 0 1-.154.467c-.135.132-.284.249-.444.35a1.547 1.547 0 0 0-.382.479 2.504 2.504 0 0 0-.117.284l-.022.074a.224.224 0 0 0 0 .133.512.512 0 0 1 .031.266c-.194.35-.453.715-.459 1.092-.006.377.231.786.225 1.144a7.688 7.688 0 0 1-.351 2.125c-.139.36-.23.738-.271 1.122-.014.228.038.455.15.653.126.201.318.352.543.427.194.054.393.087.595.096.172.015.357-.155.542-.133.184.021.379.232.582.225.214 0 .424-.05.616-.145a.866.866 0 0 0 .459-.554.95.95 0 0 0-.105-.692 1.547 1.547 0 0 0-.188-.263L12 25.14a1.072 1.072 0 0 0-.197-.158 1.064 1.064 0 0 1-.185-.136.657.657 0 0 1-.13-.17.883.883 0 0 1-.08-.442c.002-.178.012-.355.031-.532.04-.353.122-.7.247-1.033a4.052 4.052 0 0 1 .813-1.327c.204.253.383.524.536.81.172.265.38.504.616.712.24.229.46.478.656.745.093.13.163.272.274.412.059.267.144.527.256.776.222.464.638.723.924 1.088.154.198.13.495.348.619.219.124.687.093.924.136.247.046.498.069.749.068.268.007.53-.069.755-.216a.652.652 0 0 0 .23-.36c.051-.153.078-.314.08-.476a1.15 1.15 0 0 0-.47-.664c-.13-.07-.264-.13-.401-.18-.126-.055-.25-.105-.345-.151a.928.928 0 0 1-.25-.266 16.49 16.49 0 0 1-.452-.786 3.578 3.578 0 0 0-.955-1.002 1.706 1.706 0 0 1-.564-1.128c.002-.213.06-.421.17-.604.04-.272.048-.548.02-.822l.026-.056a.929.929 0 0 1 .11-.136.724.724 0 0 1 .111-.127c.062-.055.126-.105.194-.151.186-.145.394-.257.616-.334.45-.189.885-.146 1.353-.31a7.555 7.555 0 0 0 1.364-.692c.21-.136.402-.295.577-.473.094-.083.197-.154.308-.214 0 0 .104-.037.113-.052.185-.068.268-.245.444-.198.176.033.342.103.49.204.091.1.195.19.308.266.116.004.232-.005.345-.028.221-.067.448-.113.678-.14.157.022.175 0 .308.146 0 0 .237.195.286.226a.86.86 0 0 0 .413.071c.21 0 .418-.035.616-.105.328-.143.68-.222 1.038-.232.186.022.37.059.549.111a.746.746 0 0 0 .575-.154.71.71 0 0 1 .466-.164c.155-.002.31.017.462.055.178.04.365.018.53-.061.092-.031.138-.17.24-.198a.167.167 0 0 0-.05-.31h-.089l-.07.019-.136.037a1.014 1.014 0 0 1-.265.037.662.662 0 0 1-.24-.065.408.408 0 0 1-.105-.068.677.677 0 0 0-.139-.093.795.795 0 0 0-.616.075c-.16.09-.328.165-.502.222-.17.03-.346.001-.499-.08a.749.749 0 0 0-.308-.047 1.37 1.37 0 0 0-.308.053c-.19.05-.376.12-.551.21a1.34 1.34 0 0 1-.758.152c-.074-.019-.154-.05-.16-.09-.007-.04-.034-.077-.065-.13a.172.172 0 0 0-.03-.046l-.029-.031c-.018-.022-.04-.04-.058-.059a.704.704 0 0 0-.308-.148.992.992 0 0 0-.616.055l-.123.04a.595.595 0 0 0-.151.038.284.284 0 0 1-.077.018 1.01 1.01 0 0 1-.133 0 .268.268 0 0 1-.092-.046.488.488 0 0 0-.111-.114c-.074-.062-.111-.143-.191-.198a1.966 1.966 0 0 0-.527-.266c-.185-.05-.416.39-.616.448a.673.673 0 0 0-.274.145s-.123.121-.126.127c-.249.346-.57.631-.943.835-.403.216-.828.39-1.266.52-.434.139-.884.226-1.322.39a1.88 1.88 0 0 0-1.05.868c-.058.117-.1.24-.126.368a1.373 1.373 0 0 1-.093.331 2.38 2.38 0 0 0-.24.724c-.003.262.053.52.163.758.103.233.235.45.394.65.158.194.327.373.493.553.166.174.314.366.44.572.136.204.685.838.832 1.045.174.19.395.329.641.402.225.082.43.21.601.377a.492.492 0 0 1 .132.31.502.502 0 0 1-.101.309.811.811 0 0 1-.656.17 4.06 4.06 0 0 1-.727-.071 1.702 1.702 0 0 1-.657-.282 1.854 1.854 0 0 1-.477-.538 4.655 4.655 0 0 1-.216-.73s-.665-.763-.693-.788a5.878 5.878 0 0 0-.446-.928 8.85 8.85 0 0 0-.616-.77 5.58 5.58 0 0 0-.694-.683c-.126-.109-.255-.21-.375-.31l-.09-.083-.03-.028c.077-.076.158-.15.24-.223a4.26 4.26 0 0 1 .924-.593c.08-.044.17-.072.252-.109.07-.037.14-.07.213-.099.107-.086.21-.178.308-.275.308-.288.64-.541.973-.8a7.314 7.314 0 0 0 1.171-1.009c.33-.402.44-.897.68-1.333.121-.216.032-.377.161-.588.065-.105.342-.262.416-.364l.025-.037v-.02a.195.195 0 0 0-.003-.223.222.222 0 0 0-.243-.086.203.203 0 0 0-.084.05.496.496 0 0 0-.074.096l-.055.077-.105.152-.21.31-.397.618a7.379 7.379 0 0 1-.896 1.122c-.35.35-.678.72-.986 1.107-.157.195-.367.331-.527.52-.077.099-.25.25-.33.343a.95.95 0 0 1-.166.13c-.51.254-.994.555-1.448.9a4.582 4.582 0 0 0-1.333 1.79c-.15.352-.253.72-.309 1.099a2.507 2.507 0 0 0 0 1.18.928.928 0 0 0 .17.31c.071.08.153.15.243.207.143.09.277.194.4.31.046.042.08.095.102.154a.164.164 0 0 1-.015.13.58.58 0 0 1-.207.204.386.386 0 0 1-.095.034c-.308.065-.598-.102-.973-.117a3.38 3.38 0 0 1-.54-.155c-.166-.034-.378.084-.47-.028a.62.62 0 0 1-.124-.442c0-.17-.095-.325-.043-.498.052-.173.268-.365.308-.547.04-.183.092-.362.13-.545a6.54 6.54 0 0 0 .206-2.01 4.607 4.607 0 0 1-.019-1.283c.047-.168.123-.326.225-.467a.192.192 0 0 0 .043-.13 1.836 1.836 0 0 1 .059-.541c.13-.124.27-.235.422-.331.186-.118.348-.27.477-.449.064-.095.114-.2.148-.309.03-.101.05-.204.065-.31a1.49 1.49 0 0 1 .12-.37c.272-.409.619-.761 1.023-1.04.408-.269.838-.505 1.284-.704.482-.2.889-.547 1.162-.993a1.55 1.55 0 0 0 .172-.789v-.368c0-.104.01-.207.028-.309a.435.435 0 0 1 .07-.152.074.074 0 0 1 .071-.027c.056.01.11.03.158.062.059.035.114.075.166.12.065.074.114.186.219.31.055.063.12.118.19.163.065.04.132.075.2.105.24.08.47.178.694.294.185.168.344.363.471.579.084.12.189.224.308.309.128.078.27.127.42.145a7.46 7.46 0 0 0 1.043.071c.14.023.283.023.422 0h.133c.235.004.47.02.702.05l.308.046.148.034c.475.26.98.59 1.463.81.076.058.158.108.244.149a.938.938 0 0 0 .308.09c.12.043.25.043.37 0 .046 0 1.06-.335 1.1-.31.393.217 1.4-.086 1.986-.093.29 0 .998-.572 1.316-.664.104-.031 1.207-2.391 1.453-2.642.466-.476.715-1.203.552-1.546-.08-.17-.163-.334-.247-.495-.172-.764-1.072-1.75-1.475-2.449-.022-.074-.046-.145-.062-.216-.031-.308.031-.617.179-.888.227-.114.442-.25.644-.405.277-.226.511-.489.77-.711.26-.221.558-.39.88-.498.338-.113.662-.261.968-.443.157-.102.295-.232.407-.383a.993.993 0 0 0 .077-.12l.034-.062c0-.025.616-.372.616-.418 0-.046.724-1.067 1.118-1.602.197-.276.412-.538.644-.785.23-.244.495-.452.785-.619a4.645 4.645 0 0 1 3.13-.541c.2.185.4.374.588.575.105.102.203.212.293.328.08.112.14.236.179.368.035.138.063.279.083.42a.779.779 0 0 0 .095.263.883.883 0 0 0 .41.347l.065.037a.745.745 0 0 1 .25.368c.02.06.035.12.045.182l.025.223.046.442c.039.294.062.589.071.885 0 .29-.092.581-.117.887v.133a.823.823 0 0 1-.434.136c-.16.002-.318.03-.469.084a.638.638 0 0 0-.37.39c-.044.15-.062.307-.051.463l-.047.167a2.715 2.715 0 0 1-.11.291.292.292 0 0 0 0-.05.573.573 0 0 0-.06-.17.108.108 0 0 1 0-.027v.046c.025.08.035.162.032.244a.101.101 0 0 1 .064.071c.011.051.017.103.019.155.096-.09.18-.195.246-.31.045-.246.134-.483.262-.698a.393.393 0 0 1 .33-.08c.055 0 .117.024.194.034a.654.654 0 0 0 .255 0c.152-.04.295-.11.42-.205.226-.144.476-.25.739-.309.113-.04.217-.1.308-.18.043.015.09.015.132 0l.12-.058a2.22 2.22 0 0 0 1.226-1.992 1.198 1.198 0 0 0-.11-.618ZM14.76 13.01a.225.225 0 0 1 .117-.14.998.998 0 0 0-.117.14ZM39.48 1.906c-.212-.164-1.198-.907-1.41-1.067h.745c.256.077.502.18.736.309.019.059.644.495.7.875.032.127.039.26.018.39-.105.08-.791-.501-.8-.507h.012Zm2.918 3.126c-.144.298-.37.548-.65.72-.068.045-.14.084-.213.118l-.046.022a.203.203 0 0 0-.11.022.286.286 0 0 0-.072.058l-.027.022a.614.614 0 0 1-.327.062 2.898 2.898 0 0 0-.308 0c.04-.343.163-.693.216-1.086a.208.208 0 0 0 0 .04.29.29 0 0 0 .403.115.108.108 0 0 0 .04-.145.225.225 0 0 0-.25-.102h-.024a.102.102 0 0 0-.1-.034.102.102 0 0 0-.075.074c.014-.103.02-.206.018-.31 0-.176-.105-.272-.123-.417 0-.156.012-.313.037-.467v-.31a.23.23 0 0 0 .095.029.078.078 0 0 0 0 .021.101.101 0 0 0 .105.028.123.123 0 0 0 .077-.182c-.046-.078-.179-.106-.256-.136a.08.08 0 0 0-.07 0 .83.83 0 0 0-.17-.362c.106.058.215.11.327.154.308.13.616.248.899.402a.402.402 0 0 0-.099.118c-.062.124-.098.26-.107.399a.932.932 0 0 0 .052.433.676.676 0 0 0 .308.355.633.633 0 0 0 .508.019 1.759 1.759 0 0 1-.058.34Z"/><path fill="#1E5D8A" d="m4.252 17.109.053.018a.15.15 0 0 1-.053-.018ZM34.167 24.871a1.094 1.094 0 0 0-.465-.346 1.077 1.077 0 0 0-.308-.065h-.04a1.652 1.652 0 0 1-.216 0 .788.788 0 0 1-.182-.037.456.456 0 0 1-.262-.189 1.552 1.552 0 0 1-.12-.813 7.495 7.495 0 0 0-.043-.984 17.31 17.31 0 0 0-.135-.977l-.077-.482-.019-.121c0-.034-.03-.204-.03-.244a.445.445 0 0 0 0-.072v-.027c-.028-.152.064-.254.181-.418a.952.952 0 0 0 .157-.31c.028-.108.041-.22.04-.333a2.454 2.454 0 0 0 0-.31c-.01-.08-.01-.16 0-.24a.977.977 0 0 1 .062-.214c.034-.074.08-.151.123-.247.19-.384.231-.825.117-1.237a2.5 2.5 0 0 0-.237-.56c-.046-.09-.101-.177-.163-.257a.138.138 0 0 0-.163.016.14.14 0 0 0-.035.16c.181.333.227.724.127 1.09-.022.086-.053.17-.08.25-.028.08-.071.151-.114.235-.1.178-.175.368-.225.566-.077.448.114.813 0 1.162-.1.175-.166.367-.194.566a.697.697 0 0 0 .04.241c.113.543.175 1.095.185 1.649 0 .244-.04.498-.068.736a4.504 4.504 0 0 0-.046.748 9.829 9.829 0 0 1-.42-2.52c-.028-.567-.028-1.134 0-1.701 0-.285.044-.566.069-.85l.049-.424v-.109a.105.105 0 0 0-.068-.108.142.142 0 0 0-.188.112c-.139 1.131-.345 2.257-.373 3.401a6.826 6.826 0 0 0 .737 3.387c.08.142.184.27.308.377.135.108.252.29.372.34.114.05.218.117.308.201.099.087-.027.189.019.288a.15.15 0 0 1 0 .056.161.161 0 0 1 0 .061.123.123 0 0 1-.093.09 1.437 1.437 0 0 1-.203 0c-.138 0 .176 0 .034-.015-.308-.019-.573.018-.856 0a3.9 3.9 0 0 1-.832-.068 1.166 1.166 0 0 1-.376-.14.394.394 0 0 1-.2-.275.268.268 0 0 1 0-.086v-.078a.18.18 0 0 0-.055-.095.205.205 0 0 0-.188-.047.194.194 0 0 0-.151.13.478.478 0 0 0-.019.142V26a.803.803 0 0 0 .074.235 1.068 1.068 0 0 0 .77.526c.289.06.583.09.878.09 0 0 .653 0 .801.024.162-.013.324-.035.484-.065.154 0 .07 0 .259-.105a.435.435 0 0 0 .234-.44h.037a.274.274 0 0 0 .058-.036l.03-.031c.029-.028.075-.037.167-.062.093-.025.355-.13.4-.238.096-.223.377-.384.343-.557a1.239 1.239 0 0 0-.22-.47Zm-.69.792a.074.074 0 0 0 0 .043.152.152 0 0 1-.022.102c0 .016-.04.022-.08.019a.071.071 0 0 0-.058.021s.11-.34 0-.448a1.725 1.725 0 0 0-.616-.402.548.548 0 0 1-.305-.241c.059.051.125.094.197.127.13.057.268.09.41.095.138 0 .264 0 .385-.015.12-.016 0 0 .126.019a.505.505 0 0 1 .456.426v.019c.028.093-.438.167-.5.235h.007ZM26.89 20.804l.078-.021.117-.038c.077-.027.154-.055.23-.09.158-.068.305-.158.438-.265.14-.114.263-.248.364-.4.085-.145.16-.297.221-.454.093-.275.216-.538.367-.785a.487.487 0 0 1 .345-.192h.111c.034 0 .108 0 .142-.03a.147.147 0 0 0 .049-.134.122.122 0 0 0-.096-.099c-.308-.083-.764-.643-1.053-.43-.142.105-.434.86-.518 1.012-.057.16-.098.326-.123.494a2.536 2.536 0 0 1-.09.421c-.064.133-.02.21-.138.31a1.47 1.47 0 0 1-.397.234l-.108.044c-.04.018-.062.018-.12.046a.182.182 0 0 0-.086.21.222.222 0 0 0 .147.161.2.2 0 0 0 .12.006ZM28.234 21.942a6.59 6.59 0 0 1 .431-.853.597.597 0 0 1 .382-.22.54.54 0 0 1 .123-.015h.068c.03 0 .059-.013.08-.034.08-.09.04-.387-.068-.39a2.743 2.743 0 0 0-.637-.021 1.23 1.23 0 0 0-.502.228c-.151.118-.179.467-.26.634-.045.09-.067.149-.104.22l-.11.21c-.162.297-.337.585-.527.863-.096.142-.191.29-.275.445a2.136 2.136 0 0 0-.11.242l-.028.061a.211.211 0 0 0 .181.276.218.218 0 0 0 .232-.127l.055-.124c.034-.069.073-.135.117-.198a3.54 3.54 0 0 1 .308-.37c.25-.246.467-.523.644-.826ZM29.016 22.99c.016-.018.059-.04.08-.083a.133.133 0 0 0 0-.123.143.143 0 0 0-.082-.073.142.142 0 0 0-.109.008 2.915 2.915 0 0 0-.653.411c-.193.18-.33.414-.39.671-.066.244-.072.501-.146.733a1.584 1.584 0 0 1-.144.331l-.044.077a.183.183 0 0 0-.018.161c.02.053.058.098.108.124a.215.215 0 0 0 .265-.068l.03-.047.056-.083a3.09 3.09 0 0 0 .256-.51l.268-.665c.088-.207.191-.408.308-.6a.966.966 0 0 1 .215-.263ZM29.238 24.729l.031-.028.028-.019a.14.14 0 0 0 .034-.027.147.147 0 0 0 .046-.146.152.152 0 0 0-.182-.127c-.1.022-.195.055-.287.1a.733.733 0 0 0-.258.21.77.77 0 0 0-.127.572v.31a.66.66 0 0 0 .034.327.225.225 0 0 0 .188.102.46.46 0 0 0 .093 0 .205.205 0 0 0 .123-.05.263.263 0 0 0 .07-.293v-.022a.467.467 0 0 0 .032-.084c.02-.068.038-.137.052-.207.028-.145.03-.238.052-.343a.661.661 0 0 1 .071-.275Zm-.351 1.082a.098.098 0 0 0 .037-.03.217.217 0 0 0 .034-.04.17.17 0 0 1-.083.083l.012-.013ZM29.783 25.05a.176.176 0 0 0-.11-.12.178.178 0 0 0-.207.058 2.326 2.326 0 0 0-.234.335.446.446 0 0 0-.059.197.475.475 0 0 0 .016.167c0 .053.03.096.04.14a.154.154 0 0 1 0 .064c0 .022 0 .025-.046.065a.205.205 0 0 0 0 .263.175.175 0 0 0 .154.056.39.39 0 0 0 .077-.022l.049-.024a.47.47 0 0 0 .188-.155.646.646 0 0 0 .092-.22c.028-.122.04-.248.034-.374 0-.09-.008-.18-.021-.269 0 0 .046-.077.027-.16ZM41.477 4.005a.084.084 0 0 0-.083-.055.083.083 0 0 0-.034.009.233.233 0 0 0-.256.074.11.11 0 0 0-.018.127.355.355 0 0 0 .416.18.109.109 0 0 0 .064-.155c-.037-.065-.062-.124-.09-.18ZM41.899 5.32c-.022-.074-.111-.124-.17-.05a.183.183 0 0 0 0 .257.176.176 0 0 0 .253-.022.114.114 0 0 0 .015-.118.114.114 0 0 0-.098-.067ZM35.297 2.391a1.02 1.02 0 0 1-.15-.043.2.2 0 0 0-.133.065c-.105.099-.065.086-.074.213a.44.44 0 0 1-.096.257c-.126.127-.588-.031-.492.284a.548.548 0 0 0 .11.158l.043-.117a.394.394 0 0 1 .071-.158s.025 0 .127-.04a.495.495 0 0 0 .17-.1.405.405 0 0 0 .129-.216c0-.065 0-.077.018-.093v-.03c0-.019.034-.062.105-.093a.615.615 0 0 1 .114-.04l.074-.022-.016-.025ZM33.15 11.029c0-.03-.009-.06-.027-.093a.644.644 0 0 1-.105-.585.45.45 0 0 0-.08.158s0 .022-.028.059a.347.347 0 0 0-.07.176.243.243 0 0 0 .07.183.453.453 0 0 0 .108.065l.018.021v.025a.146.146 0 0 0 .028.037.176.176 0 0 0 .179.04h.018a.117.117 0 0 1-.11-.086ZM33.55 10.311a.756.756 0 0 0-.153.59.135.135 0 0 1-.028.106v.018c0 .019.018-.018.025-.034a.199.199 0 0 0 .021-.102l.04-.052a.686.686 0 0 0 .08-.167.853.853 0 0 0 .031-.266.333.333 0 0 0 0-.084l-.015-.009ZM34.14 11.452a.986.986 0 0 1-.025-.414c0-.158 0-.275-.176-.238a.12.12 0 0 1-.117-.043.254.254 0 0 0-.096.309c.05.111.157.158.213.213.028.028.05.06.068.096a.186.186 0 0 0 .154.096.212.212 0 0 1-.022-.019ZM35.56 10.738c-.02.09-.047.176-.069.25-.027.123-.07.242-.129.353a.1.1 0 0 1-.136.096.309.309 0 0 1-.19-.436.584.584 0 0 1 .175-.245c.077-.068.126-.105.139-.191a.22.22 0 0 0-.099.03.214.214 0 0 0-.098.121c-.022.075-.105.133-.176.207a.245.245 0 0 0-.07.25.617.617 0 0 0 .058.13c.014.021.026.043.037.066.01.033.03.063.055.086a.246.246 0 0 0 .166.065.194.194 0 0 0 .185-.12.235.235 0 0 0 .019-.062v-.028a.274.274 0 0 0 .024-.053c0-.034.022-.068.034-.098.025-.062.045-.125.059-.19v-.101a.977.977 0 0 0 .015-.13ZM36.255 10.803a.518.518 0 0 1 .117-.343c.096-.115.25-.189.26-.353a.221.221 0 0 0-.167.062l-.037.043-.025.022-.046.04a.94.94 0 0 0-.07.093.699.699 0 0 0-.109.192.611.611 0 0 0-.021.108v.056a.236.236 0 0 0 0 .08.214.214 0 0 0 .123.167.19.19 0 0 1-.025-.167ZM36.585 4.457a.202.202 0 0 0-.065-.077.112.112 0 0 1 .016.17c-.123.12-.123.309-.173.464a.409.409 0 0 1-.154.25l-.03.025a.693.693 0 0 1-.142.077.567.567 0 0 1-.58-.068c.12.144.29.237.475.26a.614.614 0 0 0 .342-.068c.113-.06.2-.159.246-.278.047-.156.063-.319.046-.48a.615.615 0 0 1 0-.105s.019-.043.025-.08a.203.203 0 0 0-.006-.09ZM33.603 6.838a.102.102 0 0 1-.08-.136c.057-.175.153-.335.28-.467.179-.185.42-.31.472-.581.058-.325-.111-.696.184-.928a.113.113 0 0 1 .096-.025.11.11 0 0 0-.139 0c-.098.06-.188.133-.268.217a.694.694 0 0 0-.101.157.673.673 0 0 0-.043.201v.31c0 .068 0 .086-.031.136-.07.073-.147.14-.228.2a.816.816 0 0 0-.219.31c-.05.107-.084.222-.099.34a.392.392 0 0 0 0 .087.201.201 0 0 0 .019.127.216.216 0 0 0 .17.102l-.013-.05ZM35.645 7.766c.08-.145.256-.186.364-.31.215-.222-.099-.327-.105-.571a.35.35 0 0 1 .059-.21.833.833 0 0 0-.188.346.528.528 0 0 0 .024.309.093.093 0 0 1 0 .025c-.038.044-.08.087-.123.126a.511.511 0 0 0-.154.417c.008.05.026.097.053.14.028.042.061.08.098.115.01.009.022.016.034.021a.372.372 0 0 1-.062-.408Z"/><path fill="#1E5D8A" d="M35.84 7.33v-.025c0 .003.006.015 0 .024ZM34.798 9.553V9.6a.452.452 0 0 1-.058.198.101.101 0 0 1 .098.028.222.222 0 0 0 .222.04.308.308 0 0 0 .065-.09.624.624 0 0 0 0-.117c0-.093-.046-.183-.056-.276v-.021a.56.56 0 0 1-.11-.31.257.257 0 0 1 .055-.142.454.454 0 0 0-.197.232.619.619 0 0 0-.031.31.199.199 0 0 0 .012.101ZM34.007 9.053c-.349-.362.074-.96.11-1.383.009-.124.024-.248.047-.37a.561.561 0 0 1 0-.103c0 .019-.025.034-.037.056a1.003 1.003 0 0 0-.084.309 1.796 1.796 0 0 0 0 .278.819.819 0 0 1 0 .183c0 .108-.163.309-.19.529a1.136 1.136 0 0 0 0 .309.45.45 0 0 0 0 .08c.01.046.038.086.077.112a.218.218 0 0 0 .135.024.126.126 0 0 1-.058-.024ZM34.567 7.565a.114.114 0 0 1 0 .034.89.89 0 0 1 .05.482c-.078.31-.38.501-.37.832a.307.307 0 0 0 0-.074v-.03a.308.308 0 0 1 .028-.084.753.753 0 0 1 .126-.152c.08-.074.15-.16.203-.257a.62.62 0 0 0 .068-.392 1.684 1.684 0 0 0-.105-.36ZM35.997 2.92c.018.123.018.248 0 .371 0 .071-.034.136-.05.207v.028a.211.211 0 0 0 .031.065.263.263 0 0 1 .065-.102.425.425 0 0 0 .157-.38.592.592 0 0 0-.274-.393l-.087-.062a.218.218 0 0 0-.126-.05h-.03a.354.354 0 0 1 .314.316ZM35.532 3.684c-.019-.214.086-.42.08-.619a.93.93 0 0 0-.148.368.559.559 0 0 0 .108.387.42.42 0 0 1-.04-.136ZM36.9 8.372c.06-.207.252-.31.381-.454a.228.228 0 0 0-.12-.109.267.267 0 0 0-.194 0 .231.231 0 0 0-.133.217.132.132 0 0 0 0 .062.085.085 0 0 0 0 .024l-.021.034a.552.552 0 0 0-.056.27c.004.034.013.069.025.101l.03.06v.018a.292.292 0 0 0-.036.145.31.31 0 0 0 .172.29H37.02a1.07 1.07 0 0 1-.12-.658ZM37.506 8.558a.31.31 0 0 0-.145-.198.31.31 0 0 0-.018.216.098.098 0 0 1 0 .09c.092.254.17.442 0 .671a.142.142 0 0 0 .074-.083.93.93 0 0 0 .052-.368v-.062a.348.348 0 0 0 .037-.266ZM38.455 2.97a.115.115 0 0 1 .043.105.199.199 0 0 0-.037-.118.118.118 0 0 0-.105-.05.099.099 0 0 0-.086.109c0 .074.099.111.176.127"/><path fill="#1E5D8A" d="M38.347 3.077h.308a.35.35 0 0 0-.142-.278.249.249 0 0 0-.308.025c-.203.192 0 .417.204.47a.159.159 0 0 0 .195-.113.16.16 0 0 0-.112-.196c-.056 0-.16-.08-.142.083.019.164.323.201.308 0a.31.31 0 0 0-.09-.213c-.132-.149-.347.068-.215.216l-.006.006Z"/><path fill="#1E5D8A" d="M38.31 2.945a.072.072 0 0 0 .017.077.07.07 0 0 0 .023.015.055.055 0 0 0 .07-.055.065.065 0 0 0-.082-.031.145.145 0 0 0-.062.074.13.13 0 0 0 0 .046.068.068 0 0 0 .077.056.108.108 0 0 0 .077-.068.099.099 0 0 0 0-.083.065.065 0 0 0-.07-.034"/><path fill="#1E5D8A" d="M38.171 2.945c0 .235.308.358.407.11.098-.246-.262-.336-.391-.154-.13.183.028.47.262.353a.244.244 0 0 0 .063-.405.243.243 0 0 0-.147-.062c-.197 0-.197.31 0 .31h.04l-.107-.044.114-.062v.12h-.053l-.09-.07v.024-.117.034l.072-.093h.015l.108.046c0-.198-.308-.198-.308 0l.015.01Z"/></svg>