<svg xmlns="http://www.w3.org/2000/svg" width="43" height="32" viewBox="0 0 43 32" fill="none"><g fill-rule="evenodd" clip-path="url(#a)" clip-rule="evenodd"><path fill="#fff" d="M42.367 3.215c.406-.493.046-1.295-.53-1.574-.577-.279-1.257-.193-1.892-.104-.635.088-1.318.166-1.888-.126-.34-.175-.606-.467-.935-.663-1.043-.622-2.44-.12-3.31.724-.87.845-1.397 1.97-2.132 2.932-1.36 1.777-3.412 2.949-5.576 3.553-2.164.605-4.445.68-6.69.57-1.903-.093-3.83-.314-5.699.053-2.88.567-5.29 2.454-7.576 4.283-2.028 1.623-4.081 3.27-5.622 5.355l7.349-4.698c.921 1.62.761 3.615.489 5.457-.183 1.238-.42 2.511-1.12 3.553-.59.876-1.492 1.567-1.826 2.567-.232.693-.157 1.446-.078 2.172l.354 3.29c.022.21.05.432.185.594.146.176.384.242.606.298.467.117.96.235 1.424.112.465-.124.878-.582.77-1.048-.082-.355-.416-.584-.679-.84a2.612 2.612 0 0 1-.727-2.332c.526.483.678 1.231.89 1.91.21.678.592 1.409 1.285 1.587.692.179 1.502-.7 1.023-1.228-1.55-1.447-2.003-3.927-1.064-5.822.75-1.512 2.223-2.564 3.027-4.047.64-1.179.9-2.66 1.543-3.79.304-.103.604-.255.907-.361.962-.338 2.026-.198 3.017.042 3.39.82 6.54 2.772 10.03 2.82h.137a47.783 47.783 0 0 0 1.074 10.589c.174.805.395 1.653.994 2.224.598.57 1.697.698 2.205.047l-.625-.598a3.746 3.746 0 0 0 1.917-.232c.039-.434-.54-.594-.914-.822-.639-.387-.795-1.223-.889-1.96-.29-2.27-.58-4.572-.262-6.839.287-2.039 1.055-3.976 1.824-5.889a991.77 991.77 0 0 1 3.24-7.963c.222-.542.466-1.11.936-1.464.582-.439 1.37-.45 2.088-.592a5.323 5.323 0 0 0 3.245-2.083l-.525.343Z"/><path fill="#1E5D8A" d="M36.934.405a.493.493 0 0 1 .498-.062c.331.092.563.307.73.552.066.092.165.215.231.307.1.153.265.215.465.245.199.03.398.03.597.062h.265c.332-.031.663 0 .995 0 .2 0 .365.03.564.03.166 0 .365.03.53 0 .2-.03.366-.03.565 0 .365.03.53.215.564.552 0 .153 0 .307-.034.368 0 .215 0 .399-.033.613 0 .245-.066.43-.232.613-.1.123-.166.276-.299.399-.1.123-.265.184-.398.276-.1.061-.165.122-.265.153a3.376 3.376 0 0 0-.796.49c-.133.092-.232.246-.365.369-.166.153-.365.275-.597.275-.464.031-.896.123-1.36.246-.2.03-.431.092-.63.153-.133.03-.2.092-.299.184-.564.552-.962 1.226-1.293 1.9-.067.154-.1.338-.166.522-.066.215-.133.398-.2.613-.065.215-.132.399-.198.583-.1.337-.299.643-.465.95-.132.214-.232.46-.265.705-.066.43-.199.828-.332 1.227-.099.337-.165.705-.232 1.042a4.316 4.316 0 0 1-.563 1.533c-.2.306-.332.613-.465.92-.133.367-.299.704-.465 1.042-.099.215-.165.43-.198.674-.067.277-.133.552-.266.828a9.016 9.016 0 0 0-.365.828c-.1.245-.166.49-.199.736-.066.276-.066.582-.1.858v.092c.067.46-.033.89-.066 1.35v.091c.033.307.033.613.067.92.066.43.1.828.066 1.257-.033.49-.033.95.033 1.41.033.399.033.797-.033 1.196-.066.276-.033.552.033.828.033.091.067.122.166.153.066.03.166.061.232.061.266.03.465.123.697.245.1.062.232.123.365.184.199.123.331.338.464.521.067.031.034.093 0 .154-.133.153-.298.214-.497.245-.2.062-.432.062-.664.092-.1.03-.199 0-.298 0-.067 0-.133 0-.2.062.034.06.067.122.1.153.133.153.232.276.365.429.1.092.1.215.033.337-.1.153-.199.246-.365.307a1.426 1.426 0 0 1-.497.092c-.2 0-.365.03-.53.061-.1.03-.233 0-.332 0-.166-.03-.365-.03-.532-.03-.232.03-.364-.062-.497-.215-.232-.246-.332-.521-.398-.828-.033-.245-.133-.49-.232-.736-.1-.245-.166-.49-.265-.735-.034-.062-.034-.123-.067-.185-.1-.183-.232-.337-.232-.552 0-.03-.033-.06-.066-.091-.166-.154-.2-.338-.2-.521v-.644c0-.215 0-.46-.033-.675-.033-.49 0-.95 0-1.44 0-.215-.033-.4-.033-.584v-.613a1.309 1.309 0 0 0-.033-.613c-.033-.06-.033-.091-.033-.122 0-.49-.1-1.012-.166-1.502a6.014 6.014 0 0 1-.066-.767c0-.215-.066-.398-.166-.582a2.414 2.414 0 0 1-.332-.798c0-.061-.033-.153-.033-.245 0-.153.033-.245.1-.368.099-.153.199-.337.298-.521.067-.123.067-.245.1-.398h-.166c-.133.03-.233.03-.365.03-.033 0-.1 0-.166.03-.166.031-.365.062-.53.062h-1.095c-.2-.03-.398-.061-.564-.092a10.248 10.248 0 0 0-1.028-.153c-.266 0-.498-.061-.763-.123a.731.731 0 0 1-.365-.122.804.804 0 0 0-.365-.092c-.133 0-.298-.062-.431-.123s-.299-.122-.431-.184l-.398-.092c-.398-.061-.796-.245-1.161-.43-.332-.183-.664-.367-1.029-.428-.066-.031-.165-.062-.232-.092-.298-.184-.663-.245-1.028-.368-.066-.031-.1 0-.133-.031-.232-.153-.53-.153-.796-.184h-.132c-.399-.153-.763-.03-1.128.092-.265.092-.531.184-.796.245-.299.062-.299.062-.564-.03-.1.122-.166.245-.1.429a.482.482 0 0 1 0 .306c-.066.399-.099.798-.232 1.166-.166.46-.232.92-.265 1.41 0 .061 0 .122-.033.153-.1.307-.232.583-.365.859-.033.06-.066.122-.1.153-.232.215-.364.49-.53.736a3.384 3.384 0 0 0-.332.582c-.166.337-.398.613-.63.89l-.067.06c-.331.246-.53.583-.796.89-.066.061-.1.153-.133.214-.066.123-.132.276-.232.368-.1.153-.199.276-.265.43a1.944 1.944 0 0 1-.1.245c-.165.306-.265.613-.364.92-.067.245-.166.49-.2.766v.184l.2 1.533a.56.56 0 0 0 .132.367c.067.093.1.154.166.246.034.03.067.092.133.123.133.06.232.091.365.122.331.092.564.307.696.583a.26.26 0 0 1 .033.153v.245c0 .215-.132.399-.43.399-.167-.031-.332-.031-.498-.031-.199 0-.431 0-.63.061a.718.718 0 0 1-.564 0c-.067-.03-.166-.03-.232-.061-.2-.061-.332-.153-.399-.337 0-.062-.033-.092-.066-.184-.033.215 0 .49.033.613.033.061.033.153.067.245 0 .062.033.123.033.184h.1c.165-.03.265.03.331.153s.033.246-.033.368c0 0 0 .031-.033.062-.166.215-.398.306-.664.398-.066.031-.1 0-.166 0-.43-.03-.862-.061-1.293 0-.133.031-.299 0-.431-.03-.067 0-.133-.062-.2-.123-.033-.061-.1-.153-.1-.215-.032-.214-.065-.429-.065-.674v-.521a86.374 86.374 0 0 0-.1-.95v-.093c.1-.367 0-.766-.066-1.134-.033-.215-.1-.399-.166-.613-.033-.215-.1-.399-.133-.613-.033-.062-.033-.154-.033-.246 0-.183-.033-.367-.033-.551v-.184c.066-.246.133-.491.199-.706.033-.06.1-.122.133-.183.033-.031.066-.092.132-.123.266-.153.432-.43.564-.675.166-.306.332-.613.531-.92.232-.336.431-.705.697-1.042.298-.367.398-.797.43-1.226l.1-1.012a.933.933 0 0 0 0-.429c-.066-.215-.033-.46 0-.674.067-.49.166-1.012.232-1.503.034-.214 0-.46-.033-.705 0-.306-.033-.613-.1-.92-.065-.398-.065-.766-.231-1.134-.034-.092-.034-.214-.034-.337-.033-.215-.033-.399-.033-.583 0-.03-.033-.061-.033-.122a.446.446 0 0 0-.331.184c-.1.153-.233.275-.399.398-.132.092-.232.184-.331.276-.233.245-.498.43-.763.644-.1.061-.2.122-.266.214-.232.215-.497.368-.763.522a1.382 1.382 0 0 0-.464.398c-.1.123-.232.215-.365.307-.165.122-.365.214-.53.337-.034.03-.067.03-.1.061-.332.153-.597.338-.929.46-.033 0-.066 0-.1.031-.298.245-.663.337-.961.552-.066.03-.1.092-.166.092-.166.03-.265.122-.365.184-.166.122-.331.153-.53.153a.379.379 0 0 1-.332-.153c-.033 0-.033-.031-.033-.031-.133-.215-.233-.245 0-.521.298-.338.564-.675.862-1.012l.1-.092c.199-.123.365-.276.563-.398.366-.276.697-.522.996-.828l.995-1.012c.165-.184.298-.337.464-.521 0-.03.033-.061.066-.092.299-.184.531-.43.796-.644.166-.153.365-.276.531-.43.232-.183.432-.367.663-.52.1-.062.166-.154.233-.245.1-.184.232-.307.398-.43.265-.215.564-.398.862-.613.1-.03.166-.092.232-.153.166-.092.299-.215.465-.307a.744.744 0 0 0 .166-.092c.265-.306.63-.49.994-.674.067-.031.133-.062.2-.123.232-.153.43-.307.663-.46 0 0 .033-.03.067-.03.364-.154.762-.338 1.16-.46.432-.154.896-.307 1.36-.368.166-.031.332-.062.464-.123.3-.092.598-.123.896-.153.266-.03.53-.092.796-.123.664-.092 1.327-.092 1.99-.122h.465c.43 0 .83.092 1.26.153.365.03.73.061 1.095.122.663.092 1.326.092 1.957.154.199.03.431.03.663.03.266 0 .53 0 .796.031.299.03.597 0 .863-.092a2.03 2.03 0 0 1 .73-.123c.165-.03.33-.06.464-.091.199-.062.43-.123.663-.215.332-.123.664-.184.962-.337.166-.092.365-.123.564-.184.133-.03.265-.092.398-.184.265-.184.564-.368.862-.552.166-.092.332-.245.432-.399.066-.092.132-.153.199-.214.066-.061.132-.153.232-.215l.398-.276c.1-.122.166-.245.298-.337.233-.153.365-.368.498-.582.1-.154.199-.338.299-.522.099-.245.232-.46.364-.674.2-.368.432-.705.664-1.073.1-.154.199-.337.298-.49.166-.215.299-.4.53-.553.2-.122.399-.184.598-.122.2.03.365 0 .53-.031.233-.061.432-.123.664-.184.299-.092.564-.153.862-.153.2 0 .398 0 .564.092.033 0 .1.03.166.061.033-.03.1-.03.133-.061Zm-3.748 1.502c-.033.061-.066.092-.1.153-.265.491-.597.92-.862 1.41-.133.215-.298.43-.398.645-.1.275-.299.49-.464.735-.2.276-.432.552-.73.736-.033.03-.1.092-.133.153-.166.184-.398.338-.464.583 0 .03-.033.03-.033.03-.2.123-.332.307-.564.399-.2.062-.365.215-.531.337-.1.062-.133.154-.1.246.034.03.034.06.034.092.033.214-.067.398-.265.52 0 .215-.1.43-.3.553a.265.265 0 0 1-.298 0 .929.929 0 0 1-.365-.338c.067.245 0 .522-.099.767-.033.122-.133.184-.265.214-.034.062-.1.123-.166.184-.067.062-.133.062-.2.031-.066-.03-.099-.092-.066-.153V9.05c-.033-.03-.066-.092-.1-.122-.165-.184-.098-.368-.066-.583.034-.153.166-.245.332-.306.033 0 .1 0 .066-.092-.165.061-.331.061-.464.123-.265.091-.564.214-.829.306-.066.03-.133.03-.2.03a2.11 2.11 0 0 0-.63.031c-.165.031-.364.031-.53.123h-1.26c.066.061.132.153.1.276a.233.233 0 0 1-.167.214c-.033 0-.066 0-.132.031v.276c-.033.276-.2.49-.498.644-.166.092-.465 0-.53-.184 0-.061-.034-.092-.067-.153-.066-.154-.033-.246.033-.368.066-.123.166-.215.232-.338.1-.122.2-.183.365-.183h.133c.033-.092.066-.154.1-.215-.233 0-.465 0-.697-.061h-.133c-.232 0-.464-.03-.697-.03-.066 0-.132.03-.232.03.067.214.1.46-.066.674-.332.184-.696.123-1.061.061-.067-.03-.133-.092-.133-.153s0-.153.033-.184c.133-.153.066-.337.066-.552-.099-.03-.232-.06-.331-.06-.2-.031-.431-.062-.664-.093l-.597-.092c-.1 0-.199-.03-.265.03 0 .093 0 .215-.067.276-.033.093-.066.154-.033.246a.364.364 0 0 1 .034.184c0 .153-.067.245-.2.306-.563.246-.961.062-1.326-.306-.066-.092-.066-.184 0-.245a.385.385 0 0 1 .166-.154c.166-.122.199-.153.298-.306-.663 0-1.227.06-1.492.184 0 .184 0 .368.1.52a.178.178 0 0 1-.034.215c-.133.123-.266.246-.464.276-.233.062-.431 0-.63-.122-.067-.03-.1-.092-.167-.092-.198-.03-.298-.184-.43-.276.066-.092.132-.184.199-.307h-.133c-.166.031-.365.062-.564.092-.166.031-.299.092-.465.154-.033.03-.066.06-.132.092.166.153.298.306.564.337.033 0 .1 0 .132.03.166.062.299.154.332.338 0 .153.033.337-.166.46-.033.03-.033.06-.066.092v.214c.199-.03.398.061.464.245.034.031.034.062.066.123h.365c.133 0 .2.061.232.154.034.03.034.06.034.091.1.276-.034.522-.299.614-.133.03-.265.122-.398.183-.066.062-.166.062-.232.092-.033.031-.1.031-.166.062-.1.03-.166.092-.166.184-.033.122-.033.214-.033.337-.033.276-.232.46-.53.49-.166 0-.399-.153-.465-.337-.033-.123-.033-.215-.033-.337 0-.46.1-.95.166-1.41v-.031a.682.682 0 0 1-.489-.206l-.01.053c-.032.122-.099.214-.198.245-.066.03-.133.061-.199.03a.289.289 0 0 1-.2-.183c-.032-.031-.032-.123-.066-.215.1-.061.167-.123.233-.184a.326.326 0 0 1 .06-.03c-.06-.031-.126-.123-.093-.215V10c-.067-.061-.1-.123-.166-.153-.132-.092-.166-.215-.1-.368 0 0 0-.03-.032-.062-.067 0-.133 0-.2.031-.132.092-.265.153-.364.245-.2.154-.399.276-.63.399a1.74 1.74 0 0 0-.565.368c-.1.092-.199.153-.331.245-.564.368-1.095.736-1.593 1.165-.066.061-.132.123-.166.215a.495.495 0 0 1-.232.275 4.341 4.341 0 0 0-.862.675.709.709 0 0 1-.166.123 2.18 2.18 0 0 0-.498.429c-.132.153-.265.307-.464.399a.853.853 0 0 0-.199.153c-.331.368-.73.674-.995 1.073l-.033.03c-.332.338-.697.644-1.062.95-.066.062-.165.123-.265.185-.132.092-.298.184-.431.306-.033.03-.066.062-.033.153.033-.03.1-.03.132-.06.432-.246.896-.491 1.36-.767.233-.123.498-.245.664-.46a2.4 2.4 0 0 1 .763-.613c.166-.092.332-.215.464-.368.1-.153.265-.276.431-.368.166-.092.332-.214.498-.368.133-.122.298-.245.431-.368.266-.214.497-.46.763-.674.033-.03.033-.061.066-.092.1-.215.266-.368.465-.49.398-.215.63-.185.762.244.067.184.067.369.067.583 0 .215.033.46.033.705v.154c.1-.031.166-.031.232-.031.299 0 .53.123.664.398.033.031.033.062.066.092a.31.31 0 0 1 0 .338c-.033.06-.066.092-.066.122.033.153.066.276.066.399 0 .245-.2.399-.465.368-.066 0-.132-.03-.198-.03a.278.278 0 0 0-.033.275c.066.307.099.644.099.981.033-.153.199-.307.365-.307.066 0 .133.031.166.062.232.245.464.521.464.92 0 .091 0 .214-.133.275-.165.062-.331.123-.464 0-.066-.06-.133-.153-.2-.214-.132-.123-.231-.276-.198-.46 0-.061 0-.122-.033-.184v.184c0 .184 0 .337-.066.49-.034.154-.067.276-.1.43.033 0 .066-.03.1-.03.099.06.132.152.165.275.033.123-.033.184-.165.184-.034.03-.067 0-.1 0 0-.03-.033-.03-.033-.061l-.033.161-.033.168-.034.161c-.033.153-.066.307 0 .46.1.184.067.368.034.583a1.549 1.549 0 0 0 0 .551c.099 0 .199-.03.265-.03s.132.03.199.061c.133.092.1.245-.034.307-.132.03-.231.06-.331-.062 0-.061-.033-.092-.133-.061 0 .03-.033.092-.033.123-.033.06 0 .153-.033.245-.067.215-.133.398-.199.582a1.437 1.437 0 0 1-.1.215c-.232.337-.464.644-.696.98a3.024 3.024 0 0 0-.365.522c-.066.123-.1.245-.2.337a.717.717 0 0 0-.198.338c-.133.306-.299.613-.63.797-.265.153-.332.337-.332.582v.767c0 .153.033.337.1.49.033.092.033.184.066.276.066.368.199.705.199 1.073 0 .062.033.092.033.123.033.092.033.215.033.306a5.345 5.345 0 0 0 .033 1.626v.337c0 .153.033.276.1.398.033.062.1.092.166.092h.1c.33-.03.63-.03.961-.03.133 0 .265-.031.398-.062.067-.03.133-.061.133-.122 0-.062-.033-.092-.1-.123-.033-.03-.066-.03-.099-.061-.232-.123-.299-.276-.232-.552.033-.123 0-.184-.033-.276a2.278 2.278 0 0 1-.233-.49 21.17 21.17 0 0 1-.199-.706c-.033-.122-.066-.276-.166-.398-.1.091-.166.183-.298.214-.066 0-.133-.092-.265-.092-.1 0-.166-.092-.1-.184.066-.122.133-.214.2-.306.099-.153.099-.153.33-.092 0 .03.034 0 .067 0 0-.092 0-.154-.033-.245-.1-.399-.232-.798-.199-1.227v-.092a1.07 1.07 0 0 1 0-.46c0-.153.066-.275.1-.429.099-.306.364-.552.563-.797.067-.092.166-.184.233-.276.066-.092.166-.214.232-.307.1-.122.199-.214.265-.337l.498-.828.199-.276.497-.551c.1-.092.166-.215.266-.307a2.18 2.18 0 0 0 .364-.582c.166-.307.365-.583.564-.859.133-.184.299-.337.431-.521a.377.377 0 0 0 .133-.276.911.911 0 0 1 .265-.49.483.483 0 0 0 .2-.246c.132-.245.265-.49.331-.766 0-.092.066-.184.1-.245.033-.062.066-.123.132-.154a.452.452 0 0 0 .3-.337c0-.03.032-.061.066-.092.066-.184.165-.368.265-.552v-.153h-.133c-.265 0-.398-.092-.464-.399-.067-.306 0-.582.265-.797.1-.092.199-.153.199-.306 0-.031.033-.062.033-.092.066-.184.365-.246.53-.123.1.092.134.184.1.307-.066.275-.033.582-.199.827-.033.062-.033.123.034.184.132-.03.199-.092.232-.214.066-.307.165-.614.364-.859 0-.03.034-.061.034-.092.1-.214.265-.368.464-.49l.398-.276c.166-.123.332-.276.53-.368.531-.307 1.095-.49 1.693-.705.099-.03.231-.061.364-.061.166 0 .265.122.232.275-.033.062-.066.123-.132.154.1-.03.232-.03.331-.062.166.062.332 0 .498 0 .232-.03.431.062.597.215.1.092.066.306-.033.399 0 .03-.033.06-.066.06a1.308 1.308 0 0 1-.896.154c-.2-.03-.431-.153-.63-.276-.067-.061-.166-.122-.133-.214.033-.031.033-.092.066-.123a4.217 4.217 0 0 1-.564.215 2.823 2.823 0 0 0-.63.275c-.331.185-.697.369-.995.583l-.199.092c-.265.123-.398.337-.431.613h.033c.033-.03.1-.03.133-.061.43-.245.896-.46 1.393-.583a2.555 2.555 0 0 1 1.36.031c.365.123.73.215 1.094.337.266.062.498.153.73.245.166.062.299.062.431.123.299.123.597.246.896.399.365.184.763.337 1.16.398.2.03.432.092.598.215.199.153.465.184.73.184.198 0 .398 0 .597.03.066 0 .1.031.166.031.066-.153.066-.276.199-.368.1-.061.199-.153.298-.245.133 0 .265-.03.431-.061-.066-.092-.1-.123-.133-.184-.165-.153-.198-.307-.165-.522 0-.122.066-.153.199-.153.133.03.232.061.332.153.132.123.232.184.398.246.033 0 .1.03.132.061.067.062.133.154.1.245a.487.487 0 0 1-.564.307c-.066 0-.133-.061-.2 0 0 .123.134.123.2.153a.632.632 0 0 1 .299.276.28.28 0 0 1 .033.276 1.417 1.417 0 0 1-.1.215l.067.06c.265.032.497.093.762.063.166 0 .299-.031.465 0 .199.03.364 0 .53-.031.067-.031.166-.031.266-.062.165-.03.365-.06.53-.091.166-.031.2-.093.2-.246a3.12 3.12 0 0 0-.067-.552.414.414 0 0 0-.066-.184 2.938 2.938 0 0 0-.332.184 1.013 1.013 0 0 1-.232.154c-.133.091-.265.06-.365-.031-.066-.03-.1-.092-.133-.123a1.644 1.644 0 0 1-.265-.46c-.067-.183-.265-.276-.464-.214-.067 0-.133.03-.166.03a.26.26 0 0 1-.133-.061c-.1-.092-.066-.306.066-.368.067-.03.166-.061.233-.092.033-.061.033-.122.066-.184.033-.153.166-.245.331-.245a.98.98 0 0 0 .432-.092.347.347 0 0 1 .431.092c.066.092.166.215.232.307.033.06.067.122.166.092.1-.062.1-.154.1-.215.033-.092.033-.153.066-.245.1-.184.199-.215.431-.184.033 0 .066.03.1.03.1.123.199.246.331.338.067.03.133.122.133.184.033.184.066.367.166.52.033.093 0 .154-.067.216-.066.06-.165.153-.298.122-.133-.03-.232 0-.266.123.1.122.134.245.167.368.099.337.066.705.099 1.073.033.061 0 .092 0 .153 0 .245-.133.49-.2.736-.032.03-.032.06-.066.092-.099.153-.165.276-.265.398-.132.154-.1.338-.033.49.166.307.298.583.431.89.034.061.067.123.067.184.033.215.1.429.066.644 0 .153 0 .337.033.49 0 .154.067.184.232.154.2-.031.2-.031.299.184.066.091.1.153.199.183.033.031.066.062.1.062.099.276.165.552.132.827 0 .184-.133.307-.332.307-.132.03-.265 0-.431.061v.184c.033.062.033.154.033.246 0 .306-.033.613-.033.92v.98c0 .4-.033.797 0 1.196a1.89 1.89 0 0 1 0 .613.696.696 0 0 0 0 .368s.033.03.066.03c.167.062.233.154.233.307v.246c0 .061 0 .122.033.183.133.246.232.522.298.767.033.123.1.215.133.307.066.184.166.367.166.582.033.245.133.46.232.675.033.122.1.183.232.214.067.03.166.062.233.062.364.03.696 0 1.028-.031.066 0 .099-.03.133-.03.033-.062 0-.123-.067-.185-.166-.153-.299-.337-.497-.49a1.161 1.161 0 0 1-.3-.399l-.099-.184a1.217 1.217 0 0 1-.232-.736c-.033-.429-.066-.827-.033-1.256.033-.215.033-.43-.033-.644-.033-.154-.066-.276-.066-.43-.034-.183-.067-.367-.133-.551-.067-.031-.1-.062-.166-.062-.166 0-.265-.122-.332-.276a2.01 2.01 0 0 1-.066-.766c0-.123.066-.184.166-.215.1-.03.232-.092.365-.122v-.215c-.034-.46-.1-.92-.034-1.38 0-.061-.033-.153-.033-.245v-.49c0-.062.034-.123.034-.184-.034-.46.066-.95.132-1.41 0-.123 0-.276.033-.4.034-.275.133-.52.233-.796.1-.215.132-.43.166-.644.033-.184.199-.245.364-.154.1.031.133.093.133.185.033.275 0 .551-.1.796-.165.399-.198.798-.198 1.196 0 .276 0 .583-.067.859v.245c0 .337.067.705.033 1.073 0 .215 0 .399-.033.582-.033.093-.033.184-.033.276 0 .369.033.706.033 1.043v.184c-.133.46-.066.889-.033 1.349 0 .184.033.398.033.613 0 .122.033.245.067.368.066.215.132.429.132.674 0 .46.133.92.332 1.35a.55.55 0 0 0 .199.275c.1-.061.232-.153.365-.122.232.03.431 0 .663-.031.033 0 .067 0 .067-.061-.1-.092-.233-.154-.332-.215-.034-.03-.1-.03-.166-.061-.133-.031-.299-.092-.464-.123-.133-.03-.2-.061-.266-.153a2.252 2.252 0 0 1-.232-.368c-.166-.43-.166-.828-.133-1.257.1-.337.067-.644.034-.95a4.5 4.5 0 0 1-.067-1.166c.033-.214.067-.429.067-.613 0-.337-.034-.674-.1-.98-.066-.338-.1-.675-.066-1.013.033-.46.066-.95.033-1.41v-.306a5.548 5.548 0 0 1 .63-2.146c.066-.154.166-.368.2-.552.066-.583.298-1.134.53-1.656.199-.46.431-.92.663-1.38.033-.091.033-.153.066-.214-.066-.092-.132-.153-.199-.245-.066-.092-.099-.184-.132-.276-.066-.153-.1-.307-.133-.43-.033-.122 0-.214.067-.337.099 0 .165-.03.265-.03.132.183.265.306.53.214.034-.214.067-.398.1-.613 0-.153.033-.276.1-.43.165-.46.331-.888.398-1.379 0-.123.066-.214.099-.307a.835.835 0 0 0 .066-.275c-.033.03-.1.06-.166.092-.198.091-.298.03-.397-.123-.034-.03-.034-.092-.067-.123a.477.477 0 0 1-.033-.367c.033-.062.033-.123.033-.184 0-.092.033-.184.033-.276v-.184c-.331 0-.43-.184-.43-.46V9.05a.377.377 0 0 0-.134-.306.55.55 0 0 1-.199-.276 4.587 4.587 0 0 1-.298-.95c0-.092-.033-.154-.066-.246-.067-.184-.1-.337-.166-.521a.278.278 0 0 1 .033-.276c.1-.123.265-.153.365-.03.066.03.1.091.132.153.034.092.067.153.1.215.033.03.066.03.1.03.199 0 .265.092.331.215.067.122.1.245.133.368.033.153.1.306.166.46.066.122.099.275.066.429 0 .153 0 .337.033.52.1-.03.133-.03.2-.06.198-.062.33-.031.43.214v.092c.033.123.066.245.066.368 0 .092 0 .184-.033.276l-.099.368c-.033.123-.033.245.066.368.034-.062.1-.092.133-.154.265-.46.431-.95.597-1.44v-.031c0-.03-.033-.061-.033-.123h-.299c-.132 0-.232-.092-.232-.214v-.154c-.033-.153-.033-.306-.066-.429a1.608 1.608 0 0 1-.1-.552c0-.368.066-.705.2-1.042.066-.123.066-.245.066-.368-.133-.03-.233-.03-.299-.061-.132-.092-.232-.215-.199-.399.033-.184.1-.337.299-.399.133-.06.232-.03.298.093.067.122.1.214.033.337 0 .061-.033.122.034.184.132-.092.298-.062.43-.062.134.031.266.031.399.031.232 0 .398.184.332.399-.067.214-.067.429 0 .643 0 .03.033.062.066.093 0-.031.033-.031.033-.031.033-.031.033-.062.066-.092.232-.368.498-.675.83-.95.033-.031.033-.062 0-.215-.133-.092-.233-.092-.365-.092-.266 0-.464-.061-.697-.154a.693.693 0 0 1-.364-.245c-.067-.092-.133-.153-.2-.245a9.435 9.435 0 0 0-.796-.859c-.132-.091-.265-.214-.43-.306v.184c0 .092 0 .215-.034.307a3.534 3.534 0 0 1-.365.98c-.033.062-.066.123-.1.123-.165.061-.232.215-.331.338-.1.122-.266.153-.431.06a.34.34 0 0 1-.129-.08l-.103-.103c-.067-.061-.133-.184-.2-.276-.032-.062-.099-.154-.099-.215-.066-.398 0-.797.232-1.165.1-.153.233-.306.332-.46.066-.122.232-.153.365-.061.066.03.1.092.166.123.066-.031.166-.062.265-.092-.066-.062-.1-.123-.166-.184-.066-.03-.1-.092-.166-.153a.64.64 0 0 1-.132-.184c-.034-.062-.1-.123-.133-.215-.033-.062-.066-.153-.1-.215 0-.061-.032-.153-.032-.214-.034-.062.032-.154-.067-.215Zm-19.47 14.777c-.266.062-.398.184-.398.43 0 .153-.067.245-.167.337a.49.49 0 0 0-.165.368c.033.245 0 .52-.166.735-.034.031-.034.093-.066.154-.034.061-.067.123-.133.153-.2.092-.299.245-.365.43 0 .03-.033.06-.066.091-.067.123-.166.245-.2.399-.066.215-.199.368-.331.521-.166.184-.332.368-.398.613 0 .062-.034.092-.067.123-.066.092-.132.153-.166.245a1.252 1.252 0 0 1-.231.337c-.1.062-.133.154-.2.246-.132.245-.298.429-.497.613-.2.184-.365.368-.498.613-.166.276-.332.552-.563.797-.034.03-.067.092-.1.123-.166.276-.431.46-.597.736-.033.03-.067.03-.1.06-.099.123-.232.246-.298.43.133.153.166.337.166.521 0 .062.033.123.033.184.033.184.1.337.132.521.034.215.1.43.133.644l.1.767c.033.122.066.245.132.367.1.123.133.277.2.399.066.092.099.215.165.307.067.122.133.214.2.337.099.092.231.061.331.061.365-.061.697-.03 1.028.03h.1c.066 0 .1 0 .166-.03.033-.03.033-.122-.033-.184a.356.356 0 0 0-.3-.153c-.165.03-.33-.061-.463-.153a1.254 1.254 0 0 1-.432-.49c-.199-.338-.365-.675-.298-1.074.033-.215 0-.43-.067-.644-.033-.184-.066-.398-.1-.582-.032-.061-.032-.123-.032-.184-.133-.031-.232-.062-.365-.092-.1-.03-.166-.061-.133-.153.033-.184.033-.368.2-.522.099-.06.132-.153.198-.214.1-.061.166.092.299.092.1-.061.1-.123.132-.215.166-.46.332-.889.564-1.287.067-.123.166-.215.233-.338.331-.49.696-.98 1.16-1.38.166-.152.299-.337.398-.52 0-.031.034-.093.067-.123.232-.368.43-.705.663-1.073.033-.092.1-.215.133-.307v-.061c-.033-.03-.067-.061-.1-.123a.654.654 0 0 1 .1-.153l.298-.184a.415.415 0 0 0 .266-.306c.1-.246.133-.46.166-.706 0-.276.066-.551.166-.827.033-.154.099-.338.132-.491.033-.062.033-.153.033-.215Zm14.992 2.576c0-.338.431-.46.663-.399.133.03.299.123.332.307a.872.872 0 0 1-.232.736c-.133.122-.266.153-.431.122-.166-.03-.266-.153-.3-.306-.032-.093-.032-.215-.032-.276v-.184Zm3.284-9.566c.132-.122.43-.153.597-.03.066.061.166.122.265.092.034.03.1.06.166.122.033-.03.066-.03.066-.03.232-.246.398-.092.498.092.066.091.1.183.1.275.033.184.066.338.165.491.066.092.033.184 0 .276-.132.276-.232.552-.43.766a.279.279 0 0 0-.034.276c.033.062.066.123.1.154.099.092.099.214.032.306-.132.153-.166.307-.232.46-.132.276-.331.49-.696.552-.033 0-.033 0-.067.03-.033.123 0 .215.034.338l.099.184c.033.092.066.184 0 .276a.405.405 0 0 0-.033.337c.1.245.033.49-.133.705-.133.153-.265.184-.431.215-.033 0-.1 0-.133-.031a.748.748 0 0 1-.232.215 1.01 1.01 0 0 1-.232.153c-.2.123-.299.245-.332.46-.033.276-.431.43-.696.215-.067-.062-.166-.123-.232-.215-.166-.184-.2-.399-.1-.644.033-.092.067-.153.1-.245.1-.184.265-.246.43-.307.034 0 .1 0 .167.03.066.031.1.062.166.093a.436.436 0 0 0 .298-.123.524.524 0 0 1 .365-.122c-.033-.123 0-.276.033-.4.033-.06.066-.121.1-.214-.166-.092-.166-.276-.133-.429.033-.153.1-.307.298-.368 0-.153.033-.306.033-.46.034-.122.034-.214.067-.337a.68.68 0 0 1 .265-.43c.034-.03.066-.122.133-.152.1-.062.133-.154.066-.276-.1-.123-.066-.276-.033-.399.033-.153-.033-.215-.199-.245h-.1c-.265-.03-.43-.184-.464-.43a1.997 1.997 0 0 1 .033-.766c.034-.153.133-.306.266-.46Zm-11.676 3.68c.232 0 .365.03.498.153.066.06.165.091.232.153.1.061.199.122.298.214.1.123.2.184.365.184.1 0 .166.031.232.093.1.122.232.152.365.214.1.061.166.092.266.153.099.062.132.154.198.246l-.099.183c-.066.092-.166.123-.298.092-.2-.06-.398-.122-.564-.245-.1-.092-.2-.122-.332-.153-.1 0-.166-.061-.232-.092-.166-.092-.365-.215-.564-.276-.066 0-.133-.061-.199-.092-.1-.092-.232-.123-.332-.184a1.005 1.005 0 0 1-.232-.153c-.166-.154-.066-.337.066-.399.133-.061.265-.061.332-.092Zm-9.206.513.084.008c.166.03.266.153.3.367v.031c0 .184-.167.307-.366.276a.485.485 0 0 1-.398-.337c-.033-.031 0-.092 0-.123.066-.184.232-.245.464-.214l-.084-.008Zm10.798-.943c.498-.215.896-.123 1.228.276.165.214.231.46.231.766-.033.062-.033.184-.066.276-.033.123-.132.184-.265.154-.166-.031-.365-.031-.53-.092-.133-.062-.233-.154-.366-.245l-.298-.276a.489.489 0 0 1-.2-.491c.034-.153.1-.307.266-.368Zm6.8-.276c.199 0 .365.092.365.245 0 .154-.033.307 0 .46.033.154-.2.307-.365.246-.166-.062-.299-.185-.299-.368 0-.184 0-.368.166-.552.066 0 .1-.03.133-.03Zm-4.644-.92c.1-.06.2-.06.299-.03.1.03.166.092.199.184.066.184.199.306.331.429.1.092.166.215.299.276 0 .03.033.092.066.122 0 .154 0 .276-.132.369-.2.122-.365.275-.564.398-.133.092-.266.092-.398.092-.266-.03-.531-.307-.498-.613 0-.215.033-.43.2-.613.032-.031.066-.092.066-.123-.034-.215.066-.337.132-.49Zm2.488-.398c.364-.123.696-.092.862.245.133.245.2.521.133.797-.033.276-.199.552-.365.797a.642.642 0 0 1-.697.276c-.066-.03-.165-.06-.198-.123-.166-.214-.3-.429-.266-.735 0-.03-.033-.123-.033-.184a.834.834 0 0 1 .166-.613c.066-.092.133-.215.2-.307a.333.333 0 0 1 .198-.153Zm-15.325.214c.067 0 .166 0 .233.031.199.153.43.276.43.552 0 .215.067.399.134.582 0 .031 0 .062.066.123.066.307-.133.613-.597.582-.133 0-.232-.091-.299-.183a.972.972 0 0 1-.232-.49c-.033-.246-.066-.522-.1-.767-.032-.062-.032-.092-.032-.123 0-.153.066-.184.198-.245a.499.499 0 0 1 .2-.062Zm9.819-.46c.298-.03.497.093.696.246.2.153.299.337.299.582v.123c.033.368-.166.613-.564.644h-.232c-.066 0-.232-.03-.365-.062-.166-.03-.299-.122-.465-.245-.232-.184-.331-.398-.298-.674 0-.092.033-.154.132-.184a.526.526 0 0 0 .3-.215c.132-.153.264-.215.497-.215Zm-2.952-.03c.033-.03.1-.03.165 0 .365.123.63.337.797.644.033.122.033.245-.034.337-.066.092-.1.153-.165.215-.1.092-.2.214-.299.306-.2.03-.332-.061-.431-.214-.166-.277-.299-.552-.299-.859 0-.184.1-.337.266-.43Zm6.57-.096.063.004c.133.03.3.153.332.307 0 .06 0 .091-.033.122-.033.062-.1.123-.166.184-.232 0-.331-.123-.398-.306-.066-.184.067-.338.265-.307l-.063-.004Zm.093-1.044.07.006c.066.03.1.03.133.03.132 0 .199.061.265.153l.199.368c.066.154.066.246-.1.368-.066.061-.132.123-.265.123-.166 0-.299-.062-.364-.184a.675.675 0 0 1-.133-.153c-.133-.154-.166-.276-.1-.46.067-.184.166-.276.365-.245l-.07-.006Zm2.06-.27c.1.03.166.122.2.214.066.123 0 .276-.1.338-.067.06-.266.03-.332-.123-.033-.03-.066-.092-.1-.123a.372.372 0 0 1 .332-.306Zm-3.35-.4c.033-.03.1 0 .133 0 .199.063.265.277.133.43-.1.123-.3.184-.399-.03-.066-.031-.066-.092-.099-.154 0-.03 0-.06.033-.092.066-.06.133-.091.2-.153Zm8.26-3.126c.066-.03.198-.03.231.03.067.062.067.154.1.215.033.123.033.246.066.368.033.123.067.245.166.337.033.031.067.062.1.031.1.245.232.49.298.766.033.184.066.4.133.583 0 .061.033.092.033.153 0 .153-.033.245-.2.307-.132.061-.231.061-.33-.03-.067-.062-.133-.154-.2-.215-.166 0-.265.091-.43.06-.167-.03-.233-.183-.366-.214-.066.03-.132.092-.199.123-.132.03-.199.122-.232.245 0 .153-.1.246-.265.246-.1.091-.166.184-.233.275-.232.246-.464.184-.696 0-.2-.153-.265-.398-.2-.644.034-.153.167-.245.266-.337.166 0 .332-.03.498.031.033.03.1 0 .1-.061v-.123c-.034-.123-.134-.184-.233-.123-.1.062-.166.092-.265.154a.497.497 0 0 1-.63-.123c-.067-.092-.1-.153-.034-.245.1-.154.166-.307.266-.43.033-.06.099-.153.232-.153.066 0 .1-.061.133-.122a.66.66 0 0 1 .166-.246c.099-.092.198-.122.331-.153l.299-.092c.232-.092.464 0 .53.245.067.246 0 .46-.198.644-.034.062-.1.092-.167.153.133.092.233.215.399.185.099-.154.165-.307.198-.46 0-.184.1-.338.3-.43-.067-.092-.1-.153-.133-.214 0-.062.033-.123.033-.184 0-.031-.034-.092-.034-.153-.032-.154.067-.277.166-.4ZM18.491 8.62c.199 0 .365.123.398.276.033.092-.067.246-.166.276-.166.061-.398-.092-.431-.276 0-.122.1-.276.199-.276ZM37.398.865c-.1-.123-.199-.123-.332-.031-.066.03-.132.092-.165.123-.067.337.033.613.199.858l.097.147c.01-.147.172-.26.302-.2.034 0 .068.03.101.062.068.062.135.093.101.156-.033.093-.1.124-.168.124a.232.232 0 0 1-.203 0 .261.261 0 0 1-.087-.071c.12.183.246.374.387.549.166.184.233.429.332.643a.218.218 0 0 1 .033.123v.521c-.033.521.2.981.432 1.441.398-.03.73-.092 1.094-.153.498-.062.398-.03.763-.368a2.62 2.62 0 0 1 .464-.368c.2-.153.465-.245.697-.368a2.14 2.14 0 0 0 .763-.644.47.47 0 0 0 .1-.276c0-.122.032-.245-.1-.429h-.166c-.299.03-.465-.092-.498-.368v-.184c-.066-.03-.099-.061-.165-.061a6.561 6.561 0 0 0-1.56-.092h-.232c-.298-.03-.597-.061-.895-.123-.166-.03-.365-.06-.53-.184a1.86 1.86 0 0 1-.432-.429 1.997 1.997 0 0 0-.332-.398ZM36.304.834c-.299-.061-.531.03-.796.092-.465.122-.896.337-1.394.245a.41.41 0 0 0-.331.062c-.133.092-.232.184-.199.398l.398.092c.033-.03.1-.061.166-.092.298-.122.563-.276.862-.337.133-.03.265-.03.365.061.033.031.1.092.199.092.033 0 .1.062.133.092.1.092.165.215.199.337 0 .092.033.184.066.276.1.154.133.368.2.552.032.092.099.184.099.276-.034.215.033.43.1.644.065.306-.034.552-.266.766.132.184.298.368.497.522.066.03.1.06.166.091h.166c.033-.03.033-.06.033-.091 0-.062 0-.123-.033-.184a1.45 1.45 0 0 1-.1-.521c-.033-.184-.033-.338-.033-.522 0-.153 0-.276.1-.398a.308.308 0 0 0 .066-.154c-.066-.153.033-.275.1-.398-.133-.215-.266-.399-.399-.613-.232-.368-.397-.767-.331-1.196 0-.03-.033-.061-.033-.092Z"/></g><defs><clipPath id="a"><path fill="#fff" d="M0 0h43v32H0z"/></clipPath></defs></svg>