<svg xmlns="http://www.w3.org/2000/svg" width="45" height="34" fill="none"><g fill-rule="evenodd" clip-path="url(#a)" clip-rule="evenodd"><path fill="#fff" d="m6.332 31.954-2.155.64c-.434-2.708-.806-5.729.726-7.983.63-.927 1.555-1.67 1.928-2.73.237-.675.224-1.411.209-2.128l-.128-5.797c-.009-.367-.018-.742-.146-1.084-.146-.389-.433-.703-.713-1.006l-3.49-3.784C1.587 7.026.536 5.632 1.031 4.273l6.733 5.868c.546.475 1.115.964 1.807 1.157.786.22 1.62.028 2.41-.173 2.473-.628 4.942-1.348 7.482-1.553 1.196-.097 2.405-.08 3.586-.3 1.552-.292 3-.987 4.401-1.728a63.636 63.636 0 0 0 9.043-5.814c.411-.316.843-.649 1.353-.72.954-.135 1.5.92 2.221 1.569 1.113 1 1.225 1.93 1.789 2.725.447.63 1.104.882 1.69 1.38.404.344.212.97.104 1.496-.09.432-.502.702-.877.923l-1.49.878c-.263.155-.476-.226-.779-.193-.587.064-1.175.19-1.753.066-1.443-.306-2.588 1.181-3.338 2.476l-3.203 5.527c-.435.752-.875 1.511-1.129 2.345-.25.819-.313 1.683-.374 2.539l-.39 5.408c-.024.34-.047.688.053 1.012.25.807 1.198 1.67.62 2.275-.35.367-.966.184-1.433.372-.678.273-.836 1.213-1.426 1.65-.738.547-1.855.036-2.291-.78-.437-.818-.392-1.803-.348-2.732.158-3.295.159-6.598.005-9.893-2.55 1.104-5.42-.059-8.118-.698-.743-.176-1.528-.31-2.26-.092-1.923.574-2.486 3.138-4.108 4.34-1.073.794-2.58.965-3.41 2.02-1.042 1.325-.41 3.41.836 4.536.1.09.205.18.258.305.189.437-.378.82-.843.869-.465.049-1.038.048-1.258.47"/><path fill="#1E5D8A" d="M37.91.566c.259.063.527.09.791.128.254.036.46.159.627.35.247.284.469.585.615.94.023.054.077.1.124.139.233.192.475.375.703.573.46.402.8.901 1.07 1.449.056.111.07.246.092.372.012.07.001.144.001.216.002.27.115.47.356.59.364.18.736.347 1.092.545.356.197.699.418 1.04.641.158.104.233.28.22.466-.018.224-.07.445-.111.667-.024.134-.062.266-.08.4-.022.17-.095.301-.242.383a.573.573 0 0 0-.276.311.685.685 0 0 1-.365.375c-.456.22-.91.441-1.373.646a1.645 1.645 0 0 1-.48.115c-.508.058-1.012-.003-1.516-.073-.664-.093-1.328-.175-2-.188-.3-.005-.6-.058-.906-.09-.03.01-.074.024-.118.04-.046.017-.095.03-.137.054-.395.232-.699.552-.967.931-.498.703-.865 1.485-1.322 2.21-.475.756-.79 1.582-1.097 2.414-.256.693-.596 1.345-.966 1.979-.184.316-.437.59-.655.886-.079.108-.146.225-.216.34-.02.033-.03.074-.052.105-.22.302-.267.658-.319 1.016-.023.159-.045.326-.11.469-.235.509-.362 1.05-.502 1.588-.185.712-.37 1.424-.571 2.131-.072.25-.195.485-.282.732-.156.442-.226.904-.272 1.37-.044.454-.093.908-.142 1.362a4.828 4.828 0 0 0 .09 1.587c.019.088.032.177.042.266.008.067.043.097.104.115.227.067.45.145.678.207.316.085.565.271.745.538.192.283.371.58.523.886.182.37.035.706-.352.828-.41.13-.821.257-1.241.343-.212.044-.442.001-.663-.017-.16-.013-.318-.049-.491-.076.012.04.02.079.034.115.052.139.034.267-.016.407-.051.15-.098.293-.238.378-.115.07-.213.156-.312.25-.159.154-.379.203-.589.202-.227-.001-.44.05-.654.108-.283.078-.566.056-.848.003a.377.377 0 0 1-.154-.069c-.19-.142-.383-.282-.56-.441a1.108 1.108 0 0 1-.215-.304 11.549 11.549 0 0 1-.414-.826 1.353 1.353 0 0 1-.116-.475c-.016-.425-.01-.85-.004-1.276.002-.18.026-.358.031-.538.005-.137-.01-.274-.008-.41.007-.508.023-1.016.026-1.523.002-.382-.001-.764-.018-1.145-.032-.784-.066-1.568-.117-2.351-.044-.685-.02-1.368.024-2.05.01-.147.037-.292.058-.45-.036.003-.064 0-.088.007-.32.099-.64.063-.963.02-.97-.13-1.892-.437-2.816-.743a5.096 5.096 0 0 0-1.44-.266c-.36-.012-.716-.067-1.075-.093-.239-.018-.479-.026-.719-.029-.374-.003-.748.009-1.122.001a7.425 7.425 0 0 1-1.91-.27c-.227-.066-.456-.125-.682-.194-.092-.029-.158-.013-.23.05-.158.138-.265.3-.327.506-.191.635-.543 1.181-.975 1.665-.423.474-.89.906-1.33 1.363-.311.323-.671.57-1.058.785-.412.228-.83.446-1.23.694-.353.22-.683.474-1.022.715a.994.994 0 0 0-.353.45c-.226.571-.444 1.146-.518 1.76-.03.254.01.516.018.774 0 .007.005.014.005.02-.034.274.147.39.347.49.245.123.479.26.67.464.296.316.473.696.584 1.111.006.024-.028.078-.055.088-.233.09-.467.18-.705.256-.229.074-.46.136-.692.196-.36.093-.718.098-1.071-.033-.055-.02-.11-.036-.166-.054l-.011.024.16.116c.258.174.504.365.666.639.087.148.162.315.19.483.044.263-.085.454-.33.547a.956.956 0 0 0-.309.195.528.528 0 0 1-.303.124c-.221.012-.445-.004-.666-.02a.692.692 0 0 1-.242-.07 1.528 1.528 0 0 0-.623-.152c-.084-.002-.17.037-.253.066-.202.072-.226.065-.355-.105-.102-.137-.218-.264-.307-.41-.09-.148-.157-.313-.23-.472-.028-.063-.035-.132-.107-.175-.033-.02-.049-.095-.047-.145.01-.37.017-.741.044-1.111.013-.174.08-.343.1-.517.044-.357.073-.715.106-1.073.048-.508.086-1.017.145-1.524.034-.296-.007-.581-.067-.866-.073-.348-.094-.7-.073-1.052a.73.73 0 0 1 .092-.294c.065-.119.153-.224.234-.334.02-.028.047-.061.077-.072.234-.079.368-.285.538-.442.291-.267.565-.555.855-.823.337-.312.563-.709.838-1.068.277-.361.356-.767.368-1.2.018-.624-.123-1.22-.301-1.81-.01-.031-.018-.062-.03-.092a2.768 2.768 0 0 1-.2-1.2 1.226 1.226 0 0 0-.145-.645.892.892 0 0 1-.103-.457c.017-.594.017-1.19.07-1.78.035-.402.129-.804.35-1.155.063-.1.16-.179.228-.278.127-.186.244-.379.365-.57.013-.02.032-.042.035-.065a.44.44 0 0 1 .155-.285c.017-.016.024-.042.038-.068-.036-.023-.073-.04-.1-.067-.031-.031-.082-.079-.075-.108.026-.118-.059-.132-.126-.173-.165-.103-.34-.195-.487-.321-.623-.532-1.241-1.07-1.854-1.614-.49-.435-.893-.95-1.277-1.483-.575-.798-1.165-1.585-1.721-2.396-.244-.354-.425-.753-.625-1.138-.174-.334-.189-.712-.255-1.074a1.616 1.616 0 0 1 .06-.83c.096-.278.284-.38.554-.284.2.07.395.154.591.234.166.069.29.185.377.347.34.639.709 1.263 1.022 1.916.604 1.258 1.497 2.252 2.593 3.071.696.52 1.424.986 2.21 1.356.284.133.568.27.85.411.244.123.481.106.72-.013.05-.025.1-.077.16-.01.009.01.047-.004.07-.014.073-.033.15-.062.22-.103.753-.44 1.588-.643 2.419-.848.296-.073.607-.08.91-.125.345-.05.688-.113 1.033-.16.402-.054.804-.1 1.207-.142.442-.047.883-.096 1.327-.124.583-.037 1.146-.188 1.716-.297.26-.049.526-.053.789-.077.467-.043.933-.09 1.4-.125.204-.015.41.007.614-.007.383-.025.765-.07 1.148-.095.516-.034.996-.214 1.49-.345.38-.1.771-.158 1.159-.226.116-.02.237-.003.353-.017.112-.014.221-.043.33-.072.47-.121.942-.243 1.412-.369.308-.082.598-.209.875-.373.308-.184.62-.354.891-.605.302-.28.66-.496.973-.763a23.63 23.63 0 0 0 1.102-1.011c.477-.464.93-.954 1.47-1.35.467-.342.923-.7 1.388-1.045.356-.265.719-.52 1.077-.783a.681.681 0 0 0 .129-.124c.252-.313.57-.49.974-.472.267.011.534.039.8.065.078.008.112-.024.147-.09.048-.094.104-.188.17-.271.196-.247.423-.399.761-.317Zm-.07 1.311c-.037.188-.06.367-.11.537-.051.172-.13.335-.197.5-.087.214-.189.42-.259.639-.184.57-1.14.706-1.376.197-.002-.004-.013-.004-.017-.005-.125.118-.24.246-.374.35a.718.718 0 0 0-.293.502c-.004.035-.017.098-.03.099-.116.008-.081.103-.097.167-.05.204-.145.31-.3.332-.15.02-.273-.064-.37-.251-.23-.446-.35-.917-.31-1.423.01-.127.04-.253.067-.408-.158.118-.3.216-.434.325-.154.126-.302.26-.452.39-.168.148-.341.29-.504.443-.095.09-.172.2-.318.213-.026.002-.053.033-.076.055L31.28 5.605a1.346 1.346 0 0 0-.166.182A4.532 4.532 0 0 1 29.6 7.161c-.135.074-.25.184-.378.273a.431.431 0 0 1-.168.082c-.293.042-.53.204-.774.355-.135.084-.264.187-.41.239-.452.16-.904.327-1.368.444-1.428.361-2.844.77-4.298 1.016-.377.064-.754.104-1.136.048-.157-.024-.316-.07-.47-.06-.28.02-.56.06-.836.116-.626.128-1.258.213-1.893.262-.535.042-1.072.049-1.608.071-.197.009-.396.006-.592.03-.748.092-1.494.203-2.242.29-.609.07-1.201.197-1.78.404-.866.309-1.712.69-2.636.8-.042.004-.089.02-.124.006-.195-.072-.39-.144-.577-.23l-.812-.395a7.51 7.51 0 0 1-1.158-.672c-.354-.249-.706-.502-1.064-.747a6.155 6.155 0 0 1-1.382-1.277c-.518-.66-1.024-1.321-1.392-2.083a4.674 4.674 0 0 0-.313-.575c-.202-.303-.424-.594-.64-.888-.086-.118-.178-.232-.27-.347-.065-.082-.145-.087-.238-.052-.093.034-.142.096-.124.196l.041.256c.015.085.034.169.067.246.258.604.544 1.197.916 1.738.543.79 1.11 1.563 1.659 2.35a10.282 10.282 0 0 0 1.758 1.937c.672.575 1.355 1.134 2.16 1.51.052.024.103.07.13.119.034.058.07.081.133.078.102-.006.156.057.151.152a.477.477 0 0 1-.06.211c-.117.197-.247.386-.367.582a.925.925 0 0 0-.107.233c-.08.292-.244.533-.44.753a.817.817 0 0 0-.215.413c-.05.312-.094.625-.127.94-.04.393-.075.787-.096 1.182-.028.54.006 1.072.217 1.579.04.093.063.188.029.292-.013.04 0 .093.013.135l.208.589c.263.766.41 1.54.27 2.36-.08.471-.254.872-.593 1.198-.062.06-.118.124-.179.185-.501.507-1 1.017-1.507 1.518-.174.173-.37.323-.554.487-.099.087-.188.19-.15.334.124.483.177.974.21 1.47a9.228 9.228 0 0 1-.042 1.694c-.05.42-.159.83-.23 1.248-.048.279-.104.56-.106.84-.002.268.059.536.1.802.024.16.063.318.178.442.065.07.125.145.179.208.158 0 .32.003.48-.004.02 0 .054-.051.053-.078-.005-.158-.022-.316-.027-.474-.006-.145-.001-.29-.001-.448l.151.082c.147.074.216.195.23.36.017.186.042.371.066.557.014.117.092.2.19.195.083-.003.165-.024.249-.037.007-.212-.09-.371-.187-.53-.17-.284-.167-.31.102-.504-.119-.095-.23-.196-.352-.279a.664.664 0 0 1-.286-.444c-.072-.361-.151-.721-.085-1.09.06-.34.137-.675.21-1.012.103-.473.197-.946.407-1.39.362-.764.887-1.4 1.46-2.001.059-.061.136-.102.207-.15.135-.09.277-.173.406-.271.49-.374 1-.712 1.547-.996.484-.252.958-.525 1.347-.925.164-.169.337-.328.505-.493.171-.167.354-.323.51-.504a5.662 5.662 0 0 0 1.068-1.812c.12-.343.268-.674.502-.957.218-.263.496-.447.77-.637.364-.25.77-.37 1.201-.403.328-.026.658-.016.983-.054.586-.07 1.1.117 1.583.424.293.185.346.41.196.753-.103-.022-.21-.042-.314-.067-.216-.053-.428-.132-.646-.156-.286-.032-.577-.02-.866-.028-.155-.005-.31-.024-.464-.012-.313.025-.625.062-.935.104-.096.013-.187.06-.281.093l.007.032c.015.007.03.016.045.02.609.171 1.216.336 1.858.322.525-.011 1.051.01 1.577.015.13.002.263.013.39-.007.324-.052.647-.04.97-.001.353.042.705.092 1.058.14.286.04.58.051.856.125.483.13.958.291 1.433.449l.312.106c.26.085.524.152.808.123.014-.002.028 0 .042.003.33.048.652.015.968-.102.069-.026.091-.06.088-.134-.012-.248-.017-.496-.028-.744a7.4 7.4 0 0 0-.031-.387c-.029-.283-.06-.566-.09-.848-.033-.303-.066-.607-.103-.91-.035-.289-.08-.577-.112-.866a7.272 7.272 0 0 1-.044-.635c-.01-.413-.007-.827-.014-1.24-.005-.244.157-.384.299-.55.035.074.062.14.097.203.14.253.155.536.128.808-.03.312-.063.614.01.927.135.58.243 1.166.377 1.746.054.235.129.465.113.71-.017.264-.04.53-.076.793-.034.246-.047.483.053.72a.66.66 0 0 1 .045.284c-.025.438-.049.877-.095 1.313-.053.5-.145.996-.188 1.497-.037.415-.028.837.09 1.242.128.443.189.894.189 1.352 0 .962-.012 1.924-.021 2.886a7.84 7.84 0 0 1-.025.529c-.046.6-.067 1.2.048 1.796.104.535.282 1.033.648 1.443.044.05.093.105.151.132.234.107.481.162.74.137.136-.014.157-.038.105-.172a4.044 4.044 0 0 0-.2-.415.488.488 0 0 1-.024-.436c.128.217.267.41.363.625.138.308.444.317.684.247.184-.054.21-.133.124-.304-.112-.22-.227-.44-.343-.658-.047-.09-.034-.167.037-.253l.51.846c.064.104.118.112.177.01.042-.073.078-.15.042-.25-.124-.351-.366-.596-.648-.818a1.896 1.896 0 0 1-.722-1.205c-.051-.31-.048-.631-.06-.948-.02-.561-.033-1.123-.05-1.685-.008-.302-.017-.605-.028-.907a4.194 4.194 0 0 1 .086-1.063c.276-1.236.565-2.469.835-3.706.207-.948.54-1.845 1-2.694.24-.444.476-.89.718-1.333.072-.132.16-.255.24-.382.034-.053.072-.053.124-.02.158.103.187.218.094.405-.379.76-.76 1.519-1.136 2.28-.066.136-.107.285-.16.427l.032.022c.1-.083.203-.163.301-.248.405-.348.842-.666 1.204-1.056a23.821 23.821 0 0 0 2.135-2.626.27.27 0 0 0 .035-.086l.047-.215a.695.695 0 0 1 .033-.103c.208-.48.45-.946.629-1.437.282-.774.531-1.562.78-2.349.091-.293.218-.552.456-.745.03-.024.052-.059.078-.089.544-.63 1.088-1.258 1.63-1.889.058-.067.102-.146.149-.22.035-.056.02-.097-.035-.135-.155-.108-.311-.214-.456-.334a1.684 1.684 0 0 1-.306-.308c-.228-.32-.434-.656-.662-.977-.132-.186-.078-.373-.06-.565.363-.008.453.057.574.302.176.359.413.669.69.951.225.23.463.442.756.582.397.19.813.27 1.25.277.398.005.796.039 1.193.063.143.008.285.025.434.04l-.005-.107a.48.48 0 0 1 .29-.481.595.595 0 0 1 .512.004c.174.078.346.16.523.234.088.036.184.056.253.076l.146-.182c.039.127.06.228.197.203.094-.017.199.012.26-.094.086.112.57.046.671-.084.28.103.346.062.318-.205-.062.037-.122.071-.184.109-.022-.036-.046-.061-.053-.09-.006-.033-.008-.08.01-.1.02-.024.071-.045.099-.035.134.044.268.093.396.153.056.026.086.028.123-.021.117-.152.26-.28.317-.479.028-.099.037-.18-.019-.263a1.908 1.908 0 0 0-.131-.17c-.13-.151-.263-.3-.392-.453-.056-.064-.064-.138-.044-.221.052-.218.062-.45.228-.634-.052-.027-.088-.048-.126-.065-.362-.172-.721-.346-1.085-.512a1.006 1.006 0 0 1-.57-.656l-.329-1.048a1.984 1.984 0 0 0-.908-1.16 2.807 2.807 0 0 1-.494-.368 1.632 1.632 0 0 0-.534-.362c-.245-.096-.5-.168-.741-.275-.22-.097-.44-.07-.657-.072Zm-7.187 17.828c-.049.037-.076.053-.096.075-.445.48-.945.898-1.44 1.323-.1.086-.225.141-.337.214-.03.02-.066.044-.078.075-.07.196-.148.39-.2.591-.203.778-.392 1.559-.599 2.335-.126.475-.272.947-.308 1.44-.05.689-.078 1.38-.107 2.07-.005.118.03.24.055.357.033.147.085.29.112.437.051.287.102.573.25.83a10.5 10.5 0 0 0 1.243 1.705.394.394 0 0 0 .318.143c.148-.003.297.007.444-.005.141-.012.28-.045.42-.07l.01-.04c-.052-.076-.096-.16-.158-.225-.081-.084-.176-.155-.268-.228a.338.338 0 0 1-.132-.321.244.244 0 0 0-.039-.145c-.088-.137-.186-.267-.291-.416l.873.235c-.127-.163-.302-.236-.49-.295a.843.843 0 0 1-.311-.147c-.332-.297-.54-.661-.527-1.13.007-.28.014-.561.018-.843.01-.763.06-1.519.234-2.268.24-1.038.412-2.09.723-3.112.186-.607.354-1.219.52-1.831.066-.238.104-.482.16-.754ZM6.313 27.85c-.014.015-.027.023-.032.035-.134.301-.286.596-.397.905a5.555 5.555 0 0 0-.285 1.389c-.008.092-.011.179.088.233.027.014.047.055.056.088.025.087.086.126.166.148.146.041.29.093.437.123.16.033.322.046.484.068l.028-.033c-.161-.27-.25-.546-.078-.837.364.182.326.089.502.4.056.099.146.178.22.266l.032-.022a.599.599 0 0 0-.172-.39c-.137-.13-.28-.253-.421-.379-.129-.114-.132-.15-.023-.282l-.172-.106c-.338-.215-.526-.517-.503-.932.012-.221.045-.44.07-.674ZM40.338 4.12c.109.09.257.076.37.138a.58.58 0 0 1 .324.484c.004.064-.025.084-.073.07a.707.707 0 0 1-.187-.081c-.085-.054-.157-.133-.266-.12l.285.38c.057.08.01.187-.08.217a1.297 1.297 0 0 0-.285.126c-.125.078-.253.12-.39.057a2.24 2.24 0 0 1-.33-.192c-.044-.031-.07-.092-.1-.134.257-.216.52-.38.84-.433l-.005-.043-.107-.005a.157.157 0 0 0-.05.008c-.262.093-.52.2-.74.38-.047.038-.063.086-.02.14.052.062.105.123.177.21-.078.007-.14.021-.201.018-.1-.004-.198-.02-.297-.033l-.03-.01c-.04-.002-.111.007-.114-.004-.02-.072-.056-.164-.028-.218.068-.132.022-.261.027-.39.004-.092.018-.15.113-.166.015-.002.027-.02.04-.03-.061-.135-.05-.163.085-.216.098-.038.196-.076.295-.11a.127.127 0 0 1 .073-.002c.21.06.41-.015.613-.04.02-.002.05-.011.061 0Zm-4.24-2.38c.05.134.105.248.133.369.077.34.133.682.113 1.035-.006.114.015.23.023.352.215-.065.286-.115.362-.237.14-.22.278-.442.419-.662.134-.209.227-.427.203-.687-.014-.15-.022-.168-.169-.165-.253.005-.507.017-.76.019-.105.001-.209-.015-.324-.024Z"/></g><defs><clipPath id="a"><path fill="#fff" d="M0 0h45v34H0z"/></clipPath></defs></svg>