<svg xmlns="http://www.w3.org/2000/svg" width="44" height="37" viewBox="0 0 44 37" fill="none"><g fill-rule="evenodd" clip-path="url(#a)" clip-rule="evenodd"><path fill="#fff" d="M5.534 22.67c.085 1.584-.632 3.19-1.874 4.195-.692.56-1.54.95-2.087 1.65C.98 29.272.835 30.27.71 31.22c-.153 1.166-.294 2.414.238 3.465.533 1.052 2.023 1.706 2.954.973.297-.454-.403-.867-.87-1.15-1.123-.68-1.278-2.411-.45-3.424.83-1.012 2.366-1.287 3.607-.85 1.242.435 2.198 1.468 2.793 2.631.46.9.742 1.904 1.377 2.693.636.79 1.806 1.305 2.688.797-.784-2.016-3.096-3.477-3-5.634.054-1.19.857-2.199 1.624-3.117l3.473-4.16c.357-.429.73-.869 1.232-1.115 1.037-.51 2.273-.057 3.336.396l4.04 1.723c1.316.56 2.694 1.168 3.548 2.305 1.283 1.707 1.034 4.105 1.908 6.049 1.148 2.551 4.418 3.943 7.081 3.015-2.578-1.845-4.066-5.081-3.778-8.215.075-.813.267-1.631.695-2.33.796-1.303 2.31-2.05 3.112-3.349.94-1.52.72-3.439.636-5.217-.085-1.779.12-3.814 1.551-4.894.983-.742 2.515-1.036 2.822-2.22.249-.96-.508-1.855-1.129-2.633A13.608 13.608 0 0 1 37.364.343a7.739 7.739 0 0 1-.34 3.092 3.76 3.76 0 0 1-1.832-1.678c-.185 3.725-2.8 7.034-6.078 8.88-3.277 1.847-7.134 2.424-10.905 2.54-1.67.052-3.383.027-4.959.578-3.981 1.39-5.795 5.836-7.143 9.792"/><path fill="#1E5D8A" d="M36.63.43c.708-.618 1.282 1.114 1.341 1.4.13.629.085 1.535.119 2.176.012.226.083.632.103.653.105.11.236.16.36.244.19.127.529.293.702.44.389.332.58.73.786 1.18.216.472.521.84.995 1.11.074.03.148.061.22.095.205.038.406.14.602.317l.053.032c.378.225.905.313 1.231.613.06.031.121.062.18.095.192.106.364.21.411.437.043.21-.053.414-.169.582-.185.269-.398.454-.533.764-.048.109-.078.22-.138.324-.304.524-.915.703-1.486.748-.52.04-1.047.042-1.574.036-.41.047-.774.105-1.226.083-.001.006 0 .4-.118.819-.096.335-.307.675-.376.93-.118.436-.137.87-.15 1.31-.002.11.05.226.047.336-.004.12-.065.232-.073.353-.027.415-.033.852-.04 1.296-.004.297-.008.598-.018.896-.005.128-.011.255-.019.382-.008.144.04.268.027.41-.007.073-.075.165-.084.238-.04.334-.1.66-.19.97-.317 1.102-.625 1.81-1.35 2.702-.07.085-.192.272-.287.37-.104.107-.333.152-.456.268-.297.281-.626.58-.894.851l.046-.046-.008.013-.253.348c-.059.033-.34.32-.38.375-.183.194-.23.202-.325.455-.097.253-.134.563-.17.836-.078.546.09 1.141.085 1.7-.004.561-.146.891-.169 1.45-.024.557-.12.78-.113 1.337.005.279.065.837.085 1.115.017.28.055.553.15.816.092.262.196.782.344 1.018.153.233.31.368.514.557.202.193.26.271.531.342.271.072.146.067.426.107.344.051.56.18.853.377.144.098.16.244.218.413.056.166 0 .178-.092.333-.094.156-.261.246-.426.302-.167.057-.262.21-.437.228-.349.033-.341.182-.69.175-.348-.006-.618-.065-.963-.143-.343-.08-.806-.094-1.067-.341-.046-.043-.157-.182-.187-.176-.128.025-.28.077-.41.095-.26.036-.591.227-.854.231-.262.002-.633-.197-.892-.26-.258-.065-.338-.236-.54-.427-.202-.193-.324-.447-.41-.694l-.247-.736c-.167-.485-.33-.976-.57-1.418-.241-.44-.584-.854-.755-1.375-.17-.518-.159-1.058-.16-1.568a11.098 11.098 0 0 0-.41-2.98s-.1-.273-.098-.294c-.093-.012-.098.009-.19-.006l-.187-.056.001.017c-.08-.013-.513-.055-.678-.09l-.053-.014c-.026-.01-.048-.026-.072-.039-.024-.01-.033-.006-.07-.028l-.026-.024c-.178-.111-.877-.221-.923-.254-.263-.191-3.068-.99-3.24-.99a.592.592 0 0 1-.31-.079c-.102-.06-.527-.283-.624-.37-.14-.06-.614-.035-.675.01-.068.049-.329-.033-.329-.033-.36-.189-.6-.21-.855-.468-.048-.048-.153-.087-.202-.154-.06-.082-.634-.17-.777-.182a.797.797 0 0 1-.564-.285c-.142-.174-.24-.285-.434-.375-.06-.027-.686-.172-.921-.147-.002.002-.095.862-.141.883-.024.02-.175.735-.336 1.067-.1.206-.27.573-.371.8-.107.23-.527.303-.625.509-.102.203-.157.4-.23.643-.072.24-.186.497-.361.71a1.541 1.541 0 0 1-.49.395c-.063.032-.1.05-.141.075a.446.446 0 0 0-.166.181 2.995 2.995 0 0 0-.137.3l-.078.619c-.09.227-.153.578-.342.788-.045.053-.338.243-.39.29l-.228.096-.173.059a6.08 6.08 0 0 0-.504.477c-.302.333-.571.72-.637 1.12-.072.403-.03 1.198.17 1.626.097.219.191.431.302.626.109.194.341.277.49.392.138.11.38.024.607.06.226.038-.007-.08.259 0 .273.082.38.242.584.416.198.18.302.232.388.534.04.152.243.484.186.642-.016.038-.031.078-.05.114l-.066.101c-.046.065-.083.106-.136.162a.806.806 0 0 1-.43.24c-.153.03-.271.03-.386.042-.47.043-.516.12-1.036.088a1.915 1.915 0 0 1-.787-.212 2.359 2.359 0 0 1-.63-.487c-.354-.383-.512-1.083-.756-1.501-.24-.424-.542-.586-.738-1.03-.098-.225-.193-.436-.278-.683-.08-.24-.136-.476-.198-.701a4.937 4.937 0 0 0-.1-.329 1.377 1.377 0 0 0-.132-.272l-.004.01-.053.107-.21.428c-.015.03-.036.086-.09.101a.15.15 0 0 1-.136-.033.149.149 0 0 1-.043-.057l-.022-.055-.044-.111-.01-.025-.063.072a2.601 2.601 0 0 1-.382.652c-.03.03-.043.073-.103.1a.154.154 0 0 1-.153-.032l-.12-.115a.983.983 0 0 0-.108.084c-.015.085-.03.172-.048.258-.043.204-.102.443-.307.572a.619.619 0 0 1-.84-.218l-.298.502c-.013.03-.061.089-.117.094a.164.164 0 0 1-.148-.05 1.044 1.044 0 0 1-.124-.215v-.001l-.152.267-.024.041a.148.148 0 0 1-.048.051.17.17 0 0 1-.132.023c-.048-.01-.084-.05-.102-.07a.897.897 0 0 1-.065-.076.563.563 0 0 1-.1-.194 5.11 5.11 0 0 1-.533.065c-.119.007-.238.01-.357.009l-.178-.005-.06-.003c.003.084.052.123.067.187a.143.143 0 0 0 .031.05c.022.02.03.024.051.028.04.007.13.053.213.065.367.028.51.306.811.585.15.137.316.137.376.335.031.099.037.2.051.302l-.01.16a.304.304 0 0 1-.008.054l-.031.107c-.076.217-.264.375-.447.46-.187.087-.379.13-.567.16-.377.054-.549.228-.905.239-.362.006-.712-.156-1.1-.242a1.444 1.444 0 0 1-.562-.249 1.093 1.093 0 0 1-.37-.51 2.161 2.161 0 0 1-.112-.575 5.357 5.357 0 0 1-.01-.555c.012-.368.035-.71.037-1.071l.02-1.073c.005-.36.016-.714.01-1.067-.003-.356-.012-.718.008-1.086.01-.187.025-.363.058-.561.037-.2.122-.41.258-.577a1.92 1.92 0 0 1 .457-.395c.159-.105.32-.197.477-.286.32-.175.592-.353.859-.585a6.3 6.3 0 0 0 .738-.734 6.166 6.166 0 0 0 1.475-3.803c.04-.701.016-1.417.058-2.146.037-.732.18-1.462.395-2.16a10.174 10.174 0 0 1 .61-1.53 2.6 2.6 0 0 1 .31-.496c.244-.307.537-.549.818-.777.255-.215.546-.405.832-.573.167-.141.338-.277.517-.406a7.501 7.501 0 0 1 2.258-1.09c.4-.188.809-.36 1.23-.501 1.391-.48 2.853-.739 4.314-.821 1.466-.085 2.915 0 4.358.02 1.44.023 2.882 0 4.287-.248.7-.125 1.39-.304 2.044-.567.325-.13.652-.284.942-.456.289-.178.559-.412.868-.627.078-.053.157-.105.242-.154.08-.05.188-.098.278-.13.19-.067.261-.111.427-.176.006-.002 1.993-1.885 2.52-2.945.21-.422.497-.816.693-1.26.062-.22.143-.434.222-.63.125-.311.235-.627.332-.947l.003-.036v-.006l.003-.015.001-.014a.085.085 0 0 1 .03-.053c.023-.082.043-.165.065-.248a6.15 6.15 0 0 0 .076-.455c.08-.631-.086-1.79.893-1.417.704.268.839.858 1.034 1.466.003-.008.648-1.162.855-1.832.104-.334.096-.96.377-1.207ZM10.78 16.161a1.058 1.058 0 0 0-.634.127 3.14 3.14 0 0 0-.55.404 5.71 5.71 0 0 0-.5.478c-.624.679-1.048 1.524-1.39 2.371-.14.43-.124.9-.17 1.364l-.123 1.388c-.019.229-.04.466-.07.694-.026.227-.044.457.006.666.047.206.215.362.365.552.156.194.236.438.283.668.05.228.077.465.161.658.084.196.266.33.443.493.083.081.185.166.234.307a.663.663 0 0 1-.01.393c-.074.241-.206.436-.295.645-.199.423-.415.835-.601 1.258-.093.21-.183.425-.251.638-.064.213-.098.43-.016.617.079.19.24.364.38.552.144.185.293.346.436.557.268.418.367.892.5 1.33.065.222.138.427.236.638.094.211.192.42.295.627.205.413.43.817.677 1.204.246.39.513.76.89.977.361.217.826.192 1.284.145.226-.025.037-.045.26-.055a.99.99 0 0 0 .296-.056.327.327 0 0 0 .102-.064.796.796 0 0 0 .1-.104c.045-.06.05-.106.03-.201a.786.786 0 0 0-.117-.257 1.035 1.035 0 0 0-.495-.33c-.203-.075.02-.117-.21-.157a2.376 2.376 0 0 1-.72-.216 1.76 1.76 0 0 1-.59-.499 4.075 4.075 0 0 1-.379-.624c-.205-.417-.437-.844-.517-1.35-.04-.251-.03-.517.04-.766.07-.25.183-.473.313-.68.13-.209.279-.4.432-.582.074-.088.156-.186.25-.274.093-.087.19-.164.284-.237.19-.146.373-.277.52-.428.141-.143.239-.326.32-.53.167-.402.243-.9.584-1.323.082-.11.21-.208.323-.269.114-.064.217-.109.293-.162a.567.567 0 0 0 .18-.188c.049-.083.09-.18.124-.283.073-.206.123-.437.224-.675l.303-.634.304-.632c.097-.207.21-.433.359-.636.09-.13.098-.352.224-.456.336-.724.611-1.42.641-2.22.027-.831-.098-1.678-.44-2.44-.175-.375-.806-1.037-1.978-1.809-.367-.242-1.012-.426-1.076-.446-.068-.02-.962-.105-1.027-.092-.068.003-.13 0-.192-.01-.126-.019-.235-.053-.345-.066ZM4.6 25.837c-.25.471-.554.914-.91 1.313a6.66 6.66 0 0 1-1.68 1.378c-.312.192-.84.453-.99.682-.164.224.037.43.025.787L.99 32.105l.223 1.024c-.002.35-.286.745-.3 1.083-.005.17-.004.34.012.503.018.163.05.326.117.443.128.247.366.465.703.48.17.01.436-.129.618-.126l.534.02c.344.006.478 0 .757-.13a.505.505 0 0 0 .278-.3c.045-.137.04-.284-.038-.392-.076-.112-.214-.196-.365-.255-.153-.06-.097-.097-.266-.124-.17-.026-.232-.125-.405-.132-.026-.002-.033.002-.086-.006a.223.223 0 0 1-.121-.067c-.066-.07-.146-.164-.15-.194l-.056-.175c-.032-.353-.05-.708-.047-1.064.012-.707.098-1.44.441-2.089.165-.324.414-.612.717-.82.075-.054.15-.107.235-.143.083-.04.163-.086.248-.119l.2-.064.004-.041.038.027.02-.006.065-.02c.001-.002.005-.002.006-.003.007-.054.014-.108.018-.162.023-.244.03-.49.04-.733.006-.49.05-.97.08-1.452.03-.41.064-.82.09-1.23Zm30-23.462c.005.023-.13.115-.184.2-.048.077-.074.413-.11.542-.068.252-.138.503-.207.754a8.039 8.039 0 0 0-.19 1.447c-.013.389-.06.946.07 1.318-.022.179.06.293.25.343.052.006.104.012.156.02.05.033.104.061.153.099.193.15.358.505.495.705.04.058.157.348.172.463.03.048.062.095.091.146.005.007.007.015.01.023.124-.155.123.043.18-.11.06-.16.116-.325.162-.493.215-.296.386-.605.561.248-.025.136-.053.26-.083.351-.127.39-.35.176-.756.37-.409.195-.92-.05-1.188-.341a3.599 3.599 0 0 1-.198-.087 2.724 2.724 0 0 1-.711-.51.5.5 0 0 1-.143-.148c-.27-.3-.48-.657-.538-1.016-.217.472-.302 1.471-.59 1.888-.489.703-2.194 1.952-2.199 1.954-.22.28-.688.838-.896.952-.056.03-.14.11-.238.213l-.145.159a6.75 6.75 0 0 0-.051.06l-.166.259-.124.295c-.135.41-.132.858-.08 1.295.103.88.655 1.859.693 2.773.016.46-.613.871-.743 1.308-.131.437.069 1.105-.161 1.5-.459.794-1.167 1.168-1.858 1.774-.35.299-.724.578-1.135.8a4.753 4.753 0 0 1-1.312.507c-.458.107-.953-.967-1.425-1.07-.236-.05-.466.971-.68.86a4.108 4.108 0 0 1-.585-.388c-.36-.276-.699-.565-1.114-.675-.2-.056-.43-.054-.66-.09-.229-.027-.482-.118-.64-.304-.08-.087-.14-.19-.197-.287a1.05 1.05 0 0 0-.2-.252.952.952 0 0 0-.595-.236c-.428-.012-.665.102-1.053.285.055.585.097.645-.008 1.223-.057.314.157.355.295.373l-.013.01c.273.018.755.372.872.488.04.04.779.155.794.14.034-.038 2.904.682 3.127.943.058.068.214.15.278.215.209.208 2.302.776 2.426.787.198.017.227.07.445.034.373-.061.73.212 1.1.411a.193.193 0 0 1 .15.117l.023.051c.005.014.011.004.017.017l.03.03c.021.042.058.048.083.084.077.113.112.072.28.162.04.022.12.069.189.096a.675.675 0 0 1 .111.01l.433.078c.232.038.476-.224.71-.198.233.026.394-.176.628-.162l.091-.216s.105 0-.045-.307c-.168-.35-.04-.502-.365-.712l-.048-.159a.453.453 0 0 1-.118-.139c-.046-.1-.188-.21-.117-.27.036-.031.18.032.235.035.05 0 .107.033.12.043l.134.087c.174.121.33.267.466.429.272.324.457.707.578 1.101.238.798.242 1.614.342 2.407.05.396.117.79.242 1.166.044.143.134.229.197.365.022.049.176.33.2.378.085.175.012.169.097.35.15.317.285.642.398.974.02.059.08.107.1.166.017.056-.008.122.009.178.096.329.169.663.215 1.002.056.398.1.8.276 1.153.167.355.494.477.76.784.137.15.264.312.386.475.125.164.319.38.435.54.117.16.25.309.423.401.172.093.284.01.482.045.79.148 1.164.137 1.953-.015l.207-.13c-.012-.047-.038-.285-.086-.324a1.376 1.376 0 0 0-.172-.112 1.43 1.43 0 0 0-.382-.154c-.269-.065-.107-.082-.388-.115-.28-.032-.57-.08-.83-.211a2.279 2.279 0 0 1-.662-.544 3.992 3.992 0 0 1-.8-1.49c-.144-.55-.171-1.118-.169-1.679.003-.561.04-1.12.042-1.675.001-.557-.011-1.116-.002-1.676.008-.56.031-1.123.104-1.682.067-.56.24-1.14.627-1.59a2.36 2.36 0 0 1 .319-.304c.06-.043.118-.089.182-.125.036-.02.053-.036.104-.06.052-.025.523-.393.804-.62l.185-.194c.307-.347.51-.691.755-1.081.064-.103.197-.234.257-.34a8.412 8.412 0 0 0 .855-2.172c.087-.358.168-.723.24-1.094.037-.19-.032-.346 0-.537.028-.166.158-.367.182-.534.109-.77.169-1.545.153-2.299-.01-.545-.088-1.07.13-1.586.2-.478.473-.932.736-1.38a2.145 2.145 0 0 1-.24-.043c-.912.154-1.228-1.447-.779-2.07.145-.2.339-.266.58-.281.072-.004.143.002.214.01.34-.226.726-.42 1.055-.613.074-.128.135-.259.18-.373.193-.49.274-1.03.83-1.155v-.002c-.36-.306-.398-.664-.63-1.053-.298-.5-.806-.79-1.27-1.116a1.162 1.162 0 0 1-.26-.239c-.634-.253-1.035-.344-1.72-.376-.083-.003-.316.122-.403.057-.106-.12-.255-.092-.32-.159.026.042-.26-.415-.265-.431-.26-.412-.213-1.077-.616-1.522Zm-6.911 23.71.047.158a10.426 10.426 0 0 1 .39 2.295c.027.518.156 1.087.212 1.594.047.507.34.97.617 1.4.284.435.479 1.107.654 1.597.182.486.243.794.399 1.274.087.235.09.413.292.561.2.15.47.125.724.172.511.091.922.12 1.435.034.01-.003.114-.04.123-.039-.029-.038-.054-.006-.081-.044a9.88 9.88 0 0 0-.322-.403 18.948 18.948 0 0 0-.693-.77 2.165 2.165 0 0 1-.557-.902c-.1-.344-.142-.686-.196-1.027a6.054 6.054 0 0 0-.542-1.805c-.021-.045-.087-.083-.11-.128-.033-.07-.024-.148-.06-.218-.122-.235-.253-.47-.357-.721a5.793 5.793 0 0 1-.32-1.003c-.151-.643-.274-1.168-.338-1.805l-.07-.1-.09-.04-.358-.014c-.238-.012-.477-.03-.714-.055l-.085-.011ZM4.186 29.9c-.219.094-.42.223-.59.389-.244.238-.42.543-.536.868-.213.598-.255 1.25-.216 1.892.07-.088.135-.18.2-.27A6.73 6.73 0 0 0 4.186 29.9ZM38.19 7.022c.228 0 .38.075.418.262 0 .075.037.113.037.113.114.112.114.262 0 .375-.19.15-.379.262-.606.262H38a.794.794 0 0 1-.607-.3c-.076-.075-.076-.262 0-.337a.873.873 0 0 0 .265-.263c.038-.075.152-.075.19-.075h.19c.076-.037.113-.037.151-.037ZM36.896.617a.11.11 0 0 1 0 .058c-.047.16-.076.281-.112.441.004.185.028.248.02.34-.067.713-.153 2.825.932 2.816.005 0 .009.002.014.003-.07-.662-.085-1.318-.21-1.977a12.846 12.846 0 0 0-.2-.877c-.054-.2-.184-.844-.444-.804Z"/></g><defs><clipPath id="a"><path fill="#fff" d="M0 0h44v37H0z"/></clipPath></defs></svg>