<svg xmlns="http://www.w3.org/2000/svg" width="45" height="38" viewBox="0 0 45 38" fill="none"><path fill="#fff" d="M3.095 32.194v4.75L1 36.417l.524-2.64.524-3.694 4.19-4.75.721-4.722c-.156.577-.385 1.152-.72 1.556-.767.92-2.62 1.583-2.62 1.583l2.095-2.639 1.048-4.75 1.571-2.11s2.194-1.074 3.667-1.584c5.044-1.748 13.619-1.056 13.619-1.056L30.857 9.5l1.572-3.167.523-3.166 2.096-2.64h2.619l2.619 1.056 4.19 3.695-.524 1.055-3.666 1.056-2.62-1.056v6.334l-.523 5.805-1.048 6.334v9.5l2.096 1.583s-1.429 1.51-2.62 1.583c-1.1.067-2.619-1.055-2.619-1.055l-1.047-6.861s1.047-6.334-1.048-6.861c-2.095-.528-2.567.211-4.19 0-3.266-.426-8.52-3.205-8.504-3.638-.625.068-1.901.209-2.496.47-2.137.943-2.096 3.168-3.667 4.75-1.571 1.584-3.143 3.695-3.143 3.695l-2.095 2.64-.524 3.166 1.572 2.11-2.62-1.055v-2.11l-.523-3.167-1.572 2.638Z"/><path stroke="#fff" stroke-width=".2" d="M3.095 36.944v-4.75l1.572-2.638.523 3.166v2.111l2.62 1.056-1.572-2.111.524-3.167 2.095-2.639s1.572-2.11 3.143-3.694c1.571-1.583 1.53-3.808 3.667-4.75.955-.421 3.666-.528 2.619-.528-1.048 0 4.838 3.233 8.38 3.695 1.624.211 2.096-.528 4.191 0 2.095.527 1.048 6.86 1.048 6.86l1.047 6.862s1.52 1.122 2.62 1.055c1.19-.072 2.618-1.583 2.618-1.583l-2.095-1.583v-9.5l1.048-6.334.524-5.805V6.333l2.619 1.056 3.666-1.056.524-1.055-4.19-3.695-2.62-1.055h-2.618l-2.096 2.639-.523 3.166L30.857 9.5l-5.238 2.111S17.044 10.918 12 12.667c-1.473.51-3.667 1.583-3.667 1.583l-1.571 2.111-1.048 4.75-2.095 2.64s1.853-.664 2.62-1.584c.956-1.15 1.047-3.695 1.047-3.695l-1.048 6.861-4.19 4.75-.524 3.695L1 36.417l2.095.527Z"/><path fill="#174F78" d="M44.791 4.735a.43.43 0 0 1-.104-.07 1.42 1.42 0 0 0-.654-.381 1.146 1.146 0 0 1-.518-.209 2.213 2.213 0 0 0-.38-.24 7.83 7.83 0 0 1-.732-.382 1.984 1.984 0 0 1-.31-.243c-.07-.07-.172-.138-.241-.208l-.035-.035a3.971 3.971 0 0 1-.414-.728 3.086 3.086 0 0 0-.68-1.003 1.496 1.496 0 0 1-.241-.208 5.498 5.498 0 0 0-.854-.413l-.591-.166c-.13-.037-.588-.184-.588-.167a9.769 9.769 0 0 0-.507-.131 3.753 3.753 0 0 0-1.074-.077l-.225.012c-.49-.1-1-.152-1.465.072a1.783 1.783 0 0 0-.593.505c-.176.209-.332.433-.468.67l-.042.028c-.11.072-.213.153-.31.243-.06.059-.116.123-.182.184-.222.394-.443.789-.661 1.184-.14.258-.255.455-.394.713l-.024.059a1.244 1.244 0 0 0-.165.667 3.33 3.33 0 0 1 0 .407V4.9a.581.581 0 0 0 0 .079c.006.05.015.1.026.149l-.1.184c-.31.66-.62 1.352-.896 2.08-.1.243-.223.477-.365.7l-.137.172c-.07.103-.172.208-.242.311l-.102.14c-.132.178-.283.34-.45.485l-.069.07-.102.103-.07.035c-.164.126-.35.22-.55.278-.034 0-.069.033-.104.033l-.137.07c-.103.035-.172.07-.275.105-.179.066-.352.147-.518.241a1.826 1.826 0 0 1-.724.308l-.102.035c-.207.033-.414.103-.621.138-.726.177-1.463.304-2.207.38-.31.034-.62.034-.895.07a1.46 1.46 0 0 0-.38.033 9.088 9.088 0 0 1-1.034.07h-.383c-.137 0-.277.034-.414.034-.137 0-.275.035-.414.035h-.344a13.144 13.144 0 0 0-1.621.034c-.274.04-.55.064-.826.07l-.172.035c-.207.035-.38.035-.586.07a6.425 6.425 0 0 0-.828.138l-.62.103c-.208.035-.415.07-.587.105-.482.068-1 .138-1.482.208-.139 0-.276.035-.448.035l-.896.103c-.311.07-1.137.138-1.137.138-.242.035-3.793 1.105-4.897 3.637a8.192 8.192 0 0 0-.596 1.735c-.062.27-.124.536-.195.802-.072.265-.123.511-.207.828-.105.348-.173.66-.277 1.006-.03.132-.076.26-.137.381l-.07.243a.214.214 0 0 0-.033.138 5.001 5.001 0 0 1-.518 1.29c-.056.122-.125.238-.207.346a7.34 7.34 0 0 0-.758 1.04c-.095.164-.211.315-.345.45l-.172.173a1.582 1.582 0 0 0-.207.243c-.137.138-.242.278-.379.416a.748.748 0 0 1-.137.173c-.14.138-.242.313-.38.451l-.069.068c0 .035-.035.035-.07.105a.302.302 0 0 0 0 .174.247.247 0 0 0 .207.104c.07 0 .14-.034.207-.034a.507.507 0 0 1 .242-.035.182.182 0 0 0 .137-.07l.207-.174c.12-.111.247-.215.38-.31l.07-.036a3.26 3.26 0 0 1 .549-.416.925.925 0 0 0 .276-.243l.207-.208c.383-.347.719-.744.998-1.179.035-.068.07-.103.105-.173l.102-.103c.06-.088.13-.17.207-.243.178-.205.318-.44.414-.693.155-.275.282-.566.38-.867l.069-.208c.067-.173.102-.346.172-.52a.818.818 0 0 0 .07-.278c0-.035 0-.035.032-.068 0-.035.035-.035.035-.07.035-.138.103-.311.138-.45a.275.275 0 0 1-.033.139c-.035.206-.07.414-.105.59-.04.158-.062.32-.068.484-.07.416-.174.832-.276 1.248l-.07.311c-.033.104-.067.209-.102.347-.035.07-.035.173-.07.243a1.8 1.8 0 0 1-.207.552 2.081 2.081 0 0 0-.172.486c-.053.18-.122.353-.207.52-.035.07-.102.173-.137.243a3.187 3.187 0 0 1-.55.9l-.104.139a5.3 5.3 0 0 0-.31.45.605.605 0 0 1-.137.174l-.07.07c-.034.035-.07.068-.07.103l-.102.105a5.844 5.844 0 0 0-.379.484l-.035.035c-.034.07-.102.105-.137.174a.954.954 0 0 1-.242.278 2.975 2.975 0 0 0-.414.484.87.87 0 0 1-.172.208l-.035.035-.172.173-.102.105-.14.138a2.225 2.225 0 0 0-.309.278l-.07.069c-.067.07-.102.138-.172.173l-.067.07c-.035.035-.105.07-.14.138a.102.102 0 0 0-.067.035.263.263 0 0 0-.14.07l-.033.033-.034.07v.278c-.006.22.005.44.034.657.04.462.029.928-.034 1.387l-.07.278c-.035.103-.035.208-.07.312l-.067.486c-.035.208-.07.381-.105.59a5.151 5.151 0 0 0-.067.761c0 .347-.035.728-.035 1.105-.03.302-.007.607.067.901a.554.554 0 0 0 .312.416c.102.07.172.105.275.173l.206.105c.07.035.14.035.174.07.08.066.175.113.275.139.07 0 .105.035.172.068a.467.467 0 0 0 .519 0c.033-.033.067-.033.102-.069.035-.035.105-.035.138-.07.033-.035.07-.035.139-.035a.405.405 0 0 0 .412-.346.519.519 0 0 0-.138-.589.257.257 0 0 1-.067-.138l-.035-.208-.105-.52a4.48 4.48 0 0 1 0-1.351c0-.14.035-.279.035-.452A4.46 4.46 0 0 1 3.6 32.8c.033-.103.067-.208.102-.311.11-.196.191-.406.242-.625.042-.227.111-.449.207-.659.051-.154.133-.295.24-.416.035.105.035.208.07.313.034.311.104.624.172.97.034.103.034.209.07.347v.103a.316.316 0 0 0 .034.184l.033.138c0 .103.035.208.035.276.035.243.07.522.104.765a.957.957 0 0 1-.035.31 2.68 2.68 0 0 0-.07.553c.01.118.034.234.07.347v.07a.41.41 0 0 0 .173.243l.104.068c.068.035.172.07.24.105.276.103.518.208.793.311l.137.035c.054.028.114.04.174.035a.506.506 0 0 1 .24.068.494.494 0 0 0 .207.07.58.58 0 0 1 .242.035h.172l.07-.07c.067.035.172.07.241 0a1.03 1.03 0 0 0 .24-.173.41.41 0 0 0 .105-.381 1.46 1.46 0 0 0-.656-.798H7.32c-.068 0-.137-.068-.172-.173a.5.5 0 0 1-.068-.243 1.253 1.253 0 0 0-.139-.381 1.04 1.04 0 0 1-.172-.52 5.615 5.615 0 0 1 .035-.797c0-.138.034-.311.034-.451.003-.328.049-.655.138-.97.035-.069.035-.139.07-.174a.952.952 0 0 0 .24-.45l.034-.14c.035-.067.07-.172.105-.24.102-.175.172-.313.274-.487l.07-.103a.035.035 0 0 1 .035-.035l.034-.035.103-.138c.077-.086.146-.18.207-.278.035-.07.103-.103.137-.138.244-.193.464-.414.656-.66.082-.111.174-.215.275-.31l.07-.07c.132-.11.248-.239.344-.382.034-.07.104-.103.172-.173.174-.138.311-.278.483-.416l.103-.103c.104-.105.242-.208.346-.313l.033-.035c.167-.132.317-.282.449-.45l.07-.105.413-.519c.172-.208.38-.416.55-.59.137-.137.274-.31.413-.45l.035-.035c.103-.139.24-.277.345-.415.207-.313.413-.66.586-.97.067-.14.172-.313.274-.487.062-.098.131-.19.207-.278a.986.986 0 0 0 .172-.241c.144-.221.306-.43.484-.624.035-.035.068-.105.102-.138l.07-.105c0-.035.035-.035.035-.07.102-.104.207-.242.31-.347l.206-.208c.12-.111.247-.216.38-.311.069-.07.172-.138.241-.208.158-.13.348-.213.55-.243h.104a.909.909 0 0 1 .31 0c.102.035.206.035.309.07.118.015.236.037.352.066.368.016.735.056 1.098.122.667.129 1.306.372 1.89.718.585.342 1.1.777 1.71 1.075.292.144.593.273.891.406l.161.038c.138.035.275.105.414.14.153.078.315.136.482.173l.311.104.275.104c.156.062.318.108.483.139.308.04.61.122.896.243.2.067.41.102.62.103h.45c.23-.006.46.006.688.035.208.011.415.035.621.07.219.089.453.136.689.138h.104c.285.042.573.065.86.07h.173c.035 0 .035 0 .07.033.07.174.163.337.276.486.097.091.158.214.172.347v.07c.035.173.068.31.103.484.03.237.087.47.172.694.04.111.063.228.07.346.04.244.064.49.07.737l.136 1.29c.046.297.058.6.035.9v.416c.035.346.035.737.068 1.105a.592.592 0 0 0 .035.243c.063.32.11.645.137.97l.035.244c.035.38.07.692.07 1.005.006.22.029.44.07.658.03.444.172.873.411 1.248.064.106.121.216.172.328l.033.07c.035.068.035.103.07.173.053.298.087.599.102.9-.003.106.008.212.035.314a.37.37 0 0 0 .312.311c.033 0 .067.035.137.07.109.114.237.208.38.276.144.064.274.159.378.279.118.119.259.213.414.276.035 0 .103.035.138.035.185.076.387.1.585.07.173-.035.345-.035.55-.07a.29.29 0 0 1 .242.07.31.31 0 0 0 .242.103.211.211 0 0 0 .137-.033c.035 0 .07-.035.104-.035.035 0 .068-.035.103-.035a.276.276 0 0 0 .207-.346.669.669 0 0 0-.035-.244l-.035-.173v-.105c.07 0 .14.035.207.035a.317.317 0 0 0 .414-.103.497.497 0 0 0 .207-.348c0-.033.035-.068.104-.103a.121.121 0 0 1 .103-.035.748.748 0 0 0 .172-.103c.035 0 .035-.035.07-.035a.435.435 0 0 0 .172-.416.537.537 0 0 0-.277-.417.579.579 0 0 1-.172-.07.742.742 0 0 0-.242-.103l-.102-.07a.775.775 0 0 0-.449-.208.733.733 0 0 0-.207-.138c-.068-.068-.137-.103-.207-.173l-.033-.035c-.035-.035-.035-.068-.07-.068-.034-.035-.069-.07-.069-.105a3.57 3.57 0 0 1-.172-.553c0-.07-.035-.138-.035-.208a.127.127 0 0 0-.033-.103.757.757 0 0 0-.035-.278c0-.243-.035-.451-.035-.692 0-.487.035-.971.035-1.387v-.035c0-.346.035-.695.035-1.04-.014-.522.01-1.043.068-1.56l.115-.921c.033-.174.033-.312.068-.487.035-.346.07-.657.07-.9v-1.88c0-.382-.035-.737-.07-1.106.012-.197.035-.394.07-.589v-.213c0-.069.034-.104.034-.139.072-.155.13-.318.173-.484a.644.644 0 0 0 .07-.243l.067-.138a2.71 2.71 0 0 0 .172-.486c.07-.209.105-.452.172-.66l.035-.103a10.798 10.798 0 0 0 .316-1.996.127.127 0 0 1 .028-.048l.07-.243c.035-.14.07-.278.104-.451.084-.426.142-.857.172-1.29.043-.37.02-.743-.07-1.105v-.38c0-.209-.034-.417-.034-.625v-.033c0-.451-.035-.903 0-1.352.004-.233.027-.465.07-.694 0-.104.035-.209.035-.312v-.105c.032-.346.067-.736.102-1.073 0-.105.035-.243.035-.347.035-.208.035-.38.07-.589V9.58a7.01 7.01 0 0 0 .032-.832 13.398 13.398 0 0 1 0-1.628c0-.07 0-.14.035-.173.052.007.1.031.138.068.116.099.261.16.413.173.18.04.354.102.519.184.033.033.102.068.137.103l.207.243c.11.103.212.214.306.332a.944.944 0 0 0 .62.346c.134.025.262.072.38.138a.691.691 0 0 0 .379.105c.28.004.558-.031.828-.105.102-.033.242-.068.344-.103.103-.035.207-.07.344-.103a2.05 2.05 0 0 0 .793-.486c.101-.093.193-.195.275-.304l.138-.14.137-.138.183-.173c.068-.07.103-.139.172-.209.162-.251.268-.535.31-.832.07-.241.137-.52.207-.762a.464.464 0 0 0-.18-.55ZM4.39 23.795c.104-.139.172-.244.276-.382a.035.035 0 0 1 .035-.035 2.14 2.14 0 0 1-.311.416Zm10.073-2.843c-.035.035-.035.069-.07.139l-.242.313c-.137.173-.241.31-.379.484a5.728 5.728 0 0 0-.62.97c-.221.463-.498.897-.827 1.29-.207.208-.38.416-.586.624a6.702 6.702 0 0 0-.69.833 3.799 3.799 0 0 1-.723.762c-.07.07-.173.138-.242.208l-.07.07c-.146.178-.32.33-.516.45a.613.613 0 0 0-.207.207 2.96 2.96 0 0 1-.447.487c-.134.122-.25.262-.346.416l-.068.103c-.13.147-.268.286-.414.416-.1.084-.193.177-.276.278a2.29 2.29 0 0 0-.275.347.959.959 0 0 0-.172.243c-.035.033-.035.068-.07.103 0 .035-.035.035-.035.07l-.07.103a1.292 1.292 0 0 0-.24.486c-.069 0-.206.068-.241.276v.105c.014.225-.022.45-.104.658a4.814 4.814 0 0 0-.138.97v.279c0 .173-.035.346-.035.552-.005.163.006.326.035.486.033.196.104.383.207.553l.035.068c.035.07.07.105.07.173 0 .145.035.288.102.416v.232a.588.588 0 0 0 .207.486l-.035.069c-.067 0-.137-.035-.207-.035l-.207-.104c-.102-.173-.102-.278-.207-.346a.365.365 0 0 0-.241-.07.182.182 0 0 0-.172.105 1.644 1.644 0 0 1-.517-.208c-.035 0-.035-.035-.035-.105a.96.96 0 0 1 .035-.451c.063-.25.075-.509.035-.763v-.033c0-.105-.035-.208-.035-.313l-.035-.381c-.034-.173-.034-.346-.067-.52a1.468 1.468 0 0 0-.07-.38l-.07-.314c0-.068-.034-.103-.034-.173h.027c-.06-.164-.103-.328-.152-.503-.05-.174-.161-.384-.103-.602.077-.215.203-.41.367-.569.155-.173.311-.346.48-.51.666-.648 1.432-1.179 2.157-1.759.16-.304.51-.53.733-.755.454-.436.855-.92 1.293-1.381.437-.46.934-.921 1.364-1.427.43-.507.791-1.017 1.236-1.485.094-.1.93-.893 1.207-1.171.183-.2.392-.375.62-.52l.104-.07.034-.033a.252.252 0 0 0-.064.152h.006Zm22.219-1.237v.024c-.039.289-.154.989-.173 1.105-.1.654-.43 1.245-.509 1.904a16.896 16.896 0 0 0-.07 1.974c0 1.29.028 2.597-.237 3.868-.01.957-.011 1.912.018 2.88.042 1.317-.297 2.763.526 3.842.036.033.075.064.115.092.068.068.137.103.207.173.084.06.177.106.275.138.07.035.172.07.206.138a.733.733 0 0 0 .193.139.291.291 0 0 0-.09.104.233.233 0 0 0 .035.209l.035.035-.07-.036c-.033-.035-.068-.035-.137-.07a.194.194 0 0 0-.275.07.281.281 0 0 0 .033.279l.07.068a.121.121 0 0 1-.07-.035c-.033-.068-.137-.068-.172-.068h-.586c-.035 0-.035 0-.068-.035l-.05-.069a.545.545 0 0 1-.085-.064c-1.173-1.08-1.178-2.497-1.134-3.993.027-.897-.073-1.78-.086-2.678-.013-.791.06-1.581.086-2.375v-.319a5.574 5.574 0 0 1 0-.762c.035-.553.035-1.006.035-1.422 0-.247 0-.471.025-.68a.348.348 0 0 1-.027-.112c-.03-.552.256-1.053.47-1.547.237-.541.872-2.16 1.006-2.376.112-.145.21-.302.29-.467 0-.03.199-.037.199-.035a.077.077 0 0 1 .027.064.034.034 0 0 0 0 .015.056.056 0 0 1-.013.022Zm3.593-16.927c-.103.07-.138.173-.035.311a.665.665 0 0 1-.275-.138.846.846 0 0 1 .31-.38.108.108 0 0 1 .07-.036l.067.035.105.105a.288.288 0 0 0-.242.103Zm.137-.935c-.198.02-.387.092-.55.208-.137.103-.24.208-.378.311-.035.035-.068.07-.068.105a3.53 3.53 0 0 0-.14.346.109.109 0 0 0 0 .138c0 .035.035.105.035.138.028.15.087.292.173.417l.104.208a.235.235 0 0 0-.14.208.315.315 0 0 0 .105.243l.035.035c-.035.035-.035.068-.07.103a.339.339 0 0 0-.034.313c0 .033.034.068.034.103a.324.324 0 0 0-.034.416c0 .005 0 .01.002.014a.035.035 0 0 0 .032.021l-.07.035a.366.366 0 0 0-.203.242c0 .035 0 .035-.07.07a.298.298 0 0 0-.136.311c-.035.035-.07.035-.105.07a.329.329 0 0 0-.137.346v.138a.495.495 0 0 1-.105.138 1.159 1.159 0 0 0-.379-.138.438.438 0 0 1-.35-.241c-.034-.07-.102-.14-.172-.243-.207-.173-.344-.07-.483.07l-.068.068.137.14a.448.448 0 0 1 .105.138c.01.011.02.024.027.037a.234.234 0 0 1 .123.232c-.051 1.385.21 2.763.017 4.148-.098.686-.253 1.36-.317 2.051 0 .094-.015.184-.024.278l.009 2.252a8.282 8.282 0 0 1-1.082 3.632c-.335.604-.713 1.184-1.068 1.776v.018c-.031.074-.06.153-.09.24l-.035.068a.277.277 0 0 1-.067.14c-.095.166-.176.34-.242.519-.035.07-.07.173-.104.243-.068.173-.138.381-.206.59l-.183.97c-.053.262-.076.53-.068.797 0 .693 0 1.385-.034 2.045v.31c.035.43.035.861 0 1.29v.451c0 .52 0 .97-.035 1.352-.018.197-.026.403-.035.61a28.581 28.581 0 0 1 0 3.519v.064c.035.208.07.417.105.66l.034.276c.036.277.142.54.31.762.22.318.487.599.793.833l.137.138.035.07c.035.035.035.07.07.07l.032.035a.417.417 0 0 0 .312.173h.31c.034.033.034.068.069.138v.037a.13.13 0 0 0-.104-.035l-.173-.07v.14a.385.385 0 0 0-.274-.105l-.105.035-.035.103v.14c.004.026.016.05.035.068a.658.658 0 0 1-.274.035.367.367 0 0 0-.38-.208h-.104l-.035.14v.033a.577.577 0 0 1-.344-.208.967.967 0 0 0-.482-.346.745.745 0 0 1-.276-.173.722.722 0 0 0-.344-.208v-.354a3.088 3.088 0 0 0-.178-1.013 2.605 2.605 0 0 0-.311-.624 2.256 2.256 0 0 1-.275-.737 4.257 4.257 0 0 1-.07-.97v-.417c-.035-.31-.035-.624-.07-.935 0-.138-.032-.278-.032-.416v-.104a.316.316 0 0 0-.035-.184c0-.103-.035-.206-.035-.31-.035-.485-.035-.971-.035-1.49v-.174a3.158 3.158 0 0 0-.035-.59.22.22 0 0 0-.032-.14c0-.067-.035-.172-.035-.24a8.6 8.6 0 0 0-.105-.938c-.035-.173-.035-.311-.067-.484a6.427 6.427 0 0 0-.184-.936 1.076 1.076 0 0 1-.067-.348l-.035-.138a.207.207 0 0 0-.035-.138c0-.07-.035-.138-.035-.208a1.996 1.996 0 0 0-.447-.9.483.483 0 0 1-.104-.14 1.504 1.504 0 0 1-.137-.798 3.735 3.735 0 0 0-.035-.623c-.09-.42-.23-.826-.414-1.213a13.923 13.923 0 0 1-.482-1.04c-.035-.069-.07-.174-.139-.209a.412.412 0 0 0-.172-.173.256.256 0 0 0-.364.056.185.185 0 0 0 .02.222l.448.97c.035.035.158.498.215.66.098.32.16.65.183.983a.28.28 0 0 1-.277.278c-.531-.009-1.046-.163-1.573-.217a11.414 11.414 0 0 1-1.465-.206c-.82-.184-1.614-.483-2.423-.715a4.185 4.185 0 0 1-.366-.07.26.26 0 0 1-.081-.018h-.015c-.55-.151-1.029-.479-1.523-.737a9.97 9.97 0 0 0-.445-.219 1.582 1.582 0 0 1-.2-.083c-.172-.068-.344-.138-.449-.173-.104-.035-.428-.217-.514-.254l-.158-.076a19.423 19.423 0 0 0-2.28-.7 4.372 4.372 0 0 0-1.914-.08c-.47.106-1.648.429-1.729.467a6.343 6.343 0 0 0-1.597.974c-.278.227-.568.454-.833.697a.99.99 0 0 1-.213.22l-.038.04a2.46 2.46 0 0 1-.227.25c-.041.051-.08.105-.114.162-.07.068-.139.173-.207.241a8.846 8.846 0 0 0-.723 1.04 1.35 1.35 0 0 1-.311.417 6.347 6.347 0 0 0-.414.484c0 .035-.033.035-.068.07-.125.13-.241.27-.346.417-.033.035-.068.103-.103.138-.241.313-.483.589-.723.867l-.07.068c-.102.105-.172.208-.274.313l-.14.173c-.108.124-.236.23-.379.312a2.357 2.357 0 0 0-.481.38.492.492 0 0 1-.312.209c-.289.144-.547.344-.758.59-.18.18-.375.343-.586.485-.172.115-.314.27-.414.452-.033.068-.068.103-.102.173-.242.241-.45.52-.656.762l-.24.276a1.56 1.56 0 0 0-.277.382c-.07.105-.137.243-.241.38a1.322 1.322 0 0 0-.172.279c-.182.336-.31.698-.38 1.074a.765.765 0 0 1-.172.416 1.23 1.23 0 0 0-.207.552A7.455 7.455 0 0 0 2.99 34.1v.14c-.04.299-.064.6-.07.9.015.503.085 1.003.207 1.49.028.084.062.165.103.244l.035.035H3.16a.181.181 0 0 0-.14.068l-.067.07.068.138a.754.754 0 0 1-.138-.173.513.513 0 0 0-.448-.208.207.207 0 0 0-.138.035.184.184 0 0 0-.102.173v.035a1.048 1.048 0 0 1-.277-.138c-.035-.035-.102-.07-.137-.105a.23.23 0 0 1-.172-.242 4.88 4.88 0 0 1-.035-.694 3.16 3.16 0 0 0 .035-.59v-.242c-.013-.222.01-.444.068-.658 0-.07.034-.138.034-.208 0-.07.035-.105.035-.173l.035-.14c.068-.414.137-.866.207-1.29.039-.17.061-.344.068-.519a5.927 5.927 0 0 0 0-1.105v-.206a1.307 1.307 0 0 0-.035-.348v-.103a.736.736 0 0 1 .207-.278c.027-.035.057-.068.086-.101-.068.15.024.248.086.344l.035.035h.07a.365.365 0 0 0 .309-.173c.117-.136.244-.263.379-.381l.311-.313c.207-.209.414-.382.586-.59.207-.208.414-.45.62-.692l.034-.035c.105-.138.207-.243.311-.381l.24-.312c.303-.347.58-.716.828-1.105.07-.112.15-.216.242-.31.069-.073.127-.155.172-.244.137-.208.31-.451.449-.66.139-.207.275-.449.414-.657l.24-.416a.184.184 0 0 0 .034-.208c0-.07-.067-.103-.137-.138l-.104-.035-.103.103c0 .035-.035.035-.035.07l-.067.105c-.105.173-.242.311-.347.484a2.86 2.86 0 0 0-.274.416l-.105.209-.067.068a2.06 2.06 0 0 1-.207.278c-.242.311-.45.624-.69.935l-.276.347c.033-.069.103-.139.138-.207.133-.127.239-.28.31-.45a2.06 2.06 0 0 1 .206-.279 2.5 2.5 0 0 0 .242-.416c.035-.068.035-.103.07-.173.124-.204.217-.426.274-.658.035-.105.105-.243.14-.348l.102-.241a.501.501 0 0 0 .07-.208 4.22 4.22 0 0 0 .172-.695l.102-.346c.105-.346.173-.692.242-1.04l.035-.207c.068-.416.172-.832.207-1.289.038-.287.061-.576.068-.865v-.07a4.414 4.414 0 0 1 .034-.695 1.96 1.96 0 0 0 .035-.449.59.59 0 0 0-.035-.243.246.246 0 0 0-.344-.103.39.39 0 0 0-.242.276.264.264 0 0 1-.067.138c0 .035-.035.07-.035.105l-.035.07a.494.494 0 0 0-.07.241c-.033.174-.102.382-.137.553-.07.208-.102.451-.172.66-.035.104-.07.172-.104.277 0 .033-.033.103-.033.138l-.105.347c-.035.07-.035.138-.068.208a3.158 3.158 0 0 0-.139.45.523.523 0 0 1-.068.209c-.07.173-.139.311-.206.484-.035.07-.035.105-.07.174-.07.105-.103.208-.172.313-.035.068-.07.103-.105.173-.067.068-.102.173-.172.243a1.548 1.548 0 0 0-.172.241c.184-.342.335-.702.449-1.074.035-.173.102-.313.137-.45.07-.174.104-.347.172-.485l.035-.173c.064-.27.145-.537.242-.798.15-.535.265-1.08.344-1.63.007-.106.03-.212.07-.31.035-.176.102-.349.137-.487.035-.173.104-.346.137-.52.066-.236.147-.468.242-.694l.035-.103c.135-.36.32-.698.55-1.005.069-.104.137-.174.206-.279.035-.068.103-.103.138-.173a.62.62 0 0 1 .093-.103c.583-.937 3.176-1.806 3.333-1.856a9.233 9.233 0 0 1 1.878-.308c1.159-.11 2.322-.154 3.48-.29a35.326 35.326 0 0 1 3.578-.314c.695-.01 1.387-.021 2.079-.035.35-.03.7-.059 1.05-.092 1.73-.17 3.554-.388 5.197-.985 1.465-.529 2.197-1.573 3.151-2.643.019-.044.033-.088.048-.132.015-.045.035-.104.07-.174.034-.07.067-.173.102-.243.049-.148.119-.288.207-.416.035-.035.035-.103.07-.138l.102-.243c.07-.173.138-.311.207-.484.05-.107.105-.218.158-.328l.21.149c.15.109.733.339.867.429.265.19.548.353.846.486a.044.044 0 0 0 .059.026c.288.21.595.395.915.552.16.065.298.174.452.25a.85.85 0 0 0 .138-.012l.06-.01.05-.012.05-.017.074-.03.077-.036h.011l.042-.033.039-.042c.03-.04.06-.08.086-.122.029-.046.056-.094.084-.142l.035-.06v-.025c.022-.047.046-.094.073-.14v-.348a4.288 4.288 0 0 0-.225-1.035c-.079-.256-.16-.513-.225-.773-.028-.076-.054-.151-.08-.227a.15.15 0 0 0 .025-.06c.09-.579-.112-1.14-.149-1.717-.019-.29-.014-.58.015-.87.045-.27.034-.546-.033-.811a.186.186 0 0 0-.1-.113.182.182 0 0 0-.151 0 1.437 1.437 0 0 0-.236-.036.51.51 0 0 0-.107.012h.008c-.504.638-.55 1.489-.429 2.271.037.087.077.173.117.26.136.293.264.59.394.886.142.293.25.602.319.92.06.319.16.628.298.921.086.196.224.415.184.636-.063.304-.367.357-.621.285-.258-.08-.5-.204-.715-.368-.212-.15-.44-.274-.655-.42l-.183-.1c-.198-.115-.453-.255-.65-.368-.138-.09-.257-.14-.392-.23a.641.641 0 0 1-.286-.326 4.089 4.089 0 0 1-.13-1.138.721.721 0 0 1 .11-.444c.154-.312.323-.615.507-.91l.05-.121c.139-.256.254-.455.393-.713a5.08 5.08 0 0 1 1.05-1.387c.298-.124.604-.23.915-.317.265-.035.532-.045.799-.029.256 0 .513.013.767.033.125.011.25.022.367.043.155.057.514.243.549.252a.31.31 0 0 0 .172.035c.035 0 .07.033.105.033h.034c.036.006.07.018.103.035.203.142.437.231.683.26a1.396 1.396 0 0 1 .93.589c-.035.028-.07.028-.139.028Zm.55 1.351h-.035l.035-.035a.075.075 0 0 1 .067.07c-.03 0-.03-.035-.064-.035h-.003Zm3.274 2.739a.262.262 0 0 1-.035.138.468.468 0 0 0-.207-.173.31.31 0 0 0-.034-.173c.104.138.137.173.276.208Z"/><path fill="#174F78" d="M32.531 25.336a2.702 2.702 0 0 0-.32-.553.411.411 0 0 0-.037.184l.07.936c.033.278.033.552.068.832l.104 1.214c0 .138.035.276.035.416.005.22.028.44.068.658.034.416.07.762.07 1.075-.012.617.034 1.234.137 1.842.063.365.074.737.034 1.105v.484c.013.068.05.13.103.173.035 0 .07.035.104.035a.15.15 0 0 0 .074-.013c.174-2.775-.169-5.64-.51-8.388ZM31.991 21.715a.547.547 0 0 1 .08-.039 7.236 7.236 0 0 0-.408-1.359c-.2-.455-.467-.908-.668-1.376a.279.279 0 0 0-.165.035.245.245 0 0 0-.104.208v.035c.007.085.03.167.07.242.088.227.192.447.31.659.197.416.415.821.654 1.214.067.133.144.26.231.38ZM38.38 3.998a.255.255 0 0 0-.208.068.948.948 0 0 0-.172.208.296.296 0 0 0 0 .243c0 .07.103.105.207.105h.103c.139-.07.311-.313.241-.486a.227.227 0 0 0-.172-.138Z"/></svg>