<svg width="732" height="658" fill="none" xmlns="http://www.w3.org/2000/svg"><path d="M590 264.78c-3.78-7.7-11-13.18-19-15.89-.65-.22-1.32-.41-2-.58a62.806 62.806 0 0 0 3.85-8.46 39.446 39.446 0 0 0-2-30.88c-8.25-16.8-28.35-27.19-46.74-26.42-21.09.89-39.71 12.09-56.47 24a120.527 120.527 0 0 0-10.46 8.28c-.41 10.13-2.21 20-8 28.8a64.105 64.105 0 0 1-3.78 5.11c-5.31-.68-10.77-.91-15.89-1.45-9.5-1-19-1.9-28.56-2.57-41.69-2.93-84.35-1.52-124.26 12-.22.08-.43.17-.64.27-8.798.783-17.64.937-26.46.46-1.17-.08-2.34-.19-3.51-.3h-.84a79.712 79.712 0 0 1-6.88-1.39 69.027 69.027 0 0 1-6.77-2c-.23-.07-1.24-.47-1.91-.73-.67-.26-1.86-.86-2.05-1a67.632 67.632 0 0 1-6.39-3.71c-.58-.39-1.15-.8-1.73-1.2-.3-.22-1-.71-1.43-1.11-1.69-1.43-3.32-3-4.86-4.54-.69-.71-1.36-1.43-2-2.17 0 0-.93-1.1-1.48-1.73-.35-.47-.86-1.14-1-1.32-.71-1-1.39-2-2.05-3.08-1.3-2.1-2.42-4.28-3.55-6.48-.1-.19-.28-.61-.42-.94-.34-.88-.67-1.76-1-2.65a62.137 62.137 0 0 1-1.79-6.41c-.22-1-.37-2-.6-3 .74 3.3-.11-1.27-.15-1.76a64.872 64.872 0 0 1-.13-7c0-1 .09-2.06.17-3.09.06-.74.21-1.79.24-2 .39-2.2.86-4.39 1.46-6.54.6-2.15 1.36-4.44 2.2-6.61 0-.1.1-.21.17-.35.57-1.16 1.12-2.32 1.74-3.46 1.23-2.27 2.63-4.43 4.07-6.58.11-.17.44-.59.69-.91.84-1 1.71-2 2.61-2.95 5.85-6.34 6.74-17.14 0-23.33-6.38-5.85-17.08-6.77-23.34 0a86.868 86.868 0 0 0-11.61 15.9c-6.44-4-16-5.53-21.38 1.37-11.93 15.25-14.65 33.5-10.17 52.2a90.007 90.007 0 0 0 23.6 41.63c3.72 13.64 9.27 26.71 19 37.14 1.77 1.89 3.68 3.62 5.44 5.5.16.17 3 3.28 1.73 1.95l-.48-.52c.14.15.61 1.07.76 1.3a30.037 30.037 0 0 1 1 4.14c-.5-2.69.09.95.15 1.6.36 3.89.56 7.8.71 11.71.55 14.12.66 28.16 3.07 42.13a84.128 84.128 0 0 0 4.79 17c1.6 4 3.37 7.86 5.23 11.71l1.5 3.07c.22.45 2 4.46 2 4.32a63.92 63.92 0 0 1 2.37 7.54c.17.63.29 1 .38 1.25-.04.466-.057.933-.05 1.4v4.49c0 .43-.2 2.77-.16 2.69-.22 1.54-.55 3.08-.86 4.6-.74 3.59-1.65 7.16-2.53 10.72-3.3 13.43-5.76 27.43-2.36 41.1 4.13 16.6 17.14 26.39 31.09 34.71l1.76 1c.21 2.73.82 5.38 2.74 7.42 2.67 2.84 6.5 3.41 10.21 3.57a46.88 46.88 0 0 0 24.42-6.18c4-2.23 4.44-7.8 1.41-11-15.14-15.95-19.44-41.35-10.26-61.42 5-11 14.59-19.2 19.56-30.24a36.008 36.008 0 0 0 2.82-8.74c.26-1.583.44-3.179.54-4.78 0-.573.03-1.143.09-1.71a2.34 2.34 0 0 0 .37-.18c2.57-1.61 7.64-1.93 10.56-2.64l1.34-.33c9.6 6.06 19.57 11.49 30.37 15.21a89.174 89.174 0 0 0 27 4.67c9 .22 17.89.05 26.82 1.51 4.1 11.92 9.18 23.55 13.85 35.24 4.78 12 9.11 24.39 15.51 35.62 6.26 11 16 23.36 28.52 27.37 7.9 2.53 16.89 1.26 22.8-4.92a20.507 20.507 0 0 0 5.45-14.06c0-4.71-2.2-9-3.19-13.5-.09-.42-.49-2.77-.51-2.66-.16-1.55-.23-3.13-.29-4.69-.11-3.06-.05-6.13.07-9.19 0-.82.06-1.64.1-2.46a9.311 9.311 0 0 1-.92-6.17c.1-.55.23-1.07.37-1.59.52-2.31 1-4.63 1.47-6.95.14-1.46.29-2.92.48-4.38 0-.25.09-.55.16-.92.31-1.75.64-3.48 1.05-5.21.17-.69.37-1.37.57-2.06-.84-5.8-2.26-11.54-2.69-17.42-.05-.57-.07-1.13-.1-1.7 5.37-4.5 8.49-10.69 11.57-17.12 7.89-16.43 15.5-33.73 16.13-52.23v-3.94a39.418 39.418 0 0 1 11.49-16.13c.4-1 2.5-6 1.32-3.55.1-.2.56-1.12.94-1.86l1.11-.26c1-.09 3.35-.35 3.73-.39 2.14-.2 4.267-.447 6.38-.74a25.41 25.41 0 0 1 3.14-.47 124.697 124.697 0 0 0 37-12c6.34-3.24 12.94-7.07 17.71-12.43 7.52-8.46 9.85-19.98 4.75-30.37ZM510.77 263l1.6-2c0 .58.07 1.16.1 1.74-.57.1-1.13.18-1.7.26Zm35.32 18.37c.159-.854.236-1.721.23-2.59 1.47.19 3 .32 4.45.42-1.59.8-3.1 1.53-4.68 2.18v-.01Z" fill="#fff"/><path d="M611 261a52.673 52.673 0 0 0-2-8 62.073 62.073 0 0 0-3-7.53 13.878 13.878 0 0 0-2.75-4.18 15.135 15.135 0 0 0-4-3c-3-1.5-4.92-.37-7.35-.86-2.43-.49-7.34.22-9.53-.42-2.48-.67-6.81-6.19-6.77-6.27.331-1.18.45-2.409.35-3.63a11.844 11.844 0 0 0 4.09-4.85 31.986 31.986 0 0 0 1.78-5.17c.37-1.28 3.35-2.55 3.94-4.21a17.998 17.998 0 0 0 1.24-6 11.58 11.58 0 0 0-2.17-6.81 13.528 13.528 0 0 0-5.08-4.37 23.666 23.666 0 0 1-3.62-1.82 4.508 4.508 0 0 1-.91-1 2.49 2.49 0 0 1-.2-.29 7.156 7.156 0 0 0-.16-1.53 5.468 5.468 0 0 0-1.93-3.19 12.324 12.324 0 0 0-2.93-1.8l-.47-.22a3.616 3.616 0 0 1 0-.57 14.26 14.26 0 0 0 1.21-2 7.003 7.003 0 0 0 .31-5.07 8.235 8.235 0 0 0-2.27-3.78 10.24 10.24 0 0 0-7.07-2.5 19.94 19.94 0 0 0-3 .2 8.998 8.998 0 0 0-2.2.57c.003-.05.003-.1 0-.15a7.67 7.67 0 0 0-1-2.55 8.13 8.13 0 0 0-1.74-1.95 7.275 7.275 0 0 0-2.45-1.37 9.818 9.818 0 0 0-4.43-.24l-1.44.18a6.448 6.448 0 0 0-2.9 1.19l-.72.51-.37.08a7.266 7.266 0 0 1-1.85.12 2.812 2.812 0 0 1-1.16-.34 2.156 2.156 0 0 1-.43-.33c-.09-.08-.08-.11-.14-.14a7.336 7.336 0 0 0-1.75-1.57 2.341 2.341 0 0 0-.71-.29h-.11a21.865 21.865 0 0 0-10.18-.37 15.067 15.067 0 0 0-3.86 1.56c-.369-.423-.76-.827-1.17-1.21a8.132 8.132 0 0 0-5-1.93 8.472 8.472 0 0 0-5 1.54 8.996 8.996 0 0 0-3 4 20.845 20.845 0 0 0-1.06 3.74 8.59 8.59 0 0 0-2.9-.82 8.845 8.845 0 0 0-6.08 1.66 18.893 18.893 0 0 0-2 1.92 5.072 5.072 0 0 0-1.22 2.62l-.25.13a1.858 1.858 0 0 0-.43-.34 3.817 3.817 0 0 0-1-.44l-.46-.14c-.3-.11-.62-.23-1-.39a13.48 13.48 0 0 0-2.62-1 4.66 4.66 0 0 0-1.838.003 4.655 4.655 0 0 0-1.692.717 9.986 9.986 0 0 0-2.15 2 4.999 4.999 0 0 0-1.24 3.09 4.67 4.67 0 0 1-.26 1.9l-.05.15a.995.995 0 0 0-.07.47 5.796 5.796 0 0 1-2.91 5.27l-1.4-.27-.83.13a.995.995 0 0 1 .32-.1h-.05a3.053 3.053 0 0 0-.74 0c-1.08.26-1 .56-1.35.74a8.717 8.717 0 0 0-1.48 1.5 11.292 11.292 0 0 0-1.82 3.66c-.77 2.51-1 5-2.18 6.93a2.626 2.626 0 0 1-2.32 1.69c-1.12.14-2.41.07-3.72.24-1.31.17-5-1.23-6.11-.38a14.077 14.077 0 0 0-2.91 4.16c-.56 1.21-.51 3.36-.73 4.68-.22 1.32.89 3.44.74 4.58-.15 1.14 1.1 1.42.55 2.42a22.256 22.256 0 0 1-2.15 2.94 14.03 14.03 0 0 0-2.16 3.2 6.231 6.231 0 0 0-.07 3.93c.036.091.066.185.09.28a3.593 3.593 0 0 0-.67 1.27c.07.87.12 1.73.18 2.59l.38.85a9.106 9.106 0 0 1 .78 3.2 18.504 18.504 0 0 1-.8 5.37l-.42.13a51.781 51.781 0 0 1-1 9.44c1.07 6-1 12.08-5.14 16.9 1.34-1.57-.92 1.77-1.14 2.2a18.262 18.262 0 0 0-1.18 2.91 82.777 82.777 0 0 0-2.69 9.91c-1.4 6.37-1.69 13.64-1.87 20.49v1c.19.7.4 1.4.63 2.09 3.87 5.77 8.2 11.23 12.07 17 1.46.76 2.89 1.59 4.29 2.47.44.13.89.25 1.34.34 2 .36 2.93.36 4.23.57 1.12.158 2.226.398 3.31.72a25.464 25.464 0 0 1 6.23 3.25 19.63 19.63 0 0 0 9.27 3.44c2.89.025 5.778-.125 8.65-.45l8-.75a52.609 52.609 0 0 0 8.24-1c2.2-1.31 4.37-2.66 6.5-4.11 3.16-2.15 6.48-4.46 10-6.41a24.337 24.337 0 0 0 4.66-12.3l4.57-.24c5.45-.21 11.14-.77 16.38-.68 1.227.07 2.448.234 3.65.49 1.11.25 2.39.73 3.81 1.15 1.623.567 3.351.765 5.06.58a14.35 14.35 0 0 0 4.48-1.85c.298-.145.558-.358.76-.62l.08-.12.94-1.27a5.002 5.002 0 0 1 4.41-.44l1.08.41a.142.142 0 0 0 .112-.022.145.145 0 0 0 .058-.098.157.157 0 0 0 0-.061.129.129 0 0 0-.026-.054.133.133 0 0 0-.046-.039.133.133 0 0 0-.058-.016c-.1 0 .43.08 1.39.2.575.06 1.156.026 1.72-.1.41-.1.83-.19 1.23-.33a15.907 15.907 0 0 0 4.05-2.15c2.24-1.6 3.86-2.72 5.58-2.89.93-.14 2.23 0 4-.33a8 8 0 0 0 5.07-2.95 15.958 15.958 0 0 0 1.83-4.12c.044-.098.098-.192.16-.28l.22-.21c.26-.22.36-.24.39-.24a6.43 6.43 0 0 1 1.11 0 6.698 6.698 0 0 0 3.31-.66 5.995 5.995 0 0 0 2.72-2.63c.39-.828.662-1.707.81-2.61 0-.15.06-.25.08-.31a3.41 3.41 0 0 1 .62-.37 14.086 14.086 0 0 0 4.11-2.33c2.91-2.74 3.52-6.52 3.58-9.33 0-1.55 0-2.54.08-3.74l.3-3.74A34.81 34.81 0 0 0 611 261Zm-58.48-83.88 2.93-2a3.388 3.388 0 0 0-.59-.63 1.576 1.576 0 0 0-.23-.16l-1.81.67.4-.15 1.41-.52c.08.06.12.12.19.18.234.172.434.385.59.63l-3 2 .11-.02Zm48.85 101a8.24 8.24 0 0 1-1.16 2c-.23.32-.51.62-.78.93l-.33.34h-1.21a2.683 2.683 0 0 0-1.25.4c-.234.15-.438.343-.6.57l-.25.39c-.5.91-.87 1.92-1.08 2.15a1.231 1.231 0 0 0-.33.79v.67c-.448.06-.902.06-1.35 0l-.78-.11a.133.133 0 0 0-.098.023.125.125 0 0 0-.052.087.118.118 0 0 0 .003.053.12.12 0 0 0 .024.048.112.112 0 0 0 .041.034.12.12 0 0 0 .052.015 5.155 5.155 0 0 0-2 .46 5.415 5.415 0 0 0-1.82 1.88c-.143.237-.31.458-.5.66a6.324 6.324 0 0 0-.84 1 2.206 2.206 0 0 0-.12 2.08c.193.383.462.723.79 1-.487.311-.995.588-1.52.83-.62.26-1.21.55-1.86.78a10.34 10.34 0 0 1-1.68.6c-1 .15-2.66-.23-4.22.23a15.298 15.298 0 0 0-4.09 1.68c-1.26.62-2.51 1.49-3.6 2.08a7.854 7.854 0 0 1-3.48 1 4.913 4.913 0 0 1-1.68-.3 4.91 4.91 0 0 0-2.58 0 18.23 18.23 0 0 0-4.13 1.69 3.204 3.204 0 0 0-1.2 1 2.49 2.49 0 0 0-.43 1.75l-.2.05c-1.201.189-2.42.226-3.63.11-1.13-.24-2.36-.86-3.88-1.27a34.856 34.856 0 0 0-4.33-.57 64.244 64.244 0 0 0-8.44 0c-4.71.28-9.35.8-14 1.19a12.293 12.293 0 0 0-.54-1.91c-.55-1.5-1.21-2.68-1.66-3.76a16.896 16.896 0 0 1-1.56-6.73 48.603 48.603 0 0 1 1.26-7.58c.353-1.517.451-3.081.29-4.63a17.663 17.663 0 0 0-1.2-4.32c-1.15-2.84-2.91-4.9-3.66-7.12a21.413 21.413 0 0 1-.73-7.56c0-1.34.06-2.72 0-4.11 0-.71-.1-1.37-.22-2.12a9.399 9.399 0 0 0-.75-2 48.37 48.37 0 0 1-1.8-7.66 32.882 32.882 0 0 1-.19-7.93l.21-2a2.063 2.063 0 0 0-.78-2.19 2.475 2.475 0 0 0-2.301-.082 2.466 2.466 0 0 0-1.369 1.852c-.78 5.31-1.05 10.85.27 16.18.61 2.66 1.6 5.19 1.72 7.74.12 2.55-.8 5.11-.6 8.09.2 2.98 1.6 5.57 2.7 8 1.1 2.43 2 4.79 1.62 6.85-.38 2.06-1.94 4.1-3.31 6.77a11.473 11.473 0 0 0-1.28 4.69 10.526 10.526 0 0 0 1.12 4.93c1.49 2.81 2.61 4.55 3.11 6.85.529 2.201.57 4.491.12 6.71a15.78 15.78 0 0 1-7.81 10.36c-3.89 2.22-8.57 2.3-14.08 2.28-5.51-.02-11.18 1.24-15.4.35a17.144 17.144 0 0 1-6.31-2.73 29.533 29.533 0 0 0-3.89-2.19 14.268 14.268 0 0 0-2.39-.79c-.88-.2-1.37-.26-2.08-.39-5.27-.88-9.73-2.21-12.56-6.24a32.476 32.476 0 0 1-5.6-14 33.411 33.411 0 0 1 1.48-15.29c1.65-4.91 4.93-9.17 7.57-14a30.303 30.303 0 0 0 3.1-7.75c.71-2.73.66-5.64.93-8.15.51-5.21 2-10.6 1.14-16.43a18.367 18.367 0 0 0-1.18-4.26l-.47-1-.25-.51a4.398 4.398 0 0 0-.57-.76 2.712 2.712 0 0 0-.73-.57c.108-.674.383-1.31.8-1.85a27.09 27.09 0 0 1 2.28-2.59c.79-.86 3.36-1.42 3.78-2.68a10.192 10.192 0 0 0 0-3.62c-.12-1.07-1.36-2.46-1-3.57a16.918 16.918 0 0 1 1.45-3.07 5.434 5.434 0 0 1 2.28-2.21 3.521 3.521 0 0 1 3 .21h.09l2.13.09a.369.369 0 0 0 .26-.1h.06a10.709 10.709 0 0 0 2.49-2.18 8.294 8.294 0 0 0 1.11-3.24c.37-2.15.42-4.32 1.13-6.12a3.997 3.997 0 0 1 1.7-2c.83-.53 1.1-.24 2.52.11a8.749 8.749 0 0 0 3.57-.41 6.13 6.13 0 0 0 3.06-2.08 7.005 7.005 0 0 0 1.65-3.37c.08-1.6-.3-2.24 0-3a25.106 25.106 0 0 1 1.79-3.73c.06.21.09.36.18.6.133.379.322.736.56 1.06.11.34 1.2.95 1.11.88.347.205.663.457.94.75a5.1 5.1 0 0 0 1.8 1.23 4.609 4.609 0 0 0 2.35.15 5.913 5.913 0 0 0 3.6-2.05l.16-.21.06-.11 1.32-2.6c.084-.168.128-.353.13-.54v-.1a2.515 2.515 0 0 1 .34-1.49c-.06.06 0-.05.72.15a14.979 14.979 0 0 1 3.95 2.32 3.874 3.874 0 0 0 3.11 1.47 3.999 3.999 0 0 0 3.34-2 16.83 16.83 0 0 0 1-2.09c.168-.47.383-.922.64-1.35.125-.164.217-.351.27-.55v-.1c.18-.78.44-2.11.44-2 .09-.08-.05.06.19-.05a5.881 5.881 0 0 1 2.22.07 4.44 4.44 0 0 0 1.78 1.37 4.205 4.205 0 0 0 4.09-.55l1.47-1.25c.372-.328.77-.626 1.19-.89.112-.071.229-.135.35-.19-.237.399-.497.783-.78 1.15-.27.36-.53.73-.76 1.11-.47.79-.878 1.616-1.22 2.47a21.208 21.208 0 0 0-1 2.79 8.874 8.874 0 0 0-.25 3.79c.076.399.177.793.3 1.18.063.187.136.371.22.55l.39.78a5.18 5.18 0 0 0 1.2 1.38c.3.23.63.45.81.38.18-.07 0 0 .19-1 .059-.32.193-.621.39-.88l-.09.38c-.051.25-.082.504-.09.76a3.576 3.576 0 0 0 1 2.75 3.618 3.618 0 0 0 2 1 2.934 2.934 0 0 0 3-1.46 9.55 9.55 0 0 0 1.15-2.86c.157-1.143.181-2.301.07-3.45-.2-1.2.32-1.17.39-1.19a5.65 5.65 0 0 0 .24-1.89c-.05-1.73-.68-3.53-.59-5.29a13.878 13.878 0 0 0 3 1.71c.756.291 1.546.489 2.35.59a5.488 5.488 0 0 0 1.53.07 8.239 8.239 0 0 0 1.41-.27c1.38-.4 2.47-.82 3.57-1.2l.35-.12c.075.454.213.894.41 1.31.089.191.193.375.31.55l.15.23.09.12a7.472 7.472 0 0 0-2.16 2.29c-2 3.38-2 6.18-2.44 7.69a53.713 53.713 0 0 0-1.4 6.37 12.053 12.053 0 0 1-.44 2.05 2.912 2.912 0 0 0 1.385 3.54 2.904 2.904 0 0 0 3.705-.85c1.34-2.05 3.52-3.63 5.44-5.73a9.24 9.24 0 0 0 2.14-3.73c.297-1.045.461-2.124.49-3.21a2.534 2.534 0 0 0-.09-.84.478.478 0 0 1 0-.64 2.419 2.419 0 0 1 1.27-.52c.307-.053.618-.08.93-.08a3.315 3.315 0 0 0 1.48-.31 3.538 3.538 0 0 0 1.83-2.09c.044-.134.077-.271.1-.41 0 .25-.06.5-.1.76a12.46 12.46 0 0 0 .18 4.79 6.727 6.727 0 0 0 1.55 2.85 9.16 9.16 0 0 0 2 1.72c.602.377 1.23.712 1.88 1 .2.12.12 0 .34.28.23.288.434.596.61.92.09.23 0-.11.06.27 0 1.092.261 2.169.76 3.14a9.45 9.45 0 0 0 1.66 2.15 11.503 11.503 0 0 0 2 1.6c.698.412 1.439.747 2.21 1 .268.074.521.192.75.35a2.3 2.3 0 0 1 .54.59 18.308 18.308 0 0 1 1.45 2.6l.83 1.59a7.709 7.709 0 0 0-.77 1.9 9.193 9.193 0 0 0-.35 2.69c.031.7.102 1.398.21 2.09.082.425.122.857.12 1.29a3.293 3.293 0 0 1-1 .29 10.81 10.81 0 0 1-1.39.17l-.71.08c-.372.06-.737.157-1.09.29a5.157 5.157 0 0 0-1.8 1.2 4.73 4.73 0 0 0-1.26 4.1c-.09 4.67-.16 6.41-.16 6.62.003.481.029.962.08 1.44.49.86 1 1.72 1.56 2.54a22.941 22.941 0 0 0 9.06 7.84c7.58 3.85 16.16.46 19.22 5.76a18.726 18.726 0 0 1 2.12 4.06c-.962.246-1.9.581-2.8 1a14.234 14.234 0 0 0-3.93 1 8.737 8.737 0 0 0-4.24 4.16 17.695 17.695 0 0 0-1.38 5.75 20.611 20.611 0 0 0 .23 5.95 10.88 10.88 0 0 0 3 6 8.066 8.066 0 0 0 3.45 1.95c1.476.4 3.045.276 4.44-.35 2.61-1.16 3.95-3.35 4.86-4.28a10.74 10.74 0 0 1-.37 4.17l-.04-.02Z" fill="#174f78"/><path d="M557.81 184a2.924 2.924 0 0 0-.08-.71l.13-.05c0 .22-.02.48-.05.76Zm11.7 1.48s0 .01 0 0Zm2.2 61.19a7.417 7.417 0 0 1 1.9-.22c.56.05 1.93-.08 2.35-1a2.553 2.553 0 0 0-.722-3.32 2.565 2.565 0 0 0-1.138-.46 13.438 13.438 0 0 0-8.37 1.31c-2.64 1.59-4.56 3.76-6.54 3.57-.739.103-1.47.253-2.19.45a6.12 6.12 0 0 0-1.53.78c-.394.266-.768.56-1.12.88a12.493 12.493 0 0 0-1.73 2.21l-1.07 1.54c-.75 1.1-1.39 2.16-2.06 3-.25.35-.87 1-.7.89.17-.11 0 0-.33.23a6.756 6.756 0 0 0-1.62 1.07 5.154 5.154 0 0 0-1.17 1.57c-.12.231-.226.468-.32.71A5.293 5.293 0 0 0 545 261a6.588 6.588 0 0 0 .28 3.09c.057.22.134.434.23.64 0 .16.16-.37.31-.42.15-.05-.48.73-.95 1.3a7 7 0 0 0-1.48 2.59 5.996 5.996 0 0 0 .16 2.65c.09.599.113 1.206.07 1.81v2a33.982 33.982 0 0 1-1.15 7.92 13.299 13.299 0 0 0-.62 4.56c.087.801.251 1.591.49 2.36a3.55 3.55 0 0 0 2.76 2.68 4.164 4.164 0 0 0 3.83-1.45 4.328 4.328 0 0 0 .78-4.26 5.075 5.075 0 0 1 .46-2.36l1.44-3.6a12.76 12.76 0 0 0 .72-2.49c.14-.79.24-1.53.33-2.27.062-1.182.226-2.356.49-3.51.127-.446.291-.881.49-1.3.11-.21.27-.56.24-.45l.44-.61c.513-.67.977-1.375 1.39-2.11.427-.892.58-1.891.44-2.87v-.14c0-.05.22-.17.4-.29a13.572 13.572 0 0 0 4.16-3.71c.42-.611.737-1.287.94-2 .135-.509.232-1.027.29-1.55 0-.8.19-1.08-.27-.35.24-.42.12-.57 1.66-1.36a9.343 9.343 0 0 0 2.38-1.64 12.25 12.25 0 0 0 1.58-2c1.71-2.78 1.77-4.7 4.42-5.19Zm-41.92-35.96a5.988 5.988 0 0 0-.91 1.11 7.66 7.66 0 0 0-.54 1.07 7.355 7.355 0 0 0-.51 2 7.955 7.955 0 0 0-.05 1c0 .31 0 .52.07 1.21a18.146 18.146 0 0 0 1.1 3.12c.39.902.666 1.849.82 2.82.014.126.014.254 0 .38a2.55 2.55 0 0 0-1.46.87 3.542 3.542 0 0 0 .24 4.69 4.265 4.265 0 0 0 2.49 1.09 5.599 5.599 0 0 0 2.27 0 5.88 5.88 0 0 0 4.06-3.31 11.01 11.01 0 0 0 1-4.16c.09-1.27-.08-2.61-.08-3.32-.006-.561.024-1.123.09-1.68 0 0-.44.4.5-.81a8 8 0 0 0 .67-1l.31-.61c.06-.129.11-.263.15-.4a6.152 6.152 0 0 0 .5-2.68l-.08.37a4.39 4.39 0 0 0-.33-2.52l.07 1.13a6.8 6.8 0 0 0-.21-1.36 3.635 3.635 0 0 0-.57-1.18 2.485 2.485 0 0 0-1.28-2.31 4.334 4.334 0 0 0-5.445.893 4.333 4.333 0 0 0-.925 1.747 7.478 7.478 0 0 1-.57 1.51c-.22.29-.38 0-.32-.34a2.705 2.705 0 0 0-1.06.67Z" fill="#174f78"/><path d="M530.68 223.21h-.14a1.687 1.687 0 0 0-.21.05 1.66 1.66 0 0 1 .35-.05ZM525.4 211c.203-.17.396-.35.58-.54a8.138 8.138 0 0 0 1.45-2.08 3.383 3.383 0 0 0 .36-2.2.806.806 0 0 1 .21-.44c-.06-.14.81-.35 1.15-.69a3.37 3.37 0 0 0 1.38-2.5 3.29 3.29 0 0 0-.7-2.23 2.123 2.123 0 0 0-.904-.627 2.119 2.119 0 0 0-1.096-.093c-1.15.15-2.32.19-3.67.41a11.443 11.443 0 0 0-4 1.61 6.053 6.053 0 0 1-2.22 1.06A5.916 5.916 0 0 0 516 204a5.576 5.576 0 0 0-1.44 2.46 6.6 6.6 0 0 0-.18.88.994.994 0 0 1 .09.31 1.932 1.932 0 0 1-.37 1.06 6.004 6.004 0 0 1-2.38 2c-.54.28-.94.4-1.68.73a3.26 3.26 0 0 0-1.082.839 3.254 3.254 0 0 0-.638 1.211 3.791 3.791 0 0 0 .25 2.78 3.374 3.374 0 0 0 3.09 1.73c.28 0 .62-.06.85-.09h1.29a14.59 14.59 0 0 0 1.83-.19 14.19 14.19 0 0 0 3.83-1.24 9.315 9.315 0 0 0 4-3.44c.217-.391.411-.795.58-1.21l.43-.21c.332-.172.644-.38.93-.62Z" fill="#174f78"/><path d="M523.42 212.14c-.09.04-.1.05 0 0ZM511.23 201a22.128 22.128 0 0 0 3.09-1.94c.81-.66 1.67-1.43 1.79-1.9a.378.378 0 0 1-.11-.16.61.61 0 0 1-.3-.35c-.1-.09-.2-.35-.11-.39.202.2.42.383.65.55a3.173 3.173 0 0 0 3.06.29 2.746 2.746 0 0 0 1.731-2.771 2.755 2.755 0 0 0-.331-1.109 9.308 9.308 0 0 0-2.68-2.92 8.88 8.88 0 0 0-4.35-1.42 7.788 7.788 0 0 0-4.49 1.1c-1.12.69-1.83 1.2-1.8 1.38.03.18.34.35-.05.41a3.187 3.187 0 0 1-1.38-.16c-1.19-.38-2.44-.79-3.66-1.25a15.01 15.01 0 0 0-4-1 3.136 3.136 0 0 0-2.75 1.48 4.011 4.011 0 0 0-.564 1.723 4.01 4.01 0 0 0 1.276 3.294c.451.414.991.72 1.578.893.88.19.66.25.85.34.19.09.22.18.34.31l2.07 1.83a11.297 11.297 0 0 0 4.13 2.45c1.14.383 2.36.463 3.54.23.858-.2 1.687-.506 2.47-.91Zm40.77 7a2.736 2.736 0 0 1 2.1 1.09 3.09 3.09 0 0 1 .3 2.16 4.588 4.588 0 0 0 .84 2.93 5.996 5.996 0 0 0 2.39 2.09c.918.403 1.887.679 2.88.82l.7.14.34.08.56.16c.777.2 1.6.114 2.32-.24a3.616 3.616 0 0 0 1.857-4.036 3.62 3.62 0 0 0-.687-1.424 5.887 5.887 0 0 1-.58-.7l-.38-.54a14.63 14.63 0 0 1-1.16-2.07c-.33-.66-.32-.87-.63-1.62a10.219 10.219 0 0 0-1.57-2.9 8.505 8.505 0 0 0-3.14-2.44 9.435 9.435 0 0 0-3.43-.78 5.972 5.972 0 0 0-1.59.2 5.005 5.005 0 0 0-.76.22 5.85 5.85 0 0 0-1.49.46A3.403 3.403 0 0 0 549 204a3.466 3.466 0 0 0 .37 2.18A3.382 3.382 0 0 0 552 208Zm-62.2 19.27a10.058 10.058 0 0 0-1.95 1.9c-2.15 2.79-2.51 5.85-4.48 7.72a9.33 9.33 0 0 1-.78.68 3.413 3.413 0 0 0-1 1.37 3.44 3.44 0 0 0 .53 3.25 3.08 3.08 0 0 0 3.65.92c1-.47 1.54-.7 2.32-1.13a21.767 21.767 0 0 0 4-2.77c.304-.251.594-.518.87-.8.24-.22.4-.35.62-.53.43-.31.88-.65 1.42-1a32.142 32.142 0 0 0 3.85-2.61 12.447 12.447 0 0 0 3.46-4.56c.7-1.56 1.08-2.79 1.48-3.81a27.382 27.382 0 0 0 1.47-4.61 7.871 7.871 0 0 0-.12-3 4.468 4.468 0 0 0-1.61-2.79 3.137 3.137 0 0 0-2.88-.25 2.087 2.087 0 0 0-1.28 2.23c0 2.81-3.39 4.18-5.46 6.63a18.49 18.49 0 0 1-2.65 2.15l-1.46 1.01Zm-6.06-2.91a31.233 31.233 0 0 1 4-2.57 33.424 33.424 0 0 0 5-3.46c2.19-2.53-1-5.47-2.93-4.12a10.16 10.16 0 0 1-5.16 1.11 28.673 28.673 0 0 0-6 .24 6.753 6.753 0 0 0-3.55 2 14.977 14.977 0 0 0-1.83 2.72c-.265.479-.58.928-.94 1.34l-1.69 1.8a11.061 11.061 0 0 0-2 3 7.228 7.228 0 0 0-.52 3.81c.29 2.05.86 3.74.44 5a1.627 1.627 0 0 1-1.24 1.1 4.805 4.805 0 0 1-1.09.1 5.181 5.181 0 0 0-1.81.22 3.38 3.38 0 0 0-1.8 4 3.45 3.45 0 0 0 1.55 2.09c.68.354 1.425.565 2.19.62a8.895 8.895 0 0 0 6.89-2.12 11.8 11.8 0 0 0 2.34-2.63 10.77 10.77 0 0 0 1.49-3.54c.45-2.22.74-4 1-3.92a13.832 13.832 0 0 0 3.77-3.67c1.6-2.86.83-2.12 1.89-3.12Zm10.18 51.06c.514-.534.97-1.12 1.36-1.75.34-.55.65-1.11.94-1.68a20.197 20.197 0 0 0 1.31-3.47c.56-2.184.895-4.418 1-6.67.114-2.2.031-4.405-.25-6.59a13.582 13.582 0 0 0-2.89-6.57 3.626 3.626 0 0 0-1.58-1.34 2.506 2.506 0 0 0-2 .2 2.349 2.349 0 0 0-1.205 1.414 2.337 2.337 0 0 0 .205 1.846 8.137 8.137 0 0 1 .29 5.82 26.308 26.308 0 0 1-2.37 5.6l-2.73 5.11a23.713 23.713 0 0 1-2.85 4.42 11.07 11.07 0 0 0-1.8 3.79 6.162 6.162 0 0 0 0 2.53c.147.862.489 1.68 1 2.39 1.42 1.52 1.89 1.3 2.37 2 .52.708.882 1.52 1.06 2.38.33 1.79-.09 4 .27 6.32a2.899 2.899 0 0 0 1.55 2.19 3.443 3.443 0 0 0 2.68.18 3.6 3.6 0 0 0 2.14-1.84c.225-.472.348-.987.36-1.51v-.97a6.73 6.73 0 0 1 .66-2.24 10.39 10.39 0 0 0 1-3.65 6.93 6.93 0 0 0-1.55-5.07 12.68 12.68 0 0 0-.9-.94c.22-.27 1.01-.93 1.93-1.9Z" fill="#174f78"/><path d="M491.67 277c-.12-.19.1 0 .14.09.06-.22.06 0 .07.12l-.21-.21Zm-28.23-10.66a2.878 2.878 0 0 0-2.08.34c-.557.377-.942.96-1.07 1.62a2.398 2.398 0 0 0 1.61 2.87c1.72.59 2.69 2.53 3 4.32a7.15 7.15 0 0 1-1 4.95 28.348 28.348 0 0 1-2.76 4c-.169.231-.36.445-.57.64l-1 .94a8.62 8.62 0 0 0-2.18 3.52c-1.36 4.13-1.36 8.42-1.52 12.51v3.13c.008.609.095 1.214.26 1.8a2.733 2.733 0 0 0 2 1.68 3.592 3.592 0 0 0 4-2.23c.148-.424.219-.871.21-1.32a4.96 4.96 0 0 1 .05-.72c.05-.399.13-.793.24-1.18a25.322 25.322 0 0 1 2.3-4.75c.48-.81.94-1.82 1.36-2.7.312-.688.694-1.341 1.14-1.95.85-1 2.35-2.62 3.66-4.09a11.975 11.975 0 0 0 2.2-3.38c.516-1.245.83-2.565.93-3.91.44-4.6-.63-9.77-4.42-13.18a12 12 0 0 0-6.36-2.91Zm41.08 19.78a2.995 2.995 0 0 0-3.16-.82 2.93 2.93 0 0 0-1.68 3.95A6.63 6.63 0 0 1 499 296a26.122 26.122 0 0 0-1.68 2.69 8.386 8.386 0 0 0-.68 2.27c-.09.711-.09 1.43 0 2.14.15 1.23.43 2.06.44 3 .01.94-.65 2.19-1 3.68a3.008 3.008 0 0 0-.029 1.539c.125.507.38.973.739 1.351a3.543 3.543 0 0 0 2.65 1 3.38 3.38 0 0 0 2.66-1.62l.21-.35.08-.09c.06-.06.15-.11.21-.16l.54-.32a7.002 7.002 0 0 0 3.5-3.36 14.474 14.474 0 0 0 1-4.53c.06-.98.244-1.947.55-2.88.393-1.347.615-2.738.66-4.14a14.756 14.756 0 0 0-.52-4.45 10.758 10.758 0 0 0-2.2-3.92c-.52-.67-.9-.96-1.61-1.73Zm77.28-12.37a6.832 6.832 0 0 0-.22-.77 3.731 3.731 0 0 0-.94-1.4 3.143 3.143 0 0 0-2.62-.71 2.933 2.933 0 0 0-2.53 2.76c0 2-1.24 4-2.44 5.88a9.81 9.81 0 0 0-1.69 5.44c.08.87 0 1.77.34 1.95 0 .06.21-.06.32 0a.837.837 0 0 1 .17.06s-.19.08-.27.12a3.506 3.506 0 0 0-1.22.75 3.76 3.76 0 0 0-1.16 2.24 3.574 3.574 0 0 0 .42 2.34 2.845 2.845 0 0 0 2.26 1.32 9.27 9.27 0 0 0 4-.51 7.633 7.633 0 0 0 3.43-2.87 13.523 13.523 0 0 0 1.55-3.49 28.173 28.173 0 0 0 1.54-6.09 12.38 12.38 0 0 0-.8-6.59l-.14-.43Zm-40.97-30.12a3.536 3.536 0 0 0 2-.4c2.39-.8 4.37-1.59 6.75-2.38a4.604 4.604 0 0 0 3.18-3.58v-.4l-.4-1.19c-.39-.39-.39-1.19-.79-1.59l-1.19-1.19c-.4-.39-.8-.79-.8-1.19a2.996 2.996 0 0 0-2.78-1.59 6.84 6.84 0 0 0-4.76.8 5.001 5.001 0 0 0-2.78 3.57c0 .4-.4.8-.4 1.59s-.4.4-.4.4a5.286 5.286 0 0 0-2.38 2l-.4.4v.4a4.883 4.883 0 0 0 3.18 3.57c0 .8.8.8 2 .8l-.03-.02ZM163.2 262.8c-7.24-.3-14.66-1.82-22.17-.29-1.36.27-3 .6-3.2-1.15a3.763 3.763 0 0 1 1.57-3.18c2.24-.95 4.76-1.89 7.12-1.77 6.29.32 12.54 1.2 18.19 1.8 1.55 1.87 2.71 3.3 3.9 4.71a12 12 0 0 1 2.71 9.47c-.48 4.48 0 5.15 4 7.16 2.91 1.49 5.94 1.56 9.05 1.29.88-.07 1.74-.35 2.62-.41 3.82-.28 5.64 1.44 5.31 6.08a1.484 1.484 0 0 1-.14.42c-2.75 6.42-1.47 7.23 4.91 10.91 2.85 1.65 5.76 2.71 9.25 2 2.95-.58 4.06.56 4.12 3.6a15.335 15.335 0 0 1-.5 4.37c-3.49 12.35-4.53 25.19-7.41 37.66-.89 3.86-.14 7.6 1.28 11.26 2.21 5.74 3.63 11.82 7.19 17a7.817 7.817 0 0 1 1.13 3.32c.48 3.58 1.32 6.87 4.14 9.49.78.72.84 2.42.89 3.69.17 4.83.18 9.68.31 14.51a17.861 17.861 0 0 0 3.68 10.26c1.45 2 1.41 3.89 1.09 6.23-.81 5.86-4.18 10.3-7.65 14.63-2.23 2.76-2.83 5.57-1.41 8.59 3.84 8.16 2.22 16.27.85 24.66-1 6.08-2.3 12.57.81 18.62a15.398 15.398 0 0 0 2.52 3.94c3.85 3.82 7.36 8 12.18 10.8 1.16.67 1.83 2.26 2.6 3.5 1.61 2.62 2.84 5.55 4.78 7.89 3.07 3.69 7.5 5.11 12.15 5.42 4.65.31 9.41.22 14.11.36 2.21.06 4.41.24 6.62.37 6.31.36 12.61.84 18.93 1 4.35.12 6.14-2.19 5.33-6.42a7.724 7.724 0 0 0-3.8-5.69 108.337 108.337 0 0 0-10.54-5.58c-4.14-1.73-6.47-4.75-8.29-8.64a60.205 60.205 0 0 0-5.7-9.85 14.277 14.277 0 0 1 0-17.14 85.588 85.588 0 0 0 6.87-11.27c.669-1.636.914-3.414.71-5.17a14.782 14.782 0 0 1 3.84-10.5c3.4-4.07 6.69-8.23 10-12.36a10.61 10.61 0 0 0 2.21-6.08 97.727 97.727 0 0 1 2.16-14.78c.5-2 2.62-3.75 4.27-5.33a15.568 15.568 0 0 0 2.71-3.2 28.999 28.999 0 0 1 5.79-6.39c.64-.56 2.37-.39 3.34.05a38.999 38.999 0 0 1 6.92 3.79 21.937 21.937 0 0 0 10 4.34c4.78.62 8.67 2.68 10.88 7.26a8.475 8.475 0 0 0 4.86 4.22c3.14 1.23 6.09 2.94 9.17 4.33 5.3 2.37 10.58 3.94 16.64 2.5 7.42-1.76 15-2.73 23.07-4.13.125-1.26.125-2.53 0-3.79-1.54-7.51-.81-15 .28-22.42.36-2.47.49-5 .7-7.47.12-1.43.51-2.72 2.2-2.8a2.48 2.48 0 0 1 2.77 2.76 66.57 66.57 0 0 1-1 10.09c-1.26 6.27 0 12.33 1.2 18.37a8.1 8.1 0 0 0 2.79 4.25c3.88 3.15 6.81 6.74 8.25 11.69.71 2.44 2.56 4.56 3.95 6.79 1.24 2 2.65 3.86 3.79 5.9 1.72 3.06 3 6.43 5 9.29a28.7 28.7 0 0 1 5.33 15.66c.14 4.45 1.56 7.64 5.82 9.42 2.82 1.18 3.86 3.84 4.85 6.52a76.14 76.14 0 0 1 4.58 17.88 27.152 27.152 0 0 0 1.05 4.29 10.75 10.75 0 0 0 8.09 7.91 84.96 84.96 0 0 0 23.09 3.45c3.359.114 6.721-.06 10.05-.52 3.54-.65 3.64-1.19 3.83-4.83a25.87 25.87 0 0 0-4-15.57c-1.46-2.32-2.12-5.12-3.32-7.61-1.4-2.89-2.67-5.94-4.59-8.45-2.05-2.66-3.61-5.3-3.85-8.69-.3-4.23-2.77-8.12-1.87-12.56.47-2.3.45-4.71 1-7 .84-3.45-.18-6.3-1.89-9.22a43.588 43.588 0 0 1-3.14-7.16c-.86-2.34-1.45-4.78-2.16-7.17-1.23-4.11-2.2-8.23-1.9-12.59.37-5.29.36-10.6.8-15.87a17.438 17.438 0 0 1 1.82-6.26c.41-.83 2.12-1 3.24-1.5.27 1 .93 2.15.74 3.09a31.224 31.224 0 0 0 .06 10.52c.396 4.107.526 8.236.39 12.36a21.224 21.224 0 0 0 3.33 11.88c1.55-2.89 2.79-5.32 4.14-7.68a26.732 26.732 0 0 1 3.32-5.16 39.37 39.37 0 0 0 7.06-11.1c1.45-3.19 3.5-6.1 5.25-9.16 1.09-1.91 2.13-3.85 3.17-5.79 1.93-3.62 3.47-7.51 5.83-10.82 4.94-6.92 7.88-14.31 7.94-22.94a55.007 55.007 0 0 1 4-19.38c1.1-2.88 1.72-5.93 2.59-8.9a14.723 14.723 0 0 1 1.21-3.27 2.166 2.166 0 0 1 1.77-.92 2.06 2.06 0 0 1 1.36 1.43 26.913 26.913 0 0 1 0 6.15c-1.2 7.26-2.62 14.48-3.89 21.74a39.956 39.956 0 0 0-.91 7.43c.16 7.82-3.51 14.09-7.51 20.38-2.67 4.2-4.77 8.76-7.19 13.13-4.05 7.34-7.56 15.06-12.41 21.82-3.53 4.95-7 9.71-9.27 15.4a7.522 7.522 0 0 1-2.83 3.25c-2 1.28-2.17 2.83-1 4.48 4 5.75 3.84 12 3.12 18.63a30.286 30.286 0 0 0 5.71 22 34.597 34.597 0 0 1 3.36 6.69c1.84 4.17 3.5 8.42 5.4 12.56 2.85 6.2 2.3 12.66 1.65 19.12a4.002 4.002 0 0 1-3.56 3.47c-5.16 1-10.19 3.16-15.63 1.78a8.695 8.695 0 0 0-2.65-.11c-8.84.67-17.17-2.15-25.66-3.8a11.128 11.128 0 0 1-8.66-6.9 57.674 57.674 0 0 1-3.6-13.53c-.62-5.25-2.88-9.84-4.56-14.66-.43-1.25-2.22-2.21-3.58-2.93-3.83-2.05-6.33-4.82-5.81-9.45.68-5.91-1.49-11-4.46-15.84-1.75-2.88-3.31-5.88-4.93-8.84-.85-1.55-1.4-3.32-2.49-4.66a42.842 42.842 0 0 1-7.33-13c-1-3-3.16-4.2-6.54-3.89-5.41.51-10.77.84-16.1 2.27a49.622 49.622 0 0 1-14.39 2c-4.61-.16-9.22-1.64-13.71-2.95-2.65-.76-5.07-2.33-7.62-3.48a10.489 10.489 0 0 0-3.3-1.12 26.43 26.43 0 0 1-12.36-4.44 46.617 46.617 0 0 0-22.44-7.18c-3.47-.22-5.27.52-6.11 4.67a67.304 67.304 0 0 0-1.26 11.42 15.849 15.849 0 0 1-3.56 9.73c-2.83 3.58-5.42 7.35-8.31 10.89a13.167 13.167 0 0 0-2.92 9.88 11.1 11.1 0 0 1-2.31 7.78c-2.62 3.72-4.93 7.66-7.17 11.62a6.526 6.526 0 0 0 .52 7.15 81.692 81.692 0 0 1 8.31 14c.91 2 3.43 3.52 5.52 4.76 3.92 2.3 8.24 3.89 11.29 7.56a16.156 16.156 0 0 1 3.77 10.6c0 6.8-5.23 11.26-12.09 10.66a2929.467 2929.467 0 0 0-32.08-2.55 45.654 45.654 0 0 0-5.73.1 29.996 29.996 0 0 1-16.46-4.22c-3.46-2-5.5-5.36-7-8.85a19.24 19.24 0 0 0-6.45-7.62c-3.84-2.93-7.43-6.19-11.07-9.38a4.908 4.908 0 0 1-1.39-2.21c-.9-3.26-2.28-6.55-2.33-9.85.061-5.122.503-10.233 1.32-15.29.94-6.84 2.74-13.65-1-20.23-3.58-6.22-1-13.78 4.77-19 1.81-1.61 3.38-3.17 3.92-5.65.44-2 .56-3.82-.61-5.52-4.21-6.09-4.39-13-4-20 .155-1.612.205-3.232.15-4.85-.09-1.12-.27-2.57-1-3.25-2.37-2.21-2.71-5.07-3.36-8a20.395 20.395 0 0 0-2.49-6.51c-4.46-7-6.52-14.83-8.5-22.66-.68-2.68-.14-5.87.53-8.65 1.5-6.15 3.51-12.16 3.17-18.64-.08-1.52.8-3.09 1.2-4.64a75.88 75.88 0 0 0 2.27-9.39c.43-3.41-.24-3.92-3.4-5.24-3-1.25-5.93-2.56-8.81-4-5-2.54-6.43-5.43-5.64-11.11.108-.725.161-1.457.16-2.19 0-.26-.23-.52-.59-1.27-1 0-2.3-.09-3.55 0-5.53.46-10-2-14.11-5.24a4.726 4.726 0 0 1-1.57-5.58c1.64-4.73.59-9.18-1.77-13.87Zm176.22-19.25-.36.93c-2.29.46-4.2 1.13-6.11 1.15-3.35 0-6.71-.25-10.06-.5-2.93-.23-5.84-.71-8.77-.84a7.704 7.704 0 0 0-4.31.72c-4.4 2.92-9.46 3-14.35 3.87a78.133 78.133 0 0 0-19 5.46c-4.83 2.16-9.86 3.86-14.76 5.86a53.944 53.944 0 0 0-5.92 2.9 24.763 24.763 0 0 1-21.23 1.8 36.236 36.236 0 0 0-6.42-1.56c-2.54-.38-5-.31-6.36 2.59-.35.73-1.81 1.62-2.36 1.4a4.075 4.075 0 0 1-2.1-2.39c-1.15-3.63-1.83-7.42-3.13-11a20.701 20.701 0 0 0-3.63-5.89 76.406 76.406 0 0 0-5.61-5.63 18.951 18.951 0 0 1-5.79-14.29c.08-5.33 0-10.63-3.32-15.24-1.06-8.8-2.27-17.58 3.35-25.55 3.61-5.13 7.2-10.29 10.44-15.66a139.423 139.423 0 0 0 6.57-13 10.68 10.68 0 0 0-3.58-13c-4-2.78-9.5-2.11-13.24 1.63-1.45 1.45-2.79 3-4.35 4.35-5 4.19-9.85 4.57-15.49 1.35-2.13-1.22-4.25-2.46-6.38-3.7-2.19 2.17-2.4 4.49-2.26 6.86.1 1.61.44 3.21.57 4.83.47 5.78-3.26 8.81-8.92 7.24-1.84-.51-3.62-1.26-5.48-1.69a15.875 15.875 0 0 0-3.39 0c-.43 2.9 1.5 3.72 2.93 4.86 1.24 1 3.05 1.79 1.92 3.82-1 1.79-2.56 2.14-4.55 1.54-2.82-.86-5.12-2.27-6.38-5a53.2 53.2 0 0 1-2.37-5.68c-1.39-4.34 1-7.33 5.52-7 3.22.26 6.42.82 9.63 1.21.86.1 1.73.09 2.5.12.29-.38.65-.66.6-.83-1.07-4.41.87-8.36 1.86-12.45.94-3.85 2.8-5.29 6.64-4.83 3.5.42 6.91 1.16 9.89 3.4 4.66 3.5 6.74 3.09 11-1.22a27.914 27.914 0 0 1 6.36-5.31 16.674 16.674 0 0 1 21.37 6c3.91 6.18 4.68 12 .45 18.49-2.73 4.15-4.6 8.85-6.88 13.3a8.884 8.884 0 0 1-1.59 2.63c-3.53 3.09-5.24 7.31-7.51 11.24a23.315 23.315 0 0 0-2.82 15.23 64.673 64.673 0 0 0 3.26 12.75c1.08 3.22.83 7 .78 10.48a14.006 14.006 0 0 0 5.13 11.23 30.644 30.644 0 0 1 8.8 12 5.632 5.632 0 0 0 5.29 3.89 44 44 0 0 1 9.92 2 33.112 33.112 0 0 0 13.1 1.26 7.565 7.565 0 0 0 3.76-1.07c6.51-4.81 14.35-6.75 21.48-10.22 7.75-3.78 16.13-5.47 24.54-7a17.228 17.228 0 0 0 5.12-1.25c6.1-3.3 12.49-2.79 19-1.93a7.431 7.431 0 0 0 3 .06c6.48-1.92 13.15-1.33 19.75-1.73 1.76-.005 3.51-.274 5.19-.8 5.61-2.16 11.48-2.3 17.33-2.44a8.86 8.86 0 0 1 4.57 1.36 10.261 10.261 0 0 0 7.57 1.36 153.387 153.387 0 0 1 27.63-2.81 130.99 130.99 0 0 1 32.8 3.8 7.272 7.272 0 0 1 4.83 3.51c1.1 1.9.41 3.62-1.71 4-1.46.187-2.94.153-4.39-.1-7.57-1.15-15.1-2.56-22.69-3.49a50.57 50.57 0 0 0-10.06.29c-3.35.26-6.74 1.4-10 1.07-5.09-.51-10 .39-14.93.87-8.2.79-16.38 1.35-24.57-.42-2.07-.44-4.37.22-6.57.33-3.55.16-7.03.31-10.75.48Zm-173.04 3.25c.29 3-1.62 4-3.74 3.92-3-.08-6.43 0-9-1.33-5.71-2.92-11-6.65-16.44-10.07-.49-.31-1.1-.69-1.27-1.18-.3-.88-.74-2.28-.34-2.69a3.907 3.907 0 0 1 3-.95c1.07.18 2 1.09 3 1.72 3.81 2.45 7.64 4.9 11.43 7.4a16.63 16.63 0 0 0 10.82 2.84c.857.018 1.709.132 2.54.34Zm-13.31-52.03c-3-1.28-6.11-2.08-8.62-3.72a23.783 23.783 0 0 1-8.76-11.3 7.343 7.343 0 0 1-.68-3.82 4.421 4.421 0 0 1 2-3c1.5-.57 2.17.92 2.66 2.23.56 1.51 1.3 3 1.89 4.45 1.76 4.55 5.21 7.32 9.54 9.18 1.121.317 2.197.778 3.2 1.37.77.61 1.67 1.9 1.49 2.64-.18.74-1.64 1.2-2.72 1.97Zm2.55 6.44c-1.43-.13-2.87-.18-4.29-.41a28.001 28.001 0 0 0-16.75 2.44 10.99 10.99 0 0 1-4.14 1.27c-.91 0-1.86-.95-2.8-1.47.5-.82.79-2 1.52-2.43 6.11-3.89 12.64-6.32 20-4.88a22.901 22.901 0 0 1 5.74 2c.76.39 1.09 1.64 1.61 2.51l-.89.97Zm-3.53 26.69c-5.12-.46-8.83-2.81-12.24-5.74-1.67-1.43-3.19-3-4.73-4.63-1.19-1.23-1.44-2.71-.23-3.95 1.21-1.24 2.76-.62 4 .36a34.489 34.489 0 0 1 2.41 2.56c2.91 3 6.11 5.56 10.5 6 .293.029.582.093.86.19 1.43.51 3.13 1.22 2.55 2.95-.38 1-2.05 1.53-3.12 2.26Z" fill="#174f78"/><path d="M291 278.48c-2.41.41-4.86.46-7.49.82a11.691 11.691 0 0 0-4.08 1.34 7.38 7.38 0 0 0-3.24 4 15.284 15.284 0 0 0-.68 4.35 9.882 9.882 0 0 1-3 7l.32-.18-2.64 1.82c-.522.484-1.177.8-1.88.91-1.1.16-2.41-1.24-3.13-2.88a2.666 2.666 0 0 0-.3-2.56 3.352 3.352 0 0 0-2.7-1.37 3.245 3.245 0 0 0-2.71 1.49 14.043 14.043 0 0 0-1.3 1.84 7.519 7.519 0 0 0-1.12 5.14 7.437 7.437 0 0 0 3.34 4.75 15.362 15.362 0 0 0 9.54 2.16c1.659-.1 3.296-.436 4.86-1a20.743 20.743 0 0 0 4.35-2.22 15.909 15.909 0 0 0 6.17-8.13 14.37 14.37 0 0 0 .48-5 13.239 13.239 0 0 1 0-2.58c0-1.33 1.89-3 4.35-4l1.86-.72a2.477 2.477 0 0 0-1-4.85v-.13Zm-40 1.89c.309.357.643.691 1 1a6.58 6.58 0 0 0 2.75 1.4 7.871 7.871 0 0 0 6.16-1.25 18.533 18.533 0 0 0 3.61-3.32l2.22-2.29c.27-.29.48-.41.4-.46-.08-.05-.5-.06-.63-.25a.097.097 0 0 1-.012-.1.096.096 0 0 1 .033-.041.095.095 0 0 1 .049-.019c-.16-.24-.16-.44 0-.42.413.203.759.518 1 .91a13.86 13.86 0 0 1 1.13 1.67 3.326 3.326 0 0 0 2.56 2.09 2.827 2.827 0 0 0 2.985-2.013 2.83 2.83 0 0 0 .075-1.287c-.3-1.3-.45-2.63-.64-4.08a10.475 10.475 0 0 0-1.58-4.63 6.871 6.871 0 0 0-5.1-2.85 7.37 7.37 0 0 0-5.48 2 7.863 7.863 0 0 0-.85.9c-.22.29-.49.57-.83 1.08-.41.72-.66 1.31-.95 1.94a14.683 14.683 0 0 1-2 3.37 4.797 4.797 0 0 1-1.29 1.14h-.08l-.09-.08a3.351 3.351 0 0 0-3.92.07 3.41 3.41 0 0 0-1.54 3.56 4.003 4.003 0 0 0 1.02 1.96Zm-73.22-118.6c-.299.351-.57.726-.81 1.12a6.583 6.583 0 0 0-.94 2.94 7.87 7.87 0 0 0 2.21 5.89 18.442 18.442 0 0 0 3.85 3l2.61 1.83c.33.22.48.41.51.33.03-.08 0-.51.15-.67a.099.099 0 0 1 .09-.056.099.099 0 0 1 .09.056c.21-.2.4-.23.4-.11a2.445 2.445 0 0 1-.73 1.13c-.459.492-.95.953-1.47 1.38a3.323 3.323 0 0 0-1.67 2.86 2.846 2.846 0 0 0 2.466 2.628 2.84 2.84 0 0 0 1.284-.128c1.24-.5 2.52-.87 3.92-1.28a10.497 10.497 0 0 0 4.33-2.29 6.943 6.943 0 0 0 2-5.49 7.41 7.41 0 0 0-2.84-5.1 8.791 8.791 0 0 0-1-.69c-.32-.17-.65-.4-1.2-.65-.77-.29-1.4-.45-2.07-.64a14.478 14.478 0 0 1-3.64-1.43 4.788 4.788 0 0 1-1.33-1.09v-.07l.06-.1c.118-.245.205-.504.26-.77a3.726 3.726 0 0 0-.95-3.09 3.412 3.412 0 0 0-3.76-1 4.002 4.002 0 0 0-1.82 1.49Zm54.48 138.8a2.836 2.836 0 0 0 2.252.844 2.839 2.839 0 0 0 2.088-1.194c1.26-2.17 3.15-4.49 3.41-8a8.223 8.223 0 0 0-5.07-8c-3.05-1.32-6.16-.71-8.73-.68a36.183 36.183 0 0 1-3.91-.11 18.306 18.306 0 0 1-1.94-.22 3.712 3.712 0 0 0-3.22 1.51 4.287 4.287 0 0 0-.65 3.82 4.09 4.09 0 0 0 1.44 2.05c.701.496 1.524.79 2.38.85l3.8.37c1.78.15 3.513.65 5.1 1.47.454.24.883.524 1.28.85a2.64 2.64 0 0 1 1.06 1.55c.151.52.171 1.07.06 1.6a3.061 3.061 0 0 0 .65 3.29ZM379.66 269a2.83 2.83 0 0 0 2.253.849A2.821 2.821 0 0 0 384 268.65c1.26-2.17 3.16-4.49 3.42-7.94a8.235 8.235 0 0 0-5.07-8c-3.05-1.32-6.16-.71-8.74-.67-1.32 0-2.61 0-3.91-.11-.64-.05-1.29-.12-1.93-.22a3.699 3.699 0 0 0-3.23 1.5 4.316 4.316 0 0 0-.65 3.82c.251.821.759 1.54 1.45 2.05a4.709 4.709 0 0 0 2.37.86l3.8.36c1.782.157 3.517.656 5.11 1.47.454.239.88.527 1.27.86.558.361.956.923 1.11 1.57.141.522.159 1.07.05 1.6a3.074 3.074 0 0 0 .61 3.2Zm-163.27 70.07a3.81 3.81 0 0 0 2 1.89 4.437 4.437 0 0 0 3 .1 4.166 4.166 0 0 0 2.67-2.45 4.709 4.709 0 0 0-.5-4.16c.1 0 .24.11.32.27.15.35.19.43.33.42.14-.01.2 0 .64-.17.82-.3 2.52-.43 4.63-1.19a4.438 4.438 0 0 0 2.66-1.18 3.641 3.641 0 0 0 1-2.23 3.194 3.194 0 0 0-.5-2 2.34 2.34 0 0 0-1.6-.91c-2-.19-3.68-1.59-6-2.49a6.578 6.578 0 0 0-7.26 1.68c-1.93 2.13-2.14 4.94-2.24 7.17-.07 1.167.024 2.339.28 3.48.14.605.33 1.197.57 1.77Zm78.97-71.73a3.822 3.822 0 0 0 2 1.89 4.408 4.408 0 0 0 3 .1 4.13 4.13 0 0 0 2.66-2.45 4.696 4.696 0 0 0-.49-4.16c.09 0 .23.11.32.27.15.35.18.43.33.43.15 0 .2 0 .63-.17.83-.31 2.53-.43 4.64-1.2a4.397 4.397 0 0 0 2.66-1.17 3.641 3.641 0 0 0 1-2.23 3.276 3.276 0 0 0-.51-2 2.288 2.288 0 0 0-1.59-.9c-2-.2-3.68-1.6-6-2.5a6.602 6.602 0 0 0-7.26 1.68c-1.93 2.13-2.13 5-2.23 7.17-.07 1.167.024 2.339.28 3.48.137.601.324 1.19.56 1.76Zm-9.87 47.32a3.999 3.999 0 0 0-2.23-2.36 2.995 2.995 0 0 0-2.58.38 3.315 3.315 0 0 0-1.54 3.23A1.918 1.918 0 0 1 278 318a4.182 4.182 0 0 1-2.52.13 8.45 8.45 0 0 0-4.52-.32l-1.4.32-.75.2-.4.1a6.157 6.157 0 0 0-.75.13 3.274 3.274 0 0 0-2.36 2.06 3.923 3.923 0 0 0 1.31 4.23 5.177 5.177 0 0 0 1.88.74c1 .25 1.92.67 2.95 1a10.997 10.997 0 0 0 7 .61 10.61 10.61 0 0 0 6.69-4.48 9.228 9.228 0 0 0 1.39-4.1 7.057 7.057 0 0 0-1.03-3.96ZM259.6 460.67a4.002 4.002 0 0 0-2.24-2.36 3.005 3.005 0 0 0-2.58.37 3.335 3.335 0 0 0-1.54 3.24 1.91 1.91 0 0 1-1.18 2.06 3.999 3.999 0 0 1-2.52.13 8.532 8.532 0 0 0-4.51-.31l-1.41.31-.75.2-.39.1c-.26 0-.52.08-.76.13a3.276 3.276 0 0 0-2.36 2.07 3.906 3.906 0 0 0 1.31 4.22c.571.37 1.21.622 1.88.74 1 .25 1.92.67 2.95 1a10.999 10.999 0 0 0 7 .62 10.58 10.58 0 0 0 6.69-4.49 9.187 9.187 0 0 0 1.39-4.1 6.997 6.997 0 0 0-.98-3.93Zm-41.42-99.5a8.772 8.772 0 0 0 0 6.51c.203.502.441.99.71 1.46.36.585.881 1.053 1.5 1.35a3.528 3.528 0 0 0 1.73.28h1.23l1.23.09a3.332 3.332 0 0 0 2-.52 3.5 3.5 0 0 0 1.2-3.84.933.933 0 0 1-.05-.1h.3c1.06.05 2.29.18 3.62.21.716.04 1.434.04 2.15 0 1.02-.023 2.03-.195 3-.51a7.689 7.689 0 0 0 4.6-4.44 8.73 8.73 0 0 0 .31-5.28 13.057 13.057 0 0 0-.73-2.24 4.21 4.21 0 0 0-.76-1.39 2.32 2.32 0 0 0-1.5-.73 2.836 2.836 0 0 0-3.06 3.14c.32 1.51-.71 3.29-1.9 2.9a6.543 6.543 0 0 1-1.84-.91c-.87-.45-1.785-.805-2.73-1.06a9.414 9.414 0 0 0-6.19.28 8.635 8.635 0 0 0-4.82 4.8Zm55.05 27.66c.332-.574.613-1.177.84-1.8a4.05 4.05 0 0 0-.05-2.73c-1.39-3.23-5-2.82-5.78-1.34-.82 1.18-2.79.94-3.75.05-.96-.89-1.21-1.18-2.12-1.11 0 .17-.94-.36-1.94-.38a3.643 3.643 0 0 0-2.59.87 4.195 4.195 0 0 0-1.28 3.55 4.001 4.001 0 0 0 1.6 2.79c.61.56 1.22 1.2 1.94 1.79a7.88 7.88 0 0 0 5.29 2 9.295 9.295 0 0 0 5.71-1.52 8.187 8.187 0 0 0 2.13-2.17Zm-34.61-2.16c-1.11.76-2.8.48-4.62.68a4.336 4.336 0 0 0-3.82 3.3c-.54 1.93.33 4 .68 5.4a4.165 4.165 0 0 0 1.726 2.782 4.17 4.17 0 0 0 3.204.678 3.449 3.449 0 0 0 2.09-1.42c.467-.68.752-1.469.83-2.29a.784.784 0 0 1 .55-.31 3.408 3.408 0 0 0 1.66-.88 16.12 16.12 0 0 0 1.32-1.2c0-.06.4-.38.73-.7.317-.356.586-.753.8-1.18.418-.856.5-1.837.23-2.75a3.738 3.738 0 0 0-2.76-2.55 3.494 3.494 0 0 0-2.62.44Zm22.26 69.42a.478.478 0 0 0 .25.16c0-.06-.08-.12-.11-.19l-.14.03Zm-39.53 8.96a1.119 1.119 0 0 1-.49-.38c.06-.22-.36.32-.54.53-.236.34-.419.714-.54 1.11a4.077 4.077 0 0 0 1.73 4.57 4.29 4.29 0 0 0 3.441.324 4.282 4.282 0 0 0 2.559-2.324c.56-1.28 1.31-2.38 2-3.94a5.856 5.856 0 0 0-.13-5 6.787 6.787 0 0 0-4.08-3.86 5.77 5.77 0 0 0-1.49-.28 5.351 5.351 0 0 0-2.2.2 4 4 0 0 0-1.86 6.4 3.207 3.207 0 0 0 2.16 1 .822.822 0 0 1 .71 1 .881.881 0 0 1-1.27.65Zm7.72-23.42c.979.207 2 .07 2.89-.39 1.19-.57 2.44-.81 3.94-1.46a5.673 5.673 0 0 0 3.28-3.6 6.805 6.805 0 0 0-.19-5.29 7.306 7.306 0 0 0-.87-1.31 4.935 4.935 0 0 0-1.93-1.48 3.843 3.843 0 0 0-4.22.77 3.994 3.994 0 0 0-1.16 3c.061.755.324 1.481.76 2.1a.665.665 0 0 1-.42 1 1.003 1.003 0 0 1-1.14-.71.86.86 0 0 1 0-.32c0-.12-.57-.05-.83 0A3.747 3.747 0 0 0 227 435a3.996 3.996 0 0 0-.79 4.33 4.112 4.112 0 0 0 2.86 2.3Zm36.23 65.13a3.759 3.759 0 0 0 .87 2.69 3.657 3.657 0 0 0 3.7 1.2 3.38 3.38 0 0 0 2.19-1.67c.34-.65.81-1.19 1.33-2a5.34 5.34 0 0 0 .73-3.22 4.709 4.709 0 0 0-3.65-4.25c-1.68-.37-3.46.21-4.83-.07a7.006 7.006 0 0 1-2-.8 3.36 3.36 0 0 0-3.83 1 4.315 4.315 0 0 0-.86 4.32c.31.875.883 1.633 1.64 2.17.89.6 1.21.68 1.49.88 1.003.67 2.06 1.255 3.16 1.75.22.06.43.16.49.12.06-.04-.05.13-.53-1.31a3.227 3.227 0 0 1 0-1.45c.08-.53.63-1.26.37-.75a5.11 5.11 0 0 0-.27 1.39Zm-34.3-18.6a3.928 3.928 0 0 0 .306 1.788 3.926 3.926 0 0 0 1.074 1.462c.343.274.737.476 1.16.594.423.119.865.152 1.3.096 1.23-.21 2.67.67 4.45 1a4 4 0 0 0 4.3-1.78c.91-1.46.85-3.26 1.36-4.63a3.996 3.996 0 0 0-1.183-4.42 4.003 4.003 0 0 0-1.417-.77 4.082 4.082 0 0 0-4.16 1.24c-.356.262-.742.48-1.15.65-.68.29-1.26.28-1.73.55l-.38.23-.22.13-.11.07c-.06 0-.37.09-.54.15a4.132 4.132 0 0 0-3.06 3.64Zm19-69.86a8.726 8.726 0 0 0 1.52-3.14 5.396 5.396 0 0 0 .11-1.7 5.202 5.202 0 0 0-.56-2.67 3.52 3.52 0 0 0-4.1-1.72 2.995 2.995 0 0 0-2.18 2.22 2.263 2.263 0 0 1-1.401 1.528 2.278 2.278 0 0 1-2.059-.248c-1-.83-.74-1.06-1.66-1.09a4.796 4.796 0 0 0-2.87-.81 4.002 4.002 0 0 0-2.45 1.13 3.891 3.891 0 0 0-1 4.11 3.68 3.68 0 0 0 1.11 1.46c.36.27.65.63 1 .91a22.903 22.903 0 0 0 2.24 1.91c3.36 2.81 9.3 1.9 12.3-1.89Zm30.52-64.72a7.362 7.362 0 0 0 4-.89 3.464 3.464 0 0 0 1.66-2.26 4.003 4.003 0 0 0-.53-2.95 3.84 3.84 0 0 0-2.32-1.66v-.32l.11-1.38v-1a10.704 10.704 0 0 0-1.66-5.63 9.498 9.498 0 0 0-6.64-4.07 6.447 6.447 0 0 1-.82-.2 4.148 4.148 0 0 0-1.58-.43 3.38 3.38 0 0 0-2.57 1.05c-1.15 1.14-1.12 3.11 0 3.88a11.331 11.331 0 0 1 2.33 2.41c.612.765.915 1.732.85 2.71a6.44 6.44 0 0 0-.52 2.06 8.584 8.584 0 0 0 .55 3.84 8.385 8.385 0 0 0 7.14 4.84Zm.1-7.62a1.63 1.63 0 0 1 .93-.18h.07a5.005 5.005 0 0 0-1.25.38.537.537 0 0 1 .25-.16v-.04Zm-23.94 24.2c1.478.618 3.058.957 4.66 1a11.822 11.822 0 0 0 8.63-2.88l.89-.93a4.31 4.31 0 0 0 .76-2.07 4.582 4.582 0 0 0-2-4.1 4.698 4.698 0 0 0-5.14-.16 5.728 5.728 0 0 0-1.77 1.77c-.08.05-.14.11-.19.09-.2-.06.17-.32.1-.38s-.19-.26-.31-.42a2.005 2.005 0 0 1-.36-1.07 5.583 5.583 0 0 1 .44-2.5 6.814 6.814 0 0 1 .79-1.54 3.415 3.415 0 0 0 1.1-3c-.44-2-2.6-2.91-3.95-2-2.18 1.45-4.88 2.56-7.09 5.12a8.182 8.182 0 0 0-.52 9.83 9.27 9.27 0 0 0 3.96 3.24Zm75.16-85.83c.346.108.664.293.93.54.17.16.21.19.26.2.05.01 0-.13 0-.28a8.545 8.545 0 0 0-.33-1.31 5.736 5.736 0 0 0-.77-1.59 29.328 29.328 0 0 0-2-2.58 3.777 3.777 0 0 0-2.36-1.76 4.003 4.003 0 0 0-2.47.27 3.191 3.191 0 0 0-1.72 1.78 4.124 4.124 0 0 0 .06 2.26c.181 1.051.275 2.114.28 3.18 0 1.08 0 2.2.15 3.27a6.85 6.85 0 0 0 1.72 4.07 8.06 8.06 0 0 0 5 2.39 11.289 11.289 0 0 0 10-4.27c.092-.133.192-.26.3-.38.193-.184.374-.381.54-.59.349-.451.586-.979.69-1.54a3.163 3.163 0 0 0-.75-2.57 2.92 2.92 0 0 0-3.65-.76 6.987 6.987 0 0 1-2.94.61 8.573 8.573 0 0 1-3-.52c-.28-.08-.89-.51.06-.42Zm-37.58 89.53c.35.106.672.291.94.54.17.16.21.19.25.2.04.01.05-.13 0-.28a8.21 8.21 0 0 0-.33-1.31 5.821 5.821 0 0 0-.77-1.6 32.603 32.603 0 0 0-2-2.58 3.799 3.799 0 0 0-2.36-1.75 3.91 3.91 0 0 0-2.47.27 3.191 3.191 0 0 0-1.72 1.78 4.124 4.124 0 0 0 .06 2.26c.181 1.047.274 2.108.28 3.17 0 1.09 0 2.21.15 3.27a6.851 6.851 0 0 0 1.72 4.08 8.06 8.06 0 0 0 5 2.39c1.396.167 2.811.048 4.16-.35a10.477 10.477 0 0 0 5.88-3.92c.092-.133.192-.26.3-.38.193-.184.374-.381.54-.59.348-.452.584-.98.69-1.54a3.163 3.163 0 0 0-.75-2.57 2.92 2.92 0 0 0-3.65-.76 7.154 7.154 0 0 1-2.94.61 8.349 8.349 0 0 1-3-.53c-.31-.08-.92-.51.02-.41Zm18.88-79.23a.165.165 0 0 0 0-.07v.07Z" fill="#174f78"/><path d="M300.78 297c.264.7.735 1.304 1.35 1.73.57.38.91.66 1.43.95a6.65 6.65 0 0 0 3.61 1 5.844 5.844 0 0 0 4.38-2.37 9.596 9.596 0 0 0 1.59-3.65v-.07c.2-.43.09-.14 0 0a9.441 9.441 0 0 1 1-1c.25-.24.5-.53.78-.86.159-.163.306-.336.44-.52a5.213 5.213 0 0 0 1.05-1c2.36-3.71-1.39-6.63-3.2-5.47-1.54.75-3.52.35-5.79.75a5.72 5.72 0 0 0-4.67 5.17 2.394 2.394 0 0 0 0 .81c-.513.146-.976.43-1.34.82a3.843 3.843 0 0 0-.63 3.71Zm4.19-5c.25.06.32.15.32.19 0 .04-.7 0-1.42 0a.627.627 0 0 1 .12-.07A1.81 1.81 0 0 1 305 292h-.03Zm9.82 58.9a3.335 3.335 0 0 0-.643 1.382 3.323 3.323 0 0 0 2.003 3.748 1.76 1.76 0 0 1 1.31 1.82 12.389 12.389 0 0 1-1 2.54 5.118 5.118 0 0 0 .1 4 5.58 5.58 0 0 0 3.37 3 9.136 9.136 0 0 0 2.57.31c.14-.016.28-.016.42 0 .15.07.17 0 .55.37a3.358 3.358 0 0 0 2.24 1 3.593 3.593 0 0 0 3.46-2.34 3.821 3.821 0 0 0-.05-2.41 9.752 9.752 0 0 0-.74-1.75 10.204 10.204 0 0 0-2.18-2.67c0-.13.06-.3.1-.54.081-.738.081-1.482 0-2.22a8.732 8.732 0 0 0-1.51-4 7.722 7.722 0 0 0-7-3.53 3.647 3.647 0 0 0-3 1.29Zm11.12 8.82c-.46-.36-.76-.56-.74-.67.02-.11.5.29.74.67Zm56.49 16.79a5.34 5.34 0 0 1-5.28-.32 2.085 2.085 0 0 1-.78-1.08 5.53 5.53 0 0 0-.9-.85c-.27-.22-.58-.51-.9-.83l-.52-.5a4.838 4.838 0 0 0-1-1.06 3.94 3.94 0 0 0-4.71-.1 2.937 2.937 0 0 0-1.29 2 5.736 5.736 0 0 0 .29 1.95c.24.94.36 2 .6 3.07a8.29 8.29 0 0 0 4.43 6.07 10.625 10.625 0 0 0 7.71.91 9.85 9.85 0 0 0 5.55-3.63 3.687 3.687 0 0 0 1.4-2.92 3.328 3.328 0 0 0-4.62-2.73l.02.02Zm-50.65 7.55a5.34 5.34 0 0 1-5.28-.32 2.085 2.085 0 0 1-.78-1.08 5.985 5.985 0 0 0-.9-.85c-.27-.22-.58-.51-.9-.83l-.51-.49a5.13 5.13 0 0 0-1-1.07 4.001 4.001 0 0 0-4.72-.1 2.937 2.937 0 0 0-1.29 2c-.02.679.081 1.357.3 2 .23.95.35 2 .59 3.07a8.316 8.316 0 0 0 4.43 6.07 10.625 10.625 0 0 0 7.71.91 9.85 9.85 0 0 0 5.55-3.63 3.671 3.671 0 0 0 1.038-1.298 3.672 3.672 0 0 0 .362-1.622 3.193 3.193 0 0 0-1.15-2.2 3.25 3.25 0 0 0-3.45-.56Zm-57.03 24.27a5.358 5.358 0 0 1-5.29-.32 2.085 2.085 0 0 1-.78-1.08 5.488 5.488 0 0 0-.9-.85c-.27-.22-.58-.51-.9-.83l-.51-.5a5.376 5.376 0 0 0-1-1.06 4.001 4.001 0 0 0-4.72-.1 2.937 2.937 0 0 0-1.29 2 5.688 5.688 0 0 0 .3 1.95c.23.94.35 2 .59 3.07a8.316 8.316 0 0 0 4.43 6.07 10.625 10.625 0 0 0 7.71.91 9.82 9.82 0 0 0 5.55-3.63 3.687 3.687 0 0 0 1.4-2.92 3.304 3.304 0 0 0-3.087-2.995 3.317 3.317 0 0 0-1.523.265l.02.02Zm167.73 53.21a5.34 5.34 0 0 1-5.28-.32 2.185 2.185 0 0 1-.79-1.08c-.07-.17-.37-.38-.9-.85-.27-.23-.57-.52-.9-.83l-.51-.5a5.371 5.371 0 0 0-1-1.07 3.998 3.998 0 0 0-4.71-.1 2.917 2.917 0 0 0-1.29 2 5.703 5.703 0 0 0 .29 1.94c.24.95.35 2 .6 3.08a8.315 8.315 0 0 0 4.42 6.07 10.702 10.702 0 0 0 7.72.9 9.75 9.75 0 0 0 5.55-3.63 3.648 3.648 0 0 0 1.39-2.92 3.302 3.302 0 0 0-1.613-2.533 3.304 3.304 0 0 0-2.997-.187l.02.03Zm-55.07-159.6c.289.867.682 1.697 1.17 2.47l.27.48s.06.07.09.08c-.188.166-.359.35-.51.55a3.544 3.544 0 0 0 .24 3.87 3.722 3.722 0 0 0 1.73 1.35 5.547 5.547 0 0 0 2.18.23 5.62 5.62 0 0 0 3.82-2 7.34 7.34 0 0 0 1.53-3.89c0-.34 0-.69.05-1v-.69c0-.296.03-.59.09-.88.15-.31 0 .16.11-.12.21-.457.465-.892.76-1.3.208-.323.398-.657.57-1l.35-.65c.309-.397.555-.839.73-1.31 1.2-4.19-3.13-5.94-4.56-4.37-1.29 1.1-3.3 1.18-5.38 2.1a5.663 5.663 0 0 0-3.24 6.08Zm2.7 2.22-.13.06-.25.13a1.923 1.923 0 0 0-.45.29c.138-.133.285-.256.44-.37.123-.059.255-.096.39-.11Zm-25.46-36.32v-.13c0-.04-.26-.85-.66-1.25a4.134 4.134 0 0 0-1.32-1 3.815 3.815 0 0 0-1.82-.31 3.626 3.626 0 0 0-1.19.33 1.99 1.99 0 0 1-.6.26 4.688 4.688 0 0 0-2.34 1.88c-.6.88-1 2-1.55 3a4.196 4.196 0 0 0-.52 4.56 3.372 3.372 0 0 0 2 1.77 4.843 4.843 0 0 0 2.87-.29c.681-.102 1.351-.27 2-.5a4 4 0 0 0 2.21.43 3.458 3.458 0 0 0 3.05-3.11c.01-.17.01-.34 0-.51.164-.241.302-.499.41-.77a3.552 3.552 0 0 0-.357-2.712 3.528 3.528 0 0 0-2.183-1.648ZM351.78 252a.706.706 0 0 1 0-.13c.07-.19-.27-.85-.67-1.25a3.875 3.875 0 0 0-1.32-.95 3.782 3.782 0 0 0-1.82-.32 3.65 3.65 0 0 0-1.18.33c-.187.12-.394.208-.61.26a4.741 4.741 0 0 0-2.34 1.88c-.59.88-1 2-1.54 3a4.164 4.164 0 0 0-.52 4.56 3.326 3.326 0 0 0 2 1.77 4.893 4.893 0 0 0 2.88-.29 10.922 10.922 0 0 0 1.95-.5 4 4 0 0 0 2.22.43 3.463 3.463 0 0 0 3-3.1 4.51 4.51 0 0 0 0-.52c.172-.236.31-.496.41-.77a3.537 3.537 0 0 0-2.46-4.4Zm73.41-4.57a.565.565 0 0 0 0-.13c.07-.19-.26-.85-.67-1.24a3.863 3.863 0 0 0-3.14-1.28 3.65 3.65 0 0 0-1.18.33 1.691 1.691 0 0 1-.6.26 4.67 4.67 0 0 0-2.34 1.89c-.6.88-1 2-1.55 3a4.222 4.222 0 0 0-.52 4.57 3.372 3.372 0 0 0 2 1.77 4.924 4.924 0 0 0 2.87-.29 10.867 10.867 0 0 0 2-.51 3.995 3.995 0 0 0 2.21.44 3.45 3.45 0 0 0 3-3.11 3.01 3.01 0 0 0 0-.52c.172-.236.31-.496.41-.77a3.527 3.527 0 0 0-1.231-3.791 3.52 3.52 0 0 0-1.259-.619Zm-172.76 68.06a.565.565 0 0 1 0-.13 2.156 2.156 0 0 0-.67-1.25 3.998 3.998 0 0 0-1.32-.95 3.817 3.817 0 0 0-1.82-.32 3.683 3.683 0 0 0-1.19.33 1.876 1.876 0 0 1-.6.26 4.741 4.741 0 0 0-2.34 1.88c-.59.88-1 2-1.54 3a4.192 4.192 0 0 0-.53 4.56 3.372 3.372 0 0 0 2 1.77 4.765 4.765 0 0 0 2.87-.29c.681-.102 1.351-.27 2-.5a4 4 0 0 0 2.21.43 3.445 3.445 0 0 0 3.05-3.1 4.51 4.51 0 0 0 0-.52c.164-.241.302-.499.41-.77a3.525 3.525 0 0 0-.336-2.734 3.54 3.54 0 0 0-2.194-1.666ZM209 267.05a.472.472 0 0 1 0-.13 2.155 2.155 0 0 0-.67-1.24 3.997 3.997 0 0 0-1.32-1 3.696 3.696 0 0 0-1.82-.31 3.593 3.593 0 0 0-1.19.32c-.18.126-.384.215-.6.26a4.704 4.704 0 0 0-2.34 1.89c-.59.88-1 2-1.54 3a4.18 4.18 0 0 0-.53 4.56 3.41 3.41 0 0 0 2 1.77 4.843 4.843 0 0 0 2.87-.29c.68-.107 1.349-.275 2-.5a4 4 0 0 0 2.21.43 3.458 3.458 0 0 0 3.05-3.11c.01-.17.01-.34 0-.51a3.82 3.82 0 0 0 .41-.78 3.537 3.537 0 0 0-2.53-4.36Zm139.32 63.72a8.094 8.094 0 0 0-3.44 1.2 5.691 5.691 0 0 0-1.31 1.23 4.767 4.767 0 0 0-1.3 2.44c-.41 4.1 3.66 5.07 4.93 3.76a1.608 1.608 0 0 1 2-.08c.63.46.36 1 .43 1.73a3.995 3.995 0 0 0 2.23 2.83 5.002 5.002 0 0 0 3.78.33c.94-.31 1.14-.75 1.95-1a3.995 3.995 0 0 0 3.22-2.51 3.322 3.322 0 0 0-.5-3.69 8.098 8.098 0 0 0-3.18-1.45c-.82-.24-1.57-.67-1.44-.91.5-.05.3-.24-.31-1.07a8.16 8.16 0 0 0-7-2.77l-.06-.04ZM347.07 318c-.465-.411-.9-.855-1.3-1.33a5.816 5.816 0 0 0-3.54-2 6.932 6.932 0 0 0-4.18.27 5.48 5.48 0 0 0-2.95 2.78 3.768 3.768 0 0 0 .47 3.71 3.602 3.602 0 0 0 4.71 1.21c.88-.45 2.14.51 2.51 1.58.116.367.267.722.45 1.06l.06.06c.426.216.886.355 1.36.41a3.728 3.728 0 0 0 4.12-2.94 5.303 5.303 0 0 0-.14-2.81 3.998 3.998 0 0 0-1.57-2Zm79.41 68.89a3.78 3.78 0 0 0-2.82.79c-1.13 1-2.94 1.92-4.35 3.54a5.255 5.255 0 0 0-1.22 5.1c.49 1.63 1.78 3.06 2 4.51.007.599.164 1.188.456 1.711.291.524.708.967 1.214 1.289a3.913 3.913 0 0 0 4 .12 4.06 4.06 0 0 0 1.69-2c.31-1 .38-1.11.53-1.56.238-.732.418-1.48.54-2.24.15-.75.31-1.5.4-2.25.094-.662.137-1.331.13-2 0-.47-.06-.51-.29-.52-.06-.06-.37 0-.23-.4a4.25 4.25 0 0 0 1-3 3.34 3.34 0 0 0-3.05-3.09Zm-11.19-6.75s-.05.1 0 0l.27-.19.55-.38a8.423 8.423 0 0 0 2.5-2.78 8.472 8.472 0 0 0-2.2-10.89 3.65 3.65 0 0 0-2.93-1.42 3.19 3.19 0 0 0-2.19 1.17 3.282 3.282 0 0 0-.53 3.45 3.066 3.066 0 0 1 .08 2.59 2.618 2.618 0 0 1-1.82 1.33c-1.05 0-3.71 1.61-4.31 4.68a7 7 0 0 0 3.48 7.1c1.54 1.66 6.86 1.06 6-3.76.109-.079.213-.166.31-.26.33-.15.58-.48.79-.64Zm-2.55-1.07s-.12-.07 0 0c.116.048.227.108.33.18.204.132.383.298.53.49.186.249.325.531.41.83v.07a4.193 4.193 0 0 0-.68-1.05 7.098 7.098 0 0 0-.59-.52Zm29.2 11.02a4.44 4.44 0 0 0 1.81-2.41 4.271 4.271 0 0 0 .11-1.71c0-.46.19-.42.32-.48.62.21 1.32.21 2.73-1.25a6.709 6.709 0 0 0 1.09-1.44 7.218 7.218 0 0 0 .68-1.95 6.41 6.41 0 0 0-.52-4 6.267 6.267 0 0 0-3-2.93 5.916 5.916 0 0 0-2.56-.54 4.718 4.718 0 0 0-2.57 1 4.052 4.052 0 0 0-1.54 4 2.65 2.65 0 0 0 .94 1.61 6.488 6.488 0 0 0-1.12.5c-.728.384-1.379.9-1.92 1.52l-.24.31c-.06.07-.24.49-.27.54a5.74 5.74 0 0 0-.3.71 6.54 6.54 0 0 0-.33 1.52 4.62 4.62 0 0 0 .58 2.89 8.565 8.565 0 0 0 2.38 2.4 3.418 3.418 0 0 0 3.73-.29Zm13.85 99.25a4.47 4.47 0 0 0 1.81-2.42 4.238 4.238 0 0 0 .12-1.71c-.05-.46.18-.41.31-.48.62.22 1.32.21 2.73-1.24a6.977 6.977 0 0 0 1.07-1.44 7.648 7.648 0 0 0 .68-2 6.349 6.349 0 0 0-.53-4 6.228 6.228 0 0 0-3-2.93 5.928 5.928 0 0 0-2.56-.53 4.781 4.781 0 0 0-2.57 1 4 4 0 0 0-1.54 3.95 2.64 2.64 0 0 0 .94 1.62c-.39.126-.766.294-1.12.5a6.662 6.662 0 0 0-1.92 1.51l-.24.31c-.06.08-.24.5-.26.54-.11.23-.22.47-.31.71a6.26 6.26 0 0 0-.32 1.53c-.125 1 .075 2.013.57 2.89a8.713 8.713 0 0 0 2.38 2.4 3.435 3.435 0 0 0 3.76-.21Zm-50.13-170.27c-1.65.73-4 1.57-5.61 3.71a9 9 0 0 0-1.42 3c-.24.75-.19.6.07.67a4.047 4.047 0 0 1-.83 1.61c-.18.28-.42.43-.39.58a4.323 4.323 0 0 0-2.24.33 3.513 3.513 0 0 0-1.6 3.84c.177.785.61 1.488 1.23 2a7.692 7.692 0 0 0 1.86 1 8.787 8.787 0 0 0 7.39-.69 10.001 10.001 0 0 0 3.21-2.49 8.871 8.871 0 0 0 1.79-3.86c.38-3.21.13-3.84-1-3.78 3.32-3.36-.39-7.29-2.46-5.92Zm2.07-24.51a4.398 4.398 0 0 0-2.09 4.74c.37 1.87 1.89 3.27 2.65 4.51.204.323.391.657.56 1 .228.475.551.897.95 1.24a3.933 3.933 0 0 0 3.58.67 4 4 0 0 0 2.9-3.49 5.638 5.638 0 0 0-.38-2.39c0-.14 0-.27.07-.4.13-.54.47-.89.47-1.15a2.936 2.936 0 0 0-.05-.52s-.05-.05 0-.14l.42-.51c.248-.376.446-.783.59-1.21a3.8 3.8 0 0 0 0-2.47 3.997 3.997 0 0 0-2.62-2.6 2.754 2.754 0 0 0-2.67.57c-.95.89-2.68 1.13-4.38 2.15ZM406 261a3.587 3.587 0 0 0-3.78.89 3.694 3.694 0 0 0-1.08 2.49c0 1.4-1.83 2-3 1.55-.56-.16-.95-.42-1.22-.45a.7.7 0 0 0-.38 0 .543.543 0 0 0-.2.07c-.383.037-.763.093-1.14.17a4.22 4.22 0 0 0-2.42 1.74 3.71 3.71 0 0 0-.51 2.39 4.528 4.528 0 0 0 1.88 3.06c.456.309.97.523 1.51.63.52.09.81.1 1.23.2.79.11 1.64.33 2.55.4a7.312 7.312 0 0 0 5.39-1.43 8.838 8.838 0 0 0 3.53-4.57 7.668 7.668 0 0 0 .32-2.93 6.69 6.69 0 0 0-.57-2.24A3.656 3.656 0 0 0 406 261Zm22.82 10.49a4.18 4.18 0 0 0 .58-1.38 3.61 3.61 0 0 0-1.75-4 2.78 2.78 0 0 0-3.11.1c-1.29.93-3.19 1.8-4.85 2.94a9.97 9.97 0 0 0-1 .76c.3-.05.41.06.3.16a2.128 2.128 0 0 1-.92.29h-.06a7.986 7.986 0 0 1-1.07.1 3.799 3.799 0 0 0-2.44.49 3.308 3.308 0 0 0-1.35 1.71 4 4 0 0 0 .43 3.59c.4.488.872.913 1.4 1.26l1.13.85a6.995 6.995 0 0 0 6.64 1.19 7.93 7.93 0 0 0 3.52-2.22 8.998 8.998 0 0 0 1.73-2.83 6.804 6.804 0 0 0 .47-1.69.934.934 0 0 0-.19-.49c0-.08-.16 0 .05-.22.182-.187.346-.391.49-.61Z" fill="#174f78"/><path d="m418.59 270 .14-.12c-.35.06-.68.42-.63.45h.05c.164-.085.313-.196.44-.33Zm46.15 90.5a12.001 12.001 0 0 0 4-4.08 22.081 22.081 0 0 0 2.3-4.28c.241-.655.445-1.322.61-2 .076-.355.119-.717.13-1.08-.11-.11.53-1.46.37-2.5a3.294 3.294 0 0 0-1.43-2.54 3.662 3.662 0 0 0-2-.56 3.357 3.357 0 0 0-2.77 1.46c-.85 1.39-2.59 2.38-4.17 3.58a6.003 6.003 0 0 0-2.55 4.14c-.07.78-.06 1.58-.09 2.41a13.285 13.285 0 0 1-.66 3 3.258 3.258 0 0 0 2.16 3.16 3.856 3.856 0 0 0 4.1-.71Zm-14.83-10.27a9.775 9.775 0 0 0 2.87-1.53 7.819 7.819 0 0 0 2.6-3.7 5.474 5.474 0 0 0 .23-2.34 6.725 6.725 0 0 0-.73-2.37 3.75 3.75 0 0 0-2.2-1.9 3.665 3.665 0 0 0-2.27.1 2.732 2.732 0 0 0-1.9 2.79c0 .69-.83 1.14-1.7 1.19-.87.05-1.87-.09-3 0a3.993 3.993 0 0 0-2.05.72 5.637 5.637 0 0 0-1.57 1.58c-.326.478-.582 1-.76 1.55-.07.23 0 .31.06.37.31.1.23.67-.79 1.46a3.741 3.741 0 0 0-1.51 2.13 4.089 4.089 0 0 0 .08 2.21 3.648 3.648 0 0 0 1.19 1.75 2.998 2.998 0 0 0 2.2.56c1.19-.21 2-.18 3.15-.4a6.243 6.243 0 0 0 3.58-1.78c1.06-1.15 1.49-2.21 1.79-2.38.14-.1.16 0 .09.17.22-.035.434-.095.64-.18Zm31.69 44.25a10.005 10.005 0 0 0 2.87-1.53 7.887 7.887 0 0 0 2.6-3.7c.236-.759.311-1.56.22-2.35a6.753 6.753 0 0 0-.72-2.36 3.742 3.742 0 0 0-2.21-1.9 3.633 3.633 0 0 0-2.26.09 2.748 2.748 0 0 0-1.91 2.79c.05.7-.83 1.15-1.69 1.2-.86.05-1.87-.09-3 0a3.883 3.883 0 0 0-2 .72 5.496 5.496 0 0 0-1.58 1.57 6.82 6.82 0 0 0-.76 1.55c-.06.24 0 .32.07.38.3.1.22.67-.8 1.46a3.779 3.779 0 0 0-1.51 2.13 4.006 4.006 0 0 0 .09 2.2 3.632 3.632 0 0 0 1.19 1.76 2.998 2.998 0 0 0 2.2.55c1.19-.2 2-.18 3.15-.39a6.263 6.263 0 0 0 3.57-1.79c1.07-1.14 1.5-2.21 1.79-2.37.14-.1.17 0 .09.17.205-.041.406-.102.6-.18Zm-117.38 10.36a10.157 10.157 0 0 0 2.87-1.53 7.852 7.852 0 0 0 2.6-3.71 5.474 5.474 0 0 0 .23-2.34 6.826 6.826 0 0 0-.73-2.36A3.787 3.787 0 0 0 367 393a3.707 3.707 0 0 0-2.26.1 2.757 2.757 0 0 0-1.91 2.79c.05.7-.83 1.15-1.69 1.19-.86.04-1.87-.08-3 0a3.94 3.94 0 0 0-2.05.73 5.496 5.496 0 0 0-1.58 1.57 6.745 6.745 0 0 0-.75 1.55c-.07.24-.05.32.06.38.3.1.22.67-.79 1.45a3.788 3.788 0 0 0-1.51 2.14 3.996 3.996 0 0 0 .08 2.2 3.648 3.648 0 0 0 1.19 1.75 2.998 2.998 0 0 0 2.2.56c1.19-.2 2-.18 3.15-.4a6.124 6.124 0 0 0 3.57-1.78c1.07-1.14 1.5-2.21 1.8-2.37.14-.1.16 0 .08.17.216-.043.427-.106.63-.19Zm138.19-63.52a3.77 3.77 0 0 0-1.05-2.5 3.552 3.552 0 0 0-3.058-1.156 3.55 3.55 0 0 0-2.712 1.826c-.56 1.22-2.13 2.13-3.14 4a8.864 8.864 0 0 0-.57 2.57c.013.55.15 1.09.4 1.58a4.202 4.202 0 0 0 .5 3.22 3.873 3.873 0 0 0 2.53 1.89 6.417 6.417 0 0 0 3.07.09 5.713 5.713 0 0 0 4.39-5 13.006 13.006 0 0 0-.2-4.39c-.07-.18-.18 0-.36-.13l-.08-.06s.12-.38.15-.55c.11-.455.154-.923.13-1.39Zm-7.58 3.68a.655.655 0 0 0 0 .14 3.18 3.18 0 0 0-.75.25 3.925 3.925 0 0 0-1 .79c.044-.099.097-.192.16-.28a2.819 2.819 0 0 1 1.59-.9Zm-55.35 99.27a3.902 3.902 0 0 0-2.71 1.18 4.006 4.006 0 0 0-.65 4.08 3.91 3.91 0 0 0 2.57 2.32 9.16 9.16 0 0 0 3.12.78 8.164 8.164 0 0 0 6-2.38 12.434 12.434 0 0 0 3.4-4.56c.339-.859.574-1.755.7-2.67a6.392 6.392 0 0 0 0-1.45 5.005 5.005 0 0 0-.62-2.74 3.487 3.487 0 0 0-4.12-1.57 3.068 3.068 0 0 0-2.13 2.21c-.34 1.51-2 2.61-3.51 3.3-1.51.69-2.67 1.14-1.52 1.19.11.09.88.45-.53.31Zm-61.55-106.51a7.35 7.35 0 0 0-3-.33l-1.05.15a5.229 5.229 0 0 0-1.36.53 3.737 3.737 0 0 0-1.79 2.27 3.629 3.629 0 0 0 1.09 3.63c.67.618 1.54.973 2.45 1a1.34 1.34 0 0 1 1.26 1.09 1.508 1.508 0 0 1-.63 1.5 1.5 1.5 0 0 1-.91.25s0-.06-.11.22a4.334 4.334 0 0 0-.37 1.28 4.133 4.133 0 0 0 1.058 3.45 4.135 4.135 0 0 0 3.362 1.31 3.573 3.573 0 0 0 3.14-2.13c.54-1.58 1.27-2.76 1.91-4.55 1.5-3.55-1.12-8.37-5.05-9.67ZM140.23 178c3.61 1.92 7.53 3.61 12.17 3.64 5.39 0 8.51-2.63 10.84-3.32a3.444 3.444 0 0 1 3.87 1.21c2.34 2.4 5.8-.68 4.24-2.77a18.205 18.205 0 0 0-3.82-4.53 11.79 11.79 0 0 0-6.12-2.47 21.137 21.137 0 0 0-6 .55c-.637.129-1.282.219-1.93.27h-2.4c-1.74.06-3.483.03-5.22-.09a7.91 7.91 0 0 1-4.57-1.58 2.082 2.082 0 0 1-.71-1.67l.35-1.13a2.757 2.757 0 0 0-.35-2.43 3.614 3.614 0 0 0-4.31-1 4 4 0 0 0-1.77 1.76 9.682 9.682 0 0 0-.73 1.59 8.06 8.06 0 0 0 1.18 7.56 15.76 15.76 0 0 0 5.28 4.41Zm-2.13 19.3c.4-.467.877-.863 1.41-1.17.641-.426 1.309-.81 2-1.15a29.54 29.54 0 0 1 4.31-1.61c3-.89 6.43-1.34 10.11-2.14a40.453 40.453 0 0 1 5.69-.83 2.925 2.925 0 0 0 2.8-2.29 2.393 2.393 0 0 0-.23-1.75 1.993 1.993 0 0 0-1.47-.89c-3.76-.43-7.37-2-11.36-3a16.82 16.82 0 0 0-12.3 1.55 21.591 21.591 0 0 0-4.86 4.05 33.677 33.677 0 0 0-3.86 4.93c-1 1.9-1.51 3.79-2.55 4.92a2 2 0 0 1-.73.53 3.25 3.25 0 0 0-1.73 1.72 3.814 3.814 0 0 0 1.84 4.68c.933.461 2.009.54 3 .22a8.989 8.989 0 0 0 1.89-.89 10.64 10.64 0 0 0 2.76-2.45c1.47-1.73 2.34-3.41 3.28-4.43Zm15.5 14.57c-1.09-.36-2.07-.71-2.85-.89-.78-.18-1.09-.22-1.82-.42a14.777 14.777 0 0 1-2.81-1.19l-3.44-2a3.528 3.528 0 0 0-4.59 1.7 3 3 0 0 0 .46 3.13c.392.451.727.948 1 1.48 1 1.9 2 4.25 4.68 6.15A12.59 12.59 0 0 0 153 222a14.387 14.387 0 0 0 6.87-2.44 21.74 21.74 0 0 1 2-1.12 3.294 3.294 0 0 0 1.417-2.209 3.286 3.286 0 0 0-.657-2.541 2.165 2.165 0 0 0-2-.74 15.003 15.003 0 0 1-7.03-1.08Zm-16.69 13.47a3.396 3.396 0 0 0-2.18 3c.01.632.15 1.254.41 1.83l.49 1.2a13.457 13.457 0 0 0 3 4.49 14.696 14.696 0 0 0 4.67 2.93 25.813 25.813 0 0 0 9.88 1.82 32.455 32.455 0 0 0 8.88-1.27c.71-.18 1.45-.4 2.17-.52.4-.06.65-.14 1.19-.19a3.112 3.112 0 0 0 1.73-.57 2.994 2.994 0 0 0 1.18-2.74 2.154 2.154 0 0 0-1.8-1.94 58.505 58.505 0 0 1-9.06-2.43 25.458 25.458 0 0 0-8.4-1.15c-2.56.07-5.41.13-7.39-1.84l-.61-.8c-.21-.27-.34-.48-.72-1a3.009 3.009 0 0 0-1.586-.971 3.006 3.006 0 0 0-1.854.151Zm26.57 25.2c.57-.48 1.74-1.56 1.72-2.79.06-2.29-2.36-3.67-3.88-2.58a10.604 10.604 0 0 1-4.11 1.28 8.59 8.59 0 0 0-4.77 2.62 5.274 5.274 0 0 0-.91 1.78c-.09.15 0-.39 0-.53v-.16c-.35.13-1 .57-1.36.75-.775.442-1.597.797-2.45 1.06-2.35.8-5.1 1.79-7.9 1.36a15.075 15.075 0 0 0-2.52-.36 3.169 3.169 0 0 0-1.587.734c-.449.39-.779.898-.953 1.466a3.315 3.315 0 0 0 .91 3.5 14.98 14.98 0 0 0 2.5 1.37 20.62 20.62 0 0 0 9.22 2.36c1.725.055 3.45-.116 5.13-.51a12.651 12.651 0 0 0 5.2-2.45 10.99 10.99 0 0 0 2-2.24l.68-1.05a7.75 7.75 0 0 0 .69-1.34c.72-1.7.24-1.87.77-2.76a9.463 9.463 0 0 1 1.62-1.51Zm46.11-99.96a3.789 3.789 0 0 0-.16-2.47 4.273 4.273 0 0 0-2.9-2.5 4.164 4.164 0 0 0-3.12.8c-.833.416-1.633.898-2.39 1.44a7.304 7.304 0 0 0-2.86 5.38 10.79 10.79 0 0 0 .72 5.47c.352.775.799 1.504 1.33 2.17l1.24 1.25a3.997 3.997 0 0 0 2.78 1.12 3.52 3.52 0 0 0 3.31-2.43 3.481 3.481 0 0 0-.24-2.84 4.469 4.469 0 0 1-.391-2.216 4.473 4.473 0 0 1 .741-2.124c.157-.343.42-.627.75-.81 0 0-.08 0-.09-.08a5.413 5.413 0 0 0 1.28-2.16Z" fill="#174f78"/><path d="M208.5 152.76s-.08.05-.1.06c-.02.01.19-.04.1-.06Zm-46.42 49.94c1.35.39 2.53.82 3.84 1.1 1.31.28 2.69.45 3.46.7.912.29 1.795.661 2.64 1.11a19.99 19.99 0 0 0 3.68 1.56c2.9.871 6.022.625 8.75-.69.69-.31 1.13-.6 2-1a3.332 3.332 0 0 0 2.05-2.32 3.294 3.294 0 0 0-.44-2.48 2.133 2.133 0 0 0-2.08-.9 8.282 8.282 0 0 1-6.72-2 13.41 13.41 0 0 0-2.51-2.21 8.5 8.5 0 0 0-4.56-1.3c-3.08 0-5.47 1.51-7.87 1.62a8.003 8.003 0 0 1-1.81-.07 2.743 2.743 0 0 0-2.76 1.44 3.788 3.788 0 0 0-.405 1.613 3.788 3.788 0 0 0 1.31 2.969c.424.368.925.637 1.465.788l-.04.07Zm14.58 25.4a11.519 11.519 0 0 0 3.84-3.5c.88-1.16 1.38-2 1.77-2.54a7.703 7.703 0 0 1 1.42-1.51 13.107 13.107 0 0 1 2.13-1.62 4.724 4.724 0 0 1 1.71-.67 3.377 3.377 0 0 0 2.43-1.8 3.273 3.273 0 0 0 .2-2.46 2.076 2.076 0 0 0-1.77-1.37c-2.43-.22-5-1.27-8.15-1.07a9.831 9.831 0 0 0-2.24.44 5.46 5.46 0 0 0-1.2.59 9.3 9.3 0 0 0-1.05.78 10.707 10.707 0 0 0-2.43 3.22c-1 2.08-1.53 4.58-3 4.4a4.147 4.147 0 0 1-.6-.23 3.363 3.363 0 0 0-1.41-.46 3.008 3.008 0 0 0-1.492.308c-.462.23-.858.575-1.148 1.002a3.626 3.626 0 0 0-.639 1.432 3.622 3.622 0 0 0 .029 1.568 5.31 5.31 0 0 0 1.8 2.43 8.668 8.668 0 0 0 4.49 2.11 8.572 8.572 0 0 0 5.31-1.05Zm20.98 14.67 1.74-1.38a3.298 3.298 0 0 0 1.44-2.79 3.216 3.216 0 0 0-.313-1.251 3.214 3.214 0 0 0-.777-1.029 2.209 2.209 0 0 0-2.24-.34c-2.33.92-4.94.21-8 .63a6.76 6.76 0 0 0-4.57 2.76 6.492 6.492 0 0 0-1.1 3 7.344 7.344 0 0 0 .26 2.77c.31 1 .57 1.38.72 1.22.15-.16.25-.23.36-.21.11.02.07.2.19.21-.11.56-1.54 1.27-2.32 1.26h-.18c-.08 0-.42-.13-.61-.18a3.405 3.405 0 0 0-1.49 0 3.572 3.572 0 0 0-2.21 1.79 2.999 2.999 0 0 0 .31 3.33 7.451 7.451 0 0 0 2.3 1.63 10.134 10.134 0 0 0 9.65-.3 9.257 9.257 0 0 0 2.3-1.87 7.384 7.384 0 0 0 1.68-3.19A9.896 9.896 0 0 0 195 246l-.06-.88c-.18.37-.49.26.16-.33a31.026 31.026 0 0 1 2.54-2.02Zm-16.38 30.1h1.32l1.17.11a7.67 7.67 0 0 0 4.72-.9 8.138 8.138 0 0 0 4.73-5.64 4.197 4.197 0 0 0-1.4-4.62 3.902 3.902 0 0 0-3.54-.55 3.224 3.224 0 0 0-1.89 1.77c-.46 1.16-2.18 1.5-3.48 1.28-1.3-.22-1.93-.18-2.65.53 0 .14-.83.46-1.42 1a3.853 3.853 0 0 0-1.14 2.09 4.214 4.214 0 0 0 1 3.26 3.932 3.932 0 0 0 2.58 1.67ZM331 261.63a4.007 4.007 0 0 0-2.8-2.11 2.995 2.995 0 0 0-2.47.69c-.92.83-2.61 1.07-4.19 2.29a4.1 4.1 0 0 0-1.18 5.14c.89 1.82 2.86 2.65 4.06 3.38.639.376 1.256.787 1.85 1.23a3.986 3.986 0 0 0 1.624.578 3.99 3.99 0 0 0 1.716-.158 4.104 4.104 0 0 0 2.594-2.248 4.093 4.093 0 0 0-.024-3.432 4.507 4.507 0 0 0-1.26-1.62 4.002 4.002 0 0 0 .08-3.74Zm-.25 4.27a1.18 1.18 0 0 1-.45.65.492.492 0 0 1-.21.09.153.153 0 0 1-.09 0l.38-.42c.145-.188.272-.389.38-.6-.04.09 0 .16-.04.28h.03Zm-.4-1c-.45-.49.31-.39.43.36-.17-.12-.32-.26-.46-.37l.03.01Zm-12.18 43.86c.115.73.415 1.418.87 2 .033.129.073.256.12.38.14.24.15.24.23.37l.49.58c.1.16-.07 0 .08.26.287.486.622.941 1 1.36a6.915 6.915 0 0 0 3.922 2.152 6.915 6.915 0 0 0 4.418-.702 9.673 9.673 0 0 0 2.42-1.9l-.25.08c.327-.164.63-.373.9-.62a3 3 0 0 0 1.89-2.06 6.769 6.769 0 0 0 .2-3.45 5.483 5.483 0 0 0-2.82-3.44 5.116 5.116 0 0 0-4.73.16 3.405 3.405 0 0 0-1.4 1.27c-.07.14-.08.25.05.29.13.04.19 0 .32 0l.38.16c.36.12.75.53.66.64-.09.11-.28 0-.54-.16a9.775 9.775 0 0 0-1.72-.9 6.806 6.806 0 0 0-3.72-.52 3.115 3.115 0 0 0-2.19 1.35 4.134 4.134 0 0 0-.58 2.7Zm5.6 3.39a2.898 2.898 0 0 1-.42.23l-.1.05-.22.08-.21.05c-.21 0 0-.05.11-.08l-.46-2.43c.19.22.36.46.57.66.385.376.836.678 1.33.89a3.102 3.102 0 0 1-.6.55Zm11.62 25.78c-1.4.55-3.27-.09-4.51-1a4.762 4.762 0 0 1-1.11-1c-.11-.18.11.05-.13.17h-.24a4.396 4.396 0 0 0-.89-1 3.997 3.997 0 0 0-2.36-.95 4.36 4.36 0 0 0-3.6 1.61c-1 1.09-.51 2.89-.25 3.47.227.935.535 1.848.92 2.73a7.373 7.373 0 0 0 4.81 4.12c1.861.659 3.865.801 5.8.41a10.09 10.09 0 0 0 2.52-.91 8.62 8.62 0 0 0 1.16-.83 4.281 4.281 0 0 0 1.91-2.19 3.602 3.602 0 0 0-1.09-4.09 3.003 3.003 0 0 0-2.94-.54Zm-35.32 1.98a9.931 9.931 0 0 0-3.28-.38 9.268 9.268 0 0 0-5.93 2 6.494 6.494 0 0 0-1.22 1.43 3.779 3.779 0 0 0-.54 2.67 4.816 4.816 0 0 0 3.42 3.82 3.756 3.756 0 0 0 1.83 2.56 2.809 2.809 0 0 0 3.1-.12c1.26-1 3.2-1.37 5-2.89a5 5 0 0 0 1.68-3.2 5.302 5.302 0 0 0-1-3.75 6.3 6.3 0 0 0-3.06-2.14Zm-6.72 6.22h.08l-.07.08a.27.27 0 0 0-.01-.08Zm3.35-25.59a3.49 3.49 0 0 0-1.06 2.52c.07 1.38-1.75 2.14-2.91 1.74-.58-.12-1-.35-1.23-.37a.665.665 0 0 0-.37 0c-.06 0-.12 0-.18.09-.377.053-.751.126-1.12.22a4.316 4.316 0 0 0-2.27 1.75 3.869 3.869 0 0 0-.51 2.34 4.4 4.4 0 0 0 1.87 3.12 3.916 3.916 0 0 0 1.56.58c.54.07.82.06 1.25.14.79.07 1.64.26 2.55.3 1.912.18 3.82-.39 5.32-1.59a8.829 8.829 0 0 0 3.41-4.68 7.73 7.73 0 0 0 .23-3 6.89 6.89 0 0 0-.62-2.2 3.761 3.761 0 0 0-2.14-1.91 3.59 3.59 0 0 0-3.78.95Zm171.38 172.14a3.497 3.497 0 0 0-1.08 2.52c.07 1.39-1.75 2.15-2.92 1.74-.58-.12-1-.35-1.23-.37a.731.731 0 0 0-.36 0 1.1 1.1 0 0 0-.19.09c-.378.054-.752.13-1.12.23a4.283 4.283 0 0 0-2.26 1.74 3.881 3.881 0 0 0-.52 2.34 4.385 4.385 0 0 0 1.88 3.12c.469.31 1.003.508 1.56.58.53.08.81.07 1.24.15.79.07 1.64.25 2.55.29a7.377 7.377 0 0 0 5.32-1.58 8.912 8.912 0 0 0 3.42-4.69 8.096 8.096 0 0 0 .23-2.94 7.016 7.016 0 0 0-.63-2.21 3.735 3.735 0 0 0-2.14-1.91 3.635 3.635 0 0 0-3.75.9Zm-96.7-178.19c-1.38.67-3.23.25-5.07 0a5.204 5.204 0 0 0-4.57 1.41 14.735 14.735 0 0 0-1.6 2 17.485 17.485 0 0 1-1.87 2.24 3.523 3.523 0 0 0-.18 3.59 3.574 3.574 0 0 0 3.57 2.08c.37-.044.738-.111 1.1-.2l.61-.06c.4-.023.797-.073 1.19-.15a17.02 17.02 0 0 0 2.21-.58 20.251 20.251 0 0 0 4.17-1.5 16.365 16.365 0 0 0 1.86-1.21c.313-.256.598-.544.85-.86a4.34 4.34 0 0 0 1.73-2.2c1.05-3.59-2.38-5.6-4-4.56Zm-15.14 42.67a1.74 1.74 0 0 1 .59-.17h.2a4.17 4.17 0 0 0 .22-.88 3.999 3.999 0 0 0-1.77-3.73 4.174 4.174 0 0 0-4.796.389 4.17 4.17 0 0 0-1.054 1.331c-.39.91-.4 1.49-.62 2l-.75 1.9a5.738 5.738 0 0 0 .05 4.53 7.002 7.002 0 0 0 3 3.69 5.999 5.999 0 0 0 3.86.74 3.757 3.757 0 0 0 3-2.84 3.99 3.99 0 0 0-.52-3.1 4.218 4.218 0 0 0-1.71-1.38c-1.01-.36-.73-2.12.3-2.48Zm10.5-70.59a15.294 15.294 0 0 0-2.21-1 4.048 4.048 0 0 0-3.34.41 4.209 4.209 0 0 0-2 3.48c-.01.564.113 1.123.36 1.63l-.08.12a.915.915 0 0 0-.07.14l-.37.44a4.577 4.577 0 0 0-1 2.7 3.57 3.57 0 0 0 .94 2.51 3.82 3.82 0 0 0 3.32 1.15 4.416 4.416 0 0 0 2.24-1c.89-.89 2.54-.82 4.29-1.63a4.119 4.119 0 0 0 2-5.15c-.74-2.08-2.73-3.08-4.08-3.8Zm-4.55 7.15a2.622 2.622 0 0 1-.66-.42c.235.139.483.256.74.35l-.08.07Zm-103.5 143.75a7.308 7.308 0 0 0 5.08 2.12c.465 0 .929-.057 1.38-.17l.7-.17a5.735 5.735 0 0 0 1.19-.48c1.81-.85 2.66-3.47 1.95-4.7a3.796 3.796 0 0 0-2.44-2.29 4.758 4.758 0 0 0-2.36-.13.913.913 0 0 1-1-.87 1.222 1.222 0 0 1 .7-1.32.507.507 0 0 1 .59.18c0 .14.07 0 .13-.24l.14-.54a5.262 5.262 0 0 0 0-1.19 4.157 4.157 0 0 0-2.721-3.312 4.149 4.149 0 0 0-4.199.862 3.631 3.631 0 0 0-1.05 3.11c.08 1.38-.19 2.69-.21 4.41a6.062 6.062 0 0 0 2.12 4.73Zm219.08-64.76a3.312 3.312 0 0 0-.3 2.47 2.806 2.806 0 0 0 2.79 2.24c1.92-.11 4.42 0 6.85-1.49a6.415 6.415 0 0 0 2.7-7.18c-.79-2.72-3-4.17-4.3-5.67a17.542 17.542 0 0 1-1.83-2.4 13.022 13.022 0 0 1-.74-1.32 3.482 3.482 0 0 0-2.45-1.57 4.379 4.379 0 0 0-4.8 3.76 4.902 4.902 0 0 0 1 3.66l.79 1.2a13.734 13.734 0 0 1 1.59 3.24c.1.13.14.49.31.56.17.07 1 .08.83.71a4.071 4.071 0 0 0-2.44 1.79Zm-61.61 54.21a3.312 3.312 0 0 0-.3 2.47 2.806 2.806 0 0 0 2.79 2.24c1.92-.11 4.42 0 6.85-1.49a6.42 6.42 0 0 0 2.7-7.18c-.79-2.72-3-4.17-4.3-5.67a17.542 17.542 0 0 1-1.83-2.4 13.022 13.022 0 0 1-.74-1.32 3.485 3.485 0 0 0-2.45-1.57 4.379 4.379 0 0 0-4.8 3.76 4.863 4.863 0 0 0 1 3.66l.79 1.2a13.734 13.734 0 0 1 1.59 3.24c.1.13.14.49.3.56.16.07 1 .08.84.71a4.071 4.071 0 0 0-2.44 1.79Zm32.22-100a3.254 3.254 0 0 0-2.89.86 1.631 1.631 0 0 1-1.94.27 2.53 2.53 0 0 1-1.23-1.58 6.548 6.548 0 0 1-.23-1.28.35.35 0 0 0-.1-.22l-.1-.06h-.08c-.09-.24-.18-.48-.28-.7a4.31 4.31 0 0 0-2.43-2.21 3.779 3.779 0 0 0-2.72.19 4.255 4.255 0 0 0-2.41 3.22 10.169 10.169 0 0 0 .45 3c.189.966.473 1.911.85 2.82a7.786 7.786 0 0 0 4.43 4.45 9.317 9.317 0 0 0 6.59.52 8.285 8.285 0 0 0 3-1.72 6.563 6.563 0 0 0 1.07-1.4 4.535 4.535 0 0 0 .9-2.82 3.468 3.468 0 0 0-2.88-3.34ZM432.19 310l.74-1.19a3.16 3.16 0 0 0 .38-2.38 3.098 3.098 0 0 0-2.93-2.38 4.187 4.187 0 0 0-1.28-1.22 3.467 3.467 0 0 0-2.9-.27c-.48.201-.933.459-1.35.77a4 4 0 0 0-.55.25c-.663.302-1.296.667-1.89 1.09-2.24 1.44-3.85 4.71-8.38 4.66a3.36 3.36 0 0 0-2 3.61 3.412 3.412 0 0 0 1.14 2.18c.65.517 1.421.862 2.24 1a13.25 13.25 0 0 0 6.17.39 14.935 14.935 0 0 0 10.61-6.51Zm-14 42 .74-1.19a3.118 3.118 0 0 0 .097-3.115 3.125 3.125 0 0 0-2.647-1.645 4.317 4.317 0 0 0-1.28-1.22 3.498 3.498 0 0 0-2.9-.26 6.019 6.019 0 0 0-1.35.77 3.946 3.946 0 0 0-.55.24c-.659.31-1.292.674-1.89 1.09-2.24 1.45-3.85 4.72-8.38 4.67a3.354 3.354 0 0 0-1.619 1.456 3.354 3.354 0 0 0-.381 2.144 3.464 3.464 0 0 0 1.14 2.19c.649.519 1.42.863 2.24 1a13.12 13.12 0 0 0 6.17.39 14.877 14.877 0 0 0 10.61-6.52Zm27.73 48-1.2-.72a3.114 3.114 0 0 0-3.122-.081 3.11 3.11 0 0 0-1.618 2.671c-.49.339-.903.779-1.21 1.29a3.472 3.472 0 0 0-.24 2.9c.206.479.468.932.78 1.35.069.186.153.367.25.54.31.66.682 1.289 1.11 1.88 1.46 2.23 4.74 3.82 4.73 8.35a3.363 3.363 0 0 0 3.62 1.94 3.463 3.463 0 0 0 2.18-1.17c.518-.65.862-1.42 1-2.24.6-2.001.713-4.116.33-6.17a14.939 14.939 0 0 0-6.61-10.54Z" fill="#174f78"/></svg>
